<svg xmlns="http://www.w3.org/2000/svg" xmlns:xlink="http://www.w3.org/1999/xlink" width="1030" height="495" viewBox="0 0 1030 495">
  <defs>
    <clipPath id="clip-path">
      <rect id="Rectangle_402846" data-name="Rectangle 402846" width="314.472" height="430.715" fill="#7a4f00"/>
    </clipPath>
  </defs>
  <g id="Group_1101575" data-name="Group 1101575" transform="translate(-285 -2231)">
    <path id="Path_608309" data-name="Path 608309" d="M0,0H1030V495H0Z" transform="translate(285 2231)" fill="#fef7eb"/>
    <g id="Group_1101410" data-name="Group 1101410" transform="translate(643.528 2256.563)">
      <g id="Group_1101409" data-name="Group 1101409" clip-path="url(#clip-path)">
        <path id="Path_883025" data-name="Path 883025" d="M249.182,301.621c-1.769.94-2.535,2.781-3.661,4.258a14.41,14.41,0,0,1-5.667,4.555,7.963,7.963,0,0,0-4.262,3.59c-1.167,2.427-2.411,4.88-1.83,7.784a61.824,61.824,0,0,0,2.483,8.243,25.331,25.331,0,0,0,3.151,6.265c.182.248.083.665.472.79q2.314,3.839,4.63,7.675c.59.6-.286,2.073,1.252,2.113,2.634,4.879,4.625,9.96,4.184,15.627-.225,2.889-1.6,5.51-2.5,8.239-1.924,5.858-3.759,11.7-2.825,18.049a14.955,14.955,0,0,1-.552,7.43,18.159,18.159,0,0,0-.627,2.43c-.936,4.261-2.821,8.217-3.98,12.409a11.3,11.3,0,0,0-.535,2.871,15.5,15.5,0,0,1-1.665,7.738,2.629,2.629,0,0,0-.207,1.846,18.28,18.28,0,0,1,.188,2.518c.086,1.4-.189,2.534-1.9,2.7-.408.04-.67.429-.962.753-1.587,1.763-2.473,1.613-3.535-.571a12.177,12.177,0,0,1-1.228-3.284,3.939,3.939,0,0,0-3.235-2.986c-1.638-.39-3.278-.783-4.9-1.251-2.146-.62-2.879-2.085-1.816-4.023a28.692,28.692,0,0,1,5.32-7,11.589,11.589,0,0,0,3.175-5.062,16.833,16.833,0,0,0,.636-9.733,14,14,0,0,0-8.959-9.726c-.392-.152-.774-.333-1.161-.5a1.09,1.09,0,0,1-.7-1.28c-.009-.18.351-.213.235-.321s-.189.227-.366.256c-.858.259-1.584,1.109-2.611.571a13.83,13.83,0,0,0-7.089,1.291c-.82.425-.914-1.044-1.719-.657-.426-.024-.737-.38-1.164-.4-.617.3-.407.952-.617,1.422-.112.418-.46.615-.785.833a5.168,5.168,0,0,1-3.8-.848,11.229,11.229,0,0,0-8.562-2.055c-.347.046-.7.029-1.053.041-.411.108-.924.293-1.223.022-1.38-1.254-1.869-.417-2.219.865a97.97,97.97,0,0,1-14.96,5.341,75.144,75.144,0,0,1-14.28,2.258,6.1,6.1,0,0,1-3.066-.412c-.085-.171-.147-.428-.372-.1l-.407-.1a2.378,2.378,0,0,0-1.835-1.1,2.318,2.318,0,0,1-1.159-2.492c.269-2.051.067-4.144.944-6.149.65-1.485.238-2.048-1.3-3.017a7.543,7.543,0,0,1-3.076-2.726c-.382-.692.961-.9.421-1.668-.776-.31-.827,1.165-1.665.755a16.349,16.349,0,0,1-3.812-2.933c-.473-.664-.166-2.1-1.7-1.709a29.515,29.515,0,0,1-5.026-5.567c-.449-.507-.1-1.685-1.3-1.557a35.54,35.54,0,0,1-5.9-7.744,14.8,14.8,0,0,0-2.311-3.221c-1.423-1.406-2-3.33-3.118-4.937-1.242-1.789-2.753-3.345-3.963-5.142a3.347,3.347,0,0,1-.821-1.437c-.15-.393.021-1.041-.748-.943-1.713-1.987-4.2-2.705-6.417-3.845-3.486-1.8-7.167-3.182-10.635-5.034a18.123,18.123,0,0,0-4.125-1.59c-2.972-.74-5.256-2.608-7.521-4.449-3.035-2.464-5.931-5.1-8.841-7.713-.572-.514-1-.693-1.635-.22a13.014,13.014,0,0,1-3.076,1.348c-1.553-.71-2.385.682-3.515,1.2a16.487,16.487,0,0,1-9.816.421,10.474,10.474,0,0,0-3.864-.714c-1.761.312-2.113-1.022-2.536-2.214-.514-1.457-.388-3.084-1.161-4.477-.916-1.477-.872-3.188-1.177-4.814.1-4.566,2.873-7.6,7.3-7.876a2.317,2.317,0,0,0,2.078-1.158,24.756,24.756,0,0,1,1.765-2.624c1.7-2.152,2.99-2.371,5.449-.965,1.034,1.13.855,2.629,1.157,3.97.755,3.36,2.045,4.122,5.226,2.945a15.12,15.12,0,0,0,2.279-1.07,1.846,1.846,0,0,0,.629-.6c.633-2.7-.163-5.127-1.386-7.478a4.779,4.779,0,0,1,.409-3.29,4.887,4.887,0,0,1,.562-.806,7.237,7.237,0,0,1,3.794-2.535c1.66-.567,3.455-.766,4.951-1.785,2.361-1.429,3.055-4.159,4.755-6.1a9.077,9.077,0,0,0,1.384-1.75c.847-1.338,1.962-2.469,2.881-3.752a4.415,4.415,0,0,0,1.222-1.382,8.533,8.533,0,0,1,.556-.97c3.357-4.605,6.794-9.152,9.945-13.9,1.87-2.589,3.414-5.434,5.9-7.548a1.53,1.53,0,0,1,.617-.051c1.511.73,1.963,2.289,2.693,3.588,1.091,1.936,2,3.975,3.038,5.943a14.861,14.861,0,0,1,1.315,3.679c.365,1.514-.389,2.947-.31,4.442a55.5,55.5,0,0,0-.8,6.118,10.3,10.3,0,0,0,1.153,5.317c1.282,2.416,3.473,3.328,6.023,3.714,1.039.157,2.081.326,3.115.526,1.369.416,2.6,1.156,3.921,1.686a22.758,22.758,0,0,1,2.74,1.788c1.426,1.111,2.15,2.773,3.252,4.138a4.4,4.4,0,0,1,.317.47c.107.152.208.31.314.464.062.07.118.145.18.215.136.133.264.273.395.411.069.069.132.141.2.209,2.989,3.29,5.407,3.159,8.129-.328a10.764,10.764,0,0,0,2.382-5.976q1-5.009,1.99-10.012a25.169,25.169,0,0,1,1.983-5.783,5,5,0,0,1,.268-.526c.138-.251.289-.5.442-.739a19.2,19.2,0,0,1,2.427-2.991,5.014,5.014,0,0,1,.9-.533c.148-.085.3-.159.459-.229.234-.117.471-.228.713-.333a2.576,2.576,0,0,1,.53-.148,4.7,4.7,0,0,1,1.149.011,30.461,30.461,0,0,1,7.234.786,6.864,6.864,0,0,1,1.111.413c.18.065.358.141.536.213a10.263,10.263,0,0,1,2.429.885c2.417,1.347,4.785,2.922,7.746,1.579.157-.089.318-.174.473-.266.073-.052.15-.1.224-.15.217-.154.444-.294.672-.431.143-.1.291-.2.437-.3.069-.056.142-.106.211-.162a6.815,6.815,0,0,1,.863-.657c.086-.036.173-.068.261-.1a2.315,2.315,0,0,1,.569-.05c1.209.176,1.2-.54,1.016-1.388a3,3,0,0,1-.023-.614,4.533,4.533,0,0,1,.638-1.776c3.236-5.5,8.368-8.256,14.279-9.929a8.7,8.7,0,0,1,7.984,1.3,13.944,13.944,0,0,0,4.7,3.056c2.879.753,5.229-.291,7.337-2.152a23.388,23.388,0,0,0,4.323-5.128,6.914,6.914,0,0,1,2.091-2.337,3,3,0,0,1,.589-.238,7.147,7.147,0,0,1,5.517.9,9.4,9.4,0,0,1,1.926,1.254c2.271,2.181,4.865,2.131,7.326.665a6.025,6.025,0,0,0,3.059-5.994c.224-1.084,1.169-1.125,1.966-1.28a2.971,2.971,0,0,0,2.616-2.854,44.559,44.559,0,0,1,1.432-6.37,3.3,3.3,0,0,1,.265-.54,3.186,3.186,0,0,1,1.042-.948c.141-.1.289-.2.434-.3s.269-.22.4-.333c.063-.061.131-.117.2-.178a4.062,4.062,0,0,1,.418-.344,4.114,4.114,0,0,1,.478-.294,30.534,30.534,0,0,1,4.982-2.475,13.662,13.662,0,0,1,7.206-.133,5.937,5.937,0,0,1,.583.231,5.613,5.613,0,0,1,3.172,2.236,6.067,6.067,0,0,0,2.378,2.008c1.008.485,2.02.07,3.028.011,1.1.164.966-.843,1.315-1.394a7.164,7.164,0,0,1,5.27-3.08c4.592-.459,9.2-.9,13.544,1.289.223.267.433.544.669.8,1.861,2.013,1.932,3.015.284,5.3a6.892,6.892,0,0,0-1.216,2.664c-.36,1.743.031,2.479,1.684,3.3,1.91.946,1.8,1.268.894,3.186-.991,2.088-2.978,3.344-3.954,5.377a9.425,9.425,0,0,0-1.005,2.531c-.282,1.69-.3,3.214,1.613,4a1.255,1.255,0,0,1,.485.4q2.823,3.652,5.629,7.319a2.389,2.389,0,0,0,.857,1.276c.8,1.467,1,3.15,1.675,4.661a1.918,1.918,0,0,1,.349.452l.033.047c-.226,1.381.585,1.862,1.759,2.029,3.174,3.995,5.722,8.291,6.522,13.441a15.837,15.837,0,0,1,.138,5.622,3.845,3.845,0,0,1-.694,1.743,1.7,1.7,0,0,1-2.924-.21,8.255,8.255,0,0,1-1.309-3.526c-.381-4.385-2.563-8.076-4.611-11.814a6.454,6.454,0,0,0-2.021-2.133c-1.374-.967-2.5-1-3.753.122-1.476,1.323-3.265,1.5-5.062,1.761a3.726,3.726,0,0,1-2.863-1.13c-2.664-2.127-5.049-2.277-8.083-.507a42.652,42.652,0,0,1-6.163,3.13,8.119,8.119,0,0,1-5.728.149c-1.266-.424-2.526-.871-3.771-1.354a3.657,3.657,0,0,0-3.419.206,6.014,6.014,0,0,1-3.234.817,19.678,19.678,0,0,0-4.965.728c-2.544.6-5.18.128-7.772.085a16.983,16.983,0,0,0-6.186,1.1,2.387,2.387,0,0,0-1.529,1.57c-.524,1.4-.707,2.863-1.109,4.28a3.351,3.351,0,0,0,.8,2.754c1,1.443,2.208,2.734,3.252,4.146.585.791,1.513.985,2.224,1.536a4.656,4.656,0,0,0,.471.328l-.018-.017c.505.8,1.43.574,2.14.873,2.245.609,4.175,1.91,6.258,2.872a1.209,1.209,0,0,1,.823,1.343,1.866,1.866,0,0,1-2.043,1.456,3.443,3.443,0,0,1-1.583-1.278c-.283-.495-.195-1.443-1.041-1.3-.722.117-.569,1.011-.83,1.547a2.851,2.851,0,0,1-.345.514" fill="#ffb937"/>
        <path id="Path_883026" data-name="Path 883026" d="M204.062,8.1a41.023,41.023,0,0,1-4.179-6.565C199.08-.123,197.447-.326,195.73.4a12.064,12.064,0,0,0-3.4,2.333c-1.821,1.65-3.59,3.356-5.413,5a24.94,24.94,0,0,1-5.524,4.165h0l-.87-.049a2.881,2.881,0,0,0-2.158.6c-3.069,2.076-4.945,5.112-6.76,8.208-.842,1.233-2.242,1.738-3.378,2.587a20.452,20.452,0,0,0-4.218.879c-1.647.24-3.324.355-4.935.746a28.5,28.5,0,0,0-9.057,3.69c-2.615,1.713-5.454,3.065-8.027,4.855a8.1,8.1,0,0,0-1.214.238,12.983,12.983,0,0,1-8.1.633l-.848-.015a4.6,4.6,0,0,0-2.639.8h0a2,2,0,0,0-1.409.853c-1.686,2.411-4.135,3.087-6.884,3.231-2.515.132-4.929.933-7.454,1.151a11.931,11.931,0,0,0-5.805,1.552h0c-1.584-.2-2.824.764-4.1,1.387-2.287,1.121-4.689,2.14-6.419,4.151a3.332,3.332,0,0,1,.792.542,9.392,9.392,0,0,1-.792-.542c-4.343,2.662-5.1,7.328-4.891,11.919A8.851,8.851,0,0,1,91.971,63h0l.032.008a1.3,1.3,0,0,1-.4.476l.4-.476a.494.494,0,0,0-.4.476.289.289,0,0,0-.038.264.991.991,0,0,0-.794,1c-.425.366-.858.724-1.274,1.1-1.881,1.7-2.92,4.278-1.454,7.714a9.67,9.67,0,0,0,1.073,1.8c.271.38.476.772.184,1.148-1.239,1.593-2.262,3.417-4.236,4.279a9.364,9.364,0,0,0-4.059,2.822,9.986,9.986,0,0,1-2.128,2.022,14.165,14.165,0,0,0-4.193,4.94,10.159,10.159,0,0,1-3.045,3.443c-.552.426-1.1.86-1.646,1.291-.563,1.037.038,1.918.437,2.787.821,1.79,1.719,3.545,2.611,5.3a7.944,7.944,0,0,1,.46,6.715,73.9,73.9,0,0,0-3.192,12.67c.056,1.238-.339,2.444-.246,3.683a21.914,21.914,0,0,0,.806,4.194,4.814,4.814,0,0,0,1.947,2.827,1.407,1.407,0,0,0,1.63-.347c.147-.106.222-.3.415-.344-.124.19-.4.238-.449.492a1.872,1.872,0,0,0,.472,1.7,8.158,8.158,0,0,0,3.933,1.428,5.725,5.725,0,0,0,.655.013,11.3,11.3,0,0,0,4.092-.9c2.675-1.314,5.52-2.324,7.746-4.423.862-1.063,1.987-1.854,2.915-2.849.066-.07.136-.134.2-.2.135-.133.268-.266.391-.411a13.388,13.388,0,0,1,2.241-2.047c1.129-1.3,2.605-2.235,3.731-3.537a2.679,2.679,0,0,0,.422-.819c.9.25,1.534-.407,2.226-.815a25.076,25.076,0,0,1,5.154-2.834c1.246-.5,2.577-.762,3.777-1.382a2.363,2.363,0,0,0,.414-.4.927.927,0,0,0,.265.02,2.829,2.829,0,0,0,.451-.12c.149-.041.3-.074.447-.111.311-.037.625-.029.937-.051a3.372,3.372,0,0,0,.479-.07,5.067,5.067,0,0,1,.717-.111,2.559,2.559,0,0,0,.478-.035,1.344,1.344,0,0,1,.9.167,2.383,2.383,0,0,0,1.069.034,1.254,1.254,0,0,0,.453-.218c-.033.085.021.162.173.229l-.011-.009a.507.507,0,0,0,.832-.064h0c1.327,1.171,3.216,1.847,3.459,3.97a5.325,5.325,0,0,1,.2,2.1,6.186,6.186,0,0,0,0,.624c.021.843-.011,1.688.048,2.532a17.443,17.443,0,0,1,.068,4.277c.475,1.971-.126,4.29,1.88,5.763,1.1.57,2.005-.032,2.929-.47a4.482,4.482,0,0,1,2.794-.787c-.559,2.2.648,4,1.375,5.9,1.816,2.811,2.706,3.055,5.781,1.574a16.714,16.714,0,0,0,2.362-1.923,55.054,55.054,0,0,0,5.242-6.691,47.915,47.915,0,0,0,3.328-4.745,17.539,17.539,0,0,0,1.408-2.765,3.844,3.844,0,0,1,1.311-2.056c.138-.146.393-.172.43-.421a3.859,3.859,0,0,1,1.716-1.738,4.362,4.362,0,0,0,2.143-2.91c.217-.869.524-1.715.791-2.571.345-.363.028-.924.385-1.282l-.009-.008c.716-.7.459-1.542.353-2.372-.251-1.956-1.205-3.728-1.469-5.679-.579-1.349-.44-3-1.663-4.077a1.1,1.1,0,0,0,.028-.192,10.059,10.059,0,0,1-.144-2.551l.063-.276q-.067-.663-.134-1.327a1.876,1.876,0,0,1-.25.124.957.957,0,0,1,.25-.124c.111-.452.016-.972.432-1.325-.246-1.629.369-3.2.4-4.805a4.511,4.511,0,0,0,.411-.819c.5-2.082.7-4.227,1.348-6.276-.116-.518.681-1.123,0-1.533-1.3-.78-.931-1.962-.782-3.021a8.074,8.074,0,0,1,2.354-4.81,9.171,9.171,0,0,0,1.957-3.443,13.734,13.734,0,0,0,.78-6.212,9,9,0,0,1,2.685-7.207c1.576-1.738,3.365-3.419,4-5.838h0a8.077,8.077,0,0,0,1.284-2.591,31.182,31.182,0,0,1,3.175-7.218c.814-1.2,2-2.176,2.365-3.67-.01-.013-.016-.025-.026-.037a15.756,15.756,0,0,0,4.274-2.983h0a12.922,12.922,0,0,0,8.02-7.606l0,0a13.065,13.065,0,0,0,2.946-3.843,38.576,38.576,0,0,1,8.067-6.05c1.452-.8,2.852-1.79,4.241-2.746a5.238,5.238,0,0,0,1.464-7.23M96.948,65.443a1.757,1.757,0,0,0-.833-.717.441.441,0,0,1,.708.054.549.549,0,0,1,.125.663M127.61,93.13s-.008-.006-.011-.011h.022l-.011.011m26.695-1.3c-.013,0-.02.014-.033.018s-.015.012-.022.02a1.154,1.154,0,0,1-.192-.511,1.054,1.054,0,0,0,.247.473m-3.1-29.89c-.029.025-.058.049-.087.075-.021-.055-.037-.094-.056-.144.046.025.1.047.143.069m-11.689-2.263c0,.01.008.02.013.03l-.012.018a.341.341,0,0,0-.033-.042l.032-.006M135.857,46.87a.65.65,0,0,1,.091.142c-.1-.04-.2-.072-.281-.1a.777.777,0,0,1,.19-.045m-.51-1.349-.008.012v-.019l.009.007m-1.194,48.861c-.013.018-.019.033-.032.051,0-.02-.01-.034-.014-.054a.356.356,0,0,0,.046,0m-2.265-43.406a2.831,2.831,0,0,1,.243,1.59c-.114-.379-.286-.86-.528-1.521.086-.1.182-.147.285-.069m14.934,65.068c-.027-.175-.054-.337-.083-.491a1.611,1.611,0,0,0,.295.027c-.069.145-.14.3-.212.464m9.038-74.473a1.5,1.5,0,0,0,.042-.163,1.17,1.17,0,0,0-.1-.076.789.789,0,0,0,.091-.157c.006.082.006.153.016.24.012.025.03.044.043.068-.028.03-.059.059-.09.088m1.8,3.691-.008.011-.018,0a.241.241,0,0,0,.026-.018Zm1.707.049c-.007-.013-.01-.023-.018-.037v0l0,.006.04,0c-.009.012-.019.024-.027.036" fill="#bb7d23"/>
        <path id="Path_883027" data-name="Path 883027" d="M77.461,176.6a3.257,3.257,0,0,0-.374-1.756.706.706,0,0,0-.1-.1,6.581,6.581,0,0,0-.052-.876A10.541,10.541,0,0,0,76.4,171.9c-.165-.432-.308-.87-.482-1.3a4.356,4.356,0,0,0-.407-.7,4.272,4.272,0,0,1-.415-.963,3.9,3.9,0,0,0-.2-.5,5.1,5.1,0,0,0-.254-.493,3.314,3.314,0,0,0-.318-.47,43.635,43.635,0,0,0-3.175-3.373,61.928,61.928,0,0,1-8.287-8.413c-.16-.239-.319-.478-.483-.715-.3-.3-.331-.886-.783-1.006.013-.106.025-.215.034-.323a10.794,10.794,0,0,0-.647-2.969,1.315,1.315,0,0,0-.21-.081c.008-.006.012-.015.02-.021a1.128,1.128,0,0,0,.773-.559,21.917,21.917,0,0,1,2.615-4.794,9.015,9.015,0,0,0,1.818-5.706,4.506,4.506,0,0,0-2.885-4.394c-.061.06-.127.118-.192.177-.136-1.99-2.269-2.233-3.15-3.571-1.413-.82-2.378-2.162-3.659-3.135a5.783,5.783,0,0,1-2.115-4.929c.114-1.236.026-2.492.016-3.739-.005-.543.1-1.124-.4-1.542h0q.007-2.338.016-4.677a22.884,22.884,0,0,1-1.17-2.688A23.349,23.349,0,0,0,46.26,101.2c-1.6-1.614-3.143-1.284-3.987.851-.357.9-.417,1.935-.842,2.8a8.025,8.025,0,0,0,.781,8.677,11.022,11.022,0,0,1,1.669,3.605,8.568,8.568,0,0,0,.211,1.227,3.335,3.335,0,0,1-1.552,4.291c-.591.361-1.122.822-1.68,1.237-2.47,1.342-4.97,2.642-6.642,5.041-.154.221-.45.337-.646.535-2.779,2.813-3.171,5.548-.662,8.778,1.468,1.889,3.066,3.686,4.4,5.662a15.606,15.606,0,0,0,3,3.495,54.625,54.625,0,0,1,4.677,4.5c.138,0,.283.01.43.019a.775.775,0,0,1-.43-.019,1.375,1.375,0,0,0,.551.8c.014.479-.016.973.416,1.32h0a.387.387,0,0,0,.072.357c.185,1.49.283,2.917-1.465,3.673a1.225,1.225,0,0,0-.681,1.235,7.555,7.555,0,0,1-.517,2.24l0,.007a2.13,2.13,0,0,0-.737,1.327,10.826,10.826,0,0,0-3.384,5.1c-.311,1.218-.121,1.507,1.225,2.076.526-.024.444-.413.476-.733.612.576,1.224,1.153,2.064.305,1.134.088,2.621-.563,3.289.576.723,1.233-.353,2.454-.857,3.65-.759,1.8-2.127,3.228-2.931,4.992l.007.008c-.664-.018-.888.48-1.127.962A11.037,11.037,0,0,0,39.8,183.18a4.027,4.027,0,0,0,.594,3.759,49.884,49.884,0,0,1,4.4,7.585c.974,1.918,2.1,3.763,2.089,6.017l-.114,1.663a17.668,17.668,0,0,1-4.094,5.429,5.155,5.155,0,0,0-1.551,5.323,14.236,14.236,0,0,0,2.646,4.939c1.083,1.515,2.487,2.826,3.089,4.661-.029.553.133,1.223-.121,1.636a4,4,0,0,0,.217,4.658,1.268,1.268,0,0,1-.157,1.715c-1.147,1.138-1.718,2.682-2.821,3.841a1.162,1.162,0,0,1,.608.042,4.068,4.068,0,0,0-.608-.042c-.075.121-.149.242-.224.362a.657.657,0,0,1,.327.292,3.434,3.434,0,0,0-.327-.292,3.858,3.858,0,0,0-1.273,2.35c-1.051,3.171-5.225,5.971-8.762,5.677a4.252,4.252,0,0,0-2.225.493c-3.558,1.69-3.815,4.967-3.007,8.921.179.874,1.293,1.517.895,2.472-.376.9-1.7.545-2.306,1.3a.773.773,0,0,1-.334.24,44.965,44.965,0,0,0-12.12,6.592,15.02,15.02,0,0,1-2.847,1.762A10.584,10.584,0,0,0,8.2,267.145c-1.27,1.388-2.477,2.849-2.129,5.041A12.971,12.971,0,0,0,7.281,275.3c1.373,3.194,1.184,4.086-1.419,6.343a10.1,10.1,0,0,1-2.1,1.412A11.632,11.632,0,0,0,1.091,285.1c-1.416,1.333-1.422,2.344-.2,3.793a11.171,11.171,0,0,0,4.682,3.125,10.017,10.017,0,0,1,3.149,1.656c.265.167.7.111.745.566.029.613.1,1.228.077,1.839-.084,1.842-.1,1.842,1.713,2.739a.42.42,0,0,0,.447.009,1.782,1.782,0,0,0,.4-.08c1.658-1.52,2.628-3.642,4.407-5.06.426-.46.967-.778,1.432-1.191.064-.058.13-.11.194-.168.131-.1.265-.2.4-.3.14-.082.281-.163.416-.252a4.028,4.028,0,0,0,.4-.277c.129-.094.259-.187.384-.287.337-.231.695-.432,1.038-.651.071-.045.146-.086.216-.132.151-.083.306-.167.453-.258a4.355,4.355,0,0,0,.465-.285,5.111,5.111,0,0,0,2.451-3.034,4.362,4.362,0,0,1,4-3.455c1.617-.52,3.432-.52,4.759-1.806a2.347,2.347,0,0,0,.518-2.125,11.7,11.7,0,0,0-.773-1.729c-1.068-2.279-.709-3.661,1.358-5.252,1.581-.563,2.251.818,3.144,1.571,3.166,2.668,4.412,2.753,7.673.288.069-.07.142-.135.21-.2.139-.138.276-.275.4-.423.064-.073.133-.142.2-.214a5.475,5.475,0,0,0,.378-.442,4.532,4.532,0,0,0,.338-.478,6.615,6.615,0,0,0,2.057-4.818c0-.025,0-.049,0-.074.435-.3.352-.925.469-1.424a18.656,18.656,0,0,1,1.052-6.688c.28-1.3,1.317-1.986,2.238-2.768.194-.186.381-.375.561-.575q.519-.554,1.06-1.084c.057-.061.117-.117.173-.178.117-.115.235-.228.347-.348s.243-.216.359-.33a5.753,5.753,0,0,1,.841-.553,3.124,3.124,0,0,0,.441-.306c.845-.834,1.826-1.586,1.876-2.9.517,0,.764-.366.93-.834.038-.1.074-.2.108-.3.33-.306.478-.793.867-1.039a1.435,1.435,0,0,0,.9-.686,24.39,24.39,0,0,0,1.99-3.2c.212-.578.427-1.155.631-1.735.228-1.312,1.18-2.571.367-3.959a4.379,4.379,0,0,0,.346-.274c.992-2.644.641-5.452.993-8.174a6.439,6.439,0,0,0-.033-.665,22.445,22.445,0,0,1,2.994-13.49c.369-.639.983-1.226.711-2.094,1.326-.013,1.645-1.341,2.479-2,.062-.071.127-.137.189-.209.128-.135.255-.268.373-.409.06-.069.123-.133.182-.2a4.251,4.251,0,0,0,.34-.418,4.84,4.84,0,0,0,.286-.452c.144-.23.3-.456.431-.69a2.144,2.144,0,0,0,.251-1.654l0-.006c1.135-.486,1.04-1.651,1.12-2.618.307-3.731-.074-7.468,0-11.206a6.155,6.155,0,0,0-.12-.993,20.676,20.676,0,0,1,.717-3.289,6.221,6.221,0,0,1,.422-.459,3.255,3.255,0,0,0,.524-2.4c-.037-.054-.053-.111-.084-.165.751-.279.607-1.173.923-1.748a8.761,8.761,0,0,0,.189-1.754,31.3,31.3,0,0,0,.407-6.822m-34.7,91.554a.216.216,0,0,1,.055-.285.432.432,0,0,1,.026-.113,1.013,1.013,0,0,0,.026.284c0,.005-.112.11-.107.114m.136-.56c.03-.06.06-.121.093-.181l.018.015c-.037.055-.073.111-.111.166m3.046-3.545a.846.846,0,0,1,.122.152c-.044-.051-.095-.1-.144-.148l.022,0m.067.649a.479.479,0,0,0,.146-.231.613.613,0,0,1,.016.115c-.006.117-.121.152-.162.116m1.646-80.248h-.014l.014-.02.005.009-.005.011m1.28-55.318c-.019-.007-.036-.019-.056-.025a.281.281,0,0,1,.057-.038c0,.021,0,.042,0,.063m4.894,89.241c.04-.08.083-.16.122-.241.121-.239.243-.479.341-.728.014-.038.024-.077.037-.115a1.747,1.747,0,0,1-.5,1.084m.516-77.7c.01,0,.02,0,.03-.006l0,.034c-.01-.01-.022-.018-.032-.028M58.44,218.8a1.781,1.781,0,0,1-.074-.388.364.364,0,0,1,.074.388m1.668-33.646,0,.019-.008-.007,0-.012m.764,22.166a1.815,1.815,0,0,0-.426-.622c-.481-.4-.475-.388-.184-1.176a1.287,1.287,0,0,0,.073-.415c.59.7,1.611.991,2.013,1.819-.514.083-1.234-.259-1.476.394m2.141,2.316v-.007l.015,0-.015.005m8.249-9.408c-.1-.277-.171-.563.093-.661a1.46,1.46,0,0,0-.093.661m.307.413a1.9,1.9,0,0,1,.528.2,3.626,3.626,0,0,1-.528-.2" fill="#efb499"/>
        <path id="Path_883028" data-name="Path 883028" d="M158.8,207.407c.343-.036.446-.3.5-.575.04-.206.025-.459-.2-.541-.34-.126-.5.111-.536.408-.037.263-.063.545.235.708" fill="#f8cd9c"/>
        <path id="Path_883029" data-name="Path 883029" d="M156.824,209.846a1.455,1.455,0,0,0-.842.848.769.769,0,0,0,.842-.848" fill="#f8cd9c"/>
        <path id="Path_883030" data-name="Path 883030" d="M141.582,291.119l-.312-.381a.381.381,0,0,0,.312.381" fill="#f8cd9c"/>
        <path id="Path_883031" data-name="Path 883031" d="M299.875,170.465c-.806-.222-1.629-.378-2.439-.587-.879-.227-1.6-.54-1.215-1.721.265-.8-.127-1.343-.937-1.569h0c-.213-.277-.56-.529-.615-.834-.26-1.43-1.2-1.708-2.445-1.6-1.382.115-2.767.278-4.15.274-2.686-.008-5.363.3-8.058.123a40.251,40.251,0,0,0-6.384-.033.962.962,0,0,0-.374.02,11.949,11.949,0,0,0-2.264-.29c-2.777.163-5.539-.093-8.306-.2h0c-2.666-.625-5.438-.722-8.046-1.626a5.645,5.645,0,0,0-2.536-.88l.006-.006a33.58,33.58,0,0,0-4.661-2.521h0a7.525,7.525,0,0,0-2.9-1.688,2.124,2.124,0,0,0-1.347-.961l-.438-.281c-1.461-.937-2.99-1.783-4.367-2.83a43.235,43.235,0,0,1-7.9-7.783,13.046,13.046,0,0,0-11.35-5.111c-2.883.077-5.674.9-8.557.889a2.225,2.225,0,0,0-1.215-.1,20.658,20.658,0,0,1-8.065-.76h0a1.882,1.882,0,0,0-.926-.43c-2.215-.661-4.554-.526-6.762-.95a10.2,10.2,0,0,0-6.382.952c-1.071.191-1.324,1.515-2.383,1.722a15.635,15.635,0,0,0-3.475,5.511q-.213.63-.427,1.26a6.331,6.331,0,0,0-.875,2.049,4.243,4.243,0,0,1-.767.777.544.544,0,0,0-.009.739,6,6,0,0,1-.891,2.363,1.109,1.109,0,0,0-.471,1.254q.041,1.7.082,3.394h0a13.3,13.3,0,0,0,1.65,4.26c.3-.023.285.276.425.417l-.005,0c.383.359.893.636.816,1.286q.226.837.454,1.674a.754.754,0,0,0,.5.2c1.047-.121,1.484.924,2.246,1.345a4.554,4.554,0,0,0-1.446.573l-.006,1.262c-.508,1.29.09,2.5.313,3.723.571,3.141.484,3.239-2.471,4.208-3.334,1.094-6.943,1.283-10.058,3.081-.537.332-1.15.579-1.38,1.251a4.6,4.6,0,0,1-1.657,1.226c-.159-.091-.271-.055-.328.125-1.306,1.531-3.112,2.642-3.891,4.617-.117.008-.233.012-.351.012a16.252,16.252,0,0,0-1.977,4.6c-.293,1.628-.788,3.308.574,4.748h0a.936.936,0,0,0,.462.779q1.207,2.955,2.417,5.911a7.887,7.887,0,0,1,.022,1.374,11.247,11.247,0,0,0,.087,1.467,3.165,3.165,0,0,1,.122.707c-.231.7-.191,1.527-.93,1.979-2.383.17-4.652,1.064-7.053,1.132a5.689,5.689,0,0,0-.965.116c-.7.223-1.482.286-1.83,1.089a.7.7,0,0,0,.062.166c-1.344-1.232-2.321.492-3.514.466-1.335.5-2.534,1.295-3.874,1.781-1.089.43-2.2.824-3.251,1.338-.6.3-1.4.564-1.177,1.5l-.067,0c-1.87.342-2.317,1.194-1.907,3.646a1.544,1.544,0,0,1,.415.191.672.672,0,0,1-.127,0,.522.522,0,0,0-.281.238.707.707,0,0,0-.387-.014.869.869,0,0,0-.582.588c0-.015,0-.029-.009-.045-2.046-.427-3.682.934-5.55,1.285a5.969,5.969,0,0,0-.561.218c-.641.262-1.3.473-1.924.772a23.38,23.38,0,0,0-6.489,6.2c-.335.455-.755.968-.4,1.6-.732.072-1.06.657-1.412,1.21a5.089,5.089,0,0,0-.262.522c-.4.848-.789,1.7-1.259,2.52-.1.15-.2.295-.3.447-.211.271-.438.526-.641.8a3.31,3.31,0,0,0-.255.434c-.116.219-.236.435-.354.651-.2.359-.45.69-.68,1.031-.178.282-.347.57-.551.834-.17.194-.355.374-.536.558a20.629,20.629,0,0,1-1.929,1.518,8.839,8.839,0,0,0-1.366,1.507,4.393,4.393,0,0,0-.549,1.419,4.843,4.843,0,0,0,.358,3.071,2.946,2.946,0,0,0,.467.426,26.421,26.421,0,0,1,3.45,5.654,20.07,20.07,0,0,0,2.085,3.813q.634,1.7,1.27,3.394-.172,2.31-.346,4.619h0a22.791,22.791,0,0,0-.889,6.38,8.854,8.854,0,0,0,1.3,5.487,6.559,6.559,0,0,0,4.858,3.548,38.261,38.261,0,0,0,4.736.757,15.932,15.932,0,0,0,3.879,1.684h0l2.527,1.7c1.291,1.257,1.97,3,3.321,4.207h0q.1.211.2.425a1.537,1.537,0,0,0,.311.38l.016.02a.474.474,0,0,0,.406.417l.009.006a12.613,12.613,0,0,0,.828,1.211c1.6,1.858,4.621,2.547,6.214,1.12,2.416-2.161,4.536-4.616,4.424-8.2a69.644,69.644,0,0,0,2.108-10.581l2.13-5.942,0-.028a.418.418,0,0,0,.324-.43q1.3-1.677,2.609-3.353a1.058,1.058,0,0,0,.82-.477l.006-.005a.994.994,0,0,0,.864-.4l1.256-.018c1.022.722,2.148-.013,3.242.246a46,46,0,0,0,4.707.645,1.083,1.083,0,0,0,.938.4c.73.593,1.689.554,2.507.9.766,1.027,2.093,1.029,3.06,1.669,1.86,1.231,3.647.786,5.444-.108a.458.458,0,0,0,.431-.363h0l.844-.468a.483.483,0,0,0,.431-.37,1.275,1.275,0,0,0,.843-.852,1.4,1.4,0,0,0,.365-.051c.562.25,1.118.731,1.74.18.712-.631.271-1.272-.045-1.9a.932.932,0,0,0-.052-.366q.278-.836.553-1.671h0c.666-.806,1.279-1.663,2.009-2.407,1.651-1.684,3.061-3.674,5.3-4.666,1.535-.679,3.169-1.138,4.694-1.838,3.423-1.57,6.741-1.722,9.977.446a8.446,8.446,0,0,0,4.691,2.943,2.136,2.136,0,0,0,.425.181c1.889.784,3.667.165,5.314-.8a17.755,17.755,0,0,0,5.525-5.379c.876-1.262,1.828-2.471,2.746-3.7a.772.772,0,0,0,.377-.087,8.411,8.411,0,0,1,5.477.917c.355.582,1.09.631,1.531,1.087,2.133,2.209,4.573,2.407,7.319,1.266,1.776-.738,4.135-3.727,4.18-5.632a2.849,2.849,0,0,0-.366-.968c.028-.748.509-.8,1.133-.895,2.848-.43,3.076-.7,3.648-3.385.48-2.257,1.008-4.505,1.514-6.756h0a.578.578,0,0,0,.118-.349l1.208-.908.034-.023a.5.5,0,0,0,.435-.379.591.591,0,0,0,.451-.378v.01c1.828-.586,3.33-1.806,5.05-2.6a15.7,15.7,0,0,1,8.033.016h0a5.045,5.045,0,0,1,2.83,2.122,4.2,4.2,0,0,0,2.674,2.128c1.139.977,2.227.292,3.324-.1,1.193.33,1.193.33,1.351-1.186a7.879,7.879,0,0,1,6.27-3.236c1.591-.062,3.186-.132,4.778-.2a11.667,11.667,0,0,1,3.925.457,17.022,17.022,0,0,0,3.658.684c-.694-1.1-1.858-1.383-2.981-1.758-1.722-.575-1.742-.587-1.6-2.324a6.647,6.647,0,0,0-.517-3.448c-.527-1.127-1.113-2.226-1.673-3.338a.9.9,0,0,0-.4-.834c.1-.99-.767-1.631-.924-2.53a.8.8,0,0,0-.349-.92h0a22.247,22.247,0,0,1-.429-5.768c.766-.794.2-1.764.352-2.64a1.245,1.245,0,0,0,.124-.329c.616-1.806.259-3.729.668-5.559h0q.037-.636.074-1.272l-.121-.123.03.013.091.11.036-.051h0a1.228,1.228,0,0,0,.4-1.139,6.321,6.321,0,0,1,.856-3.416,60.994,60.994,0,0,1,3.663-7.06,4.775,4.775,0,0,0,.977-2.291v-.465h0a9.081,9.081,0,0,1,2.275-6.559,21.5,21.5,0,0,0,2.332-3.942c.7-1.341.244-2.209-1.254-2.622M180.953,151.809v.008c-.03.017-.061.031-.092.046-.15-.1.289-.182.093-.054M141.2,247.158c-.011-.019-.024-.036-.035-.055.016,0,.028.005.043.005,0,.017,0,.033-.008.05m2.156,44.869c-.025-.033-.047-.065-.073-.1.037.013.069.021.1.034-.013.023-.021.043-.032.065m2.889-23.756c0-.025.007-.047.007-.072h.129a1.474,1.474,0,0,1-.136.072m2-24.068a1.519,1.519,0,0,1,.1-.418l.011-.005a.8.8,0,0,1-.112.423m2.973,10.646a4.393,4.393,0,0,0-.306.33c0-.011-.006-.02-.007-.032l-.032-.02a3.894,3.894,0,0,0,.335-.271c.009-.008.013-.018.022-.027-.005.006-.006.015-.012.02m4.777-32.259c0-.014,0-.03-.006-.044l.045.036c-.013,0-.026,0-.039.008m1.42,41.124h0m.121,3.546c-.018-.029-.031-.062-.051-.09l.126-.012-.075.1m4.229-50.691c.007-.022.012-.042.019-.064.012.025.024.046.035.07a.5.5,0,0,0-.054-.006m4.805-23.234.006,0-.006.017v-.021m-.026,51.671c.01-.006.016-.014.026-.02.011.02.021.04.031.06l-.057-.04m7.147-51.739c.034-.025.068-.047.1-.073a.378.378,0,0,1,.128.076c-.076,0-.152,0-.229,0m9.727,65.912a5.473,5.473,0,0,0,.7-.928.633.633,0,0,1,.779.14,7.029,7.029,0,0,1-1.474.788m2.576-90.015c-.742.246-1-.235-1.215-.776,0,0,.007,0,.011,0a1.089,1.089,0,0,0,1.085.7c.019,0,.161-.008.161-.008s-.069.092-.042.079M189.4,185.6a.6.6,0,0,1-.288.028,8.316,8.316,0,0,0,.693-.542.582.582,0,0,1-.4.514m10.266-33.569-.129-.007a1.278,1.278,0,0,0,.16-.143c.006.039.009.077.016.116l-.047.034m.259,23.381c.068-.048.138-.1.208-.144a.986.986,0,0,1,1.239.068c-.458.02-1.007.05-1.447.076m1.593-31.5-.013,0q.009-.047.015-.093a.687.687,0,0,1,0,.09m6.867,35.438a.172.172,0,0,1-.023-.083l.029.025c0,.02,0,.037-.006.058m.127,1.386a.523.523,0,0,0-.064-.02c.031-.051.046-.091.082-.145-.012.063-.01.106-.018.165m1.661,1.588h0c.1-.087.184-.164.259-.237a.852.852,0,0,1-.259.238m.365,12h-.006c0-.01.01-.02.015-.031l-.009.032m2.582,46.049c-.011-.017-.023-.032-.034-.048.016,0,.03,0,.046,0,0,.016-.01.029-.012.044m.334,4.2c.016-.094.032-.187.057-.283a.86.86,0,0,1,.174.173,1.843,1.843,0,0,0-.231.11m2.95-83.3a.574.574,0,0,1,.044-.085.439.439,0,0,1,.349-.219,1.825,1.825,0,0,0-.393.3m2.655,1.152v.016l-.015-.013a.029.029,0,0,0,.011-.033.243.243,0,0,1,.025.02l-.021.01m.317,2.125a.224.224,0,0,0,.019-.065l0-.005a.284.284,0,0,0,.038.027.143.143,0,0,0-.059.043m.534,83.839,0-.02.038.017c-.012,0-.023,0-.034,0m4.694-10.366c0-.027-.007-.054-.01-.081l.065.02a.4.4,0,0,1-.055.061m1.229-75.6v0h0l.035-.094c.01.012.02.025.031.036-.024.02-.042.039-.066.058m1.27,76.631v-.02c0,.007,0,.014.006.02h-.006m2.437-17.623c0-.025,0-.046-.006-.07l.013.006c.013,0,.025,0,.038.006-.014.021-.03.037-.045.058m1.374-31.488h0m0,.022,0-.021h0l.011.013-.014.009m1.022-3.869a.665.665,0,0,1-.126-.137,1.355,1.355,0,0,1,.183-.6,5.412,5.412,0,0,0-.057.738m4.884,7.255-.015-.014a.065.065,0,0,0,.025-.01l.009.007-.019.017m.876.838-.006-.012h.013l-.007.013m5.961-16.949c-.017-.02-.033-.04-.051-.06l.013-.009a.675.675,0,0,0,.039.069h0m2.54,65.238c-.011-.009-.02-.02-.031-.029l.014-.011.116-.014c-.036.016-.066.036-.1.054m6.314-19.513a.59.59,0,0,0-.118-.1c0-.006.008-.009.011-.015.036.038.073.074.109.112Zm3.84,7.66-.452.388h0v0a1.515,1.515,0,0,1,.452-.391v0m7.041-50.049c-.035-.036-.071-.07-.105-.108.055-.032.114-.061.171-.091-.023.067-.046.132-.066.2m.838,44.106a1.333,1.333,0,0,0-.034-.155c.028,0,.053.012.081.012a1.331,1.331,0,0,1-.047.143M289.4,203.949c.007-.023,0-.043.017-.069.031.026.06.056.09.085-.036,0-.071-.015-.107-.016" fill="#fee080"/>
        <path id="Path_883032" data-name="Path 883032" d="M180.775,140.837h0" fill="#8cc697"/>
        <path id="Path_883033" data-name="Path 883033" d="M182.045,155.232l-.1-.176-.079.079Z" fill="#8cc697"/>
        <path id="Path_883034" data-name="Path 883034" d="M184.3,167.563c-.535.416-.74.194-1.055-.357a9.919,9.919,0,0,1-.644-1.63l-1.038,1.113c-.091,0-.182-.01-.273-.016.331-.537.086-1.045-.142-1.554-.079-.138-.171-.268-.258-.4.378-.685.282-.84-.607-.965-.007-.013-.017-.024-.023-.037-.09-.16-.18-.319-.282-.471s-.18-.322-.277-.478a12.637,12.637,0,0,1-1.313-4.091,11.976,11.976,0,0,0-.217-2.846,3.4,3.4,0,0,0-.227-.474,1.7,1.7,0,0,0,.291-.94.414.414,0,0,0,.346.026,2.016,2.016,0,0,0,.593-2.6l.308-.428a.7.7,0,0,0,.415-.617,1.693,1.693,0,0,0,.21-.148,8.473,8.473,0,0,0,1.111-2.153,5.247,5.247,0,0,0,.348-1.5,1.736,1.736,0,0,0-.043-.241c1.182-1.609,2.57-3.089,3.158-5.073a8.613,8.613,0,0,0-2.581-2.24h0a1.194,1.194,0,0,0-.509-.874,50.526,50.526,0,0,1-7.515-6.228l-.173-.41a.373.373,0,0,0-.324-.4l.234.292a1.4,1.4,0,0,0-.234-.292c-.329-.539-.664-1.074-.986-1.617a4.253,4.253,0,0,1,.286-5.091c.439-.546.987-1,1.436-1.541,1.206-1.449,2.629-2.787,2.68-4.874.443-.371.2-.77.047-1.164a.965.965,0,0,0,.213-.772,14.155,14.155,0,0,0-2.843-6.791c-1.729-2.52-4.309-4.361-5.852-7.055a.327.327,0,0,0-.128-.3.433.433,0,0,0-.272-.473h0a1.033,1.033,0,0,0-.468-.9h0a16.139,16.139,0,0,0-2.58-4.989c-.535-1.06-1.111-2.1-1.6-3.183a11.822,11.822,0,0,0-3.178-4.4,12.978,12.978,0,0,1-3.669-3.946,4.145,4.145,0,0,0-1.279,2.329c-.14,1.381-.328,2.756-.5,4.135-.451,1.753-1.653,3.454-.454,5.324-.077.022-.155.042-.225.067a1.609,1.609,0,0,0-.606,1.356,4.5,4.5,0,0,0,.145,1.233c.052.118.093.242.139.362a2.438,2.438,0,0,0,.23,2.64l1.287,4.245a7.871,7.871,0,0,0,.712,2.844,17,17,0,0,1,.918,5.112,1.03,1.03,0,0,0-.194.18c-.252.411-.408.868-.617,1.3-.738,2.275-1.588,4.471-3.8,5.788a1.5,1.5,0,0,0-.561.864.721.721,0,0,0,.061.511l-.169.166a.8.8,0,0,0-.563.033,2.978,2.978,0,0,0-1.309,2.23,1.558,1.558,0,0,0,.047.28,4.969,4.969,0,0,0-1.358,2.249q-1.674,2.358-3.351,4.715h0l-5.134,6.675a5.736,5.736,0,0,0-2.078,1.759c-.4.133-.8.248-1.189.4-1.921.764-2.479.616-3.774-1.029-.171-.217-.34-.436-.51-.654h0a36.122,36.122,0,0,1-1.754-5.841,1.022,1.022,0,0,0-1.568-.353c-1.227.653-2.384,1.533-3.875,1.541a4.047,4.047,0,0,1-1.282-2.581c.029-1.142-.368-2.212-.423-3.332a10.244,10.244,0,0,0-.013-3.812q-.027-1.471-.053-2.944h0c-.011-.156-.021-.311-.031-.466.011-.717.267-1.474-.326-2.1l-.01-.012c-.176-2.374-1.658-3.464-3.818-3.888l-.742.056c-.032-.026-.05-.065-.084-.089h0c-.008-.091-.016-.183-.026-.274l-.816.027h0l-1.29-.054c-.144-.24-.292-.233-.442-.007h0a1.314,1.314,0,0,0-.4-.012c-.3-.414-.572-.068-.854.023l-.446.046-1.188-.032-.484.3h0l.017.148h0c-.276.012-.552.025-.828.036-.005.117-.008.234-.01.351h0a8.881,8.881,0,0,0-3.835,1.264,4.451,4.451,0,0,0-2.329.844c-1.8.949-3.319,2.367-5.261,3.061q-.225.385-.449.77a19.762,19.762,0,0,0-3.815,3.444,6.656,6.656,0,0,0-2.116,2.042c-.025,0-.048.028-.072.068l-.365.344h0a13.413,13.413,0,0,0-3.02,2.944h0c-2.269,1.861-5.009,2.9-7.541,4.3-1.423.259-2.748.979-4.244.89l-.426-.044h0a9.939,9.939,0,0,1-3.817-1.28c-.388-.248-.714-.662-1.252-.508.184-.7-.654-.431-.815-.8q-.87-1.251-1.739-2.5c-.375-1.4-.234-2.906-.793-4.278.045-1.267.55-2.5.3-3.789.965-3.861,1.584-7.806,2.929-11.581a10.677,10.677,0,0,0,.976-2.976,9.834,9.834,0,0,0-1.124-5.064A44.756,44.756,0,0,1,69.4,95.608c-1.5.331-3.026.552-4.234,1.676-2.213,2.058-3.691,4.4-3.28,7.586a9.41,9.41,0,0,1-.4,3.945,3.7,3.7,0,0,1-3.871,2.954,3.63,3.63,0,0,0-3.4,1.935c-1.083,1.394-.581,2.966-.5,4.491.551,1.837.267,3.718.287,5.58.022,1.966.484,3.7,2.254,4.85l.462-.335c0,.035-.007.061-.009.1,0,.069-.007.137-.01.206a6.614,6.614,0,0,0,3.4,3.391,4.534,4.534,0,0,0,1.631,1.607,4.68,4.68,0,0,1,1.782,1.739c1.487,1.035,2.655,2.262,2.55,4.252a9,9,0,0,1-1.891,5.565,10.5,10.5,0,0,0-2.387,4.993h0l-.4.435a9.381,9.381,0,0,0,.432,3.386c.524.269.3,1.027.838,1.286l.38.429h0c.071.687.584,1.091.984,1.577,1.068,1.3,2.382,2.355,3.528,3.571,2.349,2.493,5.1,4.564,7.356,7.154h0a2.721,2.721,0,0,0,.041.381,2.941,2.941,0,0,1,.4.438l-.008.006c.028.457-.034.947.447,1.24l.368.451h0c.044.468,0,.966.458,1.287a7.817,7.817,0,0,0,.467,2.074l-.021.845c.131.016.262.028.394.035.018.559.034,1.118.051,1.676h0a40.8,40.8,0,0,1-.426,7.182c-.015.557-.03,1.113-.044,1.671-.651.4-.152,1.342-.822,1.731a7.1,7.1,0,0,1-.448,2.526c-.836,1.116-1.464,2.277-.857,3.7a5.576,5.576,0,0,0-.386.549c.061,2.923-.016,5.844.109,8.771.079,1.869.275,3.9-.948,5.613a3.108,3.108,0,0,1-.44,1.69l-.39.423c-.025.139-.043.278-.054.418l-.313.332a.111.111,0,0,0-.09.1h0a5.818,5.818,0,0,1-.422.424h0c-1.1.594-1.566,1.818-2.539,2.536a29,29,0,0,0-2.348,4.212c-1.908,3.63-2.142,7.492-1.884,11.455l0,.425c.088,2.444-.568,4.839-.481,7.287a3.767,3.767,0,0,1-.374,1.18c.1,1.486-.62,2.811-.836,4.235a3.216,3.216,0,0,0-.472,1.681l-2.045,3-.379.66c-.015,0-.029-.01-.045-.013-.9.049-1.022.819-1.311,1.431a1.588,1.588,0,0,1-.815.91c-.445,1.178-1.523,1.877-2.184,2.892a2.5,2.5,0,0,0-.375.068,1.23,1.23,0,0,0-.83.812l-.015.01a5.274,5.274,0,0,0-.411.408v.01h0a2.771,2.771,0,0,0-1.3,1.242c-.142.14-.284.278-.427.416-1.019.677-2.148,1.247-2.478,2.583h0a16.54,16.54,0,0,0-1.291,7.168c.053-.129.115-.255.18-.381a1.741,1.741,0,0,1-.18.381c-.126.577.127,1.25-.441,1.714A4.74,4.74,0,0,1,47.1,271.8a1.655,1.655,0,0,0-.567,1.1v0l.015,0a1.107,1.107,0,0,1-.433.423v0l-.4.446v0c-.526.338-1.05.676-1.577,1.013-2.034,1.3-3.292,1.2-5.008-.391q-1.144-1.066-2.274-2.146a1.472,1.472,0,0,0-2.209-.216h0a3.942,3.942,0,0,0-1.847,5.5,5.37,5.37,0,0,0,1.053,1.758,3.271,3.271,0,0,1-.427,2.054h0c-1.376,1.066-3.217.852-4.673,1.7h0a3.77,3.77,0,0,0-3.983,2.776,7.71,7.71,0,0,1-2.784,3.98h0a1.141,1.141,0,0,0-.394.085,1.926,1.926,0,0,1-.455.384l.455-.384a.516.516,0,0,0-.455.384l-.014-.011a2.88,2.88,0,0,0-1.211.887l-.007,0a2.287,2.287,0,0,1-.488.394.93.93,0,0,0-.369.06.485.485,0,0,0-.436.358v0q-.839.646-1.676,1.295a15.118,15.118,0,0,0-4.235,5.494c.619.616,1.413.338,2.133.4s1.511-.139,2.125.458a.528.528,0,0,0,.384.443,1.452,1.452,0,0,0,.834.856h0l0-.011c.14.17.279.338.419.506v0a.534.534,0,0,0,.077.319,1.228,1.228,0,0,0,1.155.913h0a5.143,5.143,0,0,0,.924,2.03c.78,1.334,1.512,2.7,2.356,3.991a15.476,15.476,0,0,0,2.194,2.821,6.481,6.481,0,0,0,5.68,1.457c2.3-.323,4.342-.185,5.925,2.024a8.7,8.7,0,0,0,3.726,3.333h0a20.377,20.377,0,0,0,4.657,4.185,4.015,4.015,0,0,0,3.82-.006l.207.008.2-.054c3-.877,5.7-2.551,8.777-3.211a1.744,1.744,0,0,1-1.344-.836,8.193,8.193,0,0,1-1.039-3.573,4.07,4.07,0,0,0-.892-2.492c-.84-1.461-.6-3.2-1.228-4.719a7.846,7.846,0,0,1,2.8-5.636c1.313-1.145,2.552-1.878,4.306-1.576a1.744,1.744,0,0,0,2.29-1.219,8.5,8.5,0,0,1,1.308-2.134c1.929-2.653,2.124-2.709,5.173-1.815.068.02.137.032.206.047a4.531,4.531,0,0,1,.487,1.811,20.651,20.651,0,0,0,.433,3.124c.553,2.477,2.048,3.365,4.494,2.751a17.725,17.725,0,0,0,3.878-1.642.471.471,0,0,0,.47-.376h0a8.332,8.332,0,0,0-1.339-8.1,7.385,7.385,0,0,1,.442-3.383c.136-.166.272-.334.407-.5h0c1.472-1.8,3.631-2.233,5.7-2.827a6.479,6.479,0,0,0,3.211-1.417,3.852,3.852,0,0,0,1.834-1.622c.961-1.515,1.9-3.044,2.853-4.569h0A3.564,3.564,0,0,0,94.1,276.8h0c.916-1.321,2.184-2.374,2.931-3.823.512-.329,1.175-.532,1.1-1.342l.513-.812a159.126,159.126,0,0,0,10.02-13.99l5.631-7.706a.419.419,0,0,0,.313-.3,11.619,11.619,0,0,1-.362-3.4h0q.274-.632.548-1.261h0a3.182,3.182,0,0,0,1.2-1.3c.807-.443,1.7-.776,2.137-1.69-.277-.412-.992-.251-1.2-.85.651-.127,1.053.383,1.589.392a.815.815,0,0,0,.454-.773c.287-.438.391-1,.888-1.295l.336-.452c-.036,0-.059-.054-.071-.163s.052-.173.187-.227a1.5,1.5,0,0,0,.741-.886l.009-.007a8.549,8.549,0,0,0,1.6-2.942h0c.038-.14.075-.28.112-.42.535-.33.623-1.077,1.24-1.33,1.573-3.334,4.332-5.548,7.222-7.637.548-.3,1.257-.232,1.71-.747v0h0c2.058-.246,3.874-1.347,5.911-1.67a2.636,2.636,0,0,1,1.224-.513l.006-.005a.837.837,0,0,1,.048-.381c-.045-1.526-.107-3.059,1.62-3.837.359-.69,1.061-.883,1.7-1.163,1.02-.447,2.045-.882,3.067-1.323A17.43,17.43,0,0,0,150.3,213.2h0a4.739,4.739,0,0,0,2.249-.782.985.985,0,0,1,1.12-.034c.46-.5,1.192-.441,1.712-.821h.843a17.408,17.408,0,0,0,6.949-1.571,1.461,1.461,0,0,0,.436.029c.962-.673.909-1.743,1.07-2.729q0-.819-.01-1.638a28.02,28.02,0,0,0-2.523-7.313c-.218-.354-.426-.713-.631-1.074-1.1-2.4-.247-4.624.64-6.846.247-.618.808-1.17.585-1.9.027,0,.054.006.08,0a1.447,1.447,0,0,0,.5-.263,22.526,22.526,0,0,0,1.48-1.771c.739-.907,2.036-1.431,2.093-2.825h0a.672.672,0,0,0,.212-.08c.012.02.017.041.03.06.944.223,1.459-.356,1.921-1.031a2.542,2.542,0,0,1,.068-.39,2.439,2.439,0,0,0,1.119-.7,32.855,32.855,0,0,1,6.788-2.112,26.172,26.172,0,0,0,5.23-1.476c1.438-.5,1.716-1.1,1.416-2.608-.337-1.7-.761-3.378-1.152-5.065.061-.067.122-.131.184-.211a1.933,1.933,0,0,0,.145-1.028c.669.237,1.106-.671,1.729-.658.086-.332.679-.4.533-.773-.178-.455-.527-.248-.819-.021m-30.18-65.679h0M66.763,128.6a.181.181,0,0,0,.042-.045c.009,0,.017.01.027.009.007.026.013.051.019.077a.1.1,0,0,1-.088-.041m1.717,7.141a1.976,1.976,0,0,1-.2-.046c.064.015.132.03.2.044l-.006,0m.53,2.144c.012-.017.014-.032.025-.049.009.019.017.039.027.058-.018,0-.034,0-.052-.009m6.048,13.3a.657.657,0,0,1-.175.056,2.076,2.076,0,0,0-.054-.481c.08.019.159.039.255.054a3.687,3.687,0,0,1-.026.371M33.283,291.428c.008-.013.011-.03.019-.043l.051.054c-.026-.005-.046-.006-.07-.011m4.165,3.679h0v0m.228-12.864h0a.508.508,0,0,1-.052-.026.446.446,0,0,0,.042-.024C37.667,282.212,37.676,282.224,37.676,282.243Zm3.368,32.6.015,0,0,0,0,.017-.021-.017m2.138-25.416,0,.011-.01-.007.012,0m.007.037-.01-.026a1.072,1.072,0,0,1,.21.032,1.969,1.969,0,0,1-.2-.006m2.923-15.692h.031c0,.01.01.015.014.024a.489.489,0,0,0-.045-.024m.031,0c0-.011,0-.023,0-.035.008.009.014.018.023.027-.007,0-.014,0-.021.008m.424,19.052h0l0-.005,0-.023a.351.351,0,0,0,.024.028.08.08,0,0,1-.022,0M48.735,273.4c0-.006,0-.013.006-.018.009.011.007.023.012.033s-.011-.01-.018-.015m.416,31.287c-.009-.011-.017-.024-.026-.035l.011-.017c.01.017.019.037.03.054l-.015,0m2.92-39.932c0-.006-.01,0-.015-.01s.009,0,.015,0a.056.056,0,0,0,0,.013m1.807,26.817v0a.806.806,0,0,1,.2.024c-.066,0-.132-.011-.2-.02m1.329-23.461c-.016-.187.03-.349.344-.385a2.47,2.47,0,0,1,.309.984,7.724,7.724,0,0,0-.653-.6m10.858,20.843a.124.124,0,0,0-.013.017l.015-.024,0,.007m1.918-21.3c-.006-.014-.011-.029-.017-.043.013,0,.022,0,.035,0-.007.014-.011.026-.018.04m1.026-17.143,0-.025c-.019,0-.038,0-.057.006.008-.028.016-.051.022-.069.012.021.024.042.035.063.02-.027.046-.053.068-.08.01.007.016.008.029.018-.041.022-.058.06-.093.087m.8-5.994-.008-.008s.01,0,.015-.007-.006.009-.007.015m.472,44.9-.01.018.007,0c0,.009,0,.017-.006.027,0-.008,0-.015,0-.023h-.026a.48.48,0,0,1,.049-.082.383.383,0,0,1-.013.064m.147-49.174h0m-.148-11.476c.01-.03.019-.062.029-.092a2.089,2.089,0,0,0,.216.267.655.655,0,0,1-.245-.175m2.958,27.306c-.01.006-.014.011-.024.017-.1-.476-.219-.975-.349-1.434.037,0,.067.008.106.01a.737.737,0,0,1,.267,1.407m5.923,44.793v0h0l0,0v.011l0-.013,0,0m-.884-31.022,0,0c-.005.031-.009.062-.016.091,0-.028.008-.058.012-.087m-.808-125.984v-.058l0,0c.014.024.029.038.044.06-.016,0-.031,0-.046,0m.345,109.4c-.013-.042-.024-.082-.038-.125l.063.057a.536.536,0,0,0-.025.068m.4,20.58c.083.022.132.058.142.108-.048-.034-.1-.075-.142-.108m1.449-9.711a.162.162,0,0,1,0-.022l.017.011c-.007,0-.01.009-.017.011m1.183,10.1.007-.02.021-.009.014.011-.042.018m-.008-44.889a.163.163,0,0,1,.017-.02c.086.086.179.167.264.255a3.6,3.6,0,0,0-.281-.235m.455.416a.178.178,0,0,1-.031.151.281.281,0,0,0-.142-.331l.02.019a.268.268,0,0,1,.156.149l-.013-.007Zm.053,12.754c.006-.01,0-.021.012-.031a.138.138,0,0,1,.033.082c-.016-.017-.029-.035-.045-.051m.361-67.72a.642.642,0,0,0-.053-.09h.053v.09m1.256,37.157a.077.077,0,0,1-.042-.027C82.937,211.937,82.945,211.946,82.963,211.955Zm1.29,51.294c0-.019-.006-.037-.007-.056v0c.013,0,.023,0,.035,0-.011.019-.019.041-.029.062m2.022-73.212a.225.225,0,0,1,.044-.129.177.177,0,0,1,0,.082c-.019.015-.03.032-.047.047m.954,70.6,0,0c0-.006-.014-.01-.017-.019l.02.017m.026,3.815c-.013-.013-.027-.024-.039-.037a.488.488,0,0,0,.053.035l-.014,0m1.719-115.513c-.519.292-.685-.1-.858-.466a3.8,3.8,0,0,0,1.463-.4.981.981,0,0,1-.605.869m.773,124.42,0-.007-.008,0a.143.143,0,0,1,.017-.009l-.009.012h.012l-.015.007m.426.037c-.023-.013-.043-.034-.066-.044h.036a.184.184,0,0,1,.03.018c0,.009,0,.017,0,.026m.08-103.972a.63.63,0,0,0,.064-.062c.022.034.038.068.061.1-.046-.014-.081-.028-.125-.041m.18,3.779a.257.257,0,0,1,.238-.118,1.8,1.8,0,0,0-.238.118m.659,18.934-.072-.072v.072c-.023-.031-.025-.056,0-.075l0,0,0-.006a.168.168,0,0,1,.087-.032c0,.036-.009.073-.012.11m.92-1.776H92c.007-.008,0-.014.011-.022,0,.009,0,.012,0,.021m1.426-49.946-.005-.011.043,0,.005.007h-.043m1.168,38.216c-.012-.04-.031-.078-.045-.117.1.008.2.023.314.022a1.945,1.945,0,0,0-.269.1m1.052-2.228c.007.007.012.016.019.023v.083a1.375,1.375,0,0,0-.144-.09c.043,0,.085-.009.125-.016m-.077,2.981h0c.007.007,0,.014.01.021-.007-.006,0-.014-.01-.02m.1-.425-.009,0c-.006,0-.016.005-.024.006.011-.016.02-.033.03-.049v.028l.018-.006-.015.024m1.1-5.2c.01.04.018.073.029.114-.038-.022-.069-.049-.1-.073a.329.329,0,0,0,.076-.041m.151,93.464a2.826,2.826,0,0,1-.413-.641c.254.192.506.384.413.641m.155-134.153a.282.282,0,0,1,.255,0c-.085,0-.17,0-.255,0M99.078,212.4l-.017,0,.017-.014H99.1l-.022.016m0-76.2-.017-.024-.031-.006a.531.531,0,0,0,.06-.091l-.027.1a.461.461,0,0,1,.053-.041.639.639,0,0,1-.038.067m.406,16.487-.013-.013.006,0,.007-.009Zm2.088-25.421,0-.011.006.008-.01,0m2.582,48.707-.012-.01v-.009l.026.021-.014,0m.835.815a.361.361,0,0,1-.143.139l-.013-.016a.4.4,0,0,0,.156-.138Zm0-.337a.525.525,0,0,0-.056-.06h.005A.478.478,0,0,1,104.992,176.456Zm.145,70.952v0a1.112,1.112,0,0,1,.113-.085c-.034.026-.073.055-.112.087M106.329,145a.527.527,0,0,1-.071.078l0-.009h-.111a1.756,1.756,0,0,0,.259-.157h0a.112.112,0,0,0,.018.012.8.8,0,0,0-.1.078m27.437,24.188.016-.009v.022a.093.093,0,0,1-.015-.013m.038-9.323c-.01.007-.014.015-.023.022l.012,0c-.013.013-.017.033-.029.048-.011-.014-.021-.028-.033-.042.024-.01.05-.02.073-.031m-3.009,12.687a.188.188,0,0,1-.123-.191c.039.067.087.118.123.191m-.083-18.768c0,.027.01.05.013.077a.654.654,0,0,0-.061-.026c.018-.017.029-.034.048-.051m-1.49,67.231a.7.7,0,0,1,.116.292c-.131-.09-.25-.166-.362-.228a1.966,1.966,0,0,1,.246-.064m-.941-25.2c-.024,0-.047-.009-.072-.009a.471.471,0,0,1-.011-.088c.028.032.054.066.083.1M125.75,223.4l-.013,0v-.01l.013.006m-5.94-38.956h0c.013-.091.025-.161.037-.243.057.046.116.091.17.141C119.947,184.376,119.877,184.41,119.81,184.445Zm-2.732,20.93c-.005.018-.005.036-.01.054-.011-.071-.022-.141-.039-.21.017.052.033.1.049.156m4,11.667c.036.029.074.056.111.083a1,1,0,0,1-.127.107c.008-.064.006-.125.016-.19m-.341,14.389a1.153,1.153,0,0,1-.066.363l-.01-.009a.986.986,0,0,1,.076-.354M123.2,128.959l.053.024H123.2v-.024m-4.427,42.859c0,.1-.007.2-.013.3-.1-.08-.19-.154-.284-.228.1-.023.2-.042.3-.069m-1.2-33.577.076.036a.174.174,0,0,1-.084.083.687.687,0,0,0,.008-.119M116.423,148v.033l.036.012a.5.5,0,0,1-.04.04c0-.017,0-.036,0-.052h-.042c.015-.009.027-.023.042-.033m-.426.01c.007.008.012.016.019.023H116v0l0,0h0l0-.023M114.45,126.9l-.008,0a.272.272,0,0,1,0-.028c0,.011.008.019.009.03m-.338,6.98a.532.532,0,0,0,.031.051.51.51,0,0,0-.252.158l0-.01c.071-.068.149-.133.224-.2m-1.538,42.472c0,.008,0,.017-.007.025a.145.145,0,0,1-.043-.09.75.75,0,0,0,.05.065M108.8,159.986c0-.025,0-.051,0-.074a.155.155,0,0,1,.091.072.3.3,0,0,0-.1,0m1.7,31.233.008-.013,0,.013H110.5m.569-65.338a.54.54,0,0,1,.325.286,3.593,3.593,0,0,0-.325-.286m.668-6.144c.016.016.036.014.049.05l-.068-.012c.007-.012.012-.025.019-.038m.037,120.6,0-.01-.011.013h0l.016-.025v.011h.07c-.025,0-.044.008-.067.01m22.455-44.018a.124.124,0,0,1-.026-.008c-.008,0-.023.005-.035.009a.407.407,0,0,1,.028-.044l.013.02c.01.005.018.012.028.017l-.008.006m2.079-22.146c0,.011,0,.021.005.033-.025,0-.046.005-.073-.007a.367.367,0,0,0,.068-.026m-1.046-12.8a.568.568,0,0,1,.184-.224c0,.115,0,.23,0,.345-.062-.04-.12-.084-.185-.121m5.717,10.366.005.006v.02a.149.149,0,0,0-.019-.025h.015m-2.574.013c.006-.016.005-.032.01-.048l.024.03-.006.009a.224.224,0,0,1-.028.009m1.086,10.657a.29.29,0,0,1-.093-.085l.168.007c-.026.026-.048.05-.075.078m5.029-9.6a2.642,2.642,0,0,1,.186-.305c-.035.144-.085.266-.186.305m.34,16.267a.264.264,0,0,1,.06-.08c0,.021.01.033.011.053-.024.01-.047.016-.071.027m7.219-65.671c-.009.051-.013.055-.012.011l.012-.011m-.491,11.769a.386.386,0,0,1-.142-.343c.05.131.1.239.142.343m-.593,4.84c0,.016.011.033.015.049-.027,0-.049-.009-.075-.011.02-.014.04-.024.06-.038M147.9,170.5a.978.978,0,0,0,.128-.028c.071-.028.1.074.112.231-.082-.073-.162-.14-.24-.2m3.656,10.647c-.016,0-.027-.017-.045-.016-.151.011-.124-.059.047-.043,0,.023,0,.037,0,.059m.446-7.716c-.007,0-.011,0-.017,0l.039-.039a.076.076,0,0,0,.043.016.239.239,0,0,0-.065.021m2.1,7.625c-.01.01-.021.015-.031.024-.005-.01-.008-.021-.013-.032.016,0,.028.007.044.008l0-.007,0,.008H154.1m2.056-16.647c.015,0,.02-.012.033-.015v.005c-.014,0-.019.01-.034.01m.162-25.921c0-.074-.007-.138-.01-.208a.694.694,0,0,0,.141.036c-.045.055-.09.112-.131.172m.825-29.456.041-.034a.494.494,0,0,0,.013.048c-.02,0-.033-.011-.054-.014m.768,18.256v0h0v-.014c.006.008.013.011.019.019s-.012,0-.018,0m.333,4.889h.005l.008,0s-.008,0-.013,0m20.5,38.35a2.563,2.563,0,0,0-.05-.281.33.33,0,0,1,.065.239c-.005.014-.011.028-.015.042m-9.4,1.641v0h0l0,0m3.376-3.377c-.011-.011-.027-.016-.038-.027.012,0,.018.007.03.009a.141.141,0,0,0,.009.017h0m-9.745,6.664a1.113,1.113,0,0,1,.076.113l-.051-.014-.007-.006c-.007-.035-.012-.06-.018-.093m15.3-5.836-.019,0c-.009-.008-.015-.018-.024-.026l0-.023c.015.016.03.031.046.046m2.486-28.812.03.026-.015,0v.009l-.013-.014.011,0-.014-.028M167.229,156.5l0,0,0,0h.005m-3.819-4.654.02.015-.015,0c-.011-.007-.023-.007-.034-.013Zm-.818,7.2.112-.006a.378.378,0,0,0-.133.061c0-.01,0-.02,0-.03s.015-.016.022-.025m-.151-29.472v0l0,0h0m-1.286-3.176a2.06,2.06,0,0,0,.115.2c-.066-.045-.115-.091-.173-.136.019-.018.038-.046.058-.068m-.238,43.2c-.013.013-.028.02-.041.033,0-.011,0-.023,0-.033h.038m-.466-41.081c0,.015,0,.029,0,.045h0l-.032-.032.032-.013m-.884-.789c.008,0,.014,0,.022-.006l.008.01-.036.05.006-.054" fill="#7d3a1b"/>
        <path id="Path_883035" data-name="Path 883035" d="M186.375,168.6l-.1.176.176-.1Z" fill="#8cc697"/>
        <path id="Path_883036" data-name="Path 883036" d="M180.263,185.718c-.1.143-.065.265.1.322a.511.511,0,0,0,.663-.21c-.036-.115-.039-.293-.115-.333-.271-.146-.486-.01-.646.221" fill="#8cc697"/>
        <path id="Path_883037" data-name="Path 883037" d="M140.278,221.847l-.184-.189,0,.006.189.183" fill="#8cc697"/>
        <path id="Path_883038" data-name="Path 883038" d="M153.679,92.15a2.036,2.036,0,0,0-.009-.391,5.3,5.3,0,0,0-.162-.53l-.208.289a.7.7,0,0,0,.379.632" fill="#8cc697"/>
        <path id="Path_883039" data-name="Path 883039" d="M126.487,117.376l-.079.079.176.1Z" fill="#8cc697"/>
        <path id="Path_883040" data-name="Path 883040" d="M12.3,298.824l-.448-.009c.146.2.3.206.448.009" fill="#8cc697"/>
        <path id="Path_883041" data-name="Path 883041" d="M48.26,265.731l-.176.1.079.079Z" fill="#8cc697"/>
        <path id="Path_883042" data-name="Path 883042" d="M58.844,155.232c-.2.07-.235.136-.1.167.019,0,.063-.108.1-.167" fill="#8cc697"/>
        <path id="Path_883043" data-name="Path 883043" d="M58.844,155.232Z" fill="#8cc697"/>
        <path id="Path_883044" data-name="Path 883044" d="M69,250.49Z" fill="#8cc697"/>
        <path id="Path_883045" data-name="Path 883045" d="M99.065,136.179h0Z" fill="#8cc697"/>
        <path id="Path_883046" data-name="Path 883046" d="M32.182,25.83a2.287,2.287,0,0,0,.243.381c.235.247.49.474.77.74.083-.17.151-.331.237-.483.13-.232.276-.258.415-.005a.779.779,0,0,1,.107.247c.051.363.251.441.607.468a4.034,4.034,0,0,1,1.019.372c0,.29,0,.6,0,.9,0,.256-.124.4-.353.264-.408-.24-.65-.024-.868.263a.4.4,0,0,1-.618.114,1.491,1.491,0,0,0-1.388-.179c-.306.126-.506.287-.492.641.006.128,0,.256-.006.384-.019.389.148.524.548.524,1.22,0,1.222.019,1.262,1.208a16.376,16.376,0,0,1,.034,2.257,6.776,6.776,0,0,0-.175,1.189c.026.508-.305,1.03-.3,1.546a6.135,6.135,0,0,0,.349,1.6c.113.392.293.764.437,1.147a.358.358,0,0,1-.216.5c-.316.136-.634.271-.956.393a5.654,5.654,0,0,0-.55.164c-.943.473-1.054.91-.588,1.781.035.066.081.127.144.223-.5.226-.341.641-.307,1.022a1.65,1.65,0,0,1,.038.571.614.614,0,0,0,.408.82c.081.038.156.086.27.15l-.585.493a.667.667,0,0,0,.116.2c.451.36.371.75.1,1.18A27.813,27.813,0,0,1,30.4,49.287,8.541,8.541,0,0,1,29,50.4a1.511,1.511,0,0,0-.421.539,11.39,11.39,0,0,0-.39,1.166,1,1,0,0,0-.066.41,10.817,10.817,0,0,1-.343,3.543A3.948,3.948,0,0,0,27.7,57.8a1.912,1.912,0,0,1-.159.926,4.12,4.12,0,0,1-.355.766,1.617,1.617,0,0,0-.076,1.445c.034.089.034.269-.017.3-.305.189-.359.51-.483.8a1.567,1.567,0,0,1-.3.447.832.832,0,0,0-.289.95c.054.142-.057.364-.127.535-.144.35-.311.69-.469,1.034-.053.115-.106.23-.167.341-.268.489-.549.971-.807,1.465-.634,1.214-1.228,2.45-1.9,3.644A11.468,11.468,0,0,0,21.305,73a1.5,1.5,0,0,1-.9.993,11.021,11.021,0,0,0-1,.482.42.42,0,0,1-.572-.052c-.4-.356-.847-.667-1.26-1.013a.471.471,0,0,1-.18-.335,3,3,0,0,0-.557-2.053c-.1-.176-.239-.333-.349-.506-.055-.085-.139-.2-.117-.276.162-.546-.22-1-.233-1.514a2.62,2.62,0,0,1,0-.307,11.855,11.855,0,0,0,.125-1.4,4.179,4.179,0,0,1,1-2.525c.547-.79,1.141-1.55,1.65-2.364a5.631,5.631,0,0,0,.626-2.435c.028-.262-.173-.545-.25-.824a2.479,2.479,0,0,1-.122-.649c0-.3.07-.607.092-.912.085-1.2.154-2.4.254-3.606a2.481,2.481,0,0,1,.238-.6c.038-.1.108-.234.073-.311a1.065,1.065,0,0,1,.106-.991c.168-.337.157-.58-.236-.776-.317-.158-.409-.5-.425-.917.778.479,1.015-.171,1.391-.538-.011-.04-.023-.081-.034-.122a6.816,6.816,0,0,1-.879.134,1.3,1.3,0,0,1-.587-.14c-.469-.229-.909-.519-1.385-.73a2.88,2.88,0,0,1-1.569-1.7.636.636,0,0,1,.011-.39c.137-.422.29-.839.45-1.253a1.92,1.92,0,0,1,.234-.435,2.419,2.419,0,0,0,.484-1.231,6.817,6.817,0,0,1,.354-.964,3.54,3.54,0,0,0,.02-.693,1.3,1.3,0,0,1,.064-.466,11.115,11.115,0,0,0,.5-.993A3.9,3.9,0,0,0,18.4,39.7a1.111,1.111,0,0,1,.065-.469c.334-.507.7-.992,1.092-1.535a2.913,2.913,0,0,1-1.236-2.6,2.469,2.469,0,0,0-.226-.73,1.031,1.031,0,0,1,.076-1.084,9.426,9.426,0,0,0,.433-.974,5,5,0,0,1,.662-1.056A9.075,9.075,0,0,0,20.7,29.672c.216-.384.657-.637.978-.968a5.121,5.121,0,0,0,.659-.792c.172-.271.286-.568.625-.691.063-.022.1-.181.107-.279a1.2,1.2,0,0,0-.054-.38,1.792,1.792,0,0,1,.226-1.554,2.11,2.11,0,0,0,0-1.658c-.038-.149-.065-.419,0-.458.6-.349.421-.9.276-1.334a.686.686,0,0,1,.184-.812,11.81,11.81,0,0,0,1.117-1.561A4.3,4.3,0,0,1,26.46,17.6a6.452,6.452,0,0,0,1.915-1.731,34.855,34.855,0,0,1,2.981-3.1,3.52,3.52,0,0,1,2.145-.853c.333-.034.5.083.5.4,0,.341.192.5.451.682.523.378,1,.825,1.486,1.241-.444.586-.462.6,0,1.1.391.421.818.81,1.247,1.193a1.336,1.336,0,0,0,1.107.331,2.142,2.142,0,0,1,1.71.611,3.345,3.345,0,0,0,1.344.775,2.211,2.211,0,0,1,1.524,1.312,1.326,1.326,0,0,1-1.758.591,2.815,2.815,0,0,0-2.278.022.436.436,0,0,1-.3.044,1,1,0,0,0-1.059.336,4.224,4.224,0,0,1-.841.491c-.109.063-.26.112-.309.21-.182.365-.521.488-.845.676-.537.312-1.024.71-1.592,1.115.179.144.287.241.405.323A4.027,4.027,0,0,1,35.774,24.9c.269.572.214.729-.4.841-.349.064-.423.24-.408.559.018.4-.21.534-.524.33-.294-.192-.426-.657-.908-.525-.385-.44-.886-.292-1.361-.267l.269-.5a.64.64,0,0,0,.917.241c.093-.042.15-.192.188-.3.007-.023-.142-.111-.227-.149a5.213,5.213,0,0,1-.7-.3,7.486,7.486,0,0,1-.733-.609c-.05.328-.085.617-.139.9-.072.376.034.63.435.709" fill="#7a4f00"/>
        <path id="Path_883047" data-name="Path 883047" d="M51.655,33.49c.39,1.091.511,1.17,1.348.895.127.454.45.315.779.264,1.356-.213,1.854-1.274,2.322-2.351a.856.856,0,0,0-.04-.593,1.935,1.935,0,0,1-.012-1.424,1.376,1.376,0,0,0,.054-.71.463.463,0,0,1,.31-.609c.309-.118.633-.2.951-.29.108-.032.219-.053.349-.083-.05-.472-.1-.916-.147-1.4.287,0,.615-.018.94.012.088.008.179.15.243.248a11.35,11.35,0,0,1,.706,1.123,1.381,1.381,0,0,1,.129.723,1.031,1.031,0,0,0,.571,1.082,1.7,1.7,0,0,0,.716.163c.47.024.946-.037,1.412.012.792.083,1.1.645.838,1.414a3.357,3.357,0,0,1-1.341,1.73c-.143.1-.273.216-.465.369.21.094.358.155.5.224.319.156.347.347.078.585-.095.084-.214.14-.317.215s-.175.138-.279.221c.056.037.082.066.112.072.381.07.764.122.9.578.111.36.228.72.373,1.066a7.667,7.667,0,0,0,.463.913c.147.25.328.479.53.77-.608.284-1.377-.094-1.846.668.227,0,.427.061.553-.01a2.617,2.617,0,0,1,1.521-.3c.5.034.822-.328,1.169-.6.26-.2.38-.155.527.108a2.073,2.073,0,0,1-.38,2.339.485.485,0,0,1-.16.1c-.342.124-.687.24-1.029.362a9.068,9.068,0,0,1-.992.35c-.418.1-.5.459-.633.756-.044.1.183.312.265.483a1.342,1.342,0,0,1,.1.362.206.206,0,0,1-.056.139c-.568.665-.261,1.354-.058,2.039.076.257.153.515.236.771a.886.886,0,0,1-.127.869,1.019,1.019,0,0,0-.181.538,2.033,2.033,0,0,1-.493,1.1,5.447,5.447,0,0,0-1.089,2.1.642.642,0,0,1-.5.523,1.164,1.164,0,0,0-.387.166.777.777,0,0,1-.976.038c-.127-.075-.451.036-.6.164a1.367,1.367,0,0,1-.885.37,2.24,2.24,0,0,0-1.05.319,1.591,1.591,0,0,0-.456.749.362.362,0,0,1-.375.286.948.948,0,0,0-.519.232,1.962,1.962,0,0,0-.423.545,5.243,5.243,0,0,1-1.8,1.839,1.472,1.472,0,0,1-1.47.078.987.987,0,0,0-1.236.226.465.465,0,0,1-.221.146,3.109,3.109,0,0,0-1.636,1.085.568.568,0,0,1-.679.173,9.279,9.279,0,0,0-1.117-.271c-.208-.047-.274-.145-.261-.379a1.673,1.673,0,0,0-.144-.717,4.011,4.011,0,0,0-.456-.8.919.919,0,0,1-.121-1.185c.06-.087-.011-.288-.06-.422-.066-.18-.045-.269.147-.353.456-.2.525-.334.389-.806-.127-.442-.321-.865-.447-1.308s-.2-.92-.317-1.375a.528.528,0,0,0-.24-.318c-.349-.157-.723-.259-1.074-.413-.406-.177-.423-.317-.222-.711a1.57,1.57,0,0,0,.08-.534c0-.046-.05-.12-.031-.141.31-.358.193-.9.57-1.244.269-.244.617-.515.3-.975-.035-.05.051-.185.084-.28.087-.252.191-.5.263-.757a2.119,2.119,0,0,0-.033-1.3,2.35,2.35,0,0,1,.051-1.828,9.388,9.388,0,0,0,.459-1.791.638.638,0,0,1,.057-.181c.36-.586.761-1.151,1.076-1.76.263-.507.416-1.07.643-1.6a.653.653,0,0,1,.332-.354,1.637,1.637,0,0,0,1.088-1.014,1.717,1.717,0,0,1,.783-.9,8.006,8.006,0,0,1,.763-.444.552.552,0,0,1,.46-.018c.337.263.583.164.838-.165" fill="#7a4f00"/>
        <path id="Path_883048" data-name="Path 883048" d="M55.614,22.926c.207.737.644.114,1,.243a1.209,1.209,0,0,1-.628.844c-.364.224-.708.988-.495,1.346a1.056,1.056,0,0,1-.177,1.326A1.71,1.71,0,0,1,56.9,27c0,.023,0,.065-.013.068-.723.162-.822.846-1.108,1.359-.138.247-.248.362-.526.221a.381.381,0,0,0-.541.1c-.072.093-.275.09-.421.112-.4.058-.793.105-1.19.155-.006.035-.012.072-.019.107a4.967,4.967,0,0,1-.336-.457c-.163-.276-.291-.573-.683-.6-.077,0-.155-.122-.218-.2-.335-.41-.839-.7-.692-1.4.058-.277-.151-.608.114-.909a.909.909,0,0,0,.107-.48c.062-.652.2-.8.845-.852.123-.01.246-.015.413-.026-.095-.187-.167-.329-.278-.545.367-.021.692-.051,1.018-.055.544,0,1.05-.238,1.6-.238.2,0,.393-.254.644-.431" fill="#7a4f00"/>
        <path id="Path_883049" data-name="Path 883049" d="M42.559,8.445c-.074.207-.144.4-.212.589-.2.558-.437.683-.994.5-.2-.064-.337-.173-.291-.419a.941.941,0,0,1,1.5-.672" fill="#7a4f00"/>
        <path id="Path_883050" data-name="Path 883050" d="M41.833,35.227c.2.307.328.48.433.665a.413.413,0,0,1-.251.681.374.374,0,0,1-.337-.1.993.993,0,0,1-.255-.578c.024-.206.228-.391.41-.673" fill="#7a4f00"/>
        <path id="Path_883051" data-name="Path 883051" d="M40.945,33a.983.983,0,0,1,1.047,1.074.831.831,0,0,1-.115.261c-.08-.052-.191-.085-.237-.158C41.4,33.8,41.18,33.4,40.945,33" fill="#7a4f00"/>
        <path id="Path_883052" data-name="Path 883052" d="M38.492,23.377c.37-.177.644-.311.8-.035.065.111-.114.363-.182.55l-.621-.515" fill="#7a4f00"/>
        <path id="Path_883053" data-name="Path 883053" d="M66.419,40.266h.672a.427.427,0,0,1-.476.41c-.067,0-.117-.237-.2-.41" fill="#e793a6"/>
      </g>
    </g>
    <g id="Path_883055" data-name="Path 883055" transform="translate(390 2285.5)" fill="#7d3a1b">
      <path d="M 183.2411193847656 36.5 L 6.758904933929443 36.5 C 3.307738065719604 36.5 0.5 32.68690490722656 0.5 28 L 0.5 9 C 0.5 4.313095092773438 3.307738065719604 0.5 6.758904933929443 0.5 L 183.2411193847656 0.5 C 186.6922912597656 0.5 189.5 4.313095092773438 189.5 9 L 189.5 28 C 189.5 32.68690490722656 186.6922912597656 36.5 183.2411193847656 36.5 Z" stroke="none"/>
      <path d="M 6.758895874023438 1 C 5.27569580078125 1 3.862380981445312 1.794273376464844 2.779251098632812 3.236549377441406 C 1.631881713867188 4.764350891113281 1 6.811174392700195 1 9 L 1 28 C 1 30.18880081176758 1.631881713867188 32.23564910888672 2.779251098632812 33.76345062255859 C 3.862380981445312 35.2056999206543 5.27569580078125 36 6.758895874023438 36 L 183.2411193847656 36 C 184.7243041992188 36 186.1376190185547 35.2056999206543 187.2207489013672 33.76345062255859 C 188.3681182861328 32.23562622070312 189 30.18880081176758 189 28 L 189 9 C 189 6.811199188232422 188.3681182861328 4.764350891113281 187.2207489013672 3.236549377441406 C 186.1376190185547 1.794273376464844 184.7243041992188 1 183.2411193847656 1 L 6.758895874023438 1 M 6.758895874023438 0 L 183.2411193847656 0 C 186.9739227294922 0 190 4.029426574707031 190 9 L 190 28 C 190 32.97055053710938 186.9739227294922 37 183.2411193847656 37 L 6.758895874023438 37 C 3.026046752929688 37 0 32.97055053710938 0 28 L 0 9 C 0 4.029426574707031 3.026046752929688 0 6.758895874023438 0 Z" stroke="none" fill="#707070"/>
    </g>
    <path id="Path_883065" data-name="Path 883065" d="M183.241,0H6.759C3.026,0,0,4.029,0,9V28c0,4.971,3.026,9,6.759,9H183.241c3.733,0,6.759-4.029,6.759-9V9C190,4.029,186.974,0,183.241,0Z" transform="translate(1020 2285.5)" fill="#7d3a1b"/>
    <path id="Path_883056" data-name="Path 883056" d="M6.759,0H183.241C186.974,0,190,4.029,190,9V28c0,4.971-3.026,9-6.759,9H6.759C3.026,37,0,32.971,0,28V9C0,4.029,3.026,0,6.759,0Z" transform="translate(390 2424.838)" fill="#7d3a1b"/>
    <path id="Path_883063" data-name="Path 883063" d="M183.241,0H6.759C3.026,0,0,4.029,0,9V28c0,4.971,3.026,9,6.759,9H183.241c3.733,0,6.759-4.029,6.759-9V9C190,4.029,186.974,0,183.241,0Z" transform="translate(1020 2410.838)" fill="#7d3a1b"/>
    <path id="Path_883058" data-name="Path 883058" d="M6.759,0H183.241C186.974,0,190,4.029,190,9V28c0,4.971-3.026,9-6.759,9H6.759C3.026,37,0,32.971,0,28V9C0,4.029,3.026,0,6.759,0Z" transform="translate(390 2564.176)" fill="#7d3a1b"/>
    <path id="Path_883061" data-name="Path 883061" d="M183.241,0H6.759C3.026,0,0,4.029,0,9V28c0,4.971,3.026,9,6.759,9H183.241c3.733,0,6.759-4.029,6.759-9V9C190,4.029,186.974,0,183.241,0Z" transform="translate(1020 2564.176)" fill="#7d3a1b"/>
    <path id="Path_883515" data-name="Path 883515" d="M0,0H55V4H0Z" transform="translate(458 2322.5)" fill="#7d3a1b"/>
    <path id="Path_883516" data-name="Path 883516" d="M0,0H55V4H0Z" transform="translate(1088 2322.5)" fill="#7d3a1b"/>
    <path id="Path_883517" data-name="Path 883517" d="M0,0H55V4H0Z" transform="translate(458 2461.838)" fill="#7d3a1b"/>
    <path id="Path_883518" data-name="Path 883518" d="M0,0H55V4H0Z" transform="translate(1088 2447.838)" fill="#7d3a1b"/>
    <path id="Path_883519" data-name="Path 883519" d="M0,0H55V4H0Z" transform="translate(458 2601.176)" fill="#7d3a1b"/>
    <path id="Path_883520" data-name="Path 883520" d="M0,0H55V4H0Z" transform="translate(1088 2601.176)" fill="#7d3a1b"/>
    <path id="Path_883054" data-name="Path 883054" d="M0,276.662H28.16V100.3H3.86" transform="translate(761.662 2324.502) rotate(90)" fill="none" stroke="#12263f" stroke-width="3"/>
    <path id="Path_883064" data-name="Path 883064" d="M28.16,342V0H0" transform="translate(1115 2324.502) rotate(90)" fill="none" stroke="#12263f" stroke-width="3"/>
    <path id="Path_883057" data-name="Path 883057" d="M28.16,46.662v212.5H0" transform="translate(744.662 2463.84) rotate(90)" fill="none" stroke="#12263f" stroke-width="3"/>
    <path id="Path_883062" data-name="Path 883062" d="M28.16,228V0H0" transform="translate(1115 2449.84) rotate(90)" fill="none" stroke="#12263f" stroke-width="3"/>
    <path id="Path_883059" data-name="Path 883059" d="M0,213H28.16V6H-49.178" transform="translate(698 2603.178) rotate(90)" fill="none" stroke="#12263f" stroke-width="3"/>
    <path id="Path_883060" data-name="Path 883060" d="M28.16,276.662V0H0" transform="translate(1115.5 2603.178) rotate(90)" fill="none" stroke="#12263f" stroke-width="3"/>
    <path id="Path_883521" data-name="Path 883521" d="M25.451,16H23.359V3.914h2.092Zm4.258-8.981.058,1.038a3.229,3.229,0,0,1,2.615-1.2q2.806,0,2.855,3.212V16H33.22V10.181a1.85,1.85,0,0,0-.369-1.266A1.554,1.554,0,0,0,31.643,8.5a1.944,1.944,0,0,0-1.818,1.1V16H27.808V7.019ZM42.326,13.56a.914.914,0,0,0-.444-.822,4.723,4.723,0,0,0-1.473-.5,7.574,7.574,0,0,1-1.718-.548A2.293,2.293,0,0,1,37.18,9.575a2.391,2.391,0,0,1,.979-1.942,3.872,3.872,0,0,1,2.49-.78,4.029,4.029,0,0,1,2.6.8,2.529,2.529,0,0,1,.992,2.067H42.227a1.243,1.243,0,0,0-.432-.967,1.654,1.654,0,0,0-1.146-.386,1.787,1.787,0,0,0-1.083.307.968.968,0,0,0-.419.822.818.818,0,0,0,.39.722,5.365,5.365,0,0,0,1.577.519,7.466,7.466,0,0,1,1.864.623,2.639,2.639,0,0,1,1,.867,2.212,2.212,0,0,1,.328,1.229,2.34,2.34,0,0,1-1,1.963,4.283,4.283,0,0,1-2.631.751,4.644,4.644,0,0,1-1.967-.4,3.238,3.238,0,0,1-1.345-1.1,2.594,2.594,0,0,1-.481-1.5H38.84a1.421,1.421,0,0,0,.54,1.1,2.1,2.1,0,0,0,1.32.386,2.04,2.04,0,0,0,1.212-.3A.938.938,0,0,0,42.326,13.56Zm9.181,1.561a3.128,3.128,0,0,1-2.523,1.046,2.788,2.788,0,0,1-2.212-.855,3.637,3.637,0,0,1-.751-2.474V7.019h2.017v5.794q0,1.71,1.419,1.71a1.993,1.993,0,0,0,1.984-1.054V7.019h2.017V16h-1.9Zm6.151.88H55.641V3.25h2.017Zm7.562,0a3.113,3.113,0,0,1-.232-.838,3.393,3.393,0,0,1-4.565.232,2.47,2.47,0,0,1-.855-1.909,2.55,2.55,0,0,1,1.067-2.2,5.169,5.169,0,0,1,3.051-.768h1.237V9.924a1.573,1.573,0,0,0-.39-1.116,1.547,1.547,0,0,0-1.187-.419,1.777,1.777,0,0,0-1.129.344,1.066,1.066,0,0,0-.44.876H59.758a2.239,2.239,0,0,1,.49-1.382A3.263,3.263,0,0,1,61.58,7.218a4.68,4.68,0,0,1,1.88-.365,3.769,3.769,0,0,1,2.515.793,2.827,2.827,0,0,1,.963,2.229v4.051a4.591,4.591,0,0,0,.34,1.934V16ZM63,14.547a2.294,2.294,0,0,0,1.125-.291,1.941,1.941,0,0,0,.793-.78V11.783H63.834a2.973,2.973,0,0,0-1.685.39,1.264,1.264,0,0,0-.564,1.1,1.179,1.179,0,0,0,.386.926A1.5,1.5,0,0,0,63,14.547Zm10.75-5.686a4.991,4.991,0,0,0-.822-.066,1.85,1.85,0,0,0-1.868,1.063V16H69.047V7.019h1.926l.05,1a2.273,2.273,0,0,1,2.025-1.17,1.888,1.888,0,0,1,.714.116Z" transform="translate(437 2294.5)" fill="#fff"/>
    <path id="Path_883522" data-name="Path 883522" d="M33.8,12.065a4.364,4.364,0,0,1-1.428,3.017,4.867,4.867,0,0,1-3.312,1.083,4.713,4.713,0,0,1-2.544-.685,4.5,4.5,0,0,1-1.7-1.947,7.024,7.024,0,0,1-.623-2.93V9.476A7.075,7.075,0,0,1,24.8,6.462a4.567,4.567,0,0,1,1.739-2.009,4.851,4.851,0,0,1,2.619-.706,4.672,4.672,0,0,1,3.221,1.083A4.527,4.527,0,0,1,33.8,7.9H31.706a2.985,2.985,0,0,0-.76-1.88,2.51,2.51,0,0,0-1.789-.577,2.452,2.452,0,0,0-2.1,1A5,5,0,0,0,26.3,9.38v1.072a5.308,5.308,0,0,0,.7,2.991,2.328,2.328,0,0,0,2.054,1.03,2.715,2.715,0,0,0,1.859-.556,2.9,2.9,0,0,0,.789-1.851ZM40.845,16a3.113,3.113,0,0,1-.232-.838,3.393,3.393,0,0,1-4.565.232,2.47,2.47,0,0,1-.855-1.909,2.55,2.55,0,0,1,1.067-2.2,5.169,5.169,0,0,1,3.051-.768h1.237V9.924a1.573,1.573,0,0,0-.39-1.116,1.547,1.547,0,0,0-1.187-.419,1.777,1.777,0,0,0-1.129.344,1.066,1.066,0,0,0-.44.876H35.383a2.239,2.239,0,0,1,.49-1.382A3.263,3.263,0,0,1,37.2,7.218a4.68,4.68,0,0,1,1.88-.365,3.769,3.769,0,0,1,2.515.793,2.827,2.827,0,0,1,.963,2.229v4.051a4.591,4.591,0,0,0,.34,1.934V16Zm-2.216-1.453a2.294,2.294,0,0,0,1.125-.291,1.941,1.941,0,0,0,.793-.78V11.783H39.458a2.973,2.973,0,0,0-1.685.39,1.264,1.264,0,0,0-.564,1.1,1.179,1.179,0,0,0,.386.926A1.5,1.5,0,0,0,38.628,14.547Zm10.75-5.686a4.991,4.991,0,0,0-.822-.066,1.85,1.85,0,0,0-1.868,1.063V16H44.671V7.019H46.6l.05,1a2.273,2.273,0,0,1,2.025-1.17,1.888,1.888,0,0,1,.714.116ZM52.8,16H50.781V7.019H52.8ZM50.656,4.686a1.071,1.071,0,0,1,.295-.772,1.113,1.113,0,0,1,.843-.307,1.127,1.127,0,0,1,.847.307,1.062,1.062,0,0,1,.3.772,1.038,1.038,0,0,1-.3.76,1.136,1.136,0,0,1-.847.3,1.122,1.122,0,0,1-.843-.3A1.046,1.046,0,0,1,50.656,4.686ZM62.875,11.6a5.4,5.4,0,0,1-.934,3.329,3.042,3.042,0,0,1-2.569,1.237,2.93,2.93,0,0,1-2.457-1.137l-.1.971H54.989V3.25h2.017V7.882a2.92,2.92,0,0,1,2.349-1.029,3.077,3.077,0,0,1,2.582,1.22,5.484,5.484,0,0,1,.938,3.412Zm-2.017-.174a3.813,3.813,0,0,0-.515-2.191,1.714,1.714,0,0,0-1.494-.73A1.873,1.873,0,0,0,57.006,9.65v3.7a1.892,1.892,0,0,0,1.859,1.17,1.7,1.7,0,0,0,1.461-.706,3.7,3.7,0,0,0,.531-2.133Zm7.662,4.74a4.173,4.173,0,0,1-3.109-1.208,4.381,4.381,0,0,1-1.191-3.217v-.249a5.389,5.389,0,0,1,.519-2.4A3.949,3.949,0,0,1,66.2,7.442a3.851,3.851,0,0,1,2.092-.589,3.525,3.525,0,0,1,2.835,1.17,4.949,4.949,0,0,1,1,3.312v.813H66.253A2.7,2.7,0,0,0,67,13.908a2.23,2.23,0,0,0,1.639.647,2.731,2.731,0,0,0,2.258-1.121l1.087,1.038a3.631,3.631,0,0,1-1.44,1.249A4.509,4.509,0,0,1,68.52,16.166Zm-.241-7.695a1.7,1.7,0,0,0-1.341.581,3.012,3.012,0,0,0-.652,1.619H70.13v-.149a2.452,2.452,0,0,0-.54-1.531A1.686,1.686,0,0,0,68.279,8.471Z" transform="translate(1067 2294.5)" fill="#fff"/>
    <path id="Path_883523" data-name="Path 883523" d="M20.666,11.518V16h-2.1V3.914h4.624a4.675,4.675,0,0,1,3.217,1.055A3.549,3.549,0,0,1,27.6,7.761a3.431,3.431,0,0,1-1.166,2.767,4.9,4.9,0,0,1-3.266.989Zm0-1.693h2.523A2.485,2.485,0,0,0,24.9,9.3a1.937,1.937,0,0,0,.589-1.523,2.09,2.09,0,0,0-.6-1.565,2.3,2.3,0,0,0-1.644-.6H20.666ZM34.511,16a3.113,3.113,0,0,1-.232-.838,3.393,3.393,0,0,1-4.565.232,2.47,2.47,0,0,1-.855-1.909,2.55,2.55,0,0,1,1.067-2.2,5.169,5.169,0,0,1,3.051-.768h1.237V9.924a1.573,1.573,0,0,0-.39-1.116,1.547,1.547,0,0,0-1.187-.419,1.777,1.777,0,0,0-1.129.344,1.066,1.066,0,0,0-.44.876H29.049a2.239,2.239,0,0,1,.49-1.382,3.263,3.263,0,0,1,1.332-1.009,4.68,4.68,0,0,1,1.88-.365,3.769,3.769,0,0,1,2.515.793,2.827,2.827,0,0,1,.963,2.229v4.051a4.591,4.591,0,0,0,.34,1.934V16Zm-2.216-1.453a2.294,2.294,0,0,0,1.125-.291,1.941,1.941,0,0,0,.793-.78V11.783H33.125a2.973,2.973,0,0,0-1.685.39,1.264,1.264,0,0,0-.564,1.1,1.179,1.179,0,0,0,.386.926A1.5,1.5,0,0,0,32.295,14.547Zm9.737.008a1.824,1.824,0,0,0,1.253-.44,1.5,1.5,0,0,0,.531-1.087h1.9a2.963,2.963,0,0,1-.523,1.565,3.43,3.43,0,0,1-1.328,1.15,3.958,3.958,0,0,1-1.81.423,3.829,3.829,0,0,1-2.988-1.22,4.84,4.84,0,0,1-1.1-3.37v-.208a4.759,4.759,0,0,1,1.1-3.283,3.8,3.8,0,0,1,2.988-1.233,3.69,3.69,0,0,1,2.611.934,3.345,3.345,0,0,1,1.058,2.453h-1.9a1.847,1.847,0,0,0-.527-1.27,1.7,1.7,0,0,0-1.258-.5,1.775,1.775,0,0,0-1.511.71,3.621,3.621,0,0,0-.54,2.154v.324a3.682,3.682,0,0,0,.527,2.179A1.773,1.773,0,0,0,42.032,14.556ZM49.411,16H47.394V7.019h2.017ZM49.029,3.308h2.3l-2.3,2.515-1.619,0ZM52.242,16V8.513h-1.37V7.019h1.37V6.4a3.593,3.593,0,0,1,.448-1.81,2.788,2.788,0,0,1,1.245-1.137,4.482,4.482,0,0,1,1.934-.382,5.638,5.638,0,0,1,1.274.141q.61.141,1.266.357L58.1,5.242a6.421,6.421,0,0,0-2.092-.4,1.869,1.869,0,0,0-1.336.4,1.61,1.61,0,0,0-.415,1.208v.564h1.768V8.513H54.259V16Zm7.122,0H57.347V7.019h2.017Zm5.927-1.444a1.824,1.824,0,0,0,1.253-.44,1.5,1.5,0,0,0,.531-1.087h1.9a2.963,2.963,0,0,1-.523,1.565,3.43,3.43,0,0,1-1.328,1.15,3.958,3.958,0,0,1-1.81.423,3.829,3.829,0,0,1-2.988-1.22,4.84,4.84,0,0,1-1.1-3.37v-.208a4.759,4.759,0,0,1,1.1-3.283,3.8,3.8,0,0,1,2.988-1.233,3.69,3.69,0,0,1,2.611.934,3.345,3.345,0,0,1,1.058,2.453h-1.9a1.847,1.847,0,0,0-.527-1.27,1.7,1.7,0,0,0-1.258-.5,1.775,1.775,0,0,0-1.511.71,3.621,3.621,0,0,0-.54,2.154v.324a3.682,3.682,0,0,0,.527,2.179A1.773,1.773,0,0,0,65.291,14.556ZM75.866,16a3.113,3.113,0,0,1-.232-.838,3.393,3.393,0,0,1-4.565.232,2.47,2.47,0,0,1-.855-1.909,2.55,2.55,0,0,1,1.067-2.2,5.169,5.169,0,0,1,3.051-.768h1.237V9.924a1.573,1.573,0,0,0-.39-1.116,1.547,1.547,0,0,0-1.187-.419,1.777,1.777,0,0,0-1.129.344,1.066,1.066,0,0,0-.44.876H70.4a2.239,2.239,0,0,1,.49-1.382,3.263,3.263,0,0,1,1.332-1.009,4.68,4.68,0,0,1,1.88-.365,3.769,3.769,0,0,1,2.515.793,2.827,2.827,0,0,1,.963,2.229v4.051a4.591,4.591,0,0,0,.34,1.934V16Zm-2.216-1.453a2.294,2.294,0,0,0,1.125-.291,1.941,1.941,0,0,0,.793-.78V11.783H74.479a2.973,2.973,0,0,0-1.685.39,1.264,1.264,0,0,0-.564,1.1,1.179,1.179,0,0,0,.386.926A1.5,1.5,0,0,0,73.649,14.547Z" transform="translate(437 2433.838)" fill="#fff"/>
    <path id="Path_883524" data-name="Path 883524" d="M21.9,10.272a7.415,7.415,0,0,1-.614,3.117,4.644,4.644,0,0,1-1.756,2.059,4.829,4.829,0,0,1-2.627.718,4.84,4.84,0,0,1-2.619-.718A4.716,4.716,0,0,1,12.506,13.4a7.183,7.183,0,0,1-.635-3.063V9.658A7.352,7.352,0,0,1,12.5,6.537a4.71,4.71,0,0,1,1.768-2.071,4.814,4.814,0,0,1,2.619-.718,4.856,4.856,0,0,1,2.619.71A4.651,4.651,0,0,1,21.267,6.5,7.336,7.336,0,0,1,21.9,9.6Zm-2.1-.631a5.283,5.283,0,0,0-.76-3.08,2.485,2.485,0,0,0-2.154-1.071,2.477,2.477,0,0,0-2.129,1.067,5.181,5.181,0,0,0-.784,3.017v.7a5.243,5.243,0,0,0,.776,3.08A2.5,2.5,0,0,0,16.9,14.439a2.47,2.47,0,0,0,2.146-1.062,5.356,5.356,0,0,0,.751-3.1Zm8.7-.78a4.991,4.991,0,0,0-.822-.066,1.85,1.85,0,0,0-1.868,1.063V16H23.791V7.019h1.926l.05,1a2.273,2.273,0,0,1,2.025-1.17,1.888,1.888,0,0,1,.714.116ZM31.917,16H29.9V7.019h2.017ZM29.776,4.686a1.071,1.071,0,0,1,.295-.772,1.113,1.113,0,0,1,.843-.307,1.127,1.127,0,0,1,.847.307,1.062,1.062,0,0,1,.3.772,1.038,1.038,0,0,1-.3.76,1.136,1.136,0,0,1-.847.3,1.122,1.122,0,0,1-.843-.3A1.046,1.046,0,0,1,29.776,4.686Zm6.209,2.333.058,1.038a3.229,3.229,0,0,1,2.615-1.2q2.806,0,2.855,3.212V16H39.5V10.181a1.85,1.85,0,0,0-.369-1.266A1.554,1.554,0,0,0,37.919,8.5a1.944,1.944,0,0,0-1.818,1.1V16H34.084V7.019Zm7.205,4.408a5.3,5.3,0,0,1,.523-2.378,3.819,3.819,0,0,1,1.469-1.627,4.14,4.14,0,0,1,2.175-.569,3.923,3.923,0,0,1,2.951,1.17,4.6,4.6,0,0,1,1.224,3.1l.008.473a5.343,5.343,0,0,1-.51,2.374,3.773,3.773,0,0,1-1.461,1.619,4.17,4.17,0,0,1-2.2.573A3.9,3.9,0,0,1,44.331,14.9a4.848,4.848,0,0,1-1.141-3.374Zm2.017.174a3.619,3.619,0,0,0,.573,2.171,1.862,1.862,0,0,0,1.594.784,1.842,1.842,0,0,0,1.59-.8,4,4,0,0,0,.569-2.333,3.572,3.572,0,0,0-.585-2.158,1.973,1.973,0,0,0-3.158-.012A3.922,3.922,0,0,0,45.207,11.6Zm7.662-.166a5.307,5.307,0,0,1,.963-3.345,3.129,3.129,0,0,1,2.606-1.237A2.941,2.941,0,0,1,58.82,7.907l.116-.888h1.793V19.453H58.712V15.236a3.011,3.011,0,0,1-2.291.93,3.1,3.1,0,0,1-2.582-1.258A5.557,5.557,0,0,1,52.868,11.435Zm2.017.174a3.748,3.748,0,0,0,.544,2.162,1.733,1.733,0,0,0,1.507.784,1.911,1.911,0,0,0,1.776-1.021V9.451a1.912,1.912,0,0,0-1.76-.979,1.762,1.762,0,0,0-1.515.772A4.089,4.089,0,0,0,54.885,11.609ZM68.341,15.12a3.128,3.128,0,0,1-2.523,1.046,2.788,2.788,0,0,1-2.212-.855,3.637,3.637,0,0,1-.751-2.474V7.019h2.017v5.794q0,1.71,1.419,1.71a1.993,1.993,0,0,0,1.984-1.054V7.019h2.017V16h-1.9Zm6.176.88H72.5V7.019h2.017ZM74.135,3.308h2.3l-2.3,2.515-1.619,0ZM82.178,16a3.113,3.113,0,0,1-.232-.838,3.393,3.393,0,0,1-4.565.232,2.47,2.47,0,0,1-.855-1.909,2.55,2.55,0,0,1,1.067-2.2,5.169,5.169,0,0,1,3.051-.768H81.88V9.924a1.573,1.573,0,0,0-.39-1.116A1.547,1.547,0,0,0,80.3,8.388a1.777,1.777,0,0,0-1.129.344,1.066,1.066,0,0,0-.44.876H76.717a2.239,2.239,0,0,1,.49-1.382,3.263,3.263,0,0,1,1.332-1.009,4.68,4.68,0,0,1,1.88-.365,3.769,3.769,0,0,1,2.515.793A2.827,2.827,0,0,1,83.9,9.874v4.051a4.591,4.591,0,0,0,.34,1.934V16Zm-2.216-1.453a2.294,2.294,0,0,0,1.125-.291,1.941,1.941,0,0,0,.793-.78V11.783H80.792a2.973,2.973,0,0,0-1.685.39,1.264,1.264,0,0,0-.564,1.1,1.179,1.179,0,0,0,.386.926A1.5,1.5,0,0,0,79.962,14.547Z" transform="translate(1067 2419.838)" fill="#fff"/>
    <path id="Path_883525" data-name="Path 883525" d="M29.514,13.186H24.833L23.853,16H21.67L26.235,3.914H28.12L32.693,16H30.5Zm-4.092-1.693h3.5L27.173,6.479Zm9.919-4.474L35.4,8.056a3.229,3.229,0,0,1,2.615-1.2q2.806,0,2.855,3.212V16H38.853V10.181a1.85,1.85,0,0,0-.369-1.266A1.554,1.554,0,0,0,37.275,8.5a1.944,1.944,0,0,0-1.818,1.1V16H33.44V7.019Zm7.205,4.424a5.34,5.34,0,0,1,.963-3.333,3.085,3.085,0,0,1,2.582-1.258,2.931,2.931,0,0,1,2.308,1V3.25h2.017V16H48.589l-.1-.93a2.973,2.973,0,0,1-2.416,1.1,3.068,3.068,0,0,1-2.552-1.27A5.535,5.535,0,0,1,42.546,11.443Zm2.017.174a3.739,3.739,0,0,0,.527,2.137,1.71,1.71,0,0,0,1.5.768,1.9,1.9,0,0,0,1.81-1.1V9.583A1.876,1.876,0,0,0,46.605,8.5a1.723,1.723,0,0,0-1.511.776A4.163,4.163,0,0,0,44.563,11.617ZM54.666,16H52.648V7.019h2.017ZM52.524,4.686a1.071,1.071,0,0,1,.295-.772,1.113,1.113,0,0,1,.843-.307,1.127,1.127,0,0,1,.847.307,1.062,1.062,0,0,1,.3.772,1.038,1.038,0,0,1-.3.76,1.136,1.136,0,0,1-.847.3,1.122,1.122,0,0,1-.843-.3A1.046,1.046,0,0,1,52.524,4.686Zm6.209,2.333.058,1.038a3.229,3.229,0,0,1,2.615-1.2q2.806,0,2.855,3.212V16H62.244V10.181a1.85,1.85,0,0,0-.369-1.266A1.554,1.554,0,0,0,60.667,8.5a1.944,1.944,0,0,0-1.818,1.1V16H56.832V7.019ZM71.682,16a3.113,3.113,0,0,1-.232-.838,3.393,3.393,0,0,1-4.565.232,2.47,2.47,0,0,1-.855-1.909,2.55,2.55,0,0,1,1.067-2.2,5.169,5.169,0,0,1,3.051-.768h1.237V9.924a1.573,1.573,0,0,0-.39-1.116,1.547,1.547,0,0,0-1.187-.419,1.777,1.777,0,0,0-1.129.344,1.066,1.066,0,0,0-.44.876H66.22a2.239,2.239,0,0,1,.49-1.382,3.263,3.263,0,0,1,1.332-1.009,4.68,4.68,0,0,1,1.88-.365,3.769,3.769,0,0,1,2.515.793A2.827,2.827,0,0,1,73.4,9.874v4.051a4.591,4.591,0,0,0,.34,1.934V16Zm-2.216-1.453a2.294,2.294,0,0,0,1.125-.291,1.941,1.941,0,0,0,.793-.78V11.783H70.3a2.973,2.973,0,0,0-1.685.39,1.264,1.264,0,0,0-.564,1.1,1.179,1.179,0,0,0,.386.926A1.5,1.5,0,0,0,69.466,14.547Z" transform="translate(437 2573.176)" fill="#fff"/>
    <path id="Path_883526" data-name="Path 883526" d="M18,13.186H13.315L12.336,16H10.153L14.718,3.914H16.6L21.176,16H18.985ZM13.9,11.493h3.5L15.656,6.479Zm9.944-4.474.058.938a3.232,3.232,0,0,1,2.59-1.1A2.483,2.483,0,0,1,28.962,8.23a3.186,3.186,0,0,1,2.756-1.378,2.8,2.8,0,0,1,2.212.822,3.618,3.618,0,0,1,.743,2.424V16H32.656V10.156A1.786,1.786,0,0,0,32.282,8.9a1.635,1.635,0,0,0-1.237-.4,1.679,1.679,0,0,0-1.125.369,1.948,1.948,0,0,0-.61.967L29.319,16H27.3V10.09A1.439,1.439,0,0,0,25.683,8.5a1.776,1.776,0,0,0-1.718.988V16H21.948V7.019ZM42.111,16a3.113,3.113,0,0,1-.232-.838,3.393,3.393,0,0,1-4.565.232,2.47,2.47,0,0,1-.855-1.909,2.55,2.55,0,0,1,1.067-2.2,5.169,5.169,0,0,1,3.051-.768h1.237V9.924a1.573,1.573,0,0,0-.39-1.116,1.547,1.547,0,0,0-1.187-.419,1.777,1.777,0,0,0-1.129.344,1.066,1.066,0,0,0-.44.876H36.649a2.239,2.239,0,0,1,.49-1.382,3.263,3.263,0,0,1,1.332-1.009,4.68,4.68,0,0,1,1.88-.365,3.769,3.769,0,0,1,2.515.793,2.827,2.827,0,0,1,.963,2.229v4.051a4.591,4.591,0,0,0,.34,1.934V16Zm-2.216-1.453a2.294,2.294,0,0,0,1.125-.291,1.941,1.941,0,0,0,.793-.78V11.783H40.724a2.973,2.973,0,0,0-1.685.39,1.264,1.264,0,0,0-.564,1.1,1.179,1.179,0,0,0,.386.926A1.5,1.5,0,0,0,39.894,14.547Zm8.2-.158h4.781V16H45.589V14.68l4.557-6.035H45.672V7.019H52.7V8.3Zm5.885-2.963A5.3,5.3,0,0,1,54.5,9.048a3.819,3.819,0,0,1,1.469-1.627,4.14,4.14,0,0,1,2.175-.569A3.923,3.923,0,0,1,61.1,8.023a4.6,4.6,0,0,1,1.224,3.1l.008.473a5.343,5.343,0,0,1-.51,2.374,3.773,3.773,0,0,1-1.461,1.619,4.17,4.17,0,0,1-2.2.573A3.9,3.9,0,0,1,55.122,14.9a4.848,4.848,0,0,1-1.141-3.374ZM56,11.6a3.619,3.619,0,0,0,.573,2.171,1.862,1.862,0,0,0,1.594.784,1.842,1.842,0,0,0,1.59-.8,4,4,0,0,0,.569-2.333,3.572,3.572,0,0,0-.585-2.158,1.973,1.973,0,0,0-3.158-.012A3.922,3.922,0,0,0,56,11.6Zm9.911-4.582.058,1.038a3.229,3.229,0,0,1,2.615-1.2q2.806,0,2.855,3.212V16H69.42V10.181a1.85,1.85,0,0,0-.369-1.266A1.554,1.554,0,0,0,67.843,8.5a1.944,1.944,0,0,0-1.818,1.1V16H64.008V7.019ZM75.637,16H73.62V7.019h2.017ZM73.5,4.686a1.071,1.071,0,0,1,.295-.772,1.113,1.113,0,0,1,.843-.307,1.127,1.127,0,0,1,.847.307,1.062,1.062,0,0,1,.3.772,1.038,1.038,0,0,1-.3.76,1.136,1.136,0,0,1-.847.3,1.122,1.122,0,0,1-.843-.3A1.046,1.046,0,0,1,73.5,4.686ZM83.2,16a3.113,3.113,0,0,1-.232-.838,3.393,3.393,0,0,1-4.565.232,2.47,2.47,0,0,1-.855-1.909,2.55,2.55,0,0,1,1.067-2.2,5.169,5.169,0,0,1,3.051-.768H82.9V9.924a1.573,1.573,0,0,0-.39-1.116,1.547,1.547,0,0,0-1.187-.419,1.777,1.777,0,0,0-1.129.344,1.066,1.066,0,0,0-.44.876H77.738a2.239,2.239,0,0,1,.49-1.382A3.263,3.263,0,0,1,79.56,7.218a4.68,4.68,0,0,1,1.88-.365,3.769,3.769,0,0,1,2.515.793,2.827,2.827,0,0,1,.963,2.229v4.051a4.591,4.591,0,0,0,.34,1.934V16Zm-2.216-1.453a2.294,2.294,0,0,0,1.125-.291,1.941,1.941,0,0,0,.793-.78V11.783H81.813a2.973,2.973,0,0,0-1.685.39,1.264,1.264,0,0,0-.564,1.1,1.179,1.179,0,0,0,.386.926A1.5,1.5,0,0,0,80.983,14.547Z" transform="translate(1067 2573.176)" fill="#fff"/>
    <path id="Path_883527" data-name="Path 883527" d="M64.5,0A64.5,64.5,0,1,1,0,64.5,64.5,64.5,0,0,1,64.5,0Z" transform="translate(724 2419)" fill="#e2f5f1"/>
    <path id="Path_883528" data-name="Path 883528" d="M34.4,11.576H32.413V16h-2.49V3.914h4.491a5.076,5.076,0,0,1,3.3.955,3.3,3.3,0,0,1,1.162,2.7,3.718,3.718,0,0,1-.535,2.063,3.651,3.651,0,0,1-1.623,1.316l2.615,4.939V16H36.663ZM32.413,9.559h2.009a2.057,2.057,0,0,0,1.453-.477,1.706,1.706,0,0,0,.515-1.316A1.826,1.826,0,0,0,35.9,6.421a2.018,2.018,0,0,0-1.49-.49h-2Zm12.335,6.607a4.409,4.409,0,0,1-3.217-1.212,4.308,4.308,0,0,1-1.241-3.229v-.232a5.426,5.426,0,0,1,.523-2.42A3.838,3.838,0,0,1,42.3,7.429a4.159,4.159,0,0,1,2.187-.577,3.727,3.727,0,0,1,2.9,1.162,4.722,4.722,0,0,1,1.058,3.3v.979H42.723a2.229,2.229,0,0,0,.7,1.411,2.12,2.12,0,0,0,1.482.531,2.589,2.589,0,0,0,2.167-1l1.179,1.32a3.6,3.6,0,0,1-1.461,1.191A4.793,4.793,0,0,1,44.748,16.166Zm-.274-7.379a1.5,1.5,0,0,0-1.158.484,2.5,2.5,0,0,0-.569,1.384h3.337v-.192a1.786,1.786,0,0,0-.432-1.238A1.547,1.547,0,0,0,44.474,8.787Zm4.98,2.656a5.264,5.264,0,0,1,.984-3.329,3.187,3.187,0,0,1,2.652-1.262,2.8,2.8,0,0,1,2.3,1.013l.1-.847h2.175V15.7a3.839,3.839,0,0,1-.535,2.05,3.439,3.439,0,0,1-1.507,1.328,5.3,5.3,0,0,1-2.274.457,4.925,4.925,0,0,1-1.926-.394A3.418,3.418,0,0,1,50,18.125l1.063-1.461a2.81,2.81,0,0,0,2.175,1,2.057,2.057,0,0,0,1.486-.51,1.915,1.915,0,0,0,.531-1.448v-.481a2.775,2.775,0,0,1-2.183.938A3.179,3.179,0,0,1,50.455,14.9a5.262,5.262,0,0,1-1-3.358Zm2.4.179a3.278,3.278,0,0,0,.49,1.916,1.558,1.558,0,0,0,1.345.694,1.666,1.666,0,0,0,1.569-.823V9.626A1.662,1.662,0,0,0,53.7,8.8a1.568,1.568,0,0,0-1.357.707A3.694,3.694,0,0,0,51.854,11.621ZM62.039,16H59.632V7.019h2.407ZM59.49,4.694a1.181,1.181,0,0,1,.361-.888,1.556,1.556,0,0,1,1.963,0,1.175,1.175,0,0,1,.365.888,1.178,1.178,0,0,1-.369.9,1.539,1.539,0,0,1-1.951,0A1.178,1.178,0,0,1,59.49,4.694Zm4.15,6.732a5.327,5.327,0,0,1,.515-2.382,3.768,3.768,0,0,1,1.482-1.619,4.323,4.323,0,0,1,2.245-.573A4.09,4.09,0,0,1,70.85,7.965a4.464,4.464,0,0,1,1.282,3.021l.017.614A4.694,4.694,0,0,1,71,14.917a4.472,4.472,0,0,1-6.2,0,4.777,4.777,0,0,1-1.158-3.387Zm2.4.17a3.357,3.357,0,0,0,.481,1.958,1.73,1.73,0,0,0,2.739.008,3.674,3.674,0,0,0,.49-2.141,3.324,3.324,0,0,0-.49-1.945,1.592,1.592,0,0,0-1.378-.69,1.566,1.566,0,0,0-1.361.686A3.736,3.736,0,0,0,66.04,11.6Zm9.795-4.578.075,1.038a3.136,3.136,0,0,1,2.582-1.2,2.606,2.606,0,0,1,2.125.838A3.912,3.912,0,0,1,81.33,10.2V16h-2.4V10.256A1.556,1.556,0,0,0,78.6,9.148a1.486,1.486,0,0,0-1.1-.344,1.65,1.65,0,0,0-1.519.863V16h-2.4V7.019Zm11.447,9.147a4.409,4.409,0,0,1-3.217-1.212,4.308,4.308,0,0,1-1.241-3.229v-.232a5.426,5.426,0,0,1,.523-2.42,3.838,3.838,0,0,1,1.482-1.644,4.159,4.159,0,0,1,2.187-.577,3.727,3.727,0,0,1,2.9,1.162,4.722,4.722,0,0,1,1.058,3.3v.979H85.256a2.229,2.229,0,0,0,.7,1.411,2.12,2.12,0,0,0,1.482.531,2.589,2.589,0,0,0,2.167-1l1.179,1.32a3.6,3.6,0,0,1-1.461,1.191A4.793,4.793,0,0,1,87.281,16.166Zm-.274-7.379a1.5,1.5,0,0,0-1.158.484,2.5,2.5,0,0,0-.569,1.384h3.337v-.192a1.786,1.786,0,0,0-.432-1.238A1.547,1.547,0,0,0,87.008,8.787ZM97.2,13.518a.773.773,0,0,0-.436-.693,4.95,4.95,0,0,0-1.4-.452q-3.2-.672-3.2-2.723a2.468,2.468,0,0,1,.992-2,4,4,0,0,1,2.594-.8,4.307,4.307,0,0,1,2.735.805A2.538,2.538,0,0,1,99.509,9.75h-2.4a1.161,1.161,0,0,0-.332-.851,1.405,1.405,0,0,0-1.038-.336,1.436,1.436,0,0,0-.938.274.865.865,0,0,0-.332.7.739.739,0,0,0,.378.643,3.885,3.885,0,0,0,1.274.423,10.407,10.407,0,0,1,1.511.4,2.482,2.482,0,0,1,1.9,2.416,2.343,2.343,0,0,1-1.054,1.988,4.548,4.548,0,0,1-2.723.76,4.75,4.75,0,0,1-2-.4,3.363,3.363,0,0,1-1.374-1.1,2.565,2.565,0,0,1-.5-1.515h2.274a1.252,1.252,0,0,0,.473.979,1.877,1.877,0,0,0,1.179.34,1.737,1.737,0,0,0,1.042-.261A.814.814,0,0,0,97.2,13.518ZM8.4,33.443a5.264,5.264,0,0,1,.984-3.329,3.187,3.187,0,0,1,2.652-1.262,2.8,2.8,0,0,1,2.3,1.013l.1-.847h2.175V37.7a3.839,3.839,0,0,1-.535,2.05,3.439,3.439,0,0,1-1.507,1.328,5.3,5.3,0,0,1-2.274.457,4.925,4.925,0,0,1-1.926-.394,3.418,3.418,0,0,1-1.419-1.017l1.063-1.461a2.81,2.81,0,0,0,2.175,1,2.057,2.057,0,0,0,1.486-.51,1.915,1.915,0,0,0,.531-1.448v-.481a2.775,2.775,0,0,1-2.183.938A3.179,3.179,0,0,1,9.4,36.9a5.262,5.262,0,0,1-1-3.358Zm2.4.179a3.278,3.278,0,0,0,.49,1.916,1.558,1.558,0,0,0,1.345.694,1.666,1.666,0,0,0,1.569-.823V31.626a1.662,1.662,0,0,0-1.552-.823,1.568,1.568,0,0,0-1.357.707A3.694,3.694,0,0,0,10.8,33.621Zm11.787,4.545a4.409,4.409,0,0,1-3.217-1.212,4.308,4.308,0,0,1-1.241-3.229v-.232a5.426,5.426,0,0,1,.523-2.42,3.838,3.838,0,0,1,1.482-1.644,4.159,4.159,0,0,1,2.187-.577,3.727,3.727,0,0,1,2.9,1.162,4.722,4.722,0,0,1,1.058,3.3v.979H20.564a2.229,2.229,0,0,0,.7,1.411,2.12,2.12,0,0,0,1.482.531,2.589,2.589,0,0,0,2.167-1l1.179,1.32a3.6,3.6,0,0,1-1.461,1.191A4.793,4.793,0,0,1,22.589,38.166Zm-.274-7.379a1.5,1.5,0,0,0-1.158.484,2.5,2.5,0,0,0-.569,1.384h3.337v-.192a1.786,1.786,0,0,0-.432-1.238A1.547,1.547,0,0,0,22.315,30.787Zm4.956,2.64a5.327,5.327,0,0,1,.515-2.382,3.768,3.768,0,0,1,1.482-1.619,4.323,4.323,0,0,1,2.245-.573,4.09,4.09,0,0,1,2.968,1.112,4.464,4.464,0,0,1,1.282,3.021l.017.614a4.694,4.694,0,0,1-1.154,3.316,4.011,4.011,0,0,1-3.1,1.249,4.031,4.031,0,0,1-3.1-1.245,4.777,4.777,0,0,1-1.158-3.387Zm2.4.17a3.357,3.357,0,0,0,.481,1.958,1.73,1.73,0,0,0,2.739.008,3.674,3.674,0,0,0,.49-2.141,3.324,3.324,0,0,0-.49-1.945,1.592,1.592,0,0,0-1.378-.69,1.566,1.566,0,0,0-1.361.686A3.735,3.735,0,0,0,29.67,33.6Zm7.238-.154a5.264,5.264,0,0,1,.984-3.329,3.187,3.187,0,0,1,2.652-1.262,2.8,2.8,0,0,1,2.3,1.013l.1-.847h2.175V37.7a3.839,3.839,0,0,1-.535,2.05,3.439,3.439,0,0,1-1.507,1.328,5.3,5.3,0,0,1-2.274.457,4.925,4.925,0,0,1-1.926-.394,3.418,3.418,0,0,1-1.419-1.017l1.063-1.461a2.81,2.81,0,0,0,2.175,1,2.057,2.057,0,0,0,1.486-.51,1.915,1.915,0,0,0,.531-1.448v-.481a2.775,2.775,0,0,1-2.183.938A3.179,3.179,0,0,1,37.908,36.9a5.262,5.262,0,0,1-1-3.358Zm2.4.179a3.278,3.278,0,0,0,.49,1.916,1.558,1.558,0,0,0,1.345.694,1.666,1.666,0,0,0,1.569-.823V31.626a1.662,1.662,0,0,0-1.552-.823,1.568,1.568,0,0,0-1.357.707A3.694,3.694,0,0,0,39.307,33.621Zm12.7-2.353a6.517,6.517,0,0,0-.863-.066,1.757,1.757,0,0,0-1.785.921V38h-2.4V29.019h2.266l.066,1.071a2.223,2.223,0,0,1,2-1.237,2.514,2.514,0,0,1,.747.108ZM58.117,38a2.664,2.664,0,0,1-.241-.805,2.9,2.9,0,0,1-2.266.971,3.189,3.189,0,0,1-2.187-.764,2.456,2.456,0,0,1-.867-1.926,2.538,2.538,0,0,1,1.058-2.191,5.222,5.222,0,0,1,3.059-.772h1.1V32a1.48,1.48,0,0,0-.32-1,1.257,1.257,0,0,0-1.009-.374,1.429,1.429,0,0,0-.95.291.987.987,0,0,0-.344.8h-2.4a2.41,2.41,0,0,1,.481-1.444A3.182,3.182,0,0,1,54.6,29.23a4.961,4.961,0,0,1,1.976-.378,3.92,3.92,0,0,1,2.635.834,2.918,2.918,0,0,1,.975,2.345v3.893a4.294,4.294,0,0,0,.357,1.934V38Zm-1.984-1.668a2.066,2.066,0,0,0,.979-.237,1.554,1.554,0,0,0,.664-.635V33.916h-.9q-1.8,0-1.917,1.245l-.008.141a.96.96,0,0,0,.315.739A1.225,1.225,0,0,0,56.133,36.332Zm.913-11.082h2.615l-2.3,2.573H55.411ZM62.607,38V30.778H61.271v-1.76h1.336V28.6a3.368,3.368,0,0,1,1.042-2.611,4.191,4.191,0,0,1,2.893-.917,9.6,9.6,0,0,1,2.723.49l-.349,1.984a10.622,10.622,0,0,0-1.262-.311,6.2,6.2,0,0,0-.963-.071q-1.677,0-1.677,1.486v.365h1.768v1.76H65.015V38Zm7.778,0H67.978V29.019h2.407ZM76.1,36.232a1.573,1.573,0,0,0,1.079-.365,1.28,1.28,0,0,0,.432-.971h2.25a3.077,3.077,0,0,1-.5,1.673,3.286,3.286,0,0,1-1.341,1.179,4.2,4.2,0,0,1-1.88.419,3.9,3.9,0,0,1-3.038-1.224A4.845,4.845,0,0,1,72,33.559V33.4a4.79,4.79,0,0,1,1.1-3.312,3.854,3.854,0,0,1,3.03-1.237,3.778,3.778,0,0,1,2.7.959,3.4,3.4,0,0,1,1.033,2.552h-2.25a1.648,1.648,0,0,0-.432-1.139,1.6,1.6,0,0,0-2.362.173,3.541,3.541,0,0,0-.427,1.983v.249a3.586,3.586,0,0,0,.423,2A1.463,1.463,0,0,0,76.1,36.232ZM86.439,38a2.664,2.664,0,0,1-.241-.805,2.9,2.9,0,0,1-2.266.971,3.189,3.189,0,0,1-2.187-.764,2.456,2.456,0,0,1-.867-1.926,2.538,2.538,0,0,1,1.058-2.191,5.222,5.222,0,0,1,3.059-.772h1.1V32a1.48,1.48,0,0,0-.32-1,1.257,1.257,0,0,0-1.009-.374,1.429,1.429,0,0,0-.95.291.987.987,0,0,0-.344.8h-2.4a2.41,2.41,0,0,1,.481-1.444,3.182,3.182,0,0,1,1.361-1.042,4.961,4.961,0,0,1,1.976-.378,3.92,3.92,0,0,1,2.635.834,2.918,2.918,0,0,1,.975,2.345v3.893a4.294,4.294,0,0,0,.357,1.934V38Zm-1.984-1.668a2.066,2.066,0,0,0,.979-.237,1.554,1.554,0,0,0,.664-.635V33.916h-.9q-1.8,0-1.917,1.245l-.008.141a.96.96,0,0,0,.315.739A1.225,1.225,0,0,0,84.455,36.332Zm10.758-.813a.773.773,0,0,0-.436-.693,4.95,4.95,0,0,0-1.4-.452q-3.2-.672-3.2-2.723a2.468,2.468,0,0,1,.992-2,4,4,0,0,1,2.594-.8,4.307,4.307,0,0,1,2.735.805,2.538,2.538,0,0,1,1.025,2.092h-2.4a1.161,1.161,0,0,0-.332-.851,1.405,1.405,0,0,0-1.038-.336,1.436,1.436,0,0,0-.938.274.865.865,0,0,0-.332.7.739.739,0,0,0,.378.643,3.885,3.885,0,0,0,1.274.423,10.407,10.407,0,0,1,1.511.4,2.482,2.482,0,0,1,1.9,2.416,2.343,2.343,0,0,1-1.054,1.988,4.548,4.548,0,0,1-2.723.76,4.75,4.75,0,0,1-2-.4,3.363,3.363,0,0,1-1.374-1.1,2.565,2.565,0,0,1-.5-1.515h2.274a1.252,1.252,0,0,0,.473.979,1.877,1.877,0,0,0,1.179.34A1.737,1.737,0,0,0,94.86,36.2.814.814,0,0,0,95.213,35.518Zm7.736-2.075a5.413,5.413,0,0,1,.942-3.345,3.057,3.057,0,0,1,2.577-1.245,2.751,2.751,0,0,1,2.167.979V25.25h2.407V38h-2.167l-.116-.955a2.823,2.823,0,0,1-2.308,1.121,3.049,3.049,0,0,1-2.544-1.249A5.587,5.587,0,0,1,102.949,33.443Zm2.4.179a3.546,3.546,0,0,0,.44,1.937,1.433,1.433,0,0,0,1.278.673,1.605,1.605,0,0,0,1.569-.939v-3.55a1.582,1.582,0,0,0-1.552-.939Q105.348,30.8,105.348,33.621Zm11.688,4.545a4.409,4.409,0,0,1-3.217-1.212,4.308,4.308,0,0,1-1.241-3.229v-.232a5.426,5.426,0,0,1,.523-2.42,3.838,3.838,0,0,1,1.482-1.644,4.159,4.159,0,0,1,2.187-.577,3.727,3.727,0,0,1,2.9,1.162,4.722,4.722,0,0,1,1.058,3.3v.979H115.01a2.229,2.229,0,0,0,.7,1.411,2.12,2.12,0,0,0,1.482.531,2.589,2.589,0,0,0,2.167-1l1.179,1.32a3.6,3.6,0,0,1-1.461,1.191A4.793,4.793,0,0,1,117.036,38.166Zm-.274-7.379a1.5,1.5,0,0,0-1.158.484,2.5,2.5,0,0,0-.569,1.384h3.337v-.192a1.786,1.786,0,0,0-.432-1.238A1.547,1.547,0,0,0,116.762,30.787ZM38.685,55.974a4.277,4.277,0,0,1-1.44,3.071,5.058,5.058,0,0,1-3.424,1.121A4.548,4.548,0,0,1,30.164,58.6a6.416,6.416,0,0,1-1.332-4.3v-.739a7.245,7.245,0,0,1,.614-3.071A4.6,4.6,0,0,1,31.2,48.458a4.918,4.918,0,0,1,2.652-.71,4.927,4.927,0,0,1,3.37,1.121A4.6,4.6,0,0,1,38.7,52.015h-2.49a2.524,2.524,0,0,0-.652-1.7,2.413,2.413,0,0,0-1.706-.527,2.116,2.116,0,0,0-1.864.892,5,5,0,0,0-.635,2.768v.913a5.352,5.352,0,0,0,.594,2.864,2.077,2.077,0,0,0,1.872.9,2.458,2.458,0,0,0,1.722-.527,2.381,2.381,0,0,0,.652-1.631Zm1.1-.548a5.327,5.327,0,0,1,.515-2.382,3.767,3.767,0,0,1,1.482-1.619,4.323,4.323,0,0,1,2.245-.573A4.09,4.09,0,0,1,47,51.965a4.464,4.464,0,0,1,1.282,3.021l.017.614a4.694,4.694,0,0,1-1.154,3.316,4.472,4.472,0,0,1-6.2,0,4.777,4.777,0,0,1-1.158-3.387Zm2.4.17a3.357,3.357,0,0,0,.481,1.958,1.73,1.73,0,0,0,2.739.008,3.674,3.674,0,0,0,.49-2.141,3.324,3.324,0,0,0-.49-1.945,1.592,1.592,0,0,0-1.378-.69,1.566,1.566,0,0,0-1.361.686A3.735,3.735,0,0,0,42.188,55.6ZM52.306,60H49.9V47.25h2.407Zm1.6-4.574a5.327,5.327,0,0,1,.515-2.382A3.767,3.767,0,0,1,55.9,51.425a4.323,4.323,0,0,1,2.245-.573,4.09,4.09,0,0,1,2.968,1.112A4.464,4.464,0,0,1,62.4,54.986l.017.614a4.694,4.694,0,0,1-1.154,3.316,4.472,4.472,0,0,1-6.2,0,4.777,4.777,0,0,1-1.158-3.387Zm2.4.17a3.357,3.357,0,0,0,.481,1.958,1.73,1.73,0,0,0,2.739.008,3.674,3.674,0,0,0,.49-2.141,3.324,3.324,0,0,0-.49-1.945,1.592,1.592,0,0,0-1.378-.69,1.566,1.566,0,0,0-1.361.686A3.735,3.735,0,0,0,56.307,55.6Zm9.836-4.578.075,1a3.156,3.156,0,0,1,2.582-1.17,2.4,2.4,0,0,1,2.382,1.37,3.084,3.084,0,0,1,2.7-1.37,2.679,2.679,0,0,1,2.175.851,3.911,3.911,0,0,1,.714,2.561V60H74.361V54.272a1.71,1.71,0,0,0-.3-1.116,1.324,1.324,0,0,0-1.054-.353,1.5,1.5,0,0,0-1.494,1.029L71.522,60h-2.4V54.281a1.689,1.689,0,0,0-.307-1.129,1.337,1.337,0,0,0-1.046-.349,1.555,1.555,0,0,0-1.478.847V60h-2.4V51.019ZM86.7,55.592a5.439,5.439,0,0,1-.921,3.366,3.052,3.052,0,0,1-2.573,1.208,2.8,2.8,0,0,1-2.333-1.121L80.77,60H78.611V47.25h2.4v4.574a2.732,2.732,0,0,1,2.183-.971,3.077,3.077,0,0,1,2.577,1.208,5.446,5.446,0,0,1,.934,3.4Zm-2.4-.174a3.573,3.573,0,0,0-.432-1.988,1.46,1.46,0,0,0-1.287-.627,1.582,1.582,0,0,0-1.577.938v3.544a1.6,1.6,0,0,0,1.594.946,1.481,1.481,0,0,0,1.527-1.146A5.909,5.909,0,0,0,84.306,55.418ZM90.714,60H88.307V51.019h2.407ZM88.166,48.694a1.181,1.181,0,0,1,.361-.888,1.556,1.556,0,0,1,1.963,0,1.268,1.268,0,0,1,0,1.785,1.539,1.539,0,0,1-1.951,0A1.178,1.178,0,0,1,88.166,48.694ZM97.894,60a2.664,2.664,0,0,1-.241-.805,2.9,2.9,0,0,1-2.266.971A3.189,3.189,0,0,1,93.2,59.4a2.456,2.456,0,0,1-.867-1.926,2.538,2.538,0,0,1,1.058-2.191,5.222,5.222,0,0,1,3.059-.772h1.1V54a1.48,1.48,0,0,0-.32-1,1.257,1.257,0,0,0-1.009-.374,1.429,1.429,0,0,0-.95.291.987.987,0,0,0-.344.8h-2.4a2.41,2.41,0,0,1,.481-1.444,3.182,3.182,0,0,1,1.361-1.042,4.961,4.961,0,0,1,1.976-.378,3.92,3.92,0,0,1,2.635.834,2.918,2.918,0,0,1,.975,2.345v3.893a4.294,4.294,0,0,0,.357,1.934V60ZM95.91,58.332a2.066,2.066,0,0,0,.979-.237,1.554,1.554,0,0,0,.664-.635V55.916h-.9q-1.8,0-1.917,1.245l-.008.141a.96.96,0,0,0,.315.739A1.225,1.225,0,0,0,95.91,58.332Z" transform="translate(724 2452)" fill="#12263f"/>
    <path id="Path_883529" data-name="Path 883529" d="M5,0A5,5,0,1,1,0,5,5,5,0,0,1,5,0Z" transform="translate(656 2324)" fill="#12263f"/>
    <path id="Path_883530" data-name="Path 883530" d="M5,0A5,5,0,1,1,0,5,5,5,0,0,1,5,0Z" transform="translate(768 2348)" fill="#12263f"/>
    <path id="Path_883531" data-name="Path 883531" d="M5,0A5,5,0,1,1,0,5,5,5,0,0,1,5,0Z" transform="translate(693 2487)" fill="#12263f"/>
    <path id="Path_883532" data-name="Path 883532" d="M5,0A5,5,0,1,1,0,5,5,5,0,0,1,5,0Z" transform="translate(882 2473)" fill="#12263f"/>
    <path id="Path_883533" data-name="Path 883533" d="M5,0A5,5,0,1,1,0,5,5,5,0,0,1,5,0Z" transform="translate(687 2546)" fill="#12263f"/>
    <path id="Path_883534" data-name="Path 883534" d="M5,0A5,5,0,1,1,0,5,5,5,0,0,1,5,0Z" transform="translate(834 2626)" fill="#12263f"/>
  </g>
</svg>
