<svg xmlns="http://www.w3.org/2000/svg" xmlns:xlink="http://www.w3.org/1999/xlink" width="62.504" height="62.504" viewBox="0 0 62.504 62.504">
  <defs>
    <clipPath id="clip-path">
      <rect id="Rectangle_402860" data-name="Rectangle 402860" width="35.487" height="41.54" fill="#fff"/>
    </clipPath>
  </defs>
  <g id="Group_1101609" data-name="Group 1101609" transform="translate(-1261 -3519.063)">
    <g id="Group_1072170" data-name="Group 1072170" transform="translate(981.184 2320.223)">
      <g id="Group_1072053" data-name="Group 1072053" transform="translate(279.816 1198.84)">
        <circle id="Ellipse_4742" data-name="Ellipse 4742" cx="31.252" cy="31.252" r="31.252" transform="translate(0)" fill="#09614d"/>
      </g>
      <g id="Group_1101424" data-name="Group 1101424" transform="translate(293.816 1208.84)">
        <g id="Group_1101423" data-name="Group 1101423" clip-path="url(#clip-path)">
          <path id="Path_883098" data-name="Path 883098" d="M46.067,16.414a5.578,5.578,0,0,0-5.308-.754c0-.3,0-.585,0-.866.006-1.4.011-2.807.022-4.211,0-.133-.025-.176-.169-.175-1.616.005-3.233.013-4.849,0A4.986,4.986,0,0,1,31.2,7.722q-.165-.291-.321-.587a.208.208,0,0,0-.212-.123c-.456.006-.912,0-1.368,0a.182.182,0,0,0-.186.108c-.2.354-.389.715-.613,1.052A4.846,4.846,0,0,1,25.346,10.3a6.225,6.225,0,0,1-1.211.108c-1.586.012-3.173,0-4.76,0H19.2v5.243a5.532,5.532,0,0,0-5.253.743c-.119-.406-.118-1.243.99-2.265l-.352-.716a2.062,2.062,0,0,1,.681-2.635c.191-.133.381-.268.578-.393a.2.2,0,0,0,.1-.247,6.8,6.8,0,0,1-.168-.813,2.113,2.113,0,0,1,1.554-2.251c.161-.05.32-.1.483-.147a.186.186,0,0,0,.153-.2,7.035,7.035,0,0,1,.089-1.005A2.062,2.062,0,0,1,19.9,4.126c.242-.018.483-.05.725-.067.107-.007.148-.055.179-.155a5.345,5.345,0,0,1,.3-.836,2.006,2.006,0,0,1,1.762-1.174,3.3,3.3,0,0,1,1.157.159.171.171,0,0,0,.225-.079c.119-.182.249-.358.367-.541A2.092,2.092,0,0,1,26.3.473a2.125,2.125,0,0,1,1.069.268c.184.086.362.184.549.263a.2.2,0,0,0,.168-.025c.173-.133.341-.273.5-.42A2.043,2.043,0,0,1,29.945,0a1.981,1.981,0,0,1,1.334.462c.18.148.364.292.531.454a.278.278,0,0,0,.367.044A8.687,8.687,0,0,1,33.186.537a2.034,2.034,0,0,1,2.081.762c.144.2.29.4.416.616a.245.245,0,0,0,.331.123,3.486,3.486,0,0,1,1.129-.145A2.068,2.068,0,0,1,38.886,3.1c.108.276.207.556.293.84.039.128.128.116.218.127.349.042.7.06,1.045.131a2.038,2.038,0,0,1,1.53,1.789c.022.252.04.5.049.757a.168.168,0,0,0,.135.18c.263.086.531.164.785.271a2.08,2.08,0,0,1,1.222,2.425q-.063.267-.126.535a.186.186,0,0,0,.09.226c.2.125.387.259.577.393a2.052,2.052,0,0,1,.694,2.643c-.1.2-.193.4-.3.6a.159.159,0,0,0,.022.211c.171.193.34.388.5.587a1.993,1.993,0,0,1,.442,1.6" transform="translate(-12.236 -0.001)" fill="#fff"/>
          <path id="Path_883099" data-name="Path 883099" d="M82.406,260.478H61.949V260.3q0-5.676,0-11.353c0-.331,0-.331.339-.331,1.105,0,2.211,0,3.316,0a1.145,1.145,0,0,1,.723.233q3.563,2.595,7.141,5.17l8.55,6.189c.116.084.235.162.391.27" transform="translate(-54.553 -218.946)" fill="#fff"/>
          <path id="Path_883100" data-name="Path 883100" d="M78.442,89.049h2.84a7.242,7.242,0,0,0,3.982-1.193,7.447,7.447,0,0,0,1.447-1.25c.085-.092.14-.111.235-.006a7.082,7.082,0,0,0,4.015,2.293,8.7,8.7,0,0,0,1.4.149c.892.023,1.784.007,2.677.007h.184v.164c0,.779.019,1.558,0,2.336a8.411,8.411,0,0,1-4.231,7.373,7.617,7.617,0,0,1-3.232,1.069,8.2,8.2,0,0,1-4.334-.687,8.444,8.444,0,0,1-3.735-3.312,8.243,8.243,0,0,1-1.12-3.076,9.218,9.218,0,0,1-.119-1.211c-.018-.823-.005-1.646-.005-2.47v-.185m4.037,3.66c.018.222.02.416.051.606a4.311,4.311,0,0,0,1.895,3.016,3.7,3.7,0,0,0,1.626.649c.353.041.712.037,1.068.044a3.287,3.287,0,0,0,1.56-.372,4.306,4.306,0,0,0,2.489-3.746c.015-.193.012-.2-.19-.2q-.974,0-1.948,0c-.307,0-.317,0-.354.3a1.87,1.87,0,0,1-3.717-.162c-.01-.1-.036-.145-.149-.144-.694,0-1.388,0-2.082,0h-.248" transform="translate(-69.076 -76.202)" fill="#fff"/>
          <path id="Path_883101" data-name="Path 883101" d="M117.327,214.736a11.041,11.041,0,0,0,7.492,0v4.045h.293q2.974,0,5.949,0c.366,0,.366,0,.366.374q0,4.226-.008,8.451c0,.051-.011.1-.019.172-.346-.252-.669-.488-.993-.722l-5.072-3.665q-2.716-1.964-5.431-3.93c-.827-.6-1.657-1.192-2.483-1.791a.248.248,0,0,1-.1-.162c-.006-.907,0-1.815,0-2.722a.2.2,0,0,1,.013-.047" transform="translate(-103.312 -189.104)" fill="#fff"/>
          <path id="Path_883102" data-name="Path 883102" d="M255.994,261.074V249.3a.575.575,0,0,1,.118,0,5.808,5.808,0,0,1,4.6,4.17,5.281,5.281,0,0,1,.223,1.57q0,2.954,0,5.907c0,.088-.014.137-.12.137q-2.387,0-4.774,0a.208.208,0,0,1-.041-.012" transform="translate(-225.442 -219.549)" fill="#fff"/>
          <path id="Path_883103" data-name="Path 883103" d="M4.96,261.058H.019c0-.15,0-.292,0-.435,0-1.9-.055-3.811.02-5.712a5.626,5.626,0,0,1,3.568-5.238,10.47,10.47,0,0,1,1.229-.385.621.621,0,0,1,.123-.011Z" transform="translate(0 -219.528)" fill="#fff"/>
          <path id="Path_883104" data-name="Path 883104" d="M233.934,148.541a3.011,3.011,0,0,1,2.942,3,2.971,2.971,0,1,1-5.943-.019,3,3,0,0,1,3-2.979" transform="translate(-203.372 -130.813)" fill="#fff"/>
          <path id="Path_883105" data-name="Path 883105" d="M19.8,148.541a3.007,3.007,0,0,1,2.958,3.005,2.971,2.971,0,1,1-5.941-.034,3.01,3.01,0,0,1,2.983-2.972" transform="translate(-14.807 -130.813)" fill="#fff"/>
          <path id="Path_883106" data-name="Path 883106" d="M200.536,196.85v-.966c0-.565,0-1.13,0-1.7a.369.369,0,0,1,.155-.324c.5-.407,1-.828,1.5-1.251a.082.082,0,0,1,.03.036,5.293,5.293,0,0,0,2.9,2.734,8.984,8.984,0,0,0,1.108.326c.092.024.123.048.118.142a1.968,1.968,0,0,1-.3.906.283.283,0,0,1-.212.091c-1.15.007-2.3.007-3.448.009l-1.724,0c-.034,0-.068,0-.12-.007" transform="translate(-176.6 -169.624)" fill="#fff"/>
          <path id="Path_883107" data-name="Path 883107" d="M52.5,192.057a2.563,2.563,0,0,0,.222.253c.416.36.833.718,1.256,1.069a.336.336,0,0,1,.143.286c-.005.848,0,1.7,0,2.544,0,.107-.018.16-.145.16-1.631,0-3.261,0-4.892,0-.521,0-.381.088-.611-.4a2.909,2.909,0,0,1-.151-.586c-.021-.092.01-.136.117-.157a5.452,5.452,0,0,0,3.913-2.862c.046-.086.086-.174.148-.3" transform="translate(-42.547 -169.136)" fill="#fff"/>
        </g>
      </g>
    </g>
  </g>
</svg>
