<svg xmlns="http://www.w3.org/2000/svg" xmlns:xlink="http://www.w3.org/1999/xlink" width="139" height="139" viewBox="0 0 139 139">
  <defs>
    <clipPath id="clip-path">
      <rect id="Rectangle_400938" data-name="Rectangle 400938" width="139" height="139" transform="translate(-0.043 -0.043)" fill="none"/>
    </clipPath>
    <clipPath id="clip-path-2">
      <rect id="Rectangle_401073" data-name="Rectangle 401073" width="105.872" height="47.68" fill="#7d3a1b"/>
    </clipPath>
    <clipPath id="clip-path-3">
      <rect id="Rectangle_402886" data-name="Rectangle 402886" width="76.5" height="76.534" fill="#7a4f00"/>
    </clipPath>
  </defs>
  <g id="Group_1101577" data-name="Group 1101577" transform="translate(-421 -4306)">
    <g id="Group_1099388" data-name="Group 1099388" transform="translate(156.043 -977.957)">
      <g id="Group_1099379" data-name="Group 1099379" transform="translate(265 5284)">
        <rect id="Rectangle_401103" data-name="Rectangle 401103" width="139" height="139" transform="translate(-0.043 -0.043)" fill="none"/>
        <g id="Group_1099348" data-name="Group 1099348" transform="translate(0)">
          <g id="Group_1099282" data-name="Group 1099282">
            <g id="Group_1099281" data-name="Group 1099281" clip-path="url(#clip-path-2)">
              <path id="Path_873375" data-name="Path 873375" d="M85.879,10.449c-4.752,0-7.21-2.33-9.379-4.386C74.371,4.047,72.538,2.3,68.7,2.3s-5.668,1.742-7.8,3.758c-2.17,2.056-4.624,4.386-9.379,4.386s-7.21-2.33-9.379-4.386C40.018,4.047,38.184,2.3,34.349,2.3s-5.668,1.742-7.794,3.758c-2.17,2.056-4.627,4.386-9.379,4.386S9.963,8.119,7.794,6.063C5.668,4.047,3.835,2.3,0,2.3V0C4.752,0,7.21,2.334,9.379,4.386c2.129,2.02,3.963,3.758,7.8,3.758s5.668-1.738,7.794-3.755C27.136,2.334,29.6,0,34.349,0s7.213,2.334,9.379,4.386c2.129,2.02,3.963,3.758,7.8,3.758s5.668-1.738,7.8-3.758C61.489,2.334,63.951,0,68.7,0s7.213,2.334,9.379,4.386c2.129,2.02,3.963,3.758,7.8,3.758s5.668-1.738,7.8-3.758C95.843,2.334,98.3,0,103.056,0V2.3c-3.835,0-5.668,1.742-7.8,3.758-2.169,2.056-4.627,4.386-9.379,4.386" transform="translate(2.816 37.231)" fill="#7d3a1b"/>
              <path id="Path_873376" data-name="Path 873376" d="M85.879,10.449c-4.752,0-7.213-2.33-9.379-4.39C74.371,4.043,72.538,2.3,68.7,2.3s-5.668,1.738-7.8,3.755c-2.166,2.06-4.624,4.39-9.379,4.39s-7.213-2.33-9.379-4.39C40.018,4.043,38.184,2.3,34.349,2.3s-5.668,1.742-7.794,3.755c-2.17,2.06-4.627,4.39-9.379,4.39s-7.213-2.33-9.383-4.39C5.668,4.043,3.835,2.3,0,2.3V0C4.752,0,7.213,2.33,9.379,4.386c2.129,2.02,3.963,3.758,7.8,3.758s5.668-1.738,7.794-3.758C27.136,2.33,29.6,0,34.349,0s7.213,2.33,9.383,4.386c2.126,2.02,3.959,3.758,7.794,3.758s5.668-1.738,7.8-3.758C61.489,2.33,63.951,0,68.7,0s7.213,2.33,9.379,4.386c2.129,2.02,3.963,3.758,7.8,3.758s5.668-1.738,7.8-3.758C95.846,2.33,98.3,0,103.059,0V2.3c-3.835,0-5.672,1.742-7.8,3.755-2.169,2.06-4.628,4.39-9.379,4.39" transform="translate(1.877 24.821)" fill="#7d3a1b"/>
              <path id="Path_873377" data-name="Path 873377" d="M85.879,10.449c-4.752,0-7.213-2.33-9.379-4.39C74.371,4.043,72.538,2.3,68.7,2.3s-5.668,1.738-7.8,3.755c-2.166,2.06-4.627,4.39-9.379,4.39s-7.213-2.33-9.379-4.39C40.018,4.043,38.184,2.3,34.349,2.3s-5.668,1.742-7.794,3.755c-2.169,2.06-4.627,4.39-9.379,4.39s-7.213-2.33-9.383-4.39C5.668,4.043,3.835,2.3,0,2.3V0C4.752,0,7.213,2.33,9.379,4.386c2.126,2.02,3.963,3.758,7.8,3.758s5.668-1.738,7.794-3.758C27.136,2.33,29.6,0,34.349,0s7.213,2.33,9.383,4.386c2.126,2.02,3.959,3.758,7.794,3.758s5.668-1.738,7.8-3.758C61.489,2.33,63.951,0,68.7,0s7.213,2.33,9.379,4.386c2.129,2.02,3.963,3.758,7.8,3.758s5.668-1.738,7.8-3.758C95.846,2.33,98.3,0,103.059,0V2.3c-3.835,0-5.672,1.742-7.8,3.755-2.169,2.06-4.627,4.39-9.379,4.39" transform="translate(0.939 12.41)" fill="#7d3a1b"/>
              <path id="Path_873378" data-name="Path 873378" d="M85.879,10.445c-4.752,0-7.21-2.33-9.379-4.386C74.371,4.043,72.538,2.3,68.7,2.3s-5.668,1.738-7.794,3.755c-2.169,2.056-4.627,4.386-9.383,4.386s-7.21-2.33-9.379-4.386C40.018,4.043,38.184,2.3,34.349,2.3s-5.668,1.738-7.794,3.751c-2.166,2.06-4.627,4.39-9.379,4.39S9.963,8.115,7.794,6.059C5.668,4.043,3.835,2.3,0,2.3V0C4.752,0,7.213,2.33,9.379,4.386c2.129,2.016,3.963,3.755,7.8,3.755S22.845,6.4,24.971,4.386C27.14,2.33,29.6,0,34.349,0s7.21,2.33,9.383,4.386c2.126,2.016,3.959,3.755,7.794,3.755s5.668-1.738,7.8-3.755C61.493,2.33,63.951,0,68.7,0s7.21,2.33,9.379,4.386c2.129,2.016,3.963,3.755,7.8,3.755s5.668-1.738,7.8-3.755C95.846,2.33,98.3,0,103.059,0V2.3c-3.839,0-5.672,1.738-7.8,3.755-2.169,2.056-4.627,4.386-9.379,4.386" transform="translate(0 0.004)" fill="#7d3a1b"/>
            </g>
          </g>
        </g>
        <path id="Path_873425" data-name="Path 873425" d="M57.977,0A57.977,57.977,0,1,1,0,57.977,57.977,57.977,0,0,1,57.977,0Z" transform="translate(17.221 20.665)" fill="#ffe2b7"/>
        <circle id="Ellipse_11503" data-name="Ellipse 11503" cx="60.5" cy="60.5" r="60.5" transform="translate(8.957 8.957)" fill="#fff"/>
      </g>
    </g>
    <g id="Group_1099390" data-name="Group 1099390" transform="translate(104 -2088)">
      <g id="Group_1099389" data-name="Group 1099389" transform="translate(347.893 6422.744)">
        <rect id="Rectangle_401104" data-name="Rectangle 401104" width="78" height="79" transform="translate(0.107 0.256)" fill="none"/>
      </g>
      <g id="Group_1101448" data-name="Group 1101448" transform="translate(348 6425.466)">
        <g id="Group_1101447" data-name="Group 1101447" clip-path="url(#clip-path-3)">
          <path id="Path_883130" data-name="Path 883130" d="M73.166,163.218H84.247v-4.865h2.482v4.86c.1.007.182.017.262.017q2.743,0,5.487,0a1.53,1.53,0,0,1,1.733,1.739q0,3.3,0,6.592a1.487,1.487,0,0,1-1.613,1.626H34.047a1.489,1.489,0,0,1-1.613-1.628q0-3.338,0-6.677a1.5,1.5,0,0,1,1.65-1.652c1.838-.006,3.677,0,5.515,0h.3v-4.877h2.482v4.867H53.478v-.3c0-1.471-.012-2.943,0-4.414a6.077,6.077,0,0,1,3.827-5.85,6.941,6.941,0,0,1,2.9-.516c2.084,0,4.168-.013,6.251,0a6.584,6.584,0,0,1,4.783,1.75,5.884,5.884,0,0,1,1.9,4.214c.028,1.584.015,3.168.02,4.752,0,.112,0,.223,0,.359M49.75,170.676H76.892v-4.942H49.75Zm12.315-9.929v-6.064c-1.035,0-2.049-.077-3.047.017a3.53,3.53,0,0,0-3.064,3.465c.059,1.62.012,3.243.013,4.864a1.781,1.781,0,0,0,.018.182H70.665c0-.059.011-.1.011-.132q0-2.6,0-5.2a1.938,1.938,0,0,0-.028-.309,3.52,3.52,0,0,0-2.969-2.863,23.393,23.393,0,0,0-2.567-.074c-.175,0-.351,0-.553,0v6.118ZM91.7,165.737H79.347v4.941H91.7Zm-44.395,0H34.939v4.937H47.3Z" transform="translate(-25.073 -117.612)" fill="#7a4f00"/>
          <path id="Path_883131" data-name="Path 883131" d="M16.013,312.446c.263-.266.5-.518.751-.76a6.131,6.131,0,0,1,4.337-1.765c1.6-.026,3.207-.038,4.808.008a6.092,6.092,0,0,1,4.6,2.141l.293.335c.533-.471,1.013-.965,1.562-1.366a5.872,5.872,0,0,1,3.411-1.116c1.612-.03,3.224-.01,4.837,0a6.311,6.311,0,0,1,5.03,2.542c.109-.118.219-.23.322-.347a6.243,6.243,0,0,1,4.834-2.2c1.537-.019,3.074-.022,4.61,0a6.167,6.167,0,0,1,4.674,2.1c.107.119.219.233.332.348a.341.341,0,0,0,.085.043c.208-.225.407-.459.625-.674a6.2,6.2,0,0,1,4.4-1.822c1.583-.026,3.169-.041,4.751,0a6.134,6.134,0,0,1,5.282,2.967,6.2,6.2,0,0,1,.942,2.926c.015.2-.022.287-.254.282-.714-.016-1.429-.006-2.113-.006a10.859,10.859,0,0,0-.332-1.327,3.525,3.525,0,0,0-3.025-2.348,15.529,15.529,0,0,0-1.862-.062c-1.084-.009-2.168-.012-3.253,0a3.848,3.848,0,0,0-3.429,1.777,3.938,3.938,0,0,0-.548,1.677c-.027.22-.092.29-.3.288q-.99-.011-1.98,0c-.161,0-.22-.048-.217-.208a3.35,3.35,0,0,0-1.8-3.026,3.7,3.7,0,0,0-1.945-.512c-1.565-.006-3.131-.028-4.695.005a3.668,3.668,0,0,0-3.564,2.274,5.645,5.645,0,0,0-.27,1.2c-.023.122.006.258-.177.258H44.51c-.089-.4-.142-.778-.263-1.139a3.509,3.509,0,0,0-3.118-2.532,19.558,19.558,0,0,0-2.286-.066c-1.149,0-2.3-.026-3.447.056a3.643,3.643,0,0,0-3.317,3.339c-.023.269-.083.371-.381.356-.6-.031-1.206-.01-1.81-.012-.091,0-.182-.007-.293-.013a3.406,3.406,0,0,0-.42-1.782,3.734,3.734,0,0,0-3.409-1.942c-1.517-.024-3.036-.017-4.554,0a3.84,3.84,0,0,0-3.121,1.379,3.1,3.1,0,0,0-.777,2.041c0,.092-.011.185-.02.322h-.678c-.509,0-1.018-.009-1.527,0-.169,0-.249-.037-.266-.231a3.713,3.713,0,0,0-1.814-2.97,3.975,3.975,0,0,0-2.084-.536q-2.305-.022-4.61,0a3.775,3.775,0,0,0-3.777,2.888,3.479,3.479,0,0,0-.079.615c-.009.177-.065.243-.254.239-.612-.012-1.225,0-1.838,0-.38,0-.389,0-.354-.37a6.175,6.175,0,0,1,2.579-4.608,6.187,6.187,0,0,1,3.754-1.205c1.546.009,3.093-.013,4.638.012a6.229,6.229,0,0,1,4.933,2.4l.1.117" transform="translate(0 -239.575)" fill="#7a4f00"/>
          <path id="Path_883132" data-name="Path 883132" d="M234.149,27.143v.345q0,4.639,0,9.278a1.432,1.432,0,0,1-.472,1.218,1.114,1.114,0,0,1-1.429.01,3.126,3.126,0,0,1-.443-.473q-3.7-4.754-7.389-9.512c-.341-.439-.685-.876-1.026-1.315a1.226,1.226,0,0,1-.158-1.329c.46-1.051.923-2.1,1.382-3.153.744-1.708,1.483-3.418,2.229-5.125q1.821-4.163,3.647-8.325c.23-.525.448-1.056.675-1.583.071-.165.043-.261-.125-.364A3.573,3.573,0,0,1,230.026,1.5,3.453,3.453,0,0,1,233.609.078a3.668,3.668,0,0,1,3.008,3.469,3.451,3.451,0,0,1-1.924,3.335.285.285,0,0,0-.169.4q1.131,3.532,2.245,7.071c.555,1.767,1.09,3.541,1.643,5.309.576,1.84,1.165,3.675,1.744,5.514a3.383,3.383,0,0,1,.143.632,1.142,1.142,0,0,1-1.077,1.3c-1.366.036-2.733.023-4.1.03-.31,0-.62,0-.975,0M232.779,9.725H232.7l-7.017,16.029,5.973,7.664v-.34q0-3.379,0-6.758a1.419,1.419,0,0,1,1.623-1.629c1.253,0,2.507,0,3.76,0,.132,0,.264-.025.407-.039L232.779,9.725m1.368-6.031A1.184,1.184,0,0,0,233,2.446a1.329,1.329,0,0,0-1.343,1.226,1.263,1.263,0,0,0,1.271,1.238,1.122,1.122,0,0,0,1.216-1.215" transform="translate(-172.479 0)" fill="#7a4f00"/>
          <path id="Path_883133" data-name="Path 883133" d="M44.349,27.171c-.914,0-1.8,0-2.681,0-.791,0-1.584.007-2.374-.035a1.18,1.18,0,0,1-1.085-1.43,4.827,4.827,0,0,1,.149-.573c.566-1.794,1.14-3.585,1.7-5.38.892-2.854,1.772-5.712,2.665-8.566q.59-1.884,1.218-3.755c.095-.283.047-.414-.227-.571a3.585,3.585,0,0,1-1.8-2.665,3.682,3.682,0,1,1,7.331-.316,3.509,3.509,0,0,1-1.756,2.937c-.2.125-.231.236-.146.43.388.888.772,1.777,1.159,2.665q2.146,4.915,4.294,9.829c.739,1.689,1.447,3.394,2.244,5.055a2.035,2.035,0,0,1-.3,2.439c-2.386,2.979-4.7,6.014-7.047,9.025-.434.557-.87,1.114-1.329,1.651a1.037,1.037,0,0,1-1.188.294,1.111,1.111,0,0,1-.77-.9,3.636,3.636,0,0,1-.058-.617q-.005-4.6,0-9.193ZM45.8,9.727l-.073-.01c-.131.418-.26.836-.392,1.253q-1.087,3.442-2.174,6.884c-.662,2.109-1.314,4.22-1.976,6.329-.164.523-.173.525.379.525q1.908,0,3.817-.007a1.234,1.234,0,0,1,1.131.51,1.738,1.738,0,0,1,.327,1q-.009,3.45,0,6.9v.352c.129-.184.2-.3.291-.413,1.789-2.3,3.571-4.6,5.379-6.881a.747.747,0,0,0,.1-.922c-.812-1.78-1.585-3.578-2.369-5.37q-1.94-4.434-3.877-8.87L45.8,9.727M44.35,3.711A1.091,1.091,0,0,0,45.514,4.93a1.289,1.289,0,0,0,1.322-1.192,1.325,1.325,0,0,0-1.259-1.274A1.179,1.179,0,0,0,44.35,3.711" transform="translate(-29.521 -0.02)" fill="#7a4f00"/>
          <path id="Path_883134" data-name="Path 883134" d="M153.769,98.554a6.211,6.211,0,0,1-6.188,6.13,6.1,6.1,0,0,1-6.153-6.139,6.219,6.219,0,0,1,6.176-6.222,6.344,6.344,0,0,1,6.164,6.231m-6.2-3.742a3.721,3.721,0,1,0,3.733,3.734,3.676,3.676,0,0,0-3.733-3.734" transform="translate(-109.335 -71.373)" fill="#7a4f00"/>
          <path id="Path_883135" data-name="Path 883135" d="M222,266.049a4.92,4.92,0,0,1-4.9,4.932,4.926,4.926,0,1,1-.01-9.851,4.922,4.922,0,0,1,4.908,4.92m-4.966,2.495a2.491,2.491,0,1,0-2.456-2.612,2.47,2.47,0,0,0,2.456,2.612" transform="translate(-163.992 -201.875)" fill="#7a4f00"/>
          <path id="Path_883136" data-name="Path 883136" d="M81.475,266.075a4.937,4.937,0,0,1,5.013-4.938,4.925,4.925,0,0,1-.03,9.849,4.93,4.93,0,0,1-4.984-4.911m4.953,2.476A2.442,2.442,0,0,0,88.9,266.07a2.386,2.386,0,0,0-2.416-2.5,2.416,2.416,0,0,0-2.541,2.473,2.456,2.456,0,0,0,2.49,2.5" transform="translate(-62.987 -201.88)" fill="#7a4f00"/>
          <path id="Path_883137" data-name="Path 883137" d="M26.268,266.089a4.9,4.9,0,1,1-4.8-4.969,4.858,4.858,0,0,1,4.8,4.969m-2.429-.048a2.468,2.468,0,0,0-4.935-.048,2.468,2.468,0,1,0,4.935.048" transform="translate(-12.731 -201.867)" fill="#7a4f00"/>
          <path id="Path_883138" data-name="Path 883138" d="M277.454,266.027a4.9,4.9,0,1,1,4.857,4.945,4.868,4.868,0,0,1-4.857-4.945m2.423.009a2.473,2.473,0,1,0,2.5-2.485,2.49,2.49,0,0,0-2.5,2.485" transform="translate(-214.495 -201.866)" fill="#7a4f00"/>
          <path id="Path_883139" data-name="Path 883139" d="M156.746,266.049a4.812,4.812,0,0,1-4.871,4.926,4.924,4.924,0,1,1,.051-9.848,4.817,4.817,0,0,1,4.82,4.921m-2.4.025a2.476,2.476,0,0,0-2.47-2.515,2.494,2.494,0,1,0,.017,4.988,2.475,2.475,0,0,0,2.454-2.473" transform="translate(-113.621 -201.873)" fill="#7a4f00"/>
        </g>
      </g>
    </g>
  </g>
</svg>
