<svg xmlns="http://www.w3.org/2000/svg" xmlns:xlink="http://www.w3.org/1999/xlink" width="70" height="70" viewBox="0 0 70 70">
  <defs>
    <clipPath id="clip-path">
      <rect id="Rectangle_401151" data-name="Rectangle 401151" width="46" height="48" transform="translate(275.75 971.833)" fill="#fff" stroke="#707070" stroke-width="1"/>
    </clipPath>
    <clipPath id="clip-path-2">
      <rect id="Rectangle_402232" data-name="Rectangle 402232" width="39.105" height="45" fill="#7a4f00"/>
    </clipPath>
  </defs>
  <g id="Group_1101302" data-name="Group 1101302" transform="translate(-300 -1756)">
    <g id="Group_1100320" data-name="Group 1100320" transform="translate(0 -4745)">
      <g id="Group_1099486" data-name="Group 1099486" transform="translate(31 5543)">
        <circle id="Ellipse_5614" data-name="Ellipse 5614" cx="35" cy="35" r="35" transform="translate(269 958)" fill="#fff"/>
      </g>
      <g id="Mask_Group_1098694" data-name="Mask Group 1098694" transform="translate(36.25 5540.167)" clip-path="url(#clip-path)">
        <g id="Group_1100328" data-name="Group 1100328" transform="translate(279.75 973.833)">
          <g id="Group_1100327" data-name="Group 1100327" clip-path="url(#clip-path-2)">
            <path id="Path_879751" data-name="Path 879751" d="M22.079,0c.939.069,2.059.106,3.166.248.885.113,1.756.344,2.629.539a11.679,11.679,0,0,1,2.78,1A5.054,5.054,0,0,1,32.383,3.1a2.25,2.25,0,0,1,.345,2.443c-.152.349-.315.694-.488,1.033a4.152,4.152,0,0,0-.5,2.223,4.006,4.006,0,0,0,2.27,3.48c.722.372,1.479.688,2.16,1.125a8.808,8.808,0,0,1,3.675,4.884c.165.514.288,1.041.428,1.563.039.145.023.255-.167.266a5.467,5.467,0,0,0-2.074.648,8.617,8.617,0,0,1-2.256.836,6.127,6.127,0,0,1-3.541-.465,20.18,20.18,0,0,0-2.128-.866,9.647,9.647,0,0,0-2.806-.227A8.468,8.468,0,0,0,23.656,21.1a5.833,5.833,0,0,1-4.155.382,9.675,9.675,0,0,1-1.724-.7,8.713,8.713,0,0,0-4.172-.735,9.069,9.069,0,0,0-3.662,1.067,5.91,5.91,0,0,1-5.2-.037c-.7-.329-1.428-.592-2.151-.867a1.906,1.906,0,0,0-.562-.08c-.148-.009-.208-.054-.178-.209a9.432,9.432,0,0,1,5.574-7.313,5.083,5.083,0,0,0,1.889-1.2,3.966,3.966,0,0,0,.922-3.889A12.626,12.626,0,0,0,9.5,5.751a2.348,2.348,0,0,1,.15-2.493A4.722,4.722,0,0,1,11.5,1.78,17.018,17.018,0,0,1,15.817.447,34.072,34.072,0,0,1,22.079,0M20.723,1.784a29.645,29.645,0,0,0-3.764.273,18.849,18.849,0,0,0-3.044.653,7.609,7.609,0,0,0-2.2.973,3.805,3.805,0,0,0-.675.638.416.416,0,0,0,.027.6,3.193,3.193,0,0,0,.691.62,13.3,13.3,0,0,0,1.858.854,17.946,17.946,0,0,0,4.1.833,32.387,32.387,0,0,0,7.236-.061c.647-.078,1.287-.214,1.929-.335a9.69,9.69,0,0,0,3.484-1.279,4.932,4.932,0,0,0,.783-.75.294.294,0,0,0,.012-.379,2.245,2.245,0,0,0-.8-.8,8.633,8.633,0,0,0-2.646-1.078,27.721,27.721,0,0,0-6.989-.768" transform="translate(-1.508)" fill="#7a4f00"/>
            <path id="Path_879752" data-name="Path 879752" d="M5.2,162.932c.521.2,1.06.36,1.561.6a8.758,8.758,0,0,0,4.713.867,7.035,7.035,0,0,0,2.761-.8A6.089,6.089,0,0,1,18.479,163a5.507,5.507,0,0,1,1.429.516,8.219,8.219,0,0,0,4.566.893,7.773,7.773,0,0,0,3.038-.887,6.014,6.014,0,0,1,4.388-.447,5.006,5.006,0,0,1,1.119.444,8.125,8.125,0,0,0,4.611.886,8.585,8.585,0,0,0,2.932-.786,7.111,7.111,0,0,1,1.792-.631.58.58,0,0,1,0,.143,21.828,21.828,0,0,1-5.5,9.332A18.827,18.827,0,0,1,29.705,177a16.717,16.717,0,0,1-4.893.983,17.889,17.889,0,0,1-4.046-.2,19.042,19.042,0,0,1-10.987-6.307,21.706,21.706,0,0,1-4.329-7.541c-.1-.309-.194-.624-.29-.936l.042-.066" transform="translate(-4.215 -133.011)" fill="#7a4f00"/>
            <path id="Path_879753" data-name="Path 879753" d="M.086,119.057a7.178,7.178,0,0,1,2.175.765,8.021,8.021,0,0,0,4.631.75,6.536,6.536,0,0,0,2.136-.521c.394-.178.782-.371,1.177-.546a6.417,6.417,0,0,1,2.616-.523,6.312,6.312,0,0,1,2.511.579,14.045,14.045,0,0,0,2.112.837,9.767,9.767,0,0,0,3.421.152A10.24,10.24,0,0,0,23.9,119.5a6.187,6.187,0,0,1,2.571-.519,6.4,6.4,0,0,1,2.578.59,13.047,13.047,0,0,0,2.092.824,9.8,9.8,0,0,0,3.444.151,9.831,9.831,0,0,0,2.765-.945c.533-.229,1.089-.4,1.663-.614a1.579,1.579,0,0,1,.054.234,23.764,23.764,0,0,1-.112,4.093c-.081.581-.177,1.161-.279,1.739a.247.247,0,0,1-.16.163,9.831,9.831,0,0,0-2.914.868,7,7,0,0,1-3.312.68,5.566,5.566,0,0,1-2.279-.565,9.33,9.33,0,0,0-2.5-.888,11.631,11.631,0,0,0-1.2-.094,7.013,7.013,0,0,0-2.741.35,13.106,13.106,0,0,0-1.378.6,6.242,6.242,0,0,1-5.47-.052,7.2,7.2,0,0,0-2.606-.85,8.1,8.1,0,0,0-4.307.567,9.755,9.755,0,0,1-2.028.8,6.187,6.187,0,0,1-4.073-.436,10,10,0,0,0-3.118-.971.215.215,0,0,1-.152-.126,22.846,22.846,0,0,1-.382-5.967.3.3,0,0,1,.029-.072" transform="translate(0 -97.177)" fill="#7a4f00"/>
          </g>
        </g>
      </g>
    </g>
  </g>
</svg>
