<svg xmlns="http://www.w3.org/2000/svg" xmlns:xlink="http://www.w3.org/1999/xlink" width="70" height="70" viewBox="0 0 70 70">
  <defs>
    <clipPath id="clip-path">
      <rect id="Rectangle_401144" data-name="Rectangle 401144" width="46" height="48" transform="translate(275.75 971.833)" fill="#fff" stroke="#707070" stroke-width="1"/>
    </clipPath>
    <clipPath id="clip-path-2">
      <rect id="Rectangle_402231" data-name="Rectangle 402231" width="33.705" height="47" fill="#7a4f00"/>
    </clipPath>
  </defs>
  <g id="Group_1101305" data-name="Group 1101305" transform="translate(-1230 -1756)">
    <g id="Group_1100318" data-name="Group 1100318" transform="translate(0 -4745)">
      <g id="Group_1099489" data-name="Group 1099489" transform="translate(961 5543)">
        <circle id="Ellipse_5614" data-name="Ellipse 5614" cx="35" cy="35" r="35" transform="translate(269 958)" fill="#fff"/>
      </g>
      <g id="Mask_Group_1098691" data-name="Mask Group 1098691" transform="translate(966.25 5540.167)" clip-path="url(#clip-path)">
        <g id="Group_1100326" data-name="Group 1100326" transform="translate(281.75 972.834)">
          <g id="Group_1100325" data-name="Group 1100325" clip-path="url(#clip-path-2)">
            <path id="Path_879750" data-name="Path 879750" d="M3.048,38.363c-.191-.313-.383-.6-.542-.895A19.245,19.245,0,0,1,.955,33.644C.8,33.084.6,32.531.49,31.962a27.588,27.588,0,0,1-.421-2.876A18.643,18.643,0,0,1,.226,24.64,20.917,20.917,0,0,1,.709,22.5a15.69,15.69,0,0,1,1.007-2.7,20.4,20.4,0,0,1,3.774-5.454,28.772,28.772,0,0,1,4.634-3.885,39.447,39.447,0,0,1,4.933-2.845,41.688,41.688,0,0,1,4.552-1.954,24.4,24.4,0,0,0,7.305-4.173c.518-.421,1.016-.866,1.523-1.3L28.65,0c.433.773.876,1.514,1.27,2.28.443.861.876,1.732,1.25,2.624a26.4,26.4,0,0,1,1.285,3.73c.257,1.015.536,2.027.73,3.054a21.579,21.579,0,0,1,.4,3.117c.029.712.1,1.423.114,2.135.012.555-.028,1.111-.052,1.666a23.723,23.723,0,0,1-.441,3.892,18.915,18.915,0,0,1-.543,1.923,22.217,22.217,0,0,1-1.2,2.939,23.872,23.872,0,0,1-4.145,6.017,20.249,20.249,0,0,1-4.854,3.752,19.28,19.28,0,0,1-2.791,1.28,24.18,24.18,0,0,1-4.009,1.046,22.872,22.872,0,0,1-3.969.3c-1.165,0-2.33-.1-3.495-.165-.15-.009-.233,0-.311.155-.323.652-.684,1.286-1,1.942a11.394,11.394,0,0,0-.708,2.08c-.173.666-.3,1.343-.447,2.016a.246.246,0,0,1-.182.21c-.715.243-1.426.5-2.138.748-.215.076-.427.159-.679.253.051-.209.1-.378.134-.55.178-.815.326-1.638.537-2.444.233-.888.486-1.774.8-2.637a19.05,19.05,0,0,1,2.2-4.463,9.676,9.676,0,0,1,2.314-2.376,37.836,37.836,0,0,0,5.359-4.674,43.974,43.974,0,0,0,3.676-4.426,47.264,47.264,0,0,0,3.486-5.591,49.545,49.545,0,0,0,2.135-4.566c.346-.85.658-1.715.961-2.582.2-.585.366-1.185.545-1.779a.124.124,0,0,0-.015-.1c-.063.154-.137.3-.188.463a30.726,30.726,0,0,1-1.961,4.565,44.662,44.662,0,0,1-3.487,5.689,50.336,50.336,0,0,1-5.321,6.27,58.6,58.6,0,0,1-6.524,5.647,15.375,15.375,0,0,0-3.522,3.727c-.231.338-.453.682-.68,1.022-.033.05-.075.095-.138.173" transform="translate(0)" fill="#7a4f00"/>
          </g>
        </g>
      </g>
    </g>
  </g>
</svg>
