<svg xmlns="http://www.w3.org/2000/svg" xmlns:xlink="http://www.w3.org/1999/xlink" width="129" height="128" viewBox="0 0 129 128">
  <defs>
    <clipPath id="clip-path">
      <rect id="Rectangle_400938" data-name="Rectangle 400938" width="120" height="120" fill="none"/>
    </clipPath>
    <clipPath id="clip-path-2">
      <rect id="Rectangle_400938-2" data-name="Rectangle 400938" width="113" height="113" transform="translate(0.211 0.211)" fill="none"/>
    </clipPath>
    <clipPath id="clip-path-3">
      <rect id="Rectangle_401073" data-name="Rectangle 401073" width="86.443" height="38.93" fill="#7d3a1b"/>
    </clipPath>
    <clipPath id="clip-path-4">
      <rect id="Rectangle_402254" data-name="Rectangle 402254" width="60.314" height="60.333" fill="none"/>
    </clipPath>
  </defs>
  <g id="Group_1101302" data-name="Group 1101302" transform="translate(-390 -4026)">
    <g id="Grupo_108927" data-name="Grupo 108927" transform="translate(0 -441)">
      <path id="Rectángulo_36179" data-name="Rectángulo 36179" d="M0,0H129V128H0Z" transform="translate(390 4467)" fill="#feebcf"/>
    </g>
    <g id="Group_1099431" data-name="Group 1099431" transform="translate(132.789 -1250.211)">
      <g id="Group_1099379" data-name="Group 1099379" transform="translate(265 5284)">
        <rect id="Rectangle_401103" data-name="Rectangle 401103" width="113" height="113" transform="translate(0.211 0.211)" fill="none"/>
        <g id="Group_1099348" data-name="Group 1099348">
          <g id="Group_1099282" data-name="Group 1099282">
            <g id="Group_1099281" data-name="Group 1099281" clip-path="url(#clip-path-3)">
              <path id="Path_873375" data-name="Path 873375" d="M70.12,8.532c-3.88,0-5.887-1.9-7.658-3.581C60.723,3.3,59.226,1.882,56.1,1.882S51.467,3.3,49.728,4.95c-1.771,1.679-3.775,3.581-7.658,3.581s-5.886-1.9-7.658-3.581C32.674,3.3,31.177,1.882,28.046,1.882S23.418,3.3,21.682,4.95C19.911,6.629,17.9,8.532,14.024,8.532S8.135,6.629,6.364,4.95C4.628,3.3,3.131,1.882,0,1.882V0C3.88,0,5.887,1.906,7.658,3.581,9.4,5.23,10.893,6.65,14.024,6.65s4.628-1.419,6.364-3.066C22.157,1.906,24.166,0,28.046,0s5.89,1.906,7.658,3.581C37.442,5.23,38.939,6.65,42.07,6.65S46.7,5.23,48.437,3.581C50.205,1.906,52.215,0,56.1,0s5.89,1.906,7.658,3.581C65.491,5.23,66.988,6.65,70.12,6.65s4.628-1.419,6.367-3.069C78.255,1.906,80.261,0,84.144,0V1.882c-3.131,0-4.628,1.422-6.367,3.069C76.006,6.629,74,8.532,70.12,8.532" transform="translate(2.299 30.399)" fill="#7d3a1b"/>
              <path id="Path_873376" data-name="Path 873376" d="M70.12,8.532c-3.88,0-5.889-1.9-7.658-3.584C60.723,3.3,59.226,1.882,56.1,1.882S51.467,3.3,49.728,4.947c-1.768,1.682-3.775,3.584-7.658,3.584s-5.889-1.9-7.658-3.584C32.674,3.3,31.177,1.882,28.046,1.882S23.418,3.3,21.682,4.947C19.911,6.629,17.9,8.532,14.025,8.532s-5.889-1.9-7.661-3.584C4.628,3.3,3.131,1.882,0,1.882V0C3.88,0,5.889,1.9,7.658,3.581,9.4,5.23,10.893,6.65,14.025,6.65s4.628-1.419,6.364-3.069C22.157,1.9,24.166,0,28.046,0s5.889,1.9,7.661,3.581C37.442,5.23,38.939,6.65,42.071,6.65S46.7,5.23,48.437,3.581C50.206,1.9,52.215,0,56.1,0s5.89,1.9,7.658,3.581C65.491,5.23,66.988,6.65,70.12,6.65s4.628-1.419,6.367-3.069C78.257,1.9,80.264,0,84.147,0V1.882c-3.131,0-4.631,1.422-6.37,3.066C76.006,6.629,74,8.532,70.12,8.532" transform="translate(1.533 20.266)" fill="#7d3a1b"/>
              <path id="Path_873377" data-name="Path 873377" d="M70.119,8.532c-3.88,0-5.889-1.9-7.658-3.584C60.723,3.3,59.226,1.882,56.1,1.882S51.467,3.3,49.728,4.947C47.96,6.629,45.95,8.532,42.071,8.532s-5.89-1.9-7.658-3.584C32.674,3.3,31.177,1.882,28.046,1.882S23.418,3.3,21.682,4.947C19.911,6.629,17.9,8.532,14.025,8.532s-5.89-1.9-7.661-3.584C4.628,3.3,3.131,1.882,0,1.882V0C3.88,0,5.889,1.9,7.658,3.581,9.393,5.23,10.893,6.65,14.025,6.65s4.628-1.419,6.364-3.069C22.156,1.9,24.166,0,28.046,0s5.89,1.9,7.661,3.581C37.442,5.23,38.939,6.65,42.071,6.65S46.7,5.23,48.437,3.581C50.205,1.9,52.215,0,56.1,0s5.889,1.9,7.658,3.581C65.491,5.23,66.988,6.65,70.119,6.65s4.628-1.419,6.367-3.069C78.257,1.9,80.261,0,84.147,0V1.882c-3.131,0-4.631,1.422-6.37,3.066C76.006,6.629,74,8.532,70.119,8.532" transform="translate(0.766 10.133)" fill="#7d3a1b"/>
              <path id="Path_873378" data-name="Path 873378" d="M70.12,8.529c-3.88,0-5.887-1.9-7.658-3.581C60.723,3.3,59.226,1.882,56.095,1.882S51.467,3.3,49.731,4.947C47.96,6.626,45.953,8.529,42.07,8.529s-5.887-1.9-7.658-3.581C32.674,3.3,31.177,1.882,28.046,1.882S23.418,3.3,21.682,4.944C19.914,6.626,17.9,8.529,14.024,8.529s-5.89-1.9-7.661-3.581C4.628,3.3,3.131,1.882,0,1.882V0C3.88,0,5.89,1.9,7.658,3.581,9.4,5.228,10.893,6.647,14.024,6.647s4.628-1.419,6.364-3.066C22.159,1.9,24.166,0,28.046,0s5.887,1.9,7.661,3.581c1.736,1.646,3.233,3.066,6.364,3.066S46.7,5.228,48.437,3.581C50.208,1.9,52.215,0,56.095,0s5.887,1.9,7.658,3.581c1.739,1.646,3.236,3.066,6.367,3.066s4.628-1.419,6.367-3.066C78.257,1.9,80.264,0,84.147,0V1.882c-3.134,0-4.631,1.419-6.37,3.066C76.006,6.626,74,8.529,70.12,8.529" transform="translate(0 0.003)" fill="#7d3a1b"/>
            </g>
          </g>
        </g>
        <path id="Path_873425" data-name="Path 873425" d="M47.337,0A47.337,47.337,0,1,1,0,47.337,47.337,47.337,0,0,1,47.337,0Z" transform="translate(14.061 16.873)" fill="#7d3a1b"/>
        <circle id="Ellipse_11503" data-name="Ellipse 11503" cx="49.5" cy="49.5" r="49.5" transform="translate(7.211 7.211)" fill="#fff"/>
      </g>
      <g id="Group_1099380" data-name="Group 1099380" transform="translate(289.372 5307.434)">
        <rect id="Rectangle_401104" data-name="Rectangle 401104" width="64" height="65" transform="translate(-0.161 -0.223)" fill="none"/>
        <g id="Group_1100422" data-name="Group 1100422" transform="translate(1.839 1.777)">
          <g id="Group_1100421" data-name="Group 1100421" clip-path="url(#clip-path-4)">
            <path id="Path_879876" data-name="Path 879876" d="M21.92,68.636q-9.878,0-19.756,0A2.057,2.057,0,0,1,.223,67.48a1.954,1.954,0,0,1-.2-.911q-.007-17.048,0-34.1c0-.015,0-.031,0-.046.515,0,1.03-.005,1.545-.005l48.33,0a.858.858,0,0,0,.384-.049c0,.221.009.442.009.663q0,10.31,0,20.62a.868.868,0,0,1-.04.45,2.935,2.935,0,0,1-.638-.737c-.371-.471-.792-.886-1.2-1.317a15.177,15.177,0,0,0-2.748-2.144,11.7,11.7,0,0,0-1.55-.852,7.124,7.124,0,0,1-.883-.44c0-.038,0-.077,0-.115q0-5.922.006-11.845c0-.182-.064-.216-.227-.215-1.168.006-2.335.009-3.5,0-.221,0-.281.056-.28.279q.012,4.436.007,8.872,0,.609.024,1.219a2.626,2.626,0,0,0,.021.746,1.065,1.065,0,0,1-.158.016c-.441-.019-.881-.045-1.321-.06a23.23,23.23,0,0,0-2.547.091q0-2.352,0-4.7c0-.461,0-.461-.454-.461-1.145,0-2.29,0-3.436,0-.187,0-.264.048-.189.238a.853.853,0,0,1,.02.32q0,2.836,0,5.672a4.868,4.868,0,0,0-.7.337,11.1,11.1,0,0,0-1.146.574c-.356.206-.7.435-1.049.656a15.359,15.359,0,0,0-2.351,1.905,11.472,11.472,0,0,0-1.116,1.206,13.153,13.153,0,0,0-.9,1.157c-.268.434-.54.867-.795,1.311a15.964,15.964,0,0,0-1.174,2.536,14.631,14.631,0,0,0-.6,2.416,12.755,12.755,0,0,0-.2,1.518c-.046.829-.039,1.657-.006,2.484a3.718,3.718,0,0,0,.052.8c.08.31.15.623.2.938a7.019,7.019,0,0,0,.335,1.423,2.707,2.707,0,0,1,.172.71M12.054,48.523c.079-.136-.016-.266-.016-.4q.012-3.7.008-7.4a.812.812,0,0,0-.017-.2c-.015-.056-.041-.116-.127-.1-.428.072-.863.084-1.291.176a8.443,8.443,0,0,0-2.592.955,8.114,8.114,0,0,0-2.451,2.192A7.8,7.8,0,0,0,4.28,46.362a7.694,7.694,0,0,0-.249,1.812,8.438,8.438,0,0,0,.095,1.56,2.781,2.781,0,0,0,.232,1.084,1.576,1.576,0,0,1,.19.563.789.789,0,0,0,.1.357c.309.368.437.838.724,1.22A8.244,8.244,0,0,0,6.421,54.2a6.751,6.751,0,0,0,.946.831,8.767,8.767,0,0,0,1.8.961c.517.208,1.066.313,1.6.468a4.693,4.693,0,0,0,.876.07A5.956,5.956,0,0,0,13,56.489a8.3,8.3,0,0,0,3.132-1.069,7.749,7.749,0,0,0,3.736-4.885,10.16,10.16,0,0,0,.248-1.7c.026-.3.031-.31-.272-.31l-7.789,0m8.039-4.062v.015q1.924,0,3.849,0c.132,0,.192-.041.189-.184a6.519,6.519,0,0,0-.1-.888,7.941,7.941,0,0,0-2.981-5.219,7.583,7.583,0,0,0-2.748-1.4,7.328,7.328,0,0,0-1.987-.334.378.378,0,0,0-.224.032c-.053.035-.151.06-.079.149a.433.433,0,0,1,.055.309q0,3.631,0,7.263c0,.216.063.265.269.263,1.253-.009,2.505,0,3.758,0M10.055,64.577c1.921,0,3.842,0,5.762,0,.181,0,.253-.032.251-.235-.01-1.183-.008-2.366,0-3.55,0-.18-.047-.234-.232-.234q-5.785.008-11.571,0c-.146,0-.208.034-.2.189.009.36-.012.721-.021,1.081-.021.822,0,1.644-.016,2.466,0,.225.073.283.292.283,1.913-.008,3.826,0,5.739,0" transform="translate(-0.011 -26.385)" fill="#fef7eb"/>
            <path id="Path_879877" data-name="Path 879877" d="M114.937,135.278a2.7,2.7,0,0,0-.172-.71,7,7,0,0,1-.335-1.424c-.052-.315-.121-.629-.2-.938a3.721,3.721,0,0,1-.052-.8c-.033-.827-.041-1.655.006-2.484a12.764,12.764,0,0,1,.2-1.518,14.613,14.613,0,0,1,.6-2.416,15.955,15.955,0,0,1,1.174-2.536c.254-.444.526-.878.795-1.312a13.151,13.151,0,0,1,.9-1.157,11.435,11.435,0,0,1,1.116-1.206,15.359,15.359,0,0,1,2.351-1.905c.348-.221.693-.449,1.049-.656a11.141,11.141,0,0,1,1.146-.574,4.914,4.914,0,0,1,.7-.337,1.09,1.09,0,0,0,.45-.157,2.969,2.969,0,0,1,.97-.341c.4-.056.767-.25,1.168-.316a4.833,4.833,0,0,0,.853-.154,1.742,1.742,0,0,1,.613-.093,23.222,23.222,0,0,1,2.547-.091c.441.015.881.041,1.322.06a1.065,1.065,0,0,0,.158-.016,3.136,3.136,0,0,0,.588.174,7.263,7.263,0,0,1,1.227.241,10.16,10.16,0,0,1,1.758.562.9.9,0,0,0,.377.083,7.094,7.094,0,0,0,.883.44,11.7,11.7,0,0,1,1.55.852,15.181,15.181,0,0,1,2.748,2.144c.41.431.831.846,1.2,1.317a2.935,2.935,0,0,0,.638.737,1.7,1.7,0,0,0,.278.473,15.629,15.629,0,0,1,1.264,2.214c.218.461.388.943.573,1.418a15.919,15.919,0,0,1,.614,2.18,15.594,15.594,0,0,1,.217,1.589,9.31,9.31,0,0,1,.132,1.645c-.044.846-.122,1.691-.244,2.532a5.68,5.68,0,0,0-.094.79,1.092,1.092,0,0,1-.108.295c-.182.552-.284,1.125-.494,1.674-.227.6-.457,1.187-.742,1.757-.048.095-.117.185-.053.3a2.6,2.6,0,0,0-.4.626,21.564,21.564,0,0,1-2.368,3.183,9.458,9.458,0,0,1-1.2,1.072,16.783,16.783,0,0,1-2.93,1.967c-.053.027-.118.046-.12.124a.732.732,0,0,0-.385.132,15.351,15.351,0,0,1-2.457.946,11.555,11.555,0,0,1-1.877.432c-.61.05-1.214.155-1.824.209a16.99,16.99,0,0,1-3.134-.173,12.1,12.1,0,0,1-2.35-.513,15.43,15.43,0,0,1-3.287-1.42,16.227,16.227,0,0,1-6.452-6.852c-.342-.672-.562-1.392-.884-2.07m17.342-16.924a.67.67,0,0,1-.137-.01,7.907,7.907,0,0,0-1.748-.21,8.53,8.53,0,0,0-1.78.143c-.354.055-.35.067-.35.441q0,4.087,0,8.174c0,.1.007.2.01.3l-4.076.007q0-3.618.008-7.236c0-.154-.018-.19-.173-.1a11.678,11.678,0,0,0-2.369,1.848,12.526,12.526,0,0,0-1.3,1.548A12.31,12.31,0,0,0,118.587,127a14.391,14.391,0,0,0-.386,2.142,7.719,7.719,0,0,0-.022,2.153,12.348,12.348,0,0,0,.542,2.622,8.941,8.941,0,0,0,.52,1.369c.164.284.333.565.492.851a11.2,11.2,0,0,0,1.4,2.029,14.1,14.1,0,0,0,2.629,2.261,13.239,13.239,0,0,0,1.737.9,12.326,12.326,0,0,0,1.636.574,10.1,10.1,0,0,0,2.544.381,15.169,15.169,0,0,0,1.923-.058,10.564,10.564,0,0,0,2.333-.519,10.935,10.935,0,0,0,2.842-1.356,14.33,14.33,0,0,0,1.771-1.4,11.562,11.562,0,0,0,1.805-2.214c.3-.452.553-.933.828-1.4a1.13,1.13,0,0,0,.177-.345c.181-.5.375-1,.52-1.519a9.51,9.51,0,0,0,.388-2.185,12.97,12.97,0,0,0-.3-3.946,11.727,11.727,0,0,0-1.487-3.492,14.644,14.644,0,0,0-2.613-2.952,9.458,9.458,0,0,0-.968-.736,2.31,2.31,0,0,0-.7-.374c-.009-.036-.006-.092-.028-.105a10.591,10.591,0,0,0-1.5-.719c-.32-.124-.661-.2-.982-.319a4.62,4.62,0,0,0-1.407-.281" transform="translate(-93.028 -93.026)" fill="#a7afbc"/>
            <path id="Path_879878" data-name="Path 879878" d="M50.264,5.99a.857.857,0,0,1-.384.049l-48.33,0c-.515,0-1.03,0-1.545.006,0-1.353-.014-2.705,0-4.058A1.947,1.947,0,0,1,1.893.014C2.016.009,2.139,0,2.262,0Q25.169,0,48.075,0a4.154,4.154,0,0,1,1.2.224c.119.036.249.209.367.327a2.057,2.057,0,0,1,.643,1.566c-.024,1.191-.005,2.382-.006,3.574,0,.1-.009.2-.013.3" transform="translate(0)" fill="#ffb937"/>
            <path id="Path_879879" data-name="Path 879879" d="M271.412,266.256c.016.156.171.185.258.275.471.485.955.958,1.433,1.436,1.107,1.108,2.221,2.208,3.317,3.327a3.517,3.517,0,0,1,.994,2.123,3.519,3.519,0,0,1-5.7,3.126,6.316,6.316,0,0,1-.573-.532q-2.2-2.2-4.4-4.4c-.111-.111-.215-.23-.322-.345,1.632-1.7,3.316-3.352,4.994-5.009" transform="translate(-217.123 -216.991)" fill="#ffce73"/>
            <path id="Path_879880" data-name="Path 879880" d="M250.556,245.658c-1.678,1.657-3.362,3.307-4.994,5.009-.119.063-.181.184-.275.273a.953.953,0,0,1-1.434.031c-.605-.564-1.182-1.158-1.767-1.742-.423-.422-.84-.851-1.259-1.276,0-.078.067-.1.12-.124a16.776,16.776,0,0,0,2.93-1.967,9.436,9.436,0,0,0,1.2-1.073,21.551,21.551,0,0,0,2.368-3.182,2.6,2.6,0,0,1,.4-.626,3.879,3.879,0,0,1,.55.52q1.168,1.158,2.328,2.324c.022.022.044.043.064.066a1.024,1.024,0,0,1-.027,1.578c-.065.065-.134.125-.2.188" transform="translate(-196.267 -196.394)" fill="#748090"/>
            <path id="Path_879881" data-name="Path 879881" d="M24.1,89.607a8.244,8.244,0,0,1-1.048-1.24c-.287-.383-.415-.852-.724-1.22a.789.789,0,0,1-.1-.357,1.576,1.576,0,0,0-.19-.563,2.781,2.781,0,0,1-.232-1.084,8.438,8.438,0,0,1-.095-1.56,7.694,7.694,0,0,1,.249-1.812,7.8,7.8,0,0,1,1.289-2.623A8.111,8.111,0,0,1,25.7,76.955,8.443,8.443,0,0,1,28.294,76c.429-.091.863-.1,1.291-.176.085-.014.112.046.127.1a.812.812,0,0,1,.017.2q0,3.7-.008,7.4c0,.135.1.265.016.4a.77.77,0,0,0-.072.057l-5.452,5.448a.291.291,0,0,0-.109.17" transform="translate(-17.694 -61.793)" fill="#7d3a1b"/>
            <path id="Path_879882" data-name="Path 879882" d="M34.644,125.324a.291.291,0,0,1,.109-.17l5.452-5.448a.772.772,0,0,1,.072-.057l7.789,0c.3,0,.3.011.272.31a10.16,10.16,0,0,1-.248,1.7,7.749,7.749,0,0,1-3.736,4.885,8.3,8.3,0,0,1-3.132,1.069,5.956,5.956,0,0,1-1.354.04,4.7,4.7,0,0,1-.876-.07c-.534-.155-1.083-.261-1.6-.468a8.773,8.773,0,0,1-1.8-.961,6.749,6.749,0,0,1-.946-.831" transform="translate(-28.234 -97.511)" fill="#748090"/>
            <path id="Path_879883" data-name="Path 879883" d="M90.458,62.4c-1.253,0-2.505,0-3.758,0-.206,0-.27-.047-.269-.264.008-2.421.006-4.842,0-7.263a.434.434,0,0,0-.055-.309c-.072-.089.027-.114.079-.149a.379.379,0,0,1,.224-.032,7.338,7.338,0,0,1,1.987.334,7.585,7.585,0,0,1,2.748,1.4,8.079,8.079,0,0,1,2.282,2.85,8.16,8.16,0,0,1,.7,2.369,6.483,6.483,0,0,1,.1.888c0,.144-.057.184-.189.184q-1.924,0-3.849,0V62.4" transform="translate(-70.376 -44.325)" fill="#7d3a1b"/>
            <path id="Path_879884" data-name="Path 879884" d="M27.718,188.729c-1.913,0-3.826,0-5.739,0-.219,0-.3-.057-.292-.282.013-.822-.005-1.644.016-2.466.009-.36.03-.721.021-1.081,0-.155.058-.189.2-.189q5.785.006,11.571,0c.185,0,.233.054.232.234-.007,1.183-.009,2.367,0,3.55,0,.2-.07.236-.251.235-1.921-.006-3.842,0-5.762,0" transform="translate(-17.675 -150.537)" fill="#7a4f00"/>
            <path id="Path_879885" data-name="Path 879885" d="M215.913,66.527a.9.9,0,0,1-.377-.083,10.176,10.176,0,0,0-1.758-.562,7.279,7.279,0,0,0-1.227-.241,3.14,3.14,0,0,1-.588-.174,2.628,2.628,0,0,1-.021-.746q-.022-.609-.024-1.219,0-4.436-.007-8.872c0-.223.06-.281.28-.279,1.168.011,2.335.008,3.5,0,.164,0,.228.033.228.215q-.008,5.922-.006,11.845c0,.038,0,.077,0,.115" transform="translate(-172.702 -44.294)" fill="#748090"/>
            <path id="Path_879886" data-name="Path 879886" d="M172.354,91.918a1.742,1.742,0,0,0-.613.093,4.849,4.849,0,0,1-.853.154c-.4.067-.767.26-1.168.316a2.964,2.964,0,0,0-.97.341,1.09,1.09,0,0,1-.45.157q0-2.836,0-5.672a.853.853,0,0,0-.02-.32c-.074-.191,0-.239.189-.238,1.145.006,2.29,0,3.436,0,.454,0,.455,0,.454.461q0,2.352,0,4.7" transform="translate(-137.119 -70.699)" fill="#748090"/>
            <path id="Path_879887" data-name="Path 879887" d="M153.665,144.576a2.309,2.309,0,0,1,.7.374,9.511,9.511,0,0,1,.968.736,14.644,14.644,0,0,1,2.613,2.952,11.733,11.733,0,0,1,1.487,3.492,12.97,12.97,0,0,1,.3,3.947,9.5,9.5,0,0,1-.388,2.185c-.145.519-.34,1.015-.52,1.519a1.134,1.134,0,0,1-.177.346c-.091-.088-.2-.048-.308-.048q-10.68,0-21.36,0c-.092,0-.184,0-.276,0a8.933,8.933,0,0,1-.52-1.369,12.36,12.36,0,0,1-.542-2.622,7.719,7.719,0,0,1,.022-2.153,14.391,14.391,0,0,1,.386-2.142,12.309,12.309,0,0,1,1.784-3.739,12.536,12.536,0,0,1,1.3-1.548,11.673,11.673,0,0,1,2.369-1.848c.154-.091.173-.055.173.1q-.007,3.618-.008,7.236c-.6,0-1.2,0-1.8-.008-.182,0-.236.047-.235.231.008,1.014,0,2.028,0,3.042a2.276,2.276,0,0,1-.01.505c-.048.2.012.258.206.258q7.837,0,15.674,0c.2,0,.237-.078.229-.245-.013-.291-.026-.583-.024-.875.007-.891.018-1.782.037-2.673,0-.19-.051-.25-.245-.245a14.2,14.2,0,0,1-1.795-.035q0-3.5,0-6.993a1.283,1.283,0,0,0-.048-.385" transform="translate(-110.493 -117.826)" fill="#e7e3dd"/>
            <path id="Path_879888" data-name="Path 879888" d="M171.481,184.448a14.209,14.209,0,0,0,1.795.035c.194,0,.249.055.245.245-.02.891-.03,1.782-.037,2.673,0,.291.011.583.024.875.008.167-.033.246-.229.245q-7.837-.008-15.673,0c-.194,0-.253-.054-.206-.258a2.275,2.275,0,0,0,.009-.505c0-1.014,0-2.028,0-3.042,0-.184.053-.234.235-.231.6.012,1.2.006,1.8.008l4.076-.007c1.2.018,2.393.024,3.589,0l.021,0,.021-.007a1.506,1.506,0,0,0,.41-.011,3.447,3.447,0,0,0,.73-.014c1.066.006,2.132,0,3.2,0" transform="translate(-128.264 -150.32)" fill="#748090"/>
            <path id="Path_879889" data-name="Path 879889" d="M194.492,144.7a1.505,1.505,0,0,1-.41.011l-.042,0c-1.2.027-2.392.022-3.589,0,0-.1-.01-.2-.01-.3q0-4.087,0-8.173c0-.375,0-.386.35-.442a8.541,8.541,0,0,1,1.78-.143,7.907,7.907,0,0,1,1.748.21.66.66,0,0,0,.137.01q0,4.251,0,8.5a.9.9,0,0,0,.04.317" transform="translate(-155.202 -110.552)" fill="#e7e3dd"/>
            <path id="Path_879890" data-name="Path 879890" d="M212.169,145.7a.9.9,0,0,1-.04-.317q0-4.251,0-8.5a4.622,4.622,0,0,1,1.407.281c.32.124.661.2.981.319a10.607,10.607,0,0,1,1.5.719c.022.013.019.069.028.105a1.282,1.282,0,0,1,.048.385q0,3.5,0,6.993c-1.066,0-2.132.01-3.2,0a3.457,3.457,0,0,1-.73.014" transform="translate(-172.879 -111.554)" fill="#d5cdc2"/>
            <path id="Path_879891" data-name="Path 879891" d="M209.9,184.608l.042,0-.021.007-.021,0" transform="translate(-171.065 -150.449)" fill="#d5cdc2"/>
          </g>
        </g>
      </g>
    </g>
  </g>
</svg>
