<svg xmlns="http://www.w3.org/2000/svg" xmlns:xlink="http://www.w3.org/1999/xlink" width="129" height="128" viewBox="0 0 129 128">
  <defs>
    <clipPath id="clip-path">
      <rect id="Rectangle_400938" data-name="Rectangle 400938" width="120" height="120" fill="none"/>
    </clipPath>
    <clipPath id="clip-path-2">
      <rect id="Rectangle_400938-2" data-name="Rectangle 400938" width="113" height="113" transform="translate(0.211 0.211)" fill="none"/>
    </clipPath>
    <clipPath id="clip-path-3">
      <rect id="Rectangle_401073" data-name="Rectangle 401073" width="86.443" height="38.93" fill="#7d3a1b"/>
    </clipPath>
    <clipPath id="clip-path-4">
      <rect id="Rectangle_402255" data-name="Rectangle 402255" width="53" height="62.191" fill="none"/>
    </clipPath>
  </defs>
  <g id="Group_1101303" data-name="Group 1101303" transform="translate(-390 -4201)">
    <g id="Grupo_108927" data-name="Grupo 108927" transform="translate(0 -266)">
      <path id="Rectángulo_36179" data-name="Rectángulo 36179" d="M0,0H129V128H0Z" transform="translate(390 4467)" fill="#feebcf"/>
    </g>
    <g id="Group_1100404" data-name="Group 1100404" transform="translate(132.789 -1075.211)">
      <g id="Group_1099379" data-name="Group 1099379" transform="translate(265 5284)">
        <rect id="Rectangle_401103" data-name="Rectangle 401103" width="113" height="113" transform="translate(0.211 0.211)" fill="none"/>
        <g id="Group_1099348" data-name="Group 1099348">
          <g id="Group_1099282" data-name="Group 1099282">
            <g id="Group_1099281" data-name="Group 1099281" clip-path="url(#clip-path-3)">
              <path id="Path_873375" data-name="Path 873375" d="M70.12,8.532c-3.88,0-5.887-1.9-7.658-3.581C60.723,3.3,59.226,1.882,56.1,1.882S51.467,3.3,49.728,4.95c-1.771,1.679-3.775,3.581-7.658,3.581s-5.886-1.9-7.658-3.581C32.674,3.3,31.177,1.882,28.046,1.882S23.418,3.3,21.682,4.95C19.911,6.629,17.9,8.532,14.024,8.532S8.135,6.629,6.364,4.95C4.628,3.3,3.131,1.882,0,1.882V0C3.88,0,5.887,1.906,7.658,3.581,9.4,5.23,10.893,6.65,14.024,6.65s4.628-1.419,6.364-3.066C22.157,1.906,24.166,0,28.046,0s5.89,1.906,7.658,3.581C37.442,5.23,38.939,6.65,42.07,6.65S46.7,5.23,48.437,3.581C50.205,1.906,52.215,0,56.1,0s5.89,1.906,7.658,3.581C65.491,5.23,66.988,6.65,70.12,6.65s4.628-1.419,6.367-3.069C78.255,1.906,80.261,0,84.144,0V1.882c-3.131,0-4.628,1.422-6.367,3.069C76.006,6.629,74,8.532,70.12,8.532" transform="translate(2.299 30.399)" fill="#7d3a1b"/>
              <path id="Path_873376" data-name="Path 873376" d="M70.12,8.532c-3.88,0-5.889-1.9-7.658-3.584C60.723,3.3,59.226,1.882,56.1,1.882S51.467,3.3,49.728,4.947c-1.768,1.682-3.775,3.584-7.658,3.584s-5.889-1.9-7.658-3.584C32.674,3.3,31.177,1.882,28.046,1.882S23.418,3.3,21.682,4.947C19.911,6.629,17.9,8.532,14.025,8.532s-5.889-1.9-7.661-3.584C4.628,3.3,3.131,1.882,0,1.882V0C3.88,0,5.889,1.9,7.658,3.581,9.4,5.23,10.893,6.65,14.025,6.65s4.628-1.419,6.364-3.069C22.157,1.9,24.166,0,28.046,0s5.889,1.9,7.661,3.581C37.442,5.23,38.939,6.65,42.071,6.65S46.7,5.23,48.437,3.581C50.206,1.9,52.215,0,56.1,0s5.89,1.9,7.658,3.581C65.491,5.23,66.988,6.65,70.12,6.65s4.628-1.419,6.367-3.069C78.257,1.9,80.264,0,84.147,0V1.882c-3.131,0-4.631,1.422-6.37,3.066C76.006,6.629,74,8.532,70.12,8.532" transform="translate(1.533 20.266)" fill="#7d3a1b"/>
              <path id="Path_873377" data-name="Path 873377" d="M70.119,8.532c-3.88,0-5.889-1.9-7.658-3.584C60.723,3.3,59.226,1.882,56.1,1.882S51.467,3.3,49.728,4.947C47.96,6.629,45.95,8.532,42.071,8.532s-5.89-1.9-7.658-3.584C32.674,3.3,31.177,1.882,28.046,1.882S23.418,3.3,21.682,4.947C19.911,6.629,17.9,8.532,14.025,8.532s-5.89-1.9-7.661-3.584C4.628,3.3,3.131,1.882,0,1.882V0C3.88,0,5.889,1.9,7.658,3.581,9.393,5.23,10.893,6.65,14.025,6.65s4.628-1.419,6.364-3.069C22.156,1.9,24.166,0,28.046,0s5.89,1.9,7.661,3.581C37.442,5.23,38.939,6.65,42.071,6.65S46.7,5.23,48.437,3.581C50.205,1.9,52.215,0,56.1,0s5.889,1.9,7.658,3.581C65.491,5.23,66.988,6.65,70.119,6.65s4.628-1.419,6.367-3.069C78.257,1.9,80.261,0,84.147,0V1.882c-3.131,0-4.631,1.422-6.37,3.066C76.006,6.629,74,8.532,70.119,8.532" transform="translate(0.766 10.133)" fill="#7d3a1b"/>
              <path id="Path_873378" data-name="Path 873378" d="M70.12,8.529c-3.88,0-5.887-1.9-7.658-3.581C60.723,3.3,59.226,1.882,56.095,1.882S51.467,3.3,49.731,4.947C47.96,6.626,45.953,8.529,42.07,8.529s-5.887-1.9-7.658-3.581C32.674,3.3,31.177,1.882,28.046,1.882S23.418,3.3,21.682,4.944C19.914,6.626,17.9,8.529,14.024,8.529s-5.89-1.9-7.661-3.581C4.628,3.3,3.131,1.882,0,1.882V0C3.88,0,5.89,1.9,7.658,3.581,9.4,5.228,10.893,6.647,14.024,6.647s4.628-1.419,6.364-3.066C22.159,1.9,24.166,0,28.046,0s5.887,1.9,7.661,3.581c1.736,1.646,3.233,3.066,6.364,3.066S46.7,5.228,48.437,3.581C50.208,1.9,52.215,0,56.095,0s5.887,1.9,7.658,3.581c1.739,1.646,3.236,3.066,6.367,3.066s4.628-1.419,6.367-3.066C78.257,1.9,80.264,0,84.147,0V1.882c-3.134,0-4.631,1.419-6.37,3.066C76.006,6.626,74,8.529,70.12,8.529" transform="translate(0 0.003)" fill="#7d3a1b"/>
            </g>
          </g>
        </g>
        <path id="Path_873425" data-name="Path 873425" d="M47.337,0A47.337,47.337,0,1,1,0,47.337,47.337,47.337,0,0,1,47.337,0Z" transform="translate(14.061 16.873)" fill="#7d3a1b"/>
        <circle id="Ellipse_11503" data-name="Ellipse 11503" cx="49.5" cy="49.5" r="49.5" transform="translate(7.211 7.211)" fill="#fff"/>
      </g>
      <g id="Group_1099380" data-name="Group 1099380" transform="translate(289.372 5307.434)">
        <rect id="Rectangle_401104" data-name="Rectangle 401104" width="64" height="65" transform="translate(-0.161 -0.223)" fill="none"/>
        <g id="Group_1100424" data-name="Group 1100424" transform="translate(5.839 0.777)">
          <g id="Group_1100423" data-name="Group 1100423" clip-path="url(#clip-path-4)">
            <path id="Path_879892" data-name="Path 879892" d="M47.024,69.728l.026.078-.011.016.011.016q0,.385.008.77l-.011.014.012.013c0,1.738.006,3.476,0,5.214a3.138,3.138,0,0,1-1.533,2.875A2.974,2.974,0,0,1,44,79.153q-20.506.007-41.011-.006A2.959,2.959,0,0,1,.442,77.595a3.268,3.268,0,0,1-.419-1.767C0,74.387-.015,72.946.015,71.505.1,67.364.046,63.222.05,59.08q.017-17.647,0-35.3a2.892,2.892,0,0,1,.622-1.858A3.115,3.115,0,0,1,3.164,20.7c3.334-.029,6.668-.012,10-.007.141,0,.283-.075.424,0l.016.178v.081l0,.1,0,.123c0,.018,0,.036,0,.054,0,.041,0,.082,0,.124v.056c0,.041,0,.082,0,.123v.056c0,.041,0,.082,0,.122v.713c0,.019,0,.037,0,.056,0,.041,0,.082,0,.122,0,.019,0,.037,0,.056q0,.061,0,.123v.179c0,.018,0,.036,0,.053v.125c0,.018,0,.036,0,.054l.006.169a.285.285,0,0,0-.007.183c0,.044,0,.088,0,.133,0,.015,0,.031,0,.046v.091c0,.028,0,.057,0,.085,0,.045,0,.09,0,.134v.044l0,.135-.009.131-.011.093h-5.3c-1.269,0-2.539,0-3.808,0a.665.665,0,0,0-.553.266,1.234,1.234,0,0,0-.169.87q0,18.031,0,36.061,0,5,0,10c-.005.23-.014.46-.015.689,0,.772,0,1.544,0,2.317a.711.711,0,0,0,.774.79c.126-.008.252,0,.379,0l32.625,0q2.516,0,5.033-.008a.708.708,0,0,0,.714-.728c0-.869,0-1.737.01-2.606,0-.106-.021-.209-.02-.315a2.837,2.837,0,0,0-.006-.776,10.335,10.335,0,0,0,2.02-.522,5.807,5.807,0,0,0,1.338-.577,2.005,2.005,0,0,1,.409-.164" transform="translate(0 -16.967)" fill="#7d3a1b"/>
            <path id="Path_879893" data-name="Path 879893" d="M184.77,195.632a2,2,0,0,0-.409.164,5.806,5.806,0,0,1-1.338.577,10.331,10.331,0,0,1-2.02.522c-.39-.013-.771.086-1.159.1a13.124,13.124,0,0,1-1.812-.042,8.622,8.622,0,0,1-.907-.116,4.463,4.463,0,0,0-.873-.2c-.021-.057-.071-.068-.122-.081a11.328,11.328,0,0,1-2.3-.909,2.031,2.031,0,0,0-.608-.3,2.78,2.78,0,0,0-.613-.455c-.53-.381-1.008-.822-1.5-1.244a.117.117,0,0,0-.073-.084c-.084-.1-.163-.209-.251-.308a12.165,12.165,0,0,1-1.84-2.678,20.093,20.093,0,0,1-.816-2.06l-.02-.043v-.007a16.341,16.341,0,0,0-.355-1.772c0-.089,0-.177-.008-.266a12.086,12.086,0,0,1,.7-4.9c.012-.05.021-.1.036-.149.173-.564.516-1.051.731-1.6a.089.089,0,0,0,.046-.082,13.193,13.193,0,0,1,.982-1.43,11.4,11.4,0,0,1,.859-1,16.522,16.522,0,0,1,1.344-1.091,11.931,11.931,0,0,1,1.452-.921c.021,0,.048.013.053-.023a1.583,1.583,0,0,0,.342-.147,9.762,9.762,0,0,1,1.549-.635,14.269,14.269,0,0,1,1.477-.333c.094.063.16-.032.24-.047a7.921,7.921,0,0,1,1.5-.115c.656,0,1.311.052,1.966.081l.034.008a2.478,2.478,0,0,0,.689.209,6.277,6.277,0,0,1,.73.122,11.335,11.335,0,0,1,1.566.6c.231.128.475.23.714.343.426.282.863.551,1.277.85a12.28,12.28,0,0,1,2.213,2.118,10.725,10.725,0,0,1,1.562,2.583,10.043,10.043,0,0,1,.767,2.531,12.487,12.487,0,0,1-.072,4.487,11.234,11.234,0,0,1-1.979,4.386,11.832,11.832,0,0,1-3.028,2.856c-.142.094-.295.171-.441.259-.106.064-.229.11-.288.232m.4-15.575a1.506,1.506,0,0,0-.127-.179,7.661,7.661,0,0,0-3.617-2.163,8,8,0,0,0-3.892-.108,7.973,7.973,0,0,0-6.08,6.035,7.808,7.808,0,0,0-.174,2.629,8.01,8.01,0,0,0,.988,3.112,6.87,6.87,0,0,0,1.027,1.421l0,.013.013,0a7.658,7.658,0,0,0,2.305,1.784,4.283,4.283,0,0,0,1.387.518,2.618,2.618,0,0,0,1.1.292,11.957,11.957,0,0,0,2.151.023,7.953,7.953,0,0,0,2.624-.763,6.118,6.118,0,0,0,1.223-.8,8.02,8.02,0,0,0,1.955-2.086,7.8,7.8,0,0,0,1.087-2.84,8.467,8.467,0,0,0,.162-1.665,8.028,8.028,0,0,0-1.128-3.921,5.152,5.152,0,0,0-1-1.3" transform="translate(-137.746 -142.87)" fill="#fe646f"/>
            <path id="Path_879894" data-name="Path 879894" d="M200.426,49.535c-.239-.114-.483-.216-.714-.343a11.346,11.346,0,0,0-1.566-.6,6.285,6.285,0,0,0-.731-.122,2.474,2.474,0,0,1-.689-.209q-.005-.114-.01-.229l0-.137,0-.045q0-.067,0-.134c0-.014,0-.028,0-.043,0-.208-.008-.415-.008-.623q0-10.3,0-20.61c0-.416,0-.832-.012-1.248a.635.635,0,0,0-.6-.646c-1.091-.015-2.182-.026-3.273,0-.081,0-.163-.006-.244-.006H186.8c0-.089,0-.179,0-.268.021-.008.033-.019.019-.043l0-.089a.785.785,0,0,0,.015-.109q0-1.455,0-2.91a.935.935,0,0,0-.024-.151c0-.026,0-.053,0-.079l.037-.086c.081,0,.163-.005.245-.005q5.132,0,10.265,0a1.849,1.849,0,0,1,.692.065,5.057,5.057,0,0,1,.782.342,3.638,3.638,0,0,1,1.1,1.041,3.5,3.5,0,0,1,.541,1.89q.007,7.216,0,14.433,0,5.279,0,10.557c0,.142-.053.275-.045.415" transform="translate(-153.414 -17.074)" fill="#7d3a1b"/>
            <path id="Path_879895" data-name="Path 879895" d="M95.853,3.814c0,.026,0,.053,0,.079A.789.789,0,0,0,95.842,4q0,1.456,0,2.911a.927.927,0,0,0,.024.15l0,.089-.019.043v.268q0,.211-.006.423A1.559,1.559,0,0,1,94.655,9.3a7.6,7.6,0,0,1-1.307.08H77.658a1.588,1.588,0,0,1-1.267-.7,2.381,2.381,0,0,1-.345-1.212l.011-.093a.092.092,0,0,0,.009-.131l0-.135c.005,0,.015-.009.014-.012a.225.225,0,0,0-.015-.032l0-.134c.034-.029.031-.057,0-.085V6.753s.015-.01.014-.013a.183.183,0,0,0-.013-.033c0-.044,0-.088,0-.133a.153.153,0,0,0,.007-.183l-.006-.169c.028-.019.026-.036,0-.054V6.043c.028-.018.028-.036,0-.053,0-.041,0-.083,0-.124.028-.018.028-.037,0-.055V5.688c.028-.018.029-.037,0-.056,0-.041,0-.082,0-.122.029-.019.029-.037,0-.056V5.332c.029-.018.029-.037,0-.056V5.153c.029-.019.029-.037,0-.056V4.975c.029-.019.029-.037,0-.056V4.8c.029-.019.029-.037,0-.056V4.619c.029-.019.028-.037,0-.056,0-.041,0-.082,0-.123.029-.018.029-.037,0-.056,0-.041,0-.082,0-.124.029-.018.028-.036,0-.054,0-.041,0-.082,0-.123a.06.06,0,0,0,0-.1V3.9c.046-.052.024-.119.039-.178,1.989,0,3.978,0,5.967,0,.206,0,.32-.037.327-.27a3.632,3.632,0,0,1,.221-1.14A3.492,3.492,0,0,1,84.042.557,3.47,3.47,0,0,1,85.952,0,3.549,3.549,0,0,1,88.031.66a3.4,3.4,0,0,1,1.2,1.465,3.413,3.413,0,0,1,.305,1.4c0,.175.136.2.278.2l2.271,0,3.741,0,.024.088" transform="translate(-62.455 -0.001)" fill="#ffb937"/>
            <path id="Path_879896" data-name="Path 879896" d="M76.1,20.84c-.015.059.008.126-.039.178l-.016-.178H76.1" transform="translate(-62.45 -17.114)" fill="#b5c4cf"/>
            <path id="Path_879897" data-name="Path 879897" d="M186.754,20.929l-.024-.088.061,0-.037.086" transform="translate(-153.355 -17.116)" fill="#b5c4cf"/>
            <path id="Path_879898" data-name="Path 879898" d="M263.2,295.668l-.011-.016.011-.016a.022.022,0,0,1,0,.032" transform="translate(-216.144 -242.796)" fill="#b5c4cf"/>
            <path id="Path_879899" data-name="Path 879899" d="M263.24,300.15l-.012-.013.011-.014a.023.023,0,0,1,0,.027" transform="translate(-216.181 -246.481)" fill="#b5c4cf"/>
            <path id="Path_879900" data-name="Path 879900" d="M30.861,41.751a2.383,2.383,0,0,0,.345,1.212,1.587,1.587,0,0,0,1.266.7h15.69a7.578,7.578,0,0,0,1.307-.08,1.558,1.558,0,0,0,1.181-1.416q0-.211.006-.423h5.763c.081,0,.163,0,.244.006a6.43,6.43,0,0,1,.091,1.124q0,10.78,0,21.56a3.334,3.334,0,0,0,.088,1.1,14.257,14.257,0,0,0-1.477.333,9.775,9.775,0,0,0-1.549.635,1.583,1.583,0,0,1-.342.147l-.053.023a11.964,11.964,0,0,0-1.452.921,16.586,16.586,0,0,0-1.344,1.091,11.476,11.476,0,0,0-.858,1,13.167,13.167,0,0,0-.982,1.43c-.048,0-.1-.012-.135.031-.311.011-.622-.022-.932-.023q-5.5-.014-11,0a.86.86,0,0,0-.688.279.9.9,0,0,0-.167.973.854.854,0,0,0,.771.578c.305.031.605-.007.907-.006q4.976,0,9.951,0a1.526,1.526,0,0,0,.478,0,12.086,12.086,0,0,0-.7,4.9c0,.089.006.177.008.266a.879.879,0,0,0-.307-.037H36.77a.96.96,0,0,0-.872.467A.908.908,0,0,0,36.72,79.9q4.809,0,9.619,0c.43,0,.861-.008,1.291-.013v.007l.02.043A20.133,20.133,0,0,0,48.467,82a12.178,12.178,0,0,0,1.84,2.678c.089.1.168.2.252.308,0,.023,0,.046,0,.068-.229-.008-.457-.022-.685-.022q-6.158,0-12.316,0a8.674,8.674,0,0,0-.954.041.918.918,0,0,0-.829.872.937.937,0,0,0,.752.867,3.247,3.247,0,0,0,.575.044H47.367q2.539,0,5.078,0c.107,0,.228.032.3-.085a2.032,2.032,0,0,1,.608.3,11.337,11.337,0,0,0,2.3.909c.051.013.1.024.122.081-.069.193-.257.243-.4.354a3.184,3.184,0,0,1-2.052.581q-12.363.01-24.727,0H21.315a.444.444,0,0,1-.281-.042q0-5,0-10,0-18.031,0-36.061a1.234,1.234,0,0,1,.169-.87.665.665,0,0,1,.552-.266c1.269,0,2.539,0,3.808,0h5.3M33.272,77.4a.42.42,0,0,0,.113-.351.936.936,0,0,0-1.043-.941,1.066,1.066,0,0,0-.573.341c-.819.839-1.655,1.662-2.484,2.492-.228.228-.22.225-.455-.008-.484-.481-.941-.991-1.47-1.424a.88.88,0,0,0-1.31,1.1,2.668,2.668,0,0,0,.556.629c.629.618,1.243,1.251,1.879,1.862a.823.823,0,0,0,1.1.062,4.459,4.459,0,0,0,.777-.677c.532-.539,1.06-1.083,1.594-1.621l.028-.057c.14-.129.287-.25.417-.389a5.186,5.186,0,0,0,.813-.931.077.077,0,0,0,.061-.087m-4.129-5.3c-.053-.007-.106-.018-.145.034-.065-.06-.134-.116-.193-.181a18.811,18.811,0,0,0-1.437-1.391.907.907,0,0,0-1.109,0,.851.851,0,0,0-.287.941,1.461,1.461,0,0,0,.373.546q.6.61,1.205,1.21c.316.311.633.621.962.917a.761.761,0,0,0,.515.226,1.1,1.1,0,0,0,.717-.316c.322-.3.636-.6.948-.906.269-.263.533-.532.8-.8.558-.569,1.152-1.1,1.666-1.715a.048.048,0,0,0,.024-.032c.006-.013.012-.027.019-.04a.942.942,0,0,0-.132-1.251,1.065,1.065,0,0,0-1.219.055,1.749,1.749,0,0,1-.219.249c-.493.5-.984,1-1.483,1.488a12.8,12.8,0,0,1-1,.97m.15-22.467a.672.672,0,0,0-.579.212c-.355.358-.7.726-1.07,1.066a.875.875,0,0,0-.1,1.127,6.7,6.7,0,0,1,.452.973.551.551,0,0,1,0,.413c-.184.451-.372.9-.566,1.348a.434.434,0,0,1-.264.253c-.384.132-.755.3-1.149.407a.819.819,0,0,0-.581.794c.013.512,0,1.025,0,1.537a.808.808,0,0,0,.562.8c.31.118.622.232.931.354a.783.783,0,0,1,.433.3,9.479,9.479,0,0,1,.635,1.39.543.543,0,0,1-.031.476c-.171.269-.246.581-.425.848a.92.92,0,0,0,.061,1.131,9.317,9.317,0,0,0,1.093,1.109.816.816,0,0,0,.986.149c.2-.108.416-.193.614-.31a1.236,1.236,0,0,1,1.149-.119c.369.152.716.354,1.093.489.151.054.209.2.275.335a7.736,7.736,0,0,1,.353,1,.925.925,0,0,0,.79.685,8.565,8.565,0,0,0,1.466.026.971.971,0,0,0,.965-.7c.083-.233.137-.473.223-.7a1.063,1.063,0,0,1,.5-.67c.3-.141.611-.255.909-.4a1.124,1.124,0,0,1,1.124.013c.231.136.478.238.713.362a.878.878,0,0,0,1.079-.189c.336-.3.652-.629.962-.959a.839.839,0,0,0,.184-1.124c-.165-.265-.29-.548-.431-.824a.985.985,0,0,1,.015-.823c.077-.215.183-.42.258-.638a1.187,1.187,0,0,1,.945-.938,2.907,2.907,0,0,0,.809-.3.738.738,0,0,0,.471-.673c.007-.535.015-1.07,0-1.6a.76.76,0,0,0-.485-.753c-.225-.087-.459-.153-.68-.248s-.519-.105-.685-.323a3.67,3.67,0,0,1-.384-.651c-.077-.162-.055-.365-.162-.5a.882.882,0,0,1-.055-1.03c.13-.271.289-.526.411-.8a.847.847,0,0,0-.09-.952,11.8,11.8,0,0,0-1.12-1.144.859.859,0,0,0-.989-.175,3.859,3.859,0,0,0-.573.293,1.271,1.271,0,0,1-1.2.176c-.3-.118-.593-.269-.9-.372a.967.967,0,0,1-.619-.671q-.129-.377-.241-.76a.874.874,0,0,0-.72-.665,7.19,7.19,0,0,0-1.616-.023.94.94,0,0,0-.917.888,3.9,3.9,0,0,1-.3.811.611.611,0,0,1-.322.323c-.36.157-.717.32-1.082.465a1.08,1.08,0,0,1-.9-.037c-.24-.117-.476-.24-.715-.359a.891.891,0,0,0-.5-.108m-2.45,34.665a1.122,1.122,0,0,0-.264.024.857.857,0,0,0-.356,1.469c.74.761,1.5,1.5,2.251,2.253a.8.8,0,0,0,.58.234,1,1,0,0,0,.748-.334c.72-.719,1.443-1.433,2.155-2.16A10.735,10.735,0,0,0,33.2,84.464.832.832,0,0,0,33.1,83.3a.875.875,0,0,0-1.176-.044,6.294,6.294,0,0,0-.664.654q-1.034,1.038-2.079,2.065c-.1.1-.166.1-.253,0-.436-.507-.959-.928-1.422-1.409a.813.813,0,0,0-.661-.261M51.853,60.736c1.18,0,2.36.005,3.54,0a.938.938,0,0,0,.915-1.164.959.959,0,0,0-.978-.658q-2.827,0-5.655,0c-.468,0-.935-.006-1.4,0a.876.876,0,0,0-.808.5.83.83,0,0,0,.088.938.927.927,0,0,0,.782.388h3.518m.007-7.445c-1.18,0-2.36,0-3.539,0a.945.945,0,0,0-.861.534.809.809,0,0,0,.11.912.964.964,0,0,0,.881.374c2.263.008,4.526,0,6.789.005a1.554,1.554,0,0,0,.522-.092.851.851,0,0,0,.4-1.33,1.034,1.034,0,0,0-.847-.409c-1.15.008-2.3,0-3.45,0" transform="translate(-17.269 -34.286)" fill="#fefeff"/>
            <path id="Path_879901" data-name="Path 879901" d="M20.995,301.7a.444.444,0,0,0,.281.042h7.281q12.363,0,24.727,0a3.184,3.184,0,0,0,2.052-.581c.143-.111.331-.161.4-.355a4.48,4.48,0,0,1,.873.2,8.667,8.667,0,0,0,.907.116,13.15,13.15,0,0,0,1.812.041c.388-.009.769-.108,1.159-.095a2.836,2.836,0,0,1,.006.776c0,.107.021.209.02.315-.01.869-.006,1.737-.01,2.606a.709.709,0,0,1-.714.728q-2.516.01-5.033.008l-32.625,0c-.126,0-.253-.011-.378,0a.711.711,0,0,1-.774-.79c.006-.772,0-1.544,0-2.317,0-.23.009-.46.015-.689" transform="translate(-17.229 -247.04)" fill="#f7f6f7"/>
            <path id="Path_879902" data-name="Path 879902" d="M76.105,35.751a.153.153,0,0,1-.007.183.285.285,0,0,1,.007-.183" transform="translate(-62.487 -29.361)" fill="#b5c4cf"/>
            <path id="Path_879903" data-name="Path 879903" d="M76.119,40.513a.092.092,0,0,1-.009.131c0-.044.006-.087.009-.131" transform="translate(-62.507 -33.272)" fill="#b5c4cf"/>
            <path id="Path_879904" data-name="Path 879904" d="M76.129,22.289a.06.06,0,0,1,0,.1l0-.1" transform="translate(-62.522 -18.305)" fill="#b5c4cf"/>
            <path id="Path_879905" data-name="Path 879905" d="M76.134,38.286c.032.028.035.057,0,.085,0-.029,0-.057,0-.085" transform="translate(-62.526 -31.443)" fill="#b5c4cf"/>
            <path id="Path_879906" data-name="Path 879906" d="M76.15,29.514c.028.019.029.037,0,.056,0-.019,0-.037,0-.056" transform="translate(-62.54 -24.239)" fill="#b5c4cf"/>
            <path id="Path_879907" data-name="Path 879907" d="M76.146,33.507c.028.018.028.036,0,.053,0-.018,0-.036,0-.053" transform="translate(-62.536 -27.518)" fill="#b5c4cf"/>
            <path id="Path_879908" data-name="Path 879908" d="M76.146,32.507c.028.018.028.037,0,.055v-.055" transform="translate(-62.536 -26.697)" fill="#b5c4cf"/>
            <path id="Path_879909" data-name="Path 879909" d="M76.146,31.509q.042.028,0,.056c0-.019,0-.037,0-.056" transform="translate(-62.536 -25.877)" fill="#b5c4cf"/>
            <path id="Path_879910" data-name="Path 879910" d="M76.149,30.512c.029.019.029.037,0,.056,0-.019,0-.037,0-.056" transform="translate(-62.539 -25.059)" fill="#b5c4cf"/>
            <path id="Path_879911" data-name="Path 879911" d="M76.151,28.517c.029.019.029.037,0,.056v-.056" transform="translate(-62.54 -23.42)" fill="#b5c4cf"/>
            <path id="Path_879912" data-name="Path 879912" d="M76.151,27.519c.029.019.029.037,0,.056v-.056" transform="translate(-62.54 -22.6)" fill="#b5c4cf"/>
            <path id="Path_879913" data-name="Path 879913" d="M76.151,26.522c.029.019.029.037,0,.056v-.056" transform="translate(-62.54 -21.782)" fill="#b5c4cf"/>
            <path id="Path_879914" data-name="Path 879914" d="M76.138,37.517a.184.184,0,0,1,.013.033s-.009.008-.014.013c0-.016,0-.031,0-.046" transform="translate(-62.529 -30.811)" fill="#b5c4cf"/>
            <path id="Path_879915" data-name="Path 879915" d="M76.15,25.524c.028.019.029.037,0,.056,0-.019,0-.037,0-.056" transform="translate(-62.54 -20.962)" fill="#b5c4cf"/>
            <path id="Path_879916" data-name="Path 879916" d="M76.147,39.514a.206.206,0,0,1,.015.032s-.009.008-.014.012v-.044" transform="translate(-62.537 -32.452)" fill="#b5c4cf"/>
            <path id="Path_879917" data-name="Path 879917" d="M76.152,24.528c.029.019.028.037,0,.056v-.056" transform="translate(-62.54 -20.144)" fill="#b5c4cf"/>
            <path id="Path_879918" data-name="Path 879918" d="M76.155,23.534c.029.018.029.036,0,.054,0-.018,0-.036,0-.054" transform="translate(-62.544 -19.328)" fill="#b5c4cf"/>
            <path id="Path_879919" data-name="Path 879919" d="M76.149,34.506c.027.017.029.035,0,.054,0-.018,0-.036,0-.054" transform="translate(-62.539 -28.339)" fill="#b5c4cf"/>
            <path id="Path_879920" data-name="Path 879920" d="M189.4,206.674a6.871,6.871,0,0,1-1.027-1.421,8.011,8.011,0,0,1-.988-3.112,8.172,8.172,0,0,1,1.89-6.053,7.889,7.889,0,0,1,4.364-2.611,8,8,0,0,1,3.892.108,7.662,7.662,0,0,1,3.618,2.163,1.508,1.508,0,0,1,.127.179.932.932,0,0,0-.118.754c.033.3.1.6.106.9a12.521,12.521,0,0,1-.071,1.795,14.2,14.2,0,0,1-.65,2.751,10.408,10.408,0,0,1-.846,1.776,10.141,10.141,0,0,1-1.033,1.466,12.137,12.137,0,0,1-1.551,1.553,10.238,10.238,0,0,1-1.3.924,8.512,8.512,0,0,1-1.13.636,4.115,4.115,0,0,1-1.581.511,4.279,4.279,0,0,1-1.387-.518,7.662,7.662,0,0,1-2.305-1.784.057.057,0,0,0-.016-.016m5.053-7.647c0,.735,0,1.47,0,2.206a.932.932,0,0,0,.971,1.019c1.128.019,2.257.023,3.385,0a.914.914,0,1,0-.015-1.823c-.757,0-1.515-.007-2.272,0-.181,0-.24-.04-.238-.232.008-1.114,0-2.228,0-3.342a1.394,1.394,0,0,0-.094-.522.886.886,0,0,0-1.211-.48.9.9,0,0,0-.528.9q0,1.136,0,2.272" transform="translate(-153.859 -158.74)" fill="#fefeff"/>
            <path id="Path_879921" data-name="Path 879921" d="M220.589,65.5a3.334,3.334,0,0,1-.088-1.1q0-10.78,0-21.56a6.413,6.413,0,0,0-.091-1.124c1.091-.028,2.182-.017,3.273,0a.635.635,0,0,1,.6.646c.012.416.012.832.012,1.248q0,10.3,0,20.61c0,.208.005.415.008.623,0,0-.012.009-.011.013a.188.188,0,0,0,.012.03c0,.045,0,.09,0,.134,0,0-.013.01-.012.013a.182.182,0,0,0,.015.031c0,.046,0,.091,0,.137-.054.068-.016.147-.024.221-.655-.029-1.31-.076-1.966-.081a7.924,7.924,0,0,0-1.5.115c-.08.015-.146.11-.24.046" transform="translate(-181.016 -34.246)" fill="#f7f6f7"/>
            <path id="Path_879922" data-name="Path 879922" d="M219.607,221.121a4.117,4.117,0,0,0,1.581-.511,8.506,8.506,0,0,0,1.13-.636,10.214,10.214,0,0,0,1.3-.924,12.149,12.149,0,0,0,1.551-1.553,10.132,10.132,0,0,0,1.033-1.466,10.4,10.4,0,0,0,.846-1.776,14.191,14.191,0,0,0,.649-2.751,12.489,12.489,0,0,0,.071-1.794c0-.3-.073-.6-.106-.9a.933.933,0,0,1,.118-.754,5.15,5.15,0,0,1,1,1.3,8.026,8.026,0,0,1,1.128,3.921,8.464,8.464,0,0,1-.162,1.665,7.8,7.8,0,0,1-1.087,2.84,8.021,8.021,0,0,1-1.955,2.086,6.109,6.109,0,0,1-1.223.8,7.948,7.948,0,0,1-2.624.763,11.974,11.974,0,0,1-2.151-.023,2.619,2.619,0,0,1-1.1-.292" transform="translate(-180.356 -170.87)" fill="#f7f6f7"/>
            <path id="Path_879923" data-name="Path 879923" d="M120.5,285.629c-.076.117-.2.085-.3.085q-2.539,0-5.078,0H104.846a3.26,3.26,0,0,1-.575-.044.937.937,0,0,1-.752-.867.918.918,0,0,1,.829-.872,8.634,8.634,0,0,1,.954-.041q6.158,0,12.316,0c.228,0,.457.014.685.022l.075.015c.5.422.974.863,1.5,1.244a2.783,2.783,0,0,1,.613.455" transform="translate(-85.016 -233.151)" fill="#b5c4cf"/>
            <path id="Path_879924" data-name="Path 879924" d="M115.811,207.928a1.532,1.532,0,0,1-.478,0q-4.975,0-9.951,0a9.024,9.024,0,0,1-.907.006.854.854,0,0,1-.771-.578.9.9,0,0,1,.167-.973.86.86,0,0,1,.688-.279q5.5,0,11,.005c.31,0,.621.034.932.023.012.048.052.046.089.05-.215.545-.558,1.032-.731,1.6-.015.049-.024.1-.036.149" transform="translate(-85.109 -169.265)" fill="#b5c4cf"/>
            <path id="Path_879925" data-name="Path 879925" d="M115.383,246.807c-.43,0-.861.013-1.291.013q-4.809,0-9.619,0a.908.908,0,0,1-.822-1.355.96.96,0,0,1,.872-.467h10.2a.879.879,0,0,1,.307.037,16.285,16.285,0,0,1,.355,1.772" transform="translate(-85.022 -201.207)" fill="#b5c4cf"/>
            <path id="Path_879926" data-name="Path 879926" d="M175.656,206.163c-.037,0-.077,0-.089-.05.037-.043.087-.033.135-.032a.089.089,0,0,1-.046.082" transform="translate(-144.187 -169.246)" fill="#f7f6f7"/>
            <path id="Path_879927" data-name="Path 879927" d="M242.118,173.4c.008-.074-.029-.152.024-.221q.005.114.01.229l-.034-.008" transform="translate(-198.84 -142.229)" fill="#b5c4cf"/>
            <path id="Path_879928" data-name="Path 879928" d="M186.322,283.72l-.075-.015c0-.023,0-.046,0-.069a.118.118,0,0,1,.073.084" transform="translate(-152.959 -232.941)" fill="#f7f6f7"/>
            <path id="Path_879929" data-name="Path 879929" d="M202.265,181.13l.053-.023c-.006.036-.033.023-.053.023" transform="translate(-166.114 -148.737)" fill="#f7f6f7"/>
            <path id="Path_879930" data-name="Path 879930" d="M169.89,255.21l-.021-.043.021.043" transform="translate(-139.508 -209.56)" fill="#b5c4cf"/>
            <path id="Path_879931" data-name="Path 879931" d="M198.863,268.185a.06.06,0,0,1,.016.016l-.013,0Z" transform="translate(-163.32 -220.252)" fill="#f7f6f7"/>
            <path id="Path_879932" data-name="Path 879932" d="M186.818,24.949a.948.948,0,0,1-.024-.15q0-1.456,0-2.911a.761.761,0,0,1,.016-.109.956.956,0,0,1,.023.15q0,1.455,0,2.91a.823.823,0,0,1-.015.109" transform="translate(-153.407 -17.886)" fill="#b5c4cf"/>
            <path id="Path_879933" data-name="Path 879933" d="M242.187,172.21a.178.178,0,0,1-.015-.031s.008-.009.012-.013l0,.045" transform="translate(-198.888 -141.393)" fill="#b5c4cf"/>
            <path id="Path_879934" data-name="Path 879934" d="M242.162,171.219a.186.186,0,0,1-.012-.03s.007-.008.011-.013c0,.014,0,.028,0,.043" transform="translate(-198.87 -140.581)" fill="#b5c4cf"/>
            <path id="Path_879935" data-name="Path 879935" d="M186.806,40.057l.02-.043c.014.024,0,.036-.02.043" transform="translate(-153.418 -32.862)" fill="#b5c4cf"/>
            <path id="Path_879936" data-name="Path 879936" d="M49.516,76.64a.89.89,0,0,1,.5.108c.238.12.475.242.715.359a1.08,1.08,0,0,0,.9.037c.364-.146.722-.308,1.082-.465a.611.611,0,0,0,.322-.323,3.9,3.9,0,0,0,.3-.81.94.94,0,0,1,.917-.888,7.19,7.19,0,0,1,1.616.023.874.874,0,0,1,.72.665q.112.382.241.76a.967.967,0,0,0,.619.671c.307.1.6.254.9.372a1.271,1.271,0,0,0,1.2-.176,3.877,3.877,0,0,1,.573-.293.859.859,0,0,1,.989.175A11.819,11.819,0,0,1,62.235,78a.847.847,0,0,1,.09.952c-.121.277-.281.532-.411.8a.882.882,0,0,0,.055,1.029c.107.133.085.335.162.5a3.665,3.665,0,0,0,.384.651c.166.218.453.223.685.323s.455.161.68.248a.76.76,0,0,1,.485.753c.016.534.008,1.069,0,1.6a.739.739,0,0,1-.471.673,2.907,2.907,0,0,1-.809.3,1.187,1.187,0,0,0-.945.938c-.075.217-.181.423-.258.638a.984.984,0,0,0-.015.823c.141.276.265.559.431.824a.839.839,0,0,1-.184,1.124c-.31.33-.626.656-.962.959a.878.878,0,0,1-1.079.189c-.235-.124-.483-.226-.713-.362a1.124,1.124,0,0,0-1.124-.013c-.3.143-.61.257-.909.4a1.062,1.062,0,0,0-.5.669c-.085.231-.14.471-.223.7a.971.971,0,0,1-.965.7,8.564,8.564,0,0,1-1.466-.027.925.925,0,0,1-.79-.684,7.728,7.728,0,0,0-.353-1c-.066-.135-.124-.281-.275-.335-.377-.136-.724-.337-1.093-.489a1.236,1.236,0,0,0-1.149.119c-.2.118-.413.2-.614.31a.816.816,0,0,1-.986-.149,9.317,9.317,0,0,1-1.093-1.108.92.92,0,0,1-.061-1.131c.179-.267.255-.579.425-.848a.543.543,0,0,0,.031-.476,9.485,9.485,0,0,0-.635-1.39.782.782,0,0,0-.433-.3c-.308-.123-.62-.236-.931-.355a.808.808,0,0,1-.562-.8c0-.512.008-1.025,0-1.537a.819.819,0,0,1,.581-.794c.393-.105.764-.276,1.149-.407a.435.435,0,0,0,.264-.253c.194-.447.382-.9.566-1.349a.551.551,0,0,0,0-.413,6.713,6.713,0,0,0-.452-.974.875.875,0,0,1,.1-1.127c.371-.34.716-.708,1.07-1.066a.672.672,0,0,1,.579-.212" transform="translate(-37.493 -61.286)" fill="#b5c4cf"/>
            <path id="Path_879937" data-name="Path 879937" d="M55.684,196.719c-.514.612-1.109,1.145-1.666,1.715-.264.269-.528.538-.8.8-.312.306-.626.611-.948.906a1.1,1.1,0,0,1-.717.317.761.761,0,0,1-.515-.226c-.33-.3-.647-.606-.962-.917q-.608-.6-1.205-1.21a1.459,1.459,0,0,1-.373-.546.851.851,0,0,1,.287-.941.907.907,0,0,1,1.109,0,18.782,18.782,0,0,1,1.437,1.391c.059.065.129.121.193.181.07.08.111.04.145-.034a12.8,12.8,0,0,0,1-.97c.5-.491.991-.991,1.484-1.488a1.75,1.75,0,0,0,.219-.249A1.064,1.064,0,0,1,55.6,195.4a.942.942,0,0,1,.132,1.251c-.007.013-.013.027-.019.04l-.024.032" transform="translate(-39.797 -160.337)" fill="#b5c4cf"/>
            <path id="Path_879938" data-name="Path 879938" d="M54.547,236.718c-.533.539-1.061,1.082-1.594,1.621a4.451,4.451,0,0,1-.777.677.823.823,0,0,1-1.1-.062c-.636-.611-1.25-1.244-1.879-1.862a2.677,2.677,0,0,1-.556-.629.88.88,0,0,1,1.31-1.1c.529.433.986.944,1.47,1.424.235.233.227.236.455.008.829-.83,1.665-1.653,2.484-2.492a1.066,1.066,0,0,1,.573-.341.936.936,0,0,1,1.043.941.421.421,0,0,1-.113.351c-.054.005-.09.023-.061.087a5.172,5.172,0,0,1-.813.931c-.13.138-.277.26-.417.388-.044,0-.028.033-.028.057" transform="translate(-39.863 -192.136)" fill="#b5c4cf"/>
            <path id="Path_879939" data-name="Path 879939" d="M49.411,274.109a.81.81,0,0,1,.661.261c.463.482.985.9,1.422,1.409.086.1.153.1.252,0q1.044-1.028,2.079-2.065a6.315,6.315,0,0,1,.664-.654.875.875,0,0,1,1.176.044.832.832,0,0,1,.107,1.16,10.718,10.718,0,0,1-1.249,1.327c-.712.726-1.435,1.441-2.155,2.16a1,1,0,0,1-.748.334.8.8,0,0,1-.58-.234c-.752-.749-1.51-1.492-2.25-2.253a.857.857,0,0,1,.356-1.469,1.1,1.1,0,0,1,.264-.024" transform="translate(-39.838 -224.09)" fill="#b5c4cf"/>
            <path id="Path_879940" data-name="Path 879940" d="M172.845,139.591h-3.517a.927.927,0,0,1-.782-.388.829.829,0,0,1-.088-.938.875.875,0,0,1,.808-.5c.467-.009.935,0,1.4,0q2.827,0,5.655,0a.959.959,0,0,1,.978.658.938.938,0,0,1-.915,1.164c-1.18.007-2.36,0-3.54,0" transform="translate(-138.261 -113.141)" fill="#b5c4cf"/>
            <path id="Path_879941" data-name="Path 879941" d="M172.866,106.316c1.15,0,2.3.005,3.45,0a1.035,1.035,0,0,1,.847.409.851.851,0,0,1-.4,1.33,1.554,1.554,0,0,1-.522.092c-2.263,0-4.526,0-6.789-.005a.964.964,0,0,1-.881-.374.809.809,0,0,1-.11-.912.945.945,0,0,1,.861-.534c1.18-.007,2.36,0,3.539,0" transform="translate(-138.275 -87.311)" fill="#b5c4cf"/>
            <path id="Path_879942" data-name="Path 879942" d="M65.763,211.579c-.034.074-.076.114-.145.033.039-.051.093-.04.145-.033" transform="translate(-53.89 -173.758)" fill="#f7f6f7"/>
            <path id="Path_879943" data-name="Path 879943" d="M89.144,241.333c-.029-.064.007-.081.061-.087a.077.077,0,0,1-.061.087" transform="translate(-73.203 -198.127)" fill="#f7f6f7"/>
            <path id="Path_879944" data-name="Path 879944" d="M82.144,249.173c0-.023-.015-.055.028-.057l-.028.057" transform="translate(-67.461 -204.591)" fill="#f7f6f7"/>
            <path id="Path_879945" data-name="Path 879945" d="M88.887,203.41l.024-.032a.048.048,0,0,1-.024.032" transform="translate(-73 -167.028)" fill="#f7f6f7"/>
            <path id="Path_879946" data-name="Path 879946" d="M227.131,210.422q0-1.136,0-2.272a.9.9,0,0,1,.528-.9.886.886,0,0,1,1.211.48,1.394,1.394,0,0,1,.094.522c0,1.114.007,2.228,0,3.342,0,.192.058.234.238.232.757-.009,1.515-.006,2.272,0a.914.914,0,1,1,.015,1.823c-1.128.024-2.257.021-3.385,0a.932.932,0,0,1-.971-1.019c0-.735,0-1.47,0-2.206" transform="translate(-186.535 -170.135)" fill="#b5c4cf"/>
            <path id="Path_879947" data-name="Path 879947" d="M78.917,105.821a4.766,4.766,0,1,1-4.766-4.766,4.766,4.766,0,0,1,4.766,4.766" transform="translate(-56.984 -82.993)" fill="#f7f6f7"/>
          </g>
        </g>
      </g>
    </g>
  </g>
</svg>
