<svg xmlns="http://www.w3.org/2000/svg" xmlns:xlink="http://www.w3.org/1999/xlink" width="129" height="128" viewBox="0 0 129 128">
  <defs>
    <clipPath id="clip-path">
      <rect id="Rectangle_400938" data-name="Rectangle 400938" width="120" height="120" fill="none"/>
    </clipPath>
    <clipPath id="clip-path-2">
      <rect id="Rectangle_400938-2" data-name="Rectangle 400938" width="113" height="113" transform="translate(0.211 0.211)" fill="none"/>
    </clipPath>
    <clipPath id="clip-path-3">
      <rect id="Rectangle_401073" data-name="Rectangle 401073" width="86.443" height="38.93" fill="#7d3a1b"/>
    </clipPath>
    <clipPath id="clip-path-4">
      <rect id="Rectangle_402257" data-name="Rectangle 402257" width="61.499" height="56.496" fill="none"/>
    </clipPath>
  </defs>
  <g id="Group_1101305" data-name="Group 1101305" transform="translate(-390 -4551)">
    <g id="Grupo_108927" data-name="Grupo 108927" transform="translate(0 84)">
      <path id="Rectángulo_36179" data-name="Rectángulo 36179" d="M0,0H129V128H0Z" transform="translate(390 4467)" fill="#feebcf"/>
    </g>
    <g id="Group_1100414" data-name="Group 1100414" transform="translate(132.789 -725.211)">
      <g id="Group_1099379" data-name="Group 1099379" transform="translate(265 5284)">
        <rect id="Rectangle_401103" data-name="Rectangle 401103" width="113" height="113" transform="translate(0.211 0.211)" fill="none"/>
        <g id="Group_1099348" data-name="Group 1099348">
          <g id="Group_1099282" data-name="Group 1099282">
            <g id="Group_1099281" data-name="Group 1099281" clip-path="url(#clip-path-3)">
              <path id="Path_873375" data-name="Path 873375" d="M70.12,8.532c-3.88,0-5.887-1.9-7.658-3.581C60.723,3.3,59.226,1.882,56.1,1.882S51.467,3.3,49.728,4.95c-1.771,1.679-3.775,3.581-7.658,3.581s-5.886-1.9-7.658-3.581C32.674,3.3,31.177,1.882,28.046,1.882S23.418,3.3,21.682,4.95C19.911,6.629,17.9,8.532,14.024,8.532S8.135,6.629,6.364,4.95C4.628,3.3,3.131,1.882,0,1.882V0C3.88,0,5.887,1.906,7.658,3.581,9.4,5.23,10.893,6.65,14.024,6.65s4.628-1.419,6.364-3.066C22.157,1.906,24.166,0,28.046,0s5.89,1.906,7.658,3.581C37.442,5.23,38.939,6.65,42.07,6.65S46.7,5.23,48.437,3.581C50.205,1.906,52.215,0,56.1,0s5.89,1.906,7.658,3.581C65.491,5.23,66.988,6.65,70.12,6.65s4.628-1.419,6.367-3.069C78.255,1.906,80.261,0,84.144,0V1.882c-3.131,0-4.628,1.422-6.367,3.069C76.006,6.629,74,8.532,70.12,8.532" transform="translate(2.299 30.399)" fill="#7d3a1b"/>
              <path id="Path_873376" data-name="Path 873376" d="M70.12,8.532c-3.88,0-5.889-1.9-7.658-3.584C60.723,3.3,59.226,1.882,56.1,1.882S51.467,3.3,49.728,4.947c-1.768,1.682-3.775,3.584-7.658,3.584s-5.889-1.9-7.658-3.584C32.674,3.3,31.177,1.882,28.046,1.882S23.418,3.3,21.682,4.947C19.911,6.629,17.9,8.532,14.025,8.532s-5.889-1.9-7.661-3.584C4.628,3.3,3.131,1.882,0,1.882V0C3.88,0,5.889,1.9,7.658,3.581,9.4,5.23,10.893,6.65,14.025,6.65s4.628-1.419,6.364-3.069C22.157,1.9,24.166,0,28.046,0s5.889,1.9,7.661,3.581C37.442,5.23,38.939,6.65,42.071,6.65S46.7,5.23,48.437,3.581C50.206,1.9,52.215,0,56.1,0s5.89,1.9,7.658,3.581C65.491,5.23,66.988,6.65,70.12,6.65s4.628-1.419,6.367-3.069C78.257,1.9,80.264,0,84.147,0V1.882c-3.131,0-4.631,1.422-6.37,3.066C76.006,6.629,74,8.532,70.12,8.532" transform="translate(1.533 20.266)" fill="#7d3a1b"/>
              <path id="Path_873377" data-name="Path 873377" d="M70.119,8.532c-3.88,0-5.889-1.9-7.658-3.584C60.723,3.3,59.226,1.882,56.1,1.882S51.467,3.3,49.728,4.947C47.96,6.629,45.95,8.532,42.071,8.532s-5.89-1.9-7.658-3.584C32.674,3.3,31.177,1.882,28.046,1.882S23.418,3.3,21.682,4.947C19.911,6.629,17.9,8.532,14.025,8.532s-5.89-1.9-7.661-3.584C4.628,3.3,3.131,1.882,0,1.882V0C3.88,0,5.889,1.9,7.658,3.581,9.393,5.23,10.893,6.65,14.025,6.65s4.628-1.419,6.364-3.069C22.156,1.9,24.166,0,28.046,0s5.89,1.9,7.661,3.581C37.442,5.23,38.939,6.65,42.071,6.65S46.7,5.23,48.437,3.581C50.205,1.9,52.215,0,56.1,0s5.889,1.9,7.658,3.581C65.491,5.23,66.988,6.65,70.119,6.65s4.628-1.419,6.367-3.069C78.257,1.9,80.261,0,84.147,0V1.882c-3.131,0-4.631,1.422-6.37,3.066C76.006,6.629,74,8.532,70.119,8.532" transform="translate(0.766 10.133)" fill="#7d3a1b"/>
              <path id="Path_873378" data-name="Path 873378" d="M70.12,8.529c-3.88,0-5.887-1.9-7.658-3.581C60.723,3.3,59.226,1.882,56.095,1.882S51.467,3.3,49.731,4.947C47.96,6.626,45.953,8.529,42.07,8.529s-5.887-1.9-7.658-3.581C32.674,3.3,31.177,1.882,28.046,1.882S23.418,3.3,21.682,4.944C19.914,6.626,17.9,8.529,14.024,8.529s-5.89-1.9-7.661-3.581C4.628,3.3,3.131,1.882,0,1.882V0C3.88,0,5.89,1.9,7.658,3.581,9.4,5.228,10.893,6.647,14.024,6.647s4.628-1.419,6.364-3.066C22.159,1.9,24.166,0,28.046,0s5.887,1.9,7.661,3.581c1.736,1.646,3.233,3.066,6.364,3.066S46.7,5.228,48.437,3.581C50.208,1.9,52.215,0,56.095,0s5.887,1.9,7.658,3.581c1.739,1.646,3.236,3.066,6.367,3.066s4.628-1.419,6.367-3.066C78.257,1.9,80.264,0,84.147,0V1.882c-3.134,0-4.631,1.419-6.37,3.066C76.006,6.626,74,8.529,70.12,8.529" transform="translate(0 0.003)" fill="#7d3a1b"/>
            </g>
          </g>
        </g>
        <path id="Path_873425" data-name="Path 873425" d="M47.337,0A47.337,47.337,0,1,1,0,47.337,47.337,47.337,0,0,1,47.337,0Z" transform="translate(14.061 16.873)" fill="#7d3a1b"/>
        <circle id="Ellipse_11503" data-name="Ellipse 11503" cx="49.5" cy="49.5" r="49.5" transform="translate(7.211 7.211)" fill="#fff"/>
      </g>
      <g id="Group_1099380" data-name="Group 1099380" transform="translate(289.372 5307.434)">
        <rect id="Rectangle_401104" data-name="Rectangle 401104" width="64" height="65" transform="translate(-0.16 -0.223)" fill="none"/>
        <g id="Group_1100428" data-name="Group 1100428" transform="translate(1.84 5.777)">
          <g id="Group_1100427" data-name="Group 1100427" clip-path="url(#clip-path-4)">
            <path id="Path_879975" data-name="Path 879975" d="M49.529,46.748S66.753,40.624,68.664,23.1l5.4,1.318,14.767,40S67.087,55,52.668,61.166Z" transform="translate(-39.811 -18.571)" fill="#d1e1dd"/>
            <path id="Path_879976" data-name="Path 879976" d="M20.454,5.848a2.741,2.741,0,0,1-.268,1.144,3.677,3.677,0,0,0-.275,1.131c-.082.667.408,1,.815,1.382a6.45,6.45,0,0,1,.878.843.888.888,0,0,1,0,1.166,5.052,5.052,0,0,1-.825.794,7.517,7.517,0,0,0-.632.61,1.043,1.043,0,0,0-.222.895,3.949,3.949,0,0,0,.326,1.167,2.425,2.425,0,0,1,.209,1.07.685.685,0,0,1-.306.577,2.158,2.158,0,0,1-1.124.362,3.566,3.566,0,0,0-1.283.365,1.368,1.368,0,0,0-.658,1.137,5.385,5.385,0,0,1-.343,1.415.8.8,0,0,1-.959.543,6.118,6.118,0,0,1-1.356-.392,1.991,1.991,0,0,0-1.153-.115,1.368,1.368,0,0,0-.761.583c-.3.355-.615.694-.926,1.037a.856.856,0,0,1-1.053.161,3.925,3.925,0,0,1-.963-.925c-.116-.125-.235-.249-.341-.383a1.415,1.415,0,0,0-1.719-.4c-.323.107-.631.266-.96.343a2.03,2.03,0,0,1-.8.1.868.868,0,0,1-.7-.642,3.558,3.558,0,0,1-.144-.641,7.865,7.865,0,0,0-.37-1.388.675.675,0,0,0-.443-.421,6.443,6.443,0,0,0-1.6-.426,1.677,1.677,0,0,1-.913-.423.724.724,0,0,1-.183-.79c.134-.469.252-.943.43-1.4a2.348,2.348,0,0,0,.137-.516c.1-.7-.392-1.061-.821-1.454a6.781,6.781,0,0,1-.912-.879A.761.761,0,0,1,.2,10.414a5.467,5.467,0,0,1,.925-.9c.176-.157.35-.317.511-.49a1.313,1.313,0,0,0,.192-1.481,11.614,11.614,0,0,1-.461-1.49.741.741,0,0,1,.315-.8,2.778,2.778,0,0,1,1.378-.438,4.034,4.034,0,0,0,1.06-.356c.348-.153.426-.5.531-.808a11.472,11.472,0,0,0,.3-1.28c.192-.894.56-1.116,1.452-.9a6.448,6.448,0,0,1,.879.292,3.485,3.485,0,0,0,.684.173,1.343,1.343,0,0,0,1.3-.554c.269-.306.54-.609.825-.9.7-.71,1.05-.561,1.657-.013a5.76,5.76,0,0,1,.675.77,3.427,3.427,0,0,0,.527.505,1.264,1.264,0,0,0,1.028.17c.435-.047.8-.309,1.228-.393A3.794,3.794,0,0,1,16,1.388a.716.716,0,0,1,.679.431,4.683,4.683,0,0,1,.39,1.427c.172,1.1.528,1.3,1.461,1.524.275.067.559.1.839.144a1.823,1.823,0,0,1,.619.214c.3.171.526.392.467.719M9.4,9.186a2.959,2.959,0,0,0-.063-.778,3.485,3.485,0,0,0-.189-.63A1.94,1.94,0,0,0,6.488,6.7,2.643,2.643,0,0,0,5.1,8.96a3.319,3.319,0,0,0,.227,1.557,2.014,2.014,0,0,0,1.5,1.4,1.85,1.85,0,0,0,1.889-.643A3.031,3.031,0,0,0,9.4,9.186m7.291,3.406a3.562,3.562,0,0,0-.148-1.331,2.007,2.007,0,0,0-1.616-1.4,1.869,1.869,0,0,0-1.933.879,3.253,3.253,0,0,0-.1,3.558,1.9,1.9,0,0,0,3.215.22,2.637,2.637,0,0,0,.579-1.932M14.032,6.526c-.353,0-.676.01-1,0a.368.368,0,0,0-.379.232Q11.7,8.484,10.717,10.2c-.791,1.385-1.592,2.765-2.388,4.147-.134.233-.275.462-.4.7-.144.27-.134.28.159.283.22,0,.441-.009.66.007a.429.429,0,0,0,.442-.269c.617-1.1,1.241-2.2,1.863-3.294q1.017-1.8,2.035-3.59c.308-.543.617-1.084.944-1.658" transform="translate(0 0)" fill="#efb499"/>
            <path id="Path_879977" data-name="Path 879977" d="M165.5,53.8a6.662,6.662,0,0,0-1.22.934,1.326,1.326,0,0,1-.373.3l-1.963-.012c-.149-.428-.3-.857-.448-1.284-.079-.221-.171-.437-.251-.657q-.428-1.176-.851-2.354c-.286-.79-.553-1.588-.866-2.367-.233-.581-.388-1.19-.638-1.764-.182-.417-.3-.856-.467-1.281-.437-1.129-.831-2.274-1.241-3.414-.249-.692-.481-1.391-.745-2.077s-.47-1.367-.731-2.04c-.289-.744-.539-1.5-.835-2.245-.222-.556-.4-1.131-.61-1.693-.308-.821-.606-1.646-.9-2.471-.324-.9-.637-1.807-.964-2.707-.368-1.011-.752-2.017-1.12-3.028-.348-.954-.653-1.924-1.038-2.862-.214-.523-.368-1.066-.593-1.587-.193-.447-.328-.931-.5-1.4-.334-.923-.645-1.854-1-2.769-.273-.708-.524-1.424-.8-2.132A3.4,3.4,0,0,1,147,13.265a2.7,2.7,0,0,1,.9-1.76,2.337,2.337,0,0,1,1.789-.636,2.58,2.58,0,0,1,2.408,1.837c.484,1.343,1.005,2.674,1.473,4.023.165.475.353.941.513,1.418a3.084,3.084,0,0,0,.321.768c.066.1.058.316.118.465.329.819.585,1.667.913,2.484.257.641.469,1.3.728,1.939.252.62.448,1.27.677,1.9.243.674.461,1.36.736,2.021a8.935,8.935,0,0,0,.378,1.006c.025.1,0,.212.066.305a8.566,8.566,0,0,1,.529,1.363c.251.547.393,1.148.613,1.709.2.512.371,1.035.573,1.546.47,1.192.847,2.419,1.338,3.6.092.443.287.853.416,1.281.158.522.407,1.006.563,1.53a9.946,9.946,0,0,0,.7,1.78,1.049,1.049,0,0,1,.064.29c.11.489.378.919.5,1.4.113.465.326.9.474,1.352.212.65.518,1.277.732,1.929s.441,1.3.678,1.944c.249.671.512,1.343.76,2.014.267.724.547,1.446.787,2.181a.769.769,0,0,1-.411.288,2.557,2.557,0,0,0-.828.54" transform="translate(-118.145 -8.732)" fill="#ee4a51"/>
            <path id="Path_879978" data-name="Path 879978" d="M23.915,151.646a4.652,4.652,0,0,1-1.19.547c-1.244.432-2.473.906-3.713,1.349-.821.293-1.629.623-2.453.906a8.727,8.727,0,0,1-1.044.376,3.187,3.187,0,0,1-2.785-.584,3.058,3.058,0,0,1-1-1.379c-.6-1.674-1.2-3.344-1.8-5.016-.242-.673-.471-1.35-.724-2.019-.169-.449-.356-.89-.522-1.34a2.759,2.759,0,0,1,.024-2,3.229,3.229,0,0,1,2.068-1.992c1.6-.568,3.19-1.163,4.784-1.748.855-.314,1.7-.66,2.565-.937a2.9,2.9,0,0,1,2.957.615,4.034,4.034,0,0,1,1.136,1.87c.163.492.346.978.523,1.465q.461,1.267.927,2.533c.242.653.456,1.316.711,1.963.19.483.335.981.541,1.456a3.374,3.374,0,0,1,.234,1.884,2.986,2.986,0,0,1-.127.642c-.245.269-.358.624-.6.9a5.632,5.632,0,0,0-.511.509m-9.741-.141a1.442,1.442,0,0,0,.561-.138c.22-.086.439-.172.661-.252.933-.337,1.867-.671,2.8-1.009.642-.233,1.282-.471,1.923-.707.709-.261,1.435-.475,2.12-.8a.643.643,0,0,0,.266-.207.753.753,0,0,0-.91-1.151c-1.37.487-2.738.981-4.106,1.474-.642.231-1.287.454-1.923.7-.6.233-1.223.4-1.8.684a.725.725,0,0,0-.386.861.714.714,0,0,0,.795.543m-1.955-3.811a.783.783,0,0,0,1.074.738c.347-.142.707-.243,1.055-.378.765-.3,1.534-.586,2.309-.859.6-.21,1.183-.461,1.786-.658.465-.152.9-.368,1.374-.5.449-.126.867-.327,1.3-.485a.766.766,0,0,0,.335-.987.738.738,0,0,0-.863-.427c-.744.261-1.494.507-2.226.8-.906.36-1.827.679-2.742,1.015-.937.344-1.872.7-2.822,1.005a.834.834,0,0,0-.583.737m8.227-5.855a.793.793,0,0,0-1.056-.721c-.322.114-.639.242-.96.359q-1.374.5-2.749,1-.9.328-1.807.66c-.777.288-1.568.539-2.328.872a.729.729,0,0,0-.42.841.8.8,0,0,0,.939.546c.362-.121.732-.216,1.089-.358.573-.229,1.153-.444,1.734-.653,1.644-.593,3.289-1.178,4.933-1.77a.954.954,0,0,0,.625-.773" transform="translate(-6.838 -110.635)" fill="#ee4a51"/>
            <path id="Path_879979" data-name="Path 879979" d="M205.966,108.924c-.491-1.185-.868-2.412-1.338-3.6-.2-.511-.372-1.034-.573-1.546-.22-.561-.362-1.163-.613-1.709a8.576,8.576,0,0,0-.529-1.363c-.064-.094-.041-.2-.066-.306a2.265,2.265,0,0,1,1.218-.367,4.8,4.8,0,0,1,3.311,1.059,4.338,4.338,0,0,1,1.049,1.279,4.441,4.441,0,0,1,.587,2.851,4.777,4.777,0,0,1-2.787,3.675.366.366,0,0,1-.26.031" transform="translate(-163.046 -80.392)" fill="#7d3a1b"/>
            <path id="Path_879980" data-name="Path 879980" d="M230.3,16.765a4.613,4.613,0,0,1,.265-1.144,3.79,3.79,0,0,0,.149-.663,2.562,2.562,0,0,1,.173-.671,11.527,11.527,0,0,0,.368-1.487c.036-.162.133-.311.162-.473.118-.668.343-1.31.472-1.974.156-.8.415-1.583.608-2.379.2-.832.441-1.661.644-2.494.219-.9.5-1.779.7-2.682.077-.356.2-.7.25-1.064.053-.4.793-.562,1.144-.268a.768.768,0,0,1,.271.935c-.176.545-.249,1.117-.406,1.663-.126.438-.219.882-.342,1.319-.3,1.064-.564,2.136-.818,3.212-.231.979-.5,1.949-.752,2.922-.207.8-.417,1.59-.625,2.386-.221.847-.451,1.692-.655,2.544a2.286,2.286,0,0,1-.23.732.734.734,0,0,1-.833.355.742.742,0,0,1-.543-.769" transform="translate(-185.112 -1.055)" fill="#5f7587"/>
            <path id="Path_879981" data-name="Path 879981" d="M249.789,134.686a.7.7,0,0,1,.578.239q.7.642,1.4,1.286,1.894,1.744,3.785,3.49c.929.858,1.854,1.721,2.783,2.58,1.022.944,2.052,1.88,3.069,2.83a.723.723,0,0,1-.162,1.227.616.616,0,0,1-.747-.066c-.436-.319-.8-.718-1.2-1.074-.95-.839-1.853-1.728-2.8-2.566-.859-.757-1.674-1.562-2.516-2.338q-2.286-2.108-4.581-4.206a.931.931,0,0,1-.345-.648.66.66,0,0,1,.741-.753" transform="translate(-200.179 -108.254)" fill="#5f7587"/>
            <path id="Path_879982" data-name="Path 879982" d="M256.426,69.274a.745.745,0,0,1-.377.6q-1.663.949-3.321,1.909-2.133,1.229-4.266,2.459c-.3.171-.6.334-.9.5a.5.5,0,0,1-.559-.013c-.484-.326-.737-.942-.045-1.369.739-.456,1.508-.862,2.261-1.3.662-.382,1.318-.775,1.98-1.158.646-.374,1.3-.742,1.944-1.113.6-.341,1.2-.677,1.788-1.028.147-.087.3-.151.453-.226a.72.72,0,0,1,1.043.732" transform="translate(-198.159 -55.026)" fill="#5f7587"/>
            <path id="Path_879983" data-name="Path 879983" d="M261.886,108.6c-.508.014-1.011.074-1.514.136a6.268,6.268,0,0,1-.746.046c-.439,0-.878.03-1.308.073-.467.046-.934.017-1.4.07s-.925.03-1.388.046c-.589.02-1.172.113-1.763.121-.894.013-1.046-.641-.779-1.29.046-.112.192-.146.315-.183a4.469,4.469,0,0,1,1.111-.083c.851-.04,1.7-.129,2.548-.171s1.692-.135,2.543-.152c.662-.014,1.327-.053,1.988-.1.514-.033,1.026-.087,1.542-.089a.745.745,0,0,1,.78.657.8.8,0,0,1-.587.8,8.452,8.452,0,0,1-1.343.12" transform="translate(-203.251 -86.028)" fill="#5f7587"/>
            <path id="Path_879984" data-name="Path 879984" d="M40.081,243.518v0l-.014,0Z" transform="translate(-32.206 -195.736)" fill="#7cb5e8"/>
            <path id="Path_879985" data-name="Path 879985" d="M40.115,244.523v0h0Z" transform="translate(-32.233 -196.543)" fill="#7cb5e8"/>
            <path id="Path_879986" data-name="Path 879986" d="M168.6,235.973c-.018.022-.036.022-.053,0h.053" transform="translate(-135.476 -189.67)" fill="#fec44d"/>
            <path id="Path_879987" data-name="Path 879987" d="M136.883,203.6a1.6,1.6,0,0,1-.642-.447c-.118-.1-.1-.267-.1-.394-.013-1.319-.018-2.639,0-3.957a.875.875,0,0,1,.378-.755.6.6,0,0,0,.228-.223.633.633,0,0,0-.361-.07c-1.1,0-2.2.01-3.3,0-.888-.007-1.314-.4-1.332-1.293-.024-1.189-.029-2.378.013-3.568a1.221,1.221,0,0,1,1.169-1.081c.687.019,1.379-.031,2.07-.022.017.022.035.023.053,0l.674.014c0,.839,0,1.678.015,2.517a1.333,1.333,0,0,0,.371,1.093,1.5,1.5,0,0,0,1.02.327q3.837.005,7.674,0a.719.719,0,0,1,.266.013c.18.077.251,0,.294-.16a7.361,7.361,0,0,1,1.045-2.108,6.5,6.5,0,0,1,1.106-1.387.5.5,0,0,0,.17-.316,1.328,1.328,0,0,0,.373-.3,6.669,6.669,0,0,1,1.22-.934.238.238,0,0,1,.036.185,7.011,7.011,0,0,0-.168,1.689,9.977,9.977,0,0,0,.084,1.53,10.3,10.3,0,0,0,.552,2.289,9.461,9.461,0,0,0,1.43,2.621,8.155,8.155,0,0,0,1.355,1.462.206.206,0,0,1,.092.164,1.374,1.374,0,0,0-.045,1.226,2.633,2.633,0,0,0,1.429,1.555.265.265,0,0,1,.182.3,1.029,1.029,0,0,0,.072.571.861.861,0,0,0,.717.549.769.769,0,0,0,.7-.446.959.959,0,0,0,.066-.6.333.333,0,0,1,.231-.377,2.609,2.609,0,0,0,.884-.594,8.122,8.122,0,0,0,2.043.384,8.24,8.24,0,0,0,2.04-.083,12.538,12.538,0,0,0,2.145-.528,7.506,7.506,0,0,0,2-1.034,1.476,1.476,0,0,1-.076.624,10.526,10.526,0,0,1-7.743,7.312,8.616,8.616,0,0,1-2.525.279,11.587,11.587,0,0,1-2.793-.488,15.847,15.847,0,0,1-1.8-.739c.016.793-.444,1.225-1.291,1.231l-.061,0q-2.554,0-5.108.006c-3.405,0-6.81,0-10.216.005a2.408,2.408,0,0,1-1.023-.106,1.145,1.145,0,0,1-.717-.908,1.613,1.613,0,0,1-.029-.267c0-1.173-.03-2.346.016-3.518.017-.04.024-.079-.021-.108a1.17,1.17,0,0,1,1.2-1.072c.929-.019,1.858,0,2.787,0,.034.951-.047,1.9.048,2.855a1.138,1.138,0,0,0,1.211,1.1q5.817,0,11.634,0c.074,0,.178.043.21-.066.024-.083-.059-.126-.111-.175s-.089-.07-.132-.108c-.317-.279-.658-.536-.947-.841a9.62,9.62,0,0,1-1.918-2.742c-.038-.087-.1-.174-.2-.1a.513.513,0,0,1-.351.064c-2.765-.04-5.532.087-8.3-.067m5.547-5.9h0c-.676,0-1.352.006-2.028,0-.2,0-.268.042-.265.255.012.8.006,1.6,0,2.394a1.177,1.177,0,0,0,1.244,1.351c1.145.06,2.3.016,3.444.019.117,0,.17-.043.152-.158a1.465,1.465,0,0,0-.073-.38,6,6,0,0,1-.256-1.649,7.131,7.131,0,0,1,.093-1.6c.013-.188-.06-.235-.238-.233-.692.009-1.384,0-2.077,0" transform="translate(-105.887 -153.168)" fill="#feab03"/>
            <path id="Path_879988" data-name="Path 879988" d="M220.619,183.3a2.556,2.556,0,0,1,.828-.54.769.769,0,0,0,.411-.288c.2.068.342-.067.5-.132a10.307,10.307,0,0,1,2.646-.719c.66-.082,1.315-.028,1.968-.084a4.568,4.568,0,0,1,1.525.192,12.807,12.807,0,0,1,2.07.678,10.446,10.446,0,0,1,3.792,2.856,10.108,10.108,0,0,1,2.029,3.834,9.492,9.492,0,0,1,.423,3.132,9.368,9.368,0,0,1-.226,1.736.278.278,0,0,1-.117.2,7.511,7.511,0,0,1-2,1.034,12.537,12.537,0,0,1-2.145.528,8.232,8.232,0,0,1-2.04.084,8.124,8.124,0,0,1-2.043-.384,2.967,2.967,0,0,0,.648-1.922,2.565,2.565,0,0,0-2.128-2.281,3.339,3.339,0,0,1-.624-.1,1.032,1.032,0,0,1-.7-1.1.968.968,0,0,1,1.043-.8,1.062,1.062,0,0,1,.889.967.942.942,0,0,0,.25.518.748.748,0,0,0,.771.164.5.5,0,0,0,.438-.41,2.315,2.315,0,0,0-.107-1.224,2.246,2.246,0,0,0-1.021-1.178.848.848,0,0,1-.587-.946.719.719,0,0,0-.774-.657.787.787,0,0,0-.724.73,2.859,2.859,0,0,0,0,.366.274.274,0,0,1-.218.322,2.543,2.543,0,0,0-1.507,2.734,2.582,2.582,0,0,0,2.345,2.082,1.053,1.053,0,0,1,1.069.829.95.95,0,0,1-.577,1.065.917.917,0,0,1-1.176-.45,3.016,3.016,0,0,1-.162-.535.8.8,0,0,0-1.383-.362.2.2,0,0,0-.092-.164,8.156,8.156,0,0,1-1.355-1.462,9.464,9.464,0,0,1-1.43-2.621,10.289,10.289,0,0,1-.552-2.289,9.976,9.976,0,0,1-.084-1.53,7,7,0,0,1,.168-1.689.239.239,0,0,0-.036-.185" transform="translate(-177.22 -145.904)" fill="#fec44d"/>
            <path id="Path_879989" data-name="Path 879989" d="M153.277,256.931c2.764.154,5.531.027,8.3.067a.513.513,0,0,0,.351-.064c.1-.078.164.01.2.1a9.623,9.623,0,0,0,1.918,2.742c.289.306.629.563.947.841.043.037.091.069.132.108s.135.093.111.175c-.032.108-.136.066-.21.066q-5.817,0-11.634,0a1.138,1.138,0,0,1-1.211-1.1c-.095-.951-.014-1.9-.048-2.855.293,0,.585,0,.878-.012.09,0,.2.028.267-.063" transform="translate(-122.281 -206.495)" fill="#fec44d"/>
            <path id="Path_879990" data-name="Path 879990" d="M162.1,196.779l1.963.012a.5.5,0,0,1-.17.316,6.506,6.506,0,0,0-1.106,1.387,7.361,7.361,0,0,0-1.045,2.108c-.043.164-.113.237-.294.16a.72.72,0,0,0-.266-.013q-3.837,0-7.674,0a1.5,1.5,0,0,1-1.019-.328,1.333,1.333,0,0,1-.371-1.092c-.015-.839-.011-1.678-.015-2.517.089-.006.178-.018.266-.018q4.644,0,9.288,0c.146,0,.3.117.443-.008" transform="translate(-122.26 -158.168)" fill="#fec44d"/>
            <path id="Path_879991" data-name="Path 879991" d="M131.611,262.891c.045.029.038.067.021.108-.04-.029-.11-.053-.021-.108" transform="translate(-105.752 -211.308)" fill="#fec44d"/>
            <path id="Path_879992" data-name="Path 879992" d="M218.921,287.828l.061,0-.061,0" transform="translate(-175.965 -231.349)" fill="#fec44d"/>
            <path id="Path_879993" data-name="Path 879993" d="M237.729,213.435a.8.8,0,0,1,1.383.362,3,3,0,0,0,.162.535.917.917,0,0,0,1.176.45.95.95,0,0,0,.577-1.065,1.053,1.053,0,0,0-1.069-.829,2.583,2.583,0,0,1-2.345-2.082,2.543,2.543,0,0,1,1.507-2.734.274.274,0,0,0,.218-.322,2.786,2.786,0,0,1,0-.366.787.787,0,0,1,.724-.73.719.719,0,0,1,.774.657.848.848,0,0,0,.587.946,2.246,2.246,0,0,1,1.021,1.178,2.317,2.317,0,0,1,.108,1.224.5.5,0,0,1-.438.41.748.748,0,0,1-.771-.164.941.941,0,0,1-.249-.518,1.062,1.062,0,0,0-.889-.967.968.968,0,0,0-1.043.8,1.033,1.033,0,0,0,.7,1.1,3.341,3.341,0,0,0,.624.1,2.565,2.565,0,0,1,2.128,2.281,2.967,2.967,0,0,1-.648,1.922,2.6,2.6,0,0,1-.884.594.333.333,0,0,0-.231.378.959.959,0,0,1-.066.6.769.769,0,0,1-.7.446.86.86,0,0,1-.717-.549,1.031,1.031,0,0,1-.072-.571.265.265,0,0,0-.182-.3,2.632,2.632,0,0,1-1.429-1.555,1.375,1.375,0,0,1,.045-1.226" transform="translate(-190.948 -166.103)" fill="#6a4d23"/>
            <path id="Path_879994" data-name="Path 879994" d="M176.843,226.945c.692,0,1.385.005,2.077,0,.178,0,.251.045.238.233a7.13,7.13,0,0,0-.093,1.6,6,6,0,0,0,.256,1.649,1.464,1.464,0,0,1,.073.38c.018.115-.035.159-.152.158-1.148,0-2.3.041-3.444-.019a1.177,1.177,0,0,1-1.244-1.351c0-.8.009-1.6,0-2.394,0-.212.069-.257.265-.254.676.011,1.352,0,2.028,0Z" transform="translate(-140.301 -182.412)" fill="#fec44d"/>
            <path id="Path_879995" data-name="Path 879995" d="M30.2,35.838a3.033,3.033,0,0,1-.683,2.085,1.85,1.85,0,0,1-1.889.644,2.015,2.015,0,0,1-1.5-1.4,3.319,3.319,0,0,1-.227-1.557A2.643,2.643,0,0,1,27.29,33.35a1.94,1.94,0,0,1,2.659,1.08,3.467,3.467,0,0,1,.189.63,2.96,2.96,0,0,1,.064.778m-1.415.048a2.931,2.931,0,0,0-.149-1.1.562.562,0,0,0-.8-.355.909.909,0,0,0-.441.693,3.114,3.114,0,0,0,.1,1.869.619.619,0,0,0,.591.433.627.627,0,0,0,.556-.476,3.123,3.123,0,0,0,.138-1.058" transform="translate(-20.801 -26.652)" fill="#7d3a1b"/>
            <path id="Path_879996" data-name="Path 879996" d="M67.544,52.907a2.639,2.639,0,0,1-.579,1.932,1.9,1.9,0,0,1-3.215-.22,3.253,3.253,0,0,1,.1-3.558,1.869,1.869,0,0,1,1.933-.879,2.006,2.006,0,0,1,1.616,1.4,3.56,3.56,0,0,1,.149,1.331m-1.323-.026a2.051,2.051,0,0,0-.266-1.2.552.552,0,0,0-1,0,2.414,2.414,0,0,0,.012,2.441.555.555,0,0,0,.961.022,2.264,2.264,0,0,0,.295-1.263" transform="translate(-50.853 -40.316)" fill="#7d3a1b"/>
            <path id="Path_879997" data-name="Path 879997" d="M46.141,33.242c-.327.574-.636,1.116-.944,1.658q-1.018,1.794-2.035,3.59c-.622,1.1-1.247,2.193-1.863,3.294a.429.429,0,0,1-.442.269c-.219-.016-.44-.005-.66-.007-.293,0-.3-.013-.159-.283.126-.237.267-.466.4-.7.8-1.382,1.6-2.762,2.388-4.147q.98-1.718,1.938-3.448a.368.368,0,0,1,.379-.232c.322.014.645,0,1,0" transform="translate(-32.109 -26.716)" fill="#7d3a1b"/>
            <path id="Path_879998" data-name="Path 879998" d="M34.018,190.585a.714.714,0,0,1-.795-.543.725.725,0,0,1,.386-.861c.576-.287,1.2-.451,1.8-.684.636-.248,1.281-.47,1.923-.7,1.368-.493,2.735-.988,4.106-1.475a.753.753,0,0,1,.91,1.151.642.642,0,0,1-.266.207c-.684.325-1.411.539-2.119.8-.641.236-1.281.474-1.923.707-.932.338-1.866.671-2.8,1.009-.222.08-.442.166-.661.252a1.442,1.442,0,0,1-.562.138" transform="translate(-26.681 -149.715)" fill="#12263f"/>
            <path id="Path_879999" data-name="Path 879999" d="M27.424,174.177a.834.834,0,0,1,.583-.736c.95-.308,1.885-.662,2.822-1.005.914-.336,1.835-.655,2.742-1.015.732-.291,1.482-.538,2.226-.8a.738.738,0,0,1,.863.427.766.766,0,0,1-.335.987c-.435.159-.854.359-1.3.485-.469.131-.909.348-1.374.5-.6.2-1.187.447-1.786.658-.775.272-1.543.561-2.309.859-.348.135-.708.236-1.055.378a.783.783,0,0,1-1.074-.738" transform="translate(-22.043 -137.119)" fill="#12263f"/>
            <path id="Path_880000" data-name="Path 880000" d="M31.061,155.882a.954.954,0,0,1-.625.773c-1.644.591-3.29,1.177-4.933,1.77-.581.21-1.161.424-1.734.653-.356.142-.726.237-1.089.358a.8.8,0,0,1-.939-.546.729.729,0,0,1,.42-.841c.76-.333,1.551-.584,2.328-.872q.9-.334,1.807-.66,1.374-.5,2.749-1c.321-.117.638-.244.96-.359a.793.793,0,0,1,1.056.721" transform="translate(-17.453 -124.68)" fill="#12263f"/>
            <path id="Path_880001" data-name="Path 880001" d="M34.621,40.813a3.117,3.117,0,0,1-.138,1.058.627.627,0,0,1-.556.477.619.619,0,0,1-.591-.433,3.115,3.115,0,0,1-.1-1.869.908.908,0,0,1,.441-.693.562.562,0,0,1,.8.355,2.923,2.923,0,0,1,.149,1.1" transform="translate(-26.637 -31.579)" fill="#efb499"/>
            <path id="Path_880002" data-name="Path 880002" d="M71.795,57.819a2.268,2.268,0,0,1-.295,1.263.555.555,0,0,1-.961-.022,2.413,2.413,0,0,1-.012-2.44.552.552,0,0,1,1,0,2.055,2.055,0,0,1,.266,1.2" transform="translate(-56.427 -45.254)" fill="#efb499"/>
          </g>
        </g>
      </g>
    </g>
  </g>
</svg>
