<svg xmlns="http://www.w3.org/2000/svg" xmlns:xlink="http://www.w3.org/1999/xlink" width="129" height="128" viewBox="0 0 129 128">
  <defs>
    <clipPath id="clip-path">
      <rect id="Rectangle_400938" data-name="Rectangle 400938" width="120" height="120" fill="none"/>
    </clipPath>
    <clipPath id="clip-path-2">
      <rect id="Rectangle_400938-2" data-name="Rectangle 400938" width="113" height="113" transform="translate(0.211 0.211)" fill="none"/>
    </clipPath>
    <clipPath id="clip-path-3">
      <rect id="Rectangle_401073" data-name="Rectangle 401073" width="86.443" height="38.93" fill="#7d3a1b"/>
    </clipPath>
    <clipPath id="clip-path-4">
      <rect id="Rectangle_402260" data-name="Rectangle 402260" width="64" height="46.433" fill="none"/>
    </clipPath>
  </defs>
  <g id="Group_1101308" data-name="Group 1101308" transform="translate(-390 -5076)">
    <g id="Grupo_108927" data-name="Grupo 108927" transform="translate(0 609)">
      <path id="Rectángulo_36179" data-name="Rectángulo 36179" d="M0,0H129V128H0Z" transform="translate(390 4467)" fill="#feebcf"/>
    </g>
    <g id="Group_1100420" data-name="Group 1100420" transform="translate(132.789 -200.211)">
      <g id="Group_1099379" data-name="Group 1099379" transform="translate(265 5284)">
        <rect id="Rectangle_401103" data-name="Rectangle 401103" width="113" height="113" transform="translate(0.211 0.211)" fill="none"/>
        <g id="Group_1099348" data-name="Group 1099348">
          <g id="Group_1099282" data-name="Group 1099282">
            <g id="Group_1099281" data-name="Group 1099281" clip-path="url(#clip-path-3)">
              <path id="Path_873375" data-name="Path 873375" d="M70.12,8.532c-3.88,0-5.887-1.9-7.658-3.581C60.723,3.3,59.226,1.882,56.1,1.882S51.467,3.3,49.728,4.95c-1.771,1.679-3.775,3.581-7.658,3.581s-5.886-1.9-7.658-3.581C32.674,3.3,31.177,1.882,28.046,1.882S23.418,3.3,21.682,4.95C19.911,6.629,17.9,8.532,14.024,8.532S8.135,6.629,6.364,4.95C4.628,3.3,3.131,1.882,0,1.882V0C3.88,0,5.887,1.906,7.658,3.581,9.4,5.23,10.893,6.65,14.024,6.65s4.628-1.419,6.364-3.066C22.157,1.906,24.166,0,28.046,0s5.89,1.906,7.658,3.581C37.442,5.23,38.939,6.65,42.07,6.65S46.7,5.23,48.437,3.581C50.205,1.906,52.215,0,56.1,0s5.89,1.906,7.658,3.581C65.491,5.23,66.988,6.65,70.12,6.65s4.628-1.419,6.367-3.069C78.255,1.906,80.261,0,84.144,0V1.882c-3.131,0-4.628,1.422-6.367,3.069C76.006,6.629,74,8.532,70.12,8.532" transform="translate(2.299 30.399)" fill="#7d3a1b"/>
              <path id="Path_873376" data-name="Path 873376" d="M70.12,8.532c-3.88,0-5.889-1.9-7.658-3.584C60.723,3.3,59.226,1.882,56.1,1.882S51.467,3.3,49.728,4.947c-1.768,1.682-3.775,3.584-7.658,3.584s-5.889-1.9-7.658-3.584C32.674,3.3,31.177,1.882,28.046,1.882S23.418,3.3,21.682,4.947C19.911,6.629,17.9,8.532,14.025,8.532s-5.889-1.9-7.661-3.584C4.628,3.3,3.131,1.882,0,1.882V0C3.88,0,5.889,1.9,7.658,3.581,9.4,5.23,10.893,6.65,14.025,6.65s4.628-1.419,6.364-3.069C22.157,1.9,24.166,0,28.046,0s5.889,1.9,7.661,3.581C37.442,5.23,38.939,6.65,42.071,6.65S46.7,5.23,48.437,3.581C50.206,1.9,52.215,0,56.1,0s5.89,1.9,7.658,3.581C65.491,5.23,66.988,6.65,70.12,6.65s4.628-1.419,6.367-3.069C78.257,1.9,80.264,0,84.147,0V1.882c-3.131,0-4.631,1.422-6.37,3.066C76.006,6.629,74,8.532,70.12,8.532" transform="translate(1.533 20.266)" fill="#7d3a1b"/>
              <path id="Path_873377" data-name="Path 873377" d="M70.119,8.532c-3.88,0-5.889-1.9-7.658-3.584C60.723,3.3,59.226,1.882,56.1,1.882S51.467,3.3,49.728,4.947C47.96,6.629,45.95,8.532,42.071,8.532s-5.89-1.9-7.658-3.584C32.674,3.3,31.177,1.882,28.046,1.882S23.418,3.3,21.682,4.947C19.911,6.629,17.9,8.532,14.025,8.532s-5.89-1.9-7.661-3.584C4.628,3.3,3.131,1.882,0,1.882V0C3.88,0,5.889,1.9,7.658,3.581,9.393,5.23,10.893,6.65,14.025,6.65s4.628-1.419,6.364-3.069C22.156,1.9,24.166,0,28.046,0s5.89,1.9,7.661,3.581C37.442,5.23,38.939,6.65,42.071,6.65S46.7,5.23,48.437,3.581C50.205,1.9,52.215,0,56.1,0s5.889,1.9,7.658,3.581C65.491,5.23,66.988,6.65,70.119,6.65s4.628-1.419,6.367-3.069C78.257,1.9,80.261,0,84.147,0V1.882c-3.131,0-4.631,1.422-6.37,3.066C76.006,6.629,74,8.532,70.119,8.532" transform="translate(0.766 10.133)" fill="#7d3a1b"/>
              <path id="Path_873378" data-name="Path 873378" d="M70.12,8.529c-3.88,0-5.887-1.9-7.658-3.581C60.723,3.3,59.226,1.882,56.095,1.882S51.467,3.3,49.731,4.947C47.96,6.626,45.953,8.529,42.07,8.529s-5.887-1.9-7.658-3.581C32.674,3.3,31.177,1.882,28.046,1.882S23.418,3.3,21.682,4.944C19.914,6.626,17.9,8.529,14.024,8.529s-5.89-1.9-7.661-3.581C4.628,3.3,3.131,1.882,0,1.882V0C3.88,0,5.89,1.9,7.658,3.581,9.4,5.228,10.893,6.647,14.024,6.647s4.628-1.419,6.364-3.066C22.159,1.9,24.166,0,28.046,0s5.887,1.9,7.661,3.581c1.736,1.646,3.233,3.066,6.364,3.066S46.7,5.228,48.437,3.581C50.208,1.9,52.215,0,56.095,0s5.887,1.9,7.658,3.581c1.739,1.646,3.236,3.066,6.367,3.066s4.628-1.419,6.367-3.066C78.257,1.9,80.264,0,84.147,0V1.882c-3.134,0-4.631,1.419-6.37,3.066C76.006,6.626,74,8.529,70.12,8.529" transform="translate(0 0.003)" fill="#7d3a1b"/>
            </g>
          </g>
        </g>
        <path id="Path_873425" data-name="Path 873425" d="M47.337,0A47.337,47.337,0,1,1,0,47.337,47.337,47.337,0,0,1,47.337,0Z" transform="translate(14.061 16.873)" fill="#7d3a1b"/>
        <circle id="Ellipse_11503" data-name="Ellipse 11503" cx="49.5" cy="49.5" r="49.5" transform="translate(7.211 7.211)" fill="#fff"/>
      </g>
      <g id="Group_1099380" data-name="Group 1099380" transform="translate(289.372 5307.434)">
        <rect id="Rectangle_401104" data-name="Rectangle 401104" width="64" height="65" transform="translate(-0.16 -0.223)" fill="none"/>
        <g id="Group_1100434" data-name="Group 1100434" transform="translate(-0.16 9.786)">
          <g id="Group_1100433" data-name="Group 1100433" clip-path="url(#clip-path-4)">
            <path id="Path_880049" data-name="Path 880049" d="M107.608,19.289l-.044.015H106.5a.034.034,0,0,0-.039,0h-.144a.035.035,0,0,0-.04,0h-.144a.031.031,0,0,0-.038,0l-1.429.006a.027.027,0,0,0-.039,0l-2.9-.009a.033.033,0,0,0-.038,0l-.147,0a.032.032,0,0,0-.035,0c-.092,0-.183-.009-.275-.01-.411,0-.459.03-.6.411-.327.9-.73,1.774-1.09,2.663-.252.622-.493,1.249-.792,1.848a1.9,1.9,0,0,1-3.137.413,3.257,3.257,0,0,1-.481-.879q-.354-.829-.7-1.662c-.174-.422-.326-.854-.512-1.27-.17-.38-.321-.767-.48-1.152a.479.479,0,0,0-.247-.285c-.074-.155-.2-.064-.311-.07h-.146a.036.036,0,0,0-.04,0h-.144a.032.032,0,0,0-.038,0l-.7.005a.027.027,0,0,0-.039,0c-.191,0-.381-.01-.571-.011h-7.1a.032.032,0,0,0-.036,0,8.191,8.191,0,0,1-1.275-.061,3.932,3.932,0,0,1-2.723-2.11,3.5,3.5,0,0,1-.363-1.469q0-5.88,0-11.76c0-.053-.005-.106-.008-.16A3.474,3.474,0,0,1,80,2.311,4.889,4.889,0,0,1,81.276.739a1.221,1.221,0,0,1,.521-.3c.194-.043.317-.218.516-.272A4.826,4.826,0,0,1,83.606.037l22.879,0c.481,0,.963.006,1.444.009.05.053.028.151.126.176a2.586,2.586,0,0,1,.638.339,3.994,3.994,0,0,1,1.364,1.375,3.37,3.37,0,0,1,.486,1.843q0,5.907,0,11.814a3.613,3.613,0,0,1-.41,1.638,3.784,3.784,0,0,1-1.468,1.535c-.34.2-.73.3-1.057.523M98.99,9.681A2.005,2.005,0,0,0,97.1,7.737,1.963,1.963,0,0,0,95.132,9.6,1.966,1.966,0,0,0,97.04,11.56,1.944,1.944,0,0,0,98.99,9.681M87.418,9.652a1.959,1.959,0,0,0,1.893,1.907A1.912,1.912,0,0,0,91.25,9.751a2.018,2.018,0,0,0-2.33-2.009,2.175,2.175,0,0,0-1.5,1.91m15.464.078a1.942,1.942,0,0,0,1.907,1.828A1.87,1.87,0,0,0,106.7,9.625a1.912,1.912,0,1,0-3.822.106" transform="translate(-65.055 -0.03)" fill="#ffb937"/>
            <path id="Path_880050" data-name="Path 880050" d="M19.166,145.532a12.409,12.409,0,0,1-1.105,1.022,10.381,10.381,0,0,1-1.445,1.115,11.557,11.557,0,0,1-2.325,1.162,11.306,11.306,0,0,1-2.4.621,12.346,12.346,0,0,1-2.74.025c-.251-.023-.52.032-.732-.164-.417.117-.774-.121-1.156-.2a9.175,9.175,0,0,1-1.932-.7,11.366,11.366,0,0,1-2.6-1.69,11.484,11.484,0,0,1-2.353-2.81A2.094,2.094,0,0,1,0,142.777,1.95,1.95,0,0,1,.517,141.5a1.925,1.925,0,0,1,1.522-.641q3.989-.007,7.977,0c.3,0,.3,0,.3-.288,0-1.741,0-3.482,0-5.223,0-.213-.066-.273-.276-.273-2.491.006-4.982,0-7.473,0A6.238,6.238,0,0,1,1.548,135a1.814,1.814,0,0,1-1.421-1.244A1.993,1.993,0,0,1,.512,131.8a11.821,11.821,0,0,1,1.975-2.378,12.115,12.115,0,0,1,2.164-1.544,12.762,12.762,0,0,1,1.675-.771,12.916,12.916,0,0,1,2.151-.552,10.909,10.909,0,0,1,2.295-.17,14.265,14.265,0,0,1,1.912.282,9.461,9.461,0,0,1,2.172.671,11.351,11.351,0,0,1,2.771,1.688,11.2,11.2,0,0,0,1.011.883,2.046,2.046,0,0,1,.574.543.237.237,0,0,0,.054.193,7.236,7.236,0,0,1,.793,1.08,11.472,11.472,0,0,1,1.395,3.061,10.244,10.244,0,0,1,.407,2.6,11.61,11.61,0,0,1-.294,3.276,14.73,14.73,0,0,1-.864,2.433,7.221,7.221,0,0,1-.812,1.363c-.135.181-.251.374-.4.549-.127.147-.33.285-.324.528" transform="translate(0 -103.133)" fill="#cbc8c8"/>
            <path id="Path_880051" data-name="Path 880051" d="M242.3,149.46a6.294,6.294,0,0,1-1.728.093c-.271,0-.543-.014-.814-.025a10.523,10.523,0,0,1-1.862-.3,11.289,11.289,0,0,1-4.677-2.354c-.5-.419-1.009-.83-1.475-1.289-.032-.032-.059-.069-.089-.1.065-.046.027-.1,0-.139-.089-.132-.179-.264-.275-.392a9.613,9.613,0,0,1-1.042-1.576,14.271,14.271,0,0,1-.929-2.4,12.432,12.432,0,0,1-.36-2.423,10.2,10.2,0,0,1,.055-1.846,4.037,4.037,0,0,1,.071-.867c.161-.495.238-1.015.415-1.506a11.2,11.2,0,0,1,.994-2.158,8.675,8.675,0,0,1,1.169-1.623c.045-.045.151-.108-.006-.153a2.148,2.148,0,0,1,.434-.4,14.431,14.431,0,0,1,3.43-2.446,9.683,9.683,0,0,1,2.1-.777,12.988,12.988,0,0,1,2.269-.375c.48-.016.96-.025,1.44-.03a2.058,2.058,0,0,1,.56.077c-.02.132.068.169.17.2a4.932,4.932,0,0,1,.562.183,7.532,7.532,0,0,1,2.993,2.514,11.334,11.334,0,0,1,1.313,2.348,3.849,3.849,0,0,1,.416,1.459,1.917,1.917,0,0,1-.214.706,1.72,1.72,0,0,1-1.058,1.077c-.056.02-.1.033-.106.1a.554.554,0,0,1-.291.04c-1.635,0-3.269,0-4.9-.005-.216,0-.265.065-.264.27.008,1.74,0,3.48,0,5.22,0,.294,0,.294.291.294h2.91l2.351,0a.209.209,0,0,0,.152.182,1.77,1.77,0,0,1,.662.516,1.737,1.737,0,0,1,.435,1.5,9.2,9.2,0,0,1-1.332,3.009,7.9,7.9,0,0,1-1.733,2.015,5.775,5.775,0,0,1-1.733,1.033c-.146.049-.336.107-.3.338" transform="translate(-186.9 -103.134)" fill="#cbc8c8"/>
            <path id="Path_880052" data-name="Path 880052" d="M129.882,148.286c.157.045.051.109.006.153a8.671,8.671,0,0,0-1.169,1.623,11.194,11.194,0,0,0-.994,2.158c-.178.491-.255,1.011-.415,1.506a4.026,4.026,0,0,0-.071.867,10.2,10.2,0,0,0-.055,1.846,12.431,12.431,0,0,0,.36,2.423,14.273,14.273,0,0,0,.929,2.4,9.616,9.616,0,0,0,1.043,1.576c.1.127.186.259.275.392.028.042.066.093,0,.139a7.827,7.827,0,0,0-.9-.618,8.559,8.559,0,0,0-2.433-.91,16.644,16.644,0,0,0-3.25-.172q-6.473,0-12.946,0c-.51,0-1.022-.027-1.529.009a7.837,7.837,0,0,0-3.663,1.152c-.3.186-.576.395-.867.586-.007-.243.2-.381.324-.528.151-.174.266-.368.4-.549a7.21,7.21,0,0,0,.812-1.363,14.741,14.741,0,0,0,.864-2.433,11.61,11.61,0,0,0,.294-3.276,10.245,10.245,0,0,0-.407-2.6A11.472,11.472,0,0,0,105.1,149.6a7.223,7.223,0,0,0-.794-1.08.237.237,0,0,1-.054-.193c.386.227.723.527,1.125.735a9.622,9.622,0,0,0,1.857.742,8.79,8.79,0,0,0,2.392.273c4.912-.006,9.824-.017,14.736.009a9.7,9.7,0,0,0,3.05-.437,7.1,7.1,0,0,0,2.231-1.187c.077-.061.16-.117.24-.175m-15,5.682h-2.27a1.623,1.623,0,0,0-.686.15,1.9,1.9,0,0,0-.862,2.677,1.859,1.859,0,0,0,1.586.966c1.686.06,3.374-.018,5.062.049,1.091.043,2.185,0,3.278.011a3.3,3.3,0,0,0,.941-.151,1.9,1.9,0,0,0,1.083-2.766,2.039,2.039,0,0,0-.61-.668,2.2,2.2,0,0,0-1.2-.311c-1.412.017-2.824-.033-4.236.038-.694.035-1.391.006-2.086.006" transform="translate(-85.037 -121.012)" fill="#b8b3b3"/>
            <path id="Path_880053" data-name="Path 880053" d="M231.354,19.258c.327-.224.718-.318,1.057-.523a3.783,3.783,0,0,0,1.468-1.535,3.613,3.613,0,0,0,.41-1.638q0-5.907,0-11.814a3.372,3.372,0,0,0-.486-1.843A3.993,3.993,0,0,0,232.439.531,2.585,2.585,0,0,0,231.8.192c-.1-.025-.076-.123-.126-.176,1.031,0,2.064-.041,3.092.006a3.542,3.542,0,0,1,2.238,1.051,3.927,3.927,0,0,1,.773,1.028,3.656,3.656,0,0,1,.4,1.8c.013,3.809.008,7.618.007,11.427a3.487,3.487,0,0,1-.2,1.351,3.8,3.8,0,0,1-2.3,2.323,3.648,3.648,0,0,1-1.213.269l-.086,0-.095,0h-.045l-.138,0h-.962c-.532,0-1.064-.022-1.6.011l-.059-.015-.134-.013" transform="translate(-188.801 0.001)" fill="#c1881f"/>
            <path id="Path_880054" data-name="Path 880054" d="M303.494,135.381c.006-.064.05-.078.106-.1a1.719,1.719,0,0,0,1.058-1.076,1.917,1.917,0,0,0,.214-.706,3.849,3.849,0,0,0-.416-1.459,11.339,11.339,0,0,0-1.313-2.349,7.533,7.533,0,0,0-2.993-2.514,4.934,4.934,0,0,0-.562-.183c-.1-.031-.19-.068-.17-.2a12.382,12.382,0,0,1,4.146,1.356,11.837,11.837,0,0,1,3.078,2.421,10.292,10.292,0,0,1,1.494,2.1,1.864,1.864,0,0,1-.458,2.236,2.119,2.119,0,0,1-1.434.489c-.488.012-.976,0-1.463.022a.115.115,0,0,0-.182,0,9.486,9.486,0,0,1-1.1-.039" transform="translate(-244.343 -103.475)" fill="#b8b3b3"/>
            <path id="Path_880055" data-name="Path 880055" d="M301.168,213.694c-.033-.231.157-.29.3-.338a5.775,5.775,0,0,0,1.733-1.034,7.9,7.9,0,0,0,1.733-2.015,9.2,9.2,0,0,0,1.332-3.009,1.736,1.736,0,0,0-.435-1.5,1.77,1.77,0,0,0-.662-.516.209.209,0,0,1-.152-.182c.925,0,1.849-.02,2.773,0a1.989,1.989,0,0,1,1.976,1.919,1.891,1.891,0,0,1-.315,1.059,11.8,11.8,0,0,1-1.8,2.318,11.368,11.368,0,0,1-2.308,1.778,10.954,10.954,0,0,1-2.56,1.122,13.077,13.077,0,0,1-1.614.4" transform="translate(-245.771 -167.368)" fill="#b8b3b3"/>
            <path id="Path_880056" data-name="Path 880056" d="M79.569,20.179c0,.053.008.106.008.16q0,5.88,0,11.76a.882.882,0,0,1-.038-.383q0-5.645,0-11.291a.445.445,0,0,1,.031-.246" transform="translate(-64.906 -16.467)" fill="#5cd4a0"/>
            <path id="Path_880057" data-name="Path 880057" d="M151.352,104.706c.107.006.237-.086.311.07-.093-.07-.214-.016-.311-.07" transform="translate(-123.514 -85.43)" fill="#cbc8c8"/>
            <path id="Path_880058" data-name="Path 880058" d="M327.6,173.484a.115.115,0,0,1,.182,0,.1.1,0,0,1-.182,0" transform="translate(-267.341 -141.539)" fill="#cbc8c8"/>
            <path id="Path_880059" data-name="Path 880059" d="M247.824,104.746l.086,0a.049.049,0,0,1-.086,0" transform="translate(-202.242 -85.478)" fill="#cbc8c8"/>
            <path id="Path_880060" data-name="Path 880060" d="M232.084,104.777l.059.015-.059-.015" transform="translate(-189.397 -85.505)" fill="#cbc8c8"/>
            <path id="Path_880061" data-name="Path 880061" d="M225.14,104.771a.033.033,0,0,1,.039,0h-.039" transform="translate(-183.73 -85.496)" fill="#cbc8c8"/>
            <path id="Path_880062" data-name="Path 880062" d="M224.139,104.77a.035.035,0,0,1,.04,0h-.04" transform="translate(-182.913 -85.495)" fill="#cbc8c8"/>
            <path id="Path_880063" data-name="Path 880063" d="M241.083,104.795h0" transform="translate(-196.741 -85.519)" fill="#cbc8c8"/>
            <path id="Path_880064" data-name="Path 880064" d="M242.077,104.792h0" transform="translate(-197.552 -85.518)" fill="#cbc8c8"/>
            <path id="Path_880065" data-name="Path 880065" d="M243.077,104.792h0" transform="translate(-198.368 -85.518)" fill="#cbc8c8"/>
            <path id="Path_880066" data-name="Path 880066" d="M244.073,104.8h0" transform="translate(-199.181 -85.522)" fill="#cbc8c8"/>
            <path id="Path_880067" data-name="Path 880067" d="M245.071,104.8h0" transform="translate(-199.995 -85.525)" fill="#cbc8c8"/>
            <path id="Path_880068" data-name="Path 880068" d="M246.067,104.8h0" transform="translate(-200.808 -85.522)" fill="#cbc8c8"/>
            <path id="Path_880069" data-name="Path 880069" d="M247.062,104.781l.045,0-.045,0" transform="translate(-201.62 -85.507)" fill="#cbc8c8"/>
            <path id="Path_880070" data-name="Path 880070" d="M223.147,104.777a.031.031,0,0,1,.038,0h-.038" transform="translate(-182.104 -85.499)" fill="#cbc8c8"/>
            <path id="Path_880071" data-name="Path 880071" d="M230.855,104.791h0" transform="translate(-188.394 -85.516)" fill="#cbc8c8"/>
            <path id="Path_880072" data-name="Path 880072" d="M215.167,104.806a.027.027,0,0,1,.039,0l-.019.009Z" transform="translate(-175.591 -85.523)" fill="#cbc8c8"/>
            <path id="Path_880073" data-name="Path 880073" d="M199.212,104.764a.033.033,0,0,1,.038,0h-.038" transform="translate(-162.571 -85.49)" fill="#cbc8c8"/>
            <path id="Path_880074" data-name="Path 880074" d="M198.222,104.745a.033.033,0,0,1,.035,0h-.035" transform="translate(-161.763 -85.476)" fill="#cbc8c8"/>
            <path id="Path_880075" data-name="Path 880075" d="M149.348,104.779a.032.032,0,0,1,.038,0l-.038,0" transform="translate(-121.878 -85.501)" fill="#cbc8c8"/>
            <path id="Path_880076" data-name="Path 880076" d="M145.359,104.807a.027.027,0,0,1,.038,0l-.019.009Z" transform="translate(-118.623 -85.523)" fill="#cbc8c8"/>
            <path id="Path_880077" data-name="Path 880077" d="M103.479,104.752a.032.032,0,0,1,.036,0h-.036" transform="translate(-84.446 -85.481)" fill="#cbc8c8"/>
            <path id="Path_880078" data-name="Path 880078" d="M150.341,104.768a.036.036,0,0,1,.04,0h-.04" transform="translate(-122.689 -85.493)" fill="#cbc8c8"/>
            <path id="Path_880079" data-name="Path 880079" d="M167.371,43.846a1.944,1.944,0,0,1-1.951,1.878,1.912,1.912,0,1,1,.058-3.822,2,2,0,0,1,1.892,1.944" transform="translate(-133.437 -34.195)" fill="#f7f6f7"/>
            <path id="Path_880080" data-name="Path 880080" d="M121.58,43.788a2.175,2.175,0,0,1,1.5-1.91,2.018,2.018,0,0,1,2.33,2.009,1.912,1.912,0,0,1-1.939,1.808,1.959,1.959,0,0,1-1.893-1.907" transform="translate(-99.217 -34.166)" fill="#f7f6f7"/>
            <path id="Path_880081" data-name="Path 880081" d="M205.628,43.908a1.912,1.912,0,1,1,3.822-.106,1.87,1.87,0,0,1-1.915,1.934,1.942,1.942,0,0,1-1.907-1.828" transform="translate(-167.802 -34.208)" fill="#f7f6f7"/>
            <path id="Path_880082" data-name="Path 880082" d="M144.176,178.975c.7,0,1.392.029,2.086-.006,1.412-.072,2.824-.021,4.236-.038a2.2,2.2,0,0,1,1.2.311,2.039,2.039,0,0,1,.61.668,1.9,1.9,0,0,1-1.083,2.766,3.3,3.3,0,0,1-.941.151c-1.093-.008-2.187.032-3.278-.011-1.688-.067-3.376.011-5.062-.049a1.859,1.859,0,0,1-1.586-.966,1.9,1.9,0,0,1,.862-2.676,1.624,1.624,0,0,1,.686-.15h2.27" transform="translate(-114.329 -146.019)" fill="#a39e9e"/>
          </g>
        </g>
      </g>
    </g>
  </g>
</svg>
