<svg xmlns="http://www.w3.org/2000/svg" xmlns:xlink="http://www.w3.org/1999/xlink" width="121" height="121" viewBox="0 0 121 121">
  <defs>
    <clipPath id="clip-path">
      <rect id="Rectangle_400938" data-name="Rectangle 400938" width="121" height="121" transform="translate(0 0)" fill="none"/>
    </clipPath>
    <clipPath id="clip-path-2">
      <rect id="Rectangle_401073" data-name="Rectangle 401073" width="92.219" height="41.532" fill="#efb499"/>
    </clipPath>
    <clipPath id="clip-path-3">
      <rect id="Rectangle_402276" data-name="Rectangle 402276" width="59.494" height="69" fill="none"/>
    </clipPath>
  </defs>
  <g id="Group_1101310" data-name="Group 1101310" transform="translate(-1090.996 -5846)">
    <g id="Group_1100440" data-name="Group 1100440" transform="translate(703.328 -167)">
      <rect id="Rectangle_401103" data-name="Rectangle 401103" width="121" height="121" transform="translate(387.668 6013)" fill="none"/>
      <g id="Group_1099348" data-name="Group 1099348" transform="translate(387.668 6013)">
        <g id="Group_1099282" data-name="Group 1099282">
          <g id="Group_1099281" data-name="Group 1099281" clip-path="url(#clip-path-2)">
            <path id="Path_873375" data-name="Path 873375" d="M74.8,9.1c-4.139,0-6.28-2.03-8.17-3.821-1.855-1.756-3.452-3.274-6.792-3.274s-4.937,1.517-6.792,3.274C51.161,7.072,49.023,9.1,44.881,9.1s-6.28-2.03-8.169-3.821C34.857,3.525,33.26,2.007,29.92,2.007s-4.937,1.517-6.789,3.274C21.241,7.072,19.1,9.1,14.962,9.1S8.679,7.072,6.789,5.281C4.937,3.525,3.34,2.007,0,2.007V0C4.139,0,6.28,2.033,8.17,3.821c1.855,1.759,3.452,3.274,6.792,3.274S19.9,5.58,21.75,3.824C23.637,2.033,25.781,0,29.92,0s6.283,2.033,8.17,3.821c1.855,1.759,3.452,3.274,6.792,3.274s4.937-1.514,6.792-3.274C53.56,2.033,55.7,0,59.843,0s6.283,2.033,8.17,3.821C69.867,5.58,71.464,7.094,74.8,7.094S79.742,5.58,81.6,3.821C83.483,2.033,85.624,0,89.766,0V2.007c-3.34,0-4.937,1.517-6.792,3.274C81.084,7.072,78.943,9.1,74.8,9.1" transform="translate(2.453 32.43)" fill="#efb499"/>
            <path id="Path_873376" data-name="Path 873376" d="M74.8,9.1c-4.139,0-6.283-2.03-8.17-3.824-1.855-1.756-3.452-3.27-6.792-3.27s-4.937,1.514-6.792,3.27C51.164,7.072,49.023,9.1,44.881,9.1s-6.283-2.03-8.17-3.824c-1.855-1.756-3.452-3.27-6.792-3.27s-4.937,1.517-6.789,3.27C21.241,7.072,19.1,9.1,14.962,9.1S8.679,7.072,6.789,5.278C4.937,3.522,3.34,2.007,0,2.007V0C4.139,0,6.283,2.03,8.17,3.821c1.855,1.759,3.452,3.274,6.792,3.274S19.9,5.58,21.75,3.821C23.637,2.03,25.781,0,29.92,0S36.2,2.03,38.093,3.821c1.852,1.759,3.449,3.274,6.789,3.274s4.937-1.514,6.792-3.274C53.56,2.03,55.7,0,59.843,0s6.283,2.03,8.17,3.821C69.867,5.58,71.464,7.094,74.8,7.094S79.742,5.58,81.6,3.821C83.486,2.03,85.627,0,89.769,0V2.007c-3.34,0-4.94,1.517-6.8,3.27C81.084,7.072,78.943,9.1,74.8,9.1" transform="translate(1.635 21.62)" fill="#efb499"/>
            <path id="Path_873377" data-name="Path 873377" d="M74.8,9.1c-4.139,0-6.283-2.03-8.169-3.824-1.855-1.756-3.452-3.27-6.792-3.27s-4.937,1.514-6.792,3.27C51.164,7.072,49.02,9.1,44.881,9.1s-6.283-2.03-8.17-3.824c-1.855-1.756-3.452-3.27-6.792-3.27s-4.937,1.517-6.789,3.27C21.241,7.072,19.1,9.1,14.962,9.1S8.678,7.072,6.789,5.278C4.937,3.522,3.34,2.007,0,2.007V0C4.139,0,6.283,2.03,8.169,3.821c1.851,1.759,3.452,3.274,6.792,3.274S19.9,5.58,21.75,3.821C23.637,2.03,25.781,0,29.92,0S36.2,2.03,38.093,3.821c1.852,1.759,3.449,3.274,6.789,3.274s4.937-1.514,6.792-3.274C53.56,2.03,55.7,0,59.843,0s6.283,2.03,8.17,3.821C69.867,5.58,71.464,7.094,74.8,7.094S79.742,5.58,81.6,3.821C83.486,2.03,85.624,0,89.769,0V2.007c-3.34,0-4.941,1.517-6.8,3.27C81.084,7.072,78.943,9.1,74.8,9.1" transform="translate(0.818 10.81)" fill="#efb499"/>
            <path id="Path_873378" data-name="Path 873378" d="M74.8,9.1c-4.139,0-6.28-2.03-8.17-3.821-1.855-1.756-3.452-3.27-6.792-3.27s-4.937,1.514-6.789,3.27C51.164,7.069,49.023,9.1,44.881,9.1s-6.28-2.03-8.169-3.821c-1.855-1.756-3.452-3.27-6.792-3.27s-4.937,1.514-6.789,3.267C21.245,7.069,19.1,9.1,14.962,9.1S8.678,7.069,6.789,5.278C4.937,3.522,3.34,2.007,0,2.007V0C4.139,0,6.283,2.03,8.17,3.821c1.855,1.756,3.452,3.27,6.792,3.27S19.9,5.577,21.75,3.821C23.64,2.03,25.781,0,29.92,0s6.28,2.03,8.173,3.821c1.852,1.756,3.449,3.27,6.789,3.27s4.937-1.514,6.792-3.27C53.563,2.03,55.7,0,59.843,0s6.28,2.03,8.17,3.821c1.855,1.756,3.452,3.27,6.792,3.27s4.937-1.514,6.792-3.27C83.486,2.03,85.627,0,89.769,0V2.007c-3.344,0-4.941,1.514-6.8,3.27C81.084,7.069,78.943,9.1,74.8,9.1" transform="translate(0 0.003)" fill="#efb499"/>
          </g>
        </g>
      </g>
      <circle id="Ellipse_11504" data-name="Ellipse 11504" cx="50.5" cy="50.5" r="50.5" transform="translate(402.668 6031)" fill="#ffce73"/>
      <circle id="Ellipse_11503" data-name="Ellipse 11503" cx="52.5" cy="52.5" r="52.5" transform="translate(395.668 6021)" fill="#f3f9ff"/>
    </g>
    <g id="Group_1100443" data-name="Group 1100443" transform="translate(1116.938 5871.804)">
      <rect id="Rectangle_401104" data-name="Rectangle 401104" width="68" height="69" transform="translate(0.062 -0.804)" fill="none"/>
      <g id="Group_1100473" data-name="Group 1100473" transform="translate(4.062 -0.804)">
        <rect id="Rectangle_402271" data-name="Rectangle 402271" width="1.709" height="53.646" transform="translate(57.785 15.135)" fill="#ffb937"/>
        <rect id="Rectangle_402272" data-name="Rectangle 402272" width="1.698" height="53.662" transform="translate(56.092 15.135)" fill="#ffce73"/>
        <path id="Path_880121" data-name="Path 880121" d="M529.76,79.714h3.407l-1.7-7.488Z" transform="translate(-473.673 -64.579)" fill="#fbd94b"/>
        <path id="Path_880122" data-name="Path 880122" d="M541.561,74.759l-.576-2.532-.576,2.532Z" transform="translate(-483.195 -64.58)" fill="#515252"/>
        <rect id="Rectangle_402273" data-name="Rectangle 402273" width="51.892" height="61.799" transform="translate(0 7.201)" fill="#7d3a1b"/>
        <path id="Path_880123" data-name="Path 880123" d="M96.087,172.613H60.369V115.962H102.34v49.99Z" transform="translate(-53.977 -108.689)" fill="#3d2a06"/>
        <path id="Path_880124" data-name="Path 880124" d="M82.566,147.327H46.848V95.68H88.819v45.574Z" transform="translate(-41.888 -85.551)" fill="#d2d2d2"/>
        <path id="Path_880125" data-name="Path 880125" d="M82.566,147.327H46.848V95.68H88.819v45.574l-6.231-.02Z" transform="translate(-41.888 -85.551)" fill="#fff"/>
        <g id="Group_1100472" data-name="Group 1100472">
          <g id="Group_1100471" data-name="Group 1100471" clip-path="url(#clip-path-3)">
            <path id="Path_880126" data-name="Path 880126" d="M153.148,4.447a3.738,3.738,0,0,0,.022-.408A4.2,4.2,0,0,0,148.839,0H140.8a4.2,4.2,0,0,0-4.332,4.039,3.765,3.765,0,0,0,.022.408h-3.542v7.508h23.74V4.447ZM137.9,4.039a2.811,2.811,0,0,1,2.9-2.7h8.035a2.811,2.811,0,0,1,2.9,2.7,2.54,2.54,0,0,1-.044.408H137.947a2.53,2.53,0,0,1-.044-.408" transform="translate(-118.875)" fill="#686867"/>
            <path id="Path_880127" data-name="Path 880127" d="M131.536,365.66l-.329-5.12-5.454.677.12.848,3.435-.428L118.69,373.652l-7.331-4.816a.751.751,0,0,0-.965.122l-8.818,10.01a.637.637,0,0,0,.1.939.745.745,0,0,0,.454.152.737.737,0,0,0,.554-.244l8.4-9.531,7.329,4.815a.752.752,0,0,0,.964-.121l11.042-12.493.206,3.227Z" transform="translate(-90.677 -324.95)" fill="#515252"/>
            <path id="Path_880128" data-name="Path 880128" d="M138.85,414.234l-9.924,11.236L121.05,420.3l-8.625,9.809,2,1.111,7.092-8.065,7.871,5.17,11.46-12.974Z" transform="translate(-100.523 -373.344)" fill="#b41a1a"/>
            <path id="Path_880129" data-name="Path 880129" d="M114.408,196.2h0l27.026-.062a.334.334,0,1,0,0-.667h0l-27.026.062a.334.334,0,1,0,0,.667" transform="translate(-101.975 -176.174)" fill="#515252"/>
            <path id="Path_880130" data-name="Path 880130" d="M141.434,270.918h0l-27.026.062a.334.334,0,1,0,0,.667h0l27.026-.062a.334.334,0,1,0,0-.667" transform="translate(-101.975 -244.175)" fill="#515252"/>
            <path id="Path_880131" data-name="Path 880131" d="M189.016,308.642h0l-14.245.062a.334.334,0,1,0,0,.667h0l14.245-.062a.334.334,0,1,0,0-.667" transform="translate(-155.948 -278.175)" fill="#515252"/>
            <path id="Path_880132" data-name="Path 880132" d="M141.434,233.193h0l-27.026.062a.334.334,0,1,0,0,.667h0l27.026-.062a.334.334,0,1,0,0-.667" transform="translate(-101.975 -210.174)" fill="#515252"/>
            <path id="Path_880133" data-name="Path 880133" d="M214.234,14.59a3.738,3.738,0,0,0,.022-.408,3.9,3.9,0,0,0-1.357-2.928l-1.016.947a2.612,2.612,0,0,1,.941,1.981,2.528,2.528,0,0,1-.044.408h-3.459L201.269,22.1h16.507V14.59Z" transform="translate(-179.96 -10.143)" fill="#515252"/>
            <rect id="Rectangle_402274" data-name="Rectangle 402274" width="3.379" height="3.903" transform="translate(56.092 65.085)" fill="#fbd94b"/>
            <rect id="Rectangle_402275" data-name="Rectangle 402275" width="3.379" height="2.972" transform="translate(56.092 66.016)" fill="#515252"/>
          </g>
        </g>
      </g>
    </g>
  </g>
</svg>
