<svg xmlns="http://www.w3.org/2000/svg" xmlns:xlink="http://www.w3.org/1999/xlink" width="121" height="121" viewBox="0 0 121 121">
  <defs>
    <clipPath id="clip-path">
      <rect id="Rectangle_400938" data-name="Rectangle 400938" width="121" height="121" transform="translate(0 0)" fill="none"/>
    </clipPath>
    <clipPath id="clip-path-2">
      <rect id="Rectangle_401073" data-name="Rectangle 401073" width="92.219" height="41.532" fill="#efb499"/>
    </clipPath>
    <clipPath id="clip-path-3">
      <rect id="Rectangle_402302" data-name="Rectangle 402302" width="52.823" height="69" fill="none"/>
    </clipPath>
  </defs>
  <g id="Group_1101310" data-name="Group 1101310" transform="translate(-790.996 5433)">
    <g id="Group_1100459" data-name="Group 1100459" transform="translate(403.328 -11446)">
      <rect id="Rectangle_401103" data-name="Rectangle 401103" width="121" height="121" transform="translate(387.668 6013)" fill="none"/>
      <g id="Group_1099348" data-name="Group 1099348" transform="translate(387.668 6013)">
        <g id="Group_1099282" data-name="Group 1099282">
          <g id="Group_1099281" data-name="Group 1099281" clip-path="url(#clip-path-2)">
            <path id="Path_873375" data-name="Path 873375" d="M74.8,9.1c-4.139,0-6.28-2.03-8.17-3.821-1.855-1.756-3.452-3.274-6.792-3.274s-4.937,1.517-6.792,3.274C51.161,7.072,49.023,9.1,44.881,9.1s-6.28-2.03-8.169-3.821C34.857,3.525,33.26,2.007,29.92,2.007s-4.937,1.517-6.789,3.274C21.241,7.072,19.1,9.1,14.962,9.1S8.679,7.072,6.789,5.281C4.937,3.525,3.34,2.007,0,2.007V0C4.139,0,6.28,2.033,8.17,3.821c1.855,1.759,3.452,3.274,6.792,3.274S19.9,5.58,21.75,3.824C23.637,2.033,25.781,0,29.92,0s6.283,2.033,8.17,3.821c1.855,1.759,3.452,3.274,6.792,3.274s4.937-1.514,6.792-3.274C53.56,2.033,55.7,0,59.843,0s6.283,2.033,8.17,3.821C69.867,5.58,71.464,7.094,74.8,7.094S79.742,5.58,81.6,3.821C83.483,2.033,85.624,0,89.766,0V2.007c-3.34,0-4.937,1.517-6.792,3.274C81.084,7.072,78.943,9.1,74.8,9.1" transform="translate(2.453 32.43)" fill="#efb499"/>
            <path id="Path_873376" data-name="Path 873376" d="M74.8,9.1c-4.139,0-6.283-2.03-8.17-3.824-1.855-1.756-3.452-3.27-6.792-3.27s-4.937,1.514-6.792,3.27C51.164,7.072,49.023,9.1,44.881,9.1s-6.283-2.03-8.17-3.824c-1.855-1.756-3.452-3.27-6.792-3.27s-4.937,1.517-6.789,3.27C21.241,7.072,19.1,9.1,14.962,9.1S8.679,7.072,6.789,5.278C4.937,3.522,3.34,2.007,0,2.007V0C4.139,0,6.283,2.03,8.17,3.821c1.855,1.759,3.452,3.274,6.792,3.274S19.9,5.58,21.75,3.821C23.637,2.03,25.781,0,29.92,0S36.2,2.03,38.093,3.821c1.852,1.759,3.449,3.274,6.789,3.274s4.937-1.514,6.792-3.274C53.56,2.03,55.7,0,59.843,0s6.283,2.03,8.17,3.821C69.867,5.58,71.464,7.094,74.8,7.094S79.742,5.58,81.6,3.821C83.486,2.03,85.627,0,89.769,0V2.007c-3.34,0-4.94,1.517-6.8,3.27C81.084,7.072,78.943,9.1,74.8,9.1" transform="translate(1.635 21.62)" fill="#efb499"/>
            <path id="Path_873377" data-name="Path 873377" d="M74.8,9.1c-4.139,0-6.283-2.03-8.169-3.824-1.855-1.756-3.452-3.27-6.792-3.27s-4.937,1.514-6.792,3.27C51.164,7.072,49.02,9.1,44.881,9.1s-6.283-2.03-8.17-3.824c-1.855-1.756-3.452-3.27-6.792-3.27s-4.937,1.517-6.789,3.27C21.241,7.072,19.1,9.1,14.962,9.1S8.678,7.072,6.789,5.278C4.937,3.522,3.34,2.007,0,2.007V0C4.139,0,6.283,2.03,8.169,3.821c1.851,1.759,3.452,3.274,6.792,3.274S19.9,5.58,21.75,3.821C23.637,2.03,25.781,0,29.92,0S36.2,2.03,38.093,3.821c1.852,1.759,3.449,3.274,6.789,3.274s4.937-1.514,6.792-3.274C53.56,2.03,55.7,0,59.843,0s6.283,2.03,8.17,3.821C69.867,5.58,71.464,7.094,74.8,7.094S79.742,5.58,81.6,3.821C83.486,2.03,85.624,0,89.769,0V2.007c-3.34,0-4.941,1.517-6.8,3.27C81.084,7.072,78.943,9.1,74.8,9.1" transform="translate(0.818 10.81)" fill="#efb499"/>
            <path id="Path_873378" data-name="Path 873378" d="M74.8,9.1c-4.139,0-6.28-2.03-8.17-3.821-1.855-1.756-3.452-3.27-6.792-3.27s-4.937,1.514-6.789,3.27C51.164,7.069,49.023,9.1,44.881,9.1s-6.28-2.03-8.169-3.821c-1.855-1.756-3.452-3.27-6.792-3.27s-4.937,1.514-6.789,3.267C21.245,7.069,19.1,9.1,14.962,9.1S8.678,7.069,6.789,5.278C4.937,3.522,3.34,2.007,0,2.007V0C4.139,0,6.283,2.03,8.17,3.821c1.855,1.756,3.452,3.27,6.792,3.27S19.9,5.577,21.75,3.821C23.64,2.03,25.781,0,29.92,0s6.28,2.03,8.173,3.821c1.852,1.756,3.449,3.27,6.789,3.27s4.937-1.514,6.792-3.27C53.563,2.03,55.7,0,59.843,0s6.28,2.03,8.17,3.821c1.855,1.756,3.452,3.27,6.792,3.27s4.937-1.514,6.792-3.27C83.486,2.03,85.627,0,89.769,0V2.007c-3.344,0-4.941,1.514-6.8,3.27C81.084,7.069,78.943,9.1,74.8,9.1" transform="translate(0 0.003)" fill="#efb499"/>
          </g>
        </g>
      </g>
      <circle id="Ellipse_11504" data-name="Ellipse 11504" cx="50.5" cy="50.5" r="50.5" transform="translate(402.668 6031)" fill="#ffce73"/>
      <circle id="Ellipse_11503" data-name="Ellipse 11503" cx="52.5" cy="52.5" r="52.5" transform="translate(395.668 6021)" fill="#f3f9ff"/>
    </g>
    <g id="Group_1100460" data-name="Group 1100460" transform="translate(816.938 -5407.196)">
      <rect id="Rectangle_401104" data-name="Rectangle 401104" width="68" height="69" transform="translate(0.062 -0.804)" fill="none"/>
      <g id="Group_1100493" data-name="Group 1100493" transform="translate(8.063 -0.805)">
        <g id="Group_1100492" data-name="Group 1100492" transform="translate(0 0.001)" clip-path="url(#clip-path-3)">
          <path id="Path_880194" data-name="Path 880194" d="M84.458,85.92c.12-.093.07-.228.07-.342.006-1.241.017-2.483,0-3.724a8.363,8.363,0,0,1,.262-2,4.847,4.847,0,0,1,1.448-2.46,5,5,0,0,1,2.215-1.292A.631.631,0,0,0,88.7,76c.474-.034.94-.149,1.417-.15,1.357-.005,2.715,0,4.073-.007a4.873,4.873,0,0,1,1.118.143,10.932,10.932,0,0,1,1.558.651,5.272,5.272,0,0,1,1.856,1.852A5.8,5.8,0,0,1,99.55,81.6q0,5.371,0,10.741c0,.237.058.3.3.3,1.744-.009,3.488-.02,5.232.009a9.993,9.993,0,0,1,2.8.443,12.659,12.659,0,0,1,3.87,1.977,10.2,10.2,0,0,1,.806.682.487.487,0,0,1,.01.756c-.084.09-.164.184-.246.276a1.4,1.4,0,0,0-.114.094c-.648.65-1.308,1.289-1.937,1.957a3.65,3.65,0,0,0-.733.815c-.119.012-.18.107-.258.179a.792.792,0,0,1-1.235.053,6.027,6.027,0,0,0-3.808-1.253q-4.642.006-9.283,0a5.846,5.846,0,0,1-1.293-.153,7.071,7.071,0,0,1-2.216-.782,1.751,1.751,0,0,0-.976-.254q-2.963,0-5.925,0,0-5.221,0-10.443a7.885,7.885,0,0,0-.076-1.079" transform="translate(-67.717 -60.811)" fill="#ffb937"/>
          <path id="Path_880195" data-name="Path 880195" d="M12.8,123.829q0-.424,0-.847a.248.248,0,0,0-.01-.189c.033-.176-.021-.25-.218-.249-.855.005-1.71-.025-2.564,0a2.085,2.085,0,0,1-2.251-1.651,1.746,1.746,0,0,1,.33-1.5,2.091,2.091,0,0,1,1.836-.865c1.043.015,2.086,0,3.13.018.157,0,.3-.084.458-.041-.011.116.061.175.146.236.179.128.36.257.525.4a2.127,2.127,0,0,1,.6,1.709c.017,3.989.01,7.978.007,11.967,0,.2-.043.407-.043.611s.076.385.335.379c.582-.013,1.163.014,1.744.047.1,0,.157.109.269.1a4.5,4.5,0,0,1,1.418.24,19.631,19.631,0,0,1,2.258.722c.444.181.871.4,1.3.6a9.93,9.93,0,0,1,1.687,1.024c.474.348.908.741,1.355,1.12.008.048,0,.108.028.142.225.287.384.621.611.9a5.143,5.143,0,0,1,.5.759,16.776,16.776,0,0,1,1.479,3.611,16.159,16.159,0,0,1,.5,4.164c0,.426-.079.849-.088,1.272a11.068,11.068,0,0,1-.486,2.649A13.964,13.964,0,0,1,26.3,154.4,14.364,14.364,0,0,1,24,157.429a16.561,16.561,0,0,1-1.918,1.652,14.26,14.26,0,0,1-1.844,1.176,15.462,15.462,0,0,1-1.878.859,9.371,9.371,0,0,1-1.809.556c-.847.128-1.686.308-2.545.372A16.553,16.553,0,0,1,11.8,162c-.468-.027-.92-.14-1.38-.212a13.183,13.183,0,0,1-3.167-.948A18.277,18.277,0,0,1,4.5,159.313c-.109-.071-.18-.064-.238.051a2.129,2.129,0,0,1-.682-.722,23.185,23.185,0,0,1-1.4-2c-.175-.3-.351-.607-.515-.917a13.214,13.214,0,0,1-1-2.375,14.471,14.471,0,0,1-.539-2.416A23.633,23.633,0,0,1,0,148.348a19.24,19.24,0,0,1,.233-2.362,4.789,4.789,0,0,1,.277-1.022,5.679,5.679,0,0,0,.192-.828c.028-.15.125-.235.168-.361.153-.442.351-.866.537-1.295a14.074,14.074,0,0,1,1.943-3.116,13.021,13.021,0,0,1,1.4-1.51,14.994,14.994,0,0,1,6.8-3.661c.33-.08.667-.107,1-.174.213-.043.286-.127.272-.341-.021-.32-.016-.642-.022-.963a2.836,2.836,0,0,0,0-.584q0-3.132.007-6.264c0-.649,0-1.3-.007-1.948,0-.03,0-.061,0-.091m7.723,16.98a5.749,5.749,0,0,0,.8.015l-.195-.086c.066,0,.131,0,.2,0,.3,0,.591,0,.886,0a.2.2,0,0,0,.189-.092c.034-.06-.021-.081-.059-.112a16.1,16.1,0,0,0-1.621-1.154,12.554,12.554,0,0,0-3.11-1.288.976.976,0,0,0-.317-.021.931.931,0,0,0-.447-.143,4.882,4.882,0,0,0-.611-.039,10.255,10.255,0,0,0-1.272-.073c-.08,0-.165.025-.164.112a5.531,5.531,0,0,0-.039.655,8.064,8.064,0,0,1,.007,1.571,2.159,2.159,0,0,0,.005.434c.021.166.091.2.238.194a7.09,7.09,0,0,0,1.794-.1c.015.137.119.106.2.107,1.17.011,2.341-.038,3.511.027m-.719,3.969c-1.638,0-3.277-.023-4.914.012a2.058,2.058,0,0,1-1.547-.654,1.847,1.847,0,0,1-.522-1.367c-.007-1.5-.007-3-.011-4.5,0-.276-.016-.293-.281-.215a12.853,12.853,0,0,0-2.844,1.113,11.152,11.152,0,0,0-3.221,2.7,10.258,10.258,0,0,0-2.124,4.288,12.758,12.758,0,0,0-.33,2,11.253,11.253,0,0,0,.724,4.726,11.535,11.535,0,0,0,.9,1.8A10.657,10.657,0,0,0,7.44,156.9a11.35,11.35,0,0,0,1.342,1.083,11.844,11.844,0,0,0,1.807,1.039,8.842,8.842,0,0,0,1.554.522c.415.1.843.159,1.258.26a3.447,3.447,0,0,0,.86.121,16.129,16.129,0,0,0,2.339-.089,11.968,11.968,0,0,0,1.762-.4,11.511,11.511,0,0,0,2.521-1.172,12.8,12.8,0,0,0,1.735-1.33,11.177,11.177,0,0,0,1.15-1.3,9.94,9.94,0,0,0,1.348-2.211,8.4,8.4,0,0,0,.575-1.634,5.373,5.373,0,0,0,.276-1.457,3.225,3.225,0,0,1,.042-.706,9.018,9.018,0,0,0-.022-2.4,5.9,5.9,0,0,0-.288-1.3c-.095-.294-.142-.6-.259-.89a.369.369,0,0,0-.4-.264c-1.745.01-3.49.006-5.235.006" transform="translate(0 -95.003)" fill="#756d78"/>
          <path id="Path_880196" data-name="Path 880196" d="M92.935,190.832c-.447-.379-.881-.772-1.356-1.12a9.92,9.92,0,0,0-1.687-1.024c-.432-.2-.859-.415-1.3-.6a19.638,19.638,0,0,0-2.258-.723,4.5,4.5,0,0,0-1.418-.24c-.112.006-.168-.1-.27-.1A14.622,14.622,0,0,1,84.621,185a.075.075,0,0,0,.006-.047l.012-.147q2.963,0,5.925,0a1.751,1.751,0,0,1,.976.254,7.068,7.068,0,0,0,2.216.782,5.858,5.858,0,0,0,1.293.153q4.641,0,9.283,0a6.027,6.027,0,0,1,3.808,1.253.792.792,0,0,0,1.235-.053c.077-.072.139-.166.258-.179a8.834,8.834,0,0,0,.809.547c1.245.811,2.454,1.678,3.725,2.452a1.352,1.352,0,0,0,1.05.279l0,12.682q0,1.406,0,2.813a2.91,2.91,0,0,1-.048.638c-.115.005-.229.017-.344.015-1.313-.022-2.625.018-3.938-.029-1.148-.041-2.3-.009-3.448-.011-.468,0-.936-.009-1.4-.013-.027-2.222.045-4.444-.037-6.666.147-.028.08-.145.079-.219q-.019-2.379-.048-4.758a.711.711,0,0,0-.786-.789c-1.421-.009-2.842,0-4.264,0-.316-.038-.632.007-.948,0-1.476-.106-2.954-.028-4.431-.044a.258.258,0,0,1-.053-.051,14.761,14.761,0,0,0-2.257-2.773.665.665,0,0,0-.352-.252" transform="translate(-67.82 -148.176)" fill="#6a4d23"/>
          <path id="Path_880197" data-name="Path 880197" d="M140.128,230.667c1.477.016,2.955-.062,4.431.044l.022.044c-.354,0-.708,0-1.061,0-.053,0-.133-.026-.147.049s.056.114.117.138c.168.064.346.091.517.152a6.776,6.776,0,0,1,2.468,1.527,6.579,6.579,0,0,1,1.447,2.061,5.671,5.671,0,0,1,.563,2.347q-.016,4.829,0,9.658a19.686,19.686,0,0,0,.04,2.144,1.319,1.319,0,0,0,1.007,1.046,6.9,6.9,0,0,0,1.08.049,11.665,11.665,0,0,1,1.465.024,2.463,2.463,0,0,0,.538.022l-.524-.124-.028-.015c0-.025-.006-.033-.027-.013a2.739,2.739,0,0,1-1.394-1.43l-.094-.367c0-.213.005-.427.006-.64q0-2.118.008-4.236c.468,0,.936.012,1.4.013,1.149,0,2.3-.03,3.448.011,1.313.047,2.626.007,3.938.029.115,0,.229-.01.344-.015.056.268-.007.539.04.811a.89.89,0,0,0,.628.776c1.056.337,2.113.669,3.168,1.009.273.088.543.191.807.3a1.285,1.285,0,0,1,.788,1.084,5.837,5.837,0,0,1,0,1.526,1.351,1.351,0,0,1-1.177,1.183.947.947,0,0,0-.161.051,18.41,18.41,0,0,0-2.054-.017c.194.134.334.244.486.336a1.976,1.976,0,0,1,.765,2.428,1.623,1.623,0,0,1-1.263,1.06c-.125.018-.1.11-.1.187-.066,0-.131.009-.2.009H148.757a2.052,2.052,0,0,1-2.176-1.711,6.041,6.041,0,0,1-.053-1.353q-.012-6.275,0-12.55a6.417,6.417,0,0,0-.095-1.62,2.719,2.719,0,0,0-2.585-1.985c-.633-.016-1.267-.006-1.9-.008a.114.114,0,0,1-.123-.1,8.254,8.254,0,0,0-.565-1.693,9.045,9.045,0,0,0-.549-1.2c-.174-.353-.4-.69-.58-1.044" transform="translate(-112.352 -184.935)" fill="#756d78"/>
          <path id="Path_880198" data-name="Path 880198" d="M105.22,28.838a4.884,4.884,0,0,0-1.118-.143c-1.358,0-2.715,0-4.073.007-.477,0-.943.117-1.417.15-.062-.154.046-.29.044-.444-.013-1.029-.02-2.058,0-3.086a.971.971,0,0,0-.319-.763,7.857,7.857,0,0,1-1.432-1.981c-.035-.066-.168-.163.008-.233A3.04,3.04,0,0,0,98.8,21.6a3.315,3.315,0,0,0,1.13-2.479,2.2,2.2,0,0,1,1.638-1.942,8.794,8.794,0,0,1,1.963-.085.324.324,0,0,0,.093.03q1.43.007,2.86.011c.072,0,.155.007.172-.1a7.928,7.928,0,0,1,1.065,2.913,6.225,6.225,0,0,1-.821,4.263,4.368,4.368,0,0,1-1.293,1.368.706.706,0,0,0-.352.669c.024.773.007,1.548.007,2.322a.521.521,0,0,1-.044.264" transform="translate(-77.633 -13.662)" fill="#fecab2"/>
          <path id="Path_880199" data-name="Path 880199" d="M45.029,218.274c.185.354.406.691.58,1.044a9.04,9.04,0,0,1,.549,1.2,8.25,8.25,0,0,1,.565,1.693.115.115,0,0,0,.123.1c.143.755.31,1.506.422,2.266a12.605,12.605,0,0,1,.135,2.079,15.733,15.733,0,0,1-.418,3.11,14.292,14.292,0,0,1-.822,2.493,15.112,15.112,0,0,1-6.785,7.431,14.692,14.692,0,0,1-2.5,1.07,16.563,16.563,0,0,1-3.193.646,15.145,15.145,0,0,1-3.014-.021,14.717,14.717,0,0,1-3.351-.764,14.867,14.867,0,0,1-4.072-2.193,12.751,12.751,0,0,1-1.728-1.526c.058-.115.129-.122.238-.051a18.281,18.281,0,0,0,2.753,1.522,13.175,13.175,0,0,0,3.167.948c.46.072.912.185,1.38.212a16.6,16.6,0,0,0,2.207.048c.859-.064,1.7-.244,2.545-.372a9.386,9.386,0,0,0,1.809-.556A15.518,15.518,0,0,0,37.5,237.8a14.266,14.266,0,0,0,1.844-1.176,16.553,16.553,0,0,0,1.918-1.652,14.367,14.367,0,0,0,2.294-3.034A13.963,13.963,0,0,0,44.9,228.7a11.055,11.055,0,0,0,.486-2.649c.009-.423.092-.846.087-1.272a16.148,16.148,0,0,0-.5-4.164A16.785,16.785,0,0,0,43.5,217a5.129,5.129,0,0,0-.5-.759c-.226-.281-.386-.615-.61-.9-.027-.034-.019-.094-.028-.142a.665.665,0,0,1,.352.252,14.76,14.76,0,0,1,2.257,2.773.255.255,0,0,0,.053.051" transform="translate(-17.253 -172.542)" fill="#665e66"/>
          <path id="Path_880200" data-name="Path 880200" d="M100.658,3.925a8.806,8.806,0,0,0-1.963.085,2.2,2.2,0,0,0-1.638,1.942,3.315,3.315,0,0,1-1.13,2.479,3.04,3.04,0,0,1-1.886.746.778.778,0,0,1-.282-.448,7.119,7.119,0,0,1-.442-3.658,5.573,5.573,0,0,1,1.4-2.993A4.808,4.808,0,0,1,97.3.615c-.013.1.059.136.135.178a9.092,9.092,0,0,1,1.012.544A7.442,7.442,0,0,1,100.205,3.1a1.961,1.961,0,0,1,.452.825" transform="translate(-74.758 -0.493)" fill="#756d78"/>
          <path id="Path_880201" data-name="Path 880201" d="M71.436,131.842a14.652,14.652,0,0,0,.022,2.025c-.581-.033-1.162-.06-1.743-.047-.259.006-.335-.166-.335-.38s.043-.407.043-.611c0-3.989.01-7.978-.007-11.967a2.127,2.127,0,0,0-.6-1.709c-.165-.145-.346-.275-.525-.4-.085-.061-.156-.12-.146-.236.436,0,.872-.019,1.307,0a1.962,1.962,0,0,1,1.926,1.61,7.853,7.853,0,0,1,.076,1.079q0,5.222,0,10.443l-.012.147s-.015.009-.014.012a.175.175,0,0,0,.009.034" transform="translate(-54.635 -95.017)" fill="#665e66"/>
          <path id="Path_880202" data-name="Path 880202" d="M216.529,187.638a1.352,1.352,0,0,1-1.05-.279c-1.271-.774-2.479-1.641-3.724-2.452a8.823,8.823,0,0,1-.809-.547,3.641,3.641,0,0,1,.733-.815c.63-.668,1.289-1.307,1.937-1.957a1.449,1.449,0,0,1,.114-.094c.259,0,.4.211.559.356.145.129.266.288.425.405a4.608,4.608,0,0,1,.778.9,5.825,5.825,0,0,1,1.089,2.488,6.128,6.128,0,0,1,.09,1.639.892.892,0,0,1-.142.361" transform="translate(-169.132 -145.518)" fill="#fecab2"/>
          <path id="Path_880203" data-name="Path 880203" d="M117.094,3.433a1.96,1.96,0,0,0-.452-.825A7.442,7.442,0,0,0,114.888.844,9.093,9.093,0,0,0,113.876.3c-.075-.042-.147-.075-.135-.178a1.647,1.647,0,0,1,.594-.113,7.428,7.428,0,0,1,1.9.191,4.373,4.373,0,0,1,1.246.536,7.2,7.2,0,0,1,1.668,1.285,7.236,7.236,0,0,1,1.07,1.357c-.017.1-.1.1-.172.1q-1.43,0-2.861-.011a.323.323,0,0,1-.092-.03" transform="translate(-91.195 -0.001)" fill="#665e66"/>
          <path id="Path_880204" data-name="Path 880204" d="M248.558,331.686c.006-.078-.023-.169.1-.188a1.622,1.622,0,0,0,1.262-1.06,1.976,1.976,0,0,0-.765-2.428c-.152-.091-.293-.2-.486-.336a18.354,18.354,0,0,1,2.054.017c.021.149.167.137.257.188a2.025,2.025,0,0,1,.029,3.58,1.952,1.952,0,0,1-.948.234c-.5-.006-1-.007-1.506-.009" transform="translate(-199.29 -262.696)" fill="#665e66"/>
          <path id="Path_880205" data-name="Path 880205" d="M76.5,218.813a7.09,7.09,0,0,1-1.794.1c-.147.01-.218-.028-.238-.194a2.144,2.144,0,0,1-.005-.434,8.078,8.078,0,0,0-.007-1.571,5.448,5.448,0,0,1,.039-.655c0-.087.083-.108.164-.112a10.2,10.2,0,0,1,1.272.073,4.874,4.874,0,0,1,.611.039.676.676,0,0,0-.032.315q-.006,1.219-.009,2.438" transform="translate(-59.689 -173.14)" fill="#665e66"/>
          <path id="Path_880206" data-name="Path 880206" d="M87.255,217.238a.97.97,0,0,1,.317.021,12.556,12.556,0,0,1,3.11,1.288A16.1,16.1,0,0,1,92.3,219.7c.038.031.093.052.059.112a.2.2,0,0,1-.189.093c-.3,0-.591,0-.886,0-.066,0-.131,0-.2,0l-.421-.034c-.358-.141-.743-.182-1.1-.352a4.914,4.914,0,0,1-2.318-2.285" transform="translate(-69.96 -174.175)" fill="#7a4f00"/>
          <path id="Path_880207" data-name="Path 880207" d="M163.729,250.336a6.926,6.926,0,0,1-1.08-.049,1.319,1.319,0,0,1-1.007-1.046,19.7,19.7,0,0,1-.04-2.144q-.011-4.829,0-9.658a5.67,5.67,0,0,0-.563-2.347,6.582,6.582,0,0,0-1.447-2.061,6.773,6.773,0,0,0-2.468-1.527c-.171-.061-.349-.088-.517-.152-.061-.023-.132-.063-.117-.138s.094-.048.147-.049c.354,0,.708,0,1.061,0l.923.155a4.754,4.754,0,0,1,.841.314,6.624,6.624,0,0,1,3.047,2.5,8.579,8.579,0,0,1,1.132,2.76c.082,2.222.01,4.444.037,6.666q0,2.118-.008,4.236c0,.214,0,.427-.006.64a.473.473,0,0,0,.016.417c.021.5-.01.993.048,1.487" transform="translate(-125.47 -185.342)" fill="#665e66"/>
          <path id="Path_880208" data-name="Path 880208" d="M84.726,185.6a.175.175,0,0,1-.009-.034s.01-.008.014-.013a.075.075,0,0,1-.006.047" transform="translate(-67.925 -148.773)" fill="#756d78"/>
        </g>
      </g>
    </g>
  </g>
</svg>
