<svg xmlns="http://www.w3.org/2000/svg" xmlns:xlink="http://www.w3.org/1999/xlink" width="139" height="139" viewBox="0 0 139 139">
  <defs>
    <clipPath id="clip-path">
      <rect id="Rectangle_400938" data-name="Rectangle 400938" width="139" height="139" transform="translate(-0.043 -0.043)" fill="none"/>
    </clipPath>
    <clipPath id="clip-path-2">
      <rect id="Rectangle_401073" data-name="Rectangle 401073" width="105.872" height="47.68" fill="#7d3a1b"/>
    </clipPath>
    <clipPath id="clip-path-3">
      <rect id="Rectangle_402521" data-name="Rectangle 402521" width="72.027" height="72.023" fill="#6a4d23"/>
    </clipPath>
  </defs>
  <g id="Group_1101576" data-name="Group 1101576" transform="translate(-731 -10856.881)">
    <g id="Group_1100944" data-name="Group 1100944" transform="translate(0 3427)">
      <g id="Group_1099528" data-name="Group 1099528" transform="translate(466.043 2145.924)">
        <g id="Group_1099379" data-name="Group 1099379" transform="translate(265 5284)">
          <rect id="Rectangle_401103" data-name="Rectangle 401103" width="139" height="139" transform="translate(-0.043 -0.043)" fill="none"/>
          <g id="Group_1099348" data-name="Group 1099348" transform="translate(0)">
            <g id="Group_1099282" data-name="Group 1099282">
              <g id="Group_1099281" data-name="Group 1099281" clip-path="url(#clip-path-2)">
                <path id="Path_873375" data-name="Path 873375" d="M85.879,10.449c-4.752,0-7.21-2.33-9.379-4.386C74.371,4.047,72.538,2.3,68.7,2.3s-5.668,1.742-7.8,3.758c-2.17,2.056-4.624,4.386-9.379,4.386s-7.21-2.33-9.379-4.386C40.018,4.047,38.184,2.3,34.349,2.3s-5.668,1.742-7.794,3.758c-2.17,2.056-4.627,4.386-9.379,4.386S9.963,8.119,7.794,6.063C5.668,4.047,3.835,2.3,0,2.3V0C4.752,0,7.21,2.334,9.379,4.386c2.129,2.02,3.963,3.758,7.8,3.758s5.668-1.738,7.794-3.755C27.136,2.334,29.6,0,34.349,0s7.213,2.334,9.379,4.386c2.129,2.02,3.963,3.758,7.8,3.758s5.668-1.738,7.8-3.758C61.489,2.334,63.951,0,68.7,0s7.213,2.334,9.379,4.386c2.129,2.02,3.963,3.758,7.8,3.758s5.668-1.738,7.8-3.758C95.843,2.334,98.3,0,103.056,0V2.3c-3.835,0-5.668,1.742-7.8,3.758-2.169,2.056-4.627,4.386-9.379,4.386" transform="translate(2.816 37.231)" fill="#7d3a1b"/>
                <path id="Path_873376" data-name="Path 873376" d="M85.879,10.449c-4.752,0-7.213-2.33-9.379-4.39C74.371,4.043,72.538,2.3,68.7,2.3s-5.668,1.738-7.8,3.755c-2.166,2.06-4.624,4.39-9.379,4.39s-7.213-2.33-9.379-4.39C40.018,4.043,38.184,2.3,34.349,2.3s-5.668,1.742-7.794,3.755c-2.17,2.06-4.627,4.39-9.379,4.39s-7.213-2.33-9.383-4.39C5.668,4.043,3.835,2.3,0,2.3V0C4.752,0,7.213,2.33,9.379,4.386c2.129,2.02,3.963,3.758,7.8,3.758s5.668-1.738,7.794-3.758C27.136,2.33,29.6,0,34.349,0s7.213,2.33,9.383,4.386c2.126,2.02,3.959,3.758,7.794,3.758s5.668-1.738,7.8-3.758C61.489,2.33,63.951,0,68.7,0s7.213,2.33,9.379,4.386c2.129,2.02,3.963,3.758,7.8,3.758s5.668-1.738,7.8-3.758C95.846,2.33,98.3,0,103.059,0V2.3c-3.835,0-5.672,1.742-7.8,3.755-2.169,2.06-4.628,4.39-9.379,4.39" transform="translate(1.877 24.821)" fill="#7d3a1b"/>
                <path id="Path_873377" data-name="Path 873377" d="M85.879,10.449c-4.752,0-7.213-2.33-9.379-4.39C74.371,4.043,72.538,2.3,68.7,2.3s-5.668,1.738-7.8,3.755c-2.166,2.06-4.627,4.39-9.379,4.39s-7.213-2.33-9.379-4.39C40.018,4.043,38.184,2.3,34.349,2.3s-5.668,1.742-7.794,3.755c-2.169,2.06-4.627,4.39-9.379,4.39s-7.213-2.33-9.383-4.39C5.668,4.043,3.835,2.3,0,2.3V0C4.752,0,7.213,2.33,9.379,4.386c2.126,2.02,3.963,3.758,7.8,3.758s5.668-1.738,7.794-3.758C27.136,2.33,29.6,0,34.349,0s7.213,2.33,9.383,4.386c2.126,2.02,3.959,3.758,7.794,3.758s5.668-1.738,7.8-3.758C61.489,2.33,63.951,0,68.7,0s7.213,2.33,9.379,4.386c2.129,2.02,3.963,3.758,7.8,3.758s5.668-1.738,7.8-3.758C95.846,2.33,98.3,0,103.059,0V2.3c-3.835,0-5.672,1.742-7.8,3.755-2.169,2.06-4.627,4.39-9.379,4.39" transform="translate(0.939 12.41)" fill="#7d3a1b"/>
                <path id="Path_873378" data-name="Path 873378" d="M85.879,10.445c-4.752,0-7.21-2.33-9.379-4.386C74.371,4.043,72.538,2.3,68.7,2.3s-5.668,1.738-7.794,3.755c-2.169,2.056-4.627,4.386-9.383,4.386s-7.21-2.33-9.379-4.386C40.018,4.043,38.184,2.3,34.349,2.3s-5.668,1.738-7.794,3.751c-2.166,2.06-4.627,4.39-9.379,4.39S9.963,8.115,7.794,6.059C5.668,4.043,3.835,2.3,0,2.3V0C4.752,0,7.213,2.33,9.379,4.386c2.129,2.016,3.963,3.755,7.8,3.755S22.845,6.4,24.971,4.386C27.14,2.33,29.6,0,34.349,0s7.21,2.33,9.383,4.386c2.126,2.016,3.959,3.755,7.794,3.755s5.668-1.738,7.8-3.755C61.493,2.33,63.951,0,68.7,0s7.21,2.33,9.379,4.386c2.129,2.016,3.963,3.755,7.8,3.755s5.668-1.738,7.8-3.755C95.846,2.33,98.3,0,103.059,0V2.3c-3.839,0-5.672,1.738-7.8,3.755-2.169,2.056-4.627,4.386-9.379,4.386" transform="translate(0 0.004)" fill="#7d3a1b"/>
              </g>
            </g>
          </g>
          <path id="Path_873425" data-name="Path 873425" d="M57.977,0A57.977,57.977,0,1,1,0,57.977,57.977,57.977,0,0,1,57.977,0Z" transform="translate(17.221 20.665)" fill="#efb499"/>
          <circle id="Ellipse_11503" data-name="Ellipse 11503" cx="60.5" cy="60.5" r="60.5" transform="translate(8.957 8.957)" fill="#fff"/>
        </g>
      </g>
      <g id="Group_1099529" data-name="Group 1099529" transform="translate(413 1035.881)">
        <g id="Group_1099389" data-name="Group 1099389" transform="translate(347.893 6422.744)">
          <rect id="Rectangle_401104" data-name="Rectangle 401104" width="78" height="79" transform="translate(0.107 0.256)" fill="none"/>
        </g>
        <g id="Group_1100951" data-name="Group 1100951" transform="translate(351 6424.453)">
          <g id="Group_1100950" data-name="Group 1100950" clip-path="url(#clip-path-3)">
            <path id="Path_880903" data-name="Path 880903" d="M38.272,75.22a2.089,2.089,0,0,0-.025.217c0,1.023.012,2.047,0,3.07,0,.194.1.2.235.218.743.084,1.493.126,2.225.267A27.236,27.236,0,0,1,60.394,94.042a28.546,28.546,0,0,1,2.129,6.433A28.956,28.956,0,0,1,63,106.5c0,.183.061.232.232.247a2.267,2.267,0,0,1,1.921,1.575,2.2,2.2,0,0,1-.734,2.391,2.284,2.284,0,0,1-1.565.472q-3.135.008-6.271,0c-.258,0-.31.076-.305.322.018.946.018,1.892,0,2.838,0,.225.069.27.278.269q3.716-.01,7.432,0a2.244,2.244,0,0,1,2.277,1.6c.119.329.182.678.269,1.018.231.9.468,1.792.692,2.691.248,1,.476,2,.729,3,.168.661.181.661.851.656a4.218,4.218,0,0,1,1.846.254A2.332,2.332,0,0,1,72.028,126a2.287,2.287,0,0,1-1.905,2.056,4.285,4.285,0,0,1-.667.055q-33.457,0-66.914,0A2.447,2.447,0,0,1,.477,127.2a2.184,2.184,0,0,1,.851-3.35,4.849,4.849,0,0,1,1.3-.273,11.656,11.656,0,0,1,1.252-.01c.087-.314.178-.615.255-.921.451-1.806.9-3.613,1.349-5.419a8.4,8.4,0,0,1,.338-1.185,2.141,2.141,0,0,1,2.073-1.431c2.477-.017,4.954,0,7.431,0a.692.692,0,0,0,.255-.006c.073-.031.174-.118.174-.18,0-1-.008-1.995-.017-2.992,0-.075-.013-.15-.023-.252H15.4q-3.135,0-6.271,0a2.286,2.286,0,0,1-1.575-.52,2.232,2.232,0,0,1,1.232-3.918c.192-.016.233-.081.236-.268.018-1.152,0-2.307.094-3.453a21.749,21.749,0,0,1,.813-4.323,32.115,32.115,0,0,1,1.029-3.153A27.331,27.331,0,0,1,22,82.549a26.76,26.76,0,0,1,5.186-2.442,27.216,27.216,0,0,1,5.5-1.3c.29-.036.581-.065.873-.084.148-.009.211-.054.21-.216q-.008-1.548,0-3.1c0-.2-.116-.194-.25-.194-1.032,0-2.065.008-3.1-.007a2.343,2.343,0,0,1-2.275-2.036,2.228,2.228,0,0,1,1.84-2.393,5.266,5.266,0,0,1,.694-.053q5.38,0,10.761,0A2.288,2.288,0,0,1,43.6,71.924a2.189,2.189,0,0,1-.927,3,2.536,2.536,0,0,1-1.237.3c-.912-.011-1.824,0-2.735-.006h-.432m20.285,31.488c-.039-1.179-.013-2.326-.131-3.457A22.228,22.228,0,0,0,54.5,92.728a22.033,22.033,0,0,0-15.828-9.462,22.435,22.435,0,0,0-7.133.261,22.078,22.078,0,0,0-7.294,2.865,22.458,22.458,0,0,0-7.81,8.065A22.742,22.742,0,0,0,14.3,99.575a19.741,19.741,0,0,0-.66,3.485c-.112,1.153-.108,2.316-.159,3.475-.007.171.073.2.221.193.369-.014.739-.019,1.109-.019h43.75Zm4.962,16.849c-.009-.062-.011-.1-.02-.129q-.473-1.845-.946-3.69c-.053-.206-.037-.5-.168-.6-.147-.109-.425-.048-.646-.048l-30.419,0q-10.746,0-21.492-.012c-.148,0-.242.024-.281.187q-.278,1.177-.568,2.352c-.158.64-.323,1.278-.49,1.939Zm-43.281-8.952H51.79V111.2H20.238Z" transform="translate(-0.012 -56.092)" fill="#6a4d23"/>
            <path id="Path_880904" data-name="Path 880904" d="M4.477,167.593c-.8,0-1.6.019-2.4,0a2.281,2.281,0,0,1-1.969-1.539,2.241,2.241,0,0,1,.718-2.411,2.206,2.206,0,0,1,1.4-.514c1.513,0,3.025.011,4.538,0a2.237,2.237,0,0,1,.161,4.467c-.411.023-.825.015-1.237.018s-.808,0-1.212,0v-.015" transform="translate(0 -129.363)" fill="#6a4d23"/>
            <path id="Path_880905" data-name="Path 880905" d="M309.062,167.569c-.782,0-1.564.02-2.345,0a2.272,2.272,0,0,1-2.14-2.2,2.246,2.246,0,0,1,2.076-2.251c1.278-.048,2.56-.02,3.84-.023.318,0,.637-.008.953.014a2.307,2.307,0,0,1,2.112,2.16,2.284,2.284,0,0,1-2.048,2.29c-.815.033-1.632.006-2.448.006v0" transform="translate(-241.541 -129.337)" fill="#6a4d23"/>
            <path id="Path_880906" data-name="Path 880906" d="M167.62,4.518c0,.748-.016,1.5,0,2.244a2.292,2.292,0,0,1-1.673,2.143,2.233,2.233,0,0,1-2.422-.964,1.863,1.863,0,0,1-.358-1.058c0-1.6-.025-3.2,0-4.8a2.221,2.221,0,0,1,4.432-.018c.031.816.006,1.633.006,2.45h.007" transform="translate(-129.392 0)" fill="#6a4d23"/>
            <path id="Path_880907" data-name="Path 880907" d="M270.854,49.942a2.112,2.112,0,0,1-.616,1.546c-1.092,1.11-2.185,2.218-3.3,3.3a2.224,2.224,0,1,1-2.962-3.318c1-.98,1.984-1.981,2.979-2.969a3.332,3.332,0,0,1,.456-.377,2.044,2.044,0,0,1,2.2-.14,2.188,2.188,0,0,1,1.249,1.959" transform="translate(-208.736 -37.85)" fill="#6a4d23"/>
            <path id="Path_880908" data-name="Path 880908" d="M49.933,47.79a2.366,2.366,0,0,1,1.744.825c.96.96,1.912,1.927,2.878,2.88a2.282,2.282,0,0,1,.741,2.111,2.244,2.244,0,0,1-2.481,1.811,2.528,2.528,0,0,1-1.433-.8q-1.129-1.131-2.258-2.262a12.7,12.7,0,0,1-.957-1.008,2.031,2.031,0,0,1-.248-2.275,2.174,2.174,0,0,1,2.014-1.286" transform="translate(-37.813 -37.899)" fill="#6a4d23"/>
          </g>
        </g>
      </g>
    </g>
  </g>
</svg>
