<svg xmlns="http://www.w3.org/2000/svg" xmlns:xlink="http://www.w3.org/1999/xlink" width="190" height="134" viewBox="0 0 190 134">
  <defs>
    <clipPath id="clip-path">
      <rect id="Rectangle_402355" data-name="Rectangle 402355" width="87" height="87" transform="translate(342 951)" fill="#fff" stroke="#707070" stroke-width="1"/>
    </clipPath>
    <clipPath id="clip-path-2">
      <rect id="Rectangle_402360" data-name="Rectangle 402360" width="87" height="86.781" transform="translate(-1)" fill="#7d3a1b"/>
    </clipPath>
    <clipPath id="clip-path-3">
      <rect id="Rectangle_402359" data-name="Rectangle 402359" width="76.222" height="80.942" fill="#7d3a1b"/>
    </clipPath>
  </defs>
  <g id="Group_1100681" data-name="Group 1100681" transform="translate(-330 -7019)">
    <rect id="Rectangle_402215" data-name="Rectangle 402215" width="190" height="134" transform="translate(330 7019)" fill="none"/>
    <g id="Group_1100287" data-name="Group 1100287" transform="translate(16 -507)">
      <g id="Grupo_156312" data-name="Grupo 156312" transform="translate(344 7528)">
        <path id="Elipse_5845" data-name="Elipse 5845" d="M65.5,0A65.5,65.5,0,1,1,0,65.5,65.5,65.5,0,0,1,65.5,0Z" transform="translate(0 0)" fill="#ffce73"/>
      </g>
      <g id="Mask_Group_1098715" data-name="Mask Group 1098715" transform="translate(24 6599)" clip-path="url(#clip-path)">
        <g id="Group_1100697" data-name="Group 1100697" transform="translate(343 951.001)" clip-path="url(#clip-path-2)">
          <g id="Group_1100696" data-name="Group 1100696" transform="translate(4.337 3.203)">
            <g id="Group_1100695" data-name="Group 1100695" clip-path="url(#clip-path-3)">
              <path id="Path_880290" data-name="Path 880290" d="M14.81,67.253V63.084c-1.116,0-2.215,0-3.314,0a5.043,5.043,0,0,1-4.289-2.177,4.649,4.649,0,0,1-.877-3.283,4.874,4.874,0,0,1,3.35-4.311.264.264,0,0,0,.2-.3c-.005-.889.005-1.777,0-2.666a.4.4,0,0,0-.116-.292,2.81,2.81,0,0,1-1.232-2.431c-.017-3.1-.008-6.2-.007-9.305a3.049,3.049,0,0,1,1.2-2.576.418.418,0,0,0,.143-.287c.013-.869,0-1.739.019-2.608,0-.2-.06-.273-.248-.344a5.187,5.187,0,0,1-2.759-2.4,4.693,4.693,0,0,1-.428-3.567A4.879,4.879,0,0,1,9.6,23.053a6.415,6.415,0,0,1,2.356-.374c.945.01,1.89,0,2.854,0,.005-.081.015-.156.015-.23q0-10.059,0-20.119A2.145,2.145,0,0,1,17.073,0c.116,0,.232,0,.348,0Q42.052,0,66.683,0a4.433,4.433,0,0,1,.834.072,1.853,1.853,0,0,1,1.565,1.791c.024.375.014.753.015,1.13q.007,4.2.012,8.406c0,.761-.214,1.149-.753,1.361a1.109,1.109,0,0,1-1.545-.931c-.035-.384-.051-.772-.051-1.157q0-4.015.007-8.03V2.329h-.689L24.465,2.321c-2.3,0-4.6,0-6.9-.006-.271,0-.335.073-.334.339q.014,9.537.01,19.075v.95h.319c1.352.012,2.713-.07,4.054.057a5.077,5.077,0,0,1,4.653,5.125,5.171,5.171,0,0,1-3.559,4.733c0,.313,0,.637,0,.962,0,.628-.012,1.256,0,1.884a.423.423,0,0,0,.117.3,3.217,3.217,0,0,1,1.213,2.92c-.014.3.082.368.371.365,1.5-.013,2.994,0,4.492-.006a.365.365,0,0,0,.281-.122,2.012,2.012,0,0,1,1.942-1.128c1.043-.021,2.087-.018,3.129,0a1.872,1.872,0,0,1,1.756.876c.223.415.506.378.844.378q3.767,0,7.534-.01a.376.376,0,0,0,.284-.122,2.238,2.238,0,0,1,2.087-1.123q3.2-.016,6.4,0a1.216,1.216,0,0,1,1.311,1.121,1.162,1.162,0,0,1-.95,1.176,4.216,4.216,0,0,1-.663.052q-2.912.009-5.824.01c-.057,0-.114.006-.192.01v5.556h.314q11.78,0,23.559,0a3.1,3.1,0,0,0,2.375-.855,2.812,2.812,0,0,0-.869-4.473,3.31,3.31,0,0,0-1.349-.259q-5.911.016-11.823.009a1.222,1.222,0,0,1-1.3-.71,1.156,1.156,0,0,1,.818-1.594,2.7,2.7,0,0,1,.518-.049q3.68,0,7.36,0h.311c0-.1.014-.207.014-.31q0-9.711-.007-19.422a6.827,6.827,0,0,1,.06-.9,1.178,1.178,0,0,1,1.626-.977.969.969,0,0,1,.623.839,4.622,4.622,0,0,1,.032.665q0,9.7,0,19.394c0,.714.008.688.713.718a14,14,0,0,1,2.529.209,4.839,4.839,0,0,1,3.44,3,4.231,4.231,0,0,1,.417,2.111,5.27,5.27,0,0,1-2.836,4.366,4.882,4.882,0,0,1-2.454.551c-.588-.01-1.177,0-1.795,0-.009.169-.023.32-.023.471q0,14.741,0,29.482a9.088,9.088,0,0,1-.04,1.33,1.943,1.943,0,0,1-2.04,1.646c-.106.005-.212,0-.319,0H2.426a2.1,2.1,0,0,1-2.379-2.21,38.535,38.535,0,0,1,.011-4.054,2.791,2.791,0,0,1,2.49-2.711c.258-.05.313-.15.307-.4-.013-.6,0-1.2.029-1.8a2.719,2.719,0,0,1,2.657-2.514q4.52,0,9.041,0h.228M66.756,48.009h-.381q-9.867,0-19.734,0a1.848,1.848,0,0,1-1.627-.72,1.033,1.033,0,0,0-1-.463c-2.511.027-5.022.012-7.534.007a.385.385,0,0,0-.395.234A1.754,1.754,0,0,1,34.551,48c-1.217.017-2.434.011-3.651,0a1.7,1.7,0,0,1-1.545-.812.6.6,0,0,0-.7-.35,1.205,1.205,0,0,1-.145,0c-1.391,0-2.782.005-4.173-.005-.235,0-.308.072-.289.3a3.548,3.548,0,0,1-.011.579,2.966,2.966,0,0,1-1.183,2.317.43.43,0,0,0-.136.308c-.011.869,0,1.739-.012,2.609a.313.313,0,0,0,.249.368,5.059,5.059,0,0,1,3.265,5.467,5.118,5.118,0,0,1-5.013,4.3c-1.236,0-2.473,0-3.709,0-.2,0-.265.056-.263.262.012,1.092.008,2.184.013,3.276,0,.635.006.638.641.638q4.593,0,9.186,0a2.714,2.714,0,0,1,2.6,2.542c.013.589.023,1.179,0,1.768-.01.259.065.345.318.393A2.846,2.846,0,0,1,32.5,74.95c.014,1.1.017,2.2,0,3.3-.005.3.086.367.373.367q16.546-.013,33.093-.011h.792ZM30.128,78.619c0-1.372,0-2.7-.009-4.035,0-.08-.114-.192-.2-.231a.943.943,0,0,0-.369-.046q-6.678,0-13.356.007a5.228,5.228,0,0,1-.606-.029,1.145,1.145,0,0,1-.391-2.181,2.636,2.636,0,0,1,.978-.19c3.486-.013,6.972-.007,10.458-.007h.708c0-.543,0-1.026,0-1.509-.008-.779-.034-.8-.827-.8q-10.183,0-20.366,0a2.979,2.979,0,0,0-.633.05c-.1.021-.241.142-.243.221-.019.671-.011,1.342-.011,2.04h.288q2.129,0,4.259,0a2.681,2.681,0,0,1,.546.048,1.194,1.194,0,0,1,.956,1.1,1.11,1.11,0,0,1-.792,1.175,2.631,2.631,0,0,1-.714.08c-2.221.006-4.442,0-6.663.005-.682,0-.714.029-.719.723-.008,1.092,0,2.184-.009,3.275,0,.246.067.307.308.307q13.37-.007,26.74,0h.673M10.888,42.878q0,2.347,0,4.694c0,.506.15.665.646.665q4.736,0,9.472,0c.542,0,.666-.119.667-.666q.007-4.665,0-9.331c0-.077-.006-.155-.009-.232a.4.4,0,0,0-.436-.43c-.1,0-.193-.007-.29-.007H11.471c-.459,0-.583.123-.583.582q0,2.362,0,4.723m5.422-12.4v-.009c1.67,0,3.341,0,5.012,0a2.607,2.607,0,0,0,1.71-.675,2.667,2.667,0,0,0,.8-2.669,2.568,2.568,0,0,0-2.488-2.068c-1.545-.018-3.09-.013-4.635-.013-1.815,0-3.631-.011-5.446.014a2.494,2.494,0,0,0-2.382,1.555,2.618,2.618,0,0,0,.468,2.989,2.654,2.654,0,0,0,2.093.877c1.622-.014,3.244,0,4.867,0m-.025,24.877v0c-1.651,0-3.3,0-4.953,0a2.523,2.523,0,0,0-.716.066,2.715,2.715,0,0,0,.649,5.326c3.3.016,6.6.01,9.9.006a2.611,2.611,0,0,0,2.72-2.711,2.546,2.546,0,0,0-2.681-2.687c-1.641.006-3.282,0-4.924,0M36.41,44.417H44.48V41.4H36.41ZM12.3,32.845v2.376h8c0-.723-.01-1.417.006-2.11.006-.23-.078-.268-.282-.268-1.968.006-3.936,0-5.9,0H12.3m8,17.736H12.295v2.358H20.3ZM34.062,40.142H31.311v5.522h2.751Zm-5.109,4.284V41.392c-1.587,0-3.157,0-4.726,0-.194,0-.183.113-.183.247,0,.84.008,1.679,0,2.518,0,.224.077.276.286.275,1.534-.007,3.067,0,4.627,0" transform="translate(0 0)" fill="#7d3a1b"/>
              <path id="Path_880291" data-name="Path 880291" d="M127.929,44.069a12.262,12.262,0,1,1,12.029,12.24,12.285,12.285,0,0,1-12.029-12.24m12.333,9.88a9.912,9.912,0,1,0-9.988-9.792,9.893,9.893,0,0,0,9.988,9.792" transform="translate(-98.19 -24.396)" fill="#7d3a1b"/>
              <path id="Path_880292" data-name="Path 880292" d="M167.784,272.131q5.216,0,10.431,0a4.686,4.686,0,0,1,.664.032,1.1,1.1,0,0,1,.932.878,1.019,1.019,0,0,1-.412,1.125,1.512,1.512,0,0,1-.966.332q-10.634,0-21.269,0a1.559,1.559,0,0,1-1.046-.355,1.131,1.131,0,0,1,.485-1.966,3.3,3.3,0,0,1,.6-.053q5.288,0,10.576,0Z" transform="translate(-119.515 -208.865)" fill="#7d3a1b"/>
              <path id="Path_880293" data-name="Path 880293" d="M167.773,224.794H157.056a1.328,1.328,0,0,1-.987-.332,1.07,1.07,0,0,1-.286-1.194,1.212,1.212,0,0,1,1.142-.792c.067-.006.135,0,.2,0q10.688,0,21.376,0a1.268,1.268,0,0,1,1.246.675,1.17,1.17,0,0,1-1.085,1.646c-.1,0-.193,0-.29,0h-10.6" transform="translate(-119.512 -170.755)" fill="#7d3a1b"/>
              <path id="Path_880294" data-name="Path 880294" d="M163.068,299.222c-1.979,0-3.958.011-5.936-.011a1.938,1.938,0,0,1-.951-.251,1.016,1.016,0,0,1-.473-1.153,1.138,1.138,0,0,1,.96-.89,3.071,3.071,0,0,1,.6-.051q5.835-.005,11.67,0a1.461,1.461,0,0,1,1.329.551,1.121,1.121,0,0,1-.692,1.746,3.351,3.351,0,0,1-.661.059q-2.925.007-5.85,0" transform="translate(-119.486 -227.854)" fill="#7d3a1b"/>
              <path id="Path_880295" data-name="Path 880295" d="M207.925,249.55h-5.5a1.162,1.162,0,0,1-1.022-.5,1.077,1.077,0,0,1-.106-1.2,1.185,1.185,0,0,1,1.1-.681q2.723,0,5.447.005c1.883,0,3.766-.007,5.649-.005a1.219,1.219,0,0,1,1.244,1.273,1.236,1.236,0,0,1-1.269,1.1q-2.767,0-5.533,0" transform="translate(-154.395 -189.714)" fill="#7d3a1b"/>
              <path id="Path_880296" data-name="Path 880296" d="M160.117,249.549c-1.024,0-2.049-.03-3.071.01a1.3,1.3,0,0,1-1.34-1.162,1.258,1.258,0,0,1,1.341-1.224c1.594,0,3.187,0,4.781,0,.473,0,.947-.009,1.42,0a1.192,1.192,0,1,1,0,2.378c-1.043,0-2.086,0-3.129,0" transform="translate(-119.51 -189.712)" fill="#7d3a1b"/>
              <path id="Path_880297" data-name="Path 880297" d="M229.039,299.221c-.8,0-1.6,0-2.4,0-.192,0-.385-.024-.577-.039a1.089,1.089,0,0,1-1-1.121,1.116,1.116,0,0,1,.944-1.145,2.869,2.869,0,0,1,.518-.048q2.535-.005,5.07,0a1.4,1.4,0,0,1,1.271.551,1.1,1.1,0,0,1-.787,1.745c-1.01.055-2.026.013-3.039.013Z" transform="translate(-172.742 -227.854)" fill="#7d3a1b"/>
              <path id="Path_880298" data-name="Path 880298" d="M162.221,74.12c.8-.776,1.513-1.464,2.219-2.161.9-.888,1.792-1.787,2.692-2.675a1.157,1.157,0,1,1,1.657,1.611c-.861.888-1.743,1.754-2.615,2.63q-1.35,1.354-2.7,2.709c-.122.123-.248.244-.382.355a1.037,1.037,0,0,1-1.553-.029q-1.875-1.833-3.711-3.7a1.113,1.113,0,0,1,.036-1.592,1.162,1.162,0,0,1,1.6-.01c.886.862,1.756,1.741,2.626,2.619a.866.866,0,0,1,.133.248" transform="translate(-120.895 -52.904)" fill="#7d3a1b"/>
            </g>
          </g>
        </g>
      </g>
    </g>
  </g>
</svg>
