<svg xmlns="http://www.w3.org/2000/svg" xmlns:xlink="http://www.w3.org/1999/xlink" width="190" height="134" viewBox="0 0 190 134">
  <defs>
    <clipPath id="clip-path">
      <path id="Path_880313" data-name="Path 880313" d="M0,0H87V87H0Z" transform="translate(342 953)" fill="#fff" stroke="#707070" stroke-width="1"/>
    </clipPath>
    <clipPath id="clip-path-2">
      <rect id="Rectangle_402367" data-name="Rectangle 402367" width="85" height="85.014" fill="#7d3a1b"/>
    </clipPath>
  </defs>
  <g id="Group_1100686" data-name="Group 1100686" transform="translate(-330 -7019)">
    <rect id="Rectangle_402215" data-name="Rectangle 402215" width="190" height="134" transform="translate(330 7019)" fill="none"/>
    <g id="Group_1100287" data-name="Group 1100287" transform="translate(16 -507)">
      <g id="Grupo_156312" data-name="Grupo 156312" transform="translate(344 7528)">
        <path id="Elipse_5845" data-name="Elipse 5845" d="M65.5,0A65.5,65.5,0,1,1,0,65.5,65.5,65.5,0,0,1,65.5,0Z" transform="translate(0 0)" fill="#ffce73"/>
      </g>
      <g id="Mask_Group_1098716" data-name="Mask Group 1098716" transform="translate(24 6599)" clip-path="url(#clip-path)">
        <g id="Group_1100705" data-name="Group 1100705" transform="translate(343 954)">
          <g id="Group_1100704" data-name="Group 1100704" clip-path="url(#clip-path-2)">
            <path id="Path_880312" data-name="Path 880312" d="M61.533,22.65c-.208-.038-.342-.066-.477-.085a4.8,4.8,0,0,1-4.329-4.238,4.859,4.859,0,0,1,.538-2.79c.211-.473.489-.916.7-1.388a2.08,2.08,0,0,0,.137-.688,20.743,20.743,0,0,1,.2-2.841,9.771,9.771,0,0,1,12.062-7.5,9.642,9.642,0,0,1,6.706,5.693,11.3,11.3,0,0,1,.893,4.551,2.841,2.841,0,0,0,.377,1.353,7.536,7.536,0,0,1,.9,2.245,4.8,4.8,0,0,1-2.462,5.053c-.451.235-.941.4-1.431.6.126.075.267.17.417.244q1.262.629,2.529,1.25a2.068,2.068,0,0,1,.993.979,32.953,32.953,0,0,1,1.9,4.3,17.646,17.646,0,0,1,.938,6.352,4.467,4.467,0,0,1-.742,2.431,2.833,2.833,0,0,0,.292.036c.541,0,1.083,0,1.624,0A1.56,1.56,0,0,1,85,39.881c0,.087,0,.173,0,.26V83.166c0,.1,0,.195,0,.292A1.407,1.407,0,0,1,83.526,85c-.119.008-.238,0-.357,0H37.1a1.527,1.527,0,0,1-1.674-1.194c-.221-.644-.417-1.3-.621-1.945-.442-1.4-.881-2.8-1.326-4.2q-.815-2.565-1.639-5.126c-.07-.218-.17-.426-.276-.689-.326.872-.613,1.669-.921,2.457Q29,78.52,27.342,82.73c-.173.442-.335.889-.517,1.328a1.475,1.475,0,0,1-1.46.943c-1.321.015-2.642.019-3.963,0a1.417,1.417,0,0,1-1.549-1.264,5.04,5.04,0,0,1,.122-1.091c.02-.149.056-.3.091-.473H16.952c-.008.161-.023.329-.024.5,0,.336.026.673,0,1.007a1.318,1.318,0,0,1-1.37,1.312,1.383,1.383,0,0,1-1.4-1.366c-.018-.474,0-.949,0-1.45H7.02c0,.45.007.9,0,1.352a1.277,1.277,0,0,1-1.124,1.43A1.374,1.374,0,0,1,4.221,83.7c-.046-.5-.008-1.012-.008-1.535-.162-.01-.256-.021-.35-.021-.769,0-1.538,0-2.307,0A1.392,1.392,0,0,1,0,80.632c0-.087,0-.173,0-.26V58.47c0-1.252.548-1.8,1.8-1.8q1.755,0,3.509,0h.4c0-.126,0-.229,0-.333-.011-2.2-.027-4.4-.031-6.6a1.474,1.474,0,0,1,1.613-1.585q3.3,0,6.6,0A1.6,1.6,0,0,1,15.6,49.857c.006,2.123,0,4.246,0,6.369v.44h.352c1.159,0,2.318.013,3.476,0a1.663,1.663,0,0,1,1.835,1.811c-.025,4.365,0,8.73,0,13.1,0,.743,0,1.485.06,2.224.277-1.838.485-3.691.85-5.512a38.864,38.864,0,0,0,.563-6.493c.117-3.843.2-7.687.291-11.53,0-.183.017-.366.028-.591-.113-.008-.215-.02-.317-.021-.422,0-.845,0-1.267-.008a1.587,1.587,0,0,1-1.643-1.251c-.242-.863-.448-1.736-.681-2.6-.342-1.272-.695-2.542-1.044-3.812-.39-1.417-.788-2.832-1.171-4.251-.416-1.544-.82-3.091-1.227-4.638a2.815,2.815,0,0,1,.183-1.652q1.042-3.087,2.081-6.174c.509-1.516,1.02-3.031,1.517-4.55a7.774,7.774,0,0,1,2.048-3.152c1.061-1.038,2.1-2.1,3.158-3.137a.318.318,0,0,0,.08-.429,7.215,7.215,0,0,1-.688-3.592q.024-2.941,0-5.882A1.754,1.754,0,0,1,25,2.884c1.164-.729,2.273-1.547,3.449-2.257a4.612,4.612,0,0,1,6.211,1.536,4.477,4.477,0,0,1,.694,2.429q.009,3.444,0,6.889a4.223,4.223,0,0,1-.562,2.271.55.55,0,0,0,.124.79c.85.819,1.671,1.668,2.515,2.494a7.308,7.308,0,0,1,2.251,5.421c0,2.632-.018,5.264-.016,7.9a.66.66,0,0,0,.174.422q3.61,3.627,7.232,7.242c.319.32.688.146,1.08.2.008-.148.021-.272.021-.4,0-.737,0-1.473,0-2.21a1.451,1.451,0,0,1,1.091-1.54c2.2-.746,4.4-1.48,6.605-2.219.051-.017.105-.026.156-.044.851-.3.842-.306,1.021-1.185.333-1.631.725-3.252.995-4.893a2.169,2.169,0,0,1,1.214-1.706c.677-.36,1.331-.764,1.993-1.153a3.3,3.3,0,0,0,.289-.223m-21.4,25.486q1.14,17.021,2.276,33.985H82.114V48.136ZM2.886,59.545V79.3H18.434V59.554H15.584v2.811H12.719V59.528c-1.357,0-2.678.005-4,0-.271,0-.256.147-.254.334.008.758,0,1.515.015,2.273,0,.2-.07.265-.265.26-.487-.01-.975,0-1.462,0H5.7V59.545Zm36.68,22.6Q38.245,62.28,36.93,42.514a.976.976,0,0,0-.145-.025q-4.807,0-9.615,0c-.249,0-.275.107-.274.313,0,1.6-.011,3.206.006,4.808a3.667,3.667,0,0,0,.183,1.012c.255.836.548,1.661.813,2.495.828,2.6,1.645,5.212,2.475,7.816.715,2.243,1.441,4.482,2.164,6.723.514,1.593,1.035,3.185,1.546,4.779.468,1.46.924,2.924,1.389,4.385q.722,2.27,1.451,4.538c.259.813.508,1.63.779,2.439.044.132.176.327.278.333.515.034,1.034.016,1.586.016M36.855,39.654c0-.159,0-.267,0-.375q.011-8.5.019-16.994A4.341,4.341,0,0,0,35.567,19.1q-1.366-1.368-2.722-2.746a.354.354,0,0,0-.462-.071,6.46,6.46,0,0,1-1.171.469,5.435,5.435,0,0,1-3.971-.415.5.5,0,0,0-.7.115c-1.122,1.144-2.278,2.257-3.381,3.419a4.375,4.375,0,0,0-.862,1.319c-.384.938-.676,1.914-1,2.875-.374,1.1-.745,2.2-1.138,3.365L26.2,29.456a.847.847,0,0,0,.088-.1q1.033-2.094,2.062-4.19c.1-.206.189-.258.418-.137q.931.492,1.9.92c.234.1.266.227.174.423-.161.342-.331.68-.5,1.018-1.058,2.119-2.11,4.24-3.185,6.351a2.117,2.117,0,0,0-.272,1.012c.014,1.473.014,2.946.019,4.419,0,.158,0,.316,0,.479Zm45.267,1.415h-.245q-17.154,0-34.307.007a.661.661,0,0,0-.419.172c-.684.664-1.34,1.355-2.028,2.015-.884.848-1.3.733-2.06.355-.619-.308-1.233-.627-1.852-.936-.479-.239-.961-.471-1.44-.7-.024.036-.047.054-.046.071.064,1.026.133,2.051.193,3.076.012.209.137.209.288.206.39-.009.779-.019,1.169-.019l40.058,0h.69ZM72.94,19.742a18.118,18.118,0,0,0,1.956-.02,1.9,1.9,0,0,0,.975-.442,1.989,1.989,0,0,0,.449-2.428c-.287-.605-.633-1.185-.888-1.8a4.67,4.67,0,0,1-.3-1.278c-.063-.6-.024-1.212-.08-1.814A6.613,6.613,0,0,0,73.57,8.28a7.146,7.146,0,0,0-7.482-2.438,6.571,6.571,0,0,0-5.056,5.342,14.6,14.6,0,0,0-.12,2.558,3.076,3.076,0,0,1-.383,1.488,17.212,17.212,0,0,0-.835,1.685,1.958,1.958,0,0,0,1.863,2.853c.377-.027.758,0,1.137,0,.133,0,.265-.015.449-.027a4.115,4.115,0,0,1-.7-2.225c-.027-1.558-.051-3.117-.054-4.676a1.4,1.4,0,0,1,.364-1.047c.95-.949,1.888-1.91,2.848-2.849a1.318,1.318,0,0,1,1.99-.007c.739.715,1.452,1.458,2.19,2.174a.77.77,0,0,0,.467.206c.627.019,1.256,0,1.884-.007a1.531,1.531,0,0,1,1.243.589,1.581,1.581,0,0,1,.292,1.1c.01,1.278.008,2.556.008,3.834a5.085,5.085,0,0,1-.488,2.329c-.086.172-.152.353-.248.577m-50.055,62.4h1c.674,0,.68,0,.923-.611q1.33-3.359,2.654-6.721c.9-2.282,1.8-4.562,2.692-6.848a.955.955,0,0,0,.045-.585c-.49-1.556-1.012-3.1-1.509-4.656-.819-2.562-1.623-5.129-2.444-7.69-.123-.385-.3-.751-.484-1.187,0,.456.008.841,0,1.226-.053,2.186-.117,4.373-.165,6.559a46.277,46.277,0,0,1-.62,7.042c-.289,1.64-.537,3.287-.79,4.933-.283,1.838-.548,3.68-.825,5.519-.15.992-.309,1.983-.47,3.019M24.94,31.962l-5.658-1.884c-.185.547-.32,1.037-.516,1.5a2.869,2.869,0,0,0-.1,1.991c.548,1.92,1.068,3.848,1.6,5.774q.55,2,1.1,4c.289,1.051.576,2.1.875,3.152.031.108.136.274.213.277.547.024,1.095.013,1.662.013,0-.172,0-.3,0-.429Q24.109,40.3,24.1,34.242A2.5,2.5,0,0,1,24.43,33c.181-.328.331-.674.51-1.042m40.29,1.975c.222-.059.406-.112.591-.157q2.407-.593,4.815-1.181c.182-.044.246-.122.231-.313-.023-.313-.021-.628-.02-.942.008-2.513.021-5.026.022-7.538a.458.458,0,0,0-.146-.348,4.135,4.135,0,0,0-2.679-.854,6.864,6.864,0,0,1-.876.008.541.541,0,0,0-.249.045,8.938,8.938,0,0,1-.977.571c-.627.257-.74.68-.73,1.331.045,2.967.019,5.935.018,8.9v.474m8.446-2.118c.767-.182,1.482-.34,2.189-.527.241-.063.332,0,.386.229.175.747.362,1.491.549,2.235.05.2-.025.253-.216.3-1.325.3-2.647.623-3.968.94-.114.027-.223.076-.33.113v3.1c1.57,0,3.118.036,4.664-.012a2.559,2.559,0,0,0,2.339-2.339c.033-.5-.019-1-.006-1.493a12.028,12.028,0,0,0-.826-4.376c-.416-1.155-.973-2.26-1.473-3.384a.344.344,0,0,0-.155-.151q-1.279-.631-2.563-1.251c-.181-.088-.368-.161-.59-.257ZM62.357,38.193V25.376c-.517.326-1,.614-1.459.929a.592.592,0,0,0-.19.352c-.379,1.885-.772,3.767-1.111,5.66a2.044,2.044,0,0,1-1.692,1.8c-.335.077-.655.214-.985.314a.329.329,0,0,0-.257.381c.014.562,0,1.125,0,1.688v1.691Zm4.323-26.269c-.427.384-.843.731-1.222,1.115a.838.838,0,0,0-.225.528c-.012,1.277-.021,2.556.026,3.832a2.322,2.322,0,0,0,.336,1.09,2.87,2.87,0,0,0,5.25-1.182c.006-.844,0-1.688,0-2.533v-.617c-.09-.007-.142-.013-.193-.014-1.942-.016-1.586.157-2.992-1.239-.351-.349-.7-.7-.979-.979M26.894,8.507c0,.628,0,1.21,0,1.793a11.158,11.158,0,0,0,.047,1.587,2.84,2.84,0,0,0,3.2,2.252,2.764,2.764,0,0,0,2.423-2.657c.019-.908.007-1.817.006-2.725a2.172,2.172,0,0,0-.028-.249ZM12.721,50.949c-1.365,0-2.7,0-4.044,0-.223,0-.19.154-.19.293q0,2.533-.009,5.065v.343h4.244ZM39.69,34.662c-.011.115-.034.239-.035.363,0,1.179-.013,2.359.005,3.538a.537.537,0,0,0,.252.388c1.172.6,2.353,1.187,3.537,1.767a.322.322,0,0,0,.285-.008c.357-.324.7-.668,1.04-1L39.69,34.662m-7.133-29c0-.344-.006-.657,0-.969a1.682,1.682,0,0,0-.9-1.643,2.013,2.013,0,0,0-2.125.133c-.763.513-1.514,1.045-2.3,1.526a.66.66,0,0,0-.348.717c.017.2.089.247.281.244.865-.012,1.731-.009,2.6-.009h2.795m18.392,32.52H53.79v-2.7c-.911.3-1.8.6-2.683.9a.273.273,0,0,0-.151.2c-.013.528-.007,1.056-.007,1.6m18.436-2.391c-.92.226-1.82.445-2.718.672a.185.185,0,0,0-.115.13c-.008.535-.005,1.07-.005,1.595h2.838Z" transform="translate(0 0)" fill="#7d3a1b"/>
            <rect id="Rectangle_402364" data-name="Rectangle 402364" width="11.397" height="2.822" transform="translate(66.566 75.139)" fill="#7d3a1b"/>
            <rect id="Rectangle_402365" data-name="Rectangle 402365" width="8.539" height="2.821" transform="translate(69.416 69.423)" fill="#7d3a1b"/>
            <rect id="Rectangle_402366" data-name="Rectangle 402366" width="2.748" height="2.831" transform="translate(60.931 75.135)" fill="#7d3a1b"/>
          </g>
        </g>
      </g>
    </g>
  </g>
</svg>
