<svg xmlns="http://www.w3.org/2000/svg" xmlns:xlink="http://www.w3.org/1999/xlink" width="190" height="134" viewBox="0 0 190 134">
  <defs>
    <clipPath id="clip-path">
      <rect id="Rectangle_402355" data-name="Rectangle 402355" width="88" height="88" transform="translate(339 951)" fill="#7d3a1b" stroke="#707070" stroke-width="1"/>
    </clipPath>
    <clipPath id="clip-path-2">
      <rect id="Rectangle_402363" data-name="Rectangle 402363" width="85.011" height="85" fill="#7d3a1b"/>
    </clipPath>
  </defs>
  <g id="Group_1100684" data-name="Group 1100684" transform="translate(-330 -7019)">
    <rect id="Rectangle_402215" data-name="Rectangle 402215" width="190" height="134" transform="translate(330 7019)" fill="none"/>
    <g id="Group_1100287" data-name="Group 1100287" transform="translate(16 -507)">
      <g id="Grupo_156312" data-name="Grupo 156312" transform="translate(344 7528)">
        <path id="Elipse_5845" data-name="Elipse 5845" d="M65.5,0A65.5,65.5,0,1,1,0,65.5,65.5,65.5,0,0,1,65.5,0Z" transform="translate(0 0)" fill="#ffce73"/>
      </g>
      <g id="Mask_Group_1098715" data-name="Mask Group 1098715" transform="translate(24 6599)" clip-path="url(#clip-path)">
        <g id="Group_1100703" data-name="Group 1100703" transform="translate(341 952)">
          <g id="Group_1100702" data-name="Group 1100702" clip-path="url(#clip-path-2)">
            <path id="Path_880311" data-name="Path 880311" d="M11.323,14.018c-.638-.07-1.225-.108-1.8-.2a3.853,3.853,0,0,1-3.206-3.362,3.973,3.973,0,0,1,3.811-4.438c2.286-.179,4.571-.366,6.858-.536,3.016-.224,6.033-.422,9.049-.651,3.177-.242,6.353-.509,9.529-.761q1.441-.114,2.885-.2c.235-.014.339-.071.35-.33A3.709,3.709,0,0,1,42.481,0a3.562,3.562,0,0,1,3.081,1.615,3.453,3.453,0,0,1,.654,1.96c0,.218.078.286.3.3,1.741.119,3.48.257,5.221.385,1.306.1,2.612.184,3.917.283a4.87,4.87,0,0,1,.841.116,1.37,1.37,0,0,1,.993,1.27,1.279,1.279,0,0,1-1.32,1.1c-1.347-.073-2.692-.182-4.038-.277l-4.646-.329c-.344-.024-.691-.033-1.032-.079-.209-.028-.243.05-.243.228q.006,3.152,0,6.3c0,.172.008.346-.006.517-.018.225.082.273.29.257,2.347-.181,4.695-.348,7.041-.531,1.821-.142,3.64-.307,5.461-.449,2.347-.183,4.7-.348,7.043-.532,1.437-.112,2.871-.253,4.307-.365,1.376-.107,2.754-.193,4.131-.292.182-.013.364-.035.544-.063a1.468,1.468,0,0,0,.631-2.67,2.134,2.134,0,0,0-.895-.237c-1.951-.167-3.9-.317-5.856-.466-1-.077-2-.138-3.006-.214-1.3-.1-2.61-.2-3.914-.314a1.243,1.243,0,0,1,.143-2.481c.992.053,1.982.165,2.973.24,1.1.083,2.208.142,3.311.229,1.3.1,2.607.231,3.911.337.971.079,1.949.1,2.914.22A3.961,3.961,0,0,1,78.634,9.12a3.908,3.908,0,0,1-1.881,4.257,4.81,4.81,0,0,1-2.19.544c-.9.058-.913.044-.757.915.308,1.715.641,3.426.953,5.14q.316,1.734.6,3.474c.038.236.127.291.352.288a4.52,4.52,0,0,1,4.024,2.044,4.08,4.08,0,0,1,.511,4.047,12.453,12.453,0,0,1-17.733,5.9,12.006,12.006,0,0,1-5.177-5.8,4.6,4.6,0,0,1,4.373-6.187c.3.009.445-.04.506-.4.361-2.127.767-4.247,1.153-6.37.128-.707.245-1.416.366-2.113-.406,0-.816-.026-1.222,0q-3.339.249-6.676.522c-1.476.119-2.951.262-4.428.37-1.559.114-3.119.2-4.679.3-.5.03-.505.019-.506.5q0,6.334-.009,12.668a.3.3,0,0,0,.194.329,9.935,9.935,0,0,1,5.848,7.023c.053.215.067.441.134.651a.39.39,0,0,0,.225.219q1.378.426,2.764.827a35.073,35.073,0,0,1,4.766,1.816,41.546,41.546,0,0,1,9.058,5.6A42.714,42.714,0,0,1,79,57a40.61,40.61,0,0,1,3.551,7.552c.54,1.556.96,3.155,1.371,4.752a26.907,26.907,0,0,1,.845,5.028c.106,1.69.251,3.382.247,5.073,0,1.477-.174,2.955-.3,4.431a1.309,1.309,0,0,1-1.349,1.161c-.111.008-.223,0-.335,0Q42.513,85,2,85a3.447,3.447,0,0,1-.634-.055A1.208,1.208,0,0,1,.3,83.786c-.12-1.78-.279-3.562-.3-5.345-.013-1.426.154-2.854.254-4.28a11.746,11.746,0,0,1,.158-1.328,1.246,1.246,0,0,1,.888-1.06,1.148,1.148,0,0,1,1.529,1.153c-.024.739-.125,1.475-.193,2.212A31.247,31.247,0,0,0,2.5,80.7c.053.606.093,1.212.142,1.86H3l26.867-.008c.3,0,.61.016.913-.006a.332.332,0,0,0,.242-.189,7,7,0,0,1,1.332-2.607,5.462,5.462,0,0,0,1.218-2.838,4.783,4.783,0,0,0-2.8-4.8c-.858-.353-1.76-.6-2.647-.882-1.815-.573-3.686-1.009-5.438-1.733a6.755,6.755,0,0,1-4.122-5.486,9.831,9.831,0,0,1,.145-2.844A4.461,4.461,0,0,0,15.9,56.6c-1.748-.616-3.516-1.176-5.273-1.766-.138-.046-.227-.065-.332.08a42.3,42.3,0,0,0-3.16,5.015,37.617,37.617,0,0,0-2.827,6.775c-.09.3-.2.6-.307.89a1.22,1.22,0,0,1-1.45.85,1.2,1.2,0,0,1-.84-1.535c.227-.84.479-1.676.776-2.493A42.707,42.707,0,0,1,21,42.106a38.381,38.381,0,0,1,6.867-3.234c1.423-.5,2.88-.894,4.324-1.332a.553.553,0,0,0,.476-.5,9.992,9.992,0,0,1,5.922-7.484.29.29,0,0,0,.212-.309q-.015-6.425-.015-12.851c0-.23-.078-.3-.292-.311q-1.883-.127-3.765-.272c-1.031-.08-2.061-.179-3.093-.26-1.062-.083-2.125-.151-3.188-.232-1.082-.082-2.163-.177-3.246-.258s-2.186-.154-3.28-.229c-.21-.014-.42-.022-.661-.035l1.638,8.91c.339.02.664.021.984.061a4.6,4.6,0,0,1,3.395,7.014,12.387,12.387,0,0,1-7.326,6.08A12,12,0,0,1,9.19,35.236a11.764,11.764,0,0,1-4.379-5.3,4.2,4.2,0,0,1,.806-4.592,4.5,4.5,0,0,1,3.66-1.608c.237,0,.323-.059.366-.3.474-2.652.965-5.3,1.447-7.953.087-.476.152-.956.233-1.464m.76,38.683a2.322,2.322,0,0,0,.259.131c.673.224,1.35.434,2.019.666a27.944,27.944,0,0,1,2.767,1,6.824,6.824,0,0,1,3.952,5.143,9.648,9.648,0,0,1-.052,2.97,4.5,4.5,0,0,0,3.234,4.927c2.25.675,4.51,1.317,6.743,2.044a7.009,7.009,0,0,1,4.71,4.864,6.836,6.836,0,0,1-.54,5.415c-.326.613-.786,1.154-1.168,1.739-.184.282-.33.59-.523.938H82.344a30.865,30.865,0,0,0,.058-6.97c-.852.079-1.668.164-2.486.23-1.507.121-3.02.187-4.521.356a9.19,9.19,0,0,1-6.174-1.323,8.639,8.639,0,0,1-3.844-5.241,11.351,11.351,0,0,0-.639-1.991,6.3,6.3,0,0,0-4.481-3.556c-.738-.17-1.5-.219-2.248-.372a15.65,15.65,0,0,1-3.067-.735,8.9,8.9,0,0,1-5.487-6.832,23.589,23.589,0,0,1-.218-2.392c-.269-2.816-.547-5.632-.816-8.448-.186-1.948-.371-3.9-.533-5.848-.024-.291-.134-.384-.394-.4-1-.072-2-.155-3-.227a39.684,39.684,0,0,0-6.448.138,39.192,39.192,0,0,0-4.458.773,37.113,37.113,0,0,0-9.348,3.373A39.9,39.9,0,0,0,13.329,51.3c-.416.442-.806.907-1.245,1.4M82.16,73.087A39.7,39.7,0,0,0,50.4,39.514a.839.839,0,0,0-.019.175c.1.989.213,1.976.307,2.965q.275,2.891.534,5.785c.079.889.128,1.78.211,2.669.125,1.343.3,2.681.394,4.026a6.39,6.39,0,0,0,5.4,5.923c.9.16,1.8.286,2.7.431a9.249,9.249,0,0,1,4.809,2.174,8.725,8.725,0,0,1,2.829,4.717,6.852,6.852,0,0,0,1.555,3.22,6.66,6.66,0,0,0,6,2.118c2.027-.213,4.062-.36,6.093-.537.311-.027.622-.062.949-.094M38.768,6.336c-.12.011-.219.023-.318.03-2.944.209-5.889.412-8.833.629-2.337.172-4.672.36-7.008.544q-3.139.247-6.279.5c-2.053.161-4.106.308-6.158.485a1.768,1.768,0,0,0-.9.3,1.339,1.339,0,0,0-.538,1.505,1.42,1.42,0,0,0,1.307,1.1q1.046.1,2.093.174c2.934.22,5.868.432,8.8.656,1.608.123,3.214.269,4.822.392,1.092.083,2.188.133,3.28.216,1.314.1,2.627.226,3.941.33,1.507.12,3.014.229,4.521.343.418.032.837.067,1.264.1Zm-22.493,28.7A11.194,11.194,0,0,0,21.192,33.7a10.029,10.029,0,0,0,4.029-4.236,2.24,2.24,0,0,0,.317-1.34,2.092,2.092,0,0,0-2.3-1.9c-4.242.017-8.484.006-12.726.011-.629,0-1.259,0-1.885.051a1.66,1.66,0,0,0-.756.274,2.065,2.065,0,0,0-.7,2.736,10.115,10.115,0,0,0,4.191,4.446,10.8,10.8,0,0,0,4.914,1.3m52.541-8.8v0q-3.091,0-6.183,0c-.477,0-.954.014-1.429.045a2.031,2.031,0,0,0-1.717,2.32,5.023,5.023,0,0,0,.825,1.782,9.933,9.933,0,0,0,5.77,4.26,9.617,9.617,0,0,0,5.35,0,9.884,9.884,0,0,0,6.456-5.463,1.987,1.987,0,0,0-.3-2.226,2.194,2.194,0,0,0-1.855-.722q-3.457.007-6.914,0M43.752,28.781V28.29q.007-12.176.012-24.353a2.681,2.681,0,0,0-.042-.514,1.229,1.229,0,0,0-1.741-.864,1.311,1.311,0,0,0-.749,1.316c0,.781.022,1.563.022,2.344q0,11.142,0,22.283v.279Zm-23.364-5.07c-.251-1.365-.495-2.677-.735-3.99-.3-1.634-.6-3.268-.883-4.9a.293.293,0,0,0-.319-.278c-.243-.018-.487-.024-.729-.042q-1.837-.133-3.674-.269c-.138-.01-.252-.022-.286.172-.14.808-.3,1.614-.444,2.421-.3,1.643-.605,3.286-.9,4.931-.114.644-.2,1.293-.3,1.96Zm52.479.007c-.006-.078-.006-.137-.015-.194-.214-1.3-.413-2.6-.648-3.894-.316-1.743-.658-3.481-1-5.22a.281.281,0,0,0-.217-.161c-1.458.093-2.914.2-4.372.3-.27.018-.375.148-.415.407-.119.771-.255,1.539-.393,2.307q-.492,2.751-.993,5.5c-.057.313-.129.624-.2.957Zm-37.7,13.155a43.014,43.014,0,0,1,14.659,0,7.4,7.4,0,0,0-7.152-5.661c-3.4-.095-6.311,1.859-7.507,5.662" transform="translate(0 0.001)" fill="#7d3a1b"/>
          </g>
        </g>
      </g>
    </g>
  </g>
</svg>
