<svg xmlns="http://www.w3.org/2000/svg" xmlns:xlink="http://www.w3.org/1999/xlink" width="121" height="121" viewBox="0 0 121 121">
  <defs>
    <clipPath id="clip-path">
      <rect id="Rectangle_400938" data-name="Rectangle 400938" width="121" height="121" transform="translate(0 0)" fill="none"/>
    </clipPath>
    <clipPath id="clip-path-2">
      <rect id="Rectangle_401073" data-name="Rectangle 401073" width="92.219" height="41.532" fill="#efb499"/>
    </clipPath>
    <clipPath id="clip-path-3">
      <rect id="Rectangle_402982" data-name="Rectangle 402982" width="56" height="70.333" fill="#7a4f00"/>
    </clipPath>
  </defs>
  <g id="Group_1101579" data-name="Group 1101579" transform="translate(-1091 -3625.788)">
    <g id="Group_1099376" data-name="Group 1099376" transform="translate(703.332 -2387.212)">
      <rect id="Rectangle_401103" data-name="Rectangle 401103" width="121" height="121" transform="translate(387.668 6013)" fill="none"/>
      <g id="Group_1099348" data-name="Group 1099348" transform="translate(387.668 6013)">
        <g id="Group_1099282" data-name="Group 1099282">
          <g id="Group_1099281" data-name="Group 1099281" clip-path="url(#clip-path-2)">
            <path id="Path_873375" data-name="Path 873375" d="M74.8,9.1c-4.139,0-6.28-2.03-8.17-3.821-1.855-1.756-3.452-3.274-6.792-3.274s-4.937,1.517-6.792,3.274C51.161,7.072,49.023,9.1,44.881,9.1s-6.28-2.03-8.169-3.821C34.857,3.525,33.26,2.007,29.92,2.007s-4.937,1.517-6.789,3.274C21.241,7.072,19.1,9.1,14.962,9.1S8.679,7.072,6.789,5.281C4.937,3.525,3.34,2.007,0,2.007V0C4.139,0,6.28,2.033,8.17,3.821c1.855,1.759,3.452,3.274,6.792,3.274S19.9,5.58,21.75,3.824C23.637,2.033,25.781,0,29.92,0s6.283,2.033,8.17,3.821c1.855,1.759,3.452,3.274,6.792,3.274s4.937-1.514,6.792-3.274C53.56,2.033,55.7,0,59.843,0s6.283,2.033,8.17,3.821C69.867,5.58,71.464,7.094,74.8,7.094S79.742,5.58,81.6,3.821C83.483,2.033,85.624,0,89.766,0V2.007c-3.34,0-4.937,1.517-6.792,3.274C81.084,7.072,78.943,9.1,74.8,9.1" transform="translate(2.453 32.43)" fill="#efb499"/>
            <path id="Path_873376" data-name="Path 873376" d="M74.8,9.1c-4.139,0-6.283-2.03-8.17-3.824-1.855-1.756-3.452-3.27-6.792-3.27s-4.937,1.514-6.792,3.27C51.164,7.072,49.023,9.1,44.881,9.1s-6.283-2.03-8.17-3.824c-1.855-1.756-3.452-3.27-6.792-3.27s-4.937,1.517-6.789,3.27C21.241,7.072,19.1,9.1,14.962,9.1S8.679,7.072,6.789,5.278C4.937,3.522,3.34,2.007,0,2.007V0C4.139,0,6.283,2.03,8.17,3.821c1.855,1.759,3.452,3.274,6.792,3.274S19.9,5.58,21.75,3.821C23.637,2.03,25.781,0,29.92,0S36.2,2.03,38.093,3.821c1.852,1.759,3.449,3.274,6.789,3.274s4.937-1.514,6.792-3.274C53.56,2.03,55.7,0,59.843,0s6.283,2.03,8.17,3.821C69.867,5.58,71.464,7.094,74.8,7.094S79.742,5.58,81.6,3.821C83.486,2.03,85.627,0,89.769,0V2.007c-3.34,0-4.94,1.517-6.8,3.27C81.084,7.072,78.943,9.1,74.8,9.1" transform="translate(1.635 21.62)" fill="#efb499"/>
            <path id="Path_873377" data-name="Path 873377" d="M74.8,9.1c-4.139,0-6.283-2.03-8.169-3.824-1.855-1.756-3.452-3.27-6.792-3.27s-4.937,1.514-6.792,3.27C51.164,7.072,49.02,9.1,44.881,9.1s-6.283-2.03-8.17-3.824c-1.855-1.756-3.452-3.27-6.792-3.27s-4.937,1.517-6.789,3.27C21.241,7.072,19.1,9.1,14.962,9.1S8.678,7.072,6.789,5.278C4.937,3.522,3.34,2.007,0,2.007V0C4.139,0,6.283,2.03,8.169,3.821c1.851,1.759,3.452,3.274,6.792,3.274S19.9,5.58,21.75,3.821C23.637,2.03,25.781,0,29.92,0S36.2,2.03,38.093,3.821c1.852,1.759,3.449,3.274,6.789,3.274s4.937-1.514,6.792-3.274C53.56,2.03,55.7,0,59.843,0s6.283,2.03,8.17,3.821C69.867,5.58,71.464,7.094,74.8,7.094S79.742,5.58,81.6,3.821C83.486,2.03,85.624,0,89.769,0V2.007c-3.34,0-4.941,1.517-6.8,3.27C81.084,7.072,78.943,9.1,74.8,9.1" transform="translate(0.818 10.81)" fill="#efb499"/>
            <path id="Path_873378" data-name="Path 873378" d="M74.8,9.1c-4.139,0-6.28-2.03-8.17-3.821-1.855-1.756-3.452-3.27-6.792-3.27s-4.937,1.514-6.789,3.27C51.164,7.069,49.023,9.1,44.881,9.1s-6.28-2.03-8.169-3.821c-1.855-1.756-3.452-3.27-6.792-3.27s-4.937,1.514-6.789,3.267C21.245,7.069,19.1,9.1,14.962,9.1S8.678,7.069,6.789,5.278C4.937,3.522,3.34,2.007,0,2.007V0C4.139,0,6.283,2.03,8.17,3.821c1.855,1.756,3.452,3.27,6.792,3.27S19.9,5.577,21.75,3.821C23.64,2.03,25.781,0,29.92,0s6.28,2.03,8.173,3.821c1.852,1.756,3.449,3.27,6.789,3.27s4.937-1.514,6.792-3.27C53.563,2.03,55.7,0,59.843,0s6.28,2.03,8.17,3.821c1.855,1.756,3.452,3.27,6.792,3.27s4.937-1.514,6.792-3.27C83.486,2.03,85.627,0,89.769,0V2.007c-3.344,0-4.941,1.514-6.8,3.27C81.084,7.069,78.943,9.1,74.8,9.1" transform="translate(0 0.003)" fill="#efb499"/>
          </g>
        </g>
      </g>
      <circle id="Ellipse_11504" data-name="Ellipse 11504" cx="50.5" cy="50.5" r="50.5" transform="translate(402.668 6031)" fill="#ffce73"/>
      <circle id="Ellipse_11503" data-name="Ellipse 11503" cx="52.5" cy="52.5" r="52.5" transform="translate(395.668 6021)" fill="#f3f9ff"/>
    </g>
    <g id="Group_1099377" data-name="Group 1099377" transform="translate(1116.941 3651.592)">
      <rect id="Rectangle_401104" data-name="Rectangle 401104" width="68" height="69" transform="translate(0.059 -2.591)" fill="none"/>
      <g id="Group_1101546" data-name="Group 1101546" transform="translate(6.059 -2.592)">
        <g id="Group_1101545" data-name="Group 1101545" clip-path="url(#clip-path-3)">
          <path id="Path_883455" data-name="Path 883455" d="M55.513,23l.234.495c-.009.034.011.045.043.047l.056.159-.037.02.038.015.011.063c-.011.033.011.044.039.052a4.125,4.125,0,0,1,.1,1.075q0,28.432,0,56.865,0,1.687,0,3.375a2.727,2.727,0,0,1-.455,1.629A2.57,2.57,0,0,1,53.5,87.867c-.118.008-.236,0-.355,0q-25.154,0-50.308.008A2.9,2.9,0,0,1,.487,86.872a2.036,2.036,0,0,1-.434-1.109,8.262,8.262,0,0,1-.047-.9q0-29.818,0-59.635a6.667,6.667,0,0,1,.036-1.174A2.563,2.563,0,0,1,2.4,22.025c.406-.006.816-.036,1.224-.036q6.087,0,12.174,0a.351.351,0,0,1,.037.195c0,1.527,0,3.054-.006,4.581a1.044,1.044,0,0,1-.021.5l-1.3.029H14.46l-.545,0H8.455a.6.6,0,0,0-.273,0c-.282,0-.565-.029-.844-.007a1.372,1.372,0,0,0-1.223.771,1.948,1.948,0,0,0-.1.878q-.007,23.785,0,47.57c0,.294,0,.587.006.881-.006.075-.018.15-.018.225,0,1.2,0,2.4,0,3.6a1.4,1.4,0,0,0,1.569,1.414H48.406a2.011,2.011,0,0,0,.353-.021,1.481,1.481,0,0,0,1.249-1.5q-.014-26.15-.007-52.3c0-.1,0-.2-.005-.3a1.207,1.207,0,0,0-.4-.853,1.7,1.7,0,0,0-1.267-.419c-1.055-.014-2.111,0-3.166,0a.435.435,0,0,0-.238.036l-.273,0c-1.49.008-2.981.026-4.471-.019a.777.777,0,0,1-.032-.171c.044-1.267.009-2.534.018-3.8,0-.427.009-.854.014-1.281.5-.005,1-.015,1.5-.016q5.724,0,11.448,0a3.149,3.149,0,0,1,1.5.295,3.758,3.758,0,0,1,.837.66l.049.06" transform="translate(0 -17.545)" fill="#7a4f00"/>
          <path id="Path_883456" data-name="Path 883456" d="M72.108,9.718a1.041,1.041,0,0,0,.021-.5c0-1.527,0-3.054.006-4.581a.35.35,0,0,0-.037-.195c1.109.075,2.219.033,3.329.042.1,0,.2,0,.3-.006a.094.094,0,0,0,.108-.043c.138-.015.1-.115.111-.193A4.5,4.5,0,0,1,78.378.617,5.089,5.089,0,0,1,80.9.014c2.292-.016,4.585-.022,6.877,0a5.081,5.081,0,0,1,2.966.914,4.615,4.615,0,0,1,1.853,2.814,1.922,1.922,0,0,1,.062.472c0,.1.011.208.159.226.061.068.142.044.219.04,1,.012,2.008.019,3.012-.038.144-.008.289.009.433.015,0,.427-.011.854-.014,1.281-.009,1.267.026,2.534-.018,3.8a.777.777,0,0,0,.032.171c0,.067-.009.134-.007.2a5.286,5.286,0,0,1,.012.948A1.283,1.283,0,0,1,95.1,11.9H73.462a1.22,1.22,0,0,1-1.3-.975c-.087-.4,0-.8-.052-1.2" transform="translate(-56.297 0)" fill="#b0c0d2"/>
          <path id="Path_883457" data-name="Path 883457" d="M166.846,21.812c-.077,0-.157.028-.219-.04.091-.071.17-.088.219.04" transform="translate(-130.108 -17.33)" fill="#ebe6e7"/>
          <path id="Path_883458" data-name="Path 883458" d="M88.753,21.835a.094.094,0,0,1-.108.043c.015-.06.033-.114.108-.043" transform="translate(-69.217 -17.397)" fill="#ebe6e7"/>
          <path id="Path_883459" data-name="Path 883459" d="M253.121,26.78l-.049-.06.049.06" transform="translate(-197.608 -21.322)" fill="#fbeff1"/>
          <path id="Path_883460" data-name="Path 883460" d="M254.4,29.516c-.032,0-.051-.013-.043-.046l.043.046" transform="translate(-198.61 -23.516)" fill="#fbeff1"/>
          <path id="Path_883461" data-name="Path 883461" d="M254.688,30.521l-.038-.015.037-.02c0,.012,0,.023,0,.035" transform="translate(-198.84 -24.327)" fill="#fbeff1"/>
          <path id="Path_883462" data-name="Path 883462" d="M254.9,31.019c-.029-.007-.05-.019-.039-.052Z" transform="translate(-199.003 -24.711)" fill="#fbeff1"/>
          <path id="Path_883463" data-name="Path 883463" d="M37.236,48.079c.054.4-.035.8.052,1.2a1.22,1.22,0,0,0,1.3.975H60.225a1.283,1.283,0,0,0,1.387-1.035,5.287,5.287,0,0,0-.012-.948c0-.067,0-.134.007-.2,1.49.044,2.981.027,4.471.018h.272a13.416,13.416,0,0,0-.054,1.73q0,2.177,0,4.354c0,.117.028.235.031.348a2.612,2.612,0,0,1-.089,1.283,1.2,1.2,0,0,0-1.046-.42q-7.994.008-15.988,0a6.068,6.068,0,0,0-1.037.05c-.409.07-.912.662-.808,1.021a1.26,1.26,0,0,0,1.4,1.054q8.158-.019,16.315,0a1.589,1.589,0,0,0,1-.314.561.561,0,0,1,.224.545q-.009,4.242,0,8.484c0,.4.08.8.055,1.2a.373.373,0,0,1-.161.352,1.411,1.411,0,0,0-1.071-.345H59.363q-5.28,0-10.561,0a1.554,1.554,0,0,0-1.037.243.984.984,0,0,0-.4.88,1.225,1.225,0,0,0,1.093.983,5.28,5.28,0,0,0,.914.028c5.194-.006,10.388.032,15.581-.014a1.838,1.838,0,0,0,1.167-.337c.259.281.171.617.171.937,0,2.672,0,5.344.006,8.015,0,.433.066.866.052,1.3,0,.147-.03.268-.217.295a3.829,3.829,0,0,0-.505-.222,5.43,5.43,0,0,0-1.324-.073q-7.695,0-15.39-.005a3.446,3.446,0,0,0-.755.068.941.941,0,0,0-.768.851A1.107,1.107,0,0,0,47.9,81.4a2.265,2.265,0,0,0,1.135.232c3.138-.011,6.276-.006,9.414-.009,2.192,0,4.384-.015,6.576-.012a1.741,1.741,0,0,0,1.105-.38,1.146,1.146,0,0,1,.17.672c.023,1.508-.019,3.016.035,4.525.061,1.71.013,3.423.016,5.134a.283.283,0,0,1-.178.308,1.352,1.352,0,0,0-.976-.306q-8.266,0-16.532,0a2.737,2.737,0,0,0-.588.075.921.921,0,0,0-.711.92c.036.214,0,.465.206.645a2,2,0,0,0,.79.426,3.225,3.225,0,0,0,.914.035q7.829,0,15.659,0a1.976,1.976,0,0,0,1.228-.38c.2.148.14.346.133.539-.037,1.07.024,2.14.01,3.21A1.258,1.258,0,0,1,65.2,98.151c-.352.022-.7.068-1.057.062-1.662-.026-3.325.034-4.987-.051-.507-.026-1.015.038-1.521.04-3.406.014-6.813.007-10.219.007q-1.842,0-3.684,0a3.9,3.9,0,0,0-.483-.032,5.4,5.4,0,0,1-1.054,0,2.067,2.067,0,0,0-.854.009c-.137.047-.437.166-.485-.163a1.324,1.324,0,0,0,.483-1.075c.018-.9,0-1.8,0-2.7A.931.931,0,0,1,41.575,94q1.093-.87,2.184-1.742a2.25,2.25,0,0,0,.611-.635,1.051,1.051,0,0,0-.981-1.577,1.672,1.672,0,0,0-1.058.5c-.419.329-.79.707-1.228,1.015a.96.96,0,0,0-.571-.391,2.538,2.538,0,0,0-.564-.063q-2.606-.006-5.212,0a1.238,1.238,0,0,0-.65.147,1.166,1.166,0,0,0-.619,1.053c0,1.452,0,2.9,0,4.356a1.644,1.644,0,0,0,.387,1.288.264.264,0,0,1-.327.254,12.429,12.429,0,0,0-1.257,0c-.963.011-1.927.015-2.891,0a10.964,10.964,0,0,0-1.949,0c0-.294-.005-.587-.005-.881q0-23.785,0-47.57a1.948,1.948,0,0,1,.1-.878,1.372,1.372,0,0,1,1.223-.771c.279-.022.563,0,.844.007.092.115.183.117.273,0H30.1c.073.121.146.122.219,0h.218c.006.015.009.04.018.042.038.008.033-.023.038-.043h.163c.006.015.008.041.018.043.038.008.033-.023.038-.043h.163c.006.015.009.041.018.043.038.008.033-.023.038-.043h.163c.006.015.008.041.018.043.038.008.033-.023.038-.043h.163c.006.015.009.041.018.043.038.008.033-.023.038-.043h.163c.005.015.008.041.017.043.038.008.033-.023.038-.043h.163c.006.015.009.041.018.043.038.008.033-.023.038-.043h.163c.005.015.008.041.017.043.038.008.033-.023.038-.043h.163c.006.015.009.041.018.043.038.008.033-.023.038-.043H32.5c.006.015.009.041.018.043.038.008.033-.023.038-.043h.163c.006.015.008.041.018.043.038.008.033-.023.038-.043h.163c.006.015.009.041.018.043.038.008.033-.023.038-.043h.163c.006.015.008.041.018.043.038.008.033-.023.038-.043h.163c.006.015.009.041.018.043.038.008.033-.023.038-.043h.163c.005.015.008.041.017.043.038.008.033-.023.038-.043h.163c.006.015.009.041.018.043.038.008.033-.023.038-.043h.163c.005.015.008.041.017.043.038.008.033-.023.038-.043h.163c.006.015.008.041.018.043.038.008.033-.023.038-.043h.163c.006.015.009.041.018.043.038.008.033-.023.038-.043h.163c.006.015.008.041.018.043.038.008.033-.023.038-.043H34.9c.006.015.009.041.018.043.038.008.033-.023.038-.043h.163c.073.072.146.13.219,0l.546,0,.028.054.028-.054,1.3-.029m4.1,34.123a1.647,1.647,0,0,1,.357-.342c.786-.632,1.575-1.261,2.354-1.9a1.153,1.153,0,0,0,.464-1.024,1.1,1.1,0,0,0-1-.924,1.629,1.629,0,0,0-1.2.518c-.417.315-.809.659-1.213.99a1.221,1.221,0,0,0-1.1-.457c-1.746.007-3.493.029-5.238-.01a1.235,1.235,0,0,0-1.266,1.155c0,1.578-.01,3.155,0,4.733a1.214,1.214,0,0,0,1.121,1.255,3.134,3.134,0,0,0,.673.077c1.528,0,3.057.022,4.584-.012.992-.022,1.406-.448,1.461-1.214.068-.944.009-1.895.005-2.843m-.178-26.861A.181.181,0,0,1,41,55.3a1.572,1.572,0,0,0-1.268-.4c-1.618-.019-3.237-.009-4.856-.007a1.31,1.31,0,0,0-1.391,1.233c-.012,1.577-.014,3.154,0,4.731.006.569.241,1.089,1.176,1.26a6.556,6.556,0,0,0,1.2.031c1.323,0,2.646.013,3.968,0,1.061-.013,1.468-.528,1.5-1.34.041-.9.006-1.812,0-2.718.5-.5,1.095-.9,1.641-1.354a13.141,13.141,0,0,0,1.3-1.174.934.934,0,0,0,0-1.271,1.211,1.211,0,0,0-1.324-.3,2.814,2.814,0,0,0-.742.517,11.059,11.059,0,0,1-1.062.838m-.007,12.089c-.034-.01-.083-.01-.1-.031a1.368,1.368,0,0,0-1.164-.424q-2.524,0-5.049,0a1.211,1.211,0,0,0-1.347,1.2q-.017,2.354,0,4.709a1.2,1.2,0,0,0,.925,1.222,3.226,3.226,0,0,0,.857.123c1.519,0,3.038,0,4.558,0a1.383,1.383,0,0,0,1.515-1.363c.011-.915,0-1.83,0-2.745.4-.389.863-.718,1.3-1.073a15.463,15.463,0,0,0,1.6-1.366,1.074,1.074,0,0,0,.119-1.253,1.219,1.219,0,0,0-1.839-.14c-.45.387-.9.776-1.371,1.139M53.008,73.87c1.3,0,2.6,0,3.9,0a4.77,4.77,0,0,0,.945-.042,1.1,1.1,0,0,0,.9-1.48,1.2,1.2,0,0,0-1.224-.631c-2.91,0-5.819-.006-8.729.005a1.961,1.961,0,0,0-.822.1,1.249,1.249,0,0,0-.625.975A1.222,1.222,0,0,0,48.7,73.848c1.436.036,2.872.022,4.309.022m.088,24.1v0h2.074c.7,0,1.4-.009,2.1.006a2.459,2.459,0,0,0,1.05-.255.988.988,0,0,0,.146-1.59,1.763,1.763,0,0,0-1.057-.289c-1.627-.051-3.255-.027-4.882-.027-1.273,0-2.546.015-3.819.017a1.522,1.522,0,0,0-.883.161,1.014,1.014,0,0,0,.106,1.762,1.963,1.963,0,0,0,1.1.221c1.355,0,2.71,0,4.065,0m-.01-36.182v0c1.5,0,3,0,4.5,0a1.213,1.213,0,0,0,1.205-.776,1.043,1.043,0,0,0-.753-1.285,4.817,4.817,0,0,0-.9-.066c-.826.031-1.654,0-2.481.011-2.109.024-4.219-.057-6.328.043-.519.025-1.079.6-.975,1.031a1.263,1.263,0,0,0,1.391,1.045c1.445-.015,2.891,0,4.336,0m.143,22V83.8c-1.6,0-3.2,0-4.8,0a.881.881,0,0,0-.9.485c-.089.2-.237.415-.163.637a1.28,1.28,0,0,0,1.46.984c2.864.017,5.728.005,8.592.008a1.754,1.754,0,0,0,.947-.27.962.962,0,0,0,.423-1.132,1.08,1.08,0,0,0-.926-.714c-.153-.014-.309-.016-.463-.016H53.229" transform="translate(-21.425 -38.361)" fill="#fbeff1"/>
          <path id="Path_883464" data-name="Path 883464" d="M27.4,98.111a10.947,10.947,0,0,1,1.95,0c.963.015,1.927.011,2.89,0a12.483,12.483,0,0,1,1.257,0,.264.264,0,0,0,.327-.254,1.853,1.853,0,0,0,1.093.306c1.619,0,3.237.007,4.856,0a1.855,1.855,0,0,0,1.039-.235c.048.33.347.21.485.163a2.063,2.063,0,0,1,.854-.009,5.385,5.385,0,0,0,1.054,0,3.9,3.9,0,0,1,.483.032q1.842,0,3.684,0c3.406,0,6.813.006,10.219-.007.506,0,1.015-.066,1.521-.04,1.662.085,3.325.024,4.987.051.356.006.705-.04,1.057-.062a1.258,1.258,0,0,0,1.107-1.123c.014-1.071-.048-2.14-.01-3.21.007-.193.063-.391-.133-.539a1.06,1.06,0,0,0,.01-1.411.283.283,0,0,0,.178-.308c0-1.712.045-3.425-.016-5.134-.054-1.509-.012-3.017-.035-4.525a1.146,1.146,0,0,0-.17-.672.963.963,0,0,0,.166-1.2c-.053-.086-.108-.17-.162-.255.187-.027.212-.147.217-.295.014-.435-.05-.868-.052-1.3-.009-2.672,0-5.344-.006-8.015,0-.32.087-.656-.171-.937a1.058,1.058,0,0,0,.068-1.441.373.373,0,0,0,.161-.352c.025-.4-.054-.8-.055-1.2q0-4.242,0-8.484a.561.561,0,0,0-.224-.545,1.023,1.023,0,0,0,.163-1.4,2.612,2.612,0,0,0,.089-1.283c0-.113-.031-.231-.031-.347q0-2.177,0-4.355a13.417,13.417,0,0,1,.054-1.73.436.436,0,0,1,.238-.036c1.055,0,2.111-.012,3.166,0a1.7,1.7,0,0,1,1.267.419,1.207,1.207,0,0,1,.4.853c0,.1.005.2.005.3q0,26.15.007,52.3a1.481,1.481,0,0,1-1.249,1.5,2.013,2.013,0,0,1-.353.021H28.956a1.4,1.4,0,0,1-1.569-1.414c-.008-1.2,0-2.4,0-3.6,0-.075.012-.15.018-.225" transform="translate(-21.38 -38.264)" fill="#ebe6e7"/>
          <path id="Path_883465" data-name="Path 883465" d="M37.607,48.21c-.09.119-.181.117-.273,0a.6.6,0,0,1,.273,0" transform="translate(-29.152 -38.458)" fill="#ebe6e7"/>
          <path id="Path_883466" data-name="Path 883466" d="M39.8,48.265c-.073.123-.146.122-.219,0H39.8" transform="translate(-30.903 -38.514)" fill="#ebe6e7"/>
          <path id="Path_883467" data-name="Path 883467" d="M62.711,48.262c-.073.13-.146.072-.219,0h.219" transform="translate(-48.796 -38.511)" fill="#ebe6e7"/>
          <path id="Path_883468" data-name="Path 883468" d="M44.612,48.259c-.005.021,0,.052-.038.043-.009,0-.012-.028-.018-.043h.056" transform="translate(-34.791 -38.509)" fill="#ebe6e7"/>
          <path id="Path_883469" data-name="Path 883469" d="M47.6,48.259c-.005.021,0,.052-.038.043-.009,0-.012-.028-.017-.043H47.6" transform="translate(-37.126 -38.509)" fill="#ebe6e7"/>
          <path id="Path_883470" data-name="Path 883470" d="M57.566,48.259c-.005.021,0,.052-.038.043-.009,0-.012-.028-.017-.043h.055" transform="translate(-44.907 -38.509)" fill="#ebe6e7"/>
          <path id="Path_883471" data-name="Path 883471" d="M58.563,48.259c-.005.021,0,.052-.038.043-.009,0-.012-.028-.017-.043h.056" transform="translate(-45.684 -38.509)" fill="#ebe6e7"/>
          <path id="Path_883472" data-name="Path 883472" d="M59.559,48.259c-.005.021,0,.052-.038.043-.009,0-.012-.028-.017-.043h.055" transform="translate(-46.463 -38.509)" fill="#ebe6e7"/>
          <path id="Path_883473" data-name="Path 883473" d="M60.555,48.259c-.005.021,0,.052-.038.043-.009,0-.012-.028-.017-.043h.055" transform="translate(-47.241 -38.509)" fill="#ebe6e7"/>
          <path id="Path_883474" data-name="Path 883474" d="M61.552,48.259c-.005.021,0,.052-.038.043-.009,0-.012-.028-.017-.043h.055" transform="translate(-48.019 -38.509)" fill="#ebe6e7"/>
          <path id="Path_883475" data-name="Path 883475" d="M55.573,48.259c-.005.021,0,.052-.038.043-.009,0-.012-.028-.017-.043h.055" transform="translate(-43.35 -38.509)" fill="#ebe6e7"/>
          <path id="Path_883476" data-name="Path 883476" d="M66.036,48.247l-.028.054-.028-.054h.055" transform="translate(-51.52 -38.499)" fill="#ebe6e7"/>
          <path id="Path_883477" data-name="Path 883477" d="M43.616,48.259c-.005.021,0,.052-.038.043-.009,0-.012-.028-.018-.043h.056" transform="translate(-34.013 -38.509)" fill="#ebe6e7"/>
          <path id="Path_883478" data-name="Path 883478" d="M42.619,48.259c-.005.021,0,.052-.038.043-.009,0-.012-.028-.018-.043h.056" transform="translate(-33.235 -38.509)" fill="#ebe6e7"/>
          <path id="Path_883479" data-name="Path 883479" d="M41.623,48.26c-.005.021,0,.052-.038.043-.009,0-.012-.028-.018-.043h.056" transform="translate(-32.457 -38.51)" fill="#ebe6e7"/>
          <path id="Path_883480" data-name="Path 883480" d="M53.58,48.259c-.005.021,0,.052-.038.043-.009,0-.012-.028-.017-.043h.055" transform="translate(-41.794 -38.509)" fill="#ebe6e7"/>
          <path id="Path_883481" data-name="Path 883481" d="M52.584,48.259c-.005.021,0,.052-.038.043-.009,0-.012-.028-.017-.043h.055" transform="translate(-41.017 -38.509)" fill="#ebe6e7"/>
          <path id="Path_883482" data-name="Path 883482" d="M51.587,48.259c-.005.021,0,.052-.038.043-.009,0-.012-.028-.017-.043h.055" transform="translate(-40.238 -38.509)" fill="#ebe6e7"/>
          <path id="Path_883483" data-name="Path 883483" d="M50.591,48.259c-.005.021,0,.052-.038.043-.009,0-.012-.028-.017-.043h.055" transform="translate(-39.46 -38.509)" fill="#ebe6e7"/>
          <path id="Path_883484" data-name="Path 883484" d="M54.577,48.259c-.005.021,0,.052-.038.043-.009,0-.012-.028-.017-.043h.055" transform="translate(-42.573 -38.509)" fill="#ebe6e7"/>
          <path id="Path_883485" data-name="Path 883485" d="M49.594,48.259c-.005.021,0,.052-.038.043-.009,0-.012-.028-.017-.043h.055" transform="translate(-38.682 -38.509)" fill="#ebe6e7"/>
          <path id="Path_883486" data-name="Path 883486" d="M45.609,48.259c-.005.021,0,.052-.038.043-.009,0-.012-.028-.017-.043h.055" transform="translate(-35.57 -38.509)" fill="#ebe6e7"/>
          <path id="Path_883487" data-name="Path 883487" d="M46.6,48.259c-.005.021,0,.052-.038.043-.009,0-.012-.028-.018-.043H46.6" transform="translate(-36.347 -38.509)" fill="#ebe6e7"/>
          <path id="Path_883488" data-name="Path 883488" d="M48.6,48.259c-.005.021,0,.052-.038.043-.009,0-.012-.028-.017-.043H48.6" transform="translate(-37.904 -38.509)" fill="#ebe6e7"/>
          <path id="Path_883489" data-name="Path 883489" d="M56.57,48.259c-.005.021,0,.052-.038.043-.009,0-.012-.028-.017-.043h.055" transform="translate(-44.129 -38.509)" fill="#ebe6e7"/>
          <path id="Path_883490" data-name="Path 883490" d="M62.875,144.784c0,.915.011,1.83,0,2.744a1.383,1.383,0,0,1-1.515,1.363c-1.519,0-3.039,0-4.558,0a3.225,3.225,0,0,1-.857-.123,1.2,1.2,0,0,1-.925-1.222q-.013-2.354,0-4.709a1.211,1.211,0,0,1,1.347-1.2q2.524,0,5.049,0a1.368,1.368,0,0,1,1.164.424c.017.021.066.021.1.031-.057.053-.11.111-.171.159-.848.653-1.686,1.318-2.495,2.013a.3.3,0,0,1-.483-.027c-.082-.089-.159-.183-.249-.264a1.168,1.168,0,0,0-1.589-.017.964.964,0,0,0-.108,1.333c.405.492.837.969,1.288,1.425a1.223,1.223,0,0,0,1.475.045q.929-.717,1.824-1.469a1.987,1.987,0,0,1,.7-.5" transform="translate(-42.956 -113.021)" fill="#ffb937"/>
          <path id="Path_883491" data-name="Path 883491" d="M62.868,85c0,.906.036,1.813,0,2.718-.037.813-.444,1.328-1.5,1.34-1.322.016-2.646.005-3.968,0a6.557,6.557,0,0,1-1.2-.032c-.935-.171-1.17-.691-1.176-1.259-.017-1.577-.014-3.154,0-4.731A1.309,1.309,0,0,1,56.407,81.8c1.619,0,3.237-.012,4.856.007a1.572,1.572,0,0,1,1.268.4.182.182,0,0,0,.151.042,1.028,1.028,0,0,1-.374.356A27.758,27.758,0,0,0,60.1,84.4c-.3.247-.392.247-.645-.053a1.222,1.222,0,0,0-1.017-.5,1.1,1.1,0,0,0-.97.6.945.945,0,0,0,.169,1.106c.384.435.769.869,1.163,1.3a1.217,1.217,0,0,0,1.535.12c.6-.468,1.182-.966,1.786-1.434A2.707,2.707,0,0,1,62.868,85" transform="translate(-42.951 -65.272)" fill="#ffb937"/>
          <path id="Path_883492" data-name="Path 883492" d="M62.868,204.558c0,.948.063,1.9-.005,2.843-.055.766-.469,1.192-1.461,1.214-1.527.034-3.056.008-4.584.012a3.133,3.133,0,0,1-.673-.077,1.214,1.214,0,0,1-1.121-1.255c-.012-1.577-.006-3.155,0-4.732a1.235,1.235,0,0,1,1.266-1.155c1.745.039,3.492.017,5.238.01a1.22,1.22,0,0,1,1.1.457.812.812,0,0,1-.085.1c-.857.708-1.774,1.352-2.6,2.1a.234.234,0,0,1-.386-.043,2.166,2.166,0,0,0-.329-.333,1.09,1.09,0,0,0-1.428-.06.938.938,0,0,0-.27,1.322c.387.474.83.91,1.21,1.388a1.326,1.326,0,0,0,1.79.039c.659-.6,1.421-1.094,2.062-1.713a.566.566,0,0,1,.27-.109" transform="translate(-42.959 -160.716)" fill="#ffb937"/>
          <path id="Path_883493" data-name="Path 883493" d="M62.393,267.981a1.858,1.858,0,0,1-1.039.235c-1.619.01-3.237.006-4.856,0a1.855,1.855,0,0,1-1.093-.306,1.645,1.645,0,0,1-.386-1.288c.006-1.452,0-2.9,0-4.356a1.167,1.167,0,0,1,.619-1.053,1.238,1.238,0,0,1,.65-.147q2.606-.009,5.212,0a2.535,2.535,0,0,1,.564.063.956.956,0,0,1,.571.391c-.112.171-.313.251-.462.385-.712.646-1.558,1.152-2.248,1.822-.108.105-.213.093-.318-.029a3.821,3.821,0,0,0-.373-.366,1.1,1.1,0,0,0-1.473-.023.96.96,0,0,0-.192,1.361c.407.48.85.935,1.273,1.405a1.2,1.2,0,0,0,1.547.062c.591-.481,1.177-.969,1.785-1.432.227-.172.386-.431.7-.5,0,.9.018,1.8,0,2.7a1.323,1.323,0,0,1-.483,1.075" transform="translate(-42.96 -208.32)" fill="#ffb937"/>
          <path id="Path_883494" data-name="Path 883494" d="M137.2,203.791c.054.085.109.17.162.255a.963.963,0,0,1-.166,1.2,1.741,1.741,0,0,1-1.105.38c-2.192,0-4.384.009-6.576.012-3.138,0-6.276,0-9.414.009a2.265,2.265,0,0,1-1.135-.232,1.108,1.108,0,0,1-.508-1.006.941.941,0,0,1,.768-.851,3.447,3.447,0,0,1,.755-.068q7.695.006,15.39.005a5.441,5.441,0,0,1,1.324.073,3.846,3.846,0,0,1,.505.222" transform="translate(-92.492 -162.379)" fill="#6a4d23"/>
          <path id="Path_883495" data-name="Path 883495" d="M137.186,144.273a1.058,1.058,0,0,1-.068,1.441,1.839,1.839,0,0,1-1.167.337c-5.194.045-10.388.007-15.582.014a5.279,5.279,0,0,1-.914-.028,1.225,1.225,0,0,1-1.093-.983.983.983,0,0,1,.4-.88,1.553,1.553,0,0,1,1.037-.243q5.281-.005,10.561,0h5.758a1.411,1.411,0,0,1,1.071.345" transform="translate(-92.419 -114.849)" fill="#6a4d23"/>
          <path id="Path_883496" data-name="Path 883496" d="M137.167,84.69a1.023,1.023,0,0,1-.163,1.4,1.592,1.592,0,0,1-1,.314q-8.158-.01-16.315,0a1.26,1.26,0,0,1-1.4-1.054c-.1-.359.4-.951.808-1.021a6.047,6.047,0,0,1,1.037-.05q7.994,0,15.988,0a1.2,1.2,0,0,1,1.046.42" transform="translate(-92.353 -67.245)" fill="#6a4d23"/>
          <path id="Path_883497" data-name="Path 883497" d="M137.153,263.617a1.061,1.061,0,0,1-.01,1.411,1.975,1.975,0,0,1-1.228.379q-7.829-.008-15.658,0a3.227,3.227,0,0,1-.915-.035,2,2,0,0,1-.79-.426c-.2-.18-.171-.432-.206-.645a.921.921,0,0,1,.711-.92,2.743,2.743,0,0,1,.588-.075q8.265,0,16.532,0a1.353,1.353,0,0,1,.976.306" transform="translate(-92.403 -210.11)" fill="#6a4d23"/>
          <path id="Path_883498" data-name="Path 883498" d="M123.942,167.251c-1.436,0-2.873.014-4.309-.022a1.222,1.222,0,0,1-1.346-1.048,1.25,1.25,0,0,1,.625-.975,1.962,1.962,0,0,1,.822-.1c2.909-.011,5.819-.008,8.729-.005a1.2,1.2,0,0,1,1.224.631,1.1,1.1,0,0,1-.9,1.48,4.769,4.769,0,0,1-.944.042c-1.3,0-2.6,0-3.9,0" transform="translate(-92.359 -131.742)" fill="#6a4d23"/>
          <path id="Path_883499" data-name="Path 883499" d="M124.082,286.5c-1.355,0-2.71,0-4.065,0a1.962,1.962,0,0,1-1.1-.221,1.014,1.014,0,0,1-.106-1.762,1.522,1.522,0,0,1,.883-.162c1.273,0,2.546-.017,3.819-.017,1.628,0,3.255-.024,4.882.027a1.764,1.764,0,0,1,1.057.289.988.988,0,0,1-.146,1.59,2.458,2.458,0,0,1-1.05.255c-.7-.015-1.4-.006-2.1-.006h-2.074Z" transform="translate(-92.412 -226.886)" fill="#6a4d23"/>
          <path id="Path_883500" data-name="Path 883500" d="M124.014,107.551c-1.445,0-2.891-.01-4.336,0a1.263,1.263,0,0,1-1.391-1.045c-.1-.434.456-1.007.975-1.031,2.109-.1,4.219-.019,6.328-.043.827-.009,1.655.02,2.481-.011a4.8,4.8,0,0,1,.9.066,1.043,1.043,0,0,1,.753,1.285,1.213,1.213,0,0,1-1.205.776c-1.5,0-3,0-4.5,0Z" transform="translate(-92.353 -84.124)" fill="#6a4d23"/>
          <path id="Path_883501" data-name="Path 883501" d="M124.169,224.851h4.173c.154,0,.31,0,.463.016a1.08,1.08,0,0,1,.926.714.962.962,0,0,1-.423,1.132,1.754,1.754,0,0,1-.947.27c-2.864,0-5.728.009-8.592-.008a1.28,1.28,0,0,1-1.46-.984c-.073-.221.075-.433.163-.637a.881.881,0,0,1,.9-.485c1.6-.007,3.2,0,4.8,0v-.015" transform="translate(-92.365 -179.423)" fill="#6a4d23"/>
          <path id="Path_883502" data-name="Path 883502" d="M71.249,260.037c-.313.072-.471.331-.7.5-.608.463-1.194.951-1.785,1.432a1.2,1.2,0,0,1-1.547-.062c-.423-.47-.866-.925-1.273-1.405a.96.96,0,0,1,.192-1.36,1.1,1.1,0,0,1,1.473.023,3.8,3.8,0,0,1,.373.366c.1.122.21.134.318.029.69-.67,1.536-1.176,2.248-1.822.148-.135.35-.214.462-.385.438-.309.81-.687,1.228-1.016a1.67,1.67,0,0,1,1.058-.5,1.051,1.051,0,0,1,.981,1.577,2.25,2.25,0,0,1-.611.635q-1.091.872-2.184,1.742a.923.923,0,0,0-.235.241" transform="translate(-51.334 -204.154)" fill="#7d3a1b"/>
          <path id="Path_883503" data-name="Path 883503" d="M71.268,140.686a1.987,1.987,0,0,0-.7.5q-.9.751-1.824,1.469a1.223,1.223,0,0,1-1.475-.045c-.452-.457-.883-.933-1.288-1.425a.964.964,0,0,1,.108-1.333,1.168,1.168,0,0,1,1.589.017c.09.081.167.175.249.264a.3.3,0,0,0,.483.027c.809-.695,1.646-1.36,2.495-2.013.062-.048.114-.106.171-.159.473-.363.921-.752,1.371-1.139a1.219,1.219,0,0,1,1.839.14,1.074,1.074,0,0,1-.119,1.253,15.443,15.443,0,0,1-1.6,1.366c-.435.355-.9.684-1.3,1.073" transform="translate(-51.349 -108.922)" fill="#7d3a1b"/>
          <path id="Path_883504" data-name="Path 883504" d="M71.26,81.12a2.707,2.707,0,0,0-.746.537c-.6.468-1.182.966-1.786,1.434a1.217,1.217,0,0,1-1.535-.12c-.394-.427-.779-.861-1.163-1.3a.945.945,0,0,1-.169-1.106,1.1,1.1,0,0,1,.97-.6,1.222,1.222,0,0,1,1.017.5c.253.3.344.3.645.053A27.76,27.76,0,0,1,70.7,78.732a1.028,1.028,0,0,0,.374-.356,11.04,11.04,0,0,0,1.062-.838,2.813,2.813,0,0,1,.742-.516,1.21,1.21,0,0,1,1.324.3.934.934,0,0,1,0,1.271,13.114,13.114,0,0,1-1.3,1.174c-.546.452-1.137.858-1.641,1.354" transform="translate(-51.343 -61.395)" fill="#7d3a1b"/>
          <path id="Path_883505" data-name="Path 883505" d="M71.226,200.424a.566.566,0,0,0-.27.109c-.641.619-1.4,1.114-2.062,1.713a1.326,1.326,0,0,1-1.79-.039c-.38-.478-.823-.914-1.21-1.388a.938.938,0,0,1,.27-1.322,1.09,1.09,0,0,1,1.428.06,2.165,2.165,0,0,1,.329.333.234.234,0,0,0,.386.043c.822-.744,1.739-1.388,2.6-2.1a.811.811,0,0,0,.085-.1c.4-.331.8-.674,1.213-.99a1.628,1.628,0,0,1,1.2-.518,1.094,1.094,0,0,1,1,.924,1.153,1.153,0,0,1-.464,1.024c-.778.64-1.568,1.269-2.354,1.9a1.647,1.647,0,0,0-.357.342" transform="translate(-51.317 -156.583)" fill="#7d3a1b"/>
        </g>
      </g>
    </g>
  </g>
</svg>
