<svg xmlns="http://www.w3.org/2000/svg" width="47" height="47" viewBox="0 0 47 47">
  <g id="Group_1100312" data-name="Group 1100312" transform="translate(-180 -1123)">
    <circle id="Ellipse_11516" data-name="Ellipse 11516" cx="23.5" cy="23.5" r="23.5" transform="translate(180 1123)" fill="#6a4d23"/>
    <path id="plane-up-solid" d="M10.958,5.348C10.958,3.4,12.614,0,14.611,0c2.055,0,3.653,3.4,3.653,5.348V9.132L28.412,15.9a1.819,1.819,0,0,1,.81,1.518V20.65a.917.917,0,0,1-1.2.868l-9.754-3.253V22.83L21.552,25.3a.919.919,0,0,1,.365.731v2.4a.8.8,0,0,1-.8.8.992.992,0,0,1-.223-.029l-6.284-1.8-6.284,1.8a.746.746,0,0,1-.223.029.8.8,0,0,1-.8-.8v-2.4a.919.919,0,0,1,.365-.731l3.288-2.466V18.264L1.2,21.517A.917.917,0,0,1,0,20.65V17.414A1.819,1.819,0,0,1,.81,15.9L10.958,9.132Z" transform="translate(189 1132)" fill="#ffe9df"/>
  </g>
</svg>
