<svg xmlns="http://www.w3.org/2000/svg" xmlns:xlink="http://www.w3.org/1999/xlink" width="107" height="107" viewBox="0 0 107 107">
  <defs>
    <clipPath id="clip-path">
      <rect id="Rectangle_402430" data-name="Rectangle 402430" width="61.333" height="56.734" fill="#6a4d23"/>
    </clipPath>
  </defs>
  <g id="Group_1101580" data-name="Group 1101580" transform="translate(-285 -2888.354)">
    <g id="Grupo_156312" data-name="Grupo 156312" transform="translate(-3.668 -1560.082)">
      <path id="Elipse_5845" data-name="Elipse 5845" d="M53.5,0A53.5,53.5,0,1,1,0,53.5,53.5,53.5,0,0,1,53.5,0Z" transform="translate(288.668 4448.437)" fill="#ffce73"/>
    </g>
    <g id="Group_1098918" data-name="Group 1098918" transform="translate(-101.527 -3129.858)">
      <path id="Path_873216" data-name="Path 873216" d="M0,0H63.184V63.186H0Z" transform="translate(408.527 6040.213)" fill="none"/>
      <g id="Group_1100848" data-name="Group 1100848" transform="translate(410.194 6043.438)">
        <g id="Group_1100847" data-name="Group 1100847" clip-path="url(#clip-path)">
          <path id="Path_880555" data-name="Path 880555" d="M37.133,45.464,35.7,43.989c-.076-.079-.136-.067-.222,0a21.178,21.178,0,0,1-4.319,2.755A21.542,21.542,0,0,1,24.632,48.7a22.392,22.392,0,0,1-5.542.027,20.451,20.451,0,0,1-5.535-1.462A21.6,21.6,0,0,1,2.07,36.35,20.256,20.256,0,0,1,.478,31.582a21.351,21.351,0,0,1-.371-6.567,22.721,22.721,0,0,1,.943-4.521,21.168,21.168,0,0,1,3.107-6.112,21.628,21.628,0,0,1,7.517-6.511,22.435,22.435,0,0,1,5.779-2.065,21.347,21.347,0,0,1,6.727-.3,22.847,22.847,0,0,1,3.454.7A20.637,20.637,0,0,1,34.47,9.5c.035.025.072.047.127.082.107-.184.21-.358.311-.533.592-1.026,1.2-2.044,1.769-3.082a1.031,1.031,0,0,1,1.019-.6c2.629.015,5.258.008,7.887.008h.22c0-.162,0-.306,0-.45,0-1.325,0-2.651.013-3.976,0-.691.266-.951.966-.952Q50.275,0,53.768,0l6.415,0c.1,0,.205,0,.307.006a.772.772,0,0,1,.841.857c0,.051,0,.1,0,.154q0,5.1,0,10.193a1.442,1.442,0,0,1-.071.472.67.67,0,0,1-.666.478q-.714.01-1.428.011l-12.456,0c-.627,0-.9-.26-.9-.888,0-1.435,0-2.87,0-4.305,0-.035-.006-.07-.011-.136h-.239q-3.768,0-7.535,0a.325.325,0,0,0-.331.181q-.927,1.631-1.871,3.252c-.092.159-.061.24.079.359A21.435,21.435,0,0,1,40.32,15.8a21.9,21.9,0,0,1,2.307,5.195c.094.313.17.632.254.944H45.8c0-.14,0-.262,0-.384,0-1.355,0-2.709.011-4.064a1.3,1.3,0,0,1,.1-.53.769.769,0,0,1,.732-.4c.153-.008.308,0,.461,0l13.16,0h.088c.715.017.975.282.975,1q0,5.108,0,10.215a1.509,1.509,0,0,1-.082.492.662.662,0,0,1-.684.449c-.476,0-.952,0-1.428,0l-12.412.007c-.673,0-.923-.251-.923-.932,0-1.413,0-2.826,0-4.239,0-.059-.081-.169-.125-.169-.811-.01-1.623-.008-2.48-.008.041.243.1.474.118.708.071.948.158,1.9.185,2.846a19.29,19.29,0,0,1-.531,5.05A23.027,23.027,0,0,1,41.9,35.342c-.088.216-.2.425-.291.638a.575.575,0,0,0,0,.582c.364.6.711,1.211,1.07,1.814a.208.208,0,0,0,.144.1c.981.005,1.961,0,2.98,0v-.284q0-2.021,0-4.042c0-.124,0-.249.014-.373a.653.653,0,0,1,.537-.612,2.094,2.094,0,0,1,.435-.042q6.755,0,13.511,0c.778,0,1.033.251,1.033,1.021q0,5.074,0,10.149a1.772,1.772,0,0,1-.079.515.6.6,0,0,1-.546.441,5.135,5.135,0,0,1-.525.03q-6.722,0-13.445.006c-.313,0-.621-.022-.781-.33a1.362,1.362,0,0,1-.145-.58c-.016-.805-.006-1.611-.006-2.416q0-.922,0-1.845c0-.057-.006-.114-.011-.2H45.48c-.952,0-1.9-.025-2.855,0a1.043,1.043,0,0,1-1.05-.63c-.258-.491-.548-.966-.822-1.443L38.572,41l1.522,1.534.373-.349c.123-.115.243-.234.367-.347a.587.587,0,0,1,.91-.016c.44.408.861.836,1.286,1.261q3.52,3.517,7.04,7.033a4.083,4.083,0,0,1,1.19,2.012,3.748,3.748,0,0,1-1.92,4.151,3.654,3.654,0,0,1-4.392-.637c-2.173-2.145-4.323-4.314-6.483-6.472q-.956-.955-1.911-1.91a.725.725,0,0,1,0-1.163c.2-.2.386-.419.577-.628M21.688,43.743A16.6,16.6,0,1,0,5.157,27.094a16.619,16.619,0,0,0,16.53,16.649m16.822-9.788-.067-.031a17.854,17.854,0,0,1-6.99,8.378,17.925,17.925,0,0,1-20.742-.954A17.944,17.944,0,0,1,6.7,17.26a17.4,17.4,0,0,1,10.65-7.588A17.866,17.866,0,0,1,32.74,12.823c.372-.652.743-1.3,1.106-1.947a.174.174,0,0,0-.059-.156c-.8-.51-1.587-1.049-2.415-1.512a17.357,17.357,0,0,0-4.288-1.7A19.521,19.521,0,0,0,24.62,6.99a26.705,26.705,0,0,0-4.5-.107,18.272,18.272,0,0,0-3.71.625,19.5,19.5,0,0,0-5.071,2.145A20.36,20.36,0,0,0,1.485,25.509a15.861,15.861,0,0,0,.05,3.636c.112.766.216,1.533.356,2.294A17.046,17.046,0,0,0,2.958,34.91a20.285,20.285,0,0,0,15.29,12.242c.792.134,1.6.211,2.4.285a18.4,18.4,0,0,0,4.72-.293,22.883,22.883,0,0,0,2.527-.625,18.171,18.171,0,0,0,4.578-2.08,20.238,20.238,0,0,0,5.469-4.957A21.3,21.3,0,0,0,39.8,36.56a.328.328,0,0,0,0-.363c-.438-.743-.862-1.494-1.291-2.242M47.234,18c.013.225.036.434.036.643q0,3.964,0,7.928c0,.146,0,.293-.014.439-.02.273-.023.274.259.274l12.234,0a1.523,1.523,0,0,0,.159-.016V18ZM59.911,43.842V34.571H47.243c.01.189.027.356.028.523q0,3.987,0,7.974a2.91,2.91,0,0,1-.015.351c-.062.512-.055.42.383.421q5.844.005,11.688,0h.585m.007-42.436h-.173l-12.166,0c-.326,0-.325,0-.312.315,0,.11,0,.22,0,.329q0,4.194,0,8.389v.25H59.918ZM33.824,13.734c.106.111.2.215.3.31a17.683,17.683,0,0,1,4.825,7.746.2.2,0,0,0,.235.163c.615-.007,1.229-.007,1.844-.009h.4A20.2,20.2,0,0,0,35,11.68l-1.178,2.054M45.131,53.873l3.32-3.3-3.617-3.611-3.289,3.279,3.585,3.63m-5.753-30.5a.29.29,0,0,0-.012.073,14.587,14.587,0,0,1,.368,3.087,17.829,17.829,0,0,1-.6,5.322.6.6,0,0,0,.053.5c.445.765.883,1.533,1.325,2.3a1.126,1.126,0,0,0,.1.118,1.534,1.534,0,0,0,.106-.208c.266-.827.571-1.644.784-2.485a16.793,16.793,0,0,0,.54-4.145c0-.929-.012-1.859-.058-2.786-.026-.531-.135-1.057-.2-1.587-.02-.162-.1-.211-.251-.189a1.24,1.24,0,0,1-.175,0h-1.98m1.95,19.937L38.31,46.317c-.36.359-.363.362,0,.735.228.232.465.454.724.7l3.292-3.343-1-1.1M46.258,54.9a2.379,2.379,0,0,0,3.109-.38c.67-.741.748-2.367.131-2.877L46.258,54.9m-2.879-9.482-3.39,3.4a3.636,3.636,0,0,1,.367.283c.138.134.236.117.365-.014q1.546-1.555,3.1-3.1a.341.341,0,0,0,.048-.081l-.491-.481m-5.8-3.341-.877.89,1.459,1.5.884-.946-1.466-1.441" transform="translate(0)" fill="#6a4d23"/>
          <path id="Path_880556" data-name="Path 880556" d="M59.35,139.84v-.6q0-5.15.008-10.3a.75.75,0,0,1,.846-.857q1.625-.009,3.251,0c.66,0,.918.26.919.924q0,5.283,0,10.566c0,.088.013.244.049.253a1.094,1.094,0,0,0,.389,0c.023,0,.051-.1.051-.148q0-4.25-.007-8.5c0-.11,0-.22,0-.329a.785.785,0,0,1,.826-.8q1.659-.006,3.317,0a.76.76,0,0,1,.834.765,4.279,4.279,0,0,1,.018.439q0,3.976,0,7.952c0,.11,0,.22-.006.329-.019.335-.005.346.332.312.122-.012.165-.065.158-.184-.009-.146-.008-.293-.008-.439q0-6.085,0-12.169c0-.066,0-.132,0-.2a.7.7,0,0,1,.773-.762q1.713-.012,3.427,0a.758.758,0,0,1,.824.861v12.889c.378,0,.735-.013,1.09.006a.972.972,0,0,1,.451.132.657.657,0,0,1,.32.751.786.786,0,0,1-.735.56c-.066.005-.132,0-.2,0H52.934c-.066,0-.132,0-.2,0-.486-.027-.723-.266-.722-.728a.713.713,0,0,1,.733-.714c.314-.013.63,0,.944-.007.057,0,.113-.007.182-.011,0-.06.012-.109.012-.158q0-3.361,0-6.721c0-.633.232-.875.874-.877q1.615-.006,3.229,0a1.6,1.6,0,0,1,.41.063.588.588,0,0,1,.471.563c.006.088.01.176.01.263q-.012,3.35-.028,6.7c0,.138.046.186.175.182.1,0,.2,0,.328,0m12.4.007c.593,0,1.148,0,1.7,0,.475,0,.476,0,.475-.474q-.007-5.83-.009-11.659c0-.193-.067-.219-.224-.217-.549.006-1.1,0-1.647.006-.293,0-.3,0-.3.3q0,5.852,0,11.7v.343M60.786,129.518v10.315c.682,0,1.347,0,2.011,0,.158,0,.147-.1.147-.207q0-4.764-.007-9.528a3.459,3.459,0,0,0,0-.438.2.2,0,0,0-.137-.137c-.665-.009-1.33-.006-2.011-.006m7.626,1.962c-.595,0-1.164,0-1.733,0-.4,0-.4.008-.4.4q0,3.874-.006,7.747c0,.169.051.211.213.208.5-.009,1,0,1.492,0h.434Zm-11,2.026H55.334v6.336h2.078Z" transform="translate(-42.849 -103.862)" fill="#6a4d23"/>
          <path id="Path_880557" data-name="Path 880557" d="M76.236,100.324A2.086,2.086,0,0,1,78.3,99.6a1.815,1.815,0,0,1,.562.232.283.283,0,0,0,.369-.023c.515-.387,1.021-.787,1.558-1.141a.866.866,0,0,0,.487-.97,2.041,2.041,0,0,1,1.731-2.131,2.154,2.154,0,0,1,2.332,1.386,2.117,2.117,0,0,1-1.063,2.59,2,2,0,0,1-1.893-.029.393.393,0,0,0-.477.054q-.923.689-1.862,1.358a.3.3,0,0,0-.135.351,2.1,2.1,0,0,1-4.052,1.067,4.347,4.347,0,0,1-.109-.556.351.351,0,0,0-.157-.22c-.469-.183-.947-.344-1.42-.517a.279.279,0,0,0-.341.095,2.005,2.005,0,0,1-2.277.439c-.058-.031-.12-.056-.175-.091a.3.3,0,0,0-.4.028c-.615.472-1.247.922-1.878,1.373a.334.334,0,0,0-.165.376,2.089,2.089,0,0,1-1.854,2.488,2.121,2.121,0,0,1-2.3-2.333,2.15,2.15,0,0,1,2.178-1.878,2.916,2.916,0,0,1,.912.28.376.376,0,0,0,.4-.036c.654-.482,1.31-.961,1.957-1.451a.288.288,0,0,0,.074-.239,2.108,2.108,0,1,1,4.16-.628.317.317,0,0,0,.234.3c.509.181,1.016.365,1.54.554m-8.669,3.345a.691.691,0,1,0-1.382-.017.759.759,0,0,0,.685.725.747.747,0,0,0,.7-.708m4.092-4.008a.7.7,0,0,0,.691.68.724.724,0,0,0,.722-.677.74.74,0,0,0-.707-.7.725.725,0,0,0-.705.7m12.356-2a.7.7,0,0,0-.713-.7.691.691,0,0,0-.648.67.746.746,0,0,0,.684.724.724.724,0,0,0,.678-.7m-6.833,3.994a.639.639,0,0,0,.675.669.646.646,0,0,0,.676-.692.6.6,0,0,0-.69-.636.588.588,0,0,0-.661.659" transform="translate(-53.353 -78.697)" fill="#6a4d23"/>
          <path id="Path_880558" data-name="Path 880558" d="M281.182,109.637h3.995c.081,0,.161,0,.241,0a.7.7,0,0,1,.669.707.748.748,0,0,1-.683.705c-.277.014-.556.006-.834.006-2.444,0-4.887,0-7.331-.006a1.318,1.318,0,0,1-.6-.142.622.622,0,0,1-.31-.766.652.652,0,0,1,.662-.5c.1-.006.2,0,.307,0h3.885Z" transform="translate(-227.614 -90.319)" fill="#6a4d23"/>
          <path id="Path_880559" data-name="Path 880559" d="M281.194,124.587h3.954c.073,0,.147,0,.22,0a.693.693,0,0,1,.7.674.756.756,0,0,1-.678.736c-.3.018-.6.01-.9.01q-3.647,0-7.293,0a.9.9,0,0,1-.792-.341.664.664,0,0,1-.042-.727.626.626,0,0,1,.591-.35c.476-.008.952,0,1.428,0h2.812Z" transform="translate(-227.595 -102.635)" fill="#6a4d23"/>
          <path id="Path_880560" data-name="Path 880560" d="M281.208,139.477h3.777c.124,0,.249,0,.373.008a.7.7,0,0,1,.728.692.784.784,0,0,1-.745.724c-.036,0-.073,0-.11,0-2.694,0-5.388,0-8.081-.009a1.18,1.18,0,0,1-.6-.207.6.6,0,0,1-.223-.7.626.626,0,0,1,.556-.487,2.475,2.475,0,0,1,.372-.019q1.976,0,3.953,0" transform="translate(-227.612 -114.901)" fill="#6a4d23"/>
          <path id="Path_880561" data-name="Path 880561" d="M281.177,204.847q-2.032,0-4.063,0a.778.778,0,0,1-.74-.382.71.71,0,0,1,.046-.751c.139-.231.383-.249.611-.292a1.56,1.56,0,0,1,.285-.015q3.888,0,7.775,0a1.975,1.975,0,0,1,.37.03.7.7,0,0,1,.615.773.749.749,0,0,1-.749.639c-.351,0-.7-.022-1.054-.023-1.032,0-2.065,0-3.1,0v.019" transform="translate(-227.605 -167.568)" fill="#6a4d23"/>
          <path id="Path_880562" data-name="Path 880562" d="M281.192,219.8c-1.317,0-2.634,0-3.951,0a1.456,1.456,0,0,1-.453-.053.668.668,0,0,1-.47-.71.625.625,0,0,1,.59-.625,2.376,2.376,0,0,1,.413-.039q3.929,0,7.858,0a1.853,1.853,0,0,1,.37.034.669.669,0,0,1,.555.687.717.717,0,0,1-.569.686,2.4,2.4,0,0,1-.437.028q-1.953,0-3.907,0V219.8" transform="translate(-227.627 -179.892)" fill="#6a4d23"/>
          <path id="Path_880563" data-name="Path 880563" d="M281.211,234.761H277.3a1.077,1.077,0,0,1-.691-.162.653.653,0,0,1-.264-.694.6.6,0,0,1,.508-.531,2.042,2.042,0,0,1,.369-.044q4.018,0,8.035,0a.773.773,0,0,1,.814.473.7.7,0,0,1-.563.938,3.217,3.217,0,0,1-.5.024q-1.9,0-3.8,0v0" transform="translate(-227.643 -192.217)" fill="#6a4d23"/>
          <path id="Path_880564" data-name="Path 880564" d="M281.085,45.434h3.886c.117,0,.234,0,.351.014a.723.723,0,0,1,.707.672.749.749,0,0,1-.639.75,1.479,1.479,0,0,1-.283.026q-3.952,0-7.9,0a1.5,1.5,0,0,1-.572-.115.65.65,0,0,1-.386-.794.61.61,0,0,1,.646-.539c.79-.017,1.581-.012,2.371-.014.608,0,1.215,0,1.822,0" transform="translate(-227.555 -37.429)" fill="#6a4d23"/>
          <path id="Path_880565" data-name="Path 880565" d="M281.126,30.547q1.921,0,3.842,0a3.483,3.483,0,0,1,.482.02.678.678,0,0,1,.577.532.6.6,0,0,1-.272.7,1.251,1.251,0,0,1-.586.195c-2.678.013-5.357.009-8.035.008-.609,0-.984-.41-.862-.936a.614.614,0,0,1,.618-.519c.226-.01.454-.005.68-.005h3.556" transform="translate(-227.573 -25.164)" fill="#6a4d23"/>
          <path id="Path_880566" data-name="Path 880566" d="M281.132,15.635c1.347,0,2.694,0,4.041,0a1.329,1.329,0,0,1,.511.09.675.675,0,0,1,.366.751.85.85,0,0,1-.709.6c-.029,0-.059,0-.088,0q-4.052,0-8.1,0a.841.841,0,0,1-.841-.544.662.662,0,0,1,.63-.9c.241-.011.483,0,.725,0h3.47Z" transform="translate(-227.589 -12.874)" fill="#6a4d23"/>
        </g>
      </g>
    </g>
  </g>
</svg>
