<svg xmlns="http://www.w3.org/2000/svg" xmlns:xlink="http://www.w3.org/1999/xlink" width="400" height="795" viewBox="0 0 400 795">
  <defs>
    <clipPath id="clip-path">
      <rect id="Rectangle_402846" data-name="Rectangle 402846" width="271.528" height="371.896" fill="#7a4f00"/>
    </clipPath>
  </defs>
  <g id="Group_1101576" data-name="Group 1101576" transform="translate(8673 9393)">
    <path id="Path_883066" data-name="Path 883066" d="M0,0H400V795H0Z" transform="translate(-8673 -9393)" fill="#fef7eb"/>
    <g id="Group_1101410" data-name="Group 1101410" transform="translate(-8609 -9180.896)">
      <g id="Group_1101409" data-name="Group 1101409" clip-path="url(#clip-path)">
        <path id="Path_883025" data-name="Path 883025" d="M222.421,291.529c-1.527.812-2.189,2.4-3.161,3.677a12.442,12.442,0,0,1-4.893,3.933,6.876,6.876,0,0,0-3.68,3.1c-1.008,2.1-2.082,4.214-1.58,6.721a53.385,53.385,0,0,0,2.144,7.117,21.872,21.872,0,0,0,2.721,5.409c.157.214.072.574.408.682q2,3.314,4,6.627c.509.52-.247,1.79,1.081,1.824,2.274,4.213,3.993,8.6,3.613,13.493-.194,2.494-1.38,4.758-2.154,7.114-1.661,5.058-3.246,10.1-2.439,15.584a12.913,12.913,0,0,1-.477,6.415,15.68,15.68,0,0,0-.541,2.1c-.808,3.679-2.436,7.095-3.436,10.714a9.756,9.756,0,0,0-.462,2.479,13.382,13.382,0,0,1-1.438,6.681,2.27,2.27,0,0,0-.179,1.594,15.783,15.783,0,0,1,.162,2.174c.074,1.213-.163,2.188-1.644,2.335-.352.035-.578.37-.831.65-1.37,1.522-2.135,1.393-3.052-.493a10.514,10.514,0,0,1-1.06-2.836,3.4,3.4,0,0,0-2.793-2.578c-1.414-.337-2.83-.676-4.227-1.08-1.853-.535-2.486-1.8-1.568-3.474a24.774,24.774,0,0,1,4.593-6.048,10.006,10.006,0,0,0,2.741-4.371,14.534,14.534,0,0,0,.549-8.4,12.087,12.087,0,0,0-7.736-8.4c-.338-.131-.668-.288-1-.432a.941.941,0,0,1-.6-1.105c-.008-.155.3-.184.2-.277s-.163.2-.316.221c-.741.224-1.368.958-2.254.493a11.941,11.941,0,0,0-6.121,1.115c-.708.367-.789-.9-1.484-.567-.368-.021-.636-.328-1.005-.344-.533.258-.351.822-.533,1.228-.1.361-.4.531-.678.719a4.463,4.463,0,0,1-3.281-.732,9.7,9.7,0,0,0-7.393-1.774c-.3.04-.606.025-.909.035-.355.093-.8.253-1.056.019-1.192-1.083-1.614-.36-1.916.747a84.592,84.592,0,0,1-12.917,4.612,64.885,64.885,0,0,1-12.33,1.95,5.266,5.266,0,0,1-2.647-.356c-.073-.148-.127-.37-.321-.09l-.351-.083a2.053,2.053,0,0,0-1.584-.95,2,2,0,0,1-1-2.152c.232-1.771.058-3.578.815-5.309.561-1.282.206-1.768-1.127-2.6a6.513,6.513,0,0,1-2.656-2.354c-.33-.6.83-.775.364-1.44-.67-.268-.714,1.006-1.438.652a14.116,14.116,0,0,1-3.291-2.533c-.408-.573-.143-1.817-1.47-1.476a25.485,25.485,0,0,1-4.34-4.807c-.388-.438-.082-1.455-1.125-1.344a30.687,30.687,0,0,1-5.1-6.686,12.781,12.781,0,0,0-2-2.781c-1.229-1.214-1.729-2.875-2.692-4.263-1.072-1.545-2.377-2.888-3.422-4.44a2.89,2.89,0,0,1-.709-1.241c-.13-.339.018-.9-.646-.814-1.479-1.716-3.629-2.336-5.541-3.32-3.01-1.55-6.188-2.747-9.183-4.347a15.647,15.647,0,0,0-3.562-1.373c-2.566-.639-4.538-2.252-6.494-3.841-2.621-2.128-5.121-4.4-7.634-6.66-.494-.444-.865-.6-1.412-.19a11.239,11.239,0,0,1-2.656,1.164c-1.341-.613-2.059.589-3.035,1.038a14.235,14.235,0,0,1-8.476.363,9.043,9.043,0,0,0-3.336-.617c-1.521.269-1.824-.882-2.19-1.912-.444-1.258-.335-2.663-1-3.866-.791-1.275-.753-2.753-1.016-4.157.082-3.942,2.481-6.566,6.3-6.8a2,2,0,0,0,1.794-1,21.374,21.374,0,0,1,1.524-2.266c1.468-1.858,2.582-2.047,4.7-.833.893.976.738,2.27,1,3.428.652,2.9,1.766,3.559,4.512,2.543a13.058,13.058,0,0,0,1.968-.924,1.594,1.594,0,0,0,.543-.516,9.123,9.123,0,0,0-1.2-6.457,4.126,4.126,0,0,1,.353-2.841,4.22,4.22,0,0,1,.485-.7,6.249,6.249,0,0,1,3.276-2.189c1.433-.49,2.983-.661,4.275-1.541,2.039-1.234,2.638-3.591,4.106-5.27a7.837,7.837,0,0,0,1.195-1.511c.731-1.155,1.694-2.132,2.488-3.24a3.812,3.812,0,0,0,1.055-1.193,7.367,7.367,0,0,1,.48-.838c2.9-3.976,5.866-7.9,8.587-12.005,1.615-2.235,2.948-4.692,5.091-6.517a1.321,1.321,0,0,1,.533-.044c1.3.63,1.695,1.976,2.325,3.1.942,1.672,1.724,3.432,2.623,5.131a12.832,12.832,0,0,1,1.135,3.177c.315,1.307-.336,2.545-.268,3.835a47.919,47.919,0,0,0-.692,5.283,8.892,8.892,0,0,0,1,4.591c1.107,2.086,3,2.874,5.2,3.207.9.136,1.8.281,2.69.454,1.182.359,2.245,1,3.386,1.456a19.652,19.652,0,0,1,2.366,1.544c1.231.959,1.856,2.394,2.808,3.573a3.8,3.8,0,0,1,.274.406c.092.131.18.268.271.4.054.06.1.125.155.186.117.115.228.236.341.355.06.06.114.122.174.18,2.581,2.841,4.669,2.728,7.019-.283a9.294,9.294,0,0,0,2.057-5.16q.86-4.325,1.718-8.645a21.732,21.732,0,0,1,1.712-4.993,4.315,4.315,0,0,1,.231-.454c.119-.217.25-.428.382-.638a16.574,16.574,0,0,1,2.1-2.583,4.329,4.329,0,0,1,.775-.46c.128-.073.262-.137.4-.2.2-.1.407-.2.616-.288a2.224,2.224,0,0,1,.458-.128,4.057,4.057,0,0,1,.992.009,26.3,26.3,0,0,1,6.246.679,5.929,5.929,0,0,1,.959.357c.155.056.309.122.463.184a8.861,8.861,0,0,1,2.1.764c2.087,1.163,4.132,2.523,6.688,1.363.136-.077.275-.15.408-.23.063-.045.13-.085.193-.13.187-.133.383-.254.58-.372.123-.089.251-.17.377-.256.06-.048.123-.092.182-.14a5.883,5.883,0,0,1,.745-.567c.074-.031.149-.059.225-.089a2,2,0,0,1,.491-.043c1.044.152,1.039-.466.877-1.2a2.593,2.593,0,0,1-.02-.53,3.914,3.914,0,0,1,.551-1.533c2.794-4.75,7.225-7.129,12.329-8.573a7.514,7.514,0,0,1,6.894,1.125,12.04,12.04,0,0,0,4.062,2.639c2.486.65,4.515-.251,6.335-1.858a20.194,20.194,0,0,0,3.733-4.428,5.97,5.97,0,0,1,1.805-2.018,2.592,2.592,0,0,1,.509-.206,6.171,6.171,0,0,1,4.764.78,8.118,8.118,0,0,1,1.663,1.083,4.858,4.858,0,0,0,6.326.574,5.2,5.2,0,0,0,2.641-5.175c.193-.936,1.009-.971,1.7-1.105a2.565,2.565,0,0,0,2.259-2.464,38.474,38.474,0,0,1,1.236-5.5,2.846,2.846,0,0,1,.229-.466,2.751,2.751,0,0,1,.9-.819c.122-.089.25-.172.375-.256s.232-.19.348-.288c.054-.053.113-.1.168-.154a3.507,3.507,0,0,1,.361-.3,3.553,3.553,0,0,1,.413-.254,26.364,26.364,0,0,1,4.3-2.137,11.8,11.8,0,0,1,6.222-.115,5.122,5.122,0,0,1,.5.2,4.846,4.846,0,0,1,2.739,1.931,5.239,5.239,0,0,0,2.053,1.734c.87.419,1.744.06,2.615.009.949.142.834-.728,1.135-1.2a6.185,6.185,0,0,1,4.55-2.659c3.965-.4,7.942-.777,11.694,1.113.193.231.374.47.578.689,1.607,1.738,1.668,2.6.245,4.575a5.952,5.952,0,0,0-1.05,2.3c-.311,1.5.027,2.14,1.454,2.847,1.649.817,1.558,1.095.772,2.751-.856,1.8-2.571,2.887-3.414,4.643a8.139,8.139,0,0,0-.868,2.185c-.243,1.459-.261,2.775,1.393,3.455a1.084,1.084,0,0,1,.419.343q2.438,3.154,4.86,6.32a2.063,2.063,0,0,0,.74,1.1c.692,1.267.863,2.72,1.446,4.024a1.655,1.655,0,0,1,.3.39l.029.041c-.2,1.192.505,1.608,1.519,1.752,2.741,3.449,4.941,7.159,5.631,11.605a13.674,13.674,0,0,1,.119,4.854,3.32,3.32,0,0,1-.6,1.5,1.464,1.464,0,0,1-2.525-.181,7.127,7.127,0,0,1-1.13-3.044c-.329-3.786-2.213-6.973-3.981-10.2a5.573,5.573,0,0,0-1.745-1.842,2.275,2.275,0,0,0-3.24.105c-1.274,1.142-2.819,1.3-4.371,1.521a3.217,3.217,0,0,1-2.472-.976c-2.3-1.837-4.36-1.966-6.979-.438a36.826,36.826,0,0,1-5.321,2.7,7.01,7.01,0,0,1-4.946.129c-1.093-.366-2.181-.752-3.256-1.169a3.157,3.157,0,0,0-2.952.178,5.193,5.193,0,0,1-2.792.705,16.992,16.992,0,0,0-4.287.629c-2.2.516-4.473.111-6.711.073a14.663,14.663,0,0,0-5.341.946,2.061,2.061,0,0,0-1.32,1.356c-.452,1.207-.61,2.472-.958,3.7a2.894,2.894,0,0,0,.69,2.378c.86,1.246,1.906,2.361,2.808,3.58.505.683,1.306.85,1.92,1.326a4.016,4.016,0,0,0,.407.283l-.016-.015c.436.692,1.235.5,1.848.754a35.194,35.194,0,0,1,5.4,2.48,1.044,1.044,0,0,1,.711,1.16,1.611,1.611,0,0,1-1.764,1.257,2.973,2.973,0,0,1-1.367-1.1c-.244-.427-.168-1.246-.9-1.127-.623.1-.491.873-.717,1.336a2.463,2.463,0,0,1-.3.444" transform="translate(-7.267 -31.098)" fill="#ffb937"/>
        <path id="Path_883026" data-name="Path 883026" d="M185.722,6.99a35.421,35.421,0,0,1-3.608-5.668c-.693-1.427-2.1-1.6-3.586-.978a10.417,10.417,0,0,0-2.935,2.014c-1.572,1.425-3.1,2.9-4.674,4.321a21.534,21.534,0,0,1-4.77,3.6h0l-.751-.042a2.487,2.487,0,0,0-1.863.519c-2.65,1.793-4.27,4.414-5.837,7.087-.727,1.065-1.936,1.5-2.917,2.234a17.659,17.659,0,0,0-3.642.759c-1.422.207-2.87.307-4.261.644a24.612,24.612,0,0,0-7.82,3.186c-2.258,1.479-4.709,2.646-6.931,4.192a6.99,6.99,0,0,0-1.048.205,11.21,11.21,0,0,1-6.991.547l-.732-.013a3.97,3.97,0,0,0-2.279.693h0a1.722,1.722,0,0,0-1.217.737c-1.456,2.082-3.57,2.665-5.944,2.79-2.172.114-4.256.806-6.436.994a10.3,10.3,0,0,0-5.012,1.34h0c-1.368-.173-2.438.66-3.538,1.2-1.975.968-4.049,1.848-5.542,3.584a2.876,2.876,0,0,1,.684.468,8.109,8.109,0,0,1-.684-.468c-3.75,2.3-4.4,6.327-4.223,10.291a7.642,7.642,0,0,1-.225,3.179h0l.028.007a1.121,1.121,0,0,1-.345.411l.345-.411a.427.427,0,0,0-.345.411.25.25,0,0,0-.033.228.856.856,0,0,0-.686.866c-.367.316-.741.625-1.1.95a5.455,5.455,0,0,0-1.255,6.661,8.349,8.349,0,0,0,.926,1.552c.234.328.411.667.159.991-1.07,1.375-1.953,2.95-3.658,3.695a8.085,8.085,0,0,0-3.5,2.437,8.622,8.622,0,0,1-1.837,1.746,12.231,12.231,0,0,0-3.62,4.265,8.772,8.772,0,0,1-2.629,2.973c-.477.368-.948.743-1.421,1.115-.486.9.033,1.656.377,2.406.709,1.546,1.484,3.061,2.254,4.578a6.859,6.859,0,0,1,.4,5.8,63.81,63.81,0,0,0-2.756,10.94c.048,1.069-.293,2.11-.212,3.18a18.922,18.922,0,0,0,.7,3.621,4.157,4.157,0,0,0,1.681,2.441,1.215,1.215,0,0,0,1.407-.3c.127-.092.192-.255.358-.3-.107.164-.347.206-.388.425a1.616,1.616,0,0,0,.408,1.47,7.043,7.043,0,0,0,3.4,1.233,4.943,4.943,0,0,0,.566.011,9.761,9.761,0,0,0,3.533-.777c2.31-1.135,4.766-2.007,6.688-3.819.744-.918,1.716-1.6,2.517-2.46.057-.06.117-.116.175-.176.117-.115.231-.23.338-.355a11.56,11.56,0,0,1,1.935-1.767c.975-1.122,2.249-1.93,3.221-3.054a2.313,2.313,0,0,0,.364-.707c.774.216,1.325-.351,1.922-.7a21.651,21.651,0,0,1,4.45-2.447c1.076-.43,2.225-.658,3.261-1.193a2.041,2.041,0,0,0,.357-.349.8.8,0,0,0,.229.017,2.443,2.443,0,0,0,.389-.1c.129-.035.257-.064.386-.1.269-.032.54-.025.809-.044a2.913,2.913,0,0,0,.414-.06,4.374,4.374,0,0,1,.619-.1,2.209,2.209,0,0,0,.413-.03,1.16,1.16,0,0,1,.78.144,2.057,2.057,0,0,0,.923.029,1.083,1.083,0,0,0,.391-.188c-.028.073.018.14.149.2l-.009-.008a.437.437,0,0,0,.718-.055h0c1.146,1.011,2.777,1.595,2.987,3.428a4.6,4.6,0,0,1,.176,1.809,5.342,5.342,0,0,0,0,.539c.018.728-.009,1.457.041,2.186a15.061,15.061,0,0,1,.059,3.693c.41,1.7-.109,3.7,1.623,4.976.945.492,1.731-.028,2.529-.406a3.87,3.87,0,0,1,2.412-.68c-.483,1.9.56,3.45,1.187,5.1,1.568,2.427,2.336,2.638,4.992,1.359a14.432,14.432,0,0,0,2.039-1.66,47.536,47.536,0,0,0,4.526-5.777,41.37,41.37,0,0,0,2.874-4.1,15.144,15.144,0,0,0,1.216-2.387A3.319,3.319,0,0,1,140.92,106c.119-.126.339-.149.371-.364a3.332,3.332,0,0,1,1.482-1.5,3.766,3.766,0,0,0,1.85-2.513c.187-.75.452-1.481.683-2.22.3-.313.024-.8.332-1.107l-.008-.007c.618-.606.4-1.331.3-2.048-.217-1.689-1.04-3.219-1.268-4.9-.5-1.165-.38-2.594-1.436-3.52a.946.946,0,0,0,.024-.166,8.685,8.685,0,0,1-.124-2.2l.054-.238q-.058-.572-.116-1.146a1.619,1.619,0,0,1-.216.107.826.826,0,0,1,.216-.107c.1-.39.014-.839.373-1.144-.212-1.407.319-2.76.348-4.149a3.9,3.9,0,0,0,.355-.707c.428-1.8.6-3.65,1.164-5.419-.1-.447.588-.97,0-1.324-1.119-.673-.8-1.694-.675-2.608a6.971,6.971,0,0,1,2.033-4.153,7.918,7.918,0,0,0,1.69-2.973,11.859,11.859,0,0,0,.673-5.364A7.771,7.771,0,0,1,151.349,50c1.361-1.5,2.905-2.952,3.454-5.041h0a6.974,6.974,0,0,0,1.109-2.237,26.924,26.924,0,0,1,2.741-6.232c.7-1.035,1.729-1.879,2.042-3.169-.009-.011-.014-.022-.022-.032a13.6,13.6,0,0,0,3.69-2.576h0a11.158,11.158,0,0,0,6.925-6.567l0,0a11.281,11.281,0,0,0,2.544-3.318A33.308,33.308,0,0,1,180.8,15.6c1.254-.693,2.463-1.546,3.662-2.371a4.523,4.523,0,0,0,1.264-6.243M93.236,56.506a1.517,1.517,0,0,0-.719-.619.381.381,0,0,1,.611.047.474.474,0,0,1,.108.572m26.475,23.906s-.007-.005-.009-.009h.019l-.009.009m23.05-1.122c-.011,0-.017.012-.028.016s-.013.01-.019.017a1,1,0,0,1-.166-.441.91.91,0,0,0,.213.408m-2.679-25.808-.075.065-.048-.124c.04.022.082.041.123.06m-10.093-1.954c0,.009.007.017.011.026l-.01.016a.293.293,0,0,0-.028-.036l.028-.005M126.832,40.47a.561.561,0,0,1,.079.123c-.091-.035-.17-.062-.243-.084a.671.671,0,0,1,.164-.039m-.44-1.165-.007.01V39.3l.008.006M125.36,81.493c-.011.016-.016.028-.028.044,0-.017-.009-.029-.012-.047a.306.306,0,0,0,.04,0M123.4,44.015a2.444,2.444,0,0,1,.21,1.373c-.1-.327-.247-.743-.456-1.313.074-.09.157-.127.246-.06M136.3,100.2c-.023-.151-.047-.291-.072-.424a1.391,1.391,0,0,0,.255.023c-.06.125-.121.257-.183.4m7.8-64.3a1.3,1.3,0,0,0,.036-.141,1.01,1.01,0,0,0-.088-.066.681.681,0,0,0,.079-.136c.005.071.005.132.014.207.01.022.026.038.037.059-.024.026-.051.051-.078.076m1.552,3.187-.007.009-.016,0a.209.209,0,0,0,.022-.016Zm1.474.042c-.006-.011-.009-.02-.016-.032v0l0,.005.035,0c-.008.01-.016.021-.023.031" transform="translate(-9.527 0)" fill="#bb7d23"/>
        <path id="Path_883027" data-name="Path 883027" d="M66.883,166.161a2.813,2.813,0,0,0-.323-1.516.609.609,0,0,0-.089-.088,5.682,5.682,0,0,0-.045-.756,9.1,9.1,0,0,0-.462-1.7c-.142-.373-.266-.751-.416-1.121a3.761,3.761,0,0,0-.351-.6,3.688,3.688,0,0,1-.358-.831,3.369,3.369,0,0,0-.175-.433,4.4,4.4,0,0,0-.219-.426,2.86,2.86,0,0,0-.275-.406,37.674,37.674,0,0,0-2.741-2.912,53.472,53.472,0,0,1-7.155-7.264c-.138-.206-.275-.413-.417-.617-.255-.257-.286-.765-.676-.869.011-.092.022-.186.029-.279a9.32,9.32,0,0,0-.559-2.564,1.135,1.135,0,0,0-.181-.07c.007-.005.01-.013.017-.018a.974.974,0,0,0,.667-.483,18.924,18.924,0,0,1,2.258-4.139,7.784,7.784,0,0,0,1.57-4.927,3.891,3.891,0,0,0-2.491-3.794c-.053.052-.11.1-.166.153-.117-1.718-1.959-1.928-2.72-3.083a33.1,33.1,0,0,1-3.159-2.707,4.993,4.993,0,0,1-1.826-4.256c.1-1.067.022-2.152.014-3.228,0-.469.087-.971-.345-1.331h0q.006-2.019.014-4.038a19.76,19.76,0,0,1-1.01-2.321,20.16,20.16,0,0,0-5.348-8.472c-1.383-1.394-2.714-1.109-3.443.735-.308.779-.36,1.671-.727,2.414a6.929,6.929,0,0,0,.674,7.492,9.517,9.517,0,0,1,1.441,3.113,7.4,7.4,0,0,0,.182,1.059,2.88,2.88,0,0,1-1.34,3.705c-.51.312-.969.71-1.451,1.068-2.133,1.159-4.291,2.281-5.735,4.353-.133.191-.389.291-.558.462-2.4,2.429-2.738,4.79-.572,7.579,1.268,1.631,2.647,3.183,3.8,4.889a13.475,13.475,0,0,0,2.589,3.018,47.165,47.165,0,0,1,4.038,3.886c.119,0,.244.009.371.016a.67.67,0,0,1-.371-.016,1.187,1.187,0,0,0,.476.686c.012.414-.014.84.359,1.14h0a.334.334,0,0,0,.062.308c.16,1.287.244,2.519-1.265,3.171a1.058,1.058,0,0,0-.588,1.066,6.523,6.523,0,0,1-.446,1.934l0,.006a1.839,1.839,0,0,0-.636,1.146,9.347,9.347,0,0,0-2.922,4.406c-.269,1.052-.1,1.3,1.058,1.793.454-.021.383-.357.411-.633.528.5,1.057,1,1.782.263.979.076,2.263-.486,2.84.5.624,1.065-.3,2.119-.74,3.152-.655,1.556-1.837,2.787-2.531,4.31l.006.007c-.573-.016-.767.414-.973.831a9.529,9.529,0,0,0-1.374,2.924,3.477,3.477,0,0,0,.513,3.246,43.071,43.071,0,0,1,3.795,6.549c.841,1.656,1.817,3.249,1.8,5.2l-.1,1.436a15.256,15.256,0,0,1-3.535,4.688,4.451,4.451,0,0,0-1.339,4.6,12.292,12.292,0,0,0,2.285,4.265c.935,1.308,2.147,2.44,2.667,4.024-.025.477.115,1.056-.1,1.413a3.456,3.456,0,0,0,.187,4.022,1.094,1.094,0,0,1-.136,1.481c-.99.983-1.483,2.316-2.436,3.316a1,1,0,0,1,.525.036,3.511,3.511,0,0,0-.525-.036c-.065.1-.129.209-.193.313a.568.568,0,0,1,.282.252,2.965,2.965,0,0,0-.282-.252,3.331,3.331,0,0,0-1.1,2.029,8.053,8.053,0,0,1-7.565,4.9,3.671,3.671,0,0,0-1.921.426c-3.072,1.459-3.294,4.289-2.6,7.7.155.755,1.116,1.31.773,2.134-.325.779-1.467.471-1.991,1.119a.668.668,0,0,1-.288.207A38.825,38.825,0,0,0,12.62,240.6a12.969,12.969,0,0,1-2.458,1.521,9.138,9.138,0,0,0-3.083,2.222c-1.1,1.2-2.139,2.46-1.838,4.353a11.2,11.2,0,0,0,1.046,2.688c1.186,2.758,1.022,3.528-1.225,5.477a8.719,8.719,0,0,1-1.809,1.219,10.043,10.043,0,0,0-2.311,1.764C-.281,261-.286,261.87.769,263.121a9.646,9.646,0,0,0,4.043,2.7,8.649,8.649,0,0,1,2.719,1.43c.229.144.6.1.643.489.025.529.091,1.06.066,1.588-.073,1.59-.085,1.59,1.479,2.365a.362.362,0,0,0,.386.008,1.54,1.54,0,0,0,.342-.069c1.432-1.312,2.269-3.145,3.805-4.369.368-.4.835-.672,1.236-1.028.055-.05.112-.1.168-.145.113-.09.229-.172.344-.258.121-.071.243-.141.359-.218a3.48,3.48,0,0,0,.343-.239c.111-.081.224-.161.332-.248.291-.2.6-.373.9-.562.061-.039.126-.074.187-.114.13-.072.264-.144.391-.223a3.763,3.763,0,0,0,.4-.246,4.413,4.413,0,0,0,2.116-2.62,3.766,3.766,0,0,1,3.454-2.983c1.4-.449,2.963-.449,4.109-1.559a2.027,2.027,0,0,0,.447-1.835,10.1,10.1,0,0,0-.667-1.493c-.922-1.968-.612-3.161,1.173-4.535,1.365-.486,1.944.706,2.715,1.356,2.734,2.3,3.81,2.377,6.625.249.06-.06.123-.117.181-.176.12-.119.238-.237.348-.365.055-.063.115-.123.171-.185a4.727,4.727,0,0,0,.326-.382,3.915,3.915,0,0,0,.292-.413,5.712,5.712,0,0,0,1.776-4.16c0-.022,0-.042,0-.064.376-.26.3-.8.4-1.23a16.108,16.108,0,0,1,.908-5.775,4.552,4.552,0,0,1,1.932-2.39c.168-.161.329-.324.484-.5q.448-.478.915-.936c.049-.053.1-.1.149-.154.1-.1.2-.2.3-.3s.21-.186.31-.285a4.968,4.968,0,0,1,.726-.477,2.7,2.7,0,0,0,.381-.264c.73-.72,1.577-1.369,1.62-2.506.446,0,.66-.316.8-.72.033-.087.064-.174.093-.258.285-.264.413-.685.749-.9a1.239,1.239,0,0,0,.781-.592,21.06,21.06,0,0,0,1.718-2.766c.183-.5.369-1,.545-1.5.2-1.133,1.019-2.22.317-3.418a3.779,3.779,0,0,0,.3-.237c.857-2.283.553-4.707.857-7.058a5.559,5.559,0,0,0-.028-.574,19.38,19.38,0,0,1,2.585-11.648c.319-.552.849-1.059.614-1.808,1.145-.011,1.42-1.158,2.14-1.724.054-.061.11-.118.163-.18.111-.117.22-.231.322-.353.052-.06.106-.115.157-.174a3.669,3.669,0,0,0,.294-.361,4.18,4.18,0,0,0,.247-.39c.124-.2.256-.394.372-.6a1.851,1.851,0,0,0,.217-1.428l0-.005c.98-.42.9-1.426.967-2.26.265-3.221-.064-6.448,0-9.676a5.313,5.313,0,0,0-.1-.857,17.852,17.852,0,0,1,.619-2.84,5.371,5.371,0,0,1,.364-.4,2.81,2.81,0,0,0,.452-2.068c-.032-.047-.046-.1-.073-.142.648-.241.524-1.013.8-1.509a7.565,7.565,0,0,0,.163-1.514,27.025,27.025,0,0,0,.351-5.89M36.922,245.212a.187.187,0,0,1,.047-.246.373.373,0,0,1,.022-.1.875.875,0,0,0,.022.245s-.1.095-.092.1m.117-.484c.026-.052.052-.1.08-.156l.016.013c-.032.047-.063.1-.1.143m2.63-3.061a.731.731,0,0,1,.105.131c-.038-.044-.082-.086-.124-.128l.019,0m.058.56a.413.413,0,0,0,.126-.2.529.529,0,0,1,.014.1c-.005.1-.1.131-.14.1m1.421-69.289h-.012l.012-.017,0,.008,0,.01m1.105-47.764c-.016-.006-.031-.016-.048-.022a.243.243,0,0,1,.049-.033c0,.018,0,.036,0,.054m4.226,77.054c.035-.069.072-.138.105-.208.1-.206.21-.414.294-.629.012-.033.021-.066.032-.1a1.509,1.509,0,0,1-.432.936m.446-67.089.026-.005,0,.029c-.009-.009-.019-.016-.028-.024m3.535,67.465a1.538,1.538,0,0,1-.064-.335.314.314,0,0,1,.064.335m1.44-29.051,0,.016-.007-.006,0-.01m.66,19.139a1.567,1.567,0,0,0-.368-.537c-.415-.348-.41-.335-.159-1.015a1.111,1.111,0,0,0,.063-.358c.509.6,1.391.856,1.738,1.571-.444.072-1.065-.224-1.274.34m1.849,2v-.006l.013,0-.013,0m7.123-8.123c-.088-.239-.148-.486.08-.571a1.261,1.261,0,0,0-.08.571m.265.357a1.642,1.642,0,0,1,.456.17,3.129,3.129,0,0,1-.456-.17" transform="translate(0 -13.682)" fill="#efb499"/>
        <path id="Path_883028" data-name="Path 883028" d="M158.761,207.25c.3-.031.385-.256.43-.5.035-.178.022-.4-.17-.467-.294-.109-.429.1-.463.352-.032.227-.054.471.2.611" transform="translate(-21.65 -28.166)" fill="#f8cd9c"/>
        <path id="Path_883029" data-name="Path 883029" d="M156.709,209.846a1.256,1.256,0,0,0-.727.732.664.664,0,0,0,.727-.732" transform="translate(-21.301 -28.657)" fill="#f8cd9c"/>
        <path id="Path_883030" data-name="Path 883030" d="M141.539,291.067l-.269-.329a.329.329,0,0,0,.269.329" transform="translate(-19.292 -39.703)" fill="#f8cd9c"/>
        <path id="Path_883031" data-name="Path 883031" d="M274.488,166.146c-.7-.192-1.407-.326-2.106-.507-.759-.2-1.384-.466-1.049-1.486.229-.7-.11-1.16-.809-1.355h0c-.184-.239-.484-.457-.531-.72-.225-1.235-1.035-1.475-2.111-1.384-1.193.1-2.389.24-3.583.237-2.319-.007-4.631.259-6.958.106a34.754,34.754,0,0,0-5.512-.028.83.83,0,0,0-.323.017,10.317,10.317,0,0,0-1.955-.25c-2.4.141-4.783-.08-7.172-.17h0c-2.3-.54-4.7-.623-6.947-1.4a4.874,4.874,0,0,0-2.19-.76l.005-.005a29,29,0,0,0-4.024-2.177h0a6.5,6.5,0,0,0-2.5-1.457,1.834,1.834,0,0,0-1.163-.83l-.378-.243c-1.261-.809-2.582-1.54-3.771-2.444a37.331,37.331,0,0,1-6.819-6.72,11.265,11.265,0,0,0-9.8-4.413c-2.489.066-4.9.775-7.388.768a1.921,1.921,0,0,0-1.049-.085,17.837,17.837,0,0,1-6.964-.656h0a1.625,1.625,0,0,0-.8-.371c-1.913-.571-3.932-.454-5.839-.82a8.807,8.807,0,0,0-5.51.822c-.925.165-1.143,1.308-2.058,1.487a13.5,13.5,0,0,0-3,4.758q-.184.544-.369,1.088a5.467,5.467,0,0,0-.756,1.769,3.663,3.663,0,0,1-.662.671.47.47,0,0,0-.008.638,5.183,5.183,0,0,1-.769,2.04.957.957,0,0,0-.407,1.083q.035,1.466.071,2.931h0a11.487,11.487,0,0,0,1.425,3.678c.26-.02.246.238.367.36l0,0c.331.31.771.549.7,1.11q.2.723.392,1.445a.651.651,0,0,0,.429.172c.9-.1,1.281.8,1.939,1.161a3.932,3.932,0,0,0-1.249.495l-.005,1.09c-.439,1.114.078,2.157.27,3.215.493,2.712.418,2.8-2.134,3.633-2.879.945-5.995,1.108-8.684,2.66-.464.287-.993.5-1.192,1.08a3.975,3.975,0,0,1-1.431,1.059c-.137-.079-.234-.047-.283.108-1.128,1.322-2.687,2.281-3.36,3.987-.1.007-.2.01-.3.01a14.033,14.033,0,0,0-1.707,3.975c-.253,1.406-.68,2.856.5,4.1h0a.808.808,0,0,0,.4.673q1.043,2.551,2.087,5.1a6.812,6.812,0,0,1,.019,1.186,9.711,9.711,0,0,0,.075,1.267,2.733,2.733,0,0,1,.105.61c-.2.6-.165,1.318-.8,1.709-2.058.147-4.017.919-6.09.977a4.91,4.91,0,0,0-.833.1c-.6.193-1.28.247-1.58.94a.6.6,0,0,0,.054.143c-1.16-1.064-2,.425-3.034.4-1.153.431-2.188,1.118-3.345,1.538-.94.371-1.9.711-2.807,1.155-.522.256-1.207.487-1.016,1.292l-.058,0c-1.615.3-2,1.031-1.647,3.148a1.333,1.333,0,0,1,.358.165.58.58,0,0,1-.11,0,.451.451,0,0,0-.243.206.61.61,0,0,0-.334-.012.75.75,0,0,0-.5.508c0-.013,0-.025-.008-.039-1.767-.369-3.179.806-4.792,1.11a5.15,5.15,0,0,0-.484.188c-.553.226-1.122.408-1.661.667A20.187,20.187,0,0,0,123.1,218c-.289.393-.652.836-.345,1.382-.632.062-.915.567-1.219,1.045a4.393,4.393,0,0,0-.226.451c-.348.732-.681,1.471-1.087,2.176-.085.13-.174.255-.258.386-.182.234-.378.454-.553.692a2.858,2.858,0,0,0-.22.375c-.1.189-.2.376-.306.562-.176.31-.389.6-.587.89-.154.244-.3.492-.476.72-.147.168-.307.323-.463.482a17.81,17.81,0,0,1-1.666,1.311,7.632,7.632,0,0,0-1.179,1.3,3.794,3.794,0,0,0-.474,1.225,4.182,4.182,0,0,0,.309,2.652,2.545,2.545,0,0,0,.4.368,22.812,22.812,0,0,1,2.979,4.882,17.329,17.329,0,0,0,1.8,3.292q.548,1.466,1.1,2.93-.149,1.995-.3,3.988h0a19.679,19.679,0,0,0-.768,5.509,7.645,7.645,0,0,0,1.124,4.738,5.664,5.664,0,0,0,4.195,3.064,33.035,33.035,0,0,0,4.089.654,13.756,13.756,0,0,0,3.349,1.454h0L134.5,266c1.115,1.085,1.7,2.588,2.867,3.632h0l.172.367a1.327,1.327,0,0,0,.269.328l.014.017a.409.409,0,0,0,.351.36l.008.005a10.891,10.891,0,0,0,.715,1.046c1.381,1.6,3.99,2.2,5.365.967,2.086-1.866,3.917-3.986,3.82-7.082a60.132,60.132,0,0,0,1.82-9.136l1.839-5.131,0-.024a.361.361,0,0,0,.28-.371q1.125-1.448,2.253-2.9a.914.914,0,0,0,.708-.412l.005,0a.859.859,0,0,0,.746-.346l1.084-.016c.882.623,1.855-.011,2.8.212a39.716,39.716,0,0,0,4.064.557.935.935,0,0,0,.81.348c.63.512,1.458.478,2.165.781.661.887,1.807.889,2.642,1.441,1.606,1.063,3.149.679,4.7-.093a.4.4,0,0,0,.372-.313h0l.729-.4a.417.417,0,0,0,.372-.319,1.1,1.1,0,0,0,.728-.736,1.214,1.214,0,0,0,.315-.044c.485.216.965.631,1.5.155.615-.545.234-1.1-.039-1.641a.8.8,0,0,0-.045-.316q.24-.721.477-1.443h0c.575-.7,1.1-1.436,1.735-2.078,1.426-1.454,2.643-3.172,4.578-4.029,1.325-.586,2.736-.983,4.053-1.587,2.956-1.356,5.82-1.487,8.615.385a7.293,7.293,0,0,0,4.05,2.541,1.845,1.845,0,0,0,.367.156,5,5,0,0,0,4.588-.69,15.33,15.33,0,0,0,4.771-4.644c.756-1.09,1.578-2.134,2.371-3.2a.666.666,0,0,0,.326-.075,7.263,7.263,0,0,1,4.729.792c.307.5.941.545,1.322.939,1.842,1.907,3.949,2.078,6.32,1.093,1.533-.637,3.57-3.218,3.609-4.863a2.46,2.46,0,0,0-.316-.836c.024-.646.439-.691.978-.773,2.459-.371,2.656-.6,3.15-2.923.414-1.949.87-3.89,1.307-5.833h0a.5.5,0,0,0,.1-.3l1.043-.784.029-.02a.432.432,0,0,0,.376-.327.51.51,0,0,0,.389-.326v.009a39.657,39.657,0,0,0,4.36-2.245,13.558,13.558,0,0,1,6.936.014h0a4.356,4.356,0,0,1,2.444,1.832,3.629,3.629,0,0,0,2.309,1.837c.983.844,1.923.252,2.87-.089,1.03.285,1.03.285,1.166-1.024a6.8,6.8,0,0,1,5.414-2.794c1.374-.054,2.751-.114,4.125-.174a10.074,10.074,0,0,1,3.389.395,14.7,14.7,0,0,0,3.158.591,4.249,4.249,0,0,0-2.574-1.518c-1.487-.5-1.5-.507-1.377-2.007a5.739,5.739,0,0,0-.446-2.977c-.455-.973-.961-1.922-1.445-2.882a.777.777,0,0,0-.348-.72c.082-.855-.662-1.408-.8-2.184a.688.688,0,0,0-.3-.794h0a19.209,19.209,0,0,1-.37-4.98c.661-.686.176-1.523.3-2.279a1.076,1.076,0,0,0,.107-.284c.532-1.559.224-3.22.577-4.8h0q.032-.549.064-1.1l-.1-.106.026.011.079.095.031-.044h0a1.061,1.061,0,0,0,.347-.983,5.458,5.458,0,0,1,.739-2.95,52.662,52.662,0,0,1,3.163-6.1,4.123,4.123,0,0,0,.844-1.978v-.4h0a7.841,7.841,0,0,1,1.964-5.663,18.565,18.565,0,0,0,2.014-3.4c.607-1.158.211-1.907-1.083-2.264M171.806,150.038v.007c-.026.015-.053.027-.079.04-.13-.086.25-.157.08-.047M137.48,232.366c-.009-.016-.021-.031-.03-.047.014,0,.024,0,.037,0,0,.015,0,.028-.007.043m1.862,38.742c-.022-.029-.041-.056-.063-.086.032.011.06.018.091.029-.011.02-.018.037-.028.056m2.494-20.512c0-.022.006-.041.006-.062h.111a1.273,1.273,0,0,1-.117.062m1.724-20.781a1.312,1.312,0,0,1,.087-.361l.009,0a.688.688,0,0,1-.1.365m2.567,9.192a3.794,3.794,0,0,0-.264.285c0-.01-.005-.017-.006-.028l-.028-.017a3.362,3.362,0,0,0,.289-.234c.008-.007.011-.016.019-.023s-.005.013-.01.017m4.125-27.854c0-.012,0-.026-.005-.038l.039.031c-.011,0-.022,0-.034.007m1.226,35.508h0m.1,3.062c-.016-.025-.027-.054-.044-.078l.109-.01-.065.088m3.651-43.769c.006-.019.01-.036.016-.055.01.022.021.04.03.06a.428.428,0,0,0-.047-.005m4.149-20.061.005,0-.005.015v-.018m-.022,44.615c.009-.005.014-.012.022-.017.009.017.018.035.027.052l-.049-.035m6.171-44.674c.029-.022.059-.041.087-.063a.326.326,0,0,1,.111.066l-.2,0m8.4,56.911a4.725,4.725,0,0,0,.6-.8.546.546,0,0,1,.673.121,6.069,6.069,0,0,1-1.273.68m2.224-77.723c-.641.212-.863-.2-1.049-.67,0,0,.006,0,.009,0a.94.94,0,0,0,.937.608c.016,0,.139-.007.139-.007s-.06.079-.036.068m2.949,14.188a.516.516,0,0,1-.249.024,7.178,7.178,0,0,0,.6-.468.5.5,0,0,1-.35.444m8.864-28.985-.111-.006a1.1,1.1,0,0,0,.138-.123c.005.034.008.066.014.1l-.041.029m.224,20.188c.059-.041.119-.084.18-.124a.852.852,0,0,1,1.07.059c-.4.017-.869.043-1.249.066m1.375-27.2-.011,0q.008-.04.013-.08a.594.594,0,0,1,0,.078m5.929,30.6a.149.149,0,0,1-.02-.072l.025.022c0,.017,0,.032-.005.05m.11,1.2a.452.452,0,0,0-.055-.017c.027-.044.04-.079.071-.125-.01.054-.009.092-.016.142m1.434,1.371h0c.085-.075.159-.142.224-.2a.735.735,0,0,1-.224.205m.315,10.362h-.005c0-.009.009-.017.013-.027l-.008.028m2.229,39.761c-.009-.015-.02-.028-.029-.041.014,0,.026,0,.04,0s-.009.025-.01.038m.288,3.629c.014-.081.028-.161.049-.244a.743.743,0,0,1,.15.149,1.59,1.59,0,0,0-.2.095m2.547-71.924a.5.5,0,0,1,.038-.073.379.379,0,0,1,.3-.189,1.575,1.575,0,0,0-.339.262m2.292.995v.014l-.013-.011a.025.025,0,0,0,.009-.029.21.21,0,0,1,.022.017l-.018.009m.274,1.835a.194.194,0,0,0,.016-.056l0,0a.243.243,0,0,0,.033.023.123.123,0,0,0-.051.037m.461,72.39,0-.017.033.015-.029,0m4.053-8.95c0-.023-.006-.047-.009-.07l.056.017a.349.349,0,0,1-.047.053m1.061-65.275v0h0l.03-.081c.009.01.017.022.027.031-.021.017-.036.034-.057.05m1.1,66.166v-.017c0,.006,0,.012.005.017h-.005m2.1-15.216c0-.022,0-.04-.005-.06l.011.005c.011,0,.022,0,.033.005-.012.018-.026.032-.039.05m1.186-27.188h0m0,.019,0-.018h0l.01.011-.012.008m.882-3.341a.573.573,0,0,1-.109-.118,1.17,1.17,0,0,1,.158-.519,4.675,4.675,0,0,0-.049.637m4.217,6.264-.013-.012a.056.056,0,0,0,.022-.009l.008.006-.016.015m.756.724-.005-.01h.011l-.006.011M225.948,172c-.015-.017-.029-.035-.044-.052l.011-.008a.583.583,0,0,0,.034.06h0m2.193,56.329c-.009-.008-.017-.017-.027-.025l.012-.009.1-.012c-.031.014-.057.031-.085.047m5.452-16.848a.511.511,0,0,0-.1-.085c0-.005.007-.008.01-.013l.094.1Zm3.316,6.614-.39.335h0v0a1.308,1.308,0,0,1,.39-.338v0m6.079-43.214c-.03-.031-.061-.06-.091-.093.047-.028.1-.053.148-.079-.02.058-.04.114-.057.172m.724,38.083a1.152,1.152,0,0,0-.029-.134c.024,0,.046.01.07.01a1.147,1.147,0,0,1-.041.123m21.732-17.906c.006-.02,0-.037.015-.06.027.022.052.048.078.073-.031,0-.061-.013-.092-.014" transform="translate(-15.564 -18.96)" fill="#fee080"/>
        <path id="Path_883032" data-name="Path 883032" d="M180.775,140.837h0" transform="translate(-24.686 -19.233)" fill="#8cc697"/>
        <path id="Path_883033" data-name="Path 883033" d="M182.021,155.208l-.084-.152-.068.068Z" transform="translate(-24.836 -21.174)" fill="#8cc697"/>
        <path id="Path_883034" data-name="Path 883034" d="M160.864,156.211c-.462.359-.639.168-.911-.308a8.565,8.565,0,0,1-.556-1.407l-.9.961c-.079,0-.157-.009-.236-.014.286-.464.074-.9-.123-1.342-.068-.119-.148-.231-.223-.345.326-.591.243-.725-.524-.833-.006-.011-.015-.021-.02-.032-.078-.138-.155-.275-.243-.407s-.155-.278-.239-.413a10.912,10.912,0,0,1-1.134-3.532,10.341,10.341,0,0,0-.187-2.457,2.93,2.93,0,0,0-.2-.409,1.468,1.468,0,0,0,.251-.812.357.357,0,0,0,.3.022,1.741,1.741,0,0,0,.512-2.241l.266-.37a.608.608,0,0,0,.358-.533,1.463,1.463,0,0,0,.181-.128,7.316,7.316,0,0,0,.959-1.859,4.531,4.531,0,0,0,.3-1.3,1.5,1.5,0,0,0-.037-.208,14.745,14.745,0,0,0,2.727-4.38,7.437,7.437,0,0,0-2.229-1.934h0a1.031,1.031,0,0,0-.439-.755,43.627,43.627,0,0,1-6.489-5.378l-.149-.354a.322.322,0,0,0-.28-.348l.2.252a1.211,1.211,0,0,0-.2-.252c-.284-.465-.573-.927-.851-1.4a3.673,3.673,0,0,1,.247-4.4c.379-.471.852-.866,1.24-1.331,1.041-1.251,2.27-2.406,2.314-4.208.383-.32.168-.665.041-1.005a.833.833,0,0,0,.184-.667,12.222,12.222,0,0,0-2.455-5.864c-1.493-2.176-3.721-3.765-5.053-6.092a.282.282,0,0,0-.111-.256.374.374,0,0,0-.235-.408h0a.892.892,0,0,0-.4-.78h0a13.935,13.935,0,0,0-2.228-4.308c-.462-.915-.959-1.814-1.379-2.748a10.207,10.207,0,0,0-2.744-3.8A11.205,11.205,0,0,1,137,84.438a3.579,3.579,0,0,0-1.1,2.011c-.121,1.192-.283,2.38-.428,3.57-.389,1.514-1.427,2.982-.392,4.6-.066.019-.134.036-.194.058a1.39,1.39,0,0,0-.523,1.171,3.885,3.885,0,0,0,.125,1.065c.045.1.08.209.12.313a2.105,2.105,0,0,0,.2,2.279l1.111,3.665a6.8,6.8,0,0,0,.615,2.456,14.675,14.675,0,0,1,.793,4.414.889.889,0,0,0-.168.155c-.218.355-.352.749-.533,1.121-.637,1.964-1.371,3.86-3.278,5a1.3,1.3,0,0,0-.484.746.622.622,0,0,0,.053.441l-.146.143a.7.7,0,0,0-.486.028,2.571,2.571,0,0,0-1.13,1.925,1.345,1.345,0,0,0,.041.242,4.291,4.291,0,0,0-1.173,1.942q-1.445,2.036-2.893,4.071h0l-4.433,5.763a4.952,4.952,0,0,0-1.794,1.519c-.343.115-.692.214-1.027.347-1.659.66-2.14.532-3.259-.888-.148-.187-.294-.376-.44-.565h0a31.189,31.189,0,0,1-1.514-5.043.882.882,0,0,0-1.354-.3,7.3,7.3,0,0,1-3.346,1.331,3.494,3.494,0,0,1-1.107-2.229c.025-.986-.318-1.91-.365-2.877a8.845,8.845,0,0,0-.011-3.291q-.023-1.271-.046-2.542h0c-.009-.135-.018-.269-.027-.4.009-.619.231-1.273-.281-1.809l-.009-.01c-.152-2.05-1.432-2.991-3.3-3.357l-.641.048c-.028-.022-.043-.056-.073-.077h0c-.007-.079-.014-.158-.022-.237l-.7.023h0l-1.114-.047c-.124-.207-.252-.2-.382-.006h0a1.135,1.135,0,0,0-.342-.01c-.256-.357-.494-.059-.737.02l-.385.04-1.026-.028-.418.259h0l.015.128h0l-.715.031c0,.1-.007.2-.009.3h0a7.668,7.668,0,0,0-3.311,1.091,3.843,3.843,0,0,0-2.011.729c-1.552.819-2.866,2.044-4.543,2.643q-.194.333-.388.665a17.063,17.063,0,0,0-3.294,2.974,5.747,5.747,0,0,0-1.827,1.763c-.022,0-.041.024-.062.059l-.315.3h0A11.581,11.581,0,0,0,79.9,124.7h0c-1.959,1.607-4.325,2.5-6.511,3.711-1.229.224-2.373.845-3.664.768l-.368-.038h0a8.582,8.582,0,0,1-3.3-1.105c-.335-.214-.616-.572-1.081-.439.159-.6-.565-.372-.7-.694q-.751-1.08-1.5-2.161c-.324-1.213-.2-2.509-.685-3.694.039-1.094.475-2.157.259-3.272.833-3.334,1.368-6.74,2.529-10a9.219,9.219,0,0,0,.843-2.57,8.491,8.491,0,0,0-.971-4.372,38.645,38.645,0,0,1-3.09-6.756A7.2,7.2,0,0,0,58,95.53c-1.911,1.777-3.187,3.8-2.832,6.55a8.125,8.125,0,0,1-.348,3.406,3.191,3.191,0,0,1-3.342,2.551,3.134,3.134,0,0,0-2.935,1.671c-.935,1.2-.5,2.561-.432,3.878a16.989,16.989,0,0,1,.248,4.818,4.576,4.576,0,0,0,1.946,4.188l.4-.289c0,.03-.006.053-.008.083,0,.06-.006.118-.009.178a5.711,5.711,0,0,0,2.937,2.928,3.915,3.915,0,0,0,1.408,1.388,4.041,4.041,0,0,1,1.539,1.5c1.284.894,2.292,1.953,2.2,3.671a7.772,7.772,0,0,1-1.633,4.805,9.066,9.066,0,0,0-2.061,4.311h0l-.35.376a8.1,8.1,0,0,0,.373,2.924c.452.232.257.887.724,1.11l.328.37h0c.061.593.5.942.85,1.362.922,1.122,2.057,2.033,3.046,3.083,2.028,2.153,4.407,3.941,6.351,6.177h0a2.35,2.35,0,0,0,.035.329,2.54,2.54,0,0,1,.349.378l-.007.005c.024.395-.029.818.386,1.071l.318.389h0c.038.4,0,.834.4,1.111a6.75,6.75,0,0,0,.4,1.791l-.018.73c.113.014.226.024.34.03.016.483.029.965.044,1.447h0a35.231,35.231,0,0,1-.368,6.2c-.013.481-.026.961-.038,1.443-.562.344-.131,1.159-.71,1.495a6.127,6.127,0,0,1-.387,2.181c-.722.964-1.264,1.966-.74,3.2a4.814,4.814,0,0,0-.333.474c.053,2.524-.014,5.046.094,7.573.068,1.614.237,3.367-.819,4.846a2.684,2.684,0,0,1-.38,1.459l-.337.365c-.022.12-.037.24-.047.361l-.27.287a.1.1,0,0,0-.078.083h0a5.026,5.026,0,0,1-.364.366h0c-.947.513-1.352,1.57-2.192,2.19a25.038,25.038,0,0,0-2.027,3.637c-1.647,3.134-1.849,6.469-1.627,9.891l0,.367c.076,2.11-.49,4.178-.415,6.292a3.252,3.252,0,0,1-.323,1.019c.085,1.283-.535,2.427-.722,3.657a2.777,2.777,0,0,0-.408,1.451L54.4,225.276l-.327.57c-.013,0-.025-.009-.039-.011-.781.042-.882.707-1.132,1.236a1.371,1.371,0,0,1-.7.786c-.384,1.017-1.315,1.621-1.886,2.5a2.155,2.155,0,0,0-.324.059,1.062,1.062,0,0,0-.717.7l-.013.009a4.557,4.557,0,0,0-.355.352v.009h0a2.393,2.393,0,0,0-1.124,1.072c-.123.121-.245.24-.369.359-.88.585-1.855,1.077-2.14,2.23h0a14.281,14.281,0,0,0-1.115,6.189c.046-.111.1-.22.155-.329a1.5,1.5,0,0,1-.155.329c-.109.5.11,1.079-.381,1.48a4.092,4.092,0,0,1-1.374,3.4,1.429,1.429,0,0,0-.49.945v0l.013,0a.956.956,0,0,1-.374.365v0l-.345.385v0c-.454.292-.907.584-1.362.875-1.756,1.122-2.842,1.038-4.324-.338q-.988-.921-1.963-1.853a1.271,1.271,0,0,0-1.907-.186h0a3.4,3.4,0,0,0-1.595,4.749,4.637,4.637,0,0,0,.909,1.518,2.824,2.824,0,0,1-.369,1.773h0c-1.188.92-2.778.736-4.035,1.467h0a3.255,3.255,0,0,0-3.439,2.4,6.657,6.657,0,0,1-2.4,3.436h0a.986.986,0,0,0-.34.073,1.663,1.663,0,0,1-.393.332l.393-.332a.446.446,0,0,0-.393.332l-.012-.01a2.487,2.487,0,0,0-1.046.766l-.006,0a1.973,1.973,0,0,1-.421.34.8.8,0,0,0-.319.052.419.419,0,0,0-.376.309v0l-1.447,1.118a13.054,13.054,0,0,0-3.657,4.744c.534.532,1.22.292,1.842.344s1.3-.12,1.835.4a.456.456,0,0,0,.332.382,1.254,1.254,0,0,0,.72.739h0l0-.01.362.437v0a.461.461,0,0,0,.066.275,1.06,1.06,0,0,0,1,.788h0a4.44,4.44,0,0,0,.8,1.753c.673,1.152,1.306,2.331,2.034,3.446a13.363,13.363,0,0,0,1.894,2.436,5.6,5.6,0,0,0,4.9,1.258c1.986-.279,3.749-.16,5.116,1.748a7.513,7.513,0,0,0,3.217,2.878h0a17.594,17.594,0,0,0,4.021,3.613,3.467,3.467,0,0,0,3.3-.005l.179.007.174-.047c2.587-.757,4.922-2.2,7.578-2.773a1.506,1.506,0,0,1-1.16-.722,7.074,7.074,0,0,1-.9-3.085,3.514,3.514,0,0,0-.77-2.152c-.725-1.262-.522-2.765-1.06-4.075a6.775,6.775,0,0,1,2.42-4.866,4.25,4.25,0,0,1,3.718-1.361,1.506,1.506,0,0,0,1.977-1.053,7.336,7.336,0,0,1,1.129-1.843c1.666-2.291,1.834-2.339,4.467-1.567.059.017.118.028.178.041a3.912,3.912,0,0,1,.42,1.564,17.831,17.831,0,0,0,.374,2.7c.477,2.139,1.768,2.905,3.88,2.375a15.305,15.305,0,0,0,3.348-1.418.407.407,0,0,0,.406-.325h0a7.194,7.194,0,0,0-1.156-6.99,6.376,6.376,0,0,1,.382-2.921l.351-.432h0c1.271-1.556,3.135-1.928,4.92-2.441a5.594,5.594,0,0,0,2.772-1.224,3.326,3.326,0,0,0,1.584-1.4c.83-1.308,1.643-2.628,2.463-3.945h0a3.078,3.078,0,0,0,1.171-1.476h0a31.538,31.538,0,0,0,2.531-3.3c.442-.284,1.015-.459.949-1.159l.443-.7a137.4,137.4,0,0,0,8.652-12.08l4.862-6.654a.361.361,0,0,0,.27-.256,10.033,10.033,0,0,1-.313-2.934h0q.237-.545.473-1.089h0a2.747,2.747,0,0,0,1.04-1.12c.7-.382,1.47-.67,1.845-1.459-.239-.356-.857-.217-1.037-.734.562-.11.909.331,1.372.338a.7.7,0,0,0,.392-.667c.248-.378.338-.864.767-1.118l.29-.39c-.031,0-.051-.047-.061-.141s.045-.149.161-.2a1.3,1.3,0,0,0,.64-.765l.008-.006a7.381,7.381,0,0,0,1.379-2.54h0c.033-.121.065-.242.1-.363.462-.285.538-.93,1.071-1.148,1.358-2.879,3.74-4.79,6.236-6.594.473-.259,1.085-.2,1.476-.645v0h0c1.777-.212,3.345-1.163,5.1-1.442a2.276,2.276,0,0,1,1.057-.443l.005,0a.723.723,0,0,1,.041-.329c-.039-1.318-.092-2.641,1.4-3.313.31-.6.916-.762,1.466-1,.881-.386,1.766-.762,2.648-1.142a15.051,15.051,0,0,0,3.257-1.518h0a4.091,4.091,0,0,0,1.942-.675.85.85,0,0,1,.967-.029c.4-.435,1.029-.381,1.478-.709h.728a15.031,15.031,0,0,0,6-1.356,1.261,1.261,0,0,0,.376.025c.831-.581.785-1.5.924-2.356q0-.707-.009-1.414a24.194,24.194,0,0,0-2.178-6.314c-.188-.306-.368-.616-.545-.927-.952-2.076-.213-3.993.553-5.911.213-.534.7-1.01.505-1.642.023,0,.047.005.069,0a1.249,1.249,0,0,0,.433-.227,19.446,19.446,0,0,0,1.278-1.529c.638-.783,1.758-1.236,1.807-2.439h0a.58.58,0,0,0,.183-.069c.01.017.015.035.026.052.815.193,1.26-.307,1.659-.89a2.195,2.195,0,0,1,.059-.337,2.106,2.106,0,0,0,.966-.607,28.369,28.369,0,0,1,5.861-1.824,22.6,22.6,0,0,0,4.516-1.274c1.242-.43,1.482-.947,1.223-2.252-.291-1.466-.657-2.917-.995-4.373.053-.058.105-.113.159-.182a1.669,1.669,0,0,0,.125-.888c.578.2.955-.579,1.493-.568.074-.287.586-.346.46-.667-.154-.393-.455-.214-.707-.018M134.806,99.5h0M59.379,122.569a.156.156,0,0,0,.036-.039c.008,0,.015.009.023.008.006.022.011.044.016.066a.084.084,0,0,1-.076-.035m1.483,6.166a1.7,1.7,0,0,1-.17-.04c.055.013.114.026.175.038l-.005,0m.458,1.851c.01-.015.012-.028.022-.042.008.016.015.034.023.05-.016,0-.029,0-.045-.008m5.222,11.485a.568.568,0,0,1-.151.048,1.792,1.792,0,0,0-.047-.415c.069.016.137.034.22.047a3.184,3.184,0,0,1-.022.32m-36.07,121.09c.007-.011.009-.026.016-.037l.044.047c-.022,0-.04-.005-.06-.009m3.6,3.177h0v0m.2-11.107h0a.436.436,0,0,1-.045-.022.385.385,0,0,0,.036-.021C34.256,255.2,34.264,255.214,34.264,255.231Zm2.908,28.151.013,0,0,0,0,.015-.018-.015m1.846-21.945,0,.01-.009-.006.01,0m.006.032-.009-.022a.925.925,0,0,1,.181.028,1.7,1.7,0,0,1-.173-.005m2.524-13.549h.027c0,.009.009.013.012.021a.418.418,0,0,0-.039-.021m.027,0c0-.009,0-.02,0-.03.007.008.012.016.02.023s-.012,0-.018.007m.366,16.45h0l0,0,0-.02a.3.3,0,0,0,.021.024.069.069,0,0,1-.019,0M43.813,247.6c0-.005,0-.011.005-.016s.006.02.01.029-.009-.009-.016-.013m.359,27.014-.022-.03.009-.015c.009.015.016.032.026.047l-.013,0m2.521-34.479c0-.005-.009,0-.013-.009s.008,0,.013,0a.049.049,0,0,0,0,.011m1.56,23.155v0a.7.7,0,0,1,.173.021c-.057,0-.114-.01-.173-.017M49.4,243.029c-.014-.161.026-.3.3-.332a2.132,2.132,0,0,1,.267.85,6.67,6.67,0,0,0-.564-.517m9.375,18a.107.107,0,0,0-.011.015l.013-.021,0,.006m1.656-18.388c-.005-.012-.009-.025-.015-.037l.03,0c-.006.012-.01.022-.016.035m.886-14.8,0-.022-.049.005c.007-.024.014-.044.019-.06.01.018.021.036.03.054.017-.023.04-.046.059-.069.009.006.014.007.025.016-.035.019-.05.052-.08.075m.694-5.175-.007-.007s.009,0,.013-.006-.005.008-.006.013m.408,38.77-.009.016.006,0c0,.008,0,.015-.005.023,0-.007,0-.013,0-.02h-.022a.413.413,0,0,1,.042-.071.331.331,0,0,1-.011.055m.127-42.459h0m-.128-9.909c.009-.026.016-.054.025-.079a1.8,1.8,0,0,0,.187.231.566.566,0,0,1-.212-.151m2.554,23.577-.021.015c-.084-.411-.189-.842-.3-1.238.032,0,.058.007.092.009a.636.636,0,0,1,.231,1.215m5.114,38.676v0h0l0,0v.009l0-.011,0,0m-.763-26.786,0,0c0,.027-.008.054-.014.079,0-.024.007-.05.01-.075m-.7-108.78v-.05l0,0c.012.021.025.033.038.052-.014,0-.027,0-.04,0m.3,94.46c-.011-.036-.021-.071-.033-.108l.054.049a.463.463,0,0,0-.022.059m.342,17.77c.072.019.114.05.123.093-.041-.029-.082-.065-.123-.093m1.251-8.385a.14.14,0,0,1,0-.019l.015.009c-.006,0-.009.008-.015.01m1.021,8.722.006-.017.018-.008.012.009-.036.016m-.007-38.759a.14.14,0,0,1,.015-.017c.074.074.155.144.228.22a3.111,3.111,0,0,0-.243-.2m.393.359a.154.154,0,0,1-.027.13.243.243,0,0,0-.123-.286l.017.016a.231.231,0,0,1,.135.129l-.011-.006Zm.046,11.012c.005-.009,0-.018.01-.027a.119.119,0,0,1,.028.071c-.014-.015-.025-.03-.039-.044m.312-58.472a.554.554,0,0,0-.046-.078h.046v.078m1.084,32.083a.067.067,0,0,1-.036-.023C73.344,194.526,73.351,194.533,73.367,194.541Zm1.114,44.289c0-.016-.005-.032-.006-.048v0c.011,0,.02,0,.03,0-.009.016-.016.035-.025.054m1.746-63.214a.194.194,0,0,1,.038-.111.153.153,0,0,1,0,.071c-.016.013-.026.028-.041.041m.824,60.959,0,0c0-.005-.012-.009-.015-.016l.017.015m.022,3.294c-.011-.011-.023-.021-.034-.032a.422.422,0,0,0,.046.03l-.012,0m1.484-99.739c-.448.252-.591-.088-.741-.4a3.277,3.277,0,0,0,1.263-.348.847.847,0,0,1-.522.75m.667,107.429,0-.006-.007,0a.124.124,0,0,1,.015-.008l-.008.01h.01l-.013.006m.368.032c-.02-.011-.037-.029-.057-.038h.031a.159.159,0,0,1,.026.016c0,.008,0,.015,0,.022m.069-89.774a.544.544,0,0,0,.055-.054c.019.029.033.059.053.089-.04-.012-.07-.024-.108-.035m.155,3.263a.222.222,0,0,1,.205-.1,1.56,1.56,0,0,0-.205.1m.569,16.348-.062-.062v.062c-.02-.027-.022-.048,0-.065l0,0,0-.005a.145.145,0,0,1,.075-.028c0,.031-.008.063-.01.095m.794-1.533h-.009c.006-.007,0-.012.009-.019s0,.01,0,.018m1.231-43.125,0-.009.037,0,0,.006h-.037m1.008,33c-.01-.035-.027-.067-.039-.1.089.007.171.02.271.019a1.68,1.68,0,0,0-.232.082m.908-1.924c.006.006.01.014.016.02v.072a1.187,1.187,0,0,0-.124-.078c.037,0,.073-.008.108-.014m-.066,2.574h0c.006.006,0,.012.009.018s0-.012-.009-.017m.085-.367-.008,0c-.005,0-.014,0-.021.005.009-.014.017-.029.026-.042v.024l.016-.005-.013.021m.949-4.489c.009.035.016.063.025.1-.033-.019-.06-.042-.091-.063a.285.285,0,0,0,.066-.035m.13,80.7a2.44,2.44,0,0,1-.357-.553c.219.166.437.332.357.553M85.56,126.43a.243.243,0,0,1,.22,0c-.073,0-.147,0-.22,0m1.721,68.5-.015,0,.015-.012H87.3l-.019.014m0-65.792-.015-.021-.027-.005a.458.458,0,0,0,.052-.079l-.023.082a.4.4,0,0,1,.046-.035.55.55,0,0,1-.033.058m.351,14.236-.011-.011.005,0,.006-.008Zm1.8-21.95,0-.01.005.007-.009,0m2.229,42.056-.01-.009v-.008l.022.018-.012,0m.721.7a.311.311,0,0,1-.123.12l-.011-.014a.347.347,0,0,0,.135-.119Zm0-.291a.453.453,0,0,0-.048-.052h0A.413.413,0,0,1,92.387,163.89Zm.125,61.263v0a.958.958,0,0,1,.1-.073c-.029.022-.063.047-.1.075m1.029-88.421a.455.455,0,0,1-.061.067l0-.008h-.1a1.516,1.516,0,0,0,.224-.136h0a.1.1,0,0,0,.016.01.687.687,0,0,0-.086.067m23.69,20.885.014-.008v.019a.08.08,0,0,1-.013-.011m.033-8.05c-.009.006-.012.013-.02.019l.01,0c-.011.011-.015.028-.025.041-.009-.012-.018-.024-.028-.036.021-.009.043-.017.063-.027m-2.6,10.954a.162.162,0,0,1-.106-.165c.034.058.075.1.106.165m-.072-16.205c0,.023.009.043.011.066a.564.564,0,0,0-.053-.022c.016-.015.025-.029.041-.044m-1.287,58.05a.607.607,0,0,1,.1.252c-.113-.078-.216-.143-.313-.2a1.7,1.7,0,0,1,.212-.055m-.812-21.757c-.021,0-.041-.008-.062-.008a.406.406,0,0,1-.009-.076c.024.028.047.057.072.084m-2.185,23.815-.011,0v-.009l.011.005m-5.129-33.636h0c.011-.079.022-.139.032-.21.049.04.1.079.147.122C105.3,170.728,105.24,170.758,105.182,170.788Zm-2.359,18.072c0,.016,0,.031-.009.047-.009-.061-.019-.122-.034-.181.015.045.028.09.042.135m3.456,10.074c.031.025.064.048.1.072a.868.868,0,0,1-.11.092c.007-.055.005-.108.014-.164m-.294,12.424a1,1,0,0,1-.057.313l-.009-.008a.851.851,0,0,1,.066-.306m2.121-88.478.046.021h-.047v-.021m-3.822,37.006c0,.085-.006.171-.011.256-.083-.069-.164-.133-.245-.2.085-.02.172-.036.256-.06m-1.034-28.992.066.031a.15.15,0,0,1-.073.072.593.593,0,0,0,.007-.1m-.992,8.428v.029l.031.01a.437.437,0,0,1-.035.035c0-.015,0-.031,0-.045h-.036c.013-.008.023-.02.036-.029m-.368.009c.006.007.01.014.016.02h-.015v0l0,0h0l0-.02m-1.336-18.23-.007,0a.237.237,0,0,1,0-.024c0,.009.007.016.008.026m-.292,6.027a.462.462,0,0,0,.027.044.44.44,0,0,0-.218.136l0-.009c.061-.059.129-.115.193-.172M98.934,163.8c0,.007,0,.015-.006.022a.125.125,0,0,1-.037-.078.648.648,0,0,0,.043.056m-3.262-14.13c0-.022,0-.044,0-.064a.133.133,0,0,1,.079.062.258.258,0,0,0-.082,0m1.467,26.968.007-.011,0,.011h-.009m.491-56.415a.466.466,0,0,1,.281.247,3.1,3.1,0,0,0-.281-.247m.577-5.3c.014.014.031.012.042.043l-.059-.01c.006-.01.01-.022.016-.033m.032,104.133,0-.009-.009.011h0l.014-.022v.009h.06c-.022,0-.038.007-.058.009m19.389-38.007a.106.106,0,0,1-.022-.007c-.007,0-.02,0-.03.008a.352.352,0,0,1,.024-.038l.011.017.024.015-.007.005m1.8-19.122c0,.009,0,.018,0,.028-.022,0-.04,0-.063-.006a.317.317,0,0,0,.059-.022m-.9-11.051a.49.49,0,0,1,.159-.193c0,.1,0,.2,0,.3-.054-.035-.1-.073-.16-.1m4.936,8.95,0,.005v.017a.128.128,0,0,0-.016-.022h.013m-2.223.011c.005-.014,0-.028.009-.041l.021.026-.005.008-.024.008m.938,9.2a.25.25,0,0,1-.08-.073l.145.006-.065.067m4.342-8.292a2.28,2.28,0,0,1,.161-.263c-.03.124-.073.23-.161.263m.294,14.046a.228.228,0,0,1,.052-.069c0,.018.009.029.009.046-.021.009-.041.014-.061.023m6.233-56.7c-.008.044-.011.047-.01.009l.01-.009m-.424,10.162a.333.333,0,0,1-.123-.3c.043.113.084.206.123.3m-.512,4.179c0,.014.01.028.013.042-.023,0-.042-.008-.065-.009.017-.012.035-.021.052-.033m-2.665,26.325a.843.843,0,0,0,.111-.024c.061-.024.085.064.1.2-.071-.063-.14-.121-.207-.175m3.157,9.193c-.014,0-.023-.015-.039-.014-.13.01-.107-.051.041-.037,0,.02,0,.032,0,.051m.385-6.662c-.006,0-.009,0-.015,0l.034-.034a.066.066,0,0,0,.037.014.206.206,0,0,0-.056.018m1.811,6.584c-.009.009-.018.013-.027.021,0-.009-.007-.018-.011-.028.014,0,.024.006.038.007l0-.006,0,.007h-.008m1.775-14.374c.013,0,.017-.01.028-.013v0c-.012,0-.016.009-.029.009m.14-22.381c0-.064-.006-.119-.009-.18a.6.6,0,0,0,.122.031c-.039.048-.078.1-.113.149m.712-25.434.035-.029a.428.428,0,0,0,.011.041c-.017,0-.029-.009-.047-.012m.663,15.763v0h0v-.012c.005.007.011.009.016.016s-.01,0-.016,0m.288,4.221h0l.007,0s-.007,0-.011,0m17.7,33.113a2.211,2.211,0,0,0-.043-.243.285.285,0,0,1,.056.206c0,.012-.01.024-.013.036m-8.12,1.417v0h0l0,0m2.915-2.916c-.009-.009-.023-.014-.033-.023.01,0,.016.006.026.008a.121.121,0,0,0,.008.015h0m-8.414,5.754a.961.961,0,0,1,.066.1l-.044-.012-.006-.005c-.006-.03-.01-.052-.016-.08m13.21-5.039-.016,0c-.008-.007-.013-.016-.021-.022l0-.02.04.04m2.146-24.877.026.022-.013,0v.008l-.011-.012.01,0-.012-.024m-11.683,13.547,0,0,0,0h0m-3.3-4.018.017.013-.013,0c-.009-.006-.02-.006-.029-.011Zm-.706,6.213.1-.005a.326.326,0,0,0-.115.053c0-.009,0-.017,0-.026l.019-.022m-.13-25.447v0l0,0h0m-1.11-2.742a1.78,1.78,0,0,0,.1.176c-.057-.039-.1-.079-.149-.117.016-.016.033-.04.05-.059m-.205,37.3c-.011.011-.024.017-.035.028,0-.009,0-.02,0-.028h.033m-.4-35.471c0,.013,0,.025,0,.039h0l-.028-.028.028-.011m-.763-.681c.007,0,.012,0,.019-.005l.007.009-.031.043.005-.047" transform="translate(-1.733 -11.531)" fill="#7d3a1b"/>
        <path id="Path_883035" data-name="Path 883035" d="M186.362,168.6l-.084.152.152-.084Z" transform="translate(-25.438 -23.025)" fill="#8cc697"/>
        <path id="Path_883036" data-name="Path 883036" d="M180.255,185.68c-.085.123-.056.229.085.278a.441.441,0,0,0,.572-.181c-.031-.1-.034-.253-.1-.288-.234-.126-.42-.009-.558.191" transform="translate(-24.609 -25.323)" fill="#8cc697"/>
        <path id="Path_883037" data-name="Path 883037" d="M140.252,221.821l-.159-.163,0,.005.163.158" transform="translate(-19.131 -30.27)" fill="#8cc697"/>
        <path id="Path_883038" data-name="Path 883038" d="M153.627,92.024a1.761,1.761,0,0,0-.008-.338,4.571,4.571,0,0,0-.14-.458l-.18.25a.607.607,0,0,0,.327.546" transform="translate(-20.935 -12.458)" fill="#8cc697"/>
        <path id="Path_883039" data-name="Path 883039" d="M126.476,117.376l-.068.068.152.084Z" transform="translate(-17.262 -16.029)" fill="#8cc697"/>
        <path id="Path_883040" data-name="Path 883040" d="M12.235,298.823l-.387-.008c.126.174.255.178.387.008" transform="translate(-1.618 -40.806)" fill="#8cc697"/>
        <path id="Path_883041" data-name="Path 883041" d="M48.236,265.731l-.152.084.068.068Z" transform="translate(-6.566 -36.288)" fill="#8cc697"/>
        <path id="Path_883042" data-name="Path 883042" d="M58.819,155.232c-.174.06-.2.117-.082.144.016,0,.054-.093.082-.144" transform="translate(-8.011 -21.199)" fill="#8cc697"/>
        <path id="Path_883043" data-name="Path 883043" d="M58.844,155.232Z" transform="translate(-8.036 -21.198)" fill="#8cc697"/>
        <path id="Path_883044" data-name="Path 883044" d="M69,250.49Z" transform="translate(-9.423 -34.207)" fill="#8cc697"/>
        <path id="Path_883045" data-name="Path 883045" d="M99.065,136.179h0Z" transform="translate(-13.528 -18.597)" fill="#8cc697"/>
        <path id="Path_883046" data-name="Path 883046" d="M29.99,23.929a1.975,1.975,0,0,0,.21.329c.2.213.423.409.665.639.072-.147.13-.286.2-.417.112-.2.238-.223.358,0a.673.673,0,0,1,.092.213c.044.313.217.381.524.4a3.483,3.483,0,0,1,.88.321c0,.25,0,.515,0,.778,0,.221-.107.345-.3.228-.352-.207-.561-.021-.749.227a.348.348,0,0,1-.534.1,1.287,1.287,0,0,0-1.2-.155c-.264.109-.437.248-.425.553.005.111,0,.221-.005.332-.016.336.128.452.473.452,1.053,0,1.055.016,1.09,1.043A14.139,14.139,0,0,1,31.3,30.92a5.851,5.851,0,0,0-.151,1.027c.022.439-.263.889-.261,1.335a5.3,5.3,0,0,0,.3,1.382c.1.338.253.66.377.99a.31.31,0,0,1-.187.434c-.273.117-.547.234-.825.339a4.881,4.881,0,0,0-.475.142c-.814.408-.91.786-.508,1.538.03.057.07.11.124.193-.434.2-.294.553-.265.882a1.425,1.425,0,0,1,.033.493.531.531,0,0,0,.352.708c.07.033.135.074.233.13l-.505.426a.576.576,0,0,0,.1.174c.389.311.32.648.088,1.019a24.015,24.015,0,0,1-1.28,2.051,7.374,7.374,0,0,1-1.211.96,1.3,1.3,0,0,0-.364.465,9.835,9.835,0,0,0-.337,1.007.864.864,0,0,0-.057.354,9.34,9.34,0,0,1-.3,3.059,3.409,3.409,0,0,0-.068,1.507,1.65,1.65,0,0,1-.137.8,3.557,3.557,0,0,1-.307.661,1.4,1.4,0,0,0-.066,1.248c.029.077.029.232-.015.259-.263.163-.31.44-.417.692a1.353,1.353,0,0,1-.256.386.718.718,0,0,0-.25.82c.047.123-.049.314-.11.462-.124.3-.269.6-.4.893-.046.1-.092.2-.144.294-.231.422-.474.838-.7,1.265-.547,1.048-1.06,2.115-1.638,3.146A9.9,9.9,0,0,0,20.6,64.656a1.3,1.3,0,0,1-.779.857,9.517,9.517,0,0,0-.867.416.363.363,0,0,1-.494-.045c-.349-.307-.731-.576-1.088-.875a.407.407,0,0,1-.155-.289,2.593,2.593,0,0,0-.481-1.773c-.09-.152-.206-.288-.3-.437-.047-.073-.12-.174-.1-.238.14-.471-.19-.864-.2-1.307a2.262,2.262,0,0,1,0-.265,10.236,10.236,0,0,0,.108-1.209,3.608,3.608,0,0,1,.86-2.18c.472-.682.985-1.338,1.425-2.041a4.862,4.862,0,0,0,.541-2.1c.024-.226-.149-.471-.216-.711a2.14,2.14,0,0,1-.105-.56c0-.262.06-.524.079-.787.073-1.038.133-2.077.219-3.114a2.142,2.142,0,0,1,.205-.515c.033-.087.093-.2.063-.269a.92.92,0,0,1,.092-.856c.145-.291.136-.5-.2-.67-.274-.136-.353-.429-.367-.792.672.414.876-.148,1.2-.465-.009-.035-.02-.07-.029-.105a5.885,5.885,0,0,1-.759.116,1.125,1.125,0,0,1-.507-.121c-.4-.2-.785-.448-1.2-.63a2.486,2.486,0,0,1-1.355-1.47.549.549,0,0,1,.009-.337c.118-.364.25-.724.389-1.082a1.658,1.658,0,0,1,.2-.376,2.088,2.088,0,0,0,.418-1.063,5.887,5.887,0,0,1,.306-.832,3.057,3.057,0,0,0,.017-.6,1.122,1.122,0,0,1,.055-.4,9.6,9.6,0,0,0,.432-.857,3.366,3.366,0,0,0,.074-.764.959.959,0,0,1,.056-.4c.288-.438.605-.857.943-1.325a2.515,2.515,0,0,1-1.067-2.241,2.132,2.132,0,0,0-.2-.63.89.89,0,0,1,.066-.936,8.139,8.139,0,0,0,.374-.841,4.315,4.315,0,0,1,.572-.912,7.836,7.836,0,0,0,1.236-1.37c.187-.332.567-.55.844-.836a4.422,4.422,0,0,0,.569-.684c.149-.234.247-.49.54-.6.054-.019.088-.156.092-.241a1.037,1.037,0,0,0-.047-.328,1.547,1.547,0,0,1,.2-1.342,1.822,1.822,0,0,0,0-1.432c-.033-.129-.056-.362,0-.4.522-.3.364-.775.238-1.152a.592.592,0,0,1,.159-.7,10.2,10.2,0,0,0,.964-1.348,3.709,3.709,0,0,1,1.413-1.371A5.571,5.571,0,0,0,26.7,15.326a30.1,30.1,0,0,1,2.574-2.675,3.039,3.039,0,0,1,1.852-.737c.288-.029.433.072.434.345,0,.294.166.427.389.589.452.326.86.712,1.283,1.072-.383.506-.4.52,0,.948.338.364.706.7,1.077,1.03a1.154,1.154,0,0,0,.956.286,1.849,1.849,0,0,1,1.476.528,2.888,2.888,0,0,0,1.16.669,1.909,1.909,0,0,1,1.316,1.133,1.145,1.145,0,0,1-1.518.51,2.431,2.431,0,0,0-1.967.019.377.377,0,0,1-.256.038.86.86,0,0,0-.914.29,3.647,3.647,0,0,1-.726.424c-.094.054-.224.1-.267.181-.157.315-.45.421-.73.584-.464.269-.884.613-1.375.963.155.124.248.208.35.279a3.477,3.477,0,0,1,1.275,1.324c.232.494.185.629-.346.726-.3.055-.365.207-.352.483.016.341-.181.461-.452.285-.254-.166-.368-.567-.784-.453-.332-.38-.765-.252-1.175-.231l.232-.428a.553.553,0,0,0,.792.208c.08-.036.13-.166.162-.262.006-.02-.123-.1-.2-.129a4.5,4.5,0,0,1-.6-.26,6.464,6.464,0,0,1-.633-.526c-.043.283-.073.533-.12.779-.062.325.029.544.376.612" transform="translate(-2.202 -1.626)" fill="#7a4f00"/>
        <path id="Path_883047" data-name="Path 883047" d="M50.575,32.629c.337.942.441,1.01,1.164.773.11.392.389.272.673.228,1.171-.184,1.6-1.1,2-2.03a.739.739,0,0,0-.035-.512,1.671,1.671,0,0,1-.01-1.23,1.188,1.188,0,0,0,.047-.613.4.4,0,0,1,.268-.526c.267-.1.547-.171.821-.25.093-.028.189-.046.3-.072-.043-.408-.084-.791-.127-1.2.248,0,.531-.016.812.01.076.007.155.13.21.214a9.8,9.8,0,0,1,.61.97,1.193,1.193,0,0,1,.111.624.89.89,0,0,0,.493.934,1.464,1.464,0,0,0,.618.141c.406.021.817-.032,1.219.01.684.072.946.557.724,1.221a2.9,2.9,0,0,1-1.158,1.494c-.123.085-.236.187-.4.319.181.081.309.134.433.193.275.135.3.3.067.505-.082.073-.185.121-.274.186s-.151.119-.241.191c.048.032.071.057.1.062.329.06.66.105.781.5.1.311.2.622.322.92a6.621,6.621,0,0,0,.4.788c.127.216.283.414.458.665-.525.245-1.189-.081-1.594.577.2,0,.369.053.477-.009a2.26,2.26,0,0,1,1.313-.256c.431.029.71-.283,1.009-.515.224-.173.328-.134.455.093a1.79,1.79,0,0,1-.328,2.02.418.418,0,0,1-.138.088c-.3.107-.593.207-.888.313a7.83,7.83,0,0,1-.857.3c-.361.083-.434.4-.547.653-.038.088.158.269.229.417a1.158,1.158,0,0,1,.082.313.178.178,0,0,1-.048.12c-.49.574-.225,1.169-.05,1.761.066.222.132.445.2.666a.765.765,0,0,1-.11.75.88.88,0,0,0-.156.465,1.756,1.756,0,0,1-.426.95,4.7,4.7,0,0,0-.94,1.811.554.554,0,0,1-.433.452,1,1,0,0,0-.334.143.671.671,0,0,1-.843.033c-.11-.065-.389.031-.515.142a1.18,1.18,0,0,1-.764.319,1.935,1.935,0,0,0-.907.275,1.374,1.374,0,0,0-.394.647.313.313,0,0,1-.324.247.819.819,0,0,0-.448.2,1.7,1.7,0,0,0-.365.471,4.526,4.526,0,0,1-1.555,1.588,1.271,1.271,0,0,1-1.269.067.852.852,0,0,0-1.067.2.4.4,0,0,1-.191.126,2.684,2.684,0,0,0-1.413.937.49.49,0,0,1-.586.149,8.013,8.013,0,0,0-.964-.234c-.18-.041-.237-.125-.225-.327a1.444,1.444,0,0,0-.124-.619,3.463,3.463,0,0,0-.394-.691.793.793,0,0,1-.1-1.023c.052-.075-.009-.249-.052-.364-.057-.155-.039-.232.127-.3.394-.174.453-.288.336-.7-.11-.382-.277-.747-.386-1.129s-.17-.794-.274-1.187a.456.456,0,0,0-.207-.275c-.3-.136-.624-.224-.927-.357-.351-.153-.365-.274-.192-.614a1.355,1.355,0,0,0,.069-.461c0-.04-.043-.1-.027-.122.268-.309.167-.778.492-1.074.232-.211.533-.445.258-.842-.03-.043.044-.16.073-.242.075-.218.165-.432.227-.654a1.83,1.83,0,0,0-.028-1.124,2.029,2.029,0,0,1,.044-1.578,8.107,8.107,0,0,0,.4-1.546.551.551,0,0,1,.049-.156c.311-.506.657-.994.929-1.52.227-.438.359-.924.555-1.379a.564.564,0,0,1,.287-.306,1.413,1.413,0,0,0,.939-.876,1.482,1.482,0,0,1,.676-.778,6.913,6.913,0,0,1,.659-.383.477.477,0,0,1,.4-.016c.291.227.5.142.724-.142" transform="translate(-5.974 -3.713)" fill="#7a4f00"/>
        <path id="Path_883048" data-name="Path 883048" d="M55,22.926c.179.636.556.1.863.21a1.044,1.044,0,0,1-.542.729c-.314.193-.611.853-.427,1.162a.912.912,0,0,1-.153,1.145,1.477,1.477,0,0,1,1.366.272c0,.02,0,.056-.011.059-.624.14-.71.73-.957,1.173-.119.213-.214.313-.454.191a.329.329,0,0,0-.467.085c-.062.08-.237.078-.364.1-.342.05-.685.091-1.027.134-.005.03-.01.062-.016.092a4.289,4.289,0,0,1-.29-.395c-.141-.238-.251-.495-.59-.516-.066,0-.134-.105-.188-.173-.289-.354-.724-.6-.6-1.212.05-.239-.13-.525.1-.785a.785.785,0,0,0,.092-.414c.054-.563.172-.687.73-.736.106-.009.212-.013.357-.022-.082-.161-.144-.284-.24-.471.317-.018.6-.044.879-.047.47,0,.907-.205,1.383-.205.17,0,.339-.219.556-.372" transform="translate(-6.981 -3.131)" fill="#7a4f00"/>
        <path id="Path_883049" data-name="Path 883049" d="M42.353,8.422c-.064.179-.124.343-.183.509-.17.482-.377.59-.858.433-.17-.055-.291-.149-.251-.362a.812.812,0,0,1,1.293-.58" transform="translate(-5.606 -1.13)" fill="#7a4f00"/>
        <path id="Path_883050" data-name="Path 883050" d="M41.777,35.227c.174.265.283.414.374.574a.357.357,0,0,1-.217.588.323.323,0,0,1-.291-.082.857.857,0,0,1-.22-.5c.021-.178.2-.338.354-.581" transform="translate(-5.656 -4.811)" fill="#7a4f00"/>
        <path id="Path_883051" data-name="Path 883051" d="M40.945,33a.849.849,0,0,1,.9.927.718.718,0,0,1-.1.225c-.069-.045-.165-.073-.2-.136-.205-.33-.4-.669-.6-1.016" transform="translate(-5.591 -4.507)" fill="#7a4f00"/>
        <path id="Path_883052" data-name="Path 883052" d="M38.492,23.351c.319-.153.556-.269.693-.03.056.1-.1.313-.157.475l-.536-.445" transform="translate(-5.256 -3.166)" fill="#7a4f00"/>
        <path id="Path_883053" data-name="Path 883053" d="M66.419,40.266H67a.369.369,0,0,1-.411.354c-.058,0-.1-.2-.169-.354" transform="translate(-9.07 -5.499)" fill="#e793a6"/>
      </g>
    </g>
    <g id="Path_883069" data-name="Path 883069" transform="translate(-8568 -9238.5)" fill="#7d3a1b">
      <path d="M 183.2411193847656 36.5 L 6.758904933929443 36.5 C 3.307738065719604 36.5 0.5 32.68690490722656 0.5 28 L 0.5 9 C 0.5 4.313095092773438 3.307738065719604 0.5 6.758904933929443 0.5 L 183.2411193847656 0.5 C 186.6922912597656 0.5 189.5 4.313095092773438 189.5 9 L 189.5 28 C 189.5 32.68690490722656 186.6922912597656 36.5 183.2411193847656 36.5 Z" stroke="none"/>
      <path d="M 6.758895874023438 1 C 5.27569580078125 1 3.862380981445312 1.794273376464844 2.779251098632812 3.236549377441406 C 1.631881713867188 4.764350891113281 1 6.811174392700195 1 9 L 1 28 C 1 30.18880081176758 1.631881713867188 32.23564910888672 2.779251098632812 33.76345062255859 C 3.862380981445312 35.2056999206543 5.27569580078125 36 6.758895874023438 36 L 183.2411193847656 36 C 184.7243041992188 36 186.1376190185547 35.2056999206543 187.2207489013672 33.76345062255859 C 188.3681182861328 32.23562622070312 189 30.18880081176758 189 28 L 189 9 C 189 6.811199188232422 188.3681182861328 4.764350891113281 187.2207489013672 3.236549377441406 C 186.1376190185547 1.794273376464844 184.7243041992188 1 183.2411193847656 1 L 6.758895874023438 1 M 6.758895874023438 0 L 183.2411193847656 0 C 186.9739227294922 0 190 4.029426574707031 190 9 L 190 28 C 190 32.97055053710938 186.9739227294922 37 183.2411193847656 37 L 6.758895874023438 37 C 3.026046752929688 37 0 32.97055053710938 0 28 L 0 9 C 0 4.029426574707031 3.026046752929688 0 6.758895874023438 0 Z" stroke="none" fill="#707070"/>
    </g>
    <path id="Path_883068" data-name="Path 883068" d="M183.241,0H6.759C3.026,0,0,4.029,0,9V28c0,4.971,3.026,9,6.759,9H183.241c3.733,0,6.759-4.029,6.759-9V9C190,4.029,186.974,0,183.241,0Z" transform="translate(-8568 -9301.5)" fill="#7d3a1b"/>
    <path id="Path_883067" data-name="Path 883067" d="M6.759,0H183.241C186.974,0,190,4.029,190,9V28c0,4.971-3.026,9-6.759,9H6.759C3.026,37,0,32.971,0,28V9C0,4.029,3.026,0,6.759,0Z" transform="translate(-8568 -9371.162)" fill="#7d3a1b"/>
    <path id="Path_883063" data-name="Path 883063" d="M183.241,0H6.759C3.026,0,0,4.029,0,9V28c0,4.971,3.026,9,6.759,9H183.241c3.733,0,6.759-4.029,6.759-9V9C190,4.029,186.974,0,183.241,0Z" transform="translate(-8568 -8666.793)" fill="#7d3a1b"/>
    <path id="Path_883058" data-name="Path 883058" d="M6.759,0H183.241C186.974,0,190,4.029,190,9V28c0,4.971-3.026,9-6.759,9H6.759C3.026,37,0,32.971,0,28V9C0,4.029,3.026,0,6.759,0Z" transform="translate(-8568 -8724.396)" fill="#7d3a1b"/>
    <path id="Path_883061" data-name="Path 883061" d="M183.241,0H6.759C3.026,0,0,4.029,0,9V28c0,4.971,3.026,9,6.759,9H183.241c3.733,0,6.759-4.029,6.759-9V9C190,4.029,186.974,0,183.241,0Z" transform="translate(-8568 -8787.396)" fill="#7d3a1b"/>
    <path id="Path_883535" data-name="Path 883535" d="M0,0H55V4H0Z" transform="translate(-8500 -9201.5)" fill="#7d3a1b"/>
    <path id="Path_883536" data-name="Path 883536" d="M0,0H55V4H0Z" transform="translate(-8500 -9264.5)" fill="#7d3a1b"/>
    <path id="Path_883537" data-name="Path 883537" d="M0,0H55V4H0Z" transform="translate(-8500 -9334.162)" fill="#7d3a1b"/>
    <path id="Path_883538" data-name="Path 883538" d="M0,0H55V4H0Z" transform="translate(-8500 -8629.793)" fill="#7d3a1b"/>
    <path id="Path_883539" data-name="Path 883539" d="M0,0H55V4H0Z" transform="translate(-8500 -8687.396)" fill="#7d3a1b"/>
    <path id="Path_883540" data-name="Path 883540" d="M0,0H55V4H0Z" transform="translate(-8500 -8750.396)" fill="#7d3a1b"/>
    <path id="Path_883054" data-name="Path 883054" d="M115.157,108.662v20.666H0V78.662" transform="translate(-8491.338 -9282.332) rotate(90)" fill="none" stroke="#12263f" stroke-width="3"/>
    <path id="Path_883064" data-name="Path 883064" d="M28.16,151.333V0H-136.833V37" transform="translate(-8343.666 -9145.5) rotate(90)" fill="none" stroke="#12263f" stroke-width="3"/>
    <path id="Path_883057" data-name="Path 883057" d="M28.16,46.662V128.5H-315.333V46.662" transform="translate(-8518.838 -9035) rotate(90)" fill="none" stroke="#12263f" stroke-width="3"/>
    <path id="Path_883062" data-name="Path 883062" d="M28.16,95V0H393V80" transform="translate(-8301 -9040) rotate(90)" fill="none" stroke="#12263f" stroke-width="3"/>
    <path id="Path_883059" data-name="Path 883059" d="M-1.432,213h27.34V1H-12.509" transform="translate(-8580.509 -8703) rotate(180)" fill="none" stroke="#12263f" stroke-width="3"/>
    <path id="Path_883060" data-name="Path 883060" d="M28.16,86.662V0H132.411V23" transform="translate(-8358 -8900.411) rotate(90)" fill="none" stroke="#12263f" stroke-width="3"/>
    <path id="Path_883541" data-name="Path 883541" d="M25.451,16H23.359V3.914h2.092Zm4.258-8.981.058,1.038a3.229,3.229,0,0,1,2.615-1.2q2.806,0,2.855,3.212V16H33.22V10.181a1.85,1.85,0,0,0-.369-1.266A1.554,1.554,0,0,0,31.643,8.5a1.944,1.944,0,0,0-1.818,1.1V16H27.808V7.019ZM42.326,13.56a.914.914,0,0,0-.444-.822,4.723,4.723,0,0,0-1.473-.5,7.574,7.574,0,0,1-1.718-.548A2.293,2.293,0,0,1,37.18,9.575a2.391,2.391,0,0,1,.979-1.942,3.872,3.872,0,0,1,2.49-.78,4.029,4.029,0,0,1,2.6.8,2.529,2.529,0,0,1,.992,2.067H42.227a1.243,1.243,0,0,0-.432-.967,1.654,1.654,0,0,0-1.146-.386,1.787,1.787,0,0,0-1.083.307.968.968,0,0,0-.419.822.818.818,0,0,0,.39.722,5.365,5.365,0,0,0,1.577.519,7.466,7.466,0,0,1,1.864.623,2.639,2.639,0,0,1,1,.867,2.212,2.212,0,0,1,.328,1.229,2.34,2.34,0,0,1-1,1.963,4.283,4.283,0,0,1-2.631.751,4.644,4.644,0,0,1-1.967-.4,3.238,3.238,0,0,1-1.345-1.1,2.594,2.594,0,0,1-.481-1.5H38.84a1.421,1.421,0,0,0,.54,1.1,2.1,2.1,0,0,0,1.32.386,2.04,2.04,0,0,0,1.212-.3A.938.938,0,0,0,42.326,13.56Zm9.181,1.561a3.128,3.128,0,0,1-2.523,1.046,2.788,2.788,0,0,1-2.212-.855,3.637,3.637,0,0,1-.751-2.474V7.019h2.017v5.794q0,1.71,1.419,1.71a1.993,1.993,0,0,0,1.984-1.054V7.019h2.017V16h-1.9Zm6.151.88H55.641V3.25h2.017Zm7.562,0a3.113,3.113,0,0,1-.232-.838,3.393,3.393,0,0,1-4.565.232,2.47,2.47,0,0,1-.855-1.909,2.55,2.55,0,0,1,1.067-2.2,5.169,5.169,0,0,1,3.051-.768h1.237V9.924a1.573,1.573,0,0,0-.39-1.116,1.547,1.547,0,0,0-1.187-.419,1.777,1.777,0,0,0-1.129.344,1.066,1.066,0,0,0-.44.876H59.758a2.239,2.239,0,0,1,.49-1.382A3.263,3.263,0,0,1,61.58,7.218a4.68,4.68,0,0,1,1.88-.365,3.769,3.769,0,0,1,2.515.793,2.827,2.827,0,0,1,.963,2.229v4.051a4.591,4.591,0,0,0,.34,1.934V16ZM63,14.547a2.294,2.294,0,0,0,1.125-.291,1.941,1.941,0,0,0,.793-.78V11.783H63.834a2.973,2.973,0,0,0-1.685.39,1.264,1.264,0,0,0-.564,1.1,1.179,1.179,0,0,0,.386.926A1.5,1.5,0,0,0,63,14.547Zm10.75-5.686a4.991,4.991,0,0,0-.822-.066,1.85,1.85,0,0,0-1.868,1.063V16H69.047V7.019h1.926l.05,1a2.273,2.273,0,0,1,2.025-1.17,1.888,1.888,0,0,1,.714.116Z" transform="translate(-8521 -9229.5)" fill="#fff"/>
    <path id="Path_883542" data-name="Path 883542" d="M33.8,12.065a4.364,4.364,0,0,1-1.428,3.017,4.867,4.867,0,0,1-3.312,1.083,4.713,4.713,0,0,1-2.544-.685,4.5,4.5,0,0,1-1.7-1.947,7.024,7.024,0,0,1-.623-2.93V9.476A7.075,7.075,0,0,1,24.8,6.462a4.567,4.567,0,0,1,1.739-2.009,4.851,4.851,0,0,1,2.619-.706,4.672,4.672,0,0,1,3.221,1.083A4.527,4.527,0,0,1,33.8,7.9H31.706a2.985,2.985,0,0,0-.76-1.88,2.51,2.51,0,0,0-1.789-.577,2.452,2.452,0,0,0-2.1,1A5,5,0,0,0,26.3,9.38v1.072a5.308,5.308,0,0,0,.7,2.991,2.328,2.328,0,0,0,2.054,1.03,2.715,2.715,0,0,0,1.859-.556,2.9,2.9,0,0,0,.789-1.851ZM40.845,16a3.113,3.113,0,0,1-.232-.838,3.393,3.393,0,0,1-4.565.232,2.47,2.47,0,0,1-.855-1.909,2.55,2.55,0,0,1,1.067-2.2,5.169,5.169,0,0,1,3.051-.768h1.237V9.924a1.573,1.573,0,0,0-.39-1.116,1.547,1.547,0,0,0-1.187-.419,1.777,1.777,0,0,0-1.129.344,1.066,1.066,0,0,0-.44.876H35.383a2.239,2.239,0,0,1,.49-1.382A3.263,3.263,0,0,1,37.2,7.218a4.68,4.68,0,0,1,1.88-.365,3.769,3.769,0,0,1,2.515.793,2.827,2.827,0,0,1,.963,2.229v4.051a4.591,4.591,0,0,0,.34,1.934V16Zm-2.216-1.453a2.294,2.294,0,0,0,1.125-.291,1.941,1.941,0,0,0,.793-.78V11.783H39.458a2.973,2.973,0,0,0-1.685.39,1.264,1.264,0,0,0-.564,1.1,1.179,1.179,0,0,0,.386.926A1.5,1.5,0,0,0,38.628,14.547Zm10.75-5.686a4.991,4.991,0,0,0-.822-.066,1.85,1.85,0,0,0-1.868,1.063V16H44.671V7.019H46.6l.05,1a2.273,2.273,0,0,1,2.025-1.17,1.888,1.888,0,0,1,.714.116ZM52.8,16H50.781V7.019H52.8ZM50.656,4.686a1.071,1.071,0,0,1,.295-.772,1.113,1.113,0,0,1,.843-.307,1.127,1.127,0,0,1,.847.307,1.062,1.062,0,0,1,.3.772,1.038,1.038,0,0,1-.3.76,1.136,1.136,0,0,1-.847.3,1.122,1.122,0,0,1-.843-.3A1.046,1.046,0,0,1,50.656,4.686ZM62.875,11.6a5.4,5.4,0,0,1-.934,3.329,3.042,3.042,0,0,1-2.569,1.237,2.93,2.93,0,0,1-2.457-1.137l-.1.971H54.989V3.25h2.017V7.882a2.92,2.92,0,0,1,2.349-1.029,3.077,3.077,0,0,1,2.582,1.22,5.484,5.484,0,0,1,.938,3.412Zm-2.017-.174a3.813,3.813,0,0,0-.515-2.191,1.714,1.714,0,0,0-1.494-.73A1.873,1.873,0,0,0,57.006,9.65v3.7a1.892,1.892,0,0,0,1.859,1.17,1.7,1.7,0,0,0,1.461-.706,3.7,3.7,0,0,0,.531-2.133Zm7.662,4.74a4.173,4.173,0,0,1-3.109-1.208,4.381,4.381,0,0,1-1.191-3.217v-.249a5.389,5.389,0,0,1,.519-2.4A3.949,3.949,0,0,1,66.2,7.442a3.851,3.851,0,0,1,2.092-.589,3.525,3.525,0,0,1,2.835,1.17,4.949,4.949,0,0,1,1,3.312v.813H66.253A2.7,2.7,0,0,0,67,13.908a2.23,2.23,0,0,0,1.639.647,2.731,2.731,0,0,0,2.258-1.121l1.087,1.038a3.631,3.631,0,0,1-1.44,1.249A4.509,4.509,0,0,1,68.52,16.166Zm-.241-7.695a1.7,1.7,0,0,0-1.341.581,3.012,3.012,0,0,0-.652,1.619H70.13v-.149a2.452,2.452,0,0,0-.54-1.531A1.686,1.686,0,0,0,68.279,8.471Z" transform="translate(-8521 -9292.5)" fill="#fff"/>
    <path id="Path_883543" data-name="Path 883543" d="M20.666,11.518V16h-2.1V3.914h4.624a4.675,4.675,0,0,1,3.217,1.055A3.549,3.549,0,0,1,27.6,7.761a3.431,3.431,0,0,1-1.166,2.767,4.9,4.9,0,0,1-3.266.989Zm0-1.693h2.523A2.485,2.485,0,0,0,24.9,9.3a1.937,1.937,0,0,0,.589-1.523,2.09,2.09,0,0,0-.6-1.565,2.3,2.3,0,0,0-1.644-.6H20.666ZM34.511,16a3.113,3.113,0,0,1-.232-.838,3.393,3.393,0,0,1-4.565.232,2.47,2.47,0,0,1-.855-1.909,2.55,2.55,0,0,1,1.067-2.2,5.169,5.169,0,0,1,3.051-.768h1.237V9.924a1.573,1.573,0,0,0-.39-1.116,1.547,1.547,0,0,0-1.187-.419,1.777,1.777,0,0,0-1.129.344,1.066,1.066,0,0,0-.44.876H29.049a2.239,2.239,0,0,1,.49-1.382,3.263,3.263,0,0,1,1.332-1.009,4.68,4.68,0,0,1,1.88-.365,3.769,3.769,0,0,1,2.515.793,2.827,2.827,0,0,1,.963,2.229v4.051a4.591,4.591,0,0,0,.34,1.934V16Zm-2.216-1.453a2.294,2.294,0,0,0,1.125-.291,1.941,1.941,0,0,0,.793-.78V11.783H33.125a2.973,2.973,0,0,0-1.685.39,1.264,1.264,0,0,0-.564,1.1,1.179,1.179,0,0,0,.386.926A1.5,1.5,0,0,0,32.295,14.547Zm9.737.008a1.824,1.824,0,0,0,1.253-.44,1.5,1.5,0,0,0,.531-1.087h1.9a2.963,2.963,0,0,1-.523,1.565,3.43,3.43,0,0,1-1.328,1.15,3.958,3.958,0,0,1-1.81.423,3.829,3.829,0,0,1-2.988-1.22,4.84,4.84,0,0,1-1.1-3.37v-.208a4.759,4.759,0,0,1,1.1-3.283,3.8,3.8,0,0,1,2.988-1.233,3.69,3.69,0,0,1,2.611.934,3.345,3.345,0,0,1,1.058,2.453h-1.9a1.847,1.847,0,0,0-.527-1.27,1.7,1.7,0,0,0-1.258-.5,1.775,1.775,0,0,0-1.511.71,3.621,3.621,0,0,0-.54,2.154v.324a3.682,3.682,0,0,0,.527,2.179A1.773,1.773,0,0,0,42.032,14.556ZM49.411,16H47.394V7.019h2.017ZM49.029,3.308h2.3l-2.3,2.515-1.619,0ZM52.242,16V8.513h-1.37V7.019h1.37V6.4a3.593,3.593,0,0,1,.448-1.81,2.788,2.788,0,0,1,1.245-1.137,4.482,4.482,0,0,1,1.934-.382,5.638,5.638,0,0,1,1.274.141q.61.141,1.266.357L58.1,5.242a6.421,6.421,0,0,0-2.092-.4,1.869,1.869,0,0,0-1.336.4,1.61,1.61,0,0,0-.415,1.208v.564h1.768V8.513H54.259V16Zm7.122,0H57.347V7.019h2.017Zm5.927-1.444a1.824,1.824,0,0,0,1.253-.44,1.5,1.5,0,0,0,.531-1.087h1.9a2.963,2.963,0,0,1-.523,1.565,3.43,3.43,0,0,1-1.328,1.15,3.958,3.958,0,0,1-1.81.423,3.829,3.829,0,0,1-2.988-1.22,4.84,4.84,0,0,1-1.1-3.37v-.208a4.759,4.759,0,0,1,1.1-3.283,3.8,3.8,0,0,1,2.988-1.233,3.69,3.69,0,0,1,2.611.934,3.345,3.345,0,0,1,1.058,2.453h-1.9a1.847,1.847,0,0,0-.527-1.27,1.7,1.7,0,0,0-1.258-.5,1.775,1.775,0,0,0-1.511.71,3.621,3.621,0,0,0-.54,2.154v.324a3.682,3.682,0,0,0,.527,2.179A1.773,1.773,0,0,0,65.291,14.556ZM75.866,16a3.113,3.113,0,0,1-.232-.838,3.393,3.393,0,0,1-4.565.232,2.47,2.47,0,0,1-.855-1.909,2.55,2.55,0,0,1,1.067-2.2,5.169,5.169,0,0,1,3.051-.768h1.237V9.924a1.573,1.573,0,0,0-.39-1.116,1.547,1.547,0,0,0-1.187-.419,1.777,1.777,0,0,0-1.129.344,1.066,1.066,0,0,0-.44.876H70.4a2.239,2.239,0,0,1,.49-1.382,3.263,3.263,0,0,1,1.332-1.009,4.68,4.68,0,0,1,1.88-.365,3.769,3.769,0,0,1,2.515.793,2.827,2.827,0,0,1,.963,2.229v4.051a4.591,4.591,0,0,0,.34,1.934V16Zm-2.216-1.453a2.294,2.294,0,0,0,1.125-.291,1.941,1.941,0,0,0,.793-.78V11.783H74.479a2.973,2.973,0,0,0-1.685.39,1.264,1.264,0,0,0-.564,1.1,1.179,1.179,0,0,0,.386.926A1.5,1.5,0,0,0,73.649,14.547Z" transform="translate(-8521 -9362.162)" fill="#fff"/>
    <path id="Path_883544" data-name="Path 883544" d="M21.9,10.272a7.415,7.415,0,0,1-.614,3.117,4.644,4.644,0,0,1-1.756,2.059,4.829,4.829,0,0,1-2.627.718,4.84,4.84,0,0,1-2.619-.718A4.716,4.716,0,0,1,12.506,13.4a7.183,7.183,0,0,1-.635-3.063V9.658A7.352,7.352,0,0,1,12.5,6.537a4.71,4.71,0,0,1,1.768-2.071,4.814,4.814,0,0,1,2.619-.718,4.856,4.856,0,0,1,2.619.71A4.651,4.651,0,0,1,21.267,6.5,7.336,7.336,0,0,1,21.9,9.6Zm-2.1-.631a5.283,5.283,0,0,0-.76-3.08,2.485,2.485,0,0,0-2.154-1.071,2.477,2.477,0,0,0-2.129,1.067,5.181,5.181,0,0,0-.784,3.017v.7a5.243,5.243,0,0,0,.776,3.08A2.5,2.5,0,0,0,16.9,14.439a2.47,2.47,0,0,0,2.146-1.062,5.356,5.356,0,0,0,.751-3.1Zm8.7-.78a4.991,4.991,0,0,0-.822-.066,1.85,1.85,0,0,0-1.868,1.063V16H23.791V7.019h1.926l.05,1a2.273,2.273,0,0,1,2.025-1.17,1.888,1.888,0,0,1,.714.116ZM31.917,16H29.9V7.019h2.017ZM29.776,4.686a1.071,1.071,0,0,1,.295-.772,1.113,1.113,0,0,1,.843-.307,1.127,1.127,0,0,1,.847.307,1.062,1.062,0,0,1,.3.772,1.038,1.038,0,0,1-.3.76,1.136,1.136,0,0,1-.847.3,1.122,1.122,0,0,1-.843-.3A1.046,1.046,0,0,1,29.776,4.686Zm6.209,2.333.058,1.038a3.229,3.229,0,0,1,2.615-1.2q2.806,0,2.855,3.212V16H39.5V10.181a1.85,1.85,0,0,0-.369-1.266A1.554,1.554,0,0,0,37.919,8.5a1.944,1.944,0,0,0-1.818,1.1V16H34.084V7.019Zm7.205,4.408a5.3,5.3,0,0,1,.523-2.378,3.819,3.819,0,0,1,1.469-1.627,4.14,4.14,0,0,1,2.175-.569,3.923,3.923,0,0,1,2.951,1.17,4.6,4.6,0,0,1,1.224,3.1l.008.473a5.343,5.343,0,0,1-.51,2.374,3.773,3.773,0,0,1-1.461,1.619,4.17,4.17,0,0,1-2.2.573A3.9,3.9,0,0,1,44.331,14.9a4.848,4.848,0,0,1-1.141-3.374Zm2.017.174a3.619,3.619,0,0,0,.573,2.171,1.862,1.862,0,0,0,1.594.784,1.842,1.842,0,0,0,1.59-.8,4,4,0,0,0,.569-2.333,3.572,3.572,0,0,0-.585-2.158,1.973,1.973,0,0,0-3.158-.012A3.922,3.922,0,0,0,45.207,11.6Zm7.662-.166a5.307,5.307,0,0,1,.963-3.345,3.129,3.129,0,0,1,2.606-1.237A2.941,2.941,0,0,1,58.82,7.907l.116-.888h1.793V19.453H58.712V15.236a3.011,3.011,0,0,1-2.291.93,3.1,3.1,0,0,1-2.582-1.258A5.557,5.557,0,0,1,52.868,11.435Zm2.017.174a3.748,3.748,0,0,0,.544,2.162,1.733,1.733,0,0,0,1.507.784,1.911,1.911,0,0,0,1.776-1.021V9.451a1.912,1.912,0,0,0-1.76-.979,1.762,1.762,0,0,0-1.515.772A4.089,4.089,0,0,0,54.885,11.609ZM68.341,15.12a3.128,3.128,0,0,1-2.523,1.046,2.788,2.788,0,0,1-2.212-.855,3.637,3.637,0,0,1-.751-2.474V7.019h2.017v5.794q0,1.71,1.419,1.71a1.993,1.993,0,0,0,1.984-1.054V7.019h2.017V16h-1.9Zm6.176.88H72.5V7.019h2.017ZM74.135,3.308h2.3l-2.3,2.515-1.619,0ZM82.178,16a3.113,3.113,0,0,1-.232-.838,3.393,3.393,0,0,1-4.565.232,2.47,2.47,0,0,1-.855-1.909,2.55,2.55,0,0,1,1.067-2.2,5.169,5.169,0,0,1,3.051-.768H81.88V9.924a1.573,1.573,0,0,0-.39-1.116A1.547,1.547,0,0,0,80.3,8.388a1.777,1.777,0,0,0-1.129.344,1.066,1.066,0,0,0-.44.876H76.717a2.239,2.239,0,0,1,.49-1.382,3.263,3.263,0,0,1,1.332-1.009,4.68,4.68,0,0,1,1.88-.365,3.769,3.769,0,0,1,2.515.793A2.827,2.827,0,0,1,83.9,9.874v4.051a4.591,4.591,0,0,0,.34,1.934V16Zm-2.216-1.453a2.294,2.294,0,0,0,1.125-.291,1.941,1.941,0,0,0,.793-.78V11.783H80.792a2.973,2.973,0,0,0-1.685.39,1.264,1.264,0,0,0-.564,1.1,1.179,1.179,0,0,0,.386.926A1.5,1.5,0,0,0,79.962,14.547Z" transform="translate(-8521 -8657.793)" fill="#fff"/>
    <path id="Path_883545" data-name="Path 883545" d="M29.514,13.186H24.833L23.853,16H21.67L26.235,3.914H28.12L32.693,16H30.5Zm-4.092-1.693h3.5L27.173,6.479Zm9.919-4.474L35.4,8.056a3.229,3.229,0,0,1,2.615-1.2q2.806,0,2.855,3.212V16H38.853V10.181a1.85,1.85,0,0,0-.369-1.266A1.554,1.554,0,0,0,37.275,8.5a1.944,1.944,0,0,0-1.818,1.1V16H33.44V7.019Zm7.205,4.424a5.34,5.34,0,0,1,.963-3.333,3.085,3.085,0,0,1,2.582-1.258,2.931,2.931,0,0,1,2.308,1V3.25h2.017V16H48.589l-.1-.93a2.973,2.973,0,0,1-2.416,1.1,3.068,3.068,0,0,1-2.552-1.27A5.535,5.535,0,0,1,42.546,11.443Zm2.017.174a3.739,3.739,0,0,0,.527,2.137,1.71,1.71,0,0,0,1.5.768,1.9,1.9,0,0,0,1.81-1.1V9.583A1.876,1.876,0,0,0,46.605,8.5a1.723,1.723,0,0,0-1.511.776A4.163,4.163,0,0,0,44.563,11.617ZM54.666,16H52.648V7.019h2.017ZM52.524,4.686a1.071,1.071,0,0,1,.295-.772,1.113,1.113,0,0,1,.843-.307,1.127,1.127,0,0,1,.847.307,1.062,1.062,0,0,1,.3.772,1.038,1.038,0,0,1-.3.76,1.136,1.136,0,0,1-.847.3,1.122,1.122,0,0,1-.843-.3A1.046,1.046,0,0,1,52.524,4.686Zm6.209,2.333.058,1.038a3.229,3.229,0,0,1,2.615-1.2q2.806,0,2.855,3.212V16H62.244V10.181a1.85,1.85,0,0,0-.369-1.266A1.554,1.554,0,0,0,60.667,8.5a1.944,1.944,0,0,0-1.818,1.1V16H56.832V7.019ZM71.682,16a3.113,3.113,0,0,1-.232-.838,3.393,3.393,0,0,1-4.565.232,2.47,2.47,0,0,1-.855-1.909,2.55,2.55,0,0,1,1.067-2.2,5.169,5.169,0,0,1,3.051-.768h1.237V9.924a1.573,1.573,0,0,0-.39-1.116,1.547,1.547,0,0,0-1.187-.419,1.777,1.777,0,0,0-1.129.344,1.066,1.066,0,0,0-.44.876H66.22a2.239,2.239,0,0,1,.49-1.382,3.263,3.263,0,0,1,1.332-1.009,4.68,4.68,0,0,1,1.88-.365,3.769,3.769,0,0,1,2.515.793A2.827,2.827,0,0,1,73.4,9.874v4.051a4.591,4.591,0,0,0,.34,1.934V16Zm-2.216-1.453a2.294,2.294,0,0,0,1.125-.291,1.941,1.941,0,0,0,.793-.78V11.783H70.3a2.973,2.973,0,0,0-1.685.39,1.264,1.264,0,0,0-.564,1.1,1.179,1.179,0,0,0,.386.926A1.5,1.5,0,0,0,69.466,14.547Z" transform="translate(-8521 -8715.396)" fill="#fff"/>
    <path id="Path_883546" data-name="Path 883546" d="M18,13.186H13.315L12.336,16H10.153L14.718,3.914H16.6L21.176,16H18.985ZM13.9,11.493h3.5L15.656,6.479Zm9.944-4.474.058.938a3.232,3.232,0,0,1,2.59-1.1A2.483,2.483,0,0,1,28.962,8.23a3.186,3.186,0,0,1,2.756-1.378,2.8,2.8,0,0,1,2.212.822,3.618,3.618,0,0,1,.743,2.424V16H32.656V10.156A1.786,1.786,0,0,0,32.282,8.9a1.635,1.635,0,0,0-1.237-.4,1.679,1.679,0,0,0-1.125.369,1.948,1.948,0,0,0-.61.967L29.319,16H27.3V10.09A1.439,1.439,0,0,0,25.683,8.5a1.776,1.776,0,0,0-1.718.988V16H21.948V7.019ZM42.111,16a3.113,3.113,0,0,1-.232-.838,3.393,3.393,0,0,1-4.565.232,2.47,2.47,0,0,1-.855-1.909,2.55,2.55,0,0,1,1.067-2.2,5.169,5.169,0,0,1,3.051-.768h1.237V9.924a1.573,1.573,0,0,0-.39-1.116,1.547,1.547,0,0,0-1.187-.419,1.777,1.777,0,0,0-1.129.344,1.066,1.066,0,0,0-.44.876H36.649a2.239,2.239,0,0,1,.49-1.382,3.263,3.263,0,0,1,1.332-1.009,4.68,4.68,0,0,1,1.88-.365,3.769,3.769,0,0,1,2.515.793,2.827,2.827,0,0,1,.963,2.229v4.051a4.591,4.591,0,0,0,.34,1.934V16Zm-2.216-1.453a2.294,2.294,0,0,0,1.125-.291,1.941,1.941,0,0,0,.793-.78V11.783H40.724a2.973,2.973,0,0,0-1.685.39,1.264,1.264,0,0,0-.564,1.1,1.179,1.179,0,0,0,.386.926A1.5,1.5,0,0,0,39.894,14.547Zm8.2-.158h4.781V16H45.589V14.68l4.557-6.035H45.672V7.019H52.7V8.3Zm5.885-2.963A5.3,5.3,0,0,1,54.5,9.048a3.819,3.819,0,0,1,1.469-1.627,4.14,4.14,0,0,1,2.175-.569A3.923,3.923,0,0,1,61.1,8.023a4.6,4.6,0,0,1,1.224,3.1l.008.473a5.343,5.343,0,0,1-.51,2.374,3.773,3.773,0,0,1-1.461,1.619,4.17,4.17,0,0,1-2.2.573A3.9,3.9,0,0,1,55.122,14.9a4.848,4.848,0,0,1-1.141-3.374ZM56,11.6a3.619,3.619,0,0,0,.573,2.171,1.862,1.862,0,0,0,1.594.784,1.842,1.842,0,0,0,1.59-.8,4,4,0,0,0,.569-2.333,3.572,3.572,0,0,0-.585-2.158,1.973,1.973,0,0,0-3.158-.012A3.922,3.922,0,0,0,56,11.6Zm9.911-4.582.058,1.038a3.229,3.229,0,0,1,2.615-1.2q2.806,0,2.855,3.212V16H69.42V10.181a1.85,1.85,0,0,0-.369-1.266A1.554,1.554,0,0,0,67.843,8.5a1.944,1.944,0,0,0-1.818,1.1V16H64.008V7.019ZM75.637,16H73.62V7.019h2.017ZM73.5,4.686a1.071,1.071,0,0,1,.295-.772,1.113,1.113,0,0,1,.843-.307,1.127,1.127,0,0,1,.847.307,1.062,1.062,0,0,1,.3.772,1.038,1.038,0,0,1-.3.76,1.136,1.136,0,0,1-.847.3,1.122,1.122,0,0,1-.843-.3A1.046,1.046,0,0,1,73.5,4.686ZM83.2,16a3.113,3.113,0,0,1-.232-.838,3.393,3.393,0,0,1-4.565.232,2.47,2.47,0,0,1-.855-1.909,2.55,2.55,0,0,1,1.067-2.2,5.169,5.169,0,0,1,3.051-.768H82.9V9.924a1.573,1.573,0,0,0-.39-1.116,1.547,1.547,0,0,0-1.187-.419,1.777,1.777,0,0,0-1.129.344,1.066,1.066,0,0,0-.44.876H77.738a2.239,2.239,0,0,1,.49-1.382A3.263,3.263,0,0,1,79.56,7.218a4.68,4.68,0,0,1,1.88-.365,3.769,3.769,0,0,1,2.515.793,2.827,2.827,0,0,1,.963,2.229v4.051a4.591,4.591,0,0,0,.34,1.934V16Zm-2.216-1.453a2.294,2.294,0,0,0,1.125-.291,1.941,1.941,0,0,0,.793-.78V11.783H81.813a2.973,2.973,0,0,0-1.685.39,1.264,1.264,0,0,0-.564,1.1,1.179,1.179,0,0,0,.386.926A1.5,1.5,0,0,0,80.983,14.547Z" transform="translate(-8521 -8778.396)" fill="#fff"/>
    <path id="Path_883547" data-name="Path 883547" d="M64.5,0A64.5,64.5,0,1,1,0,64.5,64.5,64.5,0,0,1,64.5,0Z" transform="translate(-8537 -9050)" fill="#e2f5f1"/>
    <path id="Path_883548" data-name="Path 883548" d="M34.4,11.576H32.413V16h-2.49V3.914h4.491a5.076,5.076,0,0,1,3.3.955,3.3,3.3,0,0,1,1.162,2.7,3.718,3.718,0,0,1-.535,2.063,3.651,3.651,0,0,1-1.623,1.316l2.615,4.939V16H36.663ZM32.413,9.559h2.009a2.057,2.057,0,0,0,1.453-.477,1.706,1.706,0,0,0,.515-1.316A1.826,1.826,0,0,0,35.9,6.421a2.018,2.018,0,0,0-1.49-.49h-2Zm12.335,6.607a4.409,4.409,0,0,1-3.217-1.212,4.308,4.308,0,0,1-1.241-3.229v-.232a5.426,5.426,0,0,1,.523-2.42A3.838,3.838,0,0,1,42.3,7.429a4.159,4.159,0,0,1,2.187-.577,3.727,3.727,0,0,1,2.9,1.162,4.722,4.722,0,0,1,1.058,3.3v.979H42.723a2.229,2.229,0,0,0,.7,1.411,2.12,2.12,0,0,0,1.482.531,2.589,2.589,0,0,0,2.167-1l1.179,1.32a3.6,3.6,0,0,1-1.461,1.191A4.793,4.793,0,0,1,44.748,16.166Zm-.274-7.379a1.5,1.5,0,0,0-1.158.484,2.5,2.5,0,0,0-.569,1.384h3.337v-.192a1.786,1.786,0,0,0-.432-1.238A1.547,1.547,0,0,0,44.474,8.787Zm4.98,2.656a5.264,5.264,0,0,1,.984-3.329,3.187,3.187,0,0,1,2.652-1.262,2.8,2.8,0,0,1,2.3,1.013l.1-.847h2.175V15.7a3.839,3.839,0,0,1-.535,2.05,3.439,3.439,0,0,1-1.507,1.328,5.3,5.3,0,0,1-2.274.457,4.925,4.925,0,0,1-1.926-.394A3.418,3.418,0,0,1,50,18.125l1.063-1.461a2.81,2.81,0,0,0,2.175,1,2.057,2.057,0,0,0,1.486-.51,1.915,1.915,0,0,0,.531-1.448v-.481a2.775,2.775,0,0,1-2.183.938A3.179,3.179,0,0,1,50.455,14.9a5.262,5.262,0,0,1-1-3.358Zm2.4.179a3.278,3.278,0,0,0,.49,1.916,1.558,1.558,0,0,0,1.345.694,1.666,1.666,0,0,0,1.569-.823V9.626A1.662,1.662,0,0,0,53.7,8.8a1.568,1.568,0,0,0-1.357.707A3.694,3.694,0,0,0,51.854,11.621ZM62.039,16H59.632V7.019h2.407ZM59.49,4.694a1.181,1.181,0,0,1,.361-.888,1.556,1.556,0,0,1,1.963,0,1.175,1.175,0,0,1,.365.888,1.178,1.178,0,0,1-.369.9,1.539,1.539,0,0,1-1.951,0A1.178,1.178,0,0,1,59.49,4.694Zm4.15,6.732a5.327,5.327,0,0,1,.515-2.382,3.768,3.768,0,0,1,1.482-1.619,4.323,4.323,0,0,1,2.245-.573A4.09,4.09,0,0,1,70.85,7.965a4.464,4.464,0,0,1,1.282,3.021l.017.614A4.694,4.694,0,0,1,71,14.917a4.472,4.472,0,0,1-6.2,0,4.777,4.777,0,0,1-1.158-3.387Zm2.4.17a3.357,3.357,0,0,0,.481,1.958,1.73,1.73,0,0,0,2.739.008,3.674,3.674,0,0,0,.49-2.141,3.324,3.324,0,0,0-.49-1.945,1.592,1.592,0,0,0-1.378-.69,1.566,1.566,0,0,0-1.361.686A3.736,3.736,0,0,0,66.04,11.6Zm9.795-4.578.075,1.038a3.136,3.136,0,0,1,2.582-1.2,2.606,2.606,0,0,1,2.125.838A3.912,3.912,0,0,1,81.33,10.2V16h-2.4V10.256A1.556,1.556,0,0,0,78.6,9.148a1.486,1.486,0,0,0-1.1-.344,1.65,1.65,0,0,0-1.519.863V16h-2.4V7.019Zm11.447,9.147a4.409,4.409,0,0,1-3.217-1.212,4.308,4.308,0,0,1-1.241-3.229v-.232a5.426,5.426,0,0,1,.523-2.42,3.838,3.838,0,0,1,1.482-1.644,4.159,4.159,0,0,1,2.187-.577,3.727,3.727,0,0,1,2.9,1.162,4.722,4.722,0,0,1,1.058,3.3v.979H85.256a2.229,2.229,0,0,0,.7,1.411,2.12,2.12,0,0,0,1.482.531,2.589,2.589,0,0,0,2.167-1l1.179,1.32a3.6,3.6,0,0,1-1.461,1.191A4.793,4.793,0,0,1,87.281,16.166Zm-.274-7.379a1.5,1.5,0,0,0-1.158.484,2.5,2.5,0,0,0-.569,1.384h3.337v-.192a1.786,1.786,0,0,0-.432-1.238A1.547,1.547,0,0,0,87.008,8.787ZM97.2,13.518a.773.773,0,0,0-.436-.693,4.95,4.95,0,0,0-1.4-.452q-3.2-.672-3.2-2.723a2.468,2.468,0,0,1,.992-2,4,4,0,0,1,2.594-.8,4.307,4.307,0,0,1,2.735.805A2.538,2.538,0,0,1,99.509,9.75h-2.4a1.161,1.161,0,0,0-.332-.851,1.405,1.405,0,0,0-1.038-.336,1.436,1.436,0,0,0-.938.274.865.865,0,0,0-.332.7.739.739,0,0,0,.378.643,3.885,3.885,0,0,0,1.274.423,10.407,10.407,0,0,1,1.511.4,2.482,2.482,0,0,1,1.9,2.416,2.343,2.343,0,0,1-1.054,1.988,4.548,4.548,0,0,1-2.723.76,4.75,4.75,0,0,1-2-.4,3.363,3.363,0,0,1-1.374-1.1,2.565,2.565,0,0,1-.5-1.515h2.274a1.252,1.252,0,0,0,.473.979,1.877,1.877,0,0,0,1.179.34,1.737,1.737,0,0,0,1.042-.261A.814.814,0,0,0,97.2,13.518ZM8.4,33.443a5.264,5.264,0,0,1,.984-3.329,3.187,3.187,0,0,1,2.652-1.262,2.8,2.8,0,0,1,2.3,1.013l.1-.847h2.175V37.7a3.839,3.839,0,0,1-.535,2.05,3.439,3.439,0,0,1-1.507,1.328,5.3,5.3,0,0,1-2.274.457,4.925,4.925,0,0,1-1.926-.394,3.418,3.418,0,0,1-1.419-1.017l1.063-1.461a2.81,2.81,0,0,0,2.175,1,2.057,2.057,0,0,0,1.486-.51,1.915,1.915,0,0,0,.531-1.448v-.481a2.775,2.775,0,0,1-2.183.938A3.179,3.179,0,0,1,9.4,36.9a5.262,5.262,0,0,1-1-3.358Zm2.4.179a3.278,3.278,0,0,0,.49,1.916,1.558,1.558,0,0,0,1.345.694,1.666,1.666,0,0,0,1.569-.823V31.626a1.662,1.662,0,0,0-1.552-.823,1.568,1.568,0,0,0-1.357.707A3.694,3.694,0,0,0,10.8,33.621Zm11.787,4.545a4.409,4.409,0,0,1-3.217-1.212,4.308,4.308,0,0,1-1.241-3.229v-.232a5.426,5.426,0,0,1,.523-2.42,3.838,3.838,0,0,1,1.482-1.644,4.159,4.159,0,0,1,2.187-.577,3.727,3.727,0,0,1,2.9,1.162,4.722,4.722,0,0,1,1.058,3.3v.979H20.564a2.229,2.229,0,0,0,.7,1.411,2.12,2.12,0,0,0,1.482.531,2.589,2.589,0,0,0,2.167-1l1.179,1.32a3.6,3.6,0,0,1-1.461,1.191A4.793,4.793,0,0,1,22.589,38.166Zm-.274-7.379a1.5,1.5,0,0,0-1.158.484,2.5,2.5,0,0,0-.569,1.384h3.337v-.192a1.786,1.786,0,0,0-.432-1.238A1.547,1.547,0,0,0,22.315,30.787Zm4.956,2.64a5.327,5.327,0,0,1,.515-2.382,3.768,3.768,0,0,1,1.482-1.619,4.323,4.323,0,0,1,2.245-.573,4.09,4.09,0,0,1,2.968,1.112,4.464,4.464,0,0,1,1.282,3.021l.017.614a4.694,4.694,0,0,1-1.154,3.316,4.011,4.011,0,0,1-3.1,1.249,4.031,4.031,0,0,1-3.1-1.245,4.777,4.777,0,0,1-1.158-3.387Zm2.4.17a3.357,3.357,0,0,0,.481,1.958,1.73,1.73,0,0,0,2.739.008,3.674,3.674,0,0,0,.49-2.141,3.324,3.324,0,0,0-.49-1.945,1.592,1.592,0,0,0-1.378-.69,1.566,1.566,0,0,0-1.361.686A3.735,3.735,0,0,0,29.67,33.6Zm7.238-.154a5.264,5.264,0,0,1,.984-3.329,3.187,3.187,0,0,1,2.652-1.262,2.8,2.8,0,0,1,2.3,1.013l.1-.847h2.175V37.7a3.839,3.839,0,0,1-.535,2.05,3.439,3.439,0,0,1-1.507,1.328,5.3,5.3,0,0,1-2.274.457,4.925,4.925,0,0,1-1.926-.394,3.418,3.418,0,0,1-1.419-1.017l1.063-1.461a2.81,2.81,0,0,0,2.175,1,2.057,2.057,0,0,0,1.486-.51,1.915,1.915,0,0,0,.531-1.448v-.481a2.775,2.775,0,0,1-2.183.938A3.179,3.179,0,0,1,37.908,36.9a5.262,5.262,0,0,1-1-3.358Zm2.4.179a3.278,3.278,0,0,0,.49,1.916,1.558,1.558,0,0,0,1.345.694,1.666,1.666,0,0,0,1.569-.823V31.626a1.662,1.662,0,0,0-1.552-.823,1.568,1.568,0,0,0-1.357.707A3.694,3.694,0,0,0,39.307,33.621Zm12.7-2.353a6.517,6.517,0,0,0-.863-.066,1.757,1.757,0,0,0-1.785.921V38h-2.4V29.019h2.266l.066,1.071a2.223,2.223,0,0,1,2-1.237,2.514,2.514,0,0,1,.747.108ZM58.117,38a2.664,2.664,0,0,1-.241-.805,2.9,2.9,0,0,1-2.266.971,3.189,3.189,0,0,1-2.187-.764,2.456,2.456,0,0,1-.867-1.926,2.538,2.538,0,0,1,1.058-2.191,5.222,5.222,0,0,1,3.059-.772h1.1V32a1.48,1.48,0,0,0-.32-1,1.257,1.257,0,0,0-1.009-.374,1.429,1.429,0,0,0-.95.291.987.987,0,0,0-.344.8h-2.4a2.41,2.41,0,0,1,.481-1.444A3.182,3.182,0,0,1,54.6,29.23a4.961,4.961,0,0,1,1.976-.378,3.92,3.92,0,0,1,2.635.834,2.918,2.918,0,0,1,.975,2.345v3.893a4.294,4.294,0,0,0,.357,1.934V38Zm-1.984-1.668a2.066,2.066,0,0,0,.979-.237,1.554,1.554,0,0,0,.664-.635V33.916h-.9q-1.8,0-1.917,1.245l-.008.141a.96.96,0,0,0,.315.739A1.225,1.225,0,0,0,56.133,36.332Zm.913-11.082h2.615l-2.3,2.573H55.411ZM62.607,38V30.778H61.271v-1.76h1.336V28.6a3.368,3.368,0,0,1,1.042-2.611,4.191,4.191,0,0,1,2.893-.917,9.6,9.6,0,0,1,2.723.49l-.349,1.984a10.622,10.622,0,0,0-1.262-.311,6.2,6.2,0,0,0-.963-.071q-1.677,0-1.677,1.486v.365h1.768v1.76H65.015V38Zm7.778,0H67.978V29.019h2.407ZM76.1,36.232a1.573,1.573,0,0,0,1.079-.365,1.28,1.28,0,0,0,.432-.971h2.25a3.077,3.077,0,0,1-.5,1.673,3.286,3.286,0,0,1-1.341,1.179,4.2,4.2,0,0,1-1.88.419,3.9,3.9,0,0,1-3.038-1.224A4.845,4.845,0,0,1,72,33.559V33.4a4.79,4.79,0,0,1,1.1-3.312,3.854,3.854,0,0,1,3.03-1.237,3.778,3.778,0,0,1,2.7.959,3.4,3.4,0,0,1,1.033,2.552h-2.25a1.648,1.648,0,0,0-.432-1.139,1.6,1.6,0,0,0-2.362.173,3.541,3.541,0,0,0-.427,1.983v.249a3.586,3.586,0,0,0,.423,2A1.463,1.463,0,0,0,76.1,36.232ZM86.439,38a2.664,2.664,0,0,1-.241-.805,2.9,2.9,0,0,1-2.266.971,3.189,3.189,0,0,1-2.187-.764,2.456,2.456,0,0,1-.867-1.926,2.538,2.538,0,0,1,1.058-2.191,5.222,5.222,0,0,1,3.059-.772h1.1V32a1.48,1.48,0,0,0-.32-1,1.257,1.257,0,0,0-1.009-.374,1.429,1.429,0,0,0-.95.291.987.987,0,0,0-.344.8h-2.4a2.41,2.41,0,0,1,.481-1.444,3.182,3.182,0,0,1,1.361-1.042,4.961,4.961,0,0,1,1.976-.378,3.92,3.92,0,0,1,2.635.834,2.918,2.918,0,0,1,.975,2.345v3.893a4.294,4.294,0,0,0,.357,1.934V38Zm-1.984-1.668a2.066,2.066,0,0,0,.979-.237,1.554,1.554,0,0,0,.664-.635V33.916h-.9q-1.8,0-1.917,1.245l-.008.141a.96.96,0,0,0,.315.739A1.225,1.225,0,0,0,84.455,36.332Zm10.758-.813a.773.773,0,0,0-.436-.693,4.95,4.95,0,0,0-1.4-.452q-3.2-.672-3.2-2.723a2.468,2.468,0,0,1,.992-2,4,4,0,0,1,2.594-.8,4.307,4.307,0,0,1,2.735.805,2.538,2.538,0,0,1,1.025,2.092h-2.4a1.161,1.161,0,0,0-.332-.851,1.405,1.405,0,0,0-1.038-.336,1.436,1.436,0,0,0-.938.274.865.865,0,0,0-.332.7.739.739,0,0,0,.378.643,3.885,3.885,0,0,0,1.274.423,10.407,10.407,0,0,1,1.511.4,2.482,2.482,0,0,1,1.9,2.416,2.343,2.343,0,0,1-1.054,1.988,4.548,4.548,0,0,1-2.723.76,4.75,4.75,0,0,1-2-.4,3.363,3.363,0,0,1-1.374-1.1,2.565,2.565,0,0,1-.5-1.515h2.274a1.252,1.252,0,0,0,.473.979,1.877,1.877,0,0,0,1.179.34A1.737,1.737,0,0,0,94.86,36.2.814.814,0,0,0,95.213,35.518Zm7.736-2.075a5.413,5.413,0,0,1,.942-3.345,3.057,3.057,0,0,1,2.577-1.245,2.751,2.751,0,0,1,2.167.979V25.25h2.407V38h-2.167l-.116-.955a2.823,2.823,0,0,1-2.308,1.121,3.049,3.049,0,0,1-2.544-1.249A5.587,5.587,0,0,1,102.949,33.443Zm2.4.179a3.546,3.546,0,0,0,.44,1.937,1.433,1.433,0,0,0,1.278.673,1.605,1.605,0,0,0,1.569-.939v-3.55a1.582,1.582,0,0,0-1.552-.939Q105.348,30.8,105.348,33.621Zm11.688,4.545a4.409,4.409,0,0,1-3.217-1.212,4.308,4.308,0,0,1-1.241-3.229v-.232a5.426,5.426,0,0,1,.523-2.42,3.838,3.838,0,0,1,1.482-1.644,4.159,4.159,0,0,1,2.187-.577,3.727,3.727,0,0,1,2.9,1.162,4.722,4.722,0,0,1,1.058,3.3v.979H115.01a2.229,2.229,0,0,0,.7,1.411,2.12,2.12,0,0,0,1.482.531,2.589,2.589,0,0,0,2.167-1l1.179,1.32a3.6,3.6,0,0,1-1.461,1.191A4.793,4.793,0,0,1,117.036,38.166Zm-.274-7.379a1.5,1.5,0,0,0-1.158.484,2.5,2.5,0,0,0-.569,1.384h3.337v-.192a1.786,1.786,0,0,0-.432-1.238A1.547,1.547,0,0,0,116.762,30.787ZM38.685,55.974a4.277,4.277,0,0,1-1.44,3.071,5.058,5.058,0,0,1-3.424,1.121A4.548,4.548,0,0,1,30.164,58.6a6.416,6.416,0,0,1-1.332-4.3v-.739a7.245,7.245,0,0,1,.614-3.071A4.6,4.6,0,0,1,31.2,48.458a4.918,4.918,0,0,1,2.652-.71,4.927,4.927,0,0,1,3.37,1.121A4.6,4.6,0,0,1,38.7,52.015h-2.49a2.524,2.524,0,0,0-.652-1.7,2.413,2.413,0,0,0-1.706-.527,2.116,2.116,0,0,0-1.864.892,5,5,0,0,0-.635,2.768v.913a5.352,5.352,0,0,0,.594,2.864,2.077,2.077,0,0,0,1.872.9,2.458,2.458,0,0,0,1.722-.527,2.381,2.381,0,0,0,.652-1.631Zm1.1-.548a5.327,5.327,0,0,1,.515-2.382,3.767,3.767,0,0,1,1.482-1.619,4.323,4.323,0,0,1,2.245-.573A4.09,4.09,0,0,1,47,51.965a4.464,4.464,0,0,1,1.282,3.021l.017.614a4.694,4.694,0,0,1-1.154,3.316,4.472,4.472,0,0,1-6.2,0,4.777,4.777,0,0,1-1.158-3.387Zm2.4.17a3.357,3.357,0,0,0,.481,1.958,1.73,1.73,0,0,0,2.739.008,3.674,3.674,0,0,0,.49-2.141,3.324,3.324,0,0,0-.49-1.945,1.592,1.592,0,0,0-1.378-.69,1.566,1.566,0,0,0-1.361.686A3.735,3.735,0,0,0,42.188,55.6ZM52.306,60H49.9V47.25h2.407Zm1.6-4.574a5.327,5.327,0,0,1,.515-2.382A3.767,3.767,0,0,1,55.9,51.425a4.323,4.323,0,0,1,2.245-.573,4.09,4.09,0,0,1,2.968,1.112A4.464,4.464,0,0,1,62.4,54.986l.017.614a4.694,4.694,0,0,1-1.154,3.316,4.472,4.472,0,0,1-6.2,0,4.777,4.777,0,0,1-1.158-3.387Zm2.4.17a3.357,3.357,0,0,0,.481,1.958,1.73,1.73,0,0,0,2.739.008,3.674,3.674,0,0,0,.49-2.141,3.324,3.324,0,0,0-.49-1.945,1.592,1.592,0,0,0-1.378-.69,1.566,1.566,0,0,0-1.361.686A3.735,3.735,0,0,0,56.307,55.6Zm9.836-4.578.075,1a3.156,3.156,0,0,1,2.582-1.17,2.4,2.4,0,0,1,2.382,1.37,3.084,3.084,0,0,1,2.7-1.37,2.679,2.679,0,0,1,2.175.851,3.911,3.911,0,0,1,.714,2.561V60H74.361V54.272a1.71,1.71,0,0,0-.3-1.116,1.324,1.324,0,0,0-1.054-.353,1.5,1.5,0,0,0-1.494,1.029L71.522,60h-2.4V54.281a1.689,1.689,0,0,0-.307-1.129,1.337,1.337,0,0,0-1.046-.349,1.555,1.555,0,0,0-1.478.847V60h-2.4V51.019ZM86.7,55.592a5.439,5.439,0,0,1-.921,3.366,3.052,3.052,0,0,1-2.573,1.208,2.8,2.8,0,0,1-2.333-1.121L80.77,60H78.611V47.25h2.4v4.574a2.732,2.732,0,0,1,2.183-.971,3.077,3.077,0,0,1,2.577,1.208,5.446,5.446,0,0,1,.934,3.4Zm-2.4-.174a3.573,3.573,0,0,0-.432-1.988,1.46,1.46,0,0,0-1.287-.627,1.582,1.582,0,0,0-1.577.938v3.544a1.6,1.6,0,0,0,1.594.946,1.481,1.481,0,0,0,1.527-1.146A5.909,5.909,0,0,0,84.306,55.418ZM90.714,60H88.307V51.019h2.407ZM88.166,48.694a1.181,1.181,0,0,1,.361-.888,1.556,1.556,0,0,1,1.963,0,1.268,1.268,0,0,1,0,1.785,1.539,1.539,0,0,1-1.951,0A1.178,1.178,0,0,1,88.166,48.694ZM97.894,60a2.664,2.664,0,0,1-.241-.805,2.9,2.9,0,0,1-2.266.971A3.189,3.189,0,0,1,93.2,59.4a2.456,2.456,0,0,1-.867-1.926,2.538,2.538,0,0,1,1.058-2.191,5.222,5.222,0,0,1,3.059-.772h1.1V54a1.48,1.48,0,0,0-.32-1,1.257,1.257,0,0,0-1.009-.374,1.429,1.429,0,0,0-.95.291.987.987,0,0,0-.344.8h-2.4a2.41,2.41,0,0,1,.481-1.444,3.182,3.182,0,0,1,1.361-1.042,4.961,4.961,0,0,1,1.976-.378,3.92,3.92,0,0,1,2.635.834,2.918,2.918,0,0,1,.975,2.345v3.893a4.294,4.294,0,0,0,.357,1.934V60ZM95.91,58.332a2.066,2.066,0,0,0,.979-.237,1.554,1.554,0,0,0,.664-.635V55.916h-.9q-1.8,0-1.917,1.245l-.008.141a.96.96,0,0,0,.315.739A1.225,1.225,0,0,0,95.91,58.332Z" transform="translate(-8537 -9017)" fill="#12263f"/>
    <path id="Path_883549" data-name="Path 883549" d="M5,0A5,5,0,1,1,0,5,5,5,0,0,1,5,0Z" transform="translate(-8602 -9171.838)" fill="#12263f"/>
    <path id="Path_883550" data-name="Path 883550" d="M5,0A5,5,0,1,1,0,5,5,5,0,0,1,5,0Z" transform="translate(-8500 -9122.002)" fill="#12263f"/>
    <path id="Path_883551" data-name="Path 883551" d="M5,0A5,5,0,1,1,0,5,5,5,0,0,1,5,0Z" transform="translate(-8570.5 -9011.84)" fill="#12263f"/>
    <path id="Path_883552" data-name="Path 883552" d="M5,0A5,5,0,1,1,0,5,5,5,0,0,1,5,0Z" transform="translate(-8401 -9016.84)" fill="#12263f"/>
    <path id="Path_883553" data-name="Path 883553" d="M5,0A5,5,0,1,1,0,5,5,5,0,0,1,5,0Z" transform="translate(-8583 -8921)" fill="#12263f"/>
    <path id="Path_883554" data-name="Path 883554" d="M5,0A5,5,0,1,1,0,5,5,5,0,0,1,5,0Z" transform="translate(-8449.5 -8877.589)" fill="#12263f"/>
  </g>
</svg>
