<svg xmlns="http://www.w3.org/2000/svg" xmlns:xlink="http://www.w3.org/1999/xlink" width="190" height="134" viewBox="0 0 190 134">
  <defs>
    <clipPath id="clip-path">
      <rect id="Rectangle_402355" data-name="Rectangle 402355" width="87" height="87" transform="translate(342 951)" fill="#fff" stroke="#707070" stroke-width="1"/>
    </clipPath>
    <clipPath id="clip-path-2">
      <rect id="Rectangle_402361" data-name="Rectangle 402361" width="76.126" height="84" fill="#7d3a1b"/>
    </clipPath>
  </defs>
  <g id="Group_1100688" data-name="Group 1100688" transform="translate(-330 -7019)">
    <rect id="Rectangle_402215" data-name="Rectangle 402215" width="190" height="134" transform="translate(330 7019)" fill="none"/>
    <g id="Group_1100287" data-name="Group 1100287" transform="translate(16 -507)">
      <g id="Grupo_156312" data-name="Grupo 156312" transform="translate(344 7528)">
        <path id="Elipse_5845" data-name="Elipse 5845" d="M65.5,0A65.5,65.5,0,1,1,0,65.5,65.5,65.5,0,0,1,65.5,0Z" transform="translate(0 0)" fill="#ffce73"/>
      </g>
      <g id="Mask_Group_1098715" data-name="Mask Group 1098715" transform="translate(24 6599)" clip-path="url(#clip-path)">
        <g id="Group_1100699" data-name="Group 1100699" transform="translate(345.708 954)">
          <g id="Group_1100698" data-name="Group 1100698" clip-path="url(#clip-path-2)">
            <path id="Path_880299" data-name="Path 880299" d="M109.578,23.307c-.458.425-.89.829-1.325,1.228a7.417,7.417,0,0,1-3.63,1.955,4.823,4.823,0,0,1-2.518-.19,13.913,13.913,0,0,0-2-.516,2.449,2.449,0,0,0-1.9.485,24.659,24.659,0,0,1-2.311,1.563A10.048,10.048,0,0,1,89.6,29.06a7.166,7.166,0,0,1-3.641-1.808,14.791,14.791,0,0,1-2.96-3.5c-.438-.7-.848-1.427-1.3-2.194a26.131,26.131,0,0,0-7.083,5.669c.117.085.218.162.323.234a23.393,23.393,0,0,1,4.514,3.813A9.522,9.522,0,0,1,81.22,34.05a6.506,6.506,0,0,1-.006,4.075,13.464,13.464,0,0,1-1.293,3.255c-.406.746-.733,1.535-1.09,2.307a1.652,1.652,0,0,1-.932,1.035,1.25,1.25,0,0,1-1.652-1.415,4.282,4.282,0,0,1,.362-.979c.545-1.148,1.144-2.272,1.65-3.436a8.544,8.544,0,0,0,.711-2.873,2.844,2.844,0,0,0-.339-1.5,8.8,8.8,0,0,0-1.478-1.963,23.577,23.577,0,0,0-4.2-3.306c-.428.668-.874,1.329-1.285,2.012A26.388,26.388,0,0,0,69.49,35.9,26.8,26.8,0,0,0,68.1,42.277c-.1.925-.07,1.863-.09,2.795a1.391,1.391,0,0,1-.343.937,1.247,1.247,0,0,1-1.322.423,1.277,1.277,0,0,1-.923-1.3,27.4,27.4,0,0,1,.457-5.741,31.391,31.391,0,0,1,1.785-5.938,28.81,28.81,0,0,1,6.366-9.361A28.486,28.486,0,0,1,84.7,17.418a26.707,26.707,0,0,1,5.917-1.409q1-.113,2-.19c.233-.018.337-.074.316-.337a18.715,18.715,0,0,0-.142-2.154,3.53,3.53,0,0,0-1.846-2.4.287.287,0,0,0-.395.061,10.34,10.34,0,0,1-1,.909,7.687,7.687,0,0,1-6.932,1.33A17.844,17.844,0,0,1,76.8,10.382a4.8,4.8,0,0,0-4.414-.73,1.3,1.3,0,0,1-1.514-.481A1.279,1.279,0,0,1,71,7.587a26.54,26.54,0,0,1,6.746-5.927A11.281,11.281,0,0,1,82.561.016a8.1,8.1,0,0,1,2.732.349,9.263,9.263,0,0,1,3.388,1.559,7.152,7.152,0,0,1,2.612,4.624c.09.5.11,1.016.193,1.52a.547.547,0,0,0,.246.363,6.361,6.361,0,0,1,2.34,1.843.812.812,0,0,1,.086.148c.618-.534,1.169-1.037,1.751-1.5a3.985,3.985,0,0,1,.837-.464.413.413,0,0,0,.269-.408A9.793,9.793,0,0,1,98.16,3.822,6.918,6.918,0,0,1,101.744.846a11.738,11.738,0,0,1,3.342-.823,7.608,7.608,0,0,1,3.185.491,17.68,17.68,0,0,1,5.6,3.387,31.154,31.154,0,0,1,3.417,3.425,3.535,3.535,0,0,1,.339.459,1.16,1.16,0,0,1-.062,1.474,1.284,1.284,0,0,1-1.376.425,5.729,5.729,0,0,0-2.555-.188,3.835,3.835,0,0,0-1.695.729,20.064,20.064,0,0,1-4.569,2.5,9.208,9.208,0,0,1-4.178.8,9.94,9.94,0,0,1-2.439-.588,6.811,6.811,0,0,1-2.8-1.969c-.127-.146-.243-.129-.393-.044A3.87,3.87,0,0,0,95.666,13.4a9.623,9.623,0,0,0-.153,2.382c.353.028.683.039,1.007.084a45.012,45.012,0,0,1,4.585.766A28.87,28.87,0,0,1,120.213,32.1a31.359,31.359,0,0,1,2.4,7.124,1.316,1.316,0,0,1-.759,1.461,1.217,1.217,0,0,1-1.472-.32,1.366,1.366,0,0,1-.26-.528c-.3-1.089-.565-2.19-.889-3.272a23.5,23.5,0,0,0-2.5-5.508c-.078-.128-.16-.253-.24-.38,0-.006-.017-.007-.077-.031-.361.495-.741,1-1.1,1.51a21.936,21.936,0,0,0-1.877,3.621,14.136,14.136,0,0,1-1.965,3.4A4.655,4.655,0,0,1,107.8,41c-1.192,0-2.384-.056-3.576-.058a19.391,19.391,0,0,0-2.492.089,5.6,5.6,0,0,0-3.822,2.328,11.5,11.5,0,0,0-2.219,5.038,3.572,3.572,0,0,1-.2.69,1.17,1.17,0,0,1-1.465.711,1.249,1.249,0,0,1-.963-1.337,13.473,13.473,0,0,1,4.07-7.984,8.011,8.011,0,0,1,5.453-2.115c1.623-.032,3.25-.014,4.872.062a2.416,2.416,0,0,0,2.355-1.311c.618-1.073,1.173-2.187,1.682-3.317a19,19,0,0,1,3.293-5.1c.131-.143.162-.234.03-.4a26.914,26.914,0,0,0-5.109-4.9,1.013,1.013,0,0,0-.129-.08m-25.583-2.86c.43.72.828,1.427,1.263,2.109A11.125,11.125,0,0,0,87.9,25.531a4.226,4.226,0,0,0,2.248,1,8.453,8.453,0,0,0,5.819-1.773A11.528,11.528,0,0,1,97.531,23.7a3.976,3.976,0,0,1,2.452-.556,22.735,22.735,0,0,1,2.764.666,3.025,3.025,0,0,0,1.889.034,6.493,6.493,0,0,0,2.653-1.962,26.129,26.129,0,0,0-23.294-1.433M88.186,9.7c-1.076-.443-2.094-.855-3.105-1.284a3.067,3.067,0,0,1-.753-.426,1.236,1.236,0,0,1-.361-1.342,1.035,1.035,0,0,1,.882-.83,2.147,2.147,0,0,1,1.251.221c.657.271,1.3.562,1.96.837.218.091.446.159.716.254-.031-.2-.049-.342-.078-.485a4.225,4.225,0,0,0-2.219-3.116,7.394,7.394,0,0,0-.992-.426,6.862,6.862,0,0,0-5.126.093,17.711,17.711,0,0,0-4.547,3.053c-.209.183-.412.372-.651.59.133.053.22.1.313.125a9.109,9.109,0,0,1,2.753,1.31,18.344,18.344,0,0,0,4.527,2.328,5.438,5.438,0,0,0,5.174-.67,2.761,2.761,0,0,0,.257-.232m25.142-2.79a2.023,2.023,0,0,0-.209-.242c-.865-.713-1.711-1.453-2.607-2.125a9.626,9.626,0,0,0-3.188-1.642,7.185,7.185,0,0,0-4.951.449,4.249,4.249,0,0,0-2.6,3.526,2.17,2.17,0,0,0,0,.28c.584-.245,1.132-.481,1.686-.705a17.741,17.741,0,0,1,1.673-.645,1.162,1.162,0,0,1,1.329.645,1.037,1.037,0,0,1-.125,1.354,2.547,2.547,0,0,1-.775.544c-.569.267-1.163.482-1.744.724-.484.2-.965.411-1.447.616l-.095.107a1.322,1.322,0,0,1,.254.111,5.241,5.241,0,0,0,4.56.887,16.2,16.2,0,0,0,5.159-2.505,8.5,8.5,0,0,1,3.076-1.379" transform="translate(-49.634 0.001)" fill="#7d3a1b"/>
            <path id="Path_880300" data-name="Path 880300" d="M55.778,191.6c.68-.687,1.339-1.358,2-2.024q4.127-4.128,8.259-8.252a5.582,5.582,0,0,1,4.026-1.695A5.923,5.923,0,0,1,74.4,189.669c-2.183,2.255-4.429,4.45-6.648,6.67q-4.052,4.054-8.1,8.11a13.517,13.517,0,0,1-4.494,3.054,13.191,13.191,0,0,1-4.98.99q-9.552.028-19.1,0a3.793,3.793,0,0,0-2.824,1.115c-.494.5-.958,1.023-1.436,1.536.433.44.938.923,1.4,1.441a2.492,2.492,0,0,1,.559.862,1.343,1.343,0,0,1-.5,1.39c-1.15,1.134-2.289,2.278-3.432,3.419-.489.489-.971.986-1.466,1.47a1.323,1.323,0,0,1-2.142,0q-3.929-3.921-7.846-7.854Q7.109,205.6.831,199.325a7.144,7.144,0,0,1-.55-.6,1.118,1.118,0,0,1-.015-1.466,9.158,9.158,0,0,1,.739-.79q2.242-2.247,4.488-4.49a1.313,1.313,0,0,1,2.095-.035c.453.44.9.882,1.344,1.337.195.2.329.175.517-.014,1.662-1.671,3.348-3.318,5-5a15.673,15.673,0,0,1,5.108-3.583,13.443,13.443,0,0,1,4.415-1.084,14.368,14.368,0,0,1,12.1,4.985.65.65,0,0,0,.439.166c4.713.008,9.427,0,14.14.013a5.84,5.84,0,0,1,3.593,1.072,5.456,5.456,0,0,1,1.353,1.476c.053.083.107.166.184.285m-30.9,17.642c.454-.422.907-.829,1.345-1.253a7.954,7.954,0,0,1,1.9-1.412,7.456,7.456,0,0,1,3.467-.72c6.217-.005,12.434.016,18.651-.021a12.408,12.408,0,0,0,3.053-.421,9.874,9.874,0,0,0,4.475-2.7q6.034-6.049,12.078-12.087c.97-.972,1.966-1.922,2.887-2.94a3.313,3.313,0,0,0-.244-4.546,3.532,3.532,0,0,0-3.143-.785,3.344,3.344,0,0,0-1.867,1.133q-3.407,3.421-6.81,6.846-1.955,1.959-3.928,3.9a1.692,1.692,0,0,0-.524.953,4.51,4.51,0,0,1-1.113,2.262,5.491,5.491,0,0,1-4.321,1.884q-8.769.013-17.538,0a3.354,3.354,0,0,1-.539-.042,1.439,1.439,0,0,1-1.213-1.337,1.319,1.319,0,0,1,1.218-1.226,3.63,3.63,0,0,1,.51-.025h17.3c.251,0,.5.01.752,0a2.654,2.654,0,0,0,2.546-2.592,2.6,2.6,0,0,0-2.65-2.7q-7.581,0-15.161,0a1.829,1.829,0,0,1-1.559-.737,11.461,11.461,0,0,0-5.655-3.951,11.842,11.842,0,0,0-6.611-.21,11.561,11.561,0,0,0-5.382,3.029c-1.793,1.766-3.563,3.556-5.343,5.336-.473.472-.471.471.013.956l11.593,11.6c.622.622,1.247,1.241,1.82,1.812m.8,4.448c-.015-.017-.064-.077-.119-.132q-5.124-5.129-10.248-10.256-4.211-4.212-8.424-8.422c-.33-.33-.332-.338-.662-.008-1.028,1.027-2.051,2.058-3.054,3.065l19.155,19.182,3.352-3.429" transform="translate(0 -136.275)" fill="#7d3a1b"/>
          </g>
        </g>
      </g>
    </g>
  </g>
</svg>
