<svg xmlns="http://www.w3.org/2000/svg" xmlns:xlink="http://www.w3.org/1999/xlink" width="121" height="121" viewBox="0 0 121 121">
  <defs>
    <clipPath id="clip-path">
      <rect id="Rectangle_400938" data-name="Rectangle 400938" width="121" height="121" transform="translate(0 0)" fill="none"/>
    </clipPath>
    <clipPath id="clip-path-2">
      <rect id="Rectangle_401073" data-name="Rectangle 401073" width="92.219" height="41.532" fill="#efb499"/>
    </clipPath>
    <clipPath id="clip-path-3">
      <rect id="Rectangle_402981" data-name="Rectangle 402981" width="66.491" height="66.522" fill="none"/>
    </clipPath>
  </defs>
  <g id="Group_1101578" data-name="Group 1101578" transform="translate(-740 -3625.788)">
    <g id="Group_1099379" data-name="Group 1099379" transform="translate(352.332 -2387.212)">
      <rect id="Rectangle_401103" data-name="Rectangle 401103" width="121" height="121" transform="translate(387.668 6013)" fill="none"/>
      <g id="Group_1099348" data-name="Group 1099348" transform="translate(387.668 6013)">
        <g id="Group_1099282" data-name="Group 1099282">
          <g id="Group_1099281" data-name="Group 1099281" clip-path="url(#clip-path-2)">
            <path id="Path_873375" data-name="Path 873375" d="M74.8,9.1c-4.139,0-6.28-2.03-8.17-3.821-1.855-1.756-3.452-3.274-6.792-3.274s-4.937,1.517-6.792,3.274C51.161,7.072,49.023,9.1,44.881,9.1s-6.28-2.03-8.169-3.821C34.857,3.525,33.26,2.007,29.92,2.007s-4.937,1.517-6.789,3.274C21.241,7.072,19.1,9.1,14.962,9.1S8.679,7.072,6.789,5.281C4.937,3.525,3.34,2.007,0,2.007V0C4.139,0,6.28,2.033,8.17,3.821c1.855,1.759,3.452,3.274,6.792,3.274S19.9,5.58,21.75,3.824C23.637,2.033,25.781,0,29.92,0s6.283,2.033,8.17,3.821c1.855,1.759,3.452,3.274,6.792,3.274s4.937-1.514,6.792-3.274C53.56,2.033,55.7,0,59.843,0s6.283,2.033,8.17,3.821C69.867,5.58,71.464,7.094,74.8,7.094S79.742,5.58,81.6,3.821C83.483,2.033,85.624,0,89.766,0V2.007c-3.34,0-4.937,1.517-6.792,3.274C81.084,7.072,78.943,9.1,74.8,9.1" transform="translate(2.453 32.43)" fill="#efb499"/>
            <path id="Path_873376" data-name="Path 873376" d="M74.8,9.1c-4.139,0-6.283-2.03-8.17-3.824-1.855-1.756-3.452-3.27-6.792-3.27s-4.937,1.514-6.792,3.27C51.164,7.072,49.023,9.1,44.881,9.1s-6.283-2.03-8.17-3.824c-1.855-1.756-3.452-3.27-6.792-3.27s-4.937,1.517-6.789,3.27C21.241,7.072,19.1,9.1,14.962,9.1S8.679,7.072,6.789,5.278C4.937,3.522,3.34,2.007,0,2.007V0C4.139,0,6.283,2.03,8.17,3.821c1.855,1.759,3.452,3.274,6.792,3.274S19.9,5.58,21.75,3.821C23.637,2.03,25.781,0,29.92,0S36.2,2.03,38.093,3.821c1.852,1.759,3.449,3.274,6.789,3.274s4.937-1.514,6.792-3.274C53.56,2.03,55.7,0,59.843,0s6.283,2.03,8.17,3.821C69.867,5.58,71.464,7.094,74.8,7.094S79.742,5.58,81.6,3.821C83.486,2.03,85.627,0,89.769,0V2.007c-3.34,0-4.94,1.517-6.8,3.27C81.084,7.072,78.943,9.1,74.8,9.1" transform="translate(1.635 21.62)" fill="#efb499"/>
            <path id="Path_873377" data-name="Path 873377" d="M74.8,9.1c-4.139,0-6.283-2.03-8.169-3.824-1.855-1.756-3.452-3.27-6.792-3.27s-4.937,1.514-6.792,3.27C51.164,7.072,49.02,9.1,44.881,9.1s-6.283-2.03-8.17-3.824c-1.855-1.756-3.452-3.27-6.792-3.27s-4.937,1.517-6.789,3.27C21.241,7.072,19.1,9.1,14.962,9.1S8.678,7.072,6.789,5.278C4.937,3.522,3.34,2.007,0,2.007V0C4.139,0,6.283,2.03,8.169,3.821c1.851,1.759,3.452,3.274,6.792,3.274S19.9,5.58,21.75,3.821C23.637,2.03,25.781,0,29.92,0S36.2,2.03,38.093,3.821c1.852,1.759,3.449,3.274,6.789,3.274s4.937-1.514,6.792-3.274C53.56,2.03,55.7,0,59.843,0s6.283,2.03,8.17,3.821C69.867,5.58,71.464,7.094,74.8,7.094S79.742,5.58,81.6,3.821C83.486,2.03,85.624,0,89.769,0V2.007c-3.34,0-4.941,1.517-6.8,3.27C81.084,7.072,78.943,9.1,74.8,9.1" transform="translate(0.818 10.81)" fill="#efb499"/>
            <path id="Path_873378" data-name="Path 873378" d="M74.8,9.1c-4.139,0-6.28-2.03-8.17-3.821-1.855-1.756-3.452-3.27-6.792-3.27s-4.937,1.514-6.789,3.27C51.164,7.069,49.023,9.1,44.881,9.1s-6.28-2.03-8.169-3.821c-1.855-1.756-3.452-3.27-6.792-3.27s-4.937,1.514-6.789,3.267C21.245,7.069,19.1,9.1,14.962,9.1S8.678,7.069,6.789,5.278C4.937,3.522,3.34,2.007,0,2.007V0C4.139,0,6.283,2.03,8.17,3.821c1.855,1.756,3.452,3.27,6.792,3.27S19.9,5.577,21.75,3.821C23.64,2.03,25.781,0,29.92,0s6.28,2.03,8.173,3.821c1.852,1.756,3.449,3.27,6.789,3.27s4.937-1.514,6.792-3.27C53.563,2.03,55.7,0,59.843,0s6.28,2.03,8.17,3.821c1.855,1.756,3.452,3.27,6.792,3.27s4.937-1.514,6.792-3.27C83.486,2.03,85.627,0,89.769,0V2.007c-3.344,0-4.941,1.514-6.8,3.27C81.084,7.069,78.943,9.1,74.8,9.1" transform="translate(0 0.003)" fill="#efb499"/>
          </g>
        </g>
      </g>
      <circle id="Ellipse_11504" data-name="Ellipse 11504" cx="50.5" cy="50.5" r="50.5" transform="translate(402.668 6031)" fill="#ffce73"/>
      <circle id="Ellipse_11503" data-name="Ellipse 11503" cx="52.5" cy="52.5" r="52.5" transform="translate(395.668 6021)" fill="#f3f9ff"/>
    </g>
    <g id="Group_1099380" data-name="Group 1099380" transform="translate(765.941 3651.592)">
      <rect id="Rectangle_401104" data-name="Rectangle 401104" width="68" height="69" transform="translate(0.059 -0.804)" fill="none"/>
      <g id="Group_1101544" data-name="Group 1101544" transform="translate(0.54 1.673)">
        <g id="Group_1101543" data-name="Group 1101543" clip-path="url(#clip-path-3)">
          <path id="Path_883446" data-name="Path 883446" d="M28.735,44.185l-.157.106a.6.6,0,0,0-.259.022,24.657,24.657,0,0,1-4.617.753c-.746.045-1.49,0-2.233.027a13.881,13.881,0,0,1-3.141-.4,23.56,23.56,0,0,1-4.182-1.256,22.469,22.469,0,0,1-10.132-8.1,23.267,23.267,0,0,1-2.261-4.157,21.966,21.966,0,0,1-1.48-5.289,17.49,17.49,0,0,1-.255-3.566c.036-.62.044-1.242.106-1.864s.144-1.259.235-1.884c.063-.435.191-.861.3-1.289a20.218,20.218,0,0,1,.718-2.432c.193-.5.37-1.008.6-1.493a19.21,19.21,0,0,1,.947-1.877c.418-.689.823-1.389,1.3-2.045C4.772,8.657,5.4,7.937,6.006,7.2c.21-.253.506-.444.731-.694A11.883,11.883,0,0,1,8.214,5.159a22.2,22.2,0,0,1,2.267-1.632c.606-.368,1.216-.728,1.837-1.067A12.575,12.575,0,0,1,13.5,1.907c.558-.232,1.118-.464,1.69-.656C16.044.964,16.916.736,17.8.53A20.158,20.158,0,0,1,20.982.092,15.485,15.485,0,0,1,22.814.007c.8.038,1.6.09,2.4.153A9.913,9.913,0,0,1,26.84.414c.479.12.966.2,1.441.337.639.182,1.268.394,1.895.614a21.841,21.841,0,0,1,3.805,1.781A21.605,21.605,0,0,1,36.907,5.2a22.487,22.487,0,0,1,1.809,1.672,24.993,24.993,0,0,1,2.4,2.924,14.209,14.209,0,0,1,.908,1.409c.375.693.751,1.391,1.067,2.118.2.467.434.932.6,1.407.231.673.447,1.356.631,2.047a23.547,23.547,0,0,1,.627,3.27,22.269,22.269,0,0,1,.109,3.548,23.6,23.6,0,0,1-.629,4.306c-.03.133-.08.261-.121.392a.186.186,0,0,1-.146-.07,3.519,3.519,0,0,0-.62-.561,3.037,3.037,0,0,0-1.189-.53c.048-.251.111-.5.142-.755.067-.548.124-1.1.2-1.644a9.677,9.677,0,0,0,.141-1.38,19.539,19.539,0,0,0-.176-3.418c-.133-.737-.208-1.484-.4-2.214-.23-.88-.5-1.745-.817-2.6a18.485,18.485,0,0,0-1.047-2.255A13.444,13.444,0,0,0,39.3,11.139,23.336,23.336,0,0,0,36,7.375,22.758,22.758,0,0,0,33.2,5.3a17.853,17.853,0,0,0-3.211-1.6A20.4,20.4,0,0,0,26.6,2.686a17.443,17.443,0,0,0-3.754-.409c-.444.013-.888,0-1.332.006a8.065,8.065,0,0,0-.987.057c-.651.094-1.3.228-1.945.326a16.818,16.818,0,0,0-3.5,1,17.865,17.865,0,0,0-2.918,1.439A20.517,20.517,0,0,0,9,7.427,23.149,23.149,0,0,0,7.231,9.22a23.117,23.117,0,0,0-2,2.719,17.611,17.611,0,0,0-1.157,2.175,15.984,15.984,0,0,0-.823,2.163,19.624,19.624,0,0,0-.673,2.758A13.368,13.368,0,0,0,2.3,20.887a27.224,27.224,0,0,0,.09,4.152A15.46,15.46,0,0,0,2.931,27.7c.166.5.3,1,.458,1.5a13.424,13.424,0,0,0,.809,2c.165.329.319.663.5.985.21.368.4.756.633,1.106a24.884,24.884,0,0,0,2.195,2.854,22.564,22.564,0,0,0,1.814,1.773,18.229,18.229,0,0,0,1.917,1.46,21.334,21.334,0,0,0,2.606,1.516,21.616,21.616,0,0,0,4.3,1.487c.5.12,1.014.157,1.522.231a12.291,12.291,0,0,0,2.082.212,20.355,20.355,0,0,0,2.6-.08,21.155,21.155,0,0,0,2.912-.466c.607-.181,1.225-.318,1.828-.519a11.935,11.935,0,0,1,1.526-.577,6.351,6.351,0,0,1-.653,1.109c-.064.119-.146.228-.22.342l-1.018,1.553" transform="translate(0 0)" fill="#bc9b39"/>
          <path id="Path_883447" data-name="Path 883447" d="M51.732,36.556a4.041,4.041,0,0,0-1.623.091,2.994,2.994,0,0,0-1.042.582,3.073,3.073,0,0,0-.871,1.02l-1.637,2.469q-1.171,1.787-2.343,3.573c-.508.772-1.025,1.537-1.534,2.309-.685,1.037-1.364,2.078-2.048,3.116a4.548,4.548,0,0,0-.436.69l-.09.1-.1.1a12.015,12.015,0,0,0-1.526.577c-.6.2-1.221.338-1.828.519a21.147,21.147,0,0,1-2.912.466,20.392,20.392,0,0,1-2.595.08,12.309,12.309,0,0,1-2.082-.212c-.508-.074-1.021-.111-1.522-.232a21.617,21.617,0,0,1-4.3-1.487A21.356,21.356,0,0,1,20.643,48.8a18.228,18.228,0,0,1-1.917-1.46,22.565,22.565,0,0,1-1.814-1.773,24.883,24.883,0,0,1-2.195-2.854c-.237-.35-.422-.739-.633-1.107-.184-.322-.338-.656-.5-.984a13.445,13.445,0,0,1-.809-2c-.157-.5-.292-1.006-.459-1.5a15.453,15.453,0,0,1-.543-2.657,27.249,27.249,0,0,1-.09-4.152,13.365,13.365,0,0,1,.283-1.853,19.545,19.545,0,0,1,.673-2.758,15.923,15.923,0,0,1,.823-2.163,17.57,17.57,0,0,1,1.157-2.175,20.484,20.484,0,0,1,3.764-4.511,20.509,20.509,0,0,1,3.169-2.32,17.849,17.849,0,0,1,2.918-1.439,16.826,16.826,0,0,1,3.5-1c.65-.1,1.295-.232,1.945-.326a8.109,8.109,0,0,1,.987-.057c.444-.009.888.007,1.332-.006a17.432,17.432,0,0,1,3.754.409,20.386,20.386,0,0,1,3.391,1.008,17.853,17.853,0,0,1,3.211,1.6,22.771,22.771,0,0,1,2.8,2.078,23.336,23.336,0,0,1,3.3,3.764,13.412,13.412,0,0,1,1.091,1.734,18.513,18.513,0,0,1,1.047,2.255c.317.852.587,1.717.817,2.6.191.73.266,1.477.4,2.214a19.557,19.557,0,0,1,.176,3.418,9.733,9.733,0,0,1-.141,1.38c-.076.545-.132,1.1-.2,1.644-.031.254-.094.5-.142.755M33.033,18.9h0c0-.145,0-.291,0-.436a1.071,1.071,0,0,0-.892-1.1,1.109,1.109,0,0,0-1.293.86,6.219,6.219,0,0,0-.039,1.229.218.218,0,0,1-.193.249,8.952,8.952,0,0,0-1.2.373,6.94,6.94,0,0,0-2.482,1.747A6.587,6.587,0,0,0,25.2,26.4a6.152,6.152,0,0,0,.6,2.73,7.394,7.394,0,0,0,.929,1.513A6.623,6.623,0,0,0,28.465,32.1a6.323,6.323,0,0,0,1.979.808c.357.07.36.058.36.414q0,2.712,0,5.425,0,1.481,0,2.963c0,.26-.053.3-.3.235-.271-.073-.545-.14-.807-.239A9.463,9.463,0,0,1,27,40.136a1.087,1.087,0,0,0-1.486.089,1.144,1.144,0,0,0,.033,1.552c.126.124.263.237.4.35a9.933,9.933,0,0,0,4.646,2.117c.183.03.217.107.221.268a7.626,7.626,0,0,0,.037,1.134,1.1,1.1,0,0,0,2.189-.16c0-.331.009-.662,0-.993-.006-.175.043-.263.229-.3a5.842,5.842,0,0,0,1.9-.674,6.8,6.8,0,0,0,2.845-3c.137-.285.215-.59.341-.878a5.212,5.212,0,0,0,.338-2.1,6.241,6.241,0,0,0-.462-2.351,6.489,6.489,0,0,0-4.563-4.072,3,3,0,0,1-.436-.138.217.217,0,0,1-.163-.22,5.212,5.212,0,0,1,.023-.523q-.01-3.887-.005-7.774a1.694,1.694,0,0,0-.008-.242c-.037-.254-.011-.272.237-.232a6.805,6.805,0,0,1,1.734.631,9.048,9.048,0,0,1,1.823,1.171,1.067,1.067,0,0,0,1.535-.138,1.079,1.079,0,0,0-.08-1.5,6.253,6.253,0,0,0-1.333-1.03,9.3,9.3,0,0,0-2.731-1.178,7.747,7.747,0,0,0-1.053-.252c-.123-.007-.17-.107-.17-.226,0-.186,0-.371,0-.557" transform="translate(-9.384 -9.421)" fill="#ffb937"/>
          <path id="Path_883448" data-name="Path 883448" d="M205.5,179.974a2.349,2.349,0,0,1,1.542.893,2.165,2.165,0,0,1,.407.858,4.958,4.958,0,0,1,.051.891q0,5.913,0,11.827c0,.1.01.208.015.313a5.178,5.178,0,0,0,0,.82,2.22,2.22,0,0,1-1.873,2.343,2.359,2.359,0,0,1-1.688-.324,2.241,2.241,0,0,1-.947-1.979c.013-2.477.006-4.953,0-7.43,0-1.9.025-3.791-.018-5.687,0-.08-.007-.161-.01-.241l.032-.329.11-.543a1.98,1.98,0,0,1,.285-.467,2.564,2.564,0,0,1,1.465-.931l.628-.014" transform="translate(-163.537 -145.003)" fill="#fefeff"/>
          <path id="Path_883449" data-name="Path 883449" d="M206.532,296.275a2.338,2.338,0,0,1,.879,1.207,2.164,2.164,0,0,1-1,2.569,2.234,2.234,0,0,1-2.762-.344l-.107-.095a2.179,2.179,0,0,1-.534-1.416,2.25,2.25,0,0,1,3.289-2.041c.074.047.156.081.235.12" transform="translate(-163.56 -238.381)" fill="#fefeff"/>
          <path id="Path_883450" data-name="Path 883450" d="M214.564,151.69c.013.006.033.009.037.018s-.009.025-.015.038c-.013-.006-.033-.009-.037-.018s.009-.025.015-.038" transform="translate(-172.859 -122.215)" fill="#c15d41"/>
          <path id="Path_883451" data-name="Path 883451" d="M135.814,173.522q-.888-1.418-1.828-2.8l-1.271-1.935c-.054,0-.081-.019-.093-.048.013.028.039.047.093.048a.271.271,0,0,0-.1-.152l-.04-.06c-.022-.043-.042-.087-.068-.127q-.935-1.434-1.872-2.866c-.446-.679-.9-1.352-1.349-2.028l-.5-.768a4.609,4.609,0,0,0-.481-.729,9.561,9.561,0,0,0-.675-1.031c-.34-.605-.753-1.163-1.127-1.746-.344-.535-.7-1.061-1.055-1.59a10.2,10.2,0,0,0-.776-1.159,12.417,12.417,0,0,0-.737-1.173c-.365-.572-.745-1.134-1.1-1.715-.265-.435-.565-.855-.856-1.277-.761-1.108-1.478-2.246-2.227-3.362-.521-.777-1.017-1.574-1.526-2.361-.581-.9-1.176-1.786-1.762-2.68-.472-.72-.945-1.44-1.407-2.166a13.158,13.158,0,0,1-.738-1.149.186.186,0,0,1-.146-.07,3.521,3.521,0,0,0-.62-.561,3.04,3.04,0,0,0-1.189-.53,4.044,4.044,0,0,0-1.622.091,3,3,0,0,0-1.042.582,3.074,3.074,0,0,0-.871,1.02l-1.637,2.469q-1.171,1.786-2.343,3.573c-.508.772-1.025,1.537-1.534,2.309-.685,1.037-1.364,2.078-2.048,3.116a4.535,4.535,0,0,0-.436.69l-.09.1-.1.1a6.349,6.349,0,0,1-.653,1.109c-.064.119-.146.228-.22.342.23,0,.46,0,.69,0-.23,0-.46,0-.69,0l-1.018,1.553-.157.106a2.5,2.5,0,0,1-.455.8c-.328.5-.647,1.01-.978,1.508-.5.758-1,1.523-1.5,2.281-.681,1.026-1.329,2.075-2.024,3.092-.441.645-.859,1.305-1.284,1.959-.351.539-.71,1.075-1.064,1.612-.5.752-.974,1.517-1.481,2.264-.544.8-1.081,1.608-1.59,2.433a9.586,9.586,0,0,0-1.057,1.767,3.6,3.6,0,0,0-.258,1.192,3.392,3.392,0,0,0,.214,1.012,3.335,3.335,0,0,0,2.316,2.194,1.642,1.642,0,0,0,.462.1q.629.015,1.258.015l22.525,0q9.591,0,19.183.007a4.574,4.574,0,0,0,1.775-.377.752.752,0,0,0,.4-.319c.057.019.109.023.145-.038a3.087,3.087,0,0,0,.826-.91.232.232,0,0,0,.091-.157,3.212,3.212,0,0,0-.283-3.549m-22.949.5a2.234,2.234,0,0,1-2.762-.344l-.108-.095a2.178,2.178,0,0,1-.534-1.416,2.25,2.25,0,0,1,3.288-2.041c.074.047.156.08.235.12a2.336,2.336,0,0,1,.879,1.207,2.163,2.163,0,0,1-1,2.569m-3.383-18.487c0-1.9.025-3.791-.018-5.687,0-.08-.007-.161-.01-.241q.016-.164.032-.329l.11-.543a1.988,1.988,0,0,1,.285-.467,2.563,2.563,0,0,1,1.465-.931l.628-.014a2.349,2.349,0,0,1,1.542.893,2.166,2.166,0,0,1,.407.858,4.955,4.955,0,0,1,.051.891q0,5.913,0,11.827c0,.1.01.208.015.312.057,0,.113,0,.169,0-.056,0-.112,0-.169,0a5.141,5.141,0,0,0,0,.821,2.22,2.22,0,0,1-1.873,2.343,2.357,2.357,0,0,1-1.687-.324,2.241,2.241,0,0,1-.947-1.979c.013-2.477.006-4.953,0-7.43m2.221-13.67c0-.009.009-.025.015-.038.013.006.033.009.037.018s-.01.025-.015.038c-.013-.006-.033-.009-.037-.018" transform="translate(-70.012 -112.349)" fill="#b14615"/>
          <path id="Path_883452" data-name="Path 883452" d="M89.231,42.4c0,.186,0,.371,0,.557,0,.119.047.219.17.226a7.769,7.769,0,0,1,1.053.252,9.3,9.3,0,0,1,2.731,1.178,6.264,6.264,0,0,1,1.333,1.03,1.08,1.08,0,0,1,.08,1.505,1.067,1.067,0,0,1-1.535.138,9.039,9.039,0,0,0-1.823-1.171,6.8,6.8,0,0,0-1.734-.631c-.248-.04-.274-.022-.237.232a1.7,1.7,0,0,1,.008.242q0,3.887.005,7.774a5.21,5.21,0,0,0-.023.523.218.218,0,0,0,.163.22,3.008,3.008,0,0,0,.436.138,6.489,6.489,0,0,1,4.563,4.072,6.24,6.24,0,0,1,.462,2.351,5.212,5.212,0,0,1-.338,2.1c-.125.287-.2.592-.341.878a6.8,6.8,0,0,1-2.845,3,5.846,5.846,0,0,1-1.9.674c-.185.032-.234.12-.229.3.011.331,0,.662,0,.993a1.1,1.1,0,0,1-2.189.16,7.626,7.626,0,0,1-.037-1.134c0-.161-.038-.238-.221-.268a9.937,9.937,0,0,1-4.645-2.117c-.136-.113-.274-.226-.4-.35a1.144,1.144,0,0,1-.032-1.552,1.087,1.087,0,0,1,1.486-.089,9.463,9.463,0,0,0,2.7,1.573c.262.1.536.166.807.239.251.068.3.025.3-.235q0-1.481,0-2.963,0-2.712,0-5.425c0-.357,0-.344-.36-.414a6.324,6.324,0,0,1-1.979-.808,6.631,6.631,0,0,1-1.731-1.456A7.4,7.4,0,0,1,82,52.633a6.152,6.152,0,0,1-.6-2.73,6.586,6.586,0,0,1,1.738-4.578,6.937,6.937,0,0,1,2.481-1.747,8.952,8.952,0,0,1,1.2-.373.218.218,0,0,0,.193-.249,6.217,6.217,0,0,1,.039-1.229,1.109,1.109,0,0,1,1.293-.86,1.071,1.071,0,0,1,.892,1.1c0,.145,0,.291,0,.436ZM87,49.841h0V47.686c0-.662,0-1.324,0-1.986,0-.185-.042-.248-.242-.166a7.514,7.514,0,0,0-.793.35,4.414,4.414,0,0,0-2.348,3.9,4.1,4.1,0,0,0,.408,1.82,4.926,4.926,0,0,0,2.123,2.284,3.3,3.3,0,0,0,.517.185c.309.12.335.106.335-.212v-4.02M89.278,64.8h-.044c0,.161-.009.323,0,.484s.078.23.239.138a11.458,11.458,0,0,0,1.289-.708,4.37,4.37,0,0,0,1.688-2.4,4.063,4.063,0,0,0,.126-1.995A4.832,4.832,0,0,0,91.361,58a4.679,4.679,0,0,0-1.772-1.141c-.277-.1-.312-.088-.312.2q0,3.871,0,7.742" transform="translate(-65.582 -32.92)" fill="#bc9b39"/>
          <path id="Path_883453" data-name="Path 883453" d="M96.2,69.077V73.1c0,.318-.026.332-.335.212a3.3,3.3,0,0,1-.517-.185,4.928,4.928,0,0,1-2.123-2.284,4.1,4.1,0,0,1-.408-1.82,4.415,4.415,0,0,1,2.348-3.9,7.521,7.521,0,0,1,.793-.349c.2-.082.243-.019.242.166,0,.662,0,1.324,0,1.986q0,1.078,0,2.156Z" transform="translate(-74.776 -52.155)" fill="#ffb937"/>
          <path id="Path_883454" data-name="Path 883454" d="M121.752,130.91q0-3.871,0-7.742c0-.289.034-.3.312-.2a4.679,4.679,0,0,1,1.772,1.141,4.832,4.832,0,0,1,1.217,2.322,4.064,4.064,0,0,1-.126,1.995,4.37,4.37,0,0,1-1.688,2.4,11.46,11.46,0,0,1-1.289.708c-.161.092-.228.009-.239-.138s0-.323,0-.484h.044" transform="translate(-98.057 -99.026)" fill="#ffb937"/>
        </g>
      </g>
    </g>
  </g>
</svg>
