<svg xmlns="http://www.w3.org/2000/svg" xmlns:xlink="http://www.w3.org/1999/xlink" width="70" height="70" viewBox="0 0 70 70">
  <defs>
    <clipPath id="clip-path">
      <rect id="Rectangle_401149" data-name="Rectangle 401149" width="46" height="48" transform="translate(275.75 971.833)" fill="#7a4f00" stroke="#707070" stroke-width="1"/>
    </clipPath>
    <clipPath id="clip-path-2">
      <rect id="Rectangle_402229" data-name="Rectangle 402229" width="42.592" height="43.433" fill="#6a4d23"/>
    </clipPath>
  </defs>
  <g id="Group_1101303" data-name="Group 1101303" transform="translate(-610 -1756)">
    <g id="Group_1100319" data-name="Group 1100319" transform="translate(0 -4745)">
      <g id="Group_1099487" data-name="Group 1099487" transform="translate(341 5543)">
        <circle id="Ellipse_5614" data-name="Ellipse 5614" cx="35" cy="35" r="35" transform="translate(269 958)" fill="#fff"/>
      </g>
      <g id="Mask_Group_1098693" data-name="Mask Group 1098693" transform="translate(346.25 5540.167)" clip-path="url(#clip-path)">
        <g id="Group_1100322" data-name="Group 1100322" transform="translate(277.824 974.118)">
          <g id="Group_1100321" data-name="Group 1100321" clip-path="url(#clip-path-2)">
            <path id="Path_879744" data-name="Path 879744" d="M1.168,51.546A8.466,8.466,0,0,1,6.95,47.128c-.232-.311-.458-.582-.648-.875a4.438,4.438,0,0,1-.655-3.623A3.974,3.974,0,0,1,7.336,40.3,6.039,6.039,0,0,1,11.2,39.291,7.476,7.476,0,0,1,14.833,40.5a6.094,6.094,0,0,1,2.26,2.451,4.273,4.273,0,0,1,.5,1.811.189.189,0,0,0,.16.208c.954.258,1.907.522,2.86.783q.764.209,1.529.416a2.992,2.992,0,0,1,.464.143l-4.007,1-.01.02c.121.01.243.028.364.029,2.028.026,4.056.043,6.084.084a.636.636,0,0,0,.629-.33c1.27-1.882,2.564-3.748,3.845-5.623a2.24,2.24,0,0,1,1.412-.994,2,2,0,0,1,1.781.472A2.054,2.054,0,0,1,33.1,43.7c-.536.826-1.105,1.63-1.662,2.443q-1.537,2.246-3.075,4.492a2.207,2.207,0,0,1-1.552,1.04,4.532,4.532,0,0,1-.682.042q-3.532-.049-7.064-.107a3.7,3.7,0,0,0-.482.019c2.021.621,4.064,1.165,6.1,1.745l-2.1,7.761c.23.029.439.049.645.084.868.145,1.741.263,2.6.452A2.316,2.316,0,0,1,27.4,62.988a3.523,3.523,0,0,1,.294,1.089c.155,1.014.331,2.024.49,3.038.137.87.26,1.742.394,2.612.127.824.265,1.646.39,2.469.141.922.292,1.842.405,2.768a2.469,2.469,0,0,1-1.277,2.5,2.523,2.523,0,0,1-3.483-1.038,3.682,3.682,0,0,1-.341-1.189c-.086-.574-.183-1.146-.27-1.719-.138-.907-.268-1.814-.409-2.72-.133-.854-.279-1.706-.415-2.56q-.142-.89-.271-1.781c-.015-.1-.076-.119-.159-.131-.625-.091-1.25-.187-1.876-.278-1.02-.147-2.041-.288-3.06-.437-.681-.1-1.361-.206-2.041-.311-.07-.011-.138-.03-.219-.049.065.285.12.558.19.826.243.937.492,1.872.737,2.809q.393,1.5.782,3c.238.922.486,1.841.7,2.768a2.509,2.509,0,0,1-2.313,3.114c-1.185.052-2.374.025-3.562.02q-3.4-.015-6.8-.047a5.766,5.766,0,0,1-.775-.049,2.508,2.508,0,0,1-2.127-2.8A2.461,2.461,0,0,1,3.97,72.848a2.539,2.539,0,0,1,1-.2l6.91.026h.32L9.792,63.357c-.286.1-.567.181-.841.284a5.854,5.854,0,0,1-1.555.284A6.09,6.09,0,0,1,4.9,63.6a6.587,6.587,0,0,1-2.983-2.027,7.639,7.639,0,0,1-1.451-2.6,8.611,8.611,0,0,1-.233-4.842c.062-.3.144-.59.219-.9.3.1.564.193.833.281a9.043,9.043,0,0,0,4.277.412,6.1,6.1,0,0,0,2.665-1.131,7.948,7.948,0,0,0,2.383-2.887,11.02,11.02,0,0,0,.848-2.131c.009-.033.09-.069.135-.066a4.3,4.3,0,0,0,1.731-.217,3.06,3.06,0,0,0,1.507-1.081,2.854,2.854,0,0,0,.408-2.727A3.855,3.855,0,0,0,13.9,41.876a3.988,3.988,0,0,0-1.348-.691,4.409,4.409,0,0,0-2.377-.091,3.264,3.264,0,0,0-1.917,1.234,2.8,2.8,0,0,0-.39,2.682A3.768,3.768,0,0,0,9.653,47.1c.113.065.134.119.085.242-.149.369-.271.75-.424,1.117A7.175,7.175,0,0,1,7.8,50.806,4.687,4.687,0,0,1,5.15,52.17a6.361,6.361,0,0,1-1.993-.04A9.338,9.338,0,0,1,1.247,51.6a.632.632,0,0,1-.079-.05" transform="translate(0.001 -34.375)" fill="#6a4d23"/>
            <path id="Path_879745" data-name="Path 879745" d="M150.7,9.406a4.721,4.721,0,0,1-4.651-4.75,4.688,4.688,0,0,1,9.377.04,4.72,4.72,0,0,1-4.726,4.71" transform="translate(-127.813 0)" fill="#6a4d23"/>
            <path id="Path_879746" data-name="Path 879746" d="M259.206,26.526c0,.3.007.6,0,.9a.818.818,0,0,1-.5.838,1.8,1.8,0,0,1-.593.09c-.643.011-1.286,0-1.929,0h-.243c.028-.047.046-.08.066-.111A13.4,13.4,0,0,0,257,26.657a4.267,4.267,0,0,0-3.248-5.984c-.322-.052-.326-.049-.327-.381a3.344,3.344,0,0,1,.026-.465.72.72,0,0,1,.525-.648,1.853,1.853,0,0,1,.5-.086c1.208-.007,2.417,0,3.625,0a1.744,1.744,0,0,1,.34.033.886.886,0,0,1,.764.979c.006.274,0,.549,0,.838.122.013.238.031.354.039.88.055,1.76.1,2.639.163a9.1,9.1,0,0,1,1.263.151,1.136,1.136,0,0,1,.909,1.131q.017,1.33,0,2.66a1.172,1.172,0,0,1-1,1.12c-.8.084-1.611.135-2.417.193-.558.04-1.118.069-1.676.1a.323.323,0,0,0-.068.023" transform="translate(-221.787 -16.705)" fill="#6a4d23"/>
            <path id="Path_879747" data-name="Path 879747" d="M78.527,70.353a2.736,2.736,0,0,1-2.166-1.092,1.3,1.3,0,0,1-.216-1.179,1.016,1.016,0,0,1,.438-.566,1.79,1.79,0,0,1,.829-.331,2.626,2.626,0,0,1,2.6,1.189,1.145,1.145,0,0,1-.426,1.7,1.9,1.9,0,0,1-1.057.276" transform="translate(-66.589 -58.785)" fill="#6a4d23"/>
          </g>
        </g>
      </g>
    </g>
  </g>
</svg>
