<svg xmlns="http://www.w3.org/2000/svg" xmlns:xlink="http://www.w3.org/1999/xlink" width="70" height="70" viewBox="0 0 70 70">
  <defs>
    <clipPath id="clip-path">
      <rect id="Rectangle_401141" data-name="Rectangle 401141" width="46" height="48" transform="translate(275.75 971.833)" fill="#7a4f00" stroke="#707070" stroke-width="1"/>
    </clipPath>
    <clipPath id="clip-path-2">
      <rect id="Rectangle_402230" data-name="Rectangle 402230" width="42.403" height="42.529" fill="#7a4f00"/>
    </clipPath>
  </defs>
  <g id="Group_1101304" data-name="Group 1101304" transform="translate(-920 -1756)">
    <g id="Group_1100317" data-name="Group 1100317" transform="translate(651 798)">
      <circle id="Ellipse_5614" data-name="Ellipse 5614" cx="35" cy="35" r="35" transform="translate(269 958)" fill="#fff"/>
      <g id="Mask_Group_1098690" data-name="Mask Group 1098690" transform="translate(5.25 -2.833)" clip-path="url(#clip-path)">
        <g id="Group_1100324" data-name="Group 1100324" transform="translate(277.347 974.833)">
          <g id="Group_1100323" data-name="Group 1100323" clip-path="url(#clip-path-2)">
            <path id="Path_879748" data-name="Path 879748" d="M24.206,39.236c.232-.032.451-.052.664-.095.243-.049.482-.12.724-.178.092-.022.145-.062.128-.166a.772.772,0,0,1,0-.122q0-8.236,0-16.471a1.328,1.328,0,0,1,.111-.5.684.684,0,0,1,.675-.432c1.008,0,2.016-.007,3.023,0a.806.806,0,0,1,.774.827c0,.063,0,.128,0,.191V37.06c.051-.029.089-.048.124-.07.444-.284.888-.567,1.329-.855a.21.21,0,0,0,.073-.119.653.653,0,0,0,0-.156V17.716c0-.064,0-.128,0-.192.015-.553.257-.791.808-.792.927,0,1.854.017,2.78-.007a.827.827,0,0,1,.943.941c-.012,2.341,0,4.683,0,7.024q0,3.207,0,6.414a.346.346,0,0,0,.034.165,17.632,17.632,0,0,0,3-10.145,18.037,18.037,0,0,0-6.008-13.42c-.009.086-.016.128-.016.17,0,.372.007.744-.01,1.115a1.614,1.614,0,0,1-.738,1.368,1.486,1.486,0,0,1-2.273-1.014,3.653,3.653,0,0,1-.037-.555q0-2.057,0-4.114a1.614,1.614,0,0,1,.3-1.032,1.475,1.475,0,0,1,1.206-.618c1.529,0,3.058-.007,4.587,0a1.532,1.532,0,0,1,1.461,1.428A1.539,1.539,0,0,1,36.4,6.043a2.989,2.989,0,0,0-.321.019l-.04.064a1.671,1.671,0,0,1,.188.142A20.966,20.966,0,0,1,40.5,12.423a19.607,19.607,0,0,1,1.169,3.251c.184.711.305,1.439.454,2.159a20.647,20.647,0,0,1,.255,4.7,17.11,17.11,0,0,1-.391,2.982,20.8,20.8,0,0,1-1.859,5.337,21.476,21.476,0,0,1-8.216,8.764,20.974,20.974,0,0,1-4.778,2.072c-.828.241-1.67.412-2.518.569a22.49,22.49,0,0,1-5.106.225,16.607,16.607,0,0,1-2.742-.414,21.925,21.925,0,0,1-2.677-.78,21.489,21.489,0,0,1-2.283-.964,20.111,20.111,0,0,1-4.259-2.8,21.315,21.315,0,0,1-5.223-6.58A20.849,20.849,0,0,1,.587,26.234,22.61,22.61,0,0,1,.1,23.479a25.353,25.353,0,0,1-.076-3.411,18.569,18.569,0,0,1,.436-3.239,20.277,20.277,0,0,1,1.519-4.541A21.374,21.374,0,0,1,7.4,5.133a21.091,21.091,0,0,1,4.06-2.754A22.2,22.2,0,0,1,15.515.758,21.4,21.4,0,0,1,17.784.27,18.881,18.881,0,0,1,21.223,0a1.506,1.506,0,0,1,1.447,1.851,1.607,1.607,0,0,1-1.528,1.173,15.993,15.993,0,0,0-2.338.141,19.435,19.435,0,0,0-3.16.71,18.021,18.021,0,0,0-4.515,2.185,18.358,18.358,0,0,0-6.814,8.376A18.656,18.656,0,0,0,3.189,18.7,20.379,20.379,0,0,0,3.023,22a14.854,14.854,0,0,0,.26,2.351c.026.153.047.307.074.49.054-.045.1-.076.136-.114.488-.48.973-.963,1.462-1.442a1.453,1.453,0,0,1,2.2.016q.93.928,1.853,1.863c.016.016.034.029.054.045l2.505-2.533-.267-.162a1.487,1.487,0,0,1,.657-2.746c.607-.029,1.216-.015,1.824-.017.446,0,.892,0,1.338,0a1.459,1.459,0,0,1,1.412.993,2.112,2.112,0,0,1,.148.759c.017.9.009,1.8.006,2.7a1.7,1.7,0,0,1-1.02,1.515,1.506,1.506,0,0,1-1.861-.744c-.079-.141-.114-.142-.227-.027C12.436,26.1,11.3,27.26,10.138,28.4A1.457,1.457,0,0,1,8,28.388c-.611-.6-1.209-1.2-1.806-1.811-.105-.107-.172-.116-.279-.006-.479.489-.963.972-1.448,1.455a.2.2,0,0,0-.047.259,18.264,18.264,0,0,0,9.026,9.479c.051.024.1.044.185.077v-.222q0-3.137,0-6.275a1.385,1.385,0,0,1,.009-.226.779.779,0,0,1,.886-.718c.921,0,1.842,0,2.763,0a1.175,1.175,0,0,1,.223.027.771.771,0,0,1,.667.8c0,.424,0,.848,0,1.272q0,3.294,0,6.589c0,.132.04.183.173.2.4.045.8.1,1.2.157a1.321,1.321,0,0,0,.144,0c0-.077,0-.15,0-.223q0-6.188,0-12.375c0-.081,0-.163.006-.244a.786.786,0,0,1,.806-.8q1.459-.018,2.919,0a.763.763,0,0,1,.786.828q0,6.109,0,12.218v.387" transform="translate(0 -0.001)" fill="#7a4f00"/>
            <path id="Path_879749" data-name="Path 879749" d="M105.322,47.8a7.6,7.6,0,1,1,7.577-7.41,7.63,7.63,0,0,1-7.577,7.41m3.031-10h.008a4.484,4.484,0,0,0-.065-.57,2.922,2.922,0,0,0-1.822-2.13.582.582,0,0,1-.424-.462.683.683,0,0,0-.721-.53.71.71,0,0,0-.725.534,1.95,1.95,0,0,1-.052.219.263.263,0,0,1-.124.135,3.027,3.027,0,0,0-2.018,3.77,2.971,2.971,0,0,0,2.831,2.192,2.541,2.541,0,0,1,.294.023,1.543,1.543,0,0,1,1.223,1.978,1.5,1.5,0,0,1-2.924-.414,1.548,1.548,0,0,0-.031-.259.753.753,0,0,0-.735-.573.683.683,0,0,0-.732.579,2.526,2.526,0,0,0,.15,1.282,3.122,3.122,0,0,0,1.954,1.828.225.225,0,0,1,.119.155.777.777,0,0,0,.78.736.761.761,0,0,0,.752-.74.176.176,0,0,1,.135-.17,4.55,4.55,0,0,0,.75-.353,2.942,2.942,0,0,0,1.313-3.219,2.855,2.855,0,0,0-1.677-2.109,3.529,3.529,0,0,0-1.348-.281,1.515,1.515,0,0,1-1.423-1.666,1.408,1.408,0,0,1,.874-1.211,1.423,1.423,0,0,1,1.482.149,1.483,1.483,0,0,1,.631,1.22.724.724,0,0,0,.819.742.673.673,0,0,0,.7-.768v-.087" transform="translate(-84.129 -28.047)" fill="#7a4f00"/>
          </g>
        </g>
      </g>
    </g>
  </g>
</svg>
