<svg xmlns="http://www.w3.org/2000/svg" xmlns:xlink="http://www.w3.org/1999/xlink" width="190" height="134" viewBox="0 0 190 134">
  <defs>
    <clipPath id="clip-path">
      <rect id="Rectangle_402355" data-name="Rectangle 402355" width="87" height="87" transform="translate(342 951)" fill="#fff" stroke="#707070" stroke-width="1"/>
    </clipPath>
    <clipPath id="clip-path-2">
      <rect id="Rectangle_402357" data-name="Rectangle 402357" width="82.615" height="82.649" fill="#7d3a1b"/>
    </clipPath>
  </defs>
  <g id="Group_1100679" data-name="Group 1100679" transform="translate(-330 -7019)">
    <rect id="Rectangle_402215" data-name="Rectangle 402215" width="190" height="134" transform="translate(330 7019)" fill="none"/>
    <g id="Group_1100287" data-name="Group 1100287" transform="translate(16 -507)">
      <g id="Grupo_156312" data-name="Grupo 156312" transform="translate(344 7528)">
        <path id="Elipse_5845" data-name="Elipse 5845" d="M65.5,0A65.5,65.5,0,1,1,0,65.5,65.5,65.5,0,0,1,65.5,0Z" transform="translate(0 0)" fill="#ffce73"/>
      </g>
      <g id="Group_1098715" data-name="Group 1098715" transform="translate(24 6599)" clip-path="url(#clip-path)">
        <g id="Group_1100692" data-name="Group 1100692" transform="translate(344 953)">
          <g id="Group_1100691" data-name="Group 1100691" clip-path="url(#clip-path-2)">
            <path id="Path_880282" data-name="Path 880282" d="M23.407,53.72H21.6q-5.667,0-11.335,0a6.426,6.426,0,0,1-3.361-.759,5.287,5.287,0,0,1-2.733-4.249c-.046-.47-.049-.945-.049-1.418q0-9.088,0-18.175a5.923,5.923,0,0,0-1.2-3.845,7.041,7.041,0,0,0-2.065-1.7,1.582,1.582,0,0,1-.84-1.647,1.569,1.569,0,0,1,1.352-1.267,4.715,4.715,0,0,1,.678-.038q4.884,0,9.767,0h.522c.011-.1.026-.179.026-.254q0-6.571-.006-13.143A6.981,6.981,0,0,1,14.9,1.6,6.278,6.278,0,0,1,18.481.127c.863-.074,1.732-.121,2.6-.122Q44.093-.005,67.106,0a6.954,6.954,0,0,1,7.215,7.151q0,22.5,0,44.993,0,9.576,0,19.152v.348h.443c1.658,0,3.315,0,4.973-.008a2.789,2.789,0,0,1,2.211,1.006,2.705,2.705,0,0,1,.641,1.683,9.719,9.719,0,0,1-.311,3.457,6.913,6.913,0,0,1-6.006,4.8c-.471.036-.945.056-1.418.056q-22.155,0-44.31,0A6.86,6.86,0,0,1,24.4,79.282a6.458,6.458,0,0,1-.992-3.509q0-10.8,0-21.608ZM24.644,2.753a1.392,1.392,0,0,0,.072.151,7.865,7.865,0,0,1,1.409,4.7q-.021,33.519-.009,67.038c0,.424.01.848,0,1.273a3.675,3.675,0,0,0,.634,2.063,4.1,4.1,0,0,0,7.477-1.258,23.6,23.6,0,0,0,.18-2.385,2.74,2.74,0,0,1,2.534-2.658c.355-.014.71-.029,1.064-.029q16.382,0,32.763,0c.207,0,.415-.011.621,0,.174.01.219-.062.217-.225-.007-.424,0-.848,0-1.272q0-31.566-.01-63.132a4.983,4.983,0,0,0-.261-1.561A3.974,3.974,0,0,0,67.7,2.771q-18.261,0-36.521,0c-2.062,0-4.124-.011-6.185-.017h-.347m-1.236,48.2v-.361q0-21.649,0-43.3a5.776,5.776,0,0,0-.122-1.142,4.086,4.086,0,0,0-4.805-3.341A4.007,4.007,0,0,0,15.128,6.7q-.019,20.509-.008,41.019a5.777,5.777,0,0,1-.478,2.506c-.107.227-.211.457-.335.727Zm56.42,23.434H37.12a7.675,7.675,0,0,1-1.458,5.491c.157.011.262.026.366.025,1.065-.007,2.131-.023,3.2-.023q18.334,0,36.667,0A3.912,3.912,0,0,0,79.346,77.8c.661-1.068.479-2.24.481-3.418M4.946,23.456c.073.11.116.184.168.252a8.393,8.393,0,0,1,1.719,5.207q.006,9.661,0,19.322a2.736,2.736,0,0,0,.026.471,2.869,2.869,0,0,0,2.807,2.283,2.9,2.9,0,0,0,2.657-2.4,9.709,9.709,0,0,0,.038-1.681q0-11.555,0-23.109c0-.113-.015-.225-.024-.345Z" transform="translate(0 0)" fill="#7d3a1b"/>
            <path id="Path_880283" data-name="Path 880283" d="M145.389,59.077a17.9,17.9,0,1,1,17.949-17.593,17.911,17.911,0,0,1-17.949,17.593m-3.973-3.344a.492.492,0,0,0,0-.113c-.29-.94-.579-1.881-.873-2.819a.761.761,0,0,0-.844-.628c-.375-.008-.751.007-1.124-.021a2.794,2.794,0,0,1-2.666-2.478c-.086-.75-.045-1.516-.061-2.274a3.381,3.381,0,0,1,1.984-3.292c.736-.378,1.48-.739,2.221-1.108a3.463,3.463,0,0,1,3.318.019c.62.323,1.249.628,1.874.943.879.443,1.768.868,2.634,1.337a3.422,3.422,0,0,1,1.652,3.544c-.142.663-.218,1.34-.334,2.009q-.424,2.444-.859,4.887c-.056.317-.044.351.258.272a21.055,21.055,0,0,0,2.1-.6,15.12,15.12,0,0,0,5.272-3.308A15.423,15.423,0,0,0,159.839,46a14.387,14.387,0,0,0,.7-3.883c.005-.089,0-.179,0-.344-.088.1-.117.137-.149.17a7.281,7.281,0,0,1-2.106,1.7,4.967,4.967,0,0,1-3.654.259c-2.287-.7-4.583-1.37-6.868-2.075a3.746,3.746,0,0,1-1.02-.518,3.132,3.132,0,0,1-.729-4.2,3.079,3.079,0,0,1,2.621-1.413c.651,0,1.3.01,1.953,0a.668.668,0,0,0,.725-.8.689.689,0,0,0-.762-.623q-2.323-.011-4.646-.006a2.99,2.99,0,0,1-1.813-.521,3.107,3.107,0,0,1-1.376-2.488,2.935,2.935,0,0,1,.394-1.466c.484-.98.98-1.955,1.462-2.935.122-.249.212-.513.332-.808a14.642,14.642,0,0,0-5.911,1.414,4.62,4.62,0,0,1,.952,2.783q.022,1.479-.007,2.959a3.779,3.779,0,0,1-.659,2.177,14.058,14.058,0,0,1-1.637,1.855,3.234,3.234,0,0,0-1.012,1.819c-.036.2-.087.4-.135.605a3.691,3.691,0,0,1-3.2,2.832c-.881.08-1.773.04-2.66.056-.074,0-.147.01-.221.016a14.916,14.916,0,0,0,11.006,13.165m6.953-24.179c0,.018,0,.035,0,.053a24.019,24.019,0,0,1,2.835.02,3.4,3.4,0,0,1-.58,6.752c-.65-.012-1.3,0-1.953,0a.443.443,0,0,0-.482.422c-.036.278.15.38.374.448l1.356.414c1.732.526,3.462,1.06,5.2,1.574a2.585,2.585,0,0,0,2.864-.7c.723-.781,1.5-1.509,2.25-2.269a.372.372,0,0,0,.072-.3c-.171-.636-.324-1.282-.552-1.9a15.106,15.106,0,0,0-4.813-6.718,13.54,13.54,0,0,0-4.12-2.331c-.875-.294-1.77-.529-2.658-.785-.136-.039-.265-.079-.361.122-.462.969-.947,1.927-1.418,2.892-.28.575-.575,1.145-.813,1.737-.171.426-.052.561.4.564.8.005,1.6,0,2.4,0M138.561,48.16h0c0,.335.007.671,0,1.006-.006.2.053.283.268.279.423-.006.849,0,1.271.027a3.379,3.379,0,0,1,2.96,2.36q.586,1.888,1.174,3.776c.233.745.284.778,1.073.738.01,0,.024,0,.029,0,.072-.069.194-.13.207-.209.257-1.564.5-3.13.75-4.694.163-1.021.337-2.04.5-3.061.07-.45-.02-.65-.354-.818q-2.137-1.076-4.276-2.147a.946.946,0,0,0-.881-.018c-.8.4-1.6.8-2.4,1.2a.536.536,0,0,0-.316.524c0,.345,0,.69,0,1.035m-8.205-8.4c.157.008.244.016.33.016.74,0,1.48-.011,2.219.005a.716.716,0,0,0,.733-.4,6.32,6.32,0,0,0,.425-1.216,4.614,4.614,0,0,1,1.317-2.461c.439-.411.847-.855,1.278-1.274a1.75,1.75,0,0,0,.522-1.335c0-.977.023-1.954-.013-2.93a2.983,2.983,0,0,0-.272-1.038c-.135-.313-.22-.311-.493-.11a14.922,14.922,0,0,0-2.557,2.409,15.09,15.09,0,0,0-3.2,6.48c-.136.6-.192,1.217-.288,1.85" transform="translate(-97.286 -17.756)" fill="#7d3a1b"/>
            <path id="Path_880284" data-name="Path 880284" d="M133.083,242.195c-.274-.512-.562-.961-.766-1.446a7.594,7.594,0,0,1-.526-4.562,6.368,6.368,0,0,1,.764-2.126,3.982,3.982,0,0,1,2.507-1.893,3.427,3.427,0,0,1,3.418,1.219,5.726,5.726,0,0,1,1.343,3.162,6.869,6.869,0,0,1-.323,3.293,6.964,6.964,0,0,1-1.288,2.208l-.2.248a5.8,5.8,0,0,0,5.171-.693,20.366,20.366,0,0,1,1.983-1.23,5.375,5.375,0,0,1,2.122-.683,4.158,4.158,0,0,1,2.475.658c.8.464,1.528,1.056,2.34,1.494a9.636,9.636,0,0,0,7.141.975c.344-.087.687-.177,1.033-.252a1.273,1.273,0,0,1,1.562.824,1.315,1.315,0,0,1-.829,1.725,20.111,20.111,0,0,1-2.638.621,10.657,10.657,0,0,1-4.057-.16,12.891,12.891,0,0,1-4.639-2.07c-.28-.2-.573-.385-.852-.588a2.124,2.124,0,0,0-2.492-.111c-.791.462-1.553.972-2.337,1.447a7.741,7.741,0,0,1-5.439.958,9.91,9.91,0,0,1-2.9-.967.49.49,0,0,0-.514.008,13.052,13.052,0,0,1-3.627,1.215,23.7,23.7,0,0,1-2.487.336,1.359,1.359,0,0,1-1.518-1.366,1.446,1.446,0,0,1,1.088-1.277c1.134-.2,2.272-.374,3.4-.594a7.855,7.855,0,0,0,1.086-.372m2.448-1.313c.146-.124.247-.2.336-.288a3.793,3.793,0,0,0,1.26-2.681,4.276,4.276,0,0,0-.446-2.46.98.98,0,0,0-1.835.016,3.351,3.351,0,0,0-.434,1.515,5.164,5.164,0,0,0,.584,3.14c.151.258.344.49.535.758" transform="translate(-97.237 -176.979)" fill="#7d3a1b"/>
            <path id="Path_880285" data-name="Path 880285" d="M150.614,211.564q-6.866,0-13.731,0c-.71,0-1.421.01-2.13-.022a1.406,1.406,0,0,1-1.327-1.278,1.357,1.357,0,0,1,1.117-1.452,2.762,2.762,0,0,1,.558-.049q15.506,0,31.013,0a1.608,1.608,0,0,1,1.374.547,1.212,1.212,0,0,1,.245,1.294,1.474,1.474,0,0,1-1.2.936,6.541,6.541,0,0,1-.916.026q-7.5,0-15,0" transform="translate(-101.747 -159.199)" fill="#7d3a1b"/>
            <path id="Path_880286" data-name="Path 880286" d="M150.522,188.307q-7.827,0-15.654,0a1.452,1.452,0,0,1-1.111-.457,1.287,1.287,0,0,1,.226-2.017,2.305,2.305,0,0,1,1.085-.306c1.844-.03,3.689-.014,5.533-.014q12.695,0,25.39.006a2.676,2.676,0,0,1,.837.141,1.369,1.369,0,0,1,.949,1.409,1.467,1.467,0,0,1-1.336,1.22c-.177.012-.355.008-.533.008H150.522Z" transform="translate(-101.709 -141.471)" fill="#7d3a1b"/>
          </g>
        </g>
      </g>
    </g>
  </g>
</svg>
