<svg xmlns="http://www.w3.org/2000/svg" xmlns:xlink="http://www.w3.org/1999/xlink" width="121" height="121" viewBox="0 0 121 121">
  <defs>
    <clipPath id="clip-path">
      <rect id="Rectangle_400938" data-name="Rectangle 400938" width="121" height="121" transform="translate(0 0)" fill="none"/>
    </clipPath>
    <clipPath id="clip-path-2">
      <rect id="Rectangle_401073" data-name="Rectangle 401073" width="92.219" height="41.532" fill="#efb499"/>
    </clipPath>
    <clipPath id="clip-path-3">
      <rect id="Rectangle_402980" data-name="Rectangle 402980" width="64.887" height="64.73" fill="none"/>
    </clipPath>
  </defs>
  <g id="Group_1101577" data-name="Group 1101577" transform="translate(-388 -3625.788)">
    <g id="Group_1099349" data-name="Group 1099349" transform="translate(0.332 -2387.212)">
      <rect id="Rectangle_401103" data-name="Rectangle 401103" width="121" height="121" transform="translate(387.668 6013)" fill="none"/>
      <g id="Group_1099348" data-name="Group 1099348" transform="translate(387.668 6013)">
        <g id="Group_1099282" data-name="Group 1099282">
          <g id="Group_1099281" data-name="Group 1099281" clip-path="url(#clip-path-2)">
            <path id="Path_873375" data-name="Path 873375" d="M74.8,9.1c-4.139,0-6.28-2.03-8.17-3.821-1.855-1.756-3.452-3.274-6.792-3.274s-4.937,1.517-6.792,3.274C51.161,7.072,49.023,9.1,44.881,9.1s-6.28-2.03-8.169-3.821C34.857,3.525,33.26,2.007,29.92,2.007s-4.937,1.517-6.789,3.274C21.241,7.072,19.1,9.1,14.962,9.1S8.679,7.072,6.789,5.281C4.937,3.525,3.34,2.007,0,2.007V0C4.139,0,6.28,2.033,8.17,3.821c1.855,1.759,3.452,3.274,6.792,3.274S19.9,5.58,21.75,3.824C23.637,2.033,25.781,0,29.92,0s6.283,2.033,8.17,3.821c1.855,1.759,3.452,3.274,6.792,3.274s4.937-1.514,6.792-3.274C53.56,2.033,55.7,0,59.843,0s6.283,2.033,8.17,3.821C69.867,5.58,71.464,7.094,74.8,7.094S79.742,5.58,81.6,3.821C83.483,2.033,85.624,0,89.766,0V2.007c-3.34,0-4.937,1.517-6.792,3.274C81.084,7.072,78.943,9.1,74.8,9.1" transform="translate(2.453 32.43)" fill="#efb499"/>
            <path id="Path_873376" data-name="Path 873376" d="M74.8,9.1c-4.139,0-6.283-2.03-8.17-3.824-1.855-1.756-3.452-3.27-6.792-3.27s-4.937,1.514-6.792,3.27C51.164,7.072,49.023,9.1,44.881,9.1s-6.283-2.03-8.17-3.824c-1.855-1.756-3.452-3.27-6.792-3.27s-4.937,1.517-6.789,3.27C21.241,7.072,19.1,9.1,14.962,9.1S8.679,7.072,6.789,5.278C4.937,3.522,3.34,2.007,0,2.007V0C4.139,0,6.283,2.03,8.17,3.821c1.855,1.759,3.452,3.274,6.792,3.274S19.9,5.58,21.75,3.821C23.637,2.03,25.781,0,29.92,0S36.2,2.03,38.093,3.821c1.852,1.759,3.449,3.274,6.789,3.274s4.937-1.514,6.792-3.274C53.56,2.03,55.7,0,59.843,0s6.283,2.03,8.17,3.821C69.867,5.58,71.464,7.094,74.8,7.094S79.742,5.58,81.6,3.821C83.486,2.03,85.627,0,89.769,0V2.007c-3.34,0-4.94,1.517-6.8,3.27C81.084,7.072,78.943,9.1,74.8,9.1" transform="translate(1.635 21.62)" fill="#efb499"/>
            <path id="Path_873377" data-name="Path 873377" d="M74.8,9.1c-4.139,0-6.283-2.03-8.169-3.824-1.855-1.756-3.452-3.27-6.792-3.27s-4.937,1.514-6.792,3.27C51.164,7.072,49.02,9.1,44.881,9.1s-6.283-2.03-8.17-3.824c-1.855-1.756-3.452-3.27-6.792-3.27s-4.937,1.517-6.789,3.27C21.241,7.072,19.1,9.1,14.962,9.1S8.678,7.072,6.789,5.278C4.937,3.522,3.34,2.007,0,2.007V0C4.139,0,6.283,2.03,8.169,3.821c1.851,1.759,3.452,3.274,6.792,3.274S19.9,5.58,21.75,3.821C23.637,2.03,25.781,0,29.92,0S36.2,2.03,38.093,3.821c1.852,1.759,3.449,3.274,6.789,3.274s4.937-1.514,6.792-3.274C53.56,2.03,55.7,0,59.843,0s6.283,2.03,8.17,3.821C69.867,5.58,71.464,7.094,74.8,7.094S79.742,5.58,81.6,3.821C83.486,2.03,85.624,0,89.769,0V2.007c-3.34,0-4.941,1.517-6.8,3.27C81.084,7.072,78.943,9.1,74.8,9.1" transform="translate(0.818 10.81)" fill="#efb499"/>
            <path id="Path_873378" data-name="Path 873378" d="M74.8,9.1c-4.139,0-6.28-2.03-8.17-3.821-1.855-1.756-3.452-3.27-6.792-3.27s-4.937,1.514-6.789,3.27C51.164,7.069,49.023,9.1,44.881,9.1s-6.28-2.03-8.169-3.821c-1.855-1.756-3.452-3.27-6.792-3.27s-4.937,1.514-6.789,3.267C21.245,7.069,19.1,9.1,14.962,9.1S8.678,7.069,6.789,5.278C4.937,3.522,3.34,2.007,0,2.007V0C4.139,0,6.283,2.03,8.17,3.821c1.855,1.756,3.452,3.27,6.792,3.27S19.9,5.577,21.75,3.821C23.64,2.03,25.781,0,29.92,0s6.28,2.03,8.173,3.821c1.852,1.756,3.449,3.27,6.789,3.27s4.937-1.514,6.792-3.27C53.563,2.03,55.7,0,59.843,0s6.28,2.03,8.17,3.821c1.855,1.756,3.452,3.27,6.792,3.27s4.937-1.514,6.792-3.27C83.486,2.03,85.627,0,89.769,0V2.007c-3.344,0-4.941,1.514-6.8,3.27C81.084,7.069,78.943,9.1,74.8,9.1" transform="translate(0 0.003)" fill="#efb499"/>
          </g>
        </g>
      </g>
      <circle id="Ellipse_11504" data-name="Ellipse 11504" cx="50.5" cy="50.5" r="50.5" transform="translate(402.668 6031)" fill="#ffce73"/>
      <circle id="Ellipse_11503" data-name="Ellipse 11503" cx="52.5" cy="52.5" r="52.5" transform="translate(395.668 6021)" fill="#f3f9ff"/>
    </g>
    <g id="Group_1099357" data-name="Group 1099357" transform="translate(414.941 3651.592)">
      <rect id="Rectangle_401104" data-name="Rectangle 401104" width="68" height="69" transform="translate(0.059 -0.804)" fill="none"/>
      <g id="Group_1101542" data-name="Group 1101542" transform="translate(1.504 0.678)">
        <g id="Group_1101541" data-name="Group 1101541" clip-path="url(#clip-path-3)">
          <path id="Path_883424" data-name="Path 883424" d="M54.83,179.538a.168.168,0,0,1,.192-.118c.091,0,.182,0,.273,0H99.677c.165,0,.33.014.495.021a2.541,2.541,0,0,0-.554.684,5.777,5.777,0,0,0-.7,2.6,3.48,3.48,0,0,1-.272,1.728c-.151.267-.2.574-.371.846a4.557,4.557,0,0,1-.931,1.032,3.252,3.252,0,0,1-1.311.712,4.734,4.734,0,0,1-1.913.041c-1.082-.158-2.163-.3-3.254-.388-.81-.064-1.6-.246-2.412-.323a5.094,5.094,0,0,0-1.527-.024,4.67,4.67,0,0,0-1.172.476,3.488,3.488,0,0,0-1.68,2.015,10.523,10.523,0,0,0-.523,2.808,5.443,5.443,0,0,0,.071,1.427,4.726,4.726,0,0,0,.528,1.3,5.535,5.535,0,0,0,2.55,2.109,4.015,4.015,0,0,1,1.986,2.41,5.465,5.465,0,0,1,.035,2.948,8.3,8.3,0,0,1-.436.858,2.687,2.687,0,0,1-1,1.24,14.63,14.63,0,0,0-1.844,1.488,10.822,10.822,0,0,0-1.727,2.1,2.107,2.107,0,0,1-.834.187c-.125,0-.174.1-.28.129-.492.127-1,.163-1.493.286a12.7,12.7,0,0,1-2.312.327,25.742,25.742,0,0,1-3.635.033c-.509-.041-1.02-.074-1.529-.1a18.13,18.13,0,0,1-2.173-.317,26.042,26.042,0,0,1-5.284-1.527q-1.11-.445-2.181-.986c-.624-.314-1.214-.687-1.835-1.005a1.934,1.934,0,0,1-.292-.226,5.117,5.117,0,0,1,.512.032c.733-.009,1.466.035,2.2-.034a18.7,18.7,0,0,0,3.794-.681c1.22-.377,2.447-.732,3.657-1.145a4.3,4.3,0,0,0,2.143-1.565,5.144,5.144,0,0,0,.96-3.5A4.839,4.839,0,0,0,73.3,193.84a3.754,3.754,0,0,0-2.968-.821,10.458,10.458,0,0,0-2.14.684,4.125,4.125,0,0,1-3.561-.139,4.652,4.652,0,0,1-2.127-2.529,7.644,7.644,0,0,1-.337-2.374c-.035-.688-.054-1.377-.108-2.065a6.749,6.749,0,0,0-.62-2.235c-.033-.075-.083-.143-.12-.216a6.3,6.3,0,0,0-1.376-1.667,5.013,5.013,0,0,0-1.2-.812c-.38-.2-.759-.4-1.144-.581-.709-.34-1.366-.778-2.086-1.093a3,3,0,0,1-.684-.455" transform="translate(-43.945 -143.801)" fill="#7bd0fd"/>
          <path id="Path_883425" data-name="Path 883425" d="M27.911,179.52a3,3,0,0,0,.684.455c.721.316,1.378.753,2.086,1.093.386.185.765.384,1.144.581a5.014,5.014,0,0,1,1.2.812,6.3,6.3,0,0,1,1.376,1.667c.037.074.086.141.12.216a6.749,6.749,0,0,1,.62,2.235c.054.687.073,1.377.108,2.065a7.644,7.644,0,0,0,.337,2.373,4.651,4.651,0,0,0,2.127,2.529,4.125,4.125,0,0,0,3.561.139,10.456,10.456,0,0,1,2.14-.684,3.754,3.754,0,0,1,2.968.821,4.839,4.839,0,0,1,1.826,3.589,5.144,5.144,0,0,1-.96,3.5,4.3,4.3,0,0,1-2.143,1.565c-1.209.413-2.436.768-3.657,1.145a18.7,18.7,0,0,1-3.794.681c-.735.069-1.467.025-2.2.034a5.109,5.109,0,0,0-.512-.032,4.924,4.924,0,0,1-1.133-.7,28.351,28.351,0,0,1-7.208-7.2c-.409-.59-.82-1.182-1.173-1.8-.411-.725-.818-1.452-1.174-2.21-.285-.607-.569-1.213-.818-1.835q-.467-1.168-.844-2.368c-.259-.825-.461-1.663-.658-2.5-.178-.753-.314-1.518-.427-2.283a20.292,20.292,0,0,1-.153-2.032c-.027-.58-.108-1.157-.107-1.739,0-.186.06-.229.242-.228,1.909.007,3.819,0,5.728,0a5.284,5.284,0,0,1,.7.119" transform="translate(-17.026 -143.784)" fill="#4e8b43"/>
          <path id="Path_883426" data-name="Path 883426" d="M199.581,207.479a10.821,10.821,0,0,1,1.727-2.1,14.647,14.647,0,0,1,1.844-1.488,2.688,2.688,0,0,0,1-1.24,8.354,8.354,0,0,0,.436-.858,5.463,5.463,0,0,0-.035-2.948,4.015,4.015,0,0,0-1.986-2.41,5.535,5.535,0,0,1-2.55-2.109,4.732,4.732,0,0,1-.528-1.3,5.451,5.451,0,0,1-.071-1.427,10.531,10.531,0,0,1,.523-2.808,3.489,3.489,0,0,1,1.68-2.015,4.661,4.661,0,0,1,1.172-.476,5.1,5.1,0,0,1,1.526.024c.807.077,1.6.259,2.412.323,1.09.086,2.172.231,3.254.388A4.73,4.73,0,0,0,211.9,187a3.252,3.252,0,0,0,1.311-.712,4.565,4.565,0,0,0,.931-1.032c.168-.272.22-.579.371-.846a3.477,3.477,0,0,0,.272-1.728,5.776,5.776,0,0,1,.7-2.6,2.537,2.537,0,0,1,.554-.684,3.7,3.7,0,0,1,.666-.021q1.757,0,3.514,0c.087,0,.2-.058.258.074a.325.325,0,0,0,.007.265,1.26,1.26,0,0,1-.016.458l-.013.134c-.075.674-.1,1.352-.139,2.028a24.459,24.459,0,0,1-.569,3.592c-.17.784-.392,1.559-.63,2.33a28.778,28.778,0,0,1-1.857,4.59,27.608,27.608,0,0,1-2.97,4.674,33,33,0,0,1-2.424,2.848c-.494.5-1.044.924-1.574,1.377a28.7,28.7,0,0,1-5.849,3.88,28.993,28.993,0,0,1-4.13,1.654,2.1,2.1,0,0,1-.737.191" transform="translate(-159.819 -143.761)" fill="#4e8b43"/>
          <path id="Path_883427" data-name="Path 883427" d="M210.211,81.141a10.349,10.349,0,0,1,.594-1.219c.636-1.293,1.285-2.579,1.93-3.867q1.093-2.183,2.19-4.365a3.413,3.413,0,0,1,.289-.556,1.081,1.081,0,0,1,1.8.1c.359.687.689,1.388,1.039,2.08.33.652.677,1.3,1,1.95.337.676.639,1.369.992,2.036.317.6.616,1.2.923,1.806.471.923.929,1.852,1.394,2.778q1.014,2.022,2.029,4.043c.267.533.524,1.071.8,1.6.575,1.1,1.073,2.242,1.717,3.319-.085.077-.188.045-.279.045q-5.159,0-10.318,0l-1.388,0a.546.546,0,0,0-.086-.328q-.28-.549-.553-1.1c-.37-.751-.733-1.506-1.109-2.254-.5-1-1.015-1.991-1.519-2.987-.4-.8-.8-1.6-1.206-2.4a1.413,1.413,0,0,1-.245-.685" transform="translate(-168.48 -56.663)" fill="#4e8b43"/>
          <path id="Path_883428" data-name="Path 883428" d="M159.662,98.517a1.413,1.413,0,0,0,.245.685c.405.8.8,1.6,1.206,2.4.5,1,1.018,1.989,1.519,2.987.376.748.738,1.5,1.109,2.254q.272.553.553,1.1a.546.546,0,0,1,.086.328c-.346.015-.693.041-1.039.042-2.786,0-5.573.046-8.358-.007-2.536-.048-5.072,0-7.607-.038-.078,0-.183.041-.225-.051s.079-.107.114-.166c.174-.3.314-.616.47-.924.8-1.579,1.58-3.171,2.374-4.754.779-1.553,1.571-3.1,2.353-4.652.281-.559.572-1.114.839-1.679q.58-1.224,1.2-2.428a6.487,6.487,0,0,1,.376-.764,1.032,1.032,0,0,1,1.06-.463,1,1,0,0,1,.82.585c.323.659.656,1.313.984,1.97.568,1.137,1.133,2.275,1.705,3.409.039.077.051.235.217.163" transform="translate(-117.931 -74.039)" fill="#6bbe59"/>
          <path id="Path_883429" data-name="Path 883429" d="M262.029,13.737a3.007,3.007,0,0,1-2.115-.625,3.512,3.512,0,0,1-1.492-2.138c-.051-.208-.159-.166-.291-.082a4.634,4.634,0,0,1-1.546.682,6.466,6.466,0,0,1-1.763.061,5.118,5.118,0,0,1-2.087-.82A4.137,4.137,0,0,1,251.225,9.1a4.553,4.553,0,0,1-.533-2.672,3.1,3.1,0,0,1,.253-1.319,7.694,7.694,0,0,1,.788-1.376,4.522,4.522,0,0,1,2.394-1.5A5.391,5.391,0,0,1,255.235,2a3.269,3.269,0,0,1,1.157.111,7.14,7.14,0,0,1,1.2.374c.16.086.229-.068.264-.178a3.121,3.121,0,0,1,.745-1.142A3.289,3.289,0,0,1,260.559.07a3.914,3.914,0,0,1,2.214.209,3.766,3.766,0,0,1,2.272,3.979,3.9,3.9,0,0,1-1.089,2.169c-.216.223-.212.21.046.378a3.613,3.613,0,0,1,1.781,2.838,3.7,3.7,0,0,1-.763,2.674,3.833,3.833,0,0,1-2.27,1.411,3.279,3.279,0,0,1-.72.008" transform="translate(-200.912 0)" fill="#d2e1f1"/>
          <path id="Path_883430" data-name="Path 883430" d="M83.587,20.116A4.156,4.156,0,0,1,79.334,23.8c-.825.012-1.65,0-2.476-.008a.991.991,0,0,0-.387.056c-.075-.089-.029-.192-.036-.289.061-.061.042-.139.042-.21q0-1.282,0-2.564a.371.371,0,0,1,.182-.159c.735-.374,1.465-.756,2.2-1.121.184-.091.223-.175.124-.359-.268-.5-.521-1.009-.777-1.517-.077-.153-.171-.107-.284-.046-.392.211-.786.421-1.184.621-.247.124-.3.087-.3-.187a2.732,2.732,0,0,0,0-1.038q0-.074,0-.148c0-.005.015-.011.014-.015a.19.19,0,0,0-.013-.037c0-.049,0-.1,0-.147a.275.275,0,0,0,0-.3c-.029-.13-.135-.1-.22-.1-.5,0-.992,0-1.488,0-.477,0-.5.021-.422.505A8.456,8.456,0,0,1,74.335,18c0,.2-.164.306-.3.218-.389-.247-.812-.434-1.215-.656-.1-.057-.193-.061-.252.052-.278.534-.555,1.068-.826,1.605a.155.155,0,0,0,.075.242c.749.381,1.49.777,2.239,1.156a.455.455,0,0,1,.286.444q0,1.249-.006,2.5a.056.056,0,0,0,0,.1c0,.066.027.14-.044.191A2.458,2.458,0,0,0,73.5,23.8c-.81-.009-1.621.016-2.43,0a4.1,4.1,0,0,1-1.94-.6,4.909,4.909,0,0,1-1.016-.871,3.944,3.944,0,0,1-.949-2.156,3.133,3.133,0,0,1,.086-1.4,4.164,4.164,0,0,1,1.337-2.173,4.09,4.09,0,0,1,1.776-.871c.109-.024.211-.023.211-.179a4.92,4.92,0,0,1,.371-1.7,4.481,4.481,0,0,1,1.638-2.115,4.744,4.744,0,0,1,3.149-.845,4.6,4.6,0,0,1,2.752,1.129A4.811,4.811,0,0,1,80.1,14.9a1.877,1.877,0,0,1,.086.5c-.025.268.12.322.33.378a3.962,3.962,0,0,1,2.623,2.095,3.721,3.721,0,0,1,.454,2.182c0,.019,0,.039-.006.059" transform="translate(-53.799 -8.722)" fill="#6bbe59"/>
          <path id="Path_883431" data-name="Path 883431" d="M30.768,107.893a5.458,5.458,0,0,1-1.064,1.162.536.536,0,0,1-.1.073c-.469.183-.516.545-.5.995.038.848.014,1.7.024,2.547,0,.185-.043.256-.252.251-.545-.014-1.091,0-1.637.015-.219.007-.285-.065-.275-.284.046-1.013.051-2.027,0-3.041a.225.225,0,0,0-.113-.212,5.439,5.439,0,0,1-2.181-3.078,8.752,8.752,0,0,1-.228-4.248,6.821,6.821,0,0,1,1.211-2.88,3.167,3.167,0,0,1,2.027-1.307,2.536,2.536,0,0,1,2.024.581,3.5,3.5,0,0,1,.91,1.024c.033.056.07.115.151.109a.27.27,0,0,0,.059.182,6.625,6.625,0,0,1,.933,2.854,8.8,8.8,0,0,1-.53,4.258c-.152.334-.309.666-.464,1" transform="translate(-19.468 -78.424)" fill="#6a4d23"/>
          <path id="Path_883432" data-name="Path 883432" d="M94.95,39.608c0,.274.056.311.3.187.4-.2.792-.41,1.184-.621.114-.061.207-.107.284.046.256.507.509,1.016.777,1.517.1.184.06.268-.124.359-.739.365-1.47.747-2.2,1.121a.371.371,0,0,0-.182.159c-.055.052-.044.12-.044.185q0,1.294,0,2.589c.007.1-.039.2.036.289a.829.829,0,0,0-.035.239q0,8.949,0,17.9c0,.346.006.692.007,1.038,0,.091.01.188-.131.187l-1.908-.007c-.022,0-.044-.02-.066-.031v0a10.637,10.637,0,0,1-.019-1.185q0-8.713,0-17.427a3.7,3.7,0,0,0-.034-.714c.071-.051.04-.125.044-.191,0-.033,0-.065,0-.1q0-1.249.006-2.5a.455.455,0,0,0-.286-.444c-.75-.379-1.49-.775-2.239-1.156a.155.155,0,0,1-.074-.242c.271-.537.548-1.071.826-1.605.059-.113.148-.109.252-.052.4.222.826.408,1.215.656.138.088.3-.018.3-.218a8.454,8.454,0,0,0-.025-1.258c-.074-.484-.055-.506.422-.505.5,0,.992,0,1.488,0,.085,0,.191-.032.22.1q0,.148,0,.3l0,.147c0,.017,0,.035,0,.052,0,.049,0,.1,0,.148q0,.519,0,1.037" transform="translate(-72.311 -30.316)" fill="#6a4d23"/>
          <path id="Path_883433" data-name="Path 883433" d="M56.925,107.923c.155-.333.312-.665.464-1a8.8,8.8,0,0,0,.53-4.258,6.625,6.625,0,0,0-.933-2.854.27.27,0,0,1-.059-.182c.059-.2.232-.307.349-.46A3.051,3.051,0,0,1,59.1,97.937a2.435,2.435,0,0,1,1.122.03,3.519,3.519,0,0,1,2.112,1.751,8.393,8.393,0,0,1,.556,1.214,7.556,7.556,0,0,1,.489,3.161,7.347,7.347,0,0,1-1.28,4.149,3.72,3.72,0,0,1-.682.8c-.22.171-.485.3-.713.474a3.953,3.953,0,0,1-1.377.157,5.228,5.228,0,0,0-.791-.155,10.159,10.159,0,0,1-.924-.725,6.858,6.858,0,0,1-.689-.869" transform="translate(-45.624 -78.454)" fill="#f1c743"/>
          <path id="Path_883434" data-name="Path 883434" d="M0,4.308a2.86,2.86,0,0,1,1.71-2.794,2.327,2.327,0,0,1,1.718-.131A.836.836,0,0,0,4.515,1.07a2.809,2.809,0,0,1,2.09-1,3.417,3.417,0,0,1,3.72,2.838,3.083,3.083,0,0,1-.23,1.826A3.513,3.513,0,0,1,7.3,6.861a3.137,3.137,0,0,1-2.165-.536.38.38,0,0,0-.515.038,2.685,2.685,0,0,1-2.083.619A2.937,2.937,0,0,1,.305,5.457,2.148,2.148,0,0,1,0,4.308" transform="translate(0 -0.04)" fill="#d2e1f1"/>
          <path id="Path_883435" data-name="Path 883435" d="M125.033,110.351q0-3.14,0-6.281a5.425,5.425,0,0,0-.056-.682c-.02-.16.035-.248.214-.247q.917.005,1.835,0c.19,0,.13.132.132.224.036,1.128.012,2.257.009,3.386,0,.082-.058.208.045.242.086.028.149-.085.213-.147.714-.71,1.429-1.418,2.136-2.134.105-.106.158-.12.27-.006.4.413.817.817,1.234,1.216.121.116.071.2-.016.289q-.311.319-.627.633c-.994.99-1.979,1.99-2.99,2.963a.825.825,0,0,0-.272.68c.014,2.143.009,4.286.016,6.429,0,.174-.036.259-.231.245a15.463,15.463,0,0,1-1.553-.042c-.112-.019-.24.118-.324,0s-.037-.272-.037-.411q0-3.178,0-6.355Z" transform="translate(-100.166 -82.664)" fill="#6a4d23"/>
          <path id="Path_883436" data-name="Path 883436" d="M65.026,156.467a5.256,5.256,0,0,1,.791.155,3.953,3.953,0,0,0,1.377-.157c0,1.054-.012,2.107,0,3.161,0,.227-.069.277-.278.273q-.829-.019-1.659,0c-.2,0-.238-.071-.237-.244.006-1.062,0-2.124.006-3.186" transform="translate(-52.112 -125.403)" fill="#895941"/>
          <path id="Path_883437" data-name="Path 883437" d="M305.49,180.073a.325.325,0,0,1-.007-.265.42.42,0,0,1,.007.265" transform="translate(-244.818 -144.113)" fill="#6bbe59"/>
          <path id="Path_883438" data-name="Path 883438" d="M305.471,183.585l.013-.134a.115.115,0,0,1-.013.134" transform="translate(-244.829 -147.032)" fill="#6bbe59"/>
          <path id="Path_883439" data-name="Path 883439" d="M150.052,57.157c0-.02,0-.04.006-.059a.257.257,0,0,1,.01.043s-.01.011-.016.016" transform="translate(-120.264 -45.763)" fill="#7bd0fd"/>
          <path id="Path_883440" data-name="Path 883440" d="M103.439,173.525v0l-.012,0Z" transform="translate(-82.895 -139.075)" fill="#f1c743"/>
          <path id="Path_883441" data-name="Path 883441" d="M114,63.524q0-1.295,0-2.589c0-.065-.011-.133.044-.185q0,1.282,0,2.564c0,.072.019.15-.042.21" transform="translate(-91.367 -48.69)" fill="#4e8b43"/>
          <path id="Path_883442" data-name="Path 883442" d="M114.034,42.614q0-.518,0-1.037a2.722,2.722,0,0,1,0,1.037" transform="translate(-91.395 -33.323)" fill="#4e8b43"/>
          <path id="Path_883443" data-name="Path 883443" d="M114.056,38.634v-.3a.276.276,0,0,1,0,.3" transform="translate(-91.413 -30.727)" fill="#4e8b43"/>
          <path id="Path_883444" data-name="Path 883444" d="M103.324,74.73c0,.033,0,.065,0,.1a.056.056,0,0,1,0-.1" transform="translate(-82.789 -59.895)" fill="#4e8b43"/>
          <path id="Path_883445" data-name="Path 883445" d="M114.041,40.623c0-.017,0-.035,0-.052a.192.192,0,0,1,.013.037s-.009.01-.014.015" transform="translate(-91.402 -32.517)" fill="#4e8b43"/>
        </g>
      </g>
    </g>
  </g>
</svg>
