<svg xmlns="http://www.w3.org/2000/svg" xmlns:xlink="http://www.w3.org/1999/xlink" width="107" height="107" viewBox="0 0 107 107">
  <defs>
    <clipPath id="clip-path">
      <rect id="Rectangle_402429" data-name="Rectangle 402429" width="63" height="54.25" fill="#6a4d23"/>
    </clipPath>
  </defs>
  <g id="Group_1101581" data-name="Group 1101581" transform="translate(-285 -3044.354)">
    <g id="Grupo_156312" data-name="Grupo 156312" transform="translate(-3.668 -1404.082)">
      <path id="Elipse_5845" data-name="Elipse 5845" d="M53.5,0A53.5,53.5,0,1,1,0,53.5,53.5,53.5,0,0,1,53.5,0Z" transform="translate(288.668 4448.437)" fill="#ffce73"/>
    </g>
    <g id="Group_1098919" data-name="Group 1098919" transform="translate(-101.527 -2973.858)">
      <path id="Path_873216" data-name="Path 873216" d="M0,0H63.184V63.186H0Z" transform="translate(408.527 6040.213)" fill="none"/>
      <g id="Group_1100846" data-name="Group 1100846" transform="translate(408.527 6046.024)">
        <g id="Group_1100845" data-name="Group 1100845" clip-path="url(#clip-path)">
          <path id="Path_880548" data-name="Path 880548" d="M43.027,21.322c.138-.225.244-.411.363-.588a.912.912,0,0,1,1.338-.33c.171.094.349.178.513.282.147.094.223.089.3-.089.485-1.091.984-2.175,1.475-3.263q1.451-3.212,2.9-6.426c.67-1.485,1.36-2.961,2.007-4.456a5.248,5.248,0,0,1,3.547-3.075,6.033,6.033,0,0,1,7.52,5.45,5.008,5.008,0,0,1-1.04,3.286Q60.009,14.8,58.078,17.5l-5.312,7.376A1.336,1.336,0,0,0,52.7,25c.245.145.488.276.717.427a.961.961,0,0,1,.3,1.423c-.52.871-1.016,1.756-1.529,2.631-.087.149,0,.2.1.257q.893.5,1.784,1.012a4.135,4.135,0,0,1,2.039,2.61,3.8,3.8,0,0,1-.4,2.9c-.5.9-1.018,1.79-1.538,2.678a.992.992,0,0,1-1.49.411q-2.9-1.678-5.794-3.352-1.805-1.043-3.613-2.082c-.089-.051-.181-.1-.3-.157v.886q0,6.624,0,13.247c0,.233,0,.466,0,.7a.972.972,0,0,1-.958,1.065c-.585.035-1.173.032-1.759.032-.955,0-1.911,0-2.866-.022a.456.456,0,0,0-.432.258A9.086,9.086,0,0,1,32.291,53.7a8.649,8.649,0,0,1-3,.551q-11.714,0-23.428,0A5.97,5.97,0,0,1,.179,49.775a5.9,5.9,0,0,1,2.849-6.581,4.952,4.952,0,0,1,1.816-.642c.357-.045.356-.058.356-.418q0-13.541-.006-27.083a1.419,1.419,0,0,1,.453-1.1c.88-.854,1.738-1.73,2.612-2.59a.655.655,0,0,0,.213-.513q-.01-4.83,0-9.659a1.684,1.684,0,0,1,.04-.379.936.936,0,0,1,.97-.8c.338-.012.677,0,1.016,0Q26.146,0,41.8,0a1.006,1.006,0,0,1,1.043.515,1.6,1.6,0,0,1,.137.647c.01,1.843.006,3.686.007,5.529q0,6.578,0,13.157c0,.406.01.812.018,1.218,0,.071.011.141.021.255M7.139,15.842v.845q0,9.974,0,19.948,0,2.787-.017,5.574c0,.215.1.223.259.223q10.234,0,20.469,0c.5,0,.993-.011,1.489,0a.994.994,0,0,1,.923.706.915.915,0,0,1-.433,1.063,2.152,2.152,0,0,1-.492.217,4.124,4.124,0,0,0-1.163,7.278,2.533,2.533,0,0,0,2.065.55,7.425,7.425,0,0,0,3.452-1.5,7.053,7.053,0,0,0,2.76-5.7c.011-4.874,0-9.748.011-14.622a.639.639,0,0,0-.385-.684c-.974-.518-1.91-1.108-2.877-1.641a1.092,1.092,0,0,1-.479-1.761c.44-.717.847-1.454,1.264-2.185a4.136,4.136,0,0,1,1.242-1.468c.383-.255.8-.461,1.213-.7V6.555H16.413v.276q0,3.938,0,7.876a1.073,1.073,0,0,1-1.148,1.135H7.139ZM25.95,44.392h-.72q-6.837,0-13.673-.009c-1.985,0-3.971,0-5.956.035a3.293,3.293,0,0,0-1.182.243,3.97,3.97,0,0,0-1.826,5.871,3.662,3.662,0,0,0,2.713,1.712,18.365,18.365,0,0,0,2.005.042q8.879,0,17.757,0h.872a6.154,6.154,0,0,1,.009-7.9M41.019,1.956H10.467V9.124a.42.42,0,0,0,.068-.042c1.334-1.336,2.675-2.665,4-4.016a1.6,1.6,0,0,1,1.225-.5q10.664.007,21.328,0a2.817,2.817,0,0,1,.315.014,1.072,1.072,0,0,1,1.043,1.175q0,7.853,0,15.707V21.9c.463.208.9.384,1.317.6s.829.47,1.26.718ZM56.986,5.13a3.356,3.356,0,0,0-3.269,2.034c-.276.681-.6,1.341-.907,2.011q-1.486,3.295-2.97,6.591c-.865,1.924-1.725,3.85-2.6,5.77-.1.211-.04.3.14.4,1.077.613,2.15,1.234,3.224,1.854.405.234.4.235.671-.138q2.061-2.865,4.123-5.729c1.663-2.313,3.315-4.634,4.992-6.937a3.332,3.332,0,0,0,.548-2.741A4,4,0,0,0,56.986,5.13M52.921,37.248c.373-.653.758-1.288,1.106-1.943a2.039,2.039,0,0,0-.8-2.808q-2.783-1.624-5.576-3.229Q45.43,27.983,43.2,26.7c-1.483-.857-2.954-1.733-4.451-2.564a2.44,2.44,0,0,0-1.152-.325,1.991,1.991,0,0,0-1.774,1.02c-.3.505-.6,1.009-.878,1.522-.214.388-.206.4.186.624q5.532,3.194,11.066,6.385l6.722,3.882M37.986,47.674c.125.014.212.032.3.032.827,0,1.655-.009,2.482,0,.208,0,.26-.059.26-.267q-.01-6.848,0-13.7c0-.323.023-.646.019-.969a.294.294,0,0,0-.107-.218c-.6-.358-1.2-.707-1.811-1.053-.218-.125-.443-.238-.682-.366v.574q0,6.126,0,12.252a10.866,10.866,0,0,1-.459,3.711m6.627-25.119a.7.7,0,0,0-.059.07c-.368.62-.739,1.239-1.1,1.865-.022.038.037.164.09.195,1.092.634,2.189,1.258,3.283,1.887,1.19.685,2.378,1.373,3.6,2.079l1.2-2.042-7.016-4.052M14.453,7.972,8.62,13.835h5.833Z" transform="translate(0 0)" fill="#6a4d23"/>
          <path id="Path_880549" data-name="Path 880549" d="M94.918,128.868q3.148,0,6.3,0a2.5,2.5,0,0,1,.559.048,1.053,1.053,0,0,1,.774,1.016.977.977,0,0,1-.907.88c-.269.023-.541.028-.811.028q-6.048,0-12.1,0a3.826,3.826,0,0,1-.517-.03.952.952,0,0,1-.845-.978,1.02,1.02,0,0,1,.914-.957c.179-.014.361,0,.541,0h6.093Z" transform="translate(-71.554 -105.541)" fill="#6a4d23"/>
          <path id="Path_880550" data-name="Path 880550" d="M94.882,104.67q-3.216,0-6.432,0a1.01,1.01,0,0,1-1.139-.829.959.959,0,0,1,.717-1.071,2.946,2.946,0,0,1,.516-.041q6.41,0,12.819-.007a.981.981,0,0,1,.981.5.965.965,0,0,1-.826,1.438c-2.151.012-4.3,0-6.455.005h-.18Z" transform="translate(-71.494 -84.127)" fill="#6a4d23"/>
          <path id="Path_880551" data-name="Path 880551" d="M92.475,155.26q1.984,0,3.969,0a2.555,2.555,0,0,1,.492.04.876.876,0,0,1,.762.947.929.929,0,0,1-.841.965,1.628,1.628,0,0,1-.381.033q-3.924,0-7.847,0a2.173,2.173,0,0,1-.7-.115.994.994,0,0,1-.653-1.022.913.913,0,0,1,.963-.832c1.413-.012,2.826,0,4.239,0v-.008" transform="translate(-71.468 -127.155)" fill="#6a4d23"/>
          <path id="Path_880552" data-name="Path 880552" d="M92.5,183.479H88.485a1.036,1.036,0,0,1-1.111-.665.932.932,0,0,1,.684-1.244,2.111,2.111,0,0,1,.38-.035q4.138,0,8.276,0a.851.851,0,0,1,.961.611.967.967,0,0,1-.846,1.328c-.345.017-.691,0-1.037,0H92.5v.006" transform="translate(-71.506 -148.671)" fill="#6a4d23"/>
          <path id="Path_880553" data-name="Path 880553" d="M54.069,111.845c.548-.642,1.084-1.27,1.622-1.9.137-.16.272-.321.421-.47a.952.952,0,0,1,1.417,1.265q-1.266,1.512-2.557,3a.933.933,0,0,1-.768.408.949.949,0,0,1-.481-.146c-.505-.377-1-.77-1.479-1.179a.983.983,0,0,1-.157-1.3.947.947,0,0,1,1.411-.146c.188.149.373.3.571.462" transform="translate(-42.511 -89.42)" fill="#6a4d23"/>
          <path id="Path_880554" data-name="Path 880554" d="M54.045,162.768c.167-.2.326-.384.486-.571q.734-.856,1.468-1.711a.988.988,0,0,1,1.166-.257.932.932,0,0,1,.514,1.111.8.8,0,0,1-.161.315c-.857,1.017-1.714,2.035-2.584,3.041a.916.916,0,0,1-1.376.153c-.476-.354-.935-.732-1.383-1.121a.956.956,0,0,1-.1-1.286.977.977,0,0,1,1.336-.172c.209.158.412.324.634.5" transform="translate(-42.483 -131.148)" fill="#6a4d23"/>
        </g>
      </g>
    </g>
  </g>
</svg>
