<svg xmlns="http://www.w3.org/2000/svg" xmlns:xlink="http://www.w3.org/1999/xlink" width="190" height="134" viewBox="0 0 190 134">
  <defs>
    <clipPath id="clip-path">
      <rect id="Rectangle_402355" data-name="Rectangle 402355" width="87" height="87" transform="translate(342 951)" fill="#7d3a1b" stroke="#707070" stroke-width="1"/>
    </clipPath>
    <clipPath id="clip-path-2">
      <rect id="Rectangle_402358" data-name="Rectangle 402358" width="61.794" height="83.333" fill="#7d3a1b"/>
    </clipPath>
  </defs>
  <g id="Group_1100680" data-name="Group 1100680" transform="translate(-330 -7019)">
    <rect id="Rectangle_402215" data-name="Rectangle 402215" width="190" height="134" transform="translate(330 7019)" fill="none"/>
    <g id="Group_1100287" data-name="Group 1100287" transform="translate(16 -507)">
      <g id="Grupo_156312" data-name="Grupo 156312" transform="translate(344 7528)">
        <path id="Elipse_5845" data-name="Elipse 5845" d="M65.5,0A65.5,65.5,0,1,1,0,65.5,65.5,65.5,0,0,1,65.5,0Z" transform="translate(0 0)" fill="#ffce73"/>
      </g>
      <g id="Mask_Group_1098715" data-name="Mask Group 1098715" transform="translate(24 6599)" clip-path="url(#clip-path)">
        <g id="Group_1100694" data-name="Group 1100694" transform="translate(355 953)">
          <g id="Group_1100693" data-name="Group 1100693" clip-path="url(#clip-path-2)">
            <path id="Path_880287" data-name="Path 880287" d="M51.534,54.947c.18.643.338,1.258.524,1.865a4.062,4.062,0,0,1-1.787,4.564,10.531,10.531,0,0,1-1.309.485c-.857.275-.932.654-.536,1.392a11.888,11.888,0,0,1,1.189,3.574,6.872,6.872,0,0,1-.6,3.72,7.442,7.442,0,0,0-.558,2.79c.023,1.491.12,2.981.183,4.472a6.72,6.72,0,0,1-.5,2.889,4.206,4.206,0,0,1-3.255,2.555,3.3,3.3,0,0,1-3.846-2.159,25.737,25.737,0,0,1-.954-3.441,14.483,14.483,0,0,0-.576-1.72,1.764,1.764,0,0,0-1.869-1.182A17.137,17.137,0,0,0,35,75.191a7.612,7.612,0,0,1-5.075-.288,4.185,4.185,0,0,1-2.2-2.581.539.539,0,0,0-.28-.326,3.273,3.273,0,0,1-2.4-2.66.911.911,0,0,0-.589-.751,3.028,3.028,0,0,1-1.725-2.357.853.853,0,0,0-.42-.672c-.984-.536-1.952-1.1-2.953-1.6a26.767,26.767,0,0,0-4.508-1.69.33.33,0,0,0-.391.1,3.113,3.113,0,0,1-3.625.623,13.573,13.573,0,0,1-2.854-2.041c-.654-.534-1.323-1.051-2-1.559a3.076,3.076,0,0,0-1.608-.572,3.171,3.171,0,0,1-1.6-.665A8.2,8.2,0,0,1,.4,55.426a2.617,2.617,0,0,1-.224-2.3A7.6,7.6,0,0,1,.679,52.3a1.286,1.286,0,0,0,.142-.416A1.364,1.364,0,0,0,.8,51.53a2.783,2.783,0,0,1,2.216-3.162,12.729,12.729,0,0,1,1.934-.336A1.934,1.934,0,0,0,6.4,47.211a6.791,6.791,0,0,0,1.037-2.1,1.6,1.6,0,0,1,1.2-1.1,1.538,1.538,0,0,1,1.888,1.719,7.259,7.259,0,0,1-3.363,4.96,5.663,5.663,0,0,1-2.756.653c-.27.01-.358.061-.316.36a2.894,2.894,0,0,1-.734,2.578c.4.4.795.807,1.2,1.206a.452.452,0,0,0,.246.1,8.159,8.159,0,0,1,4.106,1.977c.9.731,1.806,1.467,2.713,2.195.169.136.359.245.553.376a1.868,1.868,0,0,0,.152-.2,1.823,1.823,0,0,1,1.622-.942,6.539,6.539,0,0,1,2.174.3,34.43,34.43,0,0,1,6.61,2.76A9.08,9.08,0,0,1,25,63.676a2.466,2.466,0,0,1,.777,1.6c.016.307.134.448.481.495a2.176,2.176,0,0,1,1.893,2.273c0,.782-.008.822.728,1.013a2.433,2.433,0,0,1,1.882,2.174,1.158,1.158,0,0,0,1.121.966,7.686,7.686,0,0,0,2.892-.254,15.867,15.867,0,0,1,2.392-.468A5.1,5.1,0,0,1,42,73.846a10.333,10.333,0,0,1,1.3,3.5c.132.571.273,1.14.413,1.708a2.006,2.006,0,0,0,.145.484c.113.207.073.564.428.564a1,1,0,0,0,.906-.663,1.98,1.98,0,0,0,.08-.5c0-1.054-.013-2.108-.016-3.162,0-1.084-.02-2.169.012-3.252a8.189,8.189,0,0,1,.7-2.972,5,5,0,0,0-.056-4.13,13.54,13.54,0,0,1-.811-2.072,3.623,3.623,0,0,1,1.231-3.676A5.363,5.363,0,0,1,48.5,58.648.473.473,0,0,0,48.9,58.2a3.577,3.577,0,0,0-.253-1.694,5.509,5.509,0,0,1-.382-1.8,2.481,2.481,0,0,1,1.208-2.256,4.462,4.462,0,0,1,4.978-.145c.782.431,1.516.948,2.28,1.412a1.866,1.866,0,0,0,1.425.387c.416-.1.52-.2.4-.6-.249-.814-.524-1.622-.838-2.413a11.641,11.641,0,0,1-.947-3.063,2.87,2.87,0,0,1,.49-2.067.616.616,0,0,0,.085-.678c-.381-.927-.757-1.857-1.1-2.8a3.9,3.9,0,0,1,.46-3.667A8.566,8.566,0,0,0,57.886,36.3a1.524,1.524,0,0,0-.92-1.918,5,5,0,0,0-1.584-.367c-1.329-.078-2.657-.168-3.983-.29a7.909,7.909,0,0,1-1.456-.3,3.342,3.342,0,0,1-1.788-1.364A17.67,17.67,0,0,0,46.54,30.08a4.2,4.2,0,0,0-2.85-1.26,15.863,15.863,0,0,1-1.885-.278c-.267-.049-.391,0-.452.278A19,19,0,0,1,39,34.5a26.269,26.269,0,0,1-5.2,6.385,8.633,8.633,0,0,1-2.392,1.548,2.774,2.774,0,0,1-2.228.014,9.573,9.573,0,0,1-2.88-1.986,27.089,27.089,0,0,1-5.926-8.232,14,14,0,0,1-1.461-5.587,11.289,11.289,0,0,1,3.184-8.206,11.1,11.1,0,0,1,5.92-3.355c.57-.122,1.161-.142,1.739-.231a.405.405,0,0,0,.288-.209,12.441,12.441,0,0,1,3.615-5.76,15.872,15.872,0,0,1,4.063-2.894,12.013,12.013,0,0,1,2.947-.916c.1-.02.191-.048.285-.072a2.571,2.571,0,0,0-2.2-1.735,6.11,6.11,0,0,0-4.012,1.25,11.184,11.184,0,0,0-1.51,1.163,11.581,11.581,0,0,1-3.89,2.264c-2.082.811-4.225,1.435-6.373,2.041a1.271,1.271,0,0,0-.993.909,14.391,14.391,0,0,1-1.376,3.355,12.408,12.408,0,0,1-1.927,2.607,2.708,2.708,0,0,1-1.632.852.489.489,0,0,0-.414.322,6.734,6.734,0,0,1-3.352,3.411,4.293,4.293,0,0,1-1.177.289,2.513,2.513,0,0,0-1.582.684,5.057,5.057,0,0,0-1.645,4.435,1.888,1.888,0,0,0,.278.741A8.019,8.019,0,0,1,10.39,30.72,1.558,1.558,0,0,1,9.2,32.472a1.532,1.532,0,0,1-1.879-1.06,13.327,13.327,0,0,0-1.119-2.587A5.675,5.675,0,0,1,5.7,25a8.769,8.769,0,0,1,2.6-4.889,5.013,5.013,0,0,1,3.165-1.5,1.939,1.939,0,0,0,1.505-.8c.415-.579.763-1.207,1.159-1.8a9.147,9.147,0,0,1,.767-1.018,1.9,1.9,0,0,1,1.434-.55.6.6,0,0,0,.4-.178,10.737,10.737,0,0,0,2.013-3.725,11.235,11.235,0,0,1,.564-1.5,3.946,3.946,0,0,1,2.561-2.038c1.295-.412,2.618-.739,3.9-1.183,1.349-.466,2.687-.977,3.985-1.566a7.582,7.582,0,0,0,1.6-1.175A13.445,13.445,0,0,1,36.16.33a6.508,6.508,0,0,1,5.326.533,5.431,5.431,0,0,1,2.56,3.213,3.133,3.133,0,0,1-.925,3.551,2.969,2.969,0,0,1-1.71.629A7.929,7.929,0,0,0,37.2,10.05a11.807,11.807,0,0,0-3.372,3.739c-.2.363-.338.76-.506,1.141-.088.2-.012.311.184.386.519.2,1.049.373,1.548.614a11.411,11.411,0,0,1,5.7,6.008A10.73,10.73,0,0,1,41.577,25c.023.216.107.287.333.317,1.092.144,2.189.274,3.268.491a7.279,7.279,0,0,1,3.986,2.362c.573.631,1.08,1.325,1.6,2.005a.592.592,0,0,0,.463.266c1.258.1,2.517.194,3.774.3a9.2,9.2,0,0,1,3.27.707,4.532,4.532,0,0,1,2.8,3.5,5.761,5.761,0,0,1-.491,3.378c-.34.716-.713,1.421-1.121,2.1a1.256,1.256,0,0,0-.126,1.232c.315.75.6,1.51.906,2.265a4.412,4.412,0,0,1,.3,2.539,2.9,2.9,0,0,1-.4.917.768.768,0,0,0-.14.7q.368,1.006.76,2a11.785,11.785,0,0,1,1.013,3.229,3.49,3.49,0,0,1-2.131,3.674,4.194,4.194,0,0,1-3.972-.211c-.88-.479-1.712-1.044-2.565-1.571a2.047,2.047,0,0,0-1.573-.257M38.456,25.958a6.292,6.292,0,0,0-.515-2.441,8,8,0,0,0-6.908-5.4,7.469,7.469,0,0,0-4.039.649,8.3,8.3,0,0,0-4.77,8.659,12.04,12.04,0,0,0,1.143,3.621,23.637,23.637,0,0,0,4.26,6.223,12.015,12.015,0,0,0,2.342,2.022.492.492,0,0,0,.627,0c.441-.337.918-.634,1.324-1.01a23.043,23.043,0,0,0,5.517-7.737,11.3,11.3,0,0,0,1.02-4.587" transform="translate(0 0)" fill="#7d3a1b"/>
            <path id="Path_880288" data-name="Path 880288" d="M30.83,154.517a1.719,1.719,0,0,1,1.62-1.632,1.631,1.631,0,0,1,1.582,1.614,1.6,1.6,0,0,1-1.6,1.618,1.639,1.639,0,0,1-1.6-1.6" transform="translate(-23.446 -116.266)" fill="#7d3a1b"/>
            <path id="Path_880289" data-name="Path 880289" d="M115.877,94.4a4.855,4.855,0,1,1-4.753-4.868,4.816,4.816,0,0,1,4.753,4.868M111.02,96.02a1.634,1.634,0,1,0,.031-3.267,1.634,1.634,0,1,0-.031,3.267" transform="translate(-80.737 -68.084)" fill="#7d3a1b"/>
          </g>
        </g>
      </g>
    </g>
  </g>
</svg>
