<svg xmlns="http://www.w3.org/2000/svg" xmlns:xlink="http://www.w3.org/1999/xlink" width="250" height="520.809" viewBox="0 0 250 520.809">
  <defs>
    <clipPath id="clip-path">
      <path id="Trazado_194907" data-name="Trazado 194907" d="M0,139.241c0,47.447,39.179,85.908,87.511,85.908s87.511-38.461,87.511-85.908S135.841,53.333,87.511,53.333,0,91.8,0,139.241" transform="translate(0 -53.333)" fill="#fecab2"/>
    </clipPath>
    <clipPath id="clip-path-2">
      <path id="Trazado_194907-2" data-name="Trazado 194907" d="M0,95.647A42.315,42.315,0,1,0,42.315,53.333,42.315,42.315,0,0,0,0,95.647" transform="translate(0 -53.333)" fill="#7f4fc7"/>
    </clipPath>
    <clipPath id="clip-path-3">
      <rect id="Rectangle_402428" data-name="Rectangle 402428" width="248.333" height="474.764" fill="none"/>
    </clipPath>
    <clipPath id="clip-path-4">
      <rect id="Rectangle_402427" data-name="Rectangle 402427" width="248.332" height="474.764" fill="none"/>
    </clipPath>
    <clipPath id="clip-path-5">
      <rect id="Rectangle_402421" data-name="Rectangle 402421" width="87.688" height="198.124" fill="none"/>
    </clipPath>
    <clipPath id="clip-path-6">
      <rect id="Rectangle_402422" data-name="Rectangle 402422" width="42.202" height="91.17" fill="none"/>
    </clipPath>
    <clipPath id="clip-path-7">
      <rect id="Rectangle_402423" data-name="Rectangle 402423" width="60.536" height="207.612" fill="none"/>
    </clipPath>
    <clipPath id="clip-path-8">
      <rect id="Rectangle_402424" data-name="Rectangle 402424" width="82.612" height="160.83" fill="none"/>
    </clipPath>
    <clipPath id="clip-path-9">
      <rect id="Rectangle_402425" data-name="Rectangle 402425" width="70.571" height="97.573" fill="none"/>
    </clipPath>
    <clipPath id="clip-path-10">
      <rect id="Rectangle_402426" data-name="Rectangle 402426" width="37.277" height="35.23" fill="none"/>
    </clipPath>
  </defs>
  <g id="conectada_01.375dd2a5" transform="translate(-2.444 0.636)">
    <g id="Grupo_155444" data-name="Grupo 155444" transform="translate(2.444 7.364)">
      <g id="Grupo_155253" data-name="Grupo 155253" transform="translate(4.28 181.396)">
        <path id="Trazado_196478" data-name="Trazado 196478" d="M319.689,149.033q-.327.339-.648.683a52.147,52.147,0,0,0-14.068,37.632l21.849-.761a30.63,30.63,0,1,1,61.222-2.141l21.849-.761a52.492,52.492,0,0,0-90.2-34.646" transform="translate(-304.936 -133.025)" fill="#ffe2b7"/>
        <path id="Trazado_196479" data-name="Trazado 196479" d="M304.88,231.066A52.492,52.492,0,1,0,409.8,227.4l-21.85.761a30.629,30.629,0,0,1-61.221,2.141Z" transform="translate(-304.844 -176.744)" fill="#7d3a1b"/>
      </g>
      <g id="Grupo_154313" data-name="Grupo 154313" transform="translate(74.978 321.892)">
        <g id="Grupo_152768" data-name="Grupo 152768" clip-path="url(#clip-path)">
          <path id="Trazado_194826" data-name="Trazado 194826" d="M4.605,55.593a2.284,2.284,0,0,0-2.3-2.26,2.262,2.262,0,1,0,0,4.522,2.284,2.284,0,0,0,2.3-2.263" transform="translate(0.001 -53.333)" fill="#fecab2"/>
          <path id="Trazado_194827" data-name="Trazado 194827" d="M12.879,55.589a2.3,2.3,0,1,0-2.3,2.263,2.3,2.3,0,0,0,2.3-2.263" transform="translate(13.028 -53.329)" fill="#fecab2"/>
          <path id="Trazado_194828" data-name="Trazado 194828" d="M21.152,55.589a2.3,2.3,0,1,0-2.3,2.263,2.3,2.3,0,0,0,2.3-2.263" transform="translate(26.059 -53.329)" fill="#fecab2"/>
          <path id="Trazado_194829" data-name="Trazado 194829" d="M29.425,55.589a2.3,2.3,0,1,0-2.3,2.263,2.3,2.3,0,0,0,2.3-2.263" transform="translate(39.088 -53.329)" fill="#fecab2"/>
          <path id="Trazado_194830" data-name="Trazado 194830" d="M37.7,55.589a2.3,2.3,0,1,0-2.3,2.263,2.3,2.3,0,0,0,2.3-2.263" transform="translate(52.116 -53.329)" fill="#fecab2"/>
          <path id="Trazado_194831" data-name="Trazado 194831" d="M45.966,55.589a2.3,2.3,0,1,0-2.3,2.263,2.3,2.3,0,0,0,2.3-2.263" transform="translate(65.146 -53.329)" fill="#fecab2"/>
          <path id="Trazado_194832" data-name="Trazado 194832" d="M54.242,55.589a2.3,2.3,0,1,0-2.3,2.263,2.3,2.3,0,0,0,2.3-2.263" transform="translate(78.175 -53.329)" fill="#fecab2"/>
          <path id="Trazado_194833" data-name="Trazado 194833" d="M62.515,55.589a2.3,2.3,0,1,0-2.3,2.263,2.3,2.3,0,0,0,2.3-2.263" transform="translate(91.204 -53.329)" fill="#fecab2"/>
          <path id="Trazado_194834" data-name="Trazado 194834" d="M70.788,55.589a2.3,2.3,0,1,0-2.3,2.262,2.3,2.3,0,0,0,2.3-2.262" transform="translate(104.234 -53.329)" fill="#fecab2"/>
          <path id="Trazado_194835" data-name="Trazado 194835" d="M4.609,63.866a2.284,2.284,0,0,0-2.3-2.26,2.26,2.26,0,0,0,0,4.52,2.284,2.284,0,0,0,2.3-2.26" transform="translate(-0.002 -40.693)" fill="#fecab2"/>
          <path id="Trazado_194836" data-name="Trazado 194836" d="M12.879,63.862a2.3,2.3,0,1,0-2.3,2.26,2.3,2.3,0,0,0,2.3-2.26" transform="translate(13.028 -40.689)" fill="#fecab2"/>
          <path id="Trazado_194837" data-name="Trazado 194837" d="M21.152,63.862a2.3,2.3,0,1,0-2.3,2.26,2.3,2.3,0,0,0,2.3-2.26" transform="translate(26.059 -40.689)" fill="#fecab2"/>
          <path id="Trazado_194838" data-name="Trazado 194838" d="M29.425,63.862a2.3,2.3,0,1,0-2.3,2.26,2.3,2.3,0,0,0,2.3-2.26" transform="translate(39.088 -40.689)" fill="#fecab2"/>
          <path id="Trazado_194839" data-name="Trazado 194839" d="M37.7,63.862a2.3,2.3,0,1,0-2.3,2.26,2.3,2.3,0,0,0,2.3-2.26" transform="translate(52.116 -40.689)" fill="#fecab2"/>
          <path id="Trazado_194840" data-name="Trazado 194840" d="M45.966,63.862a2.3,2.3,0,1,0-2.3,2.26,2.3,2.3,0,0,0,2.3-2.26" transform="translate(65.146 -40.689)" fill="#fecab2"/>
          <path id="Trazado_194841" data-name="Trazado 194841" d="M54.242,63.862a2.3,2.3,0,1,0-2.3,2.26,2.3,2.3,0,0,0,2.3-2.26" transform="translate(78.175 -40.689)" fill="#fecab2"/>
          <path id="Trazado_194842" data-name="Trazado 194842" d="M62.515,63.862a2.3,2.3,0,1,0-2.3,2.26,2.3,2.3,0,0,0,2.3-2.26" transform="translate(91.204 -40.689)" fill="#fecab2"/>
          <path id="Trazado_194843" data-name="Trazado 194843" d="M70.788,63.862a2.3,2.3,0,1,0-2.3,2.26,2.3,2.3,0,0,0,2.3-2.26" transform="translate(104.234 -40.689)" fill="#fecab2"/>
          <path id="Trazado_194844" data-name="Trazado 194844" d="M4.609,72.139a2.284,2.284,0,0,0-2.3-2.26,2.26,2.26,0,0,0,0,4.52,2.284,2.284,0,0,0,2.3-2.26" transform="translate(-0.002 -28.054)" fill="#fecab2"/>
          <path id="Trazado_194845" data-name="Trazado 194845" d="M12.879,72.135a2.3,2.3,0,1,0-2.3,2.26,2.3,2.3,0,0,0,2.3-2.26" transform="translate(13.028 -28.049)" fill="#fecab2"/>
          <path id="Trazado_194846" data-name="Trazado 194846" d="M21.152,72.135a2.3,2.3,0,1,0-2.3,2.26,2.3,2.3,0,0,0,2.3-2.26" transform="translate(26.059 -28.049)" fill="#fecab2"/>
          <path id="Trazado_194847" data-name="Trazado 194847" d="M29.425,72.135a2.3,2.3,0,1,0-2.3,2.26,2.3,2.3,0,0,0,2.3-2.26" transform="translate(39.088 -28.049)" fill="#fecab2"/>
          <path id="Trazado_194848" data-name="Trazado 194848" d="M37.7,72.135a2.3,2.3,0,1,0-2.3,2.26,2.3,2.3,0,0,0,2.3-2.26" transform="translate(52.116 -28.049)" fill="#fecab2"/>
          <path id="Trazado_194849" data-name="Trazado 194849" d="M45.966,72.135a2.3,2.3,0,1,0-2.3,2.26,2.3,2.3,0,0,0,2.3-2.26" transform="translate(65.146 -28.049)" fill="#fecab2"/>
          <path id="Trazado_194850" data-name="Trazado 194850" d="M54.242,72.135a2.3,2.3,0,1,0-2.3,2.26,2.3,2.3,0,0,0,2.3-2.26" transform="translate(78.175 -28.049)" fill="#fecab2"/>
          <path id="Trazado_194851" data-name="Trazado 194851" d="M62.515,72.135a2.3,2.3,0,1,0-2.3,2.26,2.3,2.3,0,0,0,2.3-2.26" transform="translate(91.204 -28.049)" fill="#fecab2"/>
          <path id="Trazado_194852" data-name="Trazado 194852" d="M70.788,72.135a2.3,2.3,0,1,0-2.3,2.26,2.3,2.3,0,0,0,2.3-2.26" transform="translate(104.234 -28.049)" fill="#fecab2"/>
          <path id="Trazado_194853" data-name="Trazado 194853" d="M4.609,80.411a2.284,2.284,0,0,0-2.3-2.26,2.26,2.26,0,0,0,0,4.52,2.284,2.284,0,0,0,2.3-2.26" transform="translate(-0.002 -15.416)" fill="#fecab2"/>
          <path id="Trazado_194854" data-name="Trazado 194854" d="M12.879,80.407a2.3,2.3,0,1,0-2.3,2.259,2.3,2.3,0,0,0,2.3-2.259" transform="translate(13.028 -15.411)" fill="#fecab2"/>
          <path id="Trazado_194855" data-name="Trazado 194855" d="M21.152,80.407a2.3,2.3,0,1,0-2.3,2.259,2.3,2.3,0,0,0,2.3-2.259" transform="translate(26.059 -15.411)" fill="#fecab2"/>
          <path id="Trazado_194856" data-name="Trazado 194856" d="M29.425,80.407a2.3,2.3,0,1,0-2.3,2.259,2.3,2.3,0,0,0,2.3-2.259" transform="translate(39.088 -15.411)" fill="#fecab2"/>
          <path id="Trazado_194857" data-name="Trazado 194857" d="M37.7,80.407a2.3,2.3,0,1,0-2.3,2.259,2.3,2.3,0,0,0,2.3-2.259" transform="translate(52.116 -15.411)" fill="#fecab2"/>
          <path id="Trazado_194858" data-name="Trazado 194858" d="M45.966,80.407a2.3,2.3,0,1,0-2.3,2.259,2.3,2.3,0,0,0,2.3-2.259" transform="translate(65.146 -15.411)" fill="#fecab2"/>
          <path id="Trazado_194859" data-name="Trazado 194859" d="M54.242,80.407a2.3,2.3,0,1,0-2.3,2.259,2.3,2.3,0,0,0,2.3-2.259" transform="translate(78.175 -15.411)" fill="#fecab2"/>
          <path id="Trazado_194860" data-name="Trazado 194860" d="M62.515,80.407a2.3,2.3,0,1,0-2.3,2.259,2.3,2.3,0,0,0,2.3-2.259" transform="translate(91.204 -15.411)" fill="#fecab2"/>
          <path id="Trazado_194861" data-name="Trazado 194861" d="M70.788,80.407a2.3,2.3,0,1,0-2.3,2.259,2.3,2.3,0,0,0,2.3-2.259" transform="translate(104.234 -15.411)" fill="#fecab2"/>
          <path id="Trazado_194862" data-name="Trazado 194862" d="M4.605,88.685a2.284,2.284,0,0,0-2.3-2.26,2.262,2.262,0,1,0,0,4.522,2.284,2.284,0,0,0,2.3-2.262" transform="translate(0.001 -2.776)" fill="#fecab2"/>
          <path id="Trazado_194863" data-name="Trazado 194863" d="M12.879,88.681a2.3,2.3,0,1,0-2.3,2.262,2.3,2.3,0,0,0,2.3-2.262" transform="translate(13.028 -2.771)" fill="#fecab2"/>
          <path id="Trazado_194864" data-name="Trazado 194864" d="M21.152,88.681a2.3,2.3,0,1,0-2.3,2.262,2.3,2.3,0,0,0,2.3-2.262" transform="translate(26.059 -2.771)" fill="#fecab2"/>
          <path id="Trazado_194865" data-name="Trazado 194865" d="M29.425,88.681a2.3,2.3,0,1,0-2.3,2.262,2.3,2.3,0,0,0,2.3-2.262" transform="translate(39.088 -2.771)" fill="#fecab2"/>
          <path id="Trazado_194866" data-name="Trazado 194866" d="M37.7,88.681a2.3,2.3,0,1,0-2.3,2.262,2.3,2.3,0,0,0,2.3-2.262" transform="translate(52.116 -2.771)" fill="#fecab2"/>
          <path id="Trazado_194867" data-name="Trazado 194867" d="M45.966,88.681a2.3,2.3,0,1,0-2.3,2.262,2.3,2.3,0,0,0,2.3-2.262" transform="translate(65.146 -2.771)" fill="#fecab2"/>
          <path id="Trazado_194868" data-name="Trazado 194868" d="M54.242,88.681a2.3,2.3,0,1,0-2.3,2.262,2.3,2.3,0,0,0,2.3-2.262" transform="translate(78.175 -2.771)" fill="#fecab2"/>
          <path id="Trazado_194869" data-name="Trazado 194869" d="M62.515,88.681a2.3,2.3,0,1,0-2.3,2.262,2.3,2.3,0,0,0,2.3-2.262" transform="translate(91.204 -2.771)" fill="#fecab2"/>
          <path id="Trazado_194870" data-name="Trazado 194870" d="M70.788,88.681a2.3,2.3,0,1,0-2.3,2.261,2.3,2.3,0,0,0,2.3-2.261" transform="translate(104.234 -2.771)" fill="#fecab2"/>
          <path id="Trazado_194871" data-name="Trazado 194871" d="M4.609,96.957a2.284,2.284,0,0,0-2.3-2.257,2.26,2.26,0,0,0,0,4.52,2.284,2.284,0,0,0,2.3-2.26" transform="translate(-0.002 9.864)" fill="#fecab2"/>
          <path id="Trazado_194872" data-name="Trazado 194872" d="M12.879,96.953a2.3,2.3,0,1,0-2.3,2.26,2.3,2.3,0,0,0,2.3-2.26" transform="translate(13.028 9.869)" fill="#fecab2"/>
          <path id="Trazado_194873" data-name="Trazado 194873" d="M21.152,96.953a2.3,2.3,0,1,0-2.3,2.26,2.3,2.3,0,0,0,2.3-2.26" transform="translate(26.059 9.869)" fill="#fecab2"/>
          <path id="Trazado_194874" data-name="Trazado 194874" d="M29.425,96.953a2.3,2.3,0,1,0-2.3,2.26,2.3,2.3,0,0,0,2.3-2.26" transform="translate(39.088 9.869)" fill="#fecab2"/>
          <path id="Trazado_194875" data-name="Trazado 194875" d="M37.7,96.953a2.3,2.3,0,1,0-2.3,2.26,2.3,2.3,0,0,0,2.3-2.26" transform="translate(52.116 9.869)" fill="#fecab2"/>
          <path id="Trazado_194876" data-name="Trazado 194876" d="M45.966,96.953a2.3,2.3,0,1,0-2.3,2.26,2.3,2.3,0,0,0,2.3-2.26" transform="translate(65.146 9.869)" fill="#fecab2"/>
          <path id="Trazado_194877" data-name="Trazado 194877" d="M54.242,96.953a2.3,2.3,0,1,0-2.3,2.26,2.3,2.3,0,0,0,2.3-2.26" transform="translate(78.175 9.869)" fill="#fecab2"/>
          <path id="Trazado_194878" data-name="Trazado 194878" d="M62.515,96.953a2.3,2.3,0,1,0-2.3,2.26,2.3,2.3,0,0,0,2.3-2.26" transform="translate(91.204 9.869)" fill="#fecab2"/>
          <path id="Trazado_194879" data-name="Trazado 194879" d="M70.788,96.953a2.3,2.3,0,1,0-2.3,2.26,2.3,2.3,0,0,0,2.3-2.26" transform="translate(104.234 9.869)" fill="#fecab2"/>
          <path id="Trazado_194880" data-name="Trazado 194880" d="M4.609,105.229a2.284,2.284,0,0,0-2.3-2.26,2.26,2.26,0,1,0,0,4.52,2.284,2.284,0,0,0,2.3-2.26" transform="translate(-0.002 22.503)" fill="#fecab2"/>
          <path id="Trazado_194881" data-name="Trazado 194881" d="M12.879,105.225a2.3,2.3,0,1,0-2.3,2.26,2.3,2.3,0,0,0,2.3-2.26" transform="translate(13.028 22.507)" fill="#fecab2"/>
          <path id="Trazado_194882" data-name="Trazado 194882" d="M21.152,105.225a2.3,2.3,0,1,0-2.3,2.26,2.3,2.3,0,0,0,2.3-2.26" transform="translate(26.059 22.507)" fill="#fecab2"/>
          <path id="Trazado_194883" data-name="Trazado 194883" d="M29.425,105.225a2.3,2.3,0,1,0-2.3,2.26,2.3,2.3,0,0,0,2.3-2.26" transform="translate(39.088 22.507)" fill="#fecab2"/>
          <path id="Trazado_194884" data-name="Trazado 194884" d="M37.7,105.225a2.3,2.3,0,1,0-2.3,2.26,2.3,2.3,0,0,0,2.3-2.26" transform="translate(52.116 22.507)" fill="#fecab2"/>
          <path id="Trazado_194885" data-name="Trazado 194885" d="M45.966,105.225a2.3,2.3,0,1,0-2.3,2.26,2.3,2.3,0,0,0,2.3-2.26" transform="translate(65.146 22.507)" fill="#fecab2"/>
          <path id="Trazado_194886" data-name="Trazado 194886" d="M54.242,105.225a2.3,2.3,0,1,0-2.3,2.26,2.3,2.3,0,0,0,2.3-2.26" transform="translate(78.175 22.507)" fill="#fecab2"/>
          <path id="Trazado_194887" data-name="Trazado 194887" d="M62.515,105.225a2.3,2.3,0,1,0-2.3,2.26,2.3,2.3,0,0,0,2.3-2.26" transform="translate(91.204 22.507)" fill="#fecab2"/>
          <path id="Trazado_194888" data-name="Trazado 194888" d="M70.788,105.225a2.3,2.3,0,1,0-2.3,2.26,2.3,2.3,0,0,0,2.3-2.26" transform="translate(104.234 22.507)" fill="#fecab2"/>
          <path id="Trazado_194889" data-name="Trazado 194889" d="M4.609,113.5a2.284,2.284,0,0,0-2.3-2.26,2.26,2.26,0,0,0,0,4.52,2.284,2.284,0,0,0,2.3-2.26" transform="translate(-0.002 35.142)" fill="#fecab2"/>
          <path id="Trazado_194890" data-name="Trazado 194890" d="M12.879,113.5a2.3,2.3,0,1,0-2.3,2.26,2.3,2.3,0,0,0,2.3-2.26" transform="translate(13.028 35.146)" fill="#fecab2"/>
          <path id="Trazado_194891" data-name="Trazado 194891" d="M21.152,113.5a2.3,2.3,0,1,0-2.3,2.26,2.3,2.3,0,0,0,2.3-2.26" transform="translate(26.059 35.146)" fill="#fecab2"/>
          <path id="Trazado_194892" data-name="Trazado 194892" d="M29.425,113.5a2.3,2.3,0,1,0-2.3,2.26,2.3,2.3,0,0,0,2.3-2.26" transform="translate(39.088 35.146)" fill="#fecab2"/>
          <path id="Trazado_194893" data-name="Trazado 194893" d="M37.7,113.5a2.3,2.3,0,1,0-2.3,2.26,2.3,2.3,0,0,0,2.3-2.26" transform="translate(52.116 35.146)" fill="#fecab2"/>
          <path id="Trazado_194894" data-name="Trazado 194894" d="M45.966,113.5a2.3,2.3,0,1,0-2.3,2.26,2.3,2.3,0,0,0,2.3-2.26" transform="translate(65.146 35.146)" fill="#fecab2"/>
          <path id="Trazado_194895" data-name="Trazado 194895" d="M54.242,113.5a2.3,2.3,0,1,0-2.3,2.26,2.3,2.3,0,0,0,2.3-2.26" transform="translate(78.175 35.146)" fill="#fecab2"/>
          <path id="Trazado_194896" data-name="Trazado 194896" d="M62.515,113.5a2.3,2.3,0,1,0-2.3,2.26,2.3,2.3,0,0,0,2.3-2.26" transform="translate(91.204 35.146)" fill="#fecab2"/>
          <path id="Trazado_194897" data-name="Trazado 194897" d="M70.788,113.5a2.3,2.3,0,1,0-2.3,2.26,2.3,2.3,0,0,0,2.3-2.26" transform="translate(104.234 35.146)" fill="#fecab2"/>
          <path id="Trazado_194898" data-name="Trazado 194898" d="M4.609,121.774a2.284,2.284,0,0,0-2.3-2.26,2.26,2.26,0,0,0,0,4.52,2.284,2.284,0,0,0,2.3-2.26" transform="translate(-0.002 47.78)" fill="#fecab2"/>
          <path id="Trazado_194899" data-name="Trazado 194899" d="M12.879,121.77a2.3,2.3,0,1,0-2.3,2.26,2.3,2.3,0,0,0,2.3-2.26" transform="translate(13.028 47.784)" fill="#fecab2"/>
          <path id="Trazado_194900" data-name="Trazado 194900" d="M21.152,121.77a2.3,2.3,0,1,0-2.3,2.26,2.3,2.3,0,0,0,2.3-2.26" transform="translate(26.059 47.784)" fill="#fecab2"/>
          <path id="Trazado_194901" data-name="Trazado 194901" d="M29.425,121.77a2.3,2.3,0,1,0-2.3,2.26,2.3,2.3,0,0,0,2.3-2.26" transform="translate(39.088 47.784)" fill="#fecab2"/>
          <path id="Trazado_194902" data-name="Trazado 194902" d="M37.7,121.77a2.3,2.3,0,1,0-2.3,2.26,2.3,2.3,0,0,0,2.3-2.26" transform="translate(52.116 47.784)" fill="#fecab2"/>
          <path id="Trazado_194903" data-name="Trazado 194903" d="M45.966,121.77a2.3,2.3,0,1,0-2.3,2.26,2.3,2.3,0,0,0,2.3-2.26" transform="translate(65.146 47.784)" fill="#fecab2"/>
          <path id="Trazado_194904" data-name="Trazado 194904" d="M54.242,121.77a2.3,2.3,0,1,0-2.3,2.26,2.3,2.3,0,0,0,2.3-2.26" transform="translate(78.175 47.784)" fill="#fecab2"/>
          <path id="Trazado_194905" data-name="Trazado 194905" d="M62.515,121.77a2.3,2.3,0,1,0-2.3,2.26,2.3,2.3,0,0,0,2.3-2.26" transform="translate(91.204 47.784)" fill="#fecab2"/>
          <path id="Trazado_194906" data-name="Trazado 194906" d="M70.788,121.77a2.3,2.3,0,1,0-2.3,2.26,2.3,2.3,0,0,0,2.3-2.26" transform="translate(104.234 47.784)" fill="#fecab2"/>
        </g>
      </g>
      <g id="Grupo_154805" data-name="Grupo 154805" transform="translate(150.083 -8)">
        <g id="Grupo_152768-2" data-name="Grupo 152768" transform="translate(0)" clip-path="url(#clip-path-2)">
          <path id="Trazado_194826-2" data-name="Trazado 194826" d="M2.228,54.443a1.113,1.113,0,1,0-1.113,1.114,1.113,1.113,0,0,0,1.113-1.114" transform="translate(0 -53.333)" fill="#7f4fc7"/>
          <path id="Trazado_194827-2" data-name="Trazado 194827" d="M10.5,54.443a1.113,1.113,0,1,0-1.113,1.114A1.113,1.113,0,0,0,10.5,54.443" transform="translate(2.028 -53.333)" fill="#7f4fc7"/>
          <path id="Trazado_194828-2" data-name="Trazado 194828" d="M18.773,54.443a1.113,1.113,0,1,0-1.113,1.114,1.113,1.113,0,0,0,1.113-1.114" transform="translate(4.056 -53.333)" fill="#7f4fc7"/>
          <path id="Trazado_194829-2" data-name="Trazado 194829" d="M27.046,54.443a1.113,1.113,0,1,0-1.113,1.114,1.113,1.113,0,0,0,1.113-1.114" transform="translate(6.083 -53.333)" fill="#7f4fc7"/>
          <path id="Trazado_194830-2" data-name="Trazado 194830" d="M35.318,54.443A1.113,1.113,0,1,0,34.2,55.558a1.113,1.113,0,0,0,1.113-1.114" transform="translate(8.111 -53.333)" fill="#7f4fc7"/>
          <path id="Trazado_194831-2" data-name="Trazado 194831" d="M43.587,54.443a1.113,1.113,0,1,0-1.113,1.114,1.113,1.113,0,0,0,1.113-1.114" transform="translate(10.139 -53.333)" fill="#7f4fc7"/>
          <path id="Trazado_194832-2" data-name="Trazado 194832" d="M51.863,54.443a1.113,1.113,0,1,0-1.113,1.114,1.113,1.113,0,0,0,1.113-1.114" transform="translate(12.167 -53.333)" fill="#7f4fc7"/>
          <path id="Trazado_194833-2" data-name="Trazado 194833" d="M60.136,54.443a1.113,1.113,0,1,0-1.113,1.114,1.113,1.113,0,0,0,1.113-1.114" transform="translate(14.194 -53.333)" fill="#7f4fc7"/>
          <path id="Trazado_194834-2" data-name="Trazado 194834" d="M68.409,54.443A1.113,1.113,0,1,0,67.3,55.558a1.113,1.113,0,0,0,1.113-1.114" transform="translate(16.222 -53.333)" fill="#7f4fc7"/>
          <path id="Trazado_194835-2" data-name="Trazado 194835" d="M2.228,62.719a1.112,1.112,0,1,0-.326.788,1.113,1.113,0,0,0,.326-.788" transform="translate(0 -51.305)" fill="#7f4fc7"/>
          <path id="Trazado_194836-2" data-name="Trazado 194836" d="M10.5,62.719a1.112,1.112,0,1,0-.326.788,1.113,1.113,0,0,0,.326-.788" transform="translate(2.028 -51.305)" fill="#7f4fc7"/>
          <path id="Trazado_194837-2" data-name="Trazado 194837" d="M18.773,62.719a1.112,1.112,0,1,0-.326.788,1.113,1.113,0,0,0,.326-.788" transform="translate(4.056 -51.305)" fill="#7f4fc7"/>
          <path id="Trazado_194838-2" data-name="Trazado 194838" d="M27.046,62.719a1.112,1.112,0,1,0-.326.788,1.113,1.113,0,0,0,.326-.788" transform="translate(6.083 -51.305)" fill="#7f4fc7"/>
          <path id="Trazado_194839-2" data-name="Trazado 194839" d="M35.318,62.719a1.112,1.112,0,1,0-.326.788,1.113,1.113,0,0,0,.326-.788" transform="translate(8.111 -51.305)" fill="#7f4fc7"/>
          <path id="Trazado_194840-2" data-name="Trazado 194840" d="M43.587,62.719a1.112,1.112,0,1,0-.326.788,1.113,1.113,0,0,0,.326-.788" transform="translate(10.139 -51.305)" fill="#7f4fc7"/>
          <path id="Trazado_194841-2" data-name="Trazado 194841" d="M51.863,62.719a1.112,1.112,0,1,0-.326.788,1.113,1.113,0,0,0,.326-.788" transform="translate(12.167 -51.305)" fill="#7f4fc7"/>
          <path id="Trazado_194842-2" data-name="Trazado 194842" d="M60.136,62.719a1.113,1.113,0,1,0-1.113,1.113,1.113,1.113,0,0,0,1.113-1.113" transform="translate(14.194 -51.305)" fill="#7f4fc7"/>
          <path id="Trazado_194843-2" data-name="Trazado 194843" d="M68.409,62.719a1.112,1.112,0,1,0-.326.788,1.113,1.113,0,0,0,.326-.788" transform="translate(16.222 -51.305)" fill="#7f4fc7"/>
          <path id="Trazado_194844-2" data-name="Trazado 194844" d="M2.228,70.992a1.112,1.112,0,1,0-.326.788,1.113,1.113,0,0,0,.326-.788" transform="translate(0 -49.277)" fill="#7f4fc7"/>
          <path id="Trazado_194845-2" data-name="Trazado 194845" d="M10.5,70.992a1.112,1.112,0,1,0-.326.788,1.113,1.113,0,0,0,.326-.788" transform="translate(2.028 -49.277)" fill="#7f4fc7"/>
          <path id="Trazado_194846-2" data-name="Trazado 194846" d="M18.773,70.992a1.112,1.112,0,1,0-.326.788,1.113,1.113,0,0,0,.326-.788" transform="translate(4.056 -49.277)" fill="#7f4fc7"/>
          <path id="Trazado_194847-2" data-name="Trazado 194847" d="M27.046,70.992a1.112,1.112,0,1,0-.326.788,1.113,1.113,0,0,0,.326-.788" transform="translate(6.083 -49.277)" fill="#7f4fc7"/>
          <path id="Trazado_194848-2" data-name="Trazado 194848" d="M35.318,70.992a1.112,1.112,0,1,0-.326.788,1.113,1.113,0,0,0,.326-.788" transform="translate(8.111 -49.277)" fill="#7f4fc7"/>
          <path id="Trazado_194849-2" data-name="Trazado 194849" d="M43.587,70.992a1.112,1.112,0,1,0-.326.788,1.113,1.113,0,0,0,.326-.788" transform="translate(10.139 -49.277)" fill="#7f4fc7"/>
          <path id="Trazado_194850-2" data-name="Trazado 194850" d="M51.863,70.992a1.112,1.112,0,1,0-.326.788,1.113,1.113,0,0,0,.326-.788" transform="translate(12.167 -49.277)" fill="#7f4fc7"/>
          <path id="Trazado_194851-2" data-name="Trazado 194851" d="M60.136,70.992a1.113,1.113,0,1,0-1.113,1.113,1.113,1.113,0,0,0,1.113-1.113" transform="translate(14.194 -49.277)" fill="#7f4fc7"/>
          <path id="Trazado_194852-2" data-name="Trazado 194852" d="M68.409,70.992a1.112,1.112,0,1,0-.326.788,1.113,1.113,0,0,0,.326-.788" transform="translate(16.222 -49.277)" fill="#7f4fc7"/>
          <path id="Trazado_194853-2" data-name="Trazado 194853" d="M2.228,79.264a1.112,1.112,0,1,0-.326.788,1.113,1.113,0,0,0,.326-.788" transform="translate(0 -47.25)" fill="#7f4fc7"/>
          <path id="Trazado_194854-2" data-name="Trazado 194854" d="M10.5,79.264a1.112,1.112,0,1,0-.326.788,1.113,1.113,0,0,0,.326-.788" transform="translate(2.028 -47.25)" fill="#7f4fc7"/>
          <path id="Trazado_194855-2" data-name="Trazado 194855" d="M18.773,79.264a1.112,1.112,0,1,0-.326.788,1.113,1.113,0,0,0,.326-.788" transform="translate(4.056 -47.25)" fill="#7f4fc7"/>
          <path id="Trazado_194856-2" data-name="Trazado 194856" d="M27.046,79.264a1.112,1.112,0,1,0-.326.788,1.113,1.113,0,0,0,.326-.788" transform="translate(6.083 -47.25)" fill="#7f4fc7"/>
          <path id="Trazado_194857-2" data-name="Trazado 194857" d="M35.318,79.264a1.112,1.112,0,1,0-.326.788,1.113,1.113,0,0,0,.326-.788" transform="translate(8.111 -47.25)" fill="#7f4fc7"/>
          <path id="Trazado_194858-2" data-name="Trazado 194858" d="M43.587,79.264a1.112,1.112,0,1,0-.326.788,1.113,1.113,0,0,0,.326-.788" transform="translate(10.139 -47.25)" fill="#7f4fc7"/>
          <path id="Trazado_194859-2" data-name="Trazado 194859" d="M51.863,79.264a1.112,1.112,0,1,0-.326.788,1.113,1.113,0,0,0,.326-.788" transform="translate(12.167 -47.25)" fill="#7f4fc7"/>
          <path id="Trazado_194860-2" data-name="Trazado 194860" d="M60.136,79.264a1.113,1.113,0,1,0-1.113,1.113,1.113,1.113,0,0,0,1.113-1.113" transform="translate(14.194 -47.25)" fill="#7f4fc7"/>
          <path id="Trazado_194861-2" data-name="Trazado 194861" d="M68.409,79.264a1.112,1.112,0,1,0-.326.788,1.113,1.113,0,0,0,.326-.788" transform="translate(16.222 -47.25)" fill="#7f4fc7"/>
          <path id="Trazado_194862-2" data-name="Trazado 194862" d="M2.228,87.537a1.112,1.112,0,1,0-.325.788,1.113,1.113,0,0,0,.325-.788" transform="translate(0 -45.222)" fill="#7f4fc7"/>
          <path id="Trazado_194863-2" data-name="Trazado 194863" d="M10.5,87.537a1.112,1.112,0,1,0-.325.788,1.113,1.113,0,0,0,.325-.788" transform="translate(2.028 -45.222)" fill="#7f4fc7"/>
          <path id="Trazado_194864-2" data-name="Trazado 194864" d="M18.773,87.537a1.112,1.112,0,1,0-.325.788,1.113,1.113,0,0,0,.325-.788" transform="translate(4.056 -45.222)" fill="#7f4fc7"/>
          <path id="Trazado_194865-2" data-name="Trazado 194865" d="M27.046,87.537a1.112,1.112,0,1,0-.325.788,1.113,1.113,0,0,0,.325-.788" transform="translate(6.083 -45.222)" fill="#7f4fc7"/>
          <path id="Trazado_194866-2" data-name="Trazado 194866" d="M35.318,87.537a1.112,1.112,0,1,0-.325.788,1.113,1.113,0,0,0,.325-.788" transform="translate(8.111 -45.222)" fill="#7f4fc7"/>
          <path id="Trazado_194867-2" data-name="Trazado 194867" d="M43.587,87.537a1.112,1.112,0,1,0-.325.788,1.113,1.113,0,0,0,.325-.788" transform="translate(10.139 -45.222)" fill="#7f4fc7"/>
          <path id="Trazado_194868-2" data-name="Trazado 194868" d="M51.863,87.537a1.112,1.112,0,1,0-.325.788,1.113,1.113,0,0,0,.325-.788" transform="translate(12.167 -45.222)" fill="#7f4fc7"/>
          <path id="Trazado_194869-2" data-name="Trazado 194869" d="M60.136,87.537a1.113,1.113,0,1,0-1.113,1.114,1.113,1.113,0,0,0,1.113-1.114" transform="translate(14.194 -45.222)" fill="#7f4fc7"/>
          <path id="Trazado_194870-2" data-name="Trazado 194870" d="M68.409,87.537a1.112,1.112,0,1,0-.325.788,1.113,1.113,0,0,0,.325-.788" transform="translate(16.222 -45.222)" fill="#7f4fc7"/>
          <path id="Trazado_194871-2" data-name="Trazado 194871" d="M2.228,95.81A1.112,1.112,0,1,0,1.9,96.6a1.113,1.113,0,0,0,.326-.788" transform="translate(0 -43.194)" fill="#7f4fc7"/>
          <path id="Trazado_194872-2" data-name="Trazado 194872" d="M10.5,95.81a1.112,1.112,0,1,0-.326.788,1.113,1.113,0,0,0,.326-.788" transform="translate(2.028 -43.194)" fill="#7f4fc7"/>
          <path id="Trazado_194873-2" data-name="Trazado 194873" d="M18.773,95.81a1.112,1.112,0,1,0-.326.788,1.113,1.113,0,0,0,.326-.788" transform="translate(4.056 -43.194)" fill="#7f4fc7"/>
          <path id="Trazado_194874-2" data-name="Trazado 194874" d="M27.046,95.81a1.112,1.112,0,1,0-.326.788,1.113,1.113,0,0,0,.326-.788" transform="translate(6.083 -43.194)" fill="#7f4fc7"/>
          <path id="Trazado_194875-2" data-name="Trazado 194875" d="M35.318,95.81a1.112,1.112,0,1,0-.326.788,1.113,1.113,0,0,0,.326-.788" transform="translate(8.111 -43.194)" fill="#7f4fc7"/>
          <path id="Trazado_194876-2" data-name="Trazado 194876" d="M43.587,95.81a1.112,1.112,0,1,0-.326.788,1.113,1.113,0,0,0,.326-.788" transform="translate(10.139 -43.194)" fill="#7f4fc7"/>
          <path id="Trazado_194877-2" data-name="Trazado 194877" d="M51.863,95.81a1.112,1.112,0,1,0-.326.788,1.113,1.113,0,0,0,.326-.788" transform="translate(12.167 -43.194)" fill="#7f4fc7"/>
          <path id="Trazado_194878-2" data-name="Trazado 194878" d="M60.136,95.81a1.113,1.113,0,1,0-1.113,1.113,1.113,1.113,0,0,0,1.113-1.113" transform="translate(14.194 -43.194)" fill="#7f4fc7"/>
          <path id="Trazado_194879-2" data-name="Trazado 194879" d="M68.409,95.81a1.112,1.112,0,1,0-.326.788,1.113,1.113,0,0,0,.326-.788" transform="translate(16.222 -43.194)" fill="#7f4fc7"/>
          <path id="Trazado_194880-2" data-name="Trazado 194880" d="M2.228,104.082a1.112,1.112,0,1,0-.326.788,1.113,1.113,0,0,0,.326-.788" transform="translate(0 -41.166)" fill="#7f4fc7"/>
          <path id="Trazado_194881-2" data-name="Trazado 194881" d="M10.5,104.082a1.112,1.112,0,1,0-.326.788,1.113,1.113,0,0,0,.326-.788" transform="translate(2.028 -41.166)" fill="#7f4fc7"/>
          <path id="Trazado_194882-2" data-name="Trazado 194882" d="M18.773,104.082a1.112,1.112,0,1,0-.326.788,1.113,1.113,0,0,0,.326-.788" transform="translate(4.056 -41.166)" fill="#7f4fc7"/>
          <path id="Trazado_194883-2" data-name="Trazado 194883" d="M27.046,104.082a1.112,1.112,0,1,0-.326.788,1.113,1.113,0,0,0,.326-.788" transform="translate(6.083 -41.166)" fill="#7f4fc7"/>
          <path id="Trazado_194884-2" data-name="Trazado 194884" d="M35.318,104.082a1.112,1.112,0,1,0-.326.788,1.113,1.113,0,0,0,.326-.788" transform="translate(8.111 -41.166)" fill="#7f4fc7"/>
          <path id="Trazado_194885-2" data-name="Trazado 194885" d="M43.587,104.082a1.112,1.112,0,1,0-.326.788,1.113,1.113,0,0,0,.326-.788" transform="translate(10.139 -41.166)" fill="#7f4fc7"/>
          <path id="Trazado_194886-2" data-name="Trazado 194886" d="M51.863,104.082a1.112,1.112,0,1,0-.326.788,1.113,1.113,0,0,0,.326-.788" transform="translate(12.167 -41.166)" fill="#7f4fc7"/>
          <path id="Trazado_194887-2" data-name="Trazado 194887" d="M60.136,104.082a1.113,1.113,0,1,0-1.113,1.113,1.113,1.113,0,0,0,1.113-1.113" transform="translate(14.194 -41.166)" fill="#7f4fc7"/>
          <path id="Trazado_194888-2" data-name="Trazado 194888" d="M68.409,104.082a1.112,1.112,0,1,0-.326.788,1.113,1.113,0,0,0,.326-.788" transform="translate(16.222 -41.166)" fill="#7f4fc7"/>
          <path id="Trazado_194889-2" data-name="Trazado 194889" d="M2.228,112.355a1.112,1.112,0,1,0-.326.788,1.113,1.113,0,0,0,.326-.788" transform="translate(0 -39.138)" fill="#7f4fc7"/>
          <path id="Trazado_194890-2" data-name="Trazado 194890" d="M10.5,112.355a1.112,1.112,0,1,0-.326.788,1.113,1.113,0,0,0,.326-.788" transform="translate(2.028 -39.138)" fill="#7f4fc7"/>
          <path id="Trazado_194891-2" data-name="Trazado 194891" d="M18.773,112.355a1.112,1.112,0,1,0-.326.788,1.113,1.113,0,0,0,.326-.788" transform="translate(4.056 -39.138)" fill="#7f4fc7"/>
          <path id="Trazado_194892-2" data-name="Trazado 194892" d="M27.046,112.355a1.112,1.112,0,1,0-.326.788,1.113,1.113,0,0,0,.326-.788" transform="translate(6.083 -39.138)" fill="#7f4fc7"/>
          <path id="Trazado_194893-2" data-name="Trazado 194893" d="M35.318,112.355a1.112,1.112,0,1,0-.326.788,1.113,1.113,0,0,0,.326-.788" transform="translate(8.111 -39.138)" fill="#7f4fc7"/>
          <path id="Trazado_194894-2" data-name="Trazado 194894" d="M43.587,112.355a1.112,1.112,0,1,0-.326.788,1.113,1.113,0,0,0,.326-.788" transform="translate(10.139 -39.138)" fill="#7f4fc7"/>
          <path id="Trazado_194895-2" data-name="Trazado 194895" d="M51.863,112.355a1.112,1.112,0,1,0-.326.788,1.113,1.113,0,0,0,.326-.788" transform="translate(12.167 -39.138)" fill="#7f4fc7"/>
          <path id="Trazado_194896-2" data-name="Trazado 194896" d="M60.136,112.355a1.113,1.113,0,1,0-1.113,1.113,1.113,1.113,0,0,0,1.113-1.113" transform="translate(14.194 -39.138)" fill="#7f4fc7"/>
          <path id="Trazado_194897-2" data-name="Trazado 194897" d="M68.409,112.355a1.112,1.112,0,1,0-.326.788,1.113,1.113,0,0,0,.326-.788" transform="translate(16.222 -39.138)" fill="#7f4fc7"/>
          <path id="Trazado_194898-2" data-name="Trazado 194898" d="M2.228,120.627a1.112,1.112,0,1,0-.326.788,1.113,1.113,0,0,0,.326-.788" transform="translate(0 -37.111)" fill="#7f4fc7"/>
          <path id="Trazado_194899-2" data-name="Trazado 194899" d="M10.5,120.627a1.112,1.112,0,1,0-.326.788,1.113,1.113,0,0,0,.326-.788" transform="translate(2.028 -37.111)" fill="#7f4fc7"/>
          <path id="Trazado_194900-2" data-name="Trazado 194900" d="M18.773,120.627a1.112,1.112,0,1,0-.326.788,1.113,1.113,0,0,0,.326-.788" transform="translate(4.056 -37.111)" fill="#7f4fc7"/>
          <path id="Trazado_194901-2" data-name="Trazado 194901" d="M27.046,120.627a1.112,1.112,0,1,0-.326.788,1.113,1.113,0,0,0,.326-.788" transform="translate(6.083 -37.111)" fill="#7f4fc7"/>
          <path id="Trazado_194902-2" data-name="Trazado 194902" d="M35.318,120.627a1.112,1.112,0,1,0-.326.788,1.113,1.113,0,0,0,.326-.788" transform="translate(8.111 -37.111)" fill="#7f4fc7"/>
          <path id="Trazado_194903-2" data-name="Trazado 194903" d="M43.587,120.627a1.112,1.112,0,1,0-.326.788,1.113,1.113,0,0,0,.326-.788" transform="translate(10.139 -37.111)" fill="#7f4fc7"/>
          <path id="Trazado_194904-2" data-name="Trazado 194904" d="M51.863,120.627a1.112,1.112,0,1,0-.326.788,1.113,1.113,0,0,0,.326-.788" transform="translate(12.167 -37.111)" fill="#7f4fc7"/>
          <path id="Trazado_194905-2" data-name="Trazado 194905" d="M60.136,120.627a1.113,1.113,0,1,0-1.113,1.113,1.113,1.113,0,0,0,1.113-1.113" transform="translate(14.194 -37.111)" fill="#7f4fc7"/>
          <path id="Trazado_194906-2" data-name="Trazado 194906" d="M68.409,120.627a1.112,1.112,0,1,0-.326.788,1.113,1.113,0,0,0,.326-.788" transform="translate(16.222 -37.111)" fill="#7f4fc7"/>
        </g>
      </g>
      <g id="Grupo_155254" data-name="Grupo 155254" transform="translate(28.759 403.11)">
        <g id="Grupo_154318" data-name="Grupo 154318">
          <g id="Grupo_154315" data-name="Grupo 154315" transform="translate(32.747 9.551)">
            <path id="Trazado_195058" data-name="Trazado 195058" d="M14.017,225.789H54.543a1.523,1.523,0,0,0,0-3.038H14.017a1.523,1.523,0,1,0,0,3.038" transform="translate(-12.394 -222.747)" fill="#12263f"/>
            <path id="Trazado_195059" data-name="Trazado 195059" d="M83.974,225.789H94.206a1.523,1.523,0,0,0,0-3.038H83.974a1.523,1.523,0,1,0,0,3.038" transform="translate(-35.06 -222.747)" fill="#12263f"/>
            <path id="Trazado_195064" data-name="Trazado 195064" d="M112.811,232.612H84.346a1.067,1.067,0,1,0,0,2.134h28.469a1.067,1.067,0,1,0,0-2.134" transform="translate(-35.33 -225.943)" fill="#12263f"/>
            <path id="Trazado_195065" data-name="Trazado 195065" d="M73.867,232.612H66.681a1.067,1.067,0,1,0,0,2.134h7.186a1.067,1.067,0,1,0,0-2.134" transform="translate(-29.607 -225.943)" fill="#12263f"/>
          </g>
          <g id="Grupo_154316" data-name="Grupo 154316">
            <path id="Trazado_195062" data-name="Trazado 195062" d="M161.607,1.333H113.762c-.991,0-1.793.476-1.793,1.067s.8,1.068,1.793,1.068h47.845c.991,0,1.794-.476,1.794-1.068s-.8-1.067-1.794-1.067" transform="translate(-80.777 -1.333)" fill="#12263f"/>
            <path id="Trazado_195063" data-name="Trazado 195063" d="M115.873,1.333H97.1c-1.541,0-2.787.476-2.787,1.067S95.556,3.467,97.1,3.467h18.777c1.541,0,2.787-.476,2.787-1.068s-1.247-1.067-2.787-1.067" transform="translate(-94.309 -1.333)" fill="#12263f"/>
          </g>
        </g>
      </g>
      <g id="Grupo_155255" data-name="Grupo 155255" transform="translate(0 15.371)">
        <g id="Grupo_154317" data-name="Grupo 154317">
          <g id="Grupo_154315-2" data-name="Grupo 154315" transform="translate(47.652 8.224)">
            <path id="Trazado_195058-2" data-name="Trazado 195058" d="M14.7,227.158H73.5a2.2,2.2,0,1,0,0-4.407H14.7a2.2,2.2,0,1,0,0,4.407" transform="translate(-12.5 -222.751)" fill="#7d3a1b"/>
            <path id="Trazado_195059-2" data-name="Trazado 195059" d="M84.665,227.158H99.51a2.2,2.2,0,1,0,0-4.407H84.665a2.2,2.2,0,1,0,0,4.407" transform="translate(-13.851 -222.751)" fill="#7d3a1b"/>
            <path id="Trazado_195064-2" data-name="Trazado 195064" d="M126.12,232.612h-41.3a1.548,1.548,0,1,0,0,3.1h41.3a1.548,1.548,0,0,0,0-3.1" transform="translate(-13.866 -222.941)" fill="#7d3a1b"/>
            <path id="Trazado_195065-2" data-name="Trazado 195065" d="M77.591,232.612H67.161a1.548,1.548,0,1,0,0,3.1H77.591a1.548,1.548,0,0,0,0-3.1" transform="translate(-13.525 -222.941)" fill="#7d3a1b"/>
          </g>
          <g id="Grupo_154316-2" data-name="Grupo 154316">
            <path id="Trazado_195062-2" data-name="Trazado 195062" d="M183.977,1.333h-69.41c-1.437,0-2.6.694-2.6,1.547s1.164,1.548,2.6,1.548h69.408c1.437,0,2.6-.694,2.6-1.548s-1.166-1.547-2.6-1.547" transform="translate(-66.719 -1.333)" fill="#7d3a1b"/>
            <path id="Trazado_195063-2" data-name="Trazado 195063" d="M125.591,1.333H98.352c-2.234,0-4.043.694-4.043,1.547s1.808,1.548,4.043,1.548h27.239c2.234,0,4.043-.694,4.043-1.548s-1.808-1.547-4.043-1.547" transform="translate(-94.309 -1.333)" fill="#7d3a1b"/>
          </g>
        </g>
      </g>
      <g id="Grupo_155256" data-name="Grupo 155256" transform="translate(201.709 155.617)">
        <rect id="Rectángulo_45220" data-name="Rectángulo 45220" width="106.857" height="25.376" transform="translate(48.291) rotate(90)" fill="#6a4d23"/>
        <rect id="Rectángulo_45221" data-name="Rectángulo 45221" width="3.287" height="3.287" transform="translate(0 23.055) rotate(-90)" fill="#ffe2b7"/>
        <rect id="Rectángulo_45222" data-name="Rectángulo 45222" width="3.287" height="3.287" transform="translate(0 30.038) rotate(-90)" fill="#ffe2b7"/>
        <rect id="Rectángulo_45223" data-name="Rectángulo 45223" width="3.287" height="3.287" transform="translate(0 37.022) rotate(-90)" fill="#ffe2b7"/>
        <rect id="Rectángulo_45224" data-name="Rectángulo 45224" width="3.286" height="3.287" transform="translate(0 44.005) rotate(-90)" fill="#ffe2b7"/>
        <rect id="Rectángulo_45225" data-name="Rectángulo 45225" width="3.287" height="3.287" transform="translate(0 50.989) rotate(-90)" fill="#ffe2b7"/>
        <rect id="Rectángulo_45226" data-name="Rectángulo 45226" width="3.286" height="3.287" transform="translate(0 57.972) rotate(-90)" fill="#ffe2b7"/>
        <rect id="Rectángulo_45227" data-name="Rectángulo 45227" width="3.287" height="3.287" transform="translate(0 64.955) rotate(-90)" fill="#ffe2b7"/>
        <rect id="Rectángulo_45228" data-name="Rectángulo 45228" width="3.286" height="3.287" transform="translate(0 71.939) rotate(-90)" fill="#ffe2b7"/>
        <rect id="Rectángulo_45229" data-name="Rectángulo 45229" width="3.287" height="3.287" transform="translate(0 78.923) rotate(-90)" fill="#ffe2b7"/>
        <rect id="Rectángulo_46135" data-name="Rectángulo 46135" width="3.287" height="3.287" transform="translate(0 99.873) rotate(-90)" fill="#ffe2b7"/>
        <rect id="Rectángulo_46159" data-name="Rectángulo 46159" width="3.287" height="3.287" transform="translate(0 120.824) rotate(-90)" fill="#ffe2b7"/>
        <rect id="Rectángulo_45230" data-name="Rectángulo 45230" width="3.287" height="3.287" transform="translate(0 85.906) rotate(-90)" fill="#ffe2b7"/>
        <rect id="Rectángulo_46125" data-name="Rectángulo 46125" width="3.287" height="3.287" transform="translate(0 106.857) rotate(-90)" fill="#ffe2b7"/>
        <rect id="Rectángulo_46160" data-name="Rectángulo 46160" width="3.287" height="3.287" transform="translate(0 127.807) rotate(-90)" fill="#ffe2b7"/>
        <rect id="Rectángulo_46168" data-name="Rectángulo 46168" width="3.287" height="3.287" transform="translate(0 141.773) rotate(-90)" fill="#ffe2b7"/>
        <rect id="Rectángulo_45231" data-name="Rectángulo 45231" width="3.287" height="3.287" transform="translate(0 92.889) rotate(-90)" fill="#ffe2b7"/>
        <rect id="Rectángulo_46123" data-name="Rectángulo 46123" width="3.287" height="3.287" transform="translate(0 113.84) rotate(-90)" fill="#ffe2b7"/>
        <rect id="Rectángulo_46161" data-name="Rectángulo 46161" width="3.287" height="3.287" transform="translate(0 134.79) rotate(-90)" fill="#ffe2b7"/>
        <rect id="Rectángulo_46162" data-name="Rectángulo 46162" width="3.287" height="3.287" transform="translate(0 148.757) rotate(-90)" fill="#ffe2b7"/>
        <rect id="Rectángulo_45232" data-name="Rectángulo 45232" width="3.287" height="3.287" transform="translate(6.984 23.055) rotate(-90)" fill="#ffe2b7"/>
        <rect id="Rectángulo_45233" data-name="Rectángulo 45233" width="3.287" height="3.287" transform="translate(6.984 30.038) rotate(-90)" fill="#ffe2b7"/>
        <rect id="Rectángulo_45234" data-name="Rectángulo 45234" width="3.287" height="3.287" transform="translate(6.984 37.022) rotate(-90)" fill="#ffe2b7"/>
        <rect id="Rectángulo_45235" data-name="Rectángulo 45235" width="3.286" height="3.287" transform="translate(6.984 44.005) rotate(-90)" fill="#ffe2b7"/>
        <rect id="Rectángulo_45236" data-name="Rectángulo 45236" width="3.287" height="3.287" transform="translate(6.984 50.989) rotate(-90)" fill="#ffe2b7"/>
        <rect id="Rectángulo_45237" data-name="Rectángulo 45237" width="3.286" height="3.287" transform="translate(6.984 57.972) rotate(-90)" fill="#ffe2b7"/>
        <rect id="Rectángulo_45238" data-name="Rectángulo 45238" width="3.287" height="3.287" transform="translate(6.984 64.955) rotate(-90)" fill="#ffe2b7"/>
        <rect id="Rectángulo_45239" data-name="Rectángulo 45239" width="3.286" height="3.287" transform="translate(6.984 71.939) rotate(-90)" fill="#ffe2b7"/>
        <rect id="Rectángulo_45240" data-name="Rectángulo 45240" width="3.287" height="3.287" transform="translate(6.984 78.923) rotate(-90)" fill="#ffe2b7"/>
        <rect id="Rectángulo_46136" data-name="Rectángulo 46136" width="3.287" height="3.287" transform="translate(6.984 99.873) rotate(-90)" fill="#ffe2b7"/>
        <rect id="Rectángulo_46156" data-name="Rectángulo 46156" width="3.287" height="3.287" transform="translate(6.984 120.824) rotate(-90)" fill="#ffe2b7"/>
        <rect id="Rectángulo_45241" data-name="Rectángulo 45241" width="3.287" height="3.287" transform="translate(6.984 85.906) rotate(-90)" fill="#ffe2b7"/>
        <rect id="Rectángulo_46126" data-name="Rectángulo 46126" width="3.287" height="3.287" transform="translate(6.984 106.857) rotate(-90)" fill="#ffe2b7"/>
        <rect id="Rectángulo_46157" data-name="Rectángulo 46157" width="3.287" height="3.287" transform="translate(6.984 127.807) rotate(-90)" fill="#ffe2b7"/>
        <rect id="Rectángulo_46169" data-name="Rectángulo 46169" width="3.287" height="3.287" transform="translate(6.984 141.773) rotate(-90)" fill="#ffe2b7"/>
        <rect id="Rectángulo_45242" data-name="Rectángulo 45242" width="3.287" height="3.287" transform="translate(6.984 92.889) rotate(-90)" fill="#ffe2b7"/>
        <rect id="Rectángulo_46124" data-name="Rectángulo 46124" width="3.287" height="3.287" transform="translate(6.984 113.84) rotate(-90)" fill="#ffe2b7"/>
        <rect id="Rectángulo_46158" data-name="Rectángulo 46158" width="3.287" height="3.287" transform="translate(6.984 134.79) rotate(-90)" fill="#ffe2b7"/>
        <rect id="Rectángulo_46163" data-name="Rectángulo 46163" width="3.287" height="3.287" transform="translate(6.984 148.757) rotate(-90)" fill="#ffe2b7"/>
        <rect id="Rectángulo_45243" data-name="Rectángulo 45243" width="3.287" height="3.287" transform="translate(12.856 23.055) rotate(-90)" fill="#ffe2b7"/>
        <rect id="Rectángulo_45244" data-name="Rectángulo 45244" width="3.287" height="3.287" transform="translate(12.856 30.038) rotate(-90)" fill="#ffe2b7"/>
        <rect id="Rectángulo_45245" data-name="Rectángulo 45245" width="3.287" height="3.287" transform="translate(12.856 37.022) rotate(-90)" fill="#ffe2b7"/>
        <rect id="Rectángulo_45246" data-name="Rectángulo 45246" width="3.286" height="3.287" transform="translate(12.856 44.005) rotate(-90)" fill="#ffe2b7"/>
        <rect id="Rectángulo_45247" data-name="Rectángulo 45247" width="3.287" height="3.287" transform="translate(12.856 50.989) rotate(-90)" fill="#ffe2b7"/>
        <rect id="Rectángulo_45248" data-name="Rectángulo 45248" width="3.286" height="3.287" transform="translate(12.856 57.972) rotate(-90)" fill="#ffe2b7"/>
        <rect id="Rectángulo_45249" data-name="Rectángulo 45249" width="3.287" height="3.287" transform="translate(12.856 64.955) rotate(-90)" fill="#ffe2b7"/>
        <rect id="Rectángulo_45250" data-name="Rectángulo 45250" width="3.286" height="3.287" transform="translate(12.856 71.939) rotate(-90)" fill="#ffe2b7"/>
        <rect id="Rectángulo_45251" data-name="Rectángulo 45251" width="3.287" height="3.287" transform="translate(12.856 78.923) rotate(-90)" fill="#ffe2b7"/>
        <rect id="Rectángulo_46137" data-name="Rectángulo 46137" width="3.287" height="3.287" transform="translate(12.856 99.873) rotate(-90)" fill="#ffe2b7"/>
        <rect id="Rectángulo_46146" data-name="Rectángulo 46146" width="3.287" height="3.287" transform="translate(12.856 120.824) rotate(-90)" fill="#ffe2b7"/>
        <rect id="Rectángulo_45252" data-name="Rectángulo 45252" width="3.287" height="3.287" transform="translate(12.856 85.906) rotate(-90)" fill="#ffe2b7"/>
        <rect id="Rectángulo_46127" data-name="Rectángulo 46127" width="3.287" height="3.287" transform="translate(12.856 106.857) rotate(-90)" fill="#ffe2b7"/>
        <rect id="Rectángulo_46147" data-name="Rectángulo 46147" width="3.287" height="3.287" transform="translate(12.856 127.807) rotate(-90)" fill="#ffe2b7"/>
        <rect id="Rectángulo_46170" data-name="Rectángulo 46170" width="3.287" height="3.287" transform="translate(12.856 141.773) rotate(-90)" fill="#ffe2b7"/>
        <rect id="Rectángulo_45253" data-name="Rectángulo 45253" width="3.287" height="3.287" transform="translate(12.856 92.889) rotate(-90)" fill="#ffe2b7"/>
        <rect id="Rectángulo_46128" data-name="Rectángulo 46128" width="3.287" height="3.287" transform="translate(12.856 113.84) rotate(-90)" fill="#ffe2b7"/>
        <rect id="Rectángulo_46148" data-name="Rectángulo 46148" width="3.287" height="3.287" transform="translate(12.856 134.79) rotate(-90)" fill="#ffe2b7"/>
        <rect id="Rectángulo_46164" data-name="Rectángulo 46164" width="3.287" height="3.287" transform="translate(12.856 148.757) rotate(-90)" fill="#ffe2b7"/>
        <rect id="Rectángulo_45221-2" data-name="Rectángulo 45221" width="3.287" height="3.287" transform="translate(18.747 23.055) rotate(-90)" fill="#ffe2b7"/>
        <rect id="Rectángulo_45222-2" data-name="Rectángulo 45222" width="3.287" height="3.287" transform="translate(18.747 30.038) rotate(-90)" fill="#ffe2b7"/>
        <rect id="Rectángulo_45223-2" data-name="Rectángulo 45223" width="3.287" height="3.287" transform="translate(18.747 37.022) rotate(-90)" fill="#ffe2b7"/>
        <rect id="Rectángulo_45224-2" data-name="Rectángulo 45224" width="3.286" height="3.287" transform="translate(18.747 44.005) rotate(-90)" fill="#ffe2b7"/>
        <rect id="Rectángulo_45225-2" data-name="Rectángulo 45225" width="3.287" height="3.287" transform="translate(18.747 50.989) rotate(-90)" fill="#ffe2b7"/>
        <rect id="Rectángulo_45226-2" data-name="Rectángulo 45226" width="3.286" height="3.287" transform="translate(18.747 57.972) rotate(-90)" fill="#ffe2b7"/>
        <rect id="Rectángulo_45227-2" data-name="Rectángulo 45227" width="3.287" height="3.287" transform="translate(18.747 64.955) rotate(-90)" fill="#ffe2b7"/>
        <rect id="Rectángulo_45228-2" data-name="Rectángulo 45228" width="3.286" height="3.287" transform="translate(18.747 71.939) rotate(-90)" fill="#ffe2b7"/>
        <rect id="Rectángulo_45229-2" data-name="Rectángulo 45229" width="3.287" height="3.287" transform="translate(18.747 78.923) rotate(-90)" fill="#ffe2b7"/>
        <rect id="Rectángulo_46138" data-name="Rectángulo 46138" width="3.287" height="3.287" transform="translate(18.747 99.873) rotate(-90)" fill="#ffe2b7"/>
        <rect id="Rectángulo_46149" data-name="Rectángulo 46149" width="3.287" height="3.287" transform="translate(18.747 120.824) rotate(-90)" fill="#ffe2b7"/>
        <rect id="Rectángulo_45230-2" data-name="Rectángulo 45230" width="3.287" height="3.287" transform="translate(18.747 85.906) rotate(-90)" fill="#ffe2b7"/>
        <rect id="Rectángulo_46129" data-name="Rectángulo 46129" width="3.287" height="3.287" transform="translate(18.747 106.857) rotate(-90)" fill="#ffe2b7"/>
        <rect id="Rectángulo_46150" data-name="Rectángulo 46150" width="3.287" height="3.287" transform="translate(18.747 127.807) rotate(-90)" fill="#ffe2b7"/>
        <rect id="Rectángulo_46171" data-name="Rectángulo 46171" width="3.287" height="3.287" transform="translate(18.747 141.773) rotate(-90)" fill="#ffe2b7"/>
        <rect id="Rectángulo_45231-2" data-name="Rectángulo 45231" width="3.287" height="3.287" transform="translate(18.747 92.889) rotate(-90)" fill="#ffe2b7"/>
        <rect id="Rectángulo_46130" data-name="Rectángulo 46130" width="3.287" height="3.287" transform="translate(18.747 113.84) rotate(-90)" fill="#ffe2b7"/>
        <rect id="Rectángulo_46151" data-name="Rectángulo 46151" width="3.287" height="3.287" transform="translate(18.747 134.79) rotate(-90)" fill="#ffe2b7"/>
        <rect id="Rectángulo_46165" data-name="Rectángulo 46165" width="3.287" height="3.287" transform="translate(18.747 148.757) rotate(-90)" fill="#ffe2b7"/>
        <rect id="Rectángulo_45232-2" data-name="Rectángulo 45232" width="3.287" height="3.287" transform="translate(25.175 23.055) rotate(-90)" fill="#ffe2b7"/>
        <rect id="Rectángulo_45233-2" data-name="Rectángulo 45233" width="3.287" height="3.287" transform="translate(25.175 30.038) rotate(-90)" fill="#ffe2b7"/>
        <rect id="Rectángulo_45234-2" data-name="Rectángulo 45234" width="3.287" height="3.287" transform="translate(25.175 37.022) rotate(-90)" fill="#ffe2b7"/>
        <rect id="Rectángulo_45235-2" data-name="Rectángulo 45235" width="3.286" height="3.287" transform="translate(25.175 44.005) rotate(-90)" fill="#ffe2b7"/>
        <rect id="Rectángulo_45236-2" data-name="Rectángulo 45236" width="3.287" height="3.287" transform="translate(25.175 50.989) rotate(-90)" fill="#ffe2b7"/>
        <rect id="Rectángulo_45237-2" data-name="Rectángulo 45237" width="3.286" height="3.287" transform="translate(25.175 57.972) rotate(-90)" fill="#ffe2b7"/>
        <rect id="Rectángulo_45238-2" data-name="Rectángulo 45238" width="3.287" height="3.287" transform="translate(25.175 64.955) rotate(-90)" fill="#ffe2b7"/>
        <rect id="Rectángulo_45239-2" data-name="Rectángulo 45239" width="3.286" height="3.287" transform="translate(25.175 71.939) rotate(-90)" fill="#ffe2b7"/>
        <rect id="Rectángulo_45240-2" data-name="Rectángulo 45240" width="3.287" height="3.287" transform="translate(25.175 78.923) rotate(-90)" fill="#ffe2b7"/>
        <rect id="Rectángulo_46139" data-name="Rectángulo 46139" width="3.287" height="3.287" transform="translate(25.175 99.873) rotate(-90)" fill="#ffe2b7"/>
        <rect id="Rectángulo_46152" data-name="Rectángulo 46152" width="3.287" height="3.287" transform="translate(25.175 120.824) rotate(-90)" fill="#ffe2b7"/>
        <rect id="Rectángulo_45241-2" data-name="Rectángulo 45241" width="3.287" height="3.287" transform="translate(25.175 85.906) rotate(-90)" fill="#ffe2b7"/>
        <rect id="Rectángulo_46131" data-name="Rectángulo 46131" width="3.287" height="3.287" transform="translate(25.175 106.857) rotate(-90)" fill="#ffe2b7"/>
        <rect id="Rectángulo_46153" data-name="Rectángulo 46153" width="3.287" height="3.287" transform="translate(25.175 127.807) rotate(-90)" fill="#ffe2b7"/>
        <rect id="Rectángulo_46172" data-name="Rectángulo 46172" width="3.287" height="3.287" transform="translate(25.175 141.773) rotate(-90)" fill="#ffe2b7"/>
        <rect id="Rectángulo_45242-2" data-name="Rectángulo 45242" width="3.287" height="3.287" transform="translate(25.175 92.889) rotate(-90)" fill="#ffe2b7"/>
        <rect id="Rectángulo_46132" data-name="Rectángulo 46132" width="3.287" height="3.287" transform="translate(25.175 113.84) rotate(-90)" fill="#ffe2b7"/>
        <rect id="Rectángulo_46154" data-name="Rectángulo 46154" width="3.287" height="3.287" transform="translate(25.175 134.79) rotate(-90)" fill="#ffe2b7"/>
        <rect id="Rectángulo_46166" data-name="Rectángulo 46166" width="3.287" height="3.287" transform="translate(25.175 148.757) rotate(-90)" fill="#ffe2b7"/>
        <rect id="Rectángulo_45243-2" data-name="Rectángulo 45243" width="3.287" height="3.287" transform="translate(31.603 23.055) rotate(-90)" fill="#ffe2b7"/>
        <rect id="Rectángulo_45244-2" data-name="Rectángulo 45244" width="3.287" height="3.287" transform="translate(31.603 30.038) rotate(-90)" fill="#ffe2b7"/>
        <rect id="Rectángulo_45245-2" data-name="Rectángulo 45245" width="3.287" height="3.287" transform="translate(31.603 37.022) rotate(-90)" fill="#ffe2b7"/>
        <rect id="Rectángulo_45246-2" data-name="Rectángulo 45246" width="3.286" height="3.287" transform="translate(31.603 44.005) rotate(-90)" fill="#ffe2b7"/>
        <rect id="Rectángulo_45247-2" data-name="Rectángulo 45247" width="3.287" height="3.287" transform="translate(31.603 50.989) rotate(-90)" fill="#ffe2b7"/>
        <rect id="Rectángulo_45248-2" data-name="Rectángulo 45248" width="3.286" height="3.287" transform="translate(31.603 57.972) rotate(-90)" fill="#ffe2b7"/>
        <rect id="Rectángulo_45249-2" data-name="Rectángulo 45249" width="3.287" height="3.287" transform="translate(31.603 64.955) rotate(-90)" fill="#ffe2b7"/>
        <rect id="Rectángulo_45250-2" data-name="Rectángulo 45250" width="3.286" height="3.287" transform="translate(31.603 71.939) rotate(-90)" fill="#ffe2b7"/>
        <rect id="Rectángulo_45251-2" data-name="Rectángulo 45251" width="3.287" height="3.287" transform="translate(31.603 78.923) rotate(-90)" fill="#ffe2b7"/>
        <rect id="Rectángulo_46140" data-name="Rectángulo 46140" width="3.287" height="3.287" transform="translate(31.603 99.873) rotate(-90)" fill="#ffe2b7"/>
        <rect id="Rectángulo_46144" data-name="Rectángulo 46144" width="3.287" height="3.287" transform="translate(31.603 120.824) rotate(-90)" fill="#ffe2b7"/>
        <rect id="Rectángulo_45252-2" data-name="Rectángulo 45252" width="3.287" height="3.287" transform="translate(31.603 85.906) rotate(-90)" fill="#ffe2b7"/>
        <rect id="Rectángulo_46133" data-name="Rectángulo 46133" width="3.287" height="3.287" transform="translate(31.603 106.857) rotate(-90)" fill="#ffe2b7"/>
        <rect id="Rectángulo_46145" data-name="Rectángulo 46145" width="3.287" height="3.287" transform="translate(31.603 127.807) rotate(-90)" fill="#ffe2b7"/>
        <rect id="Rectángulo_46173" data-name="Rectángulo 46173" width="3.287" height="3.287" transform="translate(31.603 141.773) rotate(-90)" fill="#ffe2b7"/>
        <rect id="Rectángulo_45253-2" data-name="Rectángulo 45253" width="3.287" height="3.287" transform="translate(31.603 92.889) rotate(-90)" fill="#ffe2b7"/>
        <rect id="Rectángulo_46134" data-name="Rectángulo 46134" width="3.287" height="3.287" transform="translate(31.603 113.84) rotate(-90)" fill="#ffe2b7"/>
        <rect id="Rectángulo_46155" data-name="Rectángulo 46155" width="3.287" height="3.287" transform="translate(31.603 134.79) rotate(-90)" fill="#ffe2b7"/>
        <rect id="Rectángulo_46167" data-name="Rectángulo 46167" width="3.287" height="3.287" transform="translate(31.603 148.757) rotate(-90)" fill="#ffe2b7"/>
      </g>
    </g>
    <g id="Group_1100844" data-name="Group 1100844" transform="translate(2.444 45.409)">
      <g id="Group_1100843" data-name="Group 1100843" clip-path="url(#clip-path-3)">
        <g id="Group_1100842" data-name="Group 1100842">
          <g id="Group_1100841" data-name="Group 1100841" clip-path="url(#clip-path-4)">
            <path id="Path_880496" data-name="Path 880496" d="M57.953,106l-2.979-1.052C56.32,101.969,59.056,93,58.245,91.236c-3.406-.912-32.953-.817-37.192.164-.066.014-.141.117-.179.178-1.134,1.751.088,7.939,1.318,11.774l-3.086.773c-.554-1.732-3.219-10.55-1.015-13.957a3.449,3.449,0,0,1,2.154-1.516c3.815-.88,36.224-1.492,39.647.123,4.535,2.139-1.87,17.074-1.939,17.224" transform="translate(30.297 152.002)" fill="#292929"/>
            <path id="Path_880497" data-name="Path 880497" d="M50.414,91.77H21.508a1.931,1.931,0,0,1-1.939-1.92v-.257a1.931,1.931,0,0,1,1.939-1.921H50.414a1.931,1.931,0,0,1,1.939,1.921v.257a1.931,1.931,0,0,1-1.939,1.92" transform="translate(34.407 151.834)" fill="#292929"/>
            <path id="Path_880498" data-name="Path 880498" d="M122.6,294.6H16.737A16.659,16.659,0,0,1,0,278.021V109.374A16.658,16.658,0,0,1,16.737,92.8H122.6a16.659,16.659,0,0,1,16.74,16.577V278.021A16.66,16.66,0,0,1,122.6,294.6" transform="translate(0 160.71)" fill="#292929"/>
            <rect id="Rectangle_402419" data-name="Rectangle 402419" width="8.553" height="201.804" transform="translate(25.122 253.507)" fill="#5054dc"/>
            <rect id="Rectangle_402420" data-name="Rectangle 402420" width="8.553" height="201.804" transform="translate(105.66 253.507)" fill="#5054dc"/>
            <path id="Path_880499" data-name="Path 880499" d="M35.8,146.571c0,6-4.1,10.87-9.155,10.87s-9.155-4.868-9.155-10.87,4.1-10.87,9.155-10.87,9.155,4.868,9.155,10.87" transform="translate(30.75 235.013)" fill="#f8be74"/>
            <path id="Path_880500" data-name="Path 880500" d="M32.733,145.161c0,4.775-3.26,8.646-7.284,8.646s-7.282-3.871-7.282-8.646,3.26-8.646,7.282-8.646,7.284,3.871,7.284,8.646" transform="translate(31.942 236.423)" fill="#fff"/>
            <path id="Path_880501" data-name="Path 880501" d="M41.2,140,25.712,156.5l19.777,7.676Z" transform="translate(45.208 242.465)" fill="#fff"/>
            <path id="Path_880502" data-name="Path 880502" d="M37.409,141.68,27.151,152.605l13.1,5.084Z" transform="translate(47.738 245.368)" fill="#fc4b43"/>
            <path id="Path_880503" data-name="Path 880503" d="M89.933,91.5c-.063.03-.121.057-.185.09q-3.914,1.9-7.817,3.836A184.022,184.022,0,0,1,59.2,106.762q-3.922,1.955-7.85,3.9c-.488.24-.985.5-1.476.743l22.273,50.933s13.926,47.31,56.2,129.8l9.224-3.732S109.15,167.573,89.933,91.5" transform="translate(87.697 158.462)" fill="#e29579"/>
            <g id="Group_1100825" data-name="Group 1100825" transform="translate(137.588 249.96)" opacity="0.5" style="mix-blend-mode: screen;isolation: isolate">
              <g id="Group_1100824" data-name="Group 1100824">
                <g id="Group_1100823" data-name="Group 1100823" clip-path="url(#clip-path-5)">
                  <path id="Path_880504" data-name="Path 880504" d="M137.57,288.4l-3.037,1.218c-1.964-8.335-29-123.141-47.494-196.4-.061.014-.127.052-.185.063-2.615,1.281-5.23,2.562-7.82,3.849a186.535,186.535,0,0,1-22.717,11.326c-2.11,1.046-4.22,2.1-6.338,3.169l-.1-.229c.48-.238.965-.505,1.473-.738,2.615-1.281,5.213-2.6,7.836-3.9A180.48,180.48,0,0,0,81.914,95.413c2.618-1.281,5.208-2.571,7.814-3.822.066-.041.124-.052.19-.093C109.133,167.563,137.57,288.4,137.57,288.4" transform="translate(-49.882 -91.5)" fill="#e29579"/>
                </g>
              </g>
            </g>
            <path id="Path_880505" data-name="Path 880505" d="M114.458,175.534,93.07,181.915l-1.357-.8.389,1.079-6.556,1.956a1.342,1.342,0,0,1-1.443-.4,9.622,9.622,0,0,1-1.423-3.718A26.572,26.572,0,0,0,75.859,167.6a6.331,6.331,0,0,1,6.976-2.606c-.163-1.582-.306-3.54.615-4.849a5,5,0,0,1,2.22-1.617,10.4,10.4,0,0,1,4.46-.809c1.065,4.131,2.75,8.521,6.068,10.971,2.722,2.013,6.352,2.267,9.723,1.781a27.791,27.791,0,0,1,4.25-.508,5.319,5.319,0,0,1,3.87,1.47,3.458,3.458,0,0,1,.416,4.106" transform="translate(133.378 273.12)" fill="#292929"/>
            <path id="Path_880506" data-name="Path 880506" d="M138.765,178.463,114.4,197.239l-14.128,10.878L80.114,184.711,31.026,127.64,71.431,58.167Z" transform="translate(54.551 100.735)" fill="#12263f"/>
            <g id="Group_1100828" data-name="Group 1100828" transform="translate(126.748 217.683)" opacity="0.5" style="mix-blend-mode: multiply;isolation: isolate">
              <g id="Group_1100827" data-name="Group 1100827">
                <g id="Group_1100826" data-name="Group 1100826" clip-path="url(#clip-path-6)">
                  <path id="Path_880507" data-name="Path 880507" d="M88.154,159.975,74.029,170.856l-20.16-23.409c-3.679-22.409-6.063-45.2-7.916-67.763,13.684,21.45,26.308,43.581,38.08,66.272-.618.653-1.059,1.587-1.677,2.24a35.916,35.916,0,0,1,5.8,11.78" transform="translate(-45.952 -79.685)" fill="#f8be74"/>
                </g>
              </g>
            </g>
            <path id="Path_880508" data-name="Path 880508" d="M108.732,197.512c-1.892-14.539-3.875-29.7-5.881-44.857a47.232,47.232,0,0,0-10.683-24.33c-9.51-11.233-18.913-22.3-27.836-32.744-6.567,10.963-13.041,21.991-19.319,33.143-1.542,2.737-3.064,5.483-4.59,8.228l25.428,21.18c4,18.011,16.527,68.651,45.654,146.826l10.605-2.787s-5.958-47.537-13.38-104.66" transform="translate(71.075 165.531)" fill="#e29579"/>
            <g id="Group_1100831" data-name="Group 1100831" transform="translate(132.663 261.108)" opacity="0.5" style="mix-blend-mode: screen;isolation: isolate">
              <g id="Group_1100830" data-name="Group 1100830">
                <g id="Group_1100829" data-name="Group 1100829" clip-path="url(#clip-path-7)">
                  <path id="Path_880509" data-name="Path 880509" d="M108.632,302.167l-3.856,1.025c-1.354-10.785-6.65-52.842-13.035-101.985-1.884-14.547-3.886-29.717-5.886-44.857a47.111,47.111,0,0,0-10.683-24.338C65.932,121.1,56.808,110.345,48.1,100.179c.913-1.522,1.823-3.076,2.736-4.6,8.917,10.447,18.334,21.511,27.839,32.733A47.422,47.422,0,0,1,89.355,152.65c2,15.17,4,30.34,5.886,44.857,7.417,57.131,13.391,104.66,13.391,104.66" transform="translate(-48.097 -95.58)" fill="#e29579"/>
                </g>
              </g>
            </g>
            <path id="Path_880510" data-name="Path 880510" d="M102.726,191.529H78.188l-1.244-1.314.135,1.306H69.555a1.574,1.574,0,0,1-1.437-.907,11.546,11.546,0,0,1-.56-4.518,32.151,32.151,0,0,0-4.071-15.779,6.71,6.71,0,0,1,8.14-.571c.237-1.781.59-3.964,1.917-5.089a5.107,5.107,0,0,1,2.794-1.041,11.242,11.242,0,0,1,4.981.568c.069,4.852.734,10.187,3.646,13.938,2.391,3.082,6.209,4.54,9.943,5.106a30.371,30.371,0,0,1,4.678.828,6.294,6.294,0,0,1,3.757,2.86,3.945,3.945,0,0,1-.618,4.614" transform="translate(111.625 283.235)" fill="#292929"/>
            <path id="Path_880511" data-name="Path 880511" d="M128.676,184.171l-21.63,31.8-1.738,2.549-3.177,4.663s-65.42-45.1-81.578-78.86C4.4,110.594,46.274,57.689,46.274,57.689H95.98l22.309,44.791L89.035,130.52Z" transform="translate(29.619 99.908)" fill="#12263f"/>
            <g id="Group_1100834" data-name="Group 1100834" transform="translate(54.053 157.597)" opacity="0.5" style="mix-blend-mode: multiply;isolation: isolate">
              <g id="Group_1100833" data-name="Group 1100833">
                <g id="Group_1100832" data-name="Group 1100832" clip-path="url(#clip-path-8)">
                  <path id="Path_880512" data-name="Path 880512" d="M102.21,215.969l-1.738,2.549c-9.3-8.734-76.13-71.867-80.4-87.627-4.148-15.479,20.072-64.034,24.78-73.2H48.03l.149.093c-.3.56-29.461,56.729-25.252,72.238,3.326,12.373,52.619,60.958,79.283,85.949" transform="translate(-19.598 -57.689)" fill="#f8be74"/>
                </g>
              </g>
            </g>
            <path id="Path_880513" data-name="Path 880513" d="M131.892,98.4c5.136-.839,10.583-.407,13.6-3.98a3.3,3.3,0,0,0,.245-1.817,17.533,17.533,0,0,0-6.526-13.088C107.6,54.186,75.147,36.965,67.374,33.214a27.705,27.705,0,0,0-26.7.978c-4.413,5.491-2.893,14.072,3.238,18.292l8.286,5.7a520.49,520.49,0,0,1,56.737,35.1c7.944,1.767,15.016,3.344,22.957,5.111" transform="translate(67.059 52.413)" fill="#e29579"/>
            <path id="Path_880514" data-name="Path 880514" d="M88.964,60.263C86.685,57.419,75.52,43.449,73.5,39.894l5.238-18.943-18.6-5.737-6.49,23.472c-2.5,2.89-6.978,5.811-13.893,5.445a12.778,12.778,0,0,0-9.372,3.278c-3.655,3.349-7.034,9.958-5.914,22.988,2.154,25.032,9.75,47.709,8.164,63.223l50.109,4.658c.182-7.493-.7-22.183,1.889-29.63,2.8-8.078,9.174-9.075,11.916-21.74s-4.386-22.661-7.58-26.646" transform="translate(42.632 26.35)" fill="#e29579"/>
            <path id="Path_880515" data-name="Path 880515" d="M52.152,35.038l-.93,3.366c-.342-.137-.684-.292-1.015-.464C46.44,35.95,41.288,32.344,39,26.722a38.982,38.982,0,0,1-1.947-10.07l.3-1.076a31.2,31.2,0,0,0,1.666,7.469C41.3,28.67,46.448,32.27,50.222,34.262a9.6,9.6,0,0,0,1.931.776" transform="translate(65.144 26.975)" fill="#de7b58"/>
            <path id="Path_880516" data-name="Path 880516" d="M95.022,76.557c-.56,2.237-9.417,13.615-10.771,17.252-1.324,3.7-1.531,24.4-1.531,24.4-16.922,16.071-53.5-.59-53.5-.59,1.147-6.715-3.884-43.7-4.179-46,.234.9,1.8,5.688,6.885,1.057,1.768-1.587,2.709-6.559,3.18-12.558.941-12.591-.237-29.747-.3-30.681V29.4a48.154,48.154,0,0,0,9.124-1.773A26.223,26.223,0,0,0,52.2,23.838s1.647,21.2,13.388,24.868,9.243-19.489,9.243-19.489.764-2.86,11.918,12.37a47.413,47.413,0,0,1,8.8,25.955,35.53,35.53,0,0,1-.53,9.015" transform="translate(44.026 41.284)" fill="#7d3a1b"/>
            <g id="Group_1100837" data-name="Group 1100837" transform="translate(69.067 68.913)" opacity="0.5" style="mix-blend-mode: multiply;isolation: isolate">
              <g id="Group_1100836" data-name="Group 1100836">
                <g id="Group_1100835" data-name="Group 1100835" clip-path="url(#clip-path-9)">
                  <path id="Path_880517" data-name="Path 880517" d="M95.022,74.153c-.56,2.237-9.417,13.616-10.771,17.252-1.324,3.7-1.531,24.4-1.531,24.4-16.922,16.071-53.5-.59-53.5-.59,1.147-6.715-3.884-43.7-4.179-46,.234.9,1.8,5.688,6.885,1.057,1.768-1.587,2.709-6.559,3.18-12.558.941-12.591-.237-29.747-.3-30.681V27a48.154,48.154,0,0,0,9.124-1.773c.116,1.617-.706,4.1-.855,5.658-.177,2.022-.265,4.073-.265,6.125a65.731,65.731,0,0,0,1.178,12.463c.852,4.508,2.648,9.419,6.65,11.16,3.71,1.587,7.916-.186,11.891.188,3.442.309,6.62,2.2,10.034,2.735,3.826.62,7.712-.5,11.538-1.057,3.853-.527,8.151-.372,11.124,2.3a3.945,3.945,0,0,1,.323.341,35.529,35.529,0,0,1-.53,9.015" transform="translate(-25.041 -25.226)" fill="#fc4b43"/>
                </g>
              </g>
            </g>
            <path id="Path_880518" data-name="Path 880518" d="M39.315,135.61l-11.9,2.216,5.8-98.212L46.95,42.744Z" transform="translate(48.199 68.604)" fill="#fff"/>
            <path id="Path_880519" data-name="Path 880519" d="M31.721,135.61l11.538,2.216L53.608,39.613,39.353,42.744Z" transform="translate(55.773 68.604)" fill="#f0f0f0"/>
            <path id="Path_880520" data-name="Path 880520" d="M47.9,135.61l-12,2.216L46.241,39.613l13.6,3.131Z" transform="translate(63.116 68.604)" fill="#fff"/>
            <path id="Path_880521" data-name="Path 880521" d="M40.243,135.61l11.436,2.216L66.57,39.613l-14.4,3.131Z" transform="translate(70.756 68.604)" fill="#f0f0f0"/>
            <path id="Path_880522" data-name="Path 880522" d="M56.518,135.61,44.41,137.826,59.315,39.613l13.449,3.131Z" transform="translate(78.082 68.604)" fill="#fff"/>
            <path id="Path_880523" data-name="Path 880523" d="M48.792,135.61l11.334,2.216L79.58,39.613,65.036,42.744Z" transform="translate(85.789 68.604)" fill="#f0f0f0"/>
            <path id="Path_880524" data-name="Path 880524" d="M65.1,135.61l-12.211,2.216L72.345,39.613l13.3,3.131Z" transform="translate(93 68.604)" fill="#fff"/>
            <path id="Path_880525" data-name="Path 880525" d="M57.314,135.61l11.232,2.216,24-98.212L77.854,42.744Z" transform="translate(100.771 68.604)" fill="#f0f0f0"/>
            <path id="Path_880526" data-name="Path 880526" d="M88.238,48.075c-13.16,5.57-21.258,8.559-21.258,8.559l2.582,11.578a183.879,183.879,0,0,0,20.245-2.032c3.751-.579,5.7-5.024,3.773-8.471q-2.689-4.807-5.343-9.632" transform="translate(117.767 83.258)" fill="#e29579"/>
            <path id="Path_880527" data-name="Path 880527" d="M85.938,63.167S71.446,71.4,66.313,70.854c-1.145-.123.629-1.716,3.307-3.319,0,0-7.718,1.855-8.666,1.609s9.662-5.425,9.662-5.425-11.918,3.51-12.63,2.6,10.4-5.384,10.4-5.384-9.6,2.751-10.236,1.814S70.666,56.73,70.666,56.73s-4.8-3.073-3.633-4.221,6.89-.279,9.006.415,10.156-2.12,10.156-2.12Z" transform="translate(101.895 87.986)" fill="#e29579"/>
            <path id="Path_880528" data-name="Path 880528" d="M36.962,96.2c16.1,3.773,25.966,5.819,25.966,5.819l2.493,11.089a214.354,214.354,0,0,1-44.62,3.172c-.725-.016-1.465-.033-2.187-.066C5.623,115.793-1.471,99.926,6.5,89.081a2.336,2.336,0,0,0,.171-.227C28.729,59.006,50.014,38.34,56.1,32.961A26.732,26.732,0,0,1,73.3,25.888c.063.926,1.233,18.1.292,30.662A518.084,518.084,0,0,0,36.962,96.2" transform="translate(5.526 44.834)" fill="#e29579"/>
            <path id="Path_880529" data-name="Path 880529" d="M29.693,71.006s16.152-2.565,20.028-6.291c.863-.83-1.423-1-4.452-.582,0,0,7.251-3.426,7.9-4.232s-10.741,1.765-10.741,1.765S53.974,56.9,54.067,55.708s-11.312,2.273-11.312,2.273,9.254-3.9,9.273-5.068-13.361,3.106-13.361,3.106,2.267-5.565.7-5.751-5.74,4.18-7.089,6.092S22.9,61.13,22.9,61.13Z" transform="translate(40.267 87.048)" fill="#e29579"/>
            <g id="Group_1100840" data-name="Group 1100840" transform="translate(31.31 111.208)" opacity="0.5" style="mix-blend-mode: multiply;isolation: isolate">
              <g id="Group_1100839" data-name="Group 1100839">
                <g id="Group_1100838" data-name="Group 1100838" clip-path="url(#clip-path-10)">
                  <path id="Path_880530" data-name="Path 880530" d="M48.629,40.708,19.2,69.2l-7.85-.776,7.85,3.109-5.4,2.071,33.844,2.333-25.116-5.4Z" transform="translate(-11.352 -40.708)" fill="#e29579"/>
                </g>
              </g>
            </g>
            <path id="Path_880531" data-name="Path 880531" d="M112.632,7.591c.954,4.163-17.462,9.892-41.131,12.8s-43.627,1.885-44.579-2.278,17.46-9.892,41.128-12.8,43.63-1.885,44.581,2.278" transform="translate(47.274 6.336)" fill="#bb841f"/>
            <path id="Path_880532" data-name="Path 880532" d="M75.02,42.849a20.065,20.065,0,0,1-.789,2.213,17.816,17.816,0,0,1-2.336,3.819A26.546,26.546,0,0,1,62.7,55.9a9.833,9.833,0,0,1-8.967-.158c-3.768-1.975-8.915-5.576-11.2-11.211a32.644,32.644,0,0,1-1.716-7.947,2.776,2.776,0,0,1-.976.107c-3.018-.273-5.026-5.77-4.769-8.958A5.615,5.615,0,0,1,40,22.477a20.982,20.982,0,0,1,.736-5.106C43.032,9.083,50.366,3.029,59,3.172c10.63.178,19.01,9.657,18.414,20.855-.392,7.043-1.089,14.263-2.4,18.822" transform="translate(61.626 5.488)" fill="#e29579"/>
            <path id="Path_880533" data-name="Path 880533" d="M47.379,20.146a4.48,4.48,0,0,1-5.591,3.237,4.807,4.807,0,0,1-3.064-5.906,4.478,4.478,0,0,1,5.591-3.237,4.807,4.807,0,0,1,3.064,5.906" transform="translate(67.766 24.328)" fill="#dd8d74"/>
            <path id="Path_880534" data-name="Path 880534" d="M55.144,19.793a20.068,20.068,0,0,1-.789,2.213,17.817,17.817,0,0,1-2.336,3.819,4.266,4.266,0,0,1-2.433-.022,4.806,4.806,0,0,1-3.051-5.9,4.468,4.468,0,0,1,5.574-3.226,4.635,4.635,0,0,1,3.034,3.12" transform="translate(81.501 28.544)" fill="#dd8d74"/>
            <path id="Path_880535" data-name="Path 880535" d="M45.186,15.266c-.414,1.492-1.307,2.53-2,2.317s-.916-1.6-.5-3.087,1.3-2.53,2-2.317.916,1.6.5,3.087" transform="translate(74.69 21.043)" fill="#292929"/>
            <path id="Path_880536" data-name="Path 880536" d="M42.743,11.6A2.884,2.884,0,0,0,44.45,13.29a.513.513,0,0,1,.353.617.483.483,0,0,1-.585.369.563.563,0,0,1-.119-.046l-.022-.014A3.22,3.22,0,0,1,42.969,13.1a4.19,4.19,0,0,1-.527-1.415.161.161,0,0,1,.124-.191.152.152,0,0,1,.171.093Z" transform="translate(74.618 19.897)" fill="#292929"/>
            <path id="Path_880537" data-name="Path 880537" d="M46.611,15.717c-.414,1.492-.188,2.874.5,3.087s1.586-.822,2-2.317.188-2.874-.5-3.087-1.583.825-2,2.317" transform="translate(81.589 23.16)" fill="#292929"/>
            <path id="Path_880538" data-name="Path 880538" d="M50.219,13.534a3.827,3.827,0,0,1-1.164.893,2.97,2.97,0,0,1-1.506.311l-.022,0a.5.5,0,0,1-.452-.538.491.491,0,0,1,.508-.478.476.476,0,0,1,.127.027,2.7,2.7,0,0,0,2.3-.456l.011-.008a.151.151,0,0,1,.215.049.167.167,0,0,1-.017.2" transform="translate(82.767 22.958)" fill="#292929"/>
            <path id="Path_880539" data-name="Path 880539" d="M51.834,19.12c-7.96,8.062-9.384-2.9-9.384-2.9Z" transform="translate(74.637 28.097)" fill="#fff"/>
            <path id="Path_880540" data-name="Path 880540" d="M43.193,18.359a5.837,5.837,0,0,0,1.272.563,6.883,6.883,0,0,0,1.36.249,2.184,2.184,0,0,1-2.631-.811" transform="translate(75.943 31.795)" fill="#292929"/>
            <path id="Path_880541" data-name="Path 880541" d="M47.28,10.865a2.945,2.945,0,0,1,2.146-.161,6.1,6.1,0,0,1,1.978.948,5.363,5.363,0,0,1,1.512,1.658,5.989,5.989,0,0,1,.775,2.06.658.658,0,0,1-.469.787.6.6,0,0,1-.67-.3l-.039-.066a8.155,8.155,0,0,0-.949-1.415,4.5,4.5,0,0,0-1.2-1.011,5.391,5.391,0,0,0-1.437-.606,5.719,5.719,0,0,1-1.55-.585l-.146-.087a.714.714,0,0,1-.24-.942.668.668,0,0,1,.287-.279" transform="translate(82.473 18.317)" fill="#d37571"/>
            <path id="Path_880542" data-name="Path 880542" d="M49.8,11.047a3.108,3.108,0,0,0-1.727-1.355,5.944,5.944,0,0,0-2.149-.328,5.005,5.005,0,0,0-2.118.541A5.489,5.489,0,0,0,42.1,11.2a.684.684,0,0,0-.006.932.6.6,0,0,0,.72.128l.063-.036a7.414,7.414,0,0,1,1.52-.653A4.29,4.29,0,0,1,45.93,11.4a5.289,5.289,0,0,1,1.517.3,5.613,5.613,0,0,0,1.605.391l.168.008a.667.667,0,0,0,.681-.658.714.714,0,0,0-.1-.4" transform="translate(73.703 16.209)" fill="#d37571"/>
            <path id="Path_880543" data-name="Path 880543" d="M46.256,13.277a4.563,4.563,0,0,1-.127,1.978c-.168.631-.414,1.235-.643,1.844-.243.59-.5,1.227-.778,1.751-.11.27-.152.407.088.615a2.774,2.774,0,0,0,.756.516,2.087,2.087,0,0,1-.924-.249.766.766,0,0,1-.4-.445,1.071,1.071,0,0,1,.028-.617c.221-.661.419-1.224.656-1.828a20.35,20.35,0,0,0,1.343-3.565" transform="translate(77.704 22.994)" fill="#292929"/>
            <path id="Path_880544" data-name="Path 880544" d="M36.313,11.391a4.044,4.044,0,0,1,1.743.5,4.729,4.729,0,0,1,1.465,1.2,3.875,3.875,0,0,1,.794,1.811,3.461,3.461,0,0,1-.24,1.915,7.972,7.972,0,0,0-.378-1.746,5,5,0,0,0-.8-1.429,12.5,12.5,0,0,0-2.582-2.254" transform="translate(63.847 19.727)" fill="#292929"/>
            <path id="Path_880545" data-name="Path 880545" d="M36.629,16.541a3.277,3.277,0,0,1-.19-1.478,3.748,3.748,0,0,1,.414-1.47,2.773,2.773,0,0,1,1.076-1.1,2.1,2.1,0,0,1,1.423-.227,6.239,6.239,0,0,0-1.067.787,3.969,3.969,0,0,0-.723.967,14.5,14.5,0,0,0-.932,2.516" transform="translate(64.044 21.191)" fill="#292929"/>
            <path id="Path_880546" data-name="Path 880546" d="M97.238,54.7c1.432-4.193.739-8.846-.292-13.167-1.015-4.327-3.831-9.269-2.262-13.413A19.529,19.529,0,0,0,90.9,8.847a20.548,20.548,0,0,0-17.948-6.42c-6.5.877-11.221,5.152-16.083,9.8-4.311,4.147-10.79,5.92-13.576,11.315-2.648,5.155-.987,11.968-3.955,16.91-1.834,3.041-5.05,4.745-7.56,7.168A19.062,19.062,0,0,0,26.2,59.345a19.274,19.274,0,0,0,1.032,8.308,24.934,24.934,0,0,1,5.679-.811v-.033C44.12,65.669,49.6,61.784,50.246,61.3a.352.352,0,0,0,.061-.049c.017-.016.047-.049.047-.063l5.925-21.429v-.016l.3-1.057v-.016l.014-.016a3.755,3.755,0,0,1-.061-.453,2.867,2.867,0,0,1-.971.1c-3.018-.26-5.034-5.756-4.772-8.958a5.607,5.607,0,0,1,4.786-5.223,10.613,10.613,0,0,1,4.344,5.524c2.546-.033,4.863-1.707,6.537-3.734a20.885,20.885,0,0,0,3.52-7.1,11.9,11.9,0,0,0,9.48,8.406,3.779,3.779,0,0,0,2.085-.087,2.007,2.007,0,0,0,.621-.415,2.1,2.1,0,0,0,.091.768A4.347,4.347,0,0,0,83.563,29.2c2.049,1.858,4.419,3.325,6.3,5.374a11.4,11.4,0,0,1,2.154,3.368,48.9,48.9,0,0,1-1.288,6.507,17.511,17.511,0,0,1-.783,2.21A17.712,17.712,0,0,1,87.6,50.485a26.447,26.447,0,0,1-9.19,7.024,9.751,9.751,0,0,1-7.02.617l-.938,3.366-.232.893a47.125,47.125,0,0,0,2.819,4.1c.414-.325,2.477-.262,11.836,12.517.4.552.8,1.106,1.156,1.675.814.309,1.647.667,2.491,1.074,1.172.568,2.91,1.431,5.111,2.584a17.444,17.444,0,0,0,1.139-9.217c-.538-3.5-2.171-6.9-1.724-10.406.447-3.642,3.018-6.567,4.187-10.015" transform="translate(45.914 3.881)" fill="#292929"/>
            <path id="Path_880547" data-name="Path 880547" d="M112.626,13.92c-.615-2.7-9.224-4.068-21.644-3.909C89.2,6.32,83.877-1.223,70.4.17,57.481,1.5,51.959,10.079,49.91,14.619c-14.235,2.991-23.677,6.821-22.987,9.829.328,1.453,2.982,2.53,7.309,3.174,6.959-3.128,20.353-6.3,36.064-8.234,15.383-1.882,29.19-2.112,37.247-.891,3.536-1.584,5.4-3.166,5.083-4.579" transform="translate(47.274 0.002)" fill="#ffb937"/>
          </g>
        </g>
      </g>
    </g>
  </g>
</svg>
