<svg xmlns="http://www.w3.org/2000/svg" xmlns:xlink="http://www.w3.org/1999/xlink" width="190" height="134" viewBox="0 0 190 134">
  <defs>
    <clipPath id="clip-path">
      <rect id="Rectangle_402355" data-name="Rectangle 402355" width="87" height="87" transform="translate(342 951)" fill="#fff" stroke="#707070" stroke-width="1"/>
    </clipPath>
    <clipPath id="clip-path-2">
      <rect id="Rectangle_402354" data-name="Rectangle 402354" width="81.504" height="81.298" transform="translate(-1)" fill="#7d3a1b"/>
    </clipPath>
    <clipPath id="clip-path-3">
      <rect id="Rectangle_402356" data-name="Rectangle 402356" width="71.407" height="75.828" fill="#7d3a1b"/>
    </clipPath>
  </defs>
  <g id="Group_1100678" data-name="Group 1100678" transform="translate(-330 -7019)">
    <rect id="Rectangle_402215" data-name="Rectangle 402215" width="190" height="134" transform="translate(330 7019)" fill="none"/>
    <g id="Group_1100287" data-name="Group 1100287" transform="translate(16 -507)">
      <g id="Grupo_156312" data-name="Grupo 156312" transform="translate(344 7528)">
        <path id="Elipse_5845" data-name="Elipse 5845" d="M65.5,0A65.5,65.5,0,1,1,0,65.5,65.5,65.5,0,0,1,65.5,0Z" transform="translate(0 0)" fill="#ffce73"/>
      </g>
      <g id="Mask_Group_1098715" data-name="Mask Group 1098715" transform="translate(24 6599)" clip-path="url(#clip-path)">
        <g id="Group_1100677" data-name="Group 1100677" transform="translate(345 954)">
          <g id="Group_1100676" data-name="Group 1100676" clip-path="url(#clip-path-2)">
            <g id="Group_1100690" data-name="Group 1100690" transform="translate(4 3)">
              <g id="Group_1100689" data-name="Group 1100689" clip-path="url(#clip-path-3)">
                <path id="Path_880273" data-name="Path 880273" d="M13.875,63V59.1c-1.046,0-2.075,0-3.1,0a4.725,4.725,0,0,1-4.018-2.039,4.355,4.355,0,0,1-.821-3.076A4.566,4.566,0,0,1,9.07,49.943a.247.247,0,0,0,.188-.277c0-.833,0-1.665,0-2.5a.378.378,0,0,0-.109-.274,2.632,2.632,0,0,1-1.154-2.277c-.016-2.906-.007-5.812-.007-8.717a2.856,2.856,0,0,1,1.125-2.414.392.392,0,0,0,.134-.269c.012-.814,0-1.629.017-2.443,0-.187-.056-.255-.232-.322a4.859,4.859,0,0,1-2.584-2.247,4.4,4.4,0,0,1-.4-3.342A4.571,4.571,0,0,1,9,21.6a6.01,6.01,0,0,1,2.208-.351c.885.01,1.771,0,2.674,0,.005-.076.014-.146.014-.216q0-9.424,0-18.848A2.009,2.009,0,0,1,15.995,0c.108,0,.217,0,.326,0Q39.4,0,62.471,0a4.153,4.153,0,0,1,.782.067,1.736,1.736,0,0,1,1.466,1.678c.022.352.013.706.014,1.059q.007,3.938.011,7.875c0,.713-.2,1.076-.706,1.275a1.039,1.039,0,0,1-1.448-.872c-.033-.36-.048-.723-.048-1.084q0-3.761.006-7.522v-.3H61.9L22.92,2.175c-2.154,0-4.307,0-6.461-.006-.253,0-.313.069-.313.318q.013,8.935.01,17.87v.89h.3c1.267.012,2.541-.066,3.8.054a4.756,4.756,0,0,1,4.359,4.8,4.844,4.844,0,0,1-3.334,4.434c0,.293,0,.6,0,.9,0,.588-.011,1.177,0,1.765a.4.4,0,0,0,.11.281,3.014,3.014,0,0,1,1.137,2.736c-.013.284.077.345.348.342,1.4-.012,2.805,0,4.208-.005a.342.342,0,0,0,.264-.115,1.885,1.885,0,0,1,1.819-1.056c.977-.02,1.955-.017,2.932,0a1.754,1.754,0,0,1,1.646.821c.209.389.474.354.79.354q3.529,0,7.058-.009a.352.352,0,0,0,.266-.114A2.1,2.1,0,0,1,43.8,35.381q3-.015,6,0a1.139,1.139,0,0,1,1.228,1.05,1.089,1.089,0,0,1-.89,1.1,3.95,3.95,0,0,1-.621.049q-2.728.009-5.456.009c-.054,0-.107.005-.18.009V42.8h.294q11.035,0,22.07,0a2.9,2.9,0,0,0,2.225-.8,2.634,2.634,0,0,0-.814-4.19,3.1,3.1,0,0,0-1.264-.243q-5.538.015-11.076.008a1.145,1.145,0,0,1-1.219-.666,1.083,1.083,0,0,1,.766-1.493,2.532,2.532,0,0,1,.485-.046q3.448,0,6.9,0h.291c0-.1.013-.194.013-.29q0-9.1-.007-18.195a6.4,6.4,0,0,1,.056-.839,1.1,1.1,0,0,1,1.524-.915.908.908,0,0,1,.584.786,4.33,4.33,0,0,1,.03.623q0,9.084,0,18.168c0,.669.008.644.667.673a13.111,13.111,0,0,1,2.37.2A4.533,4.533,0,0,1,71,38.394a3.963,3.963,0,0,1,.39,1.978,4.937,4.937,0,0,1-2.657,4.09,4.574,4.574,0,0,1-2.3.516c-.551-.009-1.1,0-1.681,0-.008.158-.022.3-.022.441q0,13.81,0,27.619a8.513,8.513,0,0,1-.037,1.246,1.82,1.82,0,0,1-1.911,1.542c-.1,0-.2,0-.3,0H2.273a1.968,1.968,0,0,1-2.228-2.07,36.1,36.1,0,0,1,.01-3.8,2.614,2.614,0,0,1,2.332-2.54c.242-.047.293-.141.287-.375-.013-.56,0-1.122.027-1.682a2.548,2.548,0,0,1,2.49-2.355q4.235,0,8.47,0h.214M62.538,44.976h-.357q-9.244,0-18.487,0A1.731,1.731,0,0,1,42.17,44.3a.967.967,0,0,0-.935-.434c-2.352.025-4.705.011-7.058.006a.361.361,0,0,0-.37.219,1.643,1.643,0,0,1-1.439.877c-1.14.016-2.28.011-3.42,0a1.591,1.591,0,0,1-1.448-.761.562.562,0,0,0-.657-.328,1.129,1.129,0,0,1-.136,0c-1.3,0-2.606,0-3.909-.005-.22,0-.289.068-.271.28a3.323,3.323,0,0,1-.01.543,2.779,2.779,0,0,1-1.108,2.171.4.4,0,0,0-.127.288c-.01.814,0,1.629-.011,2.444a.293.293,0,0,0,.233.345,4.74,4.74,0,0,1,3.059,5.122,4.8,4.8,0,0,1-4.7,4.025c-1.158,0-2.317,0-3.475,0-.188,0-.249.053-.247.245.011,1.023.008,2.046.012,3.069,0,.595.005.6.6.6q4.3,0,8.606,0A2.542,2.542,0,0,1,27.8,65.39c.012.552.021,1.1,0,1.656-.009.242.061.323.3.368a2.666,2.666,0,0,1,2.347,2.8c.013,1.032.016,2.064,0,3.1-.005.284.081.344.35.344q15.5-.012,31-.01h.742ZM28.224,73.653c0-1.285,0-2.533-.008-3.78,0-.075-.107-.18-.189-.216a.883.883,0,0,0-.346-.044l-12.512.007a4.9,4.9,0,0,1-.568-.027,1.073,1.073,0,0,1-.367-2.043,2.47,2.47,0,0,1,.916-.178c3.266-.012,6.532-.007,9.8-.007h.663c0-.509,0-.961,0-1.414-.008-.73-.032-.752-.775-.752q-9.54,0-19.08,0a2.79,2.79,0,0,0-.593.046c-.09.02-.226.133-.228.207-.018.628-.01,1.257-.01,1.911h.27q1.995,0,3.99,0a2.512,2.512,0,0,1,.512.045,1.119,1.119,0,0,1,.9,1.028,1.04,1.04,0,0,1-.742,1.1,2.465,2.465,0,0,1-.669.075c-2.081.006-4.161,0-6.242.005-.639,0-.669.027-.674.677-.008,1.023,0,2.046-.009,3.068,0,.23.063.288.288.288q12.526-.007,25.051,0h.63M10.2,40.17q0,2.2,0,4.4c0,.474.14.623.605.623q4.437,0,8.874,0c.508,0,.624-.112.625-.624q.007-4.37,0-8.741c0-.072-.005-.145-.008-.217a.373.373,0,0,0-.409-.4c-.091,0-.181-.006-.271-.006H10.747c-.43,0-.546.115-.546.546q0,2.212,0,4.425m5.08-11.614v-.008c1.565,0,3.13,0,4.7,0a2.443,2.443,0,0,0,1.6-.633,2.5,2.5,0,0,0,.752-2.5A2.406,2.406,0,0,0,20,23.479c-1.447-.017-2.895-.012-4.342-.012-1.7,0-3.4-.01-5.1.013a2.336,2.336,0,0,0-2.231,1.457,2.453,2.453,0,0,0,.438,2.8,2.486,2.486,0,0,0,1.96.822c1.52-.013,3.039,0,4.559,0m-.024,23.305v0c-1.547,0-3.093,0-4.64,0a2.364,2.364,0,0,0-.671.062,2.543,2.543,0,0,0,.608,4.989c3.093.015,6.186.01,9.279.005a2.446,2.446,0,0,0,2.548-2.54,2.385,2.385,0,0,0-2.511-2.517c-1.537.006-3.075,0-4.612,0M34.11,41.611H41.67V38.788H34.11ZM11.522,30.77V33h7.5c0-.677-.01-1.327.005-1.976.005-.216-.073-.251-.265-.251-1.843.005-3.687,0-5.531,0H11.522m7.5,16.616h-7.5v2.209h7.5Zm12.893-9.78H29.333v5.173H31.91ZM27.124,41.62V38.777c-1.486,0-2.957,0-4.428,0-.182,0-.172.106-.171.231,0,.787.008,1.573,0,2.359,0,.21.072.258.268.257,1.437-.007,2.873,0,4.335,0" transform="translate(0 0)" fill="#7d3a1b"/>
                <path id="Path_880274" data-name="Path 880274" d="M127.929,43.293A11.488,11.488,0,1,1,139.2,54.76a11.509,11.509,0,0,1-11.269-11.467m11.554,9.256a9.286,9.286,0,1,0-9.357-9.174,9.268,9.268,0,0,0,9.357,9.174" transform="translate(-100.069 -24.863)" fill="#7d3a1b"/>
                <path id="Path_880275" data-name="Path 880275" d="M167.022,272.131q4.886,0,9.772,0a4.39,4.39,0,0,1,.622.03,1.033,1.033,0,0,1,.873.822.955.955,0,0,1-.386,1.054,1.417,1.417,0,0,1-.9.311q-9.963,0-19.925,0a1.46,1.46,0,0,1-.98-.333,1.06,1.06,0,0,1,.454-1.842,3.091,3.091,0,0,1,.565-.05q4.954,0,9.908,0Z" transform="translate(-121.802 -212.861)" fill="#7d3a1b"/>
                <path id="Path_880276" data-name="Path 880276" d="M167.011,224.647h-10.04a1.244,1.244,0,0,1-.925-.311,1,1,0,0,1-.268-1.119,1.136,1.136,0,0,1,1.07-.742c.063-.006.127,0,.19,0q10.013,0,20.026,0a1.188,1.188,0,0,1,1.167.632,1.1,1.1,0,0,1-1.016,1.542c-.09,0-.181,0-.271,0h-9.932" transform="translate(-121.799 -174.022)" fill="#7d3a1b"/>
                <path id="Path_880277" data-name="Path 880277" d="M162.6,299.073c-1.854,0-3.708.01-5.561-.01a1.816,1.816,0,0,1-.891-.235.951.951,0,0,1-.443-1.08,1.066,1.066,0,0,1,.9-.833,2.876,2.876,0,0,1,.566-.047q5.466,0,10.933,0a1.368,1.368,0,0,1,1.245.516,1.05,1.05,0,0,1-.649,1.636,3.138,3.138,0,0,1-.619.056q-2.74.006-5.48,0" transform="translate(-121.772 -232.213)" fill="#7d3a1b"/>
                <path id="Path_880278" data-name="Path 880278" d="M207.5,249.4H202.34a1.089,1.089,0,0,1-.958-.467,1.009,1.009,0,0,1-.1-1.123,1.11,1.11,0,0,1,1.026-.638q2.551,0,5.1.005c1.764,0,3.528-.007,5.292,0a1.142,1.142,0,0,1,1.166,1.193,1.158,1.158,0,0,1-1.189,1.035q-2.592,0-5.184,0" transform="translate(-157.349 -193.344)" fill="#7d3a1b"/>
                <path id="Path_880279" data-name="Path 880279" d="M159.838,249.4c-.959,0-1.919-.028-2.877.009a1.214,1.214,0,0,1-1.255-1.088,1.179,1.179,0,0,1,1.256-1.146c1.493,0,2.986,0,4.479,0,.443,0,.887-.008,1.33,0a1.116,1.116,0,1,1,0,2.227c-.977,0-1.955,0-2.932,0" transform="translate(-121.797 -193.342)" fill="#7d3a1b"/>
                <path id="Path_880280" data-name="Path 880280" d="M228.788,299.072c-.751,0-1.5,0-2.253,0-.18,0-.361-.023-.541-.037a1.02,1.02,0,0,1-.933-1.05,1.045,1.045,0,0,1,.884-1.073,2.691,2.691,0,0,1,.486-.045q2.375,0,4.75,0a1.314,1.314,0,0,1,1.19.516,1.034,1.034,0,0,1-.737,1.635c-.946.051-1.9.012-2.847.012Z" transform="translate(-176.047 -232.213)" fill="#7d3a1b"/>
                <path id="Path_880281" data-name="Path 880281" d="M161.923,73.792c.747-.727,1.417-1.371,2.079-2.024.844-.832,1.678-1.674,2.522-2.506a1.084,1.084,0,1,1,1.553,1.509c-.806.831-1.633,1.643-2.45,2.463q-1.265,1.269-2.53,2.538c-.115.115-.232.229-.358.332a.972.972,0,0,1-1.455-.027q-1.756-1.717-3.477-3.471a1.043,1.043,0,0,1,.034-1.491,1.089,1.089,0,0,1,1.5-.009c.83.807,1.645,1.631,2.46,2.453a.811.811,0,0,1,.124.232" transform="translate(-123.208 -53.917)" fill="#7d3a1b"/>
              </g>
            </g>
          </g>
        </g>
      </g>
    </g>
  </g>
</svg>
