<svg xmlns="http://www.w3.org/2000/svg" xmlns:xlink="http://www.w3.org/1999/xlink" width="190" height="134" viewBox="0 0 190 134">
  <defs>
    <clipPath id="clip-path">
      <rect id="Rectangle_402355" data-name="Rectangle 402355" width="87" height="87" transform="translate(342 951)" fill="#fff" stroke="#707070" stroke-width="1"/>
    </clipPath>
    <clipPath id="clip-path-2">
      <rect id="Rectangle_402362" data-name="Rectangle 402362" width="81.333" height="73.426" fill="#7d3a1b" stroke="#7d3a1b" stroke-width="0.8"/>
    </clipPath>
  </defs>
  <g id="Group_1100683" data-name="Group 1100683" transform="translate(-330 -7019)">
    <rect id="Rectangle_402215" data-name="Rectangle 402215" width="190" height="134" transform="translate(330 7019)" fill="none"/>
    <g id="Group_1100287" data-name="Group 1100287" transform="translate(16 -507)">
      <g id="Grupo_156312" data-name="Grupo 156312" transform="translate(344 7528)">
        <path id="Elipse_5845" data-name="Elipse 5845" d="M65.5,0A65.5,65.5,0,1,1,0,65.5,65.5,65.5,0,0,1,65.5,0Z" transform="translate(0 0)" fill="#ffce73"/>
      </g>
      <g id="Mask_Group_1098715" data-name="Mask Group 1098715" transform="translate(24 6599)" clip-path="url(#clip-path)">
        <g id="Group_1100701" data-name="Group 1100701" transform="translate(345 955.444)">
          <g id="Group_1100700" data-name="Group 1100700" clip-path="url(#clip-path-2)">
            <path id="Path_880301" data-name="Path 880301" d="M41.409,63.9c.688-.254,1.312-.488,1.939-.715A56.455,56.455,0,0,1,50.535,61.1a50.006,50.006,0,0,1,6.836-1.037,45.981,45.981,0,0,1,9.674.212c1.58.211,3.142.577,4.7.912a36.224,36.224,0,0,1,5.185,1.588c.813.307,1.61.655,2.414.984l.279.114c.015-.252.04-.467.04-.682q0-5.669-.007-11.339,0-14.2,0-28.393c0-1.429-.013-2.857-.012-4.286a1.757,1.757,0,0,1,.081-.6.845.845,0,0,1,.852-.463.973.973,0,0,1,.709.674,5.229,5.229,0,0,1,.035.7q0,26.174,0,52.348c0,.213,0,.425,0,.638,0,.786-.418,1.091-1.188.887s-1.56-.43-2.35-.6c-1.769-.383-3.535-.787-5.318-1.09-1.764-.3-3.549-.476-5.322-.723a62.9,62.9,0,0,0-9.921-.348c-1.383.027-2.764.212-4.145.335-.837.075-1.678.131-2.507.26a64.616,64.616,0,0,0-7.136,1.42c-.672.184-1.358.324-2.019.541a3.793,3.793,0,0,1-2.144-.094c-2-.481-4-1-6.022-1.4-1.655-.327-3.335-.525-5.013-.734a69.147,69.147,0,0,0-9.859-.325c-1.364.025-2.725.206-4.086.332-1,.093-2,.17-2.987.329-1.937.312-3.873.637-5.794,1.031-1.494.306-2.965.723-4.444,1.1a.834.834,0,0,1-1.041-.686A6.585,6.585,0,0,1,0,71.919q0-26.1,0-52.193c0-.385.012-.769.024-1.154a.67.67,0,0,1,.433-.637C1.7,17.389,2.918,16.8,4.18,16.308s2.563-.873,3.849-1.3c.489-.162.489-.155.489-.668q0-5.3,0-10.609c0-.892-.011-1.784,0-2.675A.916.916,0,0,1,9.234.032,1.045,1.045,0,0,1,9.6,0C10.6.11,11.616.176,12.612.344c1.535.259,3.061.57,4.584.9a40.143,40.143,0,0,1,5.2,1.542A36.452,36.452,0,0,1,32.721,8.467,36.837,36.837,0,0,1,40.6,17.127c.306.462.3.47.816.249a41.848,41.848,0,0,1,6.254-2.122q1.087-.274,2.182-.51a.776.776,0,0,1,.864.3.809.809,0,0,1-.493,1.306c-.8.221-1.611.394-2.41.615s-1.616.455-2.407.731c-1.239.433-2.462.912-3.7,1.359a.442.442,0,0,0-.326.5q.017,21.493.021,42.987c0,.441,0,.883,0,1.367M10.276,1.79V3.5q0,20.67,0,41.34c0,.486.007.973,0,1.459,0,.182.039.276.252.277a30.522,30.522,0,0,1,5.2.658,38.493,38.493,0,0,1,5.916,1.559,39.372,39.372,0,0,1,6.767,3.048,34.365,34.365,0,0,1,9.8,8.339c.466.581.909,1.179,1.363,1.77l.074-.015V61.2q0-19.682,0-39.364c0-.851,0-1.7.018-2.553a1.4,1.4,0,0,0-.221-.822A32.786,32.786,0,0,0,33,10.912a34.477,34.477,0,0,0-9.66-5.929c-1.252-.512-2.531-.963-3.813-1.4a20.812,20.812,0,0,0-2.456-.665c-1.505-.309-3.019-.574-4.534-.833-.735-.126-1.48-.2-2.259-.3M38.322,63.357a.779.779,0,0,0-.041-.172,3.367,3.367,0,0,0-.2-.3,37.577,37.577,0,0,0-7.114-7.154A34.354,34.354,0,0,0,23.33,51.4a31.746,31.746,0,0,0-3.9-1.336c-1.853-.5-3.728-.929-5.613-1.287-1.478-.281-2.985-.405-4.479-.6a.828.828,0,0,1-.787-.783c-.041-.422-.034-.849-.034-1.274q0-14.407,0-28.815c0-.2,0-.4,0-.677-1.1.357-2.134.659-3.144,1.035-1.079.4-2.129.878-3.2,1.312-.524.213-.527.2-.528.764v.03q.005,8.343.01,16.687,0,13.344.007,26.687v.724c.137-.04.213-.058.286-.085,1.486-.554,2.962-1.136,4.459-1.658a43.874,43.874,0,0,1,5.657-1.481,40.655,40.655,0,0,1,7.15-.743A42.655,42.655,0,0,1,30.6,61.121c1.687.418,3.365.874,5.037,1.348.89.252,1.759.579,2.685.888m41.3,8.038a.145.145,0,0,0,.022-.07c.012-.536.025-1.073.024-1.609a.248.248,0,0,0-.127-.173c-.29-.143-.584-.281-.884-.4a40.983,40.983,0,0,0-7.076-2.133,37.886,37.886,0,0,0-5.045-.717c-1.091-.071-2.178-.224-3.269-.247-1.477-.03-2.959-.015-4.434.061-1.587.081-3.178.186-4.751.4a62.363,62.363,0,0,0-6.792,1.282,48.62,48.62,0,0,0-5.658,1.7c-.091.035-.228.121-.23.187-.019.554-.01,1.108-.01,1.619a75.369,75.369,0,0,1,38.232.1m-39.948-.046c0-.486-.021-.93.007-1.37.02-.3-.033-.491-.366-.569-.273-.064-.525-.211-.794-.3a56.238,56.238,0,0,0-6.647-1.767c-1.61-.3-3.221-.594-4.838-.848-.758-.119-1.532-.137-2.3-.2-1.12-.09-2.239-.231-3.36-.256a43.524,43.524,0,0,0-6.461.228c-.793.1-1.6.1-2.386.231-1.344.23-2.678.519-4.012.8a34.972,34.972,0,0,0-6.7,2.21.3.3,0,0,0-.162.207c-.013.565-.008,1.13-.008,1.717.673-.141,1.289-.244,1.893-.4a66.051,66.051,0,0,1,6.807-1.348c2.38-.359,4.772-.629,7.18-.785a67.082,67.082,0,0,1,9.834.135,45.85,45.85,0,0,1,6.12.889c1.489.328,2.973.679,4.459,1.02l1.73.4m39.99-3.659c0-.566-.01-1.08,0-1.594a.441.441,0,0,0-.29-.474c-.649-.282-1.292-.578-1.943-.854A37.709,37.709,0,0,0,71.3,62.8c-1.169-.272-2.369-.409-3.55-.633a35.134,35.134,0,0,0-6.108-.487,46.45,46.45,0,0,0-6.782.44c-1.506.2-3.006.43-4.479.773-1.8.419-3.575.943-5.341,1.487-1.1.338-2.16.8-3.241,1.2a.545.545,0,0,0-.4.643c.036.392.006.789.007,1.184,0,.1.008.19.014.329.659-.212,1.268-.425,1.887-.6,1.174-.339,2.345-.7,3.534-.976,1.722-.4,3.449-.8,5.192-1.083a50.737,50.737,0,0,1,7.456-.753,54.271,54.271,0,0,1,9.06.428c1.682.257,3.346.578,5,.985a46.424,46.424,0,0,1,5.4,1.706c.223.085.45.158.727.255M1.646,67.685c.226-.071.38-.113.529-.168a55.482,55.482,0,0,1,5.483-1.75,51.237,51.237,0,0,1,5.892-1.132,42.654,42.654,0,0,1,6.243-.347c1.579.019,3.159.073,4.735.172,1.039.065,2.075.206,3.1.371q2.29.366,4.565.821c1,.2,1.986.47,2.972.733,1,.268,2,.563,3,.851.482.139.96.29,1.495.452,0-.154,0-.25,0-.346,0-.415-.014-.832.017-1.245a.39.39,0,0,0-.281-.461c-.792-.3-1.575-.635-2.373-.923a48.24,48.24,0,0,0-10.156-2.539c-1.477-.194-2.952-.352-4.437-.445a42.043,42.043,0,0,0-6.707.133,35.424,35.424,0,0,0-5.742.941c-1.677.449-3.337.971-4.979,1.536-1.049.36-2.05.857-3.074,1.291a.449.449,0,0,0-.289.478c.011.5,0,1.008,0,1.579" transform="translate(0 0)" fill="#7d3a1b" stroke="#7d3a1b" stroke-width="0.8"/>
            <path id="Path_880302" data-name="Path 880302" d="M225.437,37.726c-.216-.074-.628-.2-1.022-.36-.16-.067-.25-.086-.393.038q-1.733,1.5-3.484,2.987c-.161.136-.145.216-.018.364q3.382,3.906,6.749,7.826a4.292,4.292,0,0,1,.679,1.1,2.743,2.743,0,0,1-1.934,3.6,2.627,2.627,0,0,1-2.7-.84c-.8-.887-1.567-1.805-2.348-2.711q-2.3-2.671-4.6-5.345c-.13-.152-.228-.186-.4-.041q-1.731,1.507-3.474,3a.281.281,0,0,0-.1.365,2.6,2.6,0,0,1-.577,2.842,2.844,2.844,0,0,1-4.281-.133q-3.4-3.933-6.787-7.873a2.883,2.883,0,0,1,1.67-4.756,2.3,2.3,0,0,1,1.615.27.471.471,0,0,0,.633-.082q2.885-2.5,5.78-4.978,2.786-2.4,5.571-4.8c.116-.1.227-.174.138-.373a2.834,2.834,0,0,1,4.878-2.726q3.15,3.645,6.293,7.3c.192.222.385.444.571.671a2.625,2.625,0,0,1,.362,2.959,2.969,2.969,0,0,1-2.827,1.708m-19.888,1.72,5.773,6.685L223.01,36.046l-5.762-6.687-11.7,10.087m4.107,10.3a1.049,1.049,0,0,0,1.193-1.093,1.481,1.481,0,0,0-.417-.984q-2.24-2.584-4.473-5.173c-.755-.873-1.5-1.755-2.277-2.611a.985.985,0,0,0-1.146-.338,1.093,1.093,0,0,0-.807,1.056,1.265,1.265,0,0,0,.335.883q1.9,2.194,3.791,4.4,1.479,1.714,2.961,3.426a.976.976,0,0,0,.84.437m9.23-24.018a1.029,1.029,0,0,0-1.116.745,1.318,1.318,0,0,0,.385,1.383q2.8,3.244,5.6,6.481a13.631,13.631,0,0,0,1.319,1.421,1.124,1.124,0,0,0,1.74-.648,1.275,1.275,0,0,0-.385-1.185q-2.067-2.388-4.125-4.784-1.3-1.506-2.608-3a.962.962,0,0,0-.806-.409m-1.45,17.351a.416.416,0,0,0,.043.076q2.389,2.751,4.78,5.5c.77.886,1.538,1.774,2.315,2.654a.887.887,0,0,0,1.061.306,1.089,1.089,0,0,0,.744-1.01,1.234,1.234,0,0,0-.36-.9q-3.324-3.851-6.645-7.7c-.1-.111-.211-.2-.324-.31l-1.613,1.388" transform="translate(-151.25 -18.174)" fill="#7d3a1b" stroke="#7d3a1b" stroke-width="0.8"/>
            <path id="Path_880303" data-name="Path 880303" d="M198.508,167.355c.03-.376.036-.73.089-1.077A3.031,3.031,0,0,1,201.3,163.8c.262-.019.526-.019.79-.018,3.262,0,6.525,0,9.787.011a2.97,2.97,0,0,1,2.61,1.461,3.352,3.352,0,0,1,.465,1.859c0,.19.037.262.245.274a3.293,3.293,0,0,1,3.074,3.12c.023.476.02.952.026,1.428.011.865-.3,1.177-1.156,1.177q-3.815,0-7.629-.008-6.55,0-13.1,0a2.186,2.186,0,0,1-.661-.056.927.927,0,0,1-.6-.911,5.729,5.729,0,0,1,.288-2.691,3.271,3.271,0,0,1,2.832-2.074c.07-.008.141-.01.233-.016m18.05,4.026c-.026-.365-.031-.707-.078-1.044a1.3,1.3,0,0,0-1.1-1.174,3.889,3.889,0,0,0-.785-.058q-7.932-.005-15.863,0a3.511,3.511,0,0,0-.575.04,1.248,1.248,0,0,0-1.108.868,8.312,8.312,0,0,0-.149,1.37Zm-16.333-4.017h.418l11.637,0c.243,0,.487.012.729-.006.079-.006.212-.081.218-.135.1-.893-.218-1.67-1.288-1.667-.658,0-1.317,0-1.975,0q-4.208,0-8.416,0a1.179,1.179,0,0,0-1.252.854,5.236,5.236,0,0,0-.07.958" transform="translate(-147.542 -123.841)" fill="#7d3a1b" stroke="#7d3a1b" stroke-width="0.8"/>
            <path id="Path_880304" data-name="Path 880304" d="M79.478,122.6c0,1.094-.031,2.19.011,3.282a.891.891,0,0,1-1.378.8c-.852-.485-1.675-1.031-2.557-1.453-.917-.439-1.887-.771-2.84-1.13a.858.858,0,0,1-.6-.695,4.429,4.429,0,0,1-.051-.726c0-1.976.012-3.951,0-5.927-.007-.942.444-1.339,1.378-1.023a22.29,22.29,0,0,1,5.436,2.652,1.21,1.21,0,0,1,.611,1.152c-.042,1.021-.012,2.046-.012,3.069Zm-1.717,1.831c0-1.577,0-3.115,0-4.653a.252.252,0,0,0-.1-.188c-.985-.535-1.97-1.069-2.964-1.585a7.913,7.913,0,0,0-.887-.334,1.784,1.784,0,0,0-.036.228c0,1.508,0,3.016.016,4.523a.383.383,0,0,0,.2.273c.6.267,1.216.5,1.812.769.65.3,1.283.629,1.968.967" transform="translate(-54.489 -87.424)" fill="#7d3a1b" stroke="#7d3a1b" stroke-width="0.8"/>
            <path id="Path_880305" data-name="Path 880305" d="M89.027,76.123a2.828,2.828,0,0,1-.459-.277c-1.334-1.118-2.62-2.3-4-3.358a33.487,33.487,0,0,0-6.688-3.982,31.563,31.563,0,0,0-5.007-1.725.776.776,0,0,1-.611-1.032.761.761,0,0,1,.866-.633,3.7,3.7,0,0,1,.714.136,35.371,35.371,0,0,1,10.107,4.7,41.872,41.872,0,0,1,5.474,4.377,5.022,5.022,0,0,1,.4.418.745.745,0,0,1,.118.9.943.943,0,0,1-.913.481" transform="translate(-54.614 -49.235)" fill="#7d3a1b" stroke="#7d3a1b" stroke-width="0.8"/>
            <path id="Path_880306" data-name="Path 880306" d="M90.1,101.705a.9.9,0,0,1-1.233.746,1.871,1.871,0,0,1-.519-.361,38.923,38.923,0,0,0-9.046-6.45,28.827,28.827,0,0,0-5.32-2.107c-.4-.113-.813-.164-1.207-.289a.789.789,0,0,1-.539-.912.819.819,0,0,1,.7-.765,1.2,1.2,0,0,1,.446.047,32.156,32.156,0,0,1,7.572,2.98A39.616,39.616,0,0,1,88.9,100.3c.334.309.658.631.967.965a1.809,1.809,0,0,1,.224.435" transform="translate(-54.613 -69.235)" fill="#7d3a1b" stroke="#7d3a1b" stroke-width="0.8"/>
            <path id="Path_880307" data-name="Path 880307" d="M98.233,47.678c.236.084.481.148.706.254a33.81,33.81,0,0,1,8.5,5.774c.49.453.949.939,1.425,1.408a.735.735,0,0,1,.045,1.015.874.874,0,0,1-1.076.207,3.343,3.343,0,0,1-.583-.48,32.668,32.668,0,0,0-6.172-4.844c-1-.6-2.061-1.114-3.1-1.65a.876.876,0,0,1-.421-1.306.773.773,0,0,1,.676-.379" transform="translate(-73.653 -36.052)" fill="#7d3a1b" stroke="#7d3a1b" stroke-width="0.8"/>
            <path id="Path_880308" data-name="Path 880308" d="M120.182,142.681a1.118,1.118,0,0,1-.771-.394c-.933-.853-1.836-1.744-2.815-2.54-.837-.68-1.763-1.249-2.651-1.867-.158-.109-.327-.2-.479-.321a.8.8,0,0,1-.151-1.087.749.749,0,0,1,1.07-.294,28.161,28.161,0,0,1,6.316,5.033.8.8,0,0,1-.2,1.372,2.056,2.056,0,0,1-.314.1" transform="translate(-85.572 -102.882)" fill="#7d3a1b" stroke="#7d3a1b" stroke-width="0.8"/>
            <path id="Path_880309" data-name="Path 880309" d="M120.994,168.472a.773.773,0,0,1-.412.666.872.872,0,0,1-.925-.032,3.012,3.012,0,0,1-.5-.437,26.506,26.506,0,0,0-5.52-4.349.834.834,0,0,1-.474-.9.766.766,0,0,1,.646-.679.952.952,0,0,1,.6.109c.744.449,1.49.9,2.2,1.406a28.863,28.863,0,0,1,3.938,3.427c.214.222.466.435.451.794" transform="translate(-85.556 -123.045)" fill="#7d3a1b" stroke="#7d3a1b" stroke-width="0.8"/>
            <path id="Path_880310" data-name="Path 880310" d="M74.722,39.8a.757.757,0,0,1-.918.816c-.31-.043-.62-.086-.926-.151a.831.831,0,0,1-.644-.978.764.764,0,0,1,.938-.674,8.276,8.276,0,0,1,1.027.249.779.779,0,0,1,.523.738" transform="translate(-54.609 -29.34)" fill="#7d3a1b" stroke="#7d3a1b" stroke-width="0.8"/>
          </g>
        </g>
      </g>
    </g>
  </g>
</svg>
