<svg xmlns="http://www.w3.org/2000/svg" xmlns:xlink="http://www.w3.org/1999/xlink" width="107" height="107" viewBox="0 0 107 107">
  <defs>
    <clipPath id="clip-path">
      <rect id="Rectangle_402431" data-name="Rectangle 402431" width="63" height="57" fill="#6a4d23"/>
    </clipPath>
  </defs>
  <g id="Group_1101579" data-name="Group 1101579" transform="translate(-285 -2723.354)">
    <g id="Grupo_156312" data-name="Grupo 156312" transform="translate(-3.668 -1725.082)">
      <path id="Elipse_5845" data-name="Elipse 5845" d="M53.5,0A53.5,53.5,0,1,1,0,53.5,53.5,53.5,0,0,1,53.5,0Z" transform="translate(288.668 4448.437)" fill="#ffce73"/>
    </g>
    <g id="Group_1098917" data-name="Group 1098917" transform="translate(-101.527 -3294.858)">
      <path id="Path_873216" data-name="Path 873216" d="M0,0H63.184V63.186H0Z" transform="translate(408.527 6040.213)" fill="none"/>
      <g id="Group_1100850" data-name="Group 1100850" transform="translate(408.527 6044.213)">
        <g id="Group_1100849" data-name="Group 1100849" clip-path="url(#clip-path)">
          <path id="Path_880567" data-name="Path 880567" d="M0,51.736c.285-.824.435-.933,1.26-.924.232,0,.464,0,.725,0v-.289c0-3.776.007-7.553,0-11.329A9.806,9.806,0,0,1,3.62,33.644a8.711,8.711,0,0,1,4.625-3.589,13.116,13.116,0,0,1,1.469-.343c.114-.024.15-.062.15-.183,0-.758.013-1.517.008-2.275a.455.455,0,0,0-.124-.284,9.121,9.121,0,0,1-2.269-3.615,2.8,2.8,0,0,0-.83-1.295,7.829,7.829,0,0,1-2.557-4.573,11.57,11.57,0,0,1,.127-4.512.293.293,0,0,0-.106-.308,7.323,7.323,0,0,1-1.956-3.58A7.44,7.44,0,0,1,6.418.474,6.456,6.456,0,0,1,14.1,2.787a.892.892,0,0,0,.9.434,8.671,8.671,0,0,1,2.738.146,10.4,10.4,0,0,1,4.214,1.989,11.335,11.335,0,0,1,3.395,4.652,14.614,14.614,0,0,1,1.1,6.188,8.183,8.183,0,0,1-1.706,4.764,2.815,2.815,0,0,0-.507,1.187,9.149,9.149,0,0,1-4.115,6,.987.987,0,0,0-.554,1.067c.052.469.015.474.419.584a6.232,6.232,0,0,1,4.507,5.459c.026.223.042.447.066.7h2.774a3.148,3.148,0,0,1,3.085,3.069c.03.458.021.919.021,1.379,0,2.961.009,5.923,0,8.884,0,.492-.092.984-.144,1.5a.348.348,0,0,0,.109.021c.654,0,1.309-.005,1.963,0,.141,0,.2-.041.2-.206q-.008-7.359-.008-14.718c0-.25.006-.5.021-.75a5.143,5.143,0,0,1,2.79-4.5c1.908-1.038,3.827-2.053,5.746-3.068a.541.541,0,0,0,.341-.612,7.785,7.785,0,0,1-.008-1.015.251.251,0,0,0-.189-.278,8.937,8.937,0,0,1-5.189-5.587,10.34,10.34,0,0,1-.56-3.508c0-2.049.01-4.1.009-6.148a.287.287,0,0,0-.121-.188,7.876,7.876,0,0,1-.724-.486,3.413,3.413,0,0,1-1.049-3.388,6.361,6.361,0,0,1,2.436-4.141,5.074,5.074,0,0,1,3.065-1.124c2.85-.011,5.7-.034,8.551.007A6.965,6.965,0,0,1,52.3,3.054a8.588,8.588,0,0,1,2.733,5.3,7.036,7.036,0,0,1,.035,1.015c0,2.533.033,5.068,0,7.6a5.01,5.01,0,0,1-2.733,4.568.285.285,0,0,0-.191.283c.011,1.372.015,2.743.023,4.114a2.365,2.365,0,0,0,.032.48,1.17,1.17,0,0,0,.641.82c1.534.815,3.075,1.616,4.589,2.472a5.139,5.139,0,0,1,2.6,4.283c.026.288.03.58.029.87q-.006,2.8-.021,5.591a.307.307,0,0,0,.2.306A5.116,5.116,0,0,1,62.7,43.7a5.655,5.655,0,0,1,.3,1.874c0,3.405,0,6.81-.008,10.215a1.8,1.8,0,0,1-.184.757.822.822,0,0,1-.932.417.943.943,0,0,1-.68-.914c-.011-.3,0-.6,0-.9,0-3.2.011-6.407-.005-9.61a3.194,3.194,0,0,0-3.127-3.388c-4.557.014-9.115,0-13.673.007a2.949,2.949,0,0,0-2.648,1.548,3.175,3.175,0,0,0-.45,1.527c-.016.362-.007.726-.007,1.089q0,4.6,0,9.2a5.243,5.243,0,0,1-.022.58.873.873,0,0,1-1.454.672.916.916,0,0,1-.319-.641,4.021,4.021,0,0,1-.032-.555q0-7.032,0-14.064a15.517,15.517,0,0,0-.076-1.832,3.874,3.874,0,0,0-1.282-2.43c-1.113-1.023-2.246-2.023-3.37-3.033a1.008,1.008,0,0,0-.114-.071,2.31,2.31,0,0,0-.12.382,8.2,8.2,0,0,0-.105,1.055q-.007,10.094,0,20.189a1.228,1.228,0,0,1-.474,1.082.88.88,0,0,1-1.33-.688q-.025-.47-.027-.943c0-.8,0-1.6,0-2.422-.111-.005-.206-.014-.3-.014H1.453c-.053,0-.105,0-.158,0C.5,52.774.144,52.527,0,51.785ZM22.7,35.952c-.023-.31-.027-.585-.067-.854a4.122,4.122,0,0,0-3.213-3.418.283.283,0,0,0-.359.193,4.792,4.792,0,0,1-3.694,2.836,4.338,4.338,0,0,1-3.152-.723,5.21,5.21,0,0,1-1.829-2.153c-.065-.139-.136-.214-.293-.189a7.674,7.674,0,0,0-1.857.463A7.438,7.438,0,0,0,3.8,39.087C3.757,42.9,3.792,46.7,3.792,50.513V50.8H7.167a2.348,2.348,0,0,1-.073-.249,9.438,9.438,0,0,1-.224-1.4c-.029-1.5-.012-3-.009-4.5a1.549,1.549,0,0,1,.053-.453c.116-.369.282-.705.689-.781a.821.821,0,0,1,.955.369,1.639,1.639,0,0,1,.177.752c.014,1.63,0,3.26.009,4.89a1.746,1.746,0,0,0,.141.717,1.167,1.167,0,0,0,1.161.673c1.151-.009,2.3-.01,3.452-.011q6.927,0,13.854,0a1.189,1.189,0,0,0,1.258-1.359q.008-4.381.005-8.763c0-.492,0-.984,0-1.476A1.159,1.159,0,0,0,27.45,37.95c-.316,0-.632.01-.948.01H10.1c-.12,0-.24.01-.36.016a1.012,1.012,0,0,0-.78.467,1.51,1.51,0,0,0-.226.962c0,.306,0,.613-.018.918a.759.759,0,0,1-.366.6.907.907,0,0,1-1.429-.695A3.918,3.918,0,0,1,7.336,37.6,2.96,2.96,0,0,1,10.1,35.955q6.16-.011,12.32,0Zm27.813-8.43c-.062-.609-.16-1.206-.176-1.8-.026-1.008-.012-2.017.013-3.025.01-.392-.026-.624-.458-.755a.919.919,0,0,1-.326-1.48.945.945,0,0,1,.764-.338,2.957,2.957,0,0,0,2-.887,3.4,3.4,0,0,0,.931-2.6c-.014-2.292,0-4.583-.01-6.875a8.794,8.794,0,0,0-.12-1.733,6.345,6.345,0,0,0-2.587-3.984A5.848,5.848,0,0,0,47,3.032c-2.452,0-4.9-.007-7.356,0a5.478,5.478,0,0,0-1.232.121,4.247,4.247,0,0,0-3.043,4.16,1.141,1.141,0,0,0,1.088,1.156,5.891,5.891,0,0,1,.834,0,5.5,5.5,0,0,1,1.287.2,4.192,4.192,0,0,1,2.712,4.1c0,1.025-.013,2.05,0,3.074a4.891,4.891,0,0,0,.14,1.072,4.049,4.049,0,0,0,3.839,3.2c.361,0,.723-.012,1.083,0a.961.961,0,0,1,.714,1.483.978.978,0,0,1-.889.47,7.876,7.876,0,0,1-2.219-.2,5.491,5.491,0,0,1-2.642-1.539A6.19,6.19,0,0,1,39.578,16.9a24.281,24.281,0,0,1-.113-3.671,6.8,6.8,0,0,0-.028-.917,2.068,2.068,0,0,0-2.071-1.9v.238c0,2.171.011,4.341-.006,6.512a6.528,6.528,0,0,0,.405,2.264,7.03,7.03,0,0,0,4.647,4.616,1.089,1.089,0,0,1,.856,1.214c.006.645,0,1.291,0,1.937,0,.332-.006.332.3.332l6.837,0a.879.879,0,0,0,.108-.009m7.654,12.659c.009-.083.02-.138.02-.192,0-1.968.007-3.937-.011-5.906a2.942,2.942,0,0,0-1.527-2.639c-1.1-.643-2.238-1.212-3.357-1.817a1.335,1.335,0,0,0-.671-.149c-2.67.011-5.339.01-8.009.012-.82,0-1.64.02-2.459-.013a2.04,2.04,0,0,0-1.1.261c-1.325.722-2.658,1.428-3.986,2.143-.439.236-.874.482-1.329.734,1.142,1.023,2.251,2.013,3.358,3.007a6.493,6.493,0,0,1,1.8,2.65,7.805,7.805,0,0,1,.4,2.825c0,.081.007.162.012.275.152-.119.262-.217.382-.3a5.085,5.085,0,0,1,2.879-.9q2.775,0,5.55,0h8.055M11.874,12.852c-.292.345-.6.715-.917,1.082a9.141,9.141,0,0,0-2.184,4.99,7.778,7.778,0,0,0,.411,3.848,6.891,6.891,0,0,0,5.343,4.621,6.318,6.318,0,0,0,5.36-1.388,7.385,7.385,0,0,0,2.761-5.912c.005-.968,0-1.936.006-2.9,0-.786-.278-1.129-1.01-1.224a26.39,26.39,0,0,1-5.209-1.08c-.892-.306-1.783-.624-2.649-1-.65-.284-1.259-.674-1.911-1.03M24.54,16.913l.054,0c0-.625.012-1.251,0-1.876a11.376,11.376,0,0,0-1.083-4.676c-1.4-2.941-3.562-4.781-6.691-5.123a8.948,8.948,0,0,0-5.133.8,10.306,10.306,0,0,0-5.755,7.859,9.251,9.251,0,0,0,.026,3.6A6.16,6.16,0,0,0,6.841,19.5c.11-.677.188-1.306.317-1.923a10.227,10.227,0,0,1,1.812-4.09c.636-.847,1.332-1.643,2-2.461a.9.9,0,0,1,1.377-.2,15.086,15.086,0,0,0,5.3,2.4,35.651,35.651,0,0,0,4.191.764,2.885,2.885,0,0,1,2.491,2.136c.084.256.138.524.206.786M4.912,10.746A12.287,12.287,0,0,1,12.42,3.666a4.76,4.76,0,0,0-6.755-.544,5.663,5.663,0,0,0-.753,7.625M11.76,28.495c0,.554-.02,1.125.009,1.692a2.044,2.044,0,0,0,.2.733,2.892,2.892,0,0,0,3.084,1.844,3.1,3.1,0,0,0,2.709-3.371.2.2,0,0,0-.142-.131c-.194.014-.386.053-.579.086A7.613,7.613,0,0,1,13,29c-.421-.159-.836-.339-1.243-.5" transform="translate(0 -0.001)" fill="#6a4d23"/>
          <path id="Path_880568" data-name="Path 880568" d="M87.229,215.654a3.045,3.045,0,0,1,2.925-3.113,3.1,3.1,0,0,1-.026,6.187,3.055,3.055,0,0,1-2.9-3.074m2.9,1.107a1.082,1.082,0,0,0,1.049-1.113,1.04,1.04,0,0,0-1.045-1.13,1.057,1.057,0,0,0-1.084,1.045,1.126,1.126,0,0,0,1.079,1.2" transform="translate(-71.441 -171.262)" fill="#6a4d23"/>
          <path id="Path_880569" data-name="Path 880569" d="M79.1,116.9a6.077,6.077,0,0,1-2.273-.506,1.3,1.3,0,0,1-.525-.467.931.931,0,0,1,.72-1.4,2.144,2.144,0,0,1,.745.152,3.452,3.452,0,0,0,2.6-.01,2.217,2.217,0,0,1,.609-.158.838.838,0,0,1,.911.622.979.979,0,0,1-.4,1.166,4.225,4.225,0,0,1-1.522.49c-.3.058-.61.08-.856.111" transform="translate(-62.385 -92.269)" fill="#6a4d23"/>
          <path id="Path_880570" data-name="Path 880570" d="M103.486,88.641v-.363a1,1,0,0,1,.859-1.119,1.067,1.067,0,0,1,.984,1.082c.013.3.015.6,0,.9a.951.951,0,0,1-1.325.925.9.9,0,0,1-.514-.839c-.012-.193,0-.387,0-.581" transform="translate(-84.753 -70.231)" fill="#6a4d23"/>
          <path id="Path_880571" data-name="Path 880571" d="M72.587,88.667c0,.161.006.322,0,.483a.872.872,0,0,1-.834.974.838.838,0,0,1-.946-.811,6.233,6.233,0,0,1,.014-1.37.864.864,0,0,1,.97-.813.949.949,0,0,1,.8.981c0,.185,0,.37,0,.555" transform="translate(-57.965 -70.204)" fill="#6a4d23"/>
        </g>
      </g>
    </g>
  </g>
</svg>
