<svg xmlns="http://www.w3.org/2000/svg" xmlns:xlink="http://www.w3.org/1999/xlink" width="62.504" height="62.504" viewBox="0 0 62.504 62.504">
  <defs>
    <clipPath id="clip-path">
      <rect id="Rectangle_402859" data-name="Rectangle 402859" width="38.5" height="36.216" fill="#fff"/>
    </clipPath>
  </defs>
  <g id="Group_1101608" data-name="Group 1101608" transform="translate(-1017 -3524.063)">
    <g id="Group_1072169" data-name="Group 1072169" transform="translate(737.184 2325.223)">
      <g id="Group_1072053" data-name="Group 1072053" transform="translate(279.816 1198.84)">
        <circle id="Ellipse_4742" data-name="Ellipse 4742" cx="31.252" cy="31.252" r="31.252" transform="translate(0)" fill="#09614d"/>
      </g>
      <g id="Group_1101422" data-name="Group 1101422" transform="translate(291.816 1211.84)">
        <g id="Group_1101421" data-name="Group 1101421" clip-path="url(#clip-path)">
          <path id="Path_883089" data-name="Path 883089" d="M40.719,139.336c-.52.131-1.022.255-1.522.385-.07.018-.1,0-.125-.059-.253-.524-.506-1.049-.769-1.568a.7.7,0,0,0-.8-.334.746.746,0,0,0-.518.676.717.717,0,0,0,.076.275c.166.353.34.7.51,1.052.043.089.08.182.127.289-.151.024-.281.042-.409.066-.5.092-1,.184-1.5.28-.125.024-.148-.073-.184-.145q-.309-.622-.611-1.248a.954.954,0,0,0-.445-.486.711.711,0,0,0-.935.419.869.869,0,0,0,.093.675c.181.332.343.674.526,1.038-.311.037-.6.072-.882.1-.256.028-.512.049-.767.08-.072.009-.1-.013-.113-.079-.085-.352-.181-.7-.26-1.055a.706.706,0,0,0-.845-.556.718.718,0,0,0-.522.87c.088.313.155.632.23.949,0,.008,0,.018-.006.032a.234.234,0,0,1-.048.013c-.582.036-1.164.069-1.746.11-.123.009-.156-.032-.184-.15-.108-.454-.222-.907-.357-1.354a.687.687,0,0,0-1.146-.209.642.642,0,0,0-.159.614c.072.35.165.7.253,1.041.024.092.008.137-.1.139-.482.008-.965.02-1.447.031-.022,0-.044,0-.084-.006,0-.105,0-.2,0-.3,0-.335.006-.671,0-1.006a.706.706,0,0,0-.48-.714.7.7,0,0,0-.917.517,2.117,2.117,0,0,0-.024.37c0,.376,0,.751,0,1.119H22.968c.038-.146.069-.263.1-.381.066-.267.143-.532.192-.8a.66.66,0,0,0-.488-.833.637.637,0,0,0-.786.335,3.026,3.026,0,0,0-.166.508c-.083.333-.156.669-.23,1-.02.09-.083.084-.148.08-.435-.031-.87-.067-1.306-.093-.173-.01-.347,0-.546,0,.069-.291.126-.55.192-.806a.876.876,0,0,0,.018-.578.709.709,0,0,0-.715-.454.686.686,0,0,0-.613.544c-.082.343-.165.686-.254,1.027a.133.133,0,0,1-.1.078c-.534-.056-1.068-.118-1.6-.18-.012,0-.024-.012-.048-.026.09-.188.177-.377.271-.563s.212-.366.29-.561a.714.714,0,0,0-.562-1.047.632.632,0,0,0-.617.291,2.115,2.115,0,0,0-.209.37q-.294.591-.581,1.185c-.047.1-.109.11-.212.091-.351-.068-.705-.118-1.056-.184-.265-.05-.527-.117-.807-.18.154-.307.31-.611.46-.918a3.611,3.611,0,0,0,.179-.416.677.677,0,0,0-.415-.869.7.7,0,0,0-.88.356q-.359.743-.727,1.482a.143.143,0,0,1-.125.052c-.5-.121-.994-.248-1.512-.38.04-.066.07-.126.109-.179.242-.329.494-.651.728-.986a.646.646,0,0,0-.035-.806.691.691,0,0,0-1.052-.044c-.327.4-.627.815-.938,1.224a2.937,2.937,0,0,1-.21.272.193.193,0,0,1-.159.053c-.379-.124-.753-.262-1.13-.39A.68.68,0,0,1,7,137.412c.608-.807,1.208-1.62,1.821-2.422.3-.394.622-.773.941-1.153a1.42,1.42,0,0,1,.259-.223.536.536,0,0,1,.483-.068c1.068.283,2.134.571,3.208.829.753.181,1.514.334,2.276.471q1.117.2,2.244.342c1.188.148,2.377.307,3.571.4a36.617,36.617,0,0,0,4.53.133c1.037-.05,2.076-.08,3.109-.173,1.105-.1,2.207-.251,3.307-.4q1.083-.145,2.159-.345,1.183-.221,2.356-.494c.874-.205,1.742-.44,2.612-.663a.917.917,0,0,0,.156-.053.662.662,0,0,1,.876.234c.24.272.474.55.694.838q1.035,1.358,2.057,2.727a.74.74,0,0,1,.149.622.529.529,0,0,1-.332.425c-.391.143-.785.28-1.175.425a.174.174,0,0,1-.229-.083c-.32-.437-.648-.869-.968-1.306a.743.743,0,0,0-.556-.362.688.688,0,0,0-.684.322.631.631,0,0,0,.014.738c.244.345.5.679.754,1.018.031.042.054.089.086.143" transform="translate(-6.091 -118.751)" fill="#fff"/>
          <path id="Path_883090" data-name="Path 883090" d="M43.766,87.184c.276-.29.545-.578.822-.859a.784.784,0,0,0,.2-.685.682.682,0,0,0-1.053-.425,4.214,4.214,0,0,0-.425.391q-.527.525-1.047,1.058a.275.275,0,0,1-.314.088c-.355-.107-.716-.2-1.074-.293a.666.666,0,0,1-.337-1.147c.386-.412.772-.826,1.179-1.217.643-.617,1.309-1.209,1.952-1.826a.944.944,0,0,1,.9-.241c.762.139,1.524.288,2.292.386,1.033.132,2.063.29,3.1.35.71.041,1.418.126,2.128.165.949.052,1.9.1,2.85.109.725.009,1.451-.034,2.176-.063.67-.026,1.34-.053,2.009-.1.54-.036,1.079-.093,1.618-.152.921-.1,1.844-.2,2.761-.326.722-.1,1.439-.234,2.155-.373a.98.98,0,0,1,.908.248c1.075.951,2.108,1.943,3.086,2.992a1.124,1.124,0,0,1,.148.2.655.655,0,0,1-.392.976c-.388.112-.78.208-1.168.319a.229.229,0,0,1-.255-.074q-.651-.665-1.308-1.324a.724.724,0,0,0-.784-.233A.716.716,0,0,0,65.6,86.28c.282.3.574.594.871.9l-.247.056c-.42.094-.84.191-1.261.277-.037.008-.1-.043-.131-.084-.27-.4-.535-.8-.8-1.2a.848.848,0,0,0-.437-.358.649.649,0,0,0-.673.162.616.616,0,0,0-.2.673,1.456,1.456,0,0,0,.181.353c.158.246.324.487.506.758-.169.022-.317.039-.463.062-.335.053-.671.106-1,.164-.1.017-.131-.014-.172-.1-.17-.366-.344-.73-.535-1.085a.7.7,0,0,0-.88-.272.666.666,0,0,0-.363.859c.082.209.189.407.284.61.026.057.049.115.089.209l-1.48.117c-.084-.355-.161-.689-.244-1.02a3.065,3.065,0,0,0-.123-.393.685.685,0,0,0-1.316.377c.057.3.143.587.216.881.019.075.036.15.062.261l-1.663.07c0-.055,0-.089,0-.123,0-.418.016-.836.007-1.254a.684.684,0,0,0-.5-.667.664.664,0,0,0-.77.258.718.718,0,0,0-.143.479c0,.4,0,.8.006,1.2,0,.027,0,.053-.007.1l-1.647-.063c.033-.138.059-.247.084-.356.072-.308.158-.613.211-.924a.676.676,0,0,0-1.308-.313c-.085.251-.142.511-.21.768-.058.217-.111.435-.173.65a.11.11,0,0,1-.089.055c-.453-.03-.9-.064-1.394-.1.036-.1.056-.163.085-.226.1-.212.216-.416.293-.635a.662.662,0,0,0-.392-.823.686.686,0,0,0-.878.3c-.179.351-.348.707-.52,1.061-.034.07-.066.125-.163.109-.453-.075-.906-.144-1.359-.216a.923.923,0,0,1-.105-.031l.372-.563c.091-.138.189-.272.274-.413a.728.728,0,0,0-.078-.879.675.675,0,0,0-1.028.039c-.244.327-.462.673-.69,1.013-.107.16-.207.325-.316.484a.116.116,0,0,1-.1.038c-.484-.1-.967-.209-1.45-.315a.422.422,0,0,1-.057-.019" transform="translate(-35.864 -72.937)" fill="#fff"/>
          <path id="Path_883091" data-name="Path 883091" d="M129.962,224.184h-5.182c-.055,0-.111-.006-.165,0-.1.01-.123-.031-.123-.127,0-2.434.01-4.869,0-7.3a3.418,3.418,0,0,1,.754-2.233.238.238,0,0,1,.221-.1c1.656.084,3.313.182,4.972.145,1.355-.03,2.708-.1,4.062-.149a.215.215,0,0,1,.2.092,3.387,3.387,0,0,1,.759,2.259q-.007,3.355,0,6.711c0,.193,0,.386.007.579,0,.093-.027.129-.126.128-.542,0-1.084,0-1.626,0h-3.749" transform="translate(-110.728 -190.71)" fill="#fff"/>
          <path id="Path_883092" data-name="Path 883092" d="M96.309,8.668c-.436.018-.843.036-1.25.051-.115,0-.231-.007-.344,0s-.136-.034-.134-.14c.007-.377.013-.754,0-1.13a1.083,1.083,0,0,0-.1-.423.663.663,0,0,0-.766-.348.652.652,0,0,0-.531.563c-.027.435-.015.872-.02,1.308,0,.053,0,.106-.008.174l-1.733-.057c.082-.242.161-.46.228-.681a3.458,3.458,0,0,0,.15-.583.65.65,0,0,0-.47-.72.661.661,0,0,0-.832.382c-.165.422-.3.856-.436,1.288-.065.2-.058.212-.273.193-.594-.054-1.187-.115-1.8-.176.028-.047.04-.073.057-.1.266-.352.535-.7.8-1.054a.761.761,0,0,0,.124-.914.693.693,0,0,0-1.057-.156c-.238.285-.461.583-.686.879-.258.341-.514.683-.761,1.031a.211.211,0,0,1-.241.078c-.513-.075-1.025-.152-1.538-.229-.086-.013-.173-.022-.259-.037a.6.6,0,0,1-.5-.458.605.605,0,0,1,.186-.677c1.038-.834,2.065-1.684,3.124-2.49A58.374,58.374,0,0,1,93.107.34c.1-.06.2-.123.3-.188a.778.778,0,0,1,.9-.013c1.036.646,2.084,1.273,3.108,1.938A62.313,62.313,0,0,1,103.5,6.618a.749.749,0,0,1,.31.781.55.55,0,0,1-.443.458c-.623.112-1.251.192-1.876.289a.215.215,0,0,1-.228-.111q-.616-.838-1.239-1.671a.785.785,0,0,0-.587-.389.671.671,0,0,0-.631.293.616.616,0,0,0-.045.724c.151.235.321.458.487.683s.332.438.516.68c-.173.027-.327.057-.483.073-.471.045-.942.083-1.412.127-.1.009-.137-.033-.164-.122-.11-.369-.226-.736-.343-1.1a2.4,2.4,0,0,0-.093-.229.693.693,0,0,0-1.313.442c.056.231.147.453.22.68.044.138.083.278.133.444" transform="translate(-74.625 0)" fill="#fff"/>
          <path id="Path_883093" data-name="Path 883093" d="M39.862,209.827H36.176a.53.53,0,0,1,.016-.073,3.424,3.424,0,0,0-1.818-4.46,3.321,3.321,0,0,0-1.531-.279.159.159,0,0,1-.181-.115,3.215,3.215,0,0,0-1.528-1.563.324.324,0,0,1-.208-.336q.007-2.3.006-4.6c0-.031.006-.062.011-.118a54.889,54.889,0,0,0,9.529,1.652c-.074.159-.134.28-.188.4a4.058,4.058,0,0,0-.391,1.577q-.021,1.715-.023,3.43c0,1.465,0,2.93,0,4.4a.674.674,0,0,1-.012.087" transform="translate(-27.507 -176.36)" fill="#fff"/>
          <path id="Path_883094" data-name="Path 883094" d="M235.394,210.216h-3.536c-.181,0-.172,0-.17-.182.007-.482.007-.965.007-1.447,0-1.939,0-3.877,0-5.816a4.808,4.808,0,0,0-.57-2.367.423.423,0,0,1-.016-.087,46.483,46.483,0,0,0,4.79-.611c1.579-.3,3.148-.659,4.736-.994v.212q0,2.219,0,4.438a.356.356,0,0,1-.229.376,3.178,3.178,0,0,0-1.507,1.548.164.164,0,0,1-.186.113,3.353,3.353,0,0,0-2.251.707,3.221,3.221,0,0,0-1.323,2.435,3.964,3.964,0,0,0,.091,1.23c.037.144.1.281.162.446" transform="translate(-205.559 -176.741)" fill="#fff"/>
          <path id="Path_883095" data-name="Path 883095" d="M19.265,316.412H1.356c-.2,0-.4-.009-.607,0a.7.7,0,0,1-.723-.636.708.708,0,0,1,.585-.714,1.258,1.258,0,0,1,.286-.033q18.384,0,36.769,0a.762.762,0,0,1,.829.628.678.678,0,0,1-.591.749c-.123.012-.248.01-.372.01H19.265" transform="translate(-0.02 -280.196)" fill="#fff"/>
          <path id="Path_883096" data-name="Path 883096" d="M0,258.608V258.5c0-1.1-.006-2.2,0-3.307a2.066,2.066,0,0,1,.637-1.562,1.93,1.93,0,0,1,1.657-.577,2.02,2.02,0,0,1,1.636,1.238c.061.143.111.291.158.44a.638.638,0,0,0,.687.474c.141-.01.28-.045.421-.066a1.948,1.948,0,0,1,2.019.919,1.973,1.973,0,0,1-.115,2.349.4.4,0,0,1-.218.115,1.5,1.5,0,0,1-.3.008c-1.87,0-3.74,0-5.61,0-.318,0-.636.048-.973.076" transform="translate(0.001 -225.055)" fill="#fff"/>
          <path id="Path_883097" data-name="Path 883097" d="M287.5,258.624a3.2,3.2,0,0,0-1.156-.116c-1.851,0-3.7,0-5.553.006a.518.518,0,0,1-.491-.272,2.042,2.042,0,0,1,1.385-3.129,2.671,2.671,0,0,1,.764.031,1.214,1.214,0,0,0,.57,0,.594.594,0,0,0,.379-.372c.074-.2.137-.409.227-.6a2.044,2.044,0,0,1,3.88,1c.019,1.125,0,2.25,0,3.375,0,.018,0,.036-.008.079" transform="translate(-249.013 -225.034)" fill="#fff"/>
        </g>
      </g>
    </g>
  </g>
</svg>
