<svg xmlns="http://www.w3.org/2000/svg" xmlns:xlink="http://www.w3.org/1999/xlink" width="121" height="121" viewBox="0 0 121 121">
  <defs>
    <clipPath id="clip-path">
      <rect id="Rectangle_400938" data-name="Rectangle 400938" width="121" height="121" transform="translate(0 0)" fill="none"/>
    </clipPath>
    <clipPath id="clip-path-2">
      <rect id="Rectangle_401073" data-name="Rectangle 401073" width="92.219" height="41.532" fill="#efb499"/>
    </clipPath>
    <clipPath id="clip-path-3">
      <rect id="Rectangle_402998" data-name="Rectangle 402998" width="65.681" height="56.869" fill="none"/>
    </clipPath>
    <clipPath id="clip-path-5">
      <rect id="Rectangle_402996" data-name="Rectangle 402996" width="8.756" height="8.756" fill="none"/>
    </clipPath>
  </defs>
  <g id="Group_1101580" data-name="Group 1101580" transform="translate(2000 8074.212)">
    <g id="Group_1101471" data-name="Group 1101471" transform="translate(-2387.668 -14087.212)">
      <rect id="Rectangle_401103" data-name="Rectangle 401103" width="121" height="121" transform="translate(387.668 6013)" fill="none"/>
      <g id="Group_1099348" data-name="Group 1099348" transform="translate(387.668 6013)">
        <g id="Group_1099282" data-name="Group 1099282">
          <g id="Group_1099281" data-name="Group 1099281" clip-path="url(#clip-path-2)">
            <path id="Path_873375" data-name="Path 873375" d="M74.8,9.1c-4.139,0-6.28-2.03-8.17-3.821-1.855-1.756-3.452-3.274-6.792-3.274s-4.937,1.517-6.792,3.274C51.161,7.072,49.023,9.1,44.881,9.1s-6.28-2.03-8.169-3.821C34.857,3.525,33.26,2.007,29.92,2.007s-4.937,1.517-6.789,3.274C21.241,7.072,19.1,9.1,14.962,9.1S8.679,7.072,6.789,5.281C4.937,3.525,3.34,2.007,0,2.007V0C4.139,0,6.28,2.033,8.17,3.821c1.855,1.759,3.452,3.274,6.792,3.274S19.9,5.58,21.75,3.824C23.637,2.033,25.781,0,29.92,0s6.283,2.033,8.17,3.821c1.855,1.759,3.452,3.274,6.792,3.274s4.937-1.514,6.792-3.274C53.56,2.033,55.7,0,59.843,0s6.283,2.033,8.17,3.821C69.867,5.58,71.464,7.094,74.8,7.094S79.742,5.58,81.6,3.821C83.483,2.033,85.624,0,89.766,0V2.007c-3.34,0-4.937,1.517-6.792,3.274C81.084,7.072,78.943,9.1,74.8,9.1" transform="translate(2.453 32.43)" fill="#efb499"/>
            <path id="Path_873376" data-name="Path 873376" d="M74.8,9.1c-4.139,0-6.283-2.03-8.17-3.824-1.855-1.756-3.452-3.27-6.792-3.27s-4.937,1.514-6.792,3.27C51.164,7.072,49.023,9.1,44.881,9.1s-6.283-2.03-8.17-3.824c-1.855-1.756-3.452-3.27-6.792-3.27s-4.937,1.517-6.789,3.27C21.241,7.072,19.1,9.1,14.962,9.1S8.679,7.072,6.789,5.278C4.937,3.522,3.34,2.007,0,2.007V0C4.139,0,6.283,2.03,8.17,3.821c1.855,1.759,3.452,3.274,6.792,3.274S19.9,5.58,21.75,3.821C23.637,2.03,25.781,0,29.92,0S36.2,2.03,38.093,3.821c1.852,1.759,3.449,3.274,6.789,3.274s4.937-1.514,6.792-3.274C53.56,2.03,55.7,0,59.843,0s6.283,2.03,8.17,3.821C69.867,5.58,71.464,7.094,74.8,7.094S79.742,5.58,81.6,3.821C83.486,2.03,85.627,0,89.769,0V2.007c-3.34,0-4.94,1.517-6.8,3.27C81.084,7.072,78.943,9.1,74.8,9.1" transform="translate(1.635 21.62)" fill="#efb499"/>
            <path id="Path_873377" data-name="Path 873377" d="M74.8,9.1c-4.139,0-6.283-2.03-8.169-3.824-1.855-1.756-3.452-3.27-6.792-3.27s-4.937,1.514-6.792,3.27C51.164,7.072,49.02,9.1,44.881,9.1s-6.283-2.03-8.17-3.824c-1.855-1.756-3.452-3.27-6.792-3.27s-4.937,1.517-6.789,3.27C21.241,7.072,19.1,9.1,14.962,9.1S8.678,7.072,6.789,5.278C4.937,3.522,3.34,2.007,0,2.007V0C4.139,0,6.283,2.03,8.169,3.821c1.851,1.759,3.452,3.274,6.792,3.274S19.9,5.58,21.75,3.821C23.637,2.03,25.781,0,29.92,0S36.2,2.03,38.093,3.821c1.852,1.759,3.449,3.274,6.789,3.274s4.937-1.514,6.792-3.274C53.56,2.03,55.7,0,59.843,0s6.283,2.03,8.17,3.821C69.867,5.58,71.464,7.094,74.8,7.094S79.742,5.58,81.6,3.821C83.486,2.03,85.624,0,89.769,0V2.007c-3.34,0-4.941,1.517-6.8,3.27C81.084,7.072,78.943,9.1,74.8,9.1" transform="translate(0.818 10.81)" fill="#efb499"/>
            <path id="Path_873378" data-name="Path 873378" d="M74.8,9.1c-4.139,0-6.28-2.03-8.17-3.821-1.855-1.756-3.452-3.27-6.792-3.27s-4.937,1.514-6.789,3.27C51.164,7.069,49.023,9.1,44.881,9.1s-6.28-2.03-8.169-3.821c-1.855-1.756-3.452-3.27-6.792-3.27s-4.937,1.514-6.789,3.267C21.245,7.069,19.1,9.1,14.962,9.1S8.678,7.069,6.789,5.278C4.937,3.522,3.34,2.007,0,2.007V0C4.139,0,6.283,2.03,8.17,3.821c1.855,1.756,3.452,3.27,6.792,3.27S19.9,5.577,21.75,3.821C23.64,2.03,25.781,0,29.92,0s6.28,2.03,8.173,3.821c1.852,1.756,3.449,3.27,6.789,3.27s4.937-1.514,6.792-3.27C53.563,2.03,55.7,0,59.843,0s6.28,2.03,8.17,3.821c1.855,1.756,3.452,3.27,6.792,3.27s4.937-1.514,6.792-3.27C83.486,2.03,85.627,0,89.769,0V2.007c-3.344,0-4.941,1.514-6.8,3.27C81.084,7.069,78.943,9.1,74.8,9.1" transform="translate(0 0.003)" fill="#efb499"/>
          </g>
        </g>
      </g>
      <circle id="Ellipse_11504" data-name="Ellipse 11504" cx="50.5" cy="50.5" r="50.5" transform="translate(402.668 6031)" fill="#ffce73"/>
      <circle id="Ellipse_11503" data-name="Ellipse 11503" cx="52.5" cy="52.5" r="52.5" transform="translate(395.668 6021)" fill="#f3f9ff"/>
    </g>
    <g id="Group_1101472" data-name="Group 1101472" transform="translate(-1974.059 -8048.408)">
      <rect id="Rectangle_401104" data-name="Rectangle 401104" width="68" height="69" transform="translate(0.059 -0.592)" fill="none"/>
      <g id="Group_1101556" data-name="Group 1101556" transform="translate(1.059 5.408)">
        <g id="Group_1101555" data-name="Group 1101555" clip-path="url(#clip-path-3)">
          <g id="Group_1101554" data-name="Group 1101554">
            <g id="Group_1101553" data-name="Group 1101553" clip-path="url(#clip-path-3)">
              <path id="Path_883507" data-name="Path 883507" d="M43.82,86.253H7.472V84.57A4.224,4.224,0,0,1,11.7,80.346H39.6A4.224,4.224,0,0,1,43.82,84.57Z" transform="translate(-3.678 -39.544)" fill="#a76531"/>
              <path id="Path_883508" data-name="Path 883508" d="M43.937,102.138H0V95.8a3.823,3.823,0,0,1,3.823-3.823H40.114A3.823,3.823,0,0,1,43.937,95.8Z" transform="translate(0 -45.268)" fill="#7d4c25"/>
              <rect id="Rectangle_402993" data-name="Rectangle 402993" width="43.937" height="3.121" transform="translate(0 51.077)" fill="#dca700"/>
              <path id="Path_883509" data-name="Path 883509" d="M67.954,15.789,44.547,39.2a2.921,2.921,0,0,1-4.131,0l-10.8-10.8a2.921,2.921,0,0,1,0-4.131L53.02.855a2.922,2.922,0,0,1,4.131,0l10.8,10.8a2.921,2.921,0,0,1,0,4.131" transform="translate(-14.154 0)" fill="#7d4c25"/>
              <rect id="Rectangle_402994" data-name="Rectangle 402994" width="21.27" height="21.12" transform="translate(19.643 20.079) rotate(-45)" fill="#dca700"/>
              <path id="Path_883510" data-name="Path 883510" d="M50.97,56.277h0a1.6,1.6,0,0,1-2.259,0L33.847,41.414a1.6,1.6,0,1,1,2.259-2.259L50.97,54.018a1.6,1.6,0,0,1,0,2.259" transform="translate(-16.428 -19.04)" fill="#a76531"/>
              <path id="Path_883511" data-name="Path 883511" d="M101.939,73.181h0a4.643,4.643,0,0,1-6.567,0L76.431,54.24,83,47.673l18.941,18.941a4.643,4.643,0,0,1,0,6.567" transform="translate(-37.617 -23.463)" fill="#7d4c25"/>
              <path id="Path_883512" data-name="Path 883512" d="M85.035,22.212h0a1.6,1.6,0,0,1-2.259,0L67.912,7.349a1.6,1.6,0,1,1,2.259-2.26L85.035,19.953a1.6,1.6,0,0,1,0,2.259" transform="translate(-33.194 -2.274)" fill="#a76531"/>
              <g id="Group_1101552" data-name="Group 1101552" transform="translate(38.814 24.21)" opacity="0.1">
                <g id="Group_1101551" data-name="Group 1101551">
                  <g id="Group_1101550" data-name="Group 1101550" clip-path="url(#clip-path-5)">
                    <rect id="Rectangle_402995" data-name="Rectangle 402995" width="9.287" height="3.095" transform="translate(0 6.567) rotate(-45)"/>
                  </g>
                </g>
              </g>
              <path id="Path_883513" data-name="Path 883513" d="M90.877,56.435l-5.684,5.684a1.448,1.448,0,0,1-2.048-2.048l5.684-5.684a1.448,1.448,0,0,1,2.048,2.048" transform="translate(-40.713 -26.559)" fill="#a76531"/>
              <path id="Path_883514" data-name="Path 883514" d="M118.3,83.861l-5.684,5.684a1.448,1.448,0,0,1-2.048-2.048l5.684-5.684a1.448,1.448,0,0,1,2.048,2.048" transform="translate(-54.212 -40.058)" fill="#a76531"/>
            </g>
          </g>
        </g>
      </g>
    </g>
  </g>
</svg>
