<svg xmlns="http://www.w3.org/2000/svg" xmlns:xlink="http://www.w3.org/1999/xlink" width="62.504" height="62.504" viewBox="0 0 62.504 62.504">
  <defs>
    <clipPath id="clip-path">
      <rect id="Rectangle_402858" data-name="Rectangle 402858" width="31.298" height="42.18" fill="#fff"/>
    </clipPath>
  </defs>
  <g id="Group_1101607" data-name="Group 1101607" transform="translate(-769 -3523.939)">
    <g id="Group_1072168" data-name="Group 1072168" transform="translate(489.184 2325.223)">
      <g id="Group_1072053" data-name="Group 1072053" transform="translate(279.816 1198.717)">
        <circle id="Ellipse_4742" data-name="Ellipse 4742" cx="31.252" cy="31.252" r="31.252" transform="translate(0)" fill="#09614d"/>
      </g>
      <g id="Group_1101420" data-name="Group 1101420" transform="translate(295.419 1208.879)">
        <g id="Group_1101419" data-name="Group 1101419" clip-path="url(#clip-path)">
          <path id="Path_883088" data-name="Path 883088" d="M5.1,11.285a.237.237,0,0,0,.022-.07,1.533,1.533,0,0,1,.61-1.276c.352-.324.722-.629,1.081-.947.282-.25.558-.505.837-.759a2.782,2.782,0,0,0,.908-1.9c.038-.461.075-.924.159-1.378A1.741,1.741,0,0,1,10.25,3.515a.806.806,0,0,1,.392.062,1.384,1.384,0,0,0,1.39-.172,2.415,2.415,0,0,1,1.231-.435c.2-.011.4.01.595.019.15.007.3.014.45.028A1.341,1.341,0,0,0,15.4,2.6c.436-.43.846-.886,1.258-1.34A5.839,5.839,0,0,1,17.8.2a1.107,1.107,0,0,1,1.646.509.439.439,0,0,1-.112.584c-.34.314-.689.617-1.033.927-.387.348-.754.723-1.165,1.041A3.132,3.132,0,0,0,15.968,4.91a4.131,4.131,0,0,1-.379.986,6.963,6.963,0,0,1-.731.918A3.219,3.219,0,0,0,14.1,8c-.071.25-.028.391.214.494a2.064,2.064,0,0,0,.493.139,1.25,1.25,0,0,1,.978.678c.23.432.474.856.712,1.283a2.11,2.11,0,0,1,.15,1.306,6.992,6.992,0,0,0-.049.931,1.05,1.05,0,0,0,.326.684,3.369,3.369,0,0,0,1.943,1.033,3.841,3.841,0,0,0,1.773,0c.3-.089.594-.186.891-.282a1,1,0,0,1,1.24.415,7.512,7.512,0,0,1,.44.751,1.147,1.147,0,0,0,1.093.665c.984-.006,1.967-.02,2.951-.026a2.973,2.973,0,0,1,1.228.227.73.73,0,0,1,.48.524.683.683,0,0,1,.006.33,3.29,3.29,0,0,1-.28.647,1.631,1.631,0,0,0-.223,1.4,2.366,2.366,0,0,1-.072,1.289,2.655,2.655,0,0,0,.172,1.7,1.656,1.656,0,0,0,.356.447c.119.123.264.221.392.336a.488.488,0,0,1,.137.722,6.309,6.309,0,0,1-.5.692.511.511,0,0,0,.118.814,2.19,2.19,0,0,0,.546.269,1.773,1.773,0,0,1,1.3,1.261c.057.2.111.4.15.609.08.416.156.834.22,1.253a.767.767,0,0,1-.116.541.579.579,0,0,1-.9.089,1.779,1.779,0,0,1-.275-.432c-.111-.238-.2-.488-.294-.732a2.075,2.075,0,0,0-.119-.264.673.673,0,0,0-.938-.34,3.722,3.722,0,0,0-.592.29,3.081,3.081,0,0,1-2.225.336,4.5,4.5,0,0,0-1.683-.082,3.344,3.344,0,0,0-.879.342c-.274.146-.291.379-.041.567.329.248.687.457,1.037.675.168.105.35.189.521.291.146.087.169.164.075.3a.821.821,0,0,1-.254.261c-.2.112-.421.185-.627.287a5.111,5.111,0,0,0-.775.417.983.983,0,0,0-.351,1.261,9.115,9.115,0,0,0,.667,1.173c.3.467.629.911.923,1.38a2.091,2.091,0,0,1,.167,1.776c-.16.533-.39,1.046-.6,1.565a4.785,4.785,0,0,0-.462,1.468c-.025.424-.044.849-.081,1.273a9.167,9.167,0,0,1-.123.909c-.043.227-.132.264-.361.22-.385-.074-.769-.163-1.158-.2a5.184,5.184,0,0,0-.788.027c-.054,0-.107.011-.161.015-.335.024-.382-.031-.207-.326a5.883,5.883,0,0,1,.536-.722c.167-.2.365-.381.532-.585a2.29,2.29,0,0,0,.306-.47.459.459,0,0,0-.148-.63,2.108,2.108,0,0,0-.567-.329,10.668,10.668,0,0,0-1.518-.464,15.451,15.451,0,0,0-1.622-.148c-.182-.015-.366-.019-.546-.048a2.658,2.658,0,0,0-1.541.294,2.125,2.125,0,0,1-.441.145.53.53,0,0,1-.6-.287,2.021,2.021,0,0,1-.241-.575,1.766,1.766,0,0,0-.691-1.11c-.535-.4-1.07-.794-1.622-1.167a3.718,3.718,0,0,1-1.376-1.764,12.119,12.119,0,0,0-.588-1.286,1.906,1.906,0,0,0-.483-.508.7.7,0,0,0-.776-.072c-.23.1-.46.208-.686.32a.661.661,0,0,1-.689-.034,3.183,3.183,0,0,1-.494-.361,1.628,1.628,0,0,0-1.507-.411c-.365.065-.729.136-1.1.191a1.584,1.584,0,0,1-1.268-.328c-.815-.633-1.659-1.229-2.481-1.854-.342-.26-.658-.554-.989-.829-.094-.078-.1-.136-.019-.237.22-.271.431-.55.635-.834a.965.965,0,0,0,.182-.623,1.35,1.35,0,0,1,.49-1.138c.651-.572,1.293-1.154,1.914-1.758a8.448,8.448,0,0,0,.848-1.009.738.738,0,0,0,.011-.905A3.549,3.549,0,0,1,3.5,20.721c-.1-.674-.208-1.35-.266-2.029A2.838,2.838,0,0,1,3.6,17.238a2.713,2.713,0,0,0,.278-1.232,1.292,1.292,0,0,0-.362-.793c-.245-.286-.509-.557-.741-.852a3.568,3.568,0,0,1-.331-.569.371.371,0,0,1,.08-.459,1,1,0,0,1,.227-.2A2.9,2.9,0,0,0,4,11.64a1.065,1.065,0,0,1,.266-.333.478.478,0,0,1,.44-.1c.129.029.26.051.395.076" transform="translate(0 0)" fill="#fff"/>
        </g>
      </g>
    </g>
  </g>
</svg>
