<svg xmlns="http://www.w3.org/2000/svg" xmlns:xlink="http://www.w3.org/1999/xlink" width="139" height="139" viewBox="0 0 139 139">
  <defs>
    <clipPath id="clip-path">
      <rect id="Rectangle_400938" data-name="Rectangle 400938" width="139" height="139" transform="translate(-0.043 -0.043)" fill="none"/>
    </clipPath>
    <clipPath id="clip-path-2">
      <rect id="Rectangle_401073" data-name="Rectangle 401073" width="105.872" height="47.68" fill="#7d3a1b"/>
    </clipPath>
    <clipPath id="clip-path-3">
      <rect id="Rectangle_402885" data-name="Rectangle 402885" width="70.845" height="79" fill="#7a4f00" stroke="#7a4f00" stroke-width="0.5"/>
    </clipPath>
  </defs>
  <g id="Group_1101578" data-name="Group 1101578" transform="translate(-1041 -4306)">
    <g id="Group_1099411" data-name="Group 1099411" transform="translate(776.043 -977.957)">
      <g id="Group_1099379" data-name="Group 1099379" transform="translate(265 5284)">
        <rect id="Rectangle_401103" data-name="Rectangle 401103" width="139" height="139" transform="translate(-0.043 -0.043)" fill="none"/>
        <g id="Group_1099348" data-name="Group 1099348" transform="translate(0)">
          <g id="Group_1099282" data-name="Group 1099282">
            <g id="Group_1099281" data-name="Group 1099281" clip-path="url(#clip-path-2)">
              <path id="Path_873375" data-name="Path 873375" d="M85.879,10.449c-4.752,0-7.21-2.33-9.379-4.386C74.371,4.047,72.538,2.3,68.7,2.3s-5.668,1.742-7.8,3.758c-2.17,2.056-4.624,4.386-9.379,4.386s-7.21-2.33-9.379-4.386C40.018,4.047,38.184,2.3,34.349,2.3s-5.668,1.742-7.794,3.758c-2.17,2.056-4.627,4.386-9.379,4.386S9.963,8.119,7.794,6.063C5.668,4.047,3.835,2.3,0,2.3V0C4.752,0,7.21,2.334,9.379,4.386c2.129,2.02,3.963,3.758,7.8,3.758s5.668-1.738,7.794-3.755C27.136,2.334,29.6,0,34.349,0s7.213,2.334,9.379,4.386c2.129,2.02,3.963,3.758,7.8,3.758s5.668-1.738,7.8-3.758C61.489,2.334,63.951,0,68.7,0s7.213,2.334,9.379,4.386c2.129,2.02,3.963,3.758,7.8,3.758s5.668-1.738,7.8-3.758C95.843,2.334,98.3,0,103.056,0V2.3c-3.835,0-5.668,1.742-7.8,3.758-2.169,2.056-4.627,4.386-9.379,4.386" transform="translate(2.816 37.231)" fill="#7d3a1b"/>
              <path id="Path_873376" data-name="Path 873376" d="M85.879,10.449c-4.752,0-7.213-2.33-9.379-4.39C74.371,4.043,72.538,2.3,68.7,2.3s-5.668,1.738-7.8,3.755c-2.166,2.06-4.624,4.39-9.379,4.39s-7.213-2.33-9.379-4.39C40.018,4.043,38.184,2.3,34.349,2.3s-5.668,1.742-7.794,3.755c-2.17,2.06-4.627,4.39-9.379,4.39s-7.213-2.33-9.383-4.39C5.668,4.043,3.835,2.3,0,2.3V0C4.752,0,7.213,2.33,9.379,4.386c2.129,2.02,3.963,3.758,7.8,3.758s5.668-1.738,7.794-3.758C27.136,2.33,29.6,0,34.349,0s7.213,2.33,9.383,4.386c2.126,2.02,3.959,3.758,7.794,3.758s5.668-1.738,7.8-3.758C61.489,2.33,63.951,0,68.7,0s7.213,2.33,9.379,4.386c2.129,2.02,3.963,3.758,7.8,3.758s5.668-1.738,7.8-3.758C95.846,2.33,98.3,0,103.059,0V2.3c-3.835,0-5.672,1.742-7.8,3.755-2.169,2.06-4.628,4.39-9.379,4.39" transform="translate(1.877 24.821)" fill="#7d3a1b"/>
              <path id="Path_873377" data-name="Path 873377" d="M85.879,10.449c-4.752,0-7.213-2.33-9.379-4.39C74.371,4.043,72.538,2.3,68.7,2.3s-5.668,1.738-7.8,3.755c-2.166,2.06-4.627,4.39-9.379,4.39s-7.213-2.33-9.379-4.39C40.018,4.043,38.184,2.3,34.349,2.3s-5.668,1.742-7.794,3.755c-2.169,2.06-4.627,4.39-9.379,4.39s-7.213-2.33-9.383-4.39C5.668,4.043,3.835,2.3,0,2.3V0C4.752,0,7.213,2.33,9.379,4.386c2.126,2.02,3.963,3.758,7.8,3.758s5.668-1.738,7.794-3.758C27.136,2.33,29.6,0,34.349,0s7.213,2.33,9.383,4.386c2.126,2.02,3.959,3.758,7.794,3.758s5.668-1.738,7.8-3.758C61.489,2.33,63.951,0,68.7,0s7.213,2.33,9.379,4.386c2.129,2.02,3.963,3.758,7.8,3.758s5.668-1.738,7.8-3.758C95.846,2.33,98.3,0,103.059,0V2.3c-3.835,0-5.672,1.742-7.8,3.755-2.169,2.06-4.627,4.39-9.379,4.39" transform="translate(0.939 12.41)" fill="#7d3a1b"/>
              <path id="Path_873378" data-name="Path 873378" d="M85.879,10.445c-4.752,0-7.21-2.33-9.379-4.386C74.371,4.043,72.538,2.3,68.7,2.3s-5.668,1.738-7.794,3.755c-2.169,2.056-4.627,4.386-9.383,4.386s-7.21-2.33-9.379-4.386C40.018,4.043,38.184,2.3,34.349,2.3s-5.668,1.738-7.794,3.751c-2.166,2.06-4.627,4.39-9.379,4.39S9.963,8.115,7.794,6.059C5.668,4.043,3.835,2.3,0,2.3V0C4.752,0,7.213,2.33,9.379,4.386c2.129,2.016,3.963,3.755,7.8,3.755S22.845,6.4,24.971,4.386C27.14,2.33,29.6,0,34.349,0s7.21,2.33,9.383,4.386c2.126,2.016,3.959,3.755,7.794,3.755s5.668-1.738,7.8-3.755C61.493,2.33,63.951,0,68.7,0s7.21,2.33,9.379,4.386c2.129,2.016,3.963,3.755,7.8,3.755s5.668-1.738,7.8-3.755C95.846,2.33,98.3,0,103.059,0V2.3c-3.839,0-5.672,1.738-7.8,3.755-2.169,2.056-4.627,4.386-9.379,4.386" transform="translate(0 0.004)" fill="#7d3a1b"/>
            </g>
          </g>
        </g>
        <path id="Path_873425" data-name="Path 873425" d="M57.977,0A57.977,57.977,0,1,1,0,57.977,57.977,57.977,0,0,1,57.977,0Z" transform="translate(17.221 20.665)" fill="#efb499"/>
        <circle id="Ellipse_11503" data-name="Ellipse 11503" cx="60.5" cy="60.5" r="60.5" transform="translate(8.957 8.957)" fill="#fff"/>
      </g>
    </g>
    <g id="Group_1099412" data-name="Group 1099412" transform="translate(724 -2088)">
      <g id="Group_1099389" data-name="Group 1099389" transform="translate(347.893 6422.744)">
        <rect id="Rectangle_401104" data-name="Rectangle 401104" width="78" height="79" transform="translate(0.107 0.256)" fill="none"/>
      </g>
      <g id="Group_1101446" data-name="Group 1101446" transform="translate(352 6423)">
        <g id="Group_1101446-2" data-name="Group 1101446" clip-path="url(#clip-path-3)">
          <path id="Path_883124" data-name="Path 883124" d="M4.048,67.834V36.054c-.059-.011-.128-.028-.2-.035a.933.933,0,0,1-.962-1.014c-.017-.758-.005-1.517-.006-2.275,0-.9-.006-1.795,0-2.692.008-.783.242-1.029,1.018-1.085.255-.019.512-.012.768-.014s.487,0,.775,0v-.526q0-2.276,0-4.551a4.685,4.685,0,0,1,.045-.606.877.877,0,0,1,.639-.755c1.781-.651,3.553-1.324,5.331-1.982q4.015-1.486,8.034-2.964c1.3-.481,2.591-.978,3.889-1.459q2.757-1.022,5.517-2.032l4.2-1.546c.439-.162.881-.318,1.311-.5a.378.378,0,0,0,.141-.3c0-1.879-.023-3.759-.03-5.638-.006-1.666,0-3.333,0-5A.941.941,0,0,1,35.57.005q4.34-.01,8.681,0c.785,0,1.041.288,1.042,1.082q0,2.5,0,5c0,.712-.267.982-.987.983q-3.764,0-7.528,0h-.432a1.937,1.937,0,0,0-.027.225q0,2.211,0,4.422c0,.14-.007.245.179.313,1.892.689,3.777,1.4,5.665,2.095q7.178,2.659,14.357,5.317c2.687,1,5.367,2.01,8.059,2.991a1.153,1.153,0,0,1,.852,1.224c-.011,1.645,0,3.29-.014,4.935,0,.323.082.392.392.374a10.736,10.736,0,0,1,1.438.018.7.7,0,0,1,.722.743c.025.276.023.555.023.832,0,1.41.006,2.82,0,4.23-.006.886-.18,1.073-1.052,1.217a1.053,1.053,0,0,0-.128.039V67.831H68.13c.772,0,1.091.306,1.1,1.086q.018,1.65,0,3.3c0,.236.026.335.307.32.978-.052,1.311.292,1.307,1.279,0,1.324,0,2.649-.005,3.974a2.327,2.327,0,0,1-.047.508.819.819,0,0,1-.84.687C69.515,79,69.077,79,68.64,79H1.4c-.16,0-.32,0-.48-.006a.832.832,0,0,1-.871-.728A2.535,2.535,0,0,1,0,77.758q-.007-2,0-4.006a2.2,2.2,0,0,1,.048-.476.866.866,0,0,1,.824-.719c.231-.022.463-.031.731-.048v-.518q0-1.362,0-2.724c0-.16.006-.321.021-.48.06-.665.332-.93,1-.951.458-.015.916,0,1.414,0M35.41,28.94h0q13.983,0,27.967.005c.239,0,.311-.06.31-.3q-.005-2.211.019-4.422a.453.453,0,0,0-.349-.5c-.554-.188-1.1-.395-1.653-.6q-4.05-1.484-8.1-2.971c-1.419-.523-2.832-1.063-4.248-1.593q-2.723-1.02-5.448-2.038-2.051-.763-4.107-1.512c-1.361-.5-2.722-1-4.088-1.476a.938.938,0,0,0-.551,0c-.5.154-.985.343-1.475.524q-4.8,1.77-9.591,3.544C21.33,18.635,18.57,19.678,15.8,20.7Q11.68,22.217,7.546,23.7a.563.563,0,0,0-.425.617c.018,1.282.011,2.564.021,3.845.006.776.012.773.782.773H35.41M18.381,67.816c0-.529-.023-1.029.006-1.526a2.078,2.078,0,0,1,.486-1.607.821.821,0,0,0,.279-.7q-.009-11.264,0-22.529c0-.62,0-1.239,0-1.859a.418.418,0,0,0-.08-.286,2.043,2.043,0,0,1-.685-1.75c0-.5,0-1,0-1.531H5.753V67.816ZM52.465,36.007c0,.627.006,1.182,0,1.736a1.886,1.886,0,0,1-.558,1.45.685.685,0,0,0-.212.568q.008,5.5,0,10.99,0,6.633.006,13.265a.758.758,0,0,0,.17.514,1.828,1.828,0,0,1,.6,1.491c-.013.595,0,1.189,0,1.789H65.1a1.126,1.126,0,0,0,.022-.146q-.005-9.339-.011-18.678,0-6.327,0-12.655c0-.19.02-.346-.269-.345q-5.652.02-11.3.021H52.465M66.273,30.68H4.584v3.533H66.273ZM69.1,74.255H1.74V77.3H69.1Zm-33.71-1.726v0q15.918,0,31.837.006c.25,0,.3-.079.3-.309-.011-.779-.013-1.559,0-2.338.005-.263-.068-.339-.338-.339q-8.343.013-16.687.007H25.522q-10.954,0-21.908-.008c-.236,0-.317.054-.311.3.015.662,0,1.324.005,1.986,0,.7.008.7.692.7H35.389m4.735-4.716c0-.229,0-.44,0-.65q0-5.605,0-11.211a6.062,6.062,0,0,0-.1-1.144,3.277,3.277,0,0,0-2.8-2.743,23.061,23.061,0,0,0-3.6-.005,2.67,2.67,0,0,0-1.155.415A3.636,3.636,0,0,0,30.7,55.847c-.011,3.609.008,7.218.015,10.827,0,.379,0,.758,0,1.138Zm-11.105,0c0-.081.011-.143.011-.2,0-3.738-.011-7.477.005-11.216a11.08,11.08,0,0,1,.184-1.971,5.065,5.065,0,0,1,4.187-4.012,26.12,26.12,0,0,1,3.67-.069,4.66,4.66,0,0,1,3.11,1.4,5.5,5.5,0,0,1,1.69,4.084c.011,3.9,0,7.8,0,11.7,0,.093.008.185.013.279h1.775c0-.764,0-1.5,0-2.236a1.2,1.2,0,0,1,.43-.93.856.856,0,0,0,.28-.712q-.008-7.45-.005-14.9v-.541H26.483c-.005.1-.013.185-.013.268q0,7.627,0,15.253a.883.883,0,0,0,.247.58,1.526,1.526,0,0,1,.506,1.164q.005.913.016,1.826c0,.08.011.16.017.236ZM43.626,36.022H27.207c0,.636,0,1.253,0,1.87a1.654,1.654,0,0,1-.513,1.3.811.811,0,0,0-.227.519c-.02.79.011,1.581,0,2.371,0,.253.052.325.313.325q8.247-.009,16.494,0h1.054a.764.764,0,0,0,.047-.171c.006-.876.015-1.752.007-2.627a.481.481,0,0,0-.144-.336,1.733,1.733,0,0,1-.612-1.51c.009-.565,0-1.129,0-1.736M24.762,39.648H20.92V64.111h3.842Zm21.321,24.47h3.836V39.645H46.084ZM35.41,46.743v0q4.322,0,8.644,0c.249,0,.337-.063.329-.324q-.032-.992-.011-1.985c.005-.247-.077-.307-.309-.307q-8.66.006-17.321,0c-.206,0-.279.055-.276.271.011.651.018,1.3-.009,1.953-.012.3.051.4.373.4,2.86-.013,5.72-.007,8.58-.007M36.336,1.7V5.372a.881.881,0,0,0,.137.023c2.306,0,4.612,0,6.918,0,.21,0,.246-.085.245-.268-.006-1.036,0-2.072,0-3.108,0-.1-.01-.206-.016-.323ZM50.766,67.813c0-.558-.009-1.1,0-1.639.006-.249-.049-.355-.333-.354-1.439.008-2.877-.009-4.316-.013a4.361,4.361,0,0,0-.637.041c-.069.01-.18.1-.181.154-.013.6-.008,1.207-.008,1.812Zm-25.234.008V65.811c-1.555,0-3.089-.006-4.622,0-.829,0-.828.015-.817.834,0,.389,0,.778,0,1.174ZM45.3,37.9h5.437V36.03H45.3ZM25.541,36.028H20.072c0,.547.013,1.08-.006,1.611-.009.236.073.286.291.285,1.547-.01,3.093-.009,4.64-.011h.544Z" transform="translate(0 0)" fill="#7a4f00" stroke="#7a4f00" stroke-width="0.5"/>
          <path id="Path_883125" data-name="Path 883125" d="M128.877,69.879a4.773,4.773,0,0,1-4.747,4.741,4.72,4.72,0,1,1,.015-9.44,4.732,4.732,0,0,1,4.731,4.7m-4.768-3.006a2.918,2.918,0,0,0-3,2.922,3.019,3.019,0,1,0,6.034.061,2.9,2.9,0,0,0-3.034-2.984" transform="translate(-88.699 -48.418)" fill="#7a4f00" stroke="#7a4f00" stroke-width="0.5"/>
          <path id="Path_883126" data-name="Path 883126" d="M40.425,215.19c0,1.089.007,2.179,0,3.268a.8.8,0,0,1-.91.909q-3.315.014-6.63,0a.827.827,0,0,1-.93-.843,3.162,3.162,0,0,1-.039-.414q0-2.932,0-5.863c0-.085,0-.171.011-.256.056-.754.345-1.045,1.106-1.076.48-.02.961-.006,1.441-.006q2.338,0,4.676,0a2.657,2.657,0,0,1,.507.048.8.8,0,0,1,.762.9c.011,1.11,0,2.221,0,3.332h0m-1.7,2.494V212.65H33.664a.477.477,0,0,0-.029.107c0,1.569,0,3.138-.01,4.707,0,.249.138.235.31.234q2.129-.011,4.257-.014h.537" transform="translate(-23.706 -156.666)" fill="#7a4f00" stroke="#7a4f00" stroke-width="0.5"/>
          <path id="Path_883127" data-name="Path 883127" d="M40.415,163.8c0,1.089.005,2.177,0,3.266,0,.641-.3.955-.935.958q-3.3.014-6.593,0c-.6,0-.864-.262-.958-.857a2.869,2.869,0,0,1-.033-.446q0-2.866,0-5.731a4.554,4.554,0,0,1,.021-.543.865.865,0,0,1,.923-.863c.4-.017.811-.005,1.216-.006l5.056-.006c.128,0,.256,0,.384.009.632.046.9.32.911.957.01,1.089,0,2.177,0,3.266h0m-1.7-2.52h-5.08v5.057h5.08Z" transform="translate(-23.692 -118.53)" fill="#7a4f00" stroke="#7a4f00" stroke-width="0.5"/>
          <path id="Path_883128" data-name="Path 883128" d="M214.762,219.382c-1.068,0-2.136,0-3.2,0-.735,0-1.035-.29-1.037-1.026q-.008-3.189,0-6.378c0-.655.215-.9.863-1.018a2.664,2.664,0,0,1,.477-.04q2.931,0,5.862,0c.984,0,1.3.326,1.3,1.314q-.005,2.964,0,5.929c0,.1,0,.193,0,.288a.876.876,0,0,1-.986.93c-1.089,0-2.178,0-3.268,0m-2.563-6.74v5.031a.889.889,0,0,0,.142.026c1.568,0,3.136-.007,4.7,0,.233,0,.255-.112.254-.3,0-1.494-.007-2.989.006-4.483,0-.272-.127-.283-.333-.281-.939.006-1.878,0-2.816,0H212.2" transform="translate(-156.38 -156.677)" fill="#7a4f00" stroke="#7a4f00" stroke-width="0.5"/>
          <path id="Path_883129" data-name="Path 883129" d="M210.521,163.814c0-1.057,0-2.114,0-3.171,0-.753.292-1.064,1.039-1.066q3.218-.012,6.436,0c.706,0,1.026.338,1.028,1.055q0,3.155,0,6.311c0,.74-.33,1.078-1.073,1.083-1.046.007-2.092,0-3.138,0-1.067,0-2.135,0-3.2.006-.789,0-1.088-.289-1.091-1.076,0-1.046,0-2.093,0-3.14m1.667,2.516h5.094v-5.051h-5.094Z" transform="translate(-156.38 -118.535)" fill="#7a4f00" stroke="#7a4f00" stroke-width="0.5"/>
        </g>
      </g>
    </g>
  </g>
</svg>
