<svg xmlns="http://www.w3.org/2000/svg" xmlns:xlink="http://www.w3.org/1999/xlink" width="145" height="145" viewBox="0 0 145 145">
  <defs>
    <clipPath id="clip-path">
      <rect id="Rectangle_400938" data-name="Rectangle 400938" width="145" height="145" transform="translate(0 -0.281)" fill="none"/>
    </clipPath>
    <clipPath id="clip-path-2">
      <rect id="Rectangle_401073" data-name="Rectangle 401073" width="110.228" height="49.642" fill="#7d3a1b"/>
    </clipPath>
    <clipPath id="clip-path-3">
      <rect id="Rectangle_402453" data-name="Rectangle 402453" width="81" height="81.005" fill="#6a4d23"/>
    </clipPath>
  </defs>
  <g id="Group_1101575" data-name="Group 1101575" transform="translate(-308 -8455.836)">
    <g id="Group_1100890" data-name="Group 1100890" transform="translate(133 -1084.883)">
      <g id="Group_1099404" data-name="Group 1099404" transform="translate(175 9541)">
        <g id="Group_1099379" data-name="Group 1099379" transform="translate(0 0)">
          <rect id="Rectangle_401103" data-name="Rectangle 401103" width="145" height="145" transform="translate(0 -0.281)" fill="none"/>
          <g id="Group_1099348" data-name="Group 1099348" transform="translate(0.045 0.045)">
            <g id="Group_1099282" data-name="Group 1099282">
              <g id="Group_1099281" data-name="Group 1099281" clip-path="url(#clip-path-2)">
                <path id="Path_873375" data-name="Path 873375" d="M89.413,10.879c-4.947,0-7.506-2.426-9.765-4.567C77.431,4.213,75.522,2.4,71.529,2.4s-5.9,1.814-8.118,3.913c-2.259,2.141-4.814,4.567-9.765,4.567S46.14,8.453,43.881,6.312C41.664,4.213,39.755,2.4,35.763,2.4s-5.9,1.814-8.114,3.913c-2.259,2.141-4.818,4.567-9.765,4.567s-7.51-2.426-9.769-4.567C5.9,4.213,3.993,2.4,0,2.4V0C4.947,0,7.506,2.43,9.765,4.567c2.217,2.1,4.126,3.913,8.118,3.913S23.785,6.67,26,4.571C28.253,2.43,30.816,0,35.763,0s7.51,2.43,9.765,4.567c2.217,2.1,4.126,3.913,8.118,3.913s5.9-1.81,8.118-3.913C64.019,2.43,66.582,0,71.529,0s7.51,2.43,9.765,4.567c2.217,2.1,4.126,3.913,8.118,3.913s5.9-1.81,8.118-3.913C99.786,2.43,102.345,0,107.3,0V2.4c-3.993,0-5.9,1.814-8.118,3.913-2.259,2.141-4.818,4.567-9.765,4.567" transform="translate(2.932 38.763)" fill="#7d3a1b"/>
                <path id="Path_873376" data-name="Path 873376" d="M89.413,10.879c-4.947,0-7.51-2.426-9.765-4.571C77.431,4.209,75.522,2.4,71.529,2.4s-5.9,1.81-8.118,3.909c-2.255,2.145-4.814,4.571-9.765,4.571s-7.51-2.426-9.765-4.571C41.664,4.209,39.755,2.4,35.763,2.4s-5.9,1.814-8.115,3.909c-2.259,2.145-4.818,4.571-9.765,4.571s-7.51-2.426-9.769-4.571C5.9,4.209,3.993,2.4,0,2.4V0C4.947,0,7.51,2.426,9.765,4.567c2.217,2.1,4.126,3.913,8.118,3.913S23.785,6.67,26,4.567C28.253,2.426,30.816,0,35.763,0s7.51,2.426,9.769,4.567c2.213,2.1,4.122,3.913,8.115,3.913s5.9-1.81,8.118-3.913C64.019,2.426,66.582,0,71.529,0s7.51,2.426,9.765,4.567c2.217,2.1,4.126,3.913,8.118,3.913s5.9-1.81,8.118-3.913C99.79,2.426,102.349,0,107.3,0V2.4c-3.993,0-5.905,1.814-8.122,3.909-2.259,2.145-4.818,4.571-9.765,4.571" transform="translate(1.955 25.842)" fill="#7d3a1b"/>
                <path id="Path_873377" data-name="Path 873377" d="M89.412,10.879c-4.947,0-7.51-2.426-9.765-4.571C77.431,4.209,75.522,2.4,71.529,2.4s-5.9,1.81-8.118,3.909c-2.255,2.145-4.818,4.571-9.765,4.571s-7.51-2.426-9.765-4.571C41.664,4.209,39.755,2.4,35.763,2.4s-5.9,1.814-8.115,3.909c-2.259,2.145-4.818,4.571-9.765,4.571s-7.51-2.426-9.769-4.571C5.9,4.209,3.993,2.4,0,2.4V0C4.947,0,7.51,2.426,9.765,4.567c2.213,2.1,4.126,3.913,8.118,3.913S23.785,6.67,26,4.567C28.253,2.426,30.816,0,35.763,0s7.51,2.426,9.769,4.567c2.213,2.1,4.122,3.913,8.115,3.913s5.9-1.81,8.118-3.913C64.019,2.426,66.582,0,71.529,0s7.51,2.426,9.765,4.567c2.217,2.1,4.126,3.913,8.118,3.913s5.9-1.81,8.118-3.913C99.79,2.426,102.345,0,107.3,0V2.4c-3.993,0-5.905,1.814-8.122,3.909-2.259,2.145-4.818,4.571-9.765,4.571" transform="translate(0.977 12.921)" fill="#7d3a1b"/>
                <path id="Path_873378" data-name="Path 873378" d="M89.413,10.875c-4.947,0-7.506-2.426-9.765-4.567C77.431,4.209,75.522,2.4,71.529,2.4s-5.9,1.81-8.115,3.909c-2.259,2.141-4.818,4.567-9.769,4.567S46.14,8.449,43.881,6.308C41.664,4.209,39.755,2.4,35.763,2.4s-5.9,1.81-8.115,3.905c-2.255,2.145-4.818,4.571-9.765,4.571s-7.51-2.426-9.769-4.567C5.9,4.209,3.993,2.4,0,2.4V0C4.947,0,7.51,2.426,9.765,4.567c2.217,2.1,4.126,3.909,8.118,3.909s5.9-1.81,8.115-3.909C28.257,2.426,30.816,0,35.763,0s7.506,2.426,9.769,4.567c2.213,2.1,4.122,3.909,8.115,3.909s5.9-1.81,8.118-3.909C64.023,2.426,66.582,0,71.529,0s7.506,2.426,9.765,4.567c2.217,2.1,4.126,3.909,8.118,3.909s5.9-1.81,8.118-3.909C99.79,2.426,102.349,0,107.3,0V2.4c-4,0-5.905,1.81-8.122,3.909-2.259,2.141-4.818,4.567-9.765,4.567" transform="translate(0 0.004)" fill="#7d3a1b"/>
              </g>
            </g>
          </g>
          <path id="Path_873425" data-name="Path 873425" d="M60.362,0A60.362,60.362,0,1,1,0,60.362,60.362,60.362,0,0,1,60.362,0Z" transform="translate(17.974 21.56)" fill="#efb499"/>
          <circle id="Ellipse_11503" data-name="Ellipse 11503" cx="63" cy="63" r="63" transform="translate(9 9.719)" fill="#fef7eb"/>
        </g>
      </g>
      <g id="Group_1099405" data-name="Group 1099405" transform="translate(206.234 9571.193)">
        <g id="Group_1099389" data-name="Group 1099389" transform="translate(1 -4.835)">
          <rect id="Rectangle_401104" data-name="Rectangle 401104" width="81" height="83" transform="translate(-0.234 -0.475)" fill="none"/>
        </g>
        <g id="Group_1100894" data-name="Group 1100894" transform="translate(0.766 -4.31)">
          <g id="Group_1100893" data-name="Group 1100893" clip-path="url(#clip-path-3)">
            <path id="Path_880627" data-name="Path 880627" d="M63.653,36c0,.148,0,.281,0,.415q.01,8.747.02,17.494c0,.222-.011.445-.014.667,0,.355.054.4.413.343a3.784,3.784,0,0,0,.426-.085,54.038,54.038,0,0,0,5.36-1.755c.276-.114.562-.2.843-.307a1.206,1.206,0,0,1,1.479.737,1.138,1.138,0,0,1-.7,1.409,42.888,42.888,0,0,1-6.168,2.067A7.806,7.806,0,0,1,64,57.316a2.609,2.609,0,0,1-2.662-2.382c-.038-.578-.062-1.157-.062-1.736q-.007-8.21,0-16.421v-1.32q-3.366-.746-6.873-1.163c-.008.091-.02.166-.021.241,0,1.615,0,3.23-.01,4.844,0,.19.1.217.237.26a5.324,5.324,0,0,1,2.947,2.131A5.072,5.072,0,0,1,54.238,49.6a13.459,13.459,0,0,1-2.137.092c-.245,0-.342.059-.376.326a12.751,12.751,0,0,1-.821,3.335,11.313,11.313,0,0,1-2.871,4.061,2.868,2.868,0,0,1-.486.411.612.612,0,0,0-.32.643c.023.657.018,1.315.011,1.972a.336.336,0,0,0,.257.36q4.552,1.749,9.1,3.508c1.377.531,2.758,1.053,4.128,1.6a10.264,10.264,0,0,1,6.292,7.061,9.223,9.223,0,0,1,.324,2.549c.005.8.028,1.605.011,2.408a3.131,3.131,0,0,1-2.757,3.023,8.45,8.45,0,0,1-.982.058q-9.979,0-19.958,0a2.6,2.6,0,0,1-.714-.093,1.132,1.132,0,0,1,.259-2.224c.183-.013.367-.012.551-.012H56.108c.056,0,.113-.01.209-.019,0-.157,0-.308,0-.459,0-1.112-.005-2.224.015-3.336a1.069,1.069,0,0,1,1.032-1.17,1.136,1.136,0,0,1,1.292.981,3.377,3.377,0,0,1,.057.691c.006,1.092,0,2.184,0,3.3.085.008.158.021.231.021q2.495,0,4.989-.013a1.977,1.977,0,0,0,.346-.029.732.732,0,0,0,.681-.71,16.974,16.974,0,0,0-.155-4.192,7.975,7.975,0,0,0-3.5-4.972,14.4,14.4,0,0,0-2.776-1.22c-1.551-.616-3.114-1.2-4.672-1.8-.864-.332-1.729-.662-2.591-1-.136-.053-.219-.069-.282.109A11.141,11.141,0,0,1,43.3,71.72a11.571,11.571,0,0,1-4.371.2,11.042,11.042,0,0,1-6.887-3.645,11.375,11.375,0,0,1-1.866-2.919c-.028-.061-.051-.125-.074-.189-.179-.493-.184-.509-.691-.337-.529.18-1.047.393-1.567.6-2.451.964-4.9,1.919-7.349,2.9a6.422,6.422,0,0,0-2.154,1.541,8.112,8.112,0,0,0-2.172,3.93,7.716,7.716,0,0,0-.147,1.5c-.023.821-.01,1.644-.005,2.466a.813.813,0,0,0,.792.9,1.469,1.469,0,0,0,.2.014h5.269v-.3c0-1.073-.01-2.147.007-3.22a2.156,2.156,0,0,1,.154-.757,1.1,1.1,0,0,1,1.31-.7,1.034,1.034,0,0,1,.911,1.07c.022,1.189.016,2.378,0,3.568,0,.264.055.348.332.347q6.121-.015,12.242-.01c.184,0,.368,0,.551.011a1.13,1.13,0,0,1,.275,2.225,2.106,2.106,0,0,1-.6.094q-10.2.007-20.394,0a3.216,3.216,0,0,1-3.164-1.933,2.15,2.15,0,0,1-.22-.859,36.645,36.645,0,0,1,.067-4.053,9.8,9.8,0,0,1,2.365-5.294,10.143,10.143,0,0,1,4.343-3.033c1.908-.706,3.792-1.478,5.688-2.217,1.546-.6,3.095-1.2,4.641-1.8.908-.353,1.812-.715,2.721-1.064a.317.317,0,0,0,.222-.352q0-1.044.028-2.088a.448.448,0,0,0-.205-.408,11.157,11.157,0,0,1-3.515-4.666,18.651,18.651,0,0,1-.847-3.543c-.542,0-1.1.024-1.659,0a4.947,4.947,0,0,1-4.481-2.979,5.028,5.028,0,0,1,1.858-6.365.448.448,0,0,0,.235-.515,10.613,10.613,0,0,1-.082-1.3c-.01-1.228,0-2.456,0-3.685v-.374c-.575.1-1.105.192-1.634.288q-1.751.319-3.5.643c-.152.028-.262.058-.26.265q.037,4.394.055,8.789.013,4.555,0,9.11c0,.521-.05,1.042-.087,1.562a2.65,2.65,0,0,1-3.191,2.115c-2.013-.609-4.044-1.16-6-1.937a25.858,25.858,0,0,1-7.127-3.92A9.665,9.665,0,0,1,.606,48.062a6.322,6.322,0,0,1-.6-2.7q-.016-15.391,0-30.782a6.633,6.633,0,0,1,1.5-4.117,15.151,15.151,0,0,1,4.74-3.846A37.383,37.383,0,0,1,13.7,3.543a50.041,50.041,0,0,1,5.435-1.395c1.261-.235,2.506-.559,3.772-.755C24.792,1.1,26.691.867,28.589.64A107.634,107.634,0,0,1,42.4.008c1.594.015,3.188.118,4.781.209C48.6.3,50.015.381,51.427.526,53.088.7,54.744.919,56.4,1.15c1.347.188,2.694.391,4.028.649,1.23.238,2.446.547,3.664.845a53.313,53.313,0,0,1,6.27,1.946,28.193,28.193,0,0,1,6.177,3.147A11.98,11.98,0,0,1,79.995,11.2a6.413,6.413,0,0,1,1,3.43q0,15.42,0,30.84a6.693,6.693,0,0,1-1.686,4.281,13.375,13.375,0,0,1-2.677,2.429,1.153,1.153,0,0,1-1.778-1.309,1.207,1.207,0,0,1,.344-.484c.474-.411.988-.778,1.452-1.2a6.623,6.623,0,0,0,1.7-2.28,3.64,3.64,0,0,0-.388-3.556,9.794,9.794,0,0,0-2.976-2.845,24.276,24.276,0,0,0-5.139-2.579q-1.831-.676-3.688-1.278c-.77-.249-1.562-.431-2.344-.641A.984.984,0,0,0,63.653,36m-2.381-2.961v-.817c0-1.509-.01-3.017.006-4.526a6.919,6.919,0,0,1,.131-1.527,2.813,2.813,0,0,1,2.167-2.143c1.853-.5,3.7-1.012,5.5-1.683a27.488,27.488,0,0,0,6.11-3.022,9.48,9.48,0,0,0,2.741-2.636,3.817,3.817,0,0,0,.718-2.485,4.708,4.708,0,0,0-1.039-2.418,13.3,13.3,0,0,0-4.716-3.536,42.833,42.833,0,0,0-4.2-1.792,49.808,49.808,0,0,0-6.475-1.845c-2.284-.5-4.583-.9-6.892-1.253-.9-.137-1.8-.228-2.7-.327-.989-.109-1.978-.229-2.969-.3-1.533-.108-3.068-.2-4.6-.259-1.739-.067-3.479-.144-5.218-.118-2.087.03-4.171.188-6.258.247-2.381.067-4.742.35-7.1.639-1.819.223-3.628.548-5.427.9-1.712.334-3.42.71-5.1,1.16-1.4.373-2.767.845-4.127,1.336a25.51,25.51,0,0,0-6.268,3.15,8.547,8.547,0,0,0-2.62,2.709A3.815,3.815,0,0,0,2.343,14.7a4.3,4.3,0,0,0,.7,1.945,9.322,9.322,0,0,0,2.5,2.478,30.434,30.434,0,0,0,8.527,3.956c1.146.372,2.323.647,3.478.989a2.753,2.753,0,0,1,2.091,2.337,6.845,6.845,0,0,1,.086,1.1c0,1.721-.023,3.441-.035,5.162,0,.111.01.222.016.341l5.364-.93c0-.15,0-.284,0-.419a8.317,8.317,0,0,1,8.186-8.438c3.384-.044,6.768,0,10.153-.018a8.064,8.064,0,0,1,2.539.345,4.226,4.226,0,0,1,2.085,1.4,5.18,5.18,0,0,1,.994,2.227c.1.464.257.59.731.632.212.019.425.023.637.04a4.361,4.361,0,0,1,3.956,3.774c.034.235.116.3.329.332,1,.137,2.009.27,3.009.436,1.036.172,2.067.38,3.1.572.159.029.318.055.485.084M35.4,40.907v-.015c1.944,0,3.888.029,5.831-.008a5.651,5.651,0,0,0,4.84-2.665c.144-.217.278-.444.441-.646a1.28,1.28,0,0,1,1.916-.147,1.727,1.727,0,0,1,.484,1.376,2.488,2.488,0,0,0,2.418,2.106.681.681,0,0,0,.661-.7q0-4.149,0-8.3a1.455,1.455,0,0,0-.346-.961,1.927,1.927,0,0,0-1.627-.784A3.087,3.087,0,0,1,47.359,29a3.909,3.909,0,0,1-.683-1.645,2.125,2.125,0,0,0-2.051-1.73,15.176,15.176,0,0,0-1.564-.072c-3.094-.007-6.189,0-9.283-.007A6.475,6.475,0,0,0,30.1,26.5a5.572,5.572,0,0,0-2.559,3.775,12.278,12.278,0,0,0-.116,2.139c-.011,2.224-.02,4.448.012,6.672a1.748,1.748,0,0,0,1.92,1.823q3.017,0,6.034,0m11.673-.192c-.11.1-.192.164-.268.236a8.164,8.164,0,0,1-5.73,2.267c-2.667.016-5.335,0-8-.007-.406,0-.812,0-1.218-.015-.21-.006-.279.075-.279.291.009,1.914-.012,3.828.013,5.742a8.371,8.371,0,0,0,.609,3.053,8.545,8.545,0,0,0,5.965,5.323,9.182,9.182,0,0,0,3.965.2,8.582,8.582,0,0,0,5.2-2.973A8.388,8.388,0,0,0,49.384,49.5c.057-2.125.027-4.252.047-6.378a.4.4,0,0,0-.257-.424A4.8,4.8,0,0,1,47.3,41.018c-.064-.1-.138-.184-.229-.3M17.343,35.992c-.149.029-.242.041-.332.065A50.974,50.974,0,0,0,10.5,38.181a23.511,23.511,0,0,0-5.133,2.774A8.6,8.6,0,0,0,3,43.394a3.648,3.648,0,0,0-.394,3.4,6.35,6.35,0,0,0,1.488,2.151,16.172,16.172,0,0,0,3.888,2.7,43.169,43.169,0,0,0,8.639,3.206,4.206,4.206,0,0,0,.429.067c.189.031.271-.06.279-.237,0-.1.008-.193.008-.29q.005-9.007.009-18.013c0-.121,0-.241,0-.391m-15-16.51V40.5l.249-.214c.4-.34.777-.7,1.19-1.016a27.111,27.111,0,0,1,6.852-3.644,64.556,64.556,0,0,1,6.518-2.016c.158-.043.193-.109.192-.258q-.014-3.175-.017-6.351c0-.5-.081-.614-.567-.767-.1-.032-.205-.054-.308-.082-.819-.221-1.646-.415-2.455-.667a41.051,41.051,0,0,1-7.091-2.81A20.243,20.243,0,0,1,3.037,20.1c-.216-.188-.428-.381-.691-.614m76.315.014c-.109.091-.189.155-.266.221-.383.326-.752.669-1.15.975a24.229,24.229,0,0,1-5.2,2.958,42.362,42.362,0,0,1-5.7,2.01c-.679.186-1.36.362-2.037.553-.551.155-.654.3-.651.863,0,.745.013,1.489.012,2.234,0,1.335-.015,2.669-.011,4a.346.346,0,0,0,.16.272c.44.144.888.263,1.335.381a45.872,45.872,0,0,1,7.107,2.445,21.136,21.136,0,0,1,6.229,3.958.983.983,0,0,0,.168.1ZM32.08,63.815a8.952,8.952,0,0,0,16.826.025.551.551,0,0,0-.093-.059c-.818-.318-1.641-.624-2.453-.956a2.1,2.1,0,0,1-1.421-1.689,12.892,12.892,0,0,1-.05-1.36c0-.1-.015-.2-.027-.353a11.148,11.148,0,0,1-8.771-.066c0,.521.012.993,0,1.465a2.073,2.073,0,0,1-1.415,1.958q-.988.372-1.97.76c-.212.084-.418.185-.624.276m19.7-20.642v4.18c.681,0,1.345,0,2.009,0a.865.865,0,0,0,.252-.058,2.724,2.724,0,0,0,2.011-3.052,2.755,2.755,0,0,0-1.924-2.309.338.338,0,0,0-.41.1,3.041,3.041,0,0,1-1.938,1.137m-22.547.051a4.345,4.345,0,0,1-2.74-1.026.25.25,0,0,0-.227,0,2.846,2.846,0,0,0-.911,3.9,2.706,2.706,0,0,0,2.365,1.271c.434,0,.869-.009,1.3-.017a1.665,1.665,0,0,0,.21-.028Z" transform="translate(0 0)" fill="#6a4d23"/>
            <path id="Path_880628" data-name="Path 880628" d="M201.637,37.871c0,.908.049,1.82-.009,2.725a4.26,4.26,0,0,1-5.912,3.553,4.143,4.143,0,0,1-2.611-3.821c-.058-1.68-.067-3.366,0-5.046a4.122,4.122,0,0,1,2.6-3.738,4.252,4.252,0,0,1,5.822,2.946,11.214,11.214,0,0,1,.14,1.989c.019.464,0,.928,0,1.392h-.037m-6.156-.034c0,.851-.026,1.7.013,2.551a1.827,1.827,0,0,0,2.548,1.642,1.809,1.809,0,0,0,1.262-1.761c.025-1.623.021-3.247,0-4.87a1.757,1.757,0,0,0-.862-1.553,1.934,1.934,0,0,0-1.936-.114,1.676,1.676,0,0,0-1.028,1.612c.01.831,0,1.662,0,2.493" transform="translate(-148.133 -23.92)" fill="#6a4d23"/>
            <path id="Path_880629" data-name="Path 880629" d="M153.584,35.424c.129,0,.2,0,.272,0a4.413,4.413,0,0,1,4.319,2.107,4.529,4.529,0,1,1-8.229,3.5,7.476,7.476,0,0,1,.262-4,9.848,9.848,0,0,1,4.459-5.641,1.106,1.106,0,0,1,1.505.111,1.179,1.179,0,0,1,.023,1.6,2.835,2.835,0,0,1-.508.381,7.849,7.849,0,0,0-2.006,1.781,1.647,1.647,0,0,0-.1.164m2.9,4.482a2.074,2.074,0,0,0-2.184-2.177,2.2,2.2,0,1,0,.2,4.4,2.1,2.1,0,0,0,1.985-2.221" transform="translate(-114.925 -23.898)" fill="#6a4d23"/>
            <path id="Path_880630" data-name="Path 880630" d="M115.555,31.179a4.176,4.176,0,0,1,3.962,2.613,3.684,3.684,0,0,1-.779,3.9c-.132.155-.064.233.033.336a3.994,3.994,0,0,1,.978,2.189,3.614,3.614,0,0,1-.675,2.544,3.871,3.871,0,0,1-7.061-1.478,1.084,1.084,0,0,1,.377-1.121,1.138,1.138,0,0,1,1.284-.1,1.781,1.781,0,0,1,.522.582,2.788,2.788,0,0,1,.208.568,1.545,1.545,0,0,0,2.129.8,1.526,1.526,0,0,0,.727-2.11,1.377,1.377,0,0,0-1.218-.852,1.321,1.321,0,0,1-1.167-.582,1.169,1.169,0,0,1,.8-1.782c.115-.018.23-.03.346-.042a1.564,1.564,0,0,0,1.418-1.576,1.588,1.588,0,0,0-1.528-1.517,1.463,1.463,0,0,0-1.571,1.133A1.389,1.389,0,0,1,113.6,35.7a1.143,1.143,0,0,1-1.6-1.2,3.5,3.5,0,0,1,.993-2.048,3.8,3.8,0,0,1,2.56-1.265" transform="translate(-85.932 -23.924)" fill="#6a4d23"/>
            <path id="Path_880631" data-name="Path 880631" d="M246.971,34.011a3.915,3.915,0,1,1-7.83-.071,3.915,3.915,0,1,1,7.83.071m-5.523-.03a1.656,1.656,0,0,0,1.615,1.612,1.625,1.625,0,0,0,1.577-1.606,1.665,1.665,0,0,0-1.571-1.626,1.7,1.7,0,0,0-1.621,1.619" transform="translate(-183.49 -23.063)" fill="#6a4d23"/>
          </g>
        </g>
      </g>
    </g>
  </g>
</svg>
