<svg xmlns="http://www.w3.org/2000/svg" xmlns:xlink="http://www.w3.org/1999/xlink" width="190" height="134" viewBox="0 0 190 134">
  <defs>
    <clipPath id="clip-path">
      <rect id="Rectangle_402355" data-name="Rectangle 402355" width="87" height="87" transform="translate(342 951)" fill="#fff" stroke="#707070" stroke-width="1"/>
    </clipPath>
    <clipPath id="clip-path-2">
      <rect id="Rectangle_402354" data-name="Rectangle 402354" width="81.504" height="81.298" fill="#7d3a1b"/>
    </clipPath>
    <clipPath id="clip-path-3">
      <rect id="Rectangle_402358" data-name="Rectangle 402358" width="57.319" height="77.298" fill="#7d3a1b"/>
    </clipPath>
  </defs>
  <g id="Group_1100687" data-name="Group 1100687" transform="translate(-330 -7019)">
    <rect id="Rectangle_402215" data-name="Rectangle 402215" width="190" height="134" transform="translate(330 7019)" fill="none"/>
    <g id="Group_1100287" data-name="Group 1100287" transform="translate(16 -507)">
      <g id="Grupo_156312" data-name="Grupo 156312" transform="translate(344 7528)">
        <path id="Elipse_5845" data-name="Elipse 5845" d="M65.5,0A65.5,65.5,0,1,1,0,65.5,65.5,65.5,0,0,1,65.5,0Z" transform="translate(0 0)" fill="#ffce73"/>
      </g>
      <g id="Mask_Group_1098715" data-name="Mask Group 1098715" transform="translate(24 6599)" clip-path="url(#clip-path)">
        <g id="Group_1100677" data-name="Group 1100677" transform="translate(345 954)">
          <g id="Group_1100676" data-name="Group 1100676" clip-path="url(#clip-path-2)">
            <g id="Group_1100706" data-name="Group 1100706" transform="translate(12 2)">
              <g id="Group_1100693" data-name="Group 1100693" clip-path="url(#clip-path-3)">
                <path id="Path_880287" data-name="Path 880287" d="M47.8,50.968c.167.6.313,1.167.486,1.73a3.768,3.768,0,0,1-1.658,4.233,9.769,9.769,0,0,1-1.215.45c-.795.255-.864.607-.5,1.291a11.027,11.027,0,0,1,1.1,3.315,6.375,6.375,0,0,1-.559,3.45,6.9,6.9,0,0,0-.518,2.588c.022,1.383.111,2.765.17,4.148a6.233,6.233,0,0,1-.463,2.679,3.9,3.9,0,0,1-3.019,2.37,3.063,3.063,0,0,1-3.568-2,23.874,23.874,0,0,1-.885-3.192,13.434,13.434,0,0,0-.535-1.6,1.636,1.636,0,0,0-1.734-1.1,15.9,15.9,0,0,0-2.447.409,7.061,7.061,0,0,1-4.707-.267,3.882,3.882,0,0,1-2.039-2.394.5.5,0,0,0-.259-.3,3.036,3.036,0,0,1-2.23-2.467.845.845,0,0,0-.547-.7,2.809,2.809,0,0,1-1.6-2.186.791.791,0,0,0-.389-.623c-.912-.5-1.81-1.024-2.739-1.489a24.828,24.828,0,0,0-4.182-1.567.306.306,0,0,0-.363.1,2.888,2.888,0,0,1-3.362.578A12.59,12.59,0,0,1,7.4,56.533c-.607-.5-1.227-.975-1.853-1.446a2.853,2.853,0,0,0-1.491-.53,2.941,2.941,0,0,1-1.489-.617,7.61,7.61,0,0,1-2.2-2.528,2.427,2.427,0,0,1-.208-2.13,7.05,7.05,0,0,1,.469-.767,1.193,1.193,0,0,0,.132-.386A1.265,1.265,0,0,0,.74,47.8,2.581,2.581,0,0,1,2.8,44.865a11.807,11.807,0,0,1,1.794-.312,1.794,1.794,0,0,0,1.344-.761A6.3,6.3,0,0,0,6.9,41.843a1.485,1.485,0,0,1,1.11-1.016,1.427,1.427,0,0,1,1.751,1.595,6.733,6.733,0,0,1-3.12,4.6,5.252,5.252,0,0,1-2.557.605c-.25.009-.332.056-.293.334a2.684,2.684,0,0,1-.681,2.392c.367.369.737.748,1.117,1.118a.419.419,0,0,0,.228.09,7.568,7.568,0,0,1,3.809,1.833c.839.678,1.675,1.361,2.517,2.036.157.126.333.228.513.349a1.733,1.733,0,0,0,.141-.183,1.691,1.691,0,0,1,1.5-.874A6.065,6.065,0,0,1,14.951,55a31.936,31.936,0,0,1,6.131,2.561,8.422,8.422,0,0,1,2.108,1.506,2.287,2.287,0,0,1,.721,1.483c.014.285.124.415.446.459a2.018,2.018,0,0,1,1.756,2.109c0,.725-.007.762.675.939a2.257,2.257,0,0,1,1.746,2.016,1.074,1.074,0,0,0,1.04.9,7.129,7.129,0,0,0,2.682-.236,14.717,14.717,0,0,1,2.219-.435,4.73,4.73,0,0,1,4.484,2.2,9.585,9.585,0,0,1,1.209,3.245c.122.53.253,1.057.383,1.585a1.86,1.86,0,0,0,.134.449c.105.192.068.523.4.523a.923.923,0,0,0,.841-.615A1.837,1.837,0,0,0,42,73.223c0-.978-.012-1.955-.014-2.933,0-1.006-.019-2.012.011-3.017a7.6,7.6,0,0,1,.653-2.757,4.636,4.636,0,0,0-.052-3.831,12.56,12.56,0,0,1-.752-1.922,3.361,3.361,0,0,1,1.142-3.41,4.974,4.974,0,0,1,2-.953.439.439,0,0,0,.364-.411,3.318,3.318,0,0,0-.235-1.571,5.11,5.11,0,0,1-.354-1.668,2.3,2.3,0,0,1,1.12-2.093,4.139,4.139,0,0,1,4.618-.134c.725.4,1.406.879,2.115,1.309a1.731,1.731,0,0,0,1.322.359c.386-.091.482-.184.369-.554-.231-.755-.486-1.5-.777-2.238a10.8,10.8,0,0,1-.878-2.841,2.662,2.662,0,0,1,.455-1.918.572.572,0,0,0,.079-.629c-.353-.86-.7-1.723-1.021-2.6a3.616,3.616,0,0,1,.427-3.4,7.946,7.946,0,0,0,1.1-2.341,1.414,1.414,0,0,0-.853-1.779,4.637,4.637,0,0,0-1.47-.341c-1.232-.073-2.465-.156-3.694-.269a7.336,7.336,0,0,1-1.351-.279,3.1,3.1,0,0,1-1.658-1.265,16.39,16.39,0,0,0-1.5-1.839,3.9,3.9,0,0,0-2.644-1.169,14.715,14.715,0,0,1-1.749-.258c-.247-.046-.363,0-.419.258A17.627,17.627,0,0,1,36.179,32,24.367,24.367,0,0,1,31.36,37.92a8.008,8.008,0,0,1-2.219,1.436,2.573,2.573,0,0,1-2.066.013A8.879,8.879,0,0,1,24.4,37.527a25.127,25.127,0,0,1-5.5-7.636,12.984,12.984,0,0,1-1.355-5.183A10.471,10.471,0,0,1,20.505,17.1,10.3,10.3,0,0,1,26,13.984c.529-.114,1.077-.132,1.613-.214a.376.376,0,0,0,.267-.194A11.54,11.54,0,0,1,31.23,8.234,14.723,14.723,0,0,1,35,5.549a11.143,11.143,0,0,1,2.734-.85c.089-.018.177-.044.265-.066a2.385,2.385,0,0,0-2.044-1.61,5.667,5.667,0,0,0-3.722,1.159,10.374,10.374,0,0,0-1.4,1.079,10.743,10.743,0,0,1-3.608,2.1c-1.932.752-3.919,1.331-5.912,1.894a1.179,1.179,0,0,0-.921.843,13.349,13.349,0,0,1-1.277,3.112,11.509,11.509,0,0,1-1.788,2.419,2.512,2.512,0,0,1-1.513.79.454.454,0,0,0-.384.3,6.246,6.246,0,0,1-3.109,3.164,3.982,3.982,0,0,1-1.092.268,2.331,2.331,0,0,0-1.467.634A4.691,4.691,0,0,0,8.236,24.9a1.751,1.751,0,0,0,.258.688A7.438,7.438,0,0,1,9.638,28.5a1.445,1.445,0,0,1-1.1,1.625,1.421,1.421,0,0,1-1.742-.984,12.362,12.362,0,0,0-1.038-2.4,5.264,5.264,0,0,1-.471-3.544,8.134,8.134,0,0,1,2.408-4.535,4.65,4.65,0,0,1,2.936-1.393,1.8,1.8,0,0,0,1.4-.746c.385-.537.708-1.12,1.075-1.671a8.484,8.484,0,0,1,.711-.945,1.766,1.766,0,0,1,1.33-.51.561.561,0,0,0,.371-.165,9.959,9.959,0,0,0,1.868-3.455,10.422,10.422,0,0,1,.523-1.4A3.66,3.66,0,0,1,20.28,6.488c1.2-.382,2.429-.686,3.619-1.1,1.251-.432,2.493-.906,3.7-1.453a7.032,7.032,0,0,0,1.487-1.09A12.471,12.471,0,0,1,33.541.306,6.037,6.037,0,0,1,38.482.8a5.038,5.038,0,0,1,2.375,2.98A2.906,2.906,0,0,1,40,7.074a2.754,2.754,0,0,1-1.586.584A7.355,7.355,0,0,0,34.5,9.322a10.952,10.952,0,0,0-3.128,3.469c-.186.336-.313.705-.469,1.059-.082.187-.011.289.171.358.482.183.973.346,1.436.57A10.584,10.584,0,0,1,37.8,20.349a9.953,9.953,0,0,1,.77,2.844c.021.2.1.266.309.294,1.013.134,2.031.254,3.032.455a6.752,6.752,0,0,1,3.7,2.191c.532.585,1,1.229,1.48,1.86a.549.549,0,0,0,.429.247c1.167.092,2.335.18,3.5.283a8.532,8.532,0,0,1,3.034.656,4.2,4.2,0,0,1,2.6,3.243,5.344,5.344,0,0,1-.455,3.133c-.316.664-.661,1.318-1.04,1.948a1.165,1.165,0,0,0-.117,1.143c.292.7.56,1.4.841,2.1a4.092,4.092,0,0,1,.281,2.355,2.691,2.691,0,0,1-.367.851.713.713,0,0,0-.13.647q.341.933.7,1.857a10.931,10.931,0,0,1,.94,3,3.237,3.237,0,0,1-1.976,3.408,3.89,3.89,0,0,1-3.684-.2c-.816-.444-1.588-.968-2.379-1.457a1.9,1.9,0,0,0-1.459-.239M35.671,24.078a5.836,5.836,0,0,0-.478-2.264,7.417,7.417,0,0,0-6.408-5.007,6.928,6.928,0,0,0-3.746.6,7.7,7.7,0,0,0-4.425,8.032,11.168,11.168,0,0,0,1.06,3.359,21.925,21.925,0,0,0,3.951,5.773A11.145,11.145,0,0,0,27.8,36.448a.457.457,0,0,0,.581,0c.409-.312.852-.589,1.228-.936a21.374,21.374,0,0,0,5.117-7.177,10.483,10.483,0,0,0,.946-4.255" transform="translate(0 0)" fill="#7d3a1b"/>
                <path id="Path_880288" data-name="Path 880288" d="M30.83,154.4a1.594,1.594,0,0,1,1.5-1.514,1.513,1.513,0,0,1,1.467,1.5,1.486,1.486,0,0,1-1.487,1.5A1.52,1.52,0,0,1,30.83,154.4" transform="translate(-23.98 -118.918)" fill="#7d3a1b"/>
                <path id="Path_880289" data-name="Path 880289" d="M115.173,94.044a4.5,4.5,0,1,1-4.408-4.516,4.467,4.467,0,0,1,4.408,4.516m-4.505,1.505a1.515,1.515,0,1,0,.029-3.03,1.515,1.515,0,1,0-.029,3.03" transform="translate(-82.579 -69.637)" fill="#7d3a1b"/>
              </g>
            </g>
          </g>
        </g>
      </g>
    </g>
  </g>
</svg>
