<svg xmlns="http://www.w3.org/2000/svg" xmlns:xlink="http://www.w3.org/1999/xlink" width="62.504" height="62.504" viewBox="0 0 62.504 62.504">
  <defs>
    <clipPath id="clip-path">
      <rect id="Rectangle_402856" data-name="Rectangle 402856" width="41.757" height="41.758" fill="#fff"/>
    </clipPath>
  </defs>
  <g id="Group_1101605" data-name="Group 1101605" transform="translate(-273 -3524.063)">
    <g id="Group_1072055" data-name="Group 1072055" transform="translate(-6.816 2325.223)">
      <g id="Group_1072053" data-name="Group 1072053" transform="translate(279.816 1198.84)">
        <circle id="Ellipse_4742" data-name="Ellipse 4742" cx="31.252" cy="31.252" r="31.252" transform="translate(0)" fill="#09614d"/>
      </g>
      <g id="Group_1101416" data-name="Group 1101416" transform="translate(289.816 1208.84)">
        <g id="Group_1101415" data-name="Group 1101415" clip-path="url(#clip-path)">
          <path id="Path_883070" data-name="Path 883070" d="M17.89,132.112c.005.047.011.074.011.1,0,1.523,0,3.045,0,4.568,0,.162-.055.221-.211.264a4.9,4.9,0,0,0-2.243,1.244,1.749,1.749,0,0,0-.485,1.68,1.98,1.98,0,0,0,.747,1.1,5.755,5.755,0,0,0,2.237,1.094,11.2,11.2,0,0,0,3.895.329,9.926,9.926,0,0,0,2.3-.42,5.663,5.663,0,0,0,1.949-1.034,1.864,1.864,0,0,0,.711-1.881,1.618,1.618,0,0,0-.411-.775,4.751,4.751,0,0,0-2.305-1.333.249.249,0,0,1-.221-.291c0-1.773,0-3.547,0-5.321,0-.136-.04-.3.024-.4s.235-.088.359-.126a8.879,8.879,0,0,1,.912-.275,1.434,1.434,0,0,1,.941.169q1.215.624,2.441,1.227a.891.891,0,0,0,.38.068c1.152,0,2.3,0,3.455-.016a3,3,0,0,1,1.457.341c1.789.915,3.589,1.806,5.39,2.7a2.093,2.093,0,0,1,1,1c.437.908.9,1.8,1.354,2.7a1.5,1.5,0,0,1-.637,2.039c-.8.419-1.619.808-2.427,1.214a.377.377,0,0,0-.153.15c-.173.327-.338.659-.506.988-.088.172-.178.343-.256.493.731.74,1.454,1.482,2.188,2.212a1.528,1.528,0,0,1,.422,1.475,1.645,1.645,0,0,1-.533.819c-.631.634-1.267,1.265-1.9,1.9-.262.262-.533.516-.782.79a1.643,1.643,0,0,1-1.739.5q-1.886-.477-3.771-.957c-.419-.106-.839-.21-1.26-.308a.211.211,0,0,0-.152.04q-1.666,1.242-3.327,2.488c-.639.478-1.284.948-1.914,1.438a1.557,1.557,0,0,1-1.367.3c-.527-.118-1.051-.249-1.576-.378q-1.126-.278-2.251-.563c-.722-.183-1.449-.35-2.165-.558a1.463,1.463,0,0,1-.814-2.207c.749-1.013,1.507-2.019,2.261-3.027l.983-1.314c.02-.026.035-.056.052-.084-.347-.117-.683-.234-1.021-.345-.438-.144-.874-.293-1.315-.423a2.505,2.505,0,0,1-1.119-.783l-.07-.073a.332.332,0,0,1-.057-.047c-.131.149-.256.305-.4.447-.443.452-.893.9-1.339,1.346a1.734,1.734,0,0,1-1.062.6,1.6,1.6,0,0,1-.617-.071c-1.083-.348-2.159-.715-3.239-1.071a9.719,9.719,0,0,0-1.011-.3,3.236,3.236,0,0,0-.665-.018c-1.117,0-2.235,0-3.352,0a2.193,2.193,0,0,1-1.017-.251c-.971-.49-1.952-.959-2.911-1.47a1.448,1.448,0,0,1-.6-1.976c.429-.886.916-1.746,1.319-2.643A2.087,2.087,0,0,1,2.938,138c.481-.136.951-.311,1.426-.469.907-.3,1.814-.6,2.72-.9a1.29,1.29,0,0,1,1.312.322c.353.3.667.655,1.006.977a.4.4,0,0,0,.233.1c.25.013.5,0,.782,0a3.659,3.659,0,0,0-.2-1.6c-.387-.689-.723-1.408-1.068-2.12a1.462,1.462,0,0,1,.605-2.034,1.54,1.54,0,0,1,1.194-.1c1.109.277,2.217.561,3.326.838.508.127,1.018.242,1.525.372a.26.26,0,0,0,.287-.08c.245-.254.494-.506.75-.749a1.369,1.369,0,0,1,1.053-.441" transform="translate(0 -112.692)" fill="#fff"/>
          <path id="Path_883071" data-name="Path 883071" d="M136.515,2.869a2.893,2.893,0,0,1-1.37,2.583.242.242,0,0,0-.11.242q.007,6.886.012,13.772,0,2.96-.016,5.919a.226.226,0,0,0,.18.254,2.772,2.772,0,0,1,1.061.634.859.859,0,0,1,.008,1.173,2.785,2.785,0,0,1-1.435.744,4.968,4.968,0,0,1-3.37-.291,2.325,2.325,0,0,1-.605-.436.809.809,0,0,1,0-1.214,2.7,2.7,0,0,1,1.083-.629.159.159,0,0,0,.129-.181q-.011-9.589-.016-19.178c0-.182,0-.365.015-.547a.281.281,0,0,0-.151-.291,2.768,2.768,0,0,1-1.254-1.766A2.911,2.911,0,0,1,132.291.3a2.954,2.954,0,0,1,4.154,1.983,3.845,3.845,0,0,1,.07.586" transform="translate(-112.678 0)" fill="#fff"/>
          <path id="Path_883072" data-name="Path 883072" d="M183.069,47.89l1.4,1.749c.4.5.782,1.011,1.2,1.492a.723.723,0,0,1-.388,1.2,1.107,1.107,0,0,1-.336.051q-5.421,0-10.843,0h-.177V52.03q0-4.14,0-8.279c0-.346,0-.347.353-.347h10.484c.142,0,.286,0,.427.012a.742.742,0,0,1,.637.943.87.87,0,0,1-.154.262q-1.116,1.406-2.237,2.808c-.117.147-.232.3-.362.46" transform="translate(-150.058 -37.448)" fill="#fff"/>
        </g>
      </g>
    </g>
  </g>
</svg>
