<svg xmlns="http://www.w3.org/2000/svg" xmlns:xlink="http://www.w3.org/1999/xlink" width="62.504" height="62.504" viewBox="0 0 62.504 62.504">
  <defs>
    <clipPath id="clip-path">
      <rect id="Rectangle_402857" data-name="Rectangle 402857" width="44.001" height="39.481" fill="#fff"/>
    </clipPath>
  </defs>
  <g id="Group_1101606" data-name="Group 1101606" transform="translate(-521 -3524.063)">
    <g id="Group_1072167" data-name="Group 1072167" transform="translate(241.184 2325.223)">
      <g id="Group_1072053" data-name="Group 1072053" transform="translate(279.816 1198.84)">
        <circle id="Ellipse_4742" data-name="Ellipse 4742" cx="31.252" cy="31.252" r="31.252" transform="translate(0)" fill="#09614d"/>
      </g>
      <g id="Group_1101418" data-name="Group 1101418" transform="translate(291.816 1209.84)">
        <g id="Group_1101417" data-name="Group 1101417" clip-path="url(#clip-path)">
          <path id="Path_883073" data-name="Path 883073" d="M77.841,4.9c0-1.338,0-2.676,0-4.014a1.28,1.28,0,0,1,.082-.5c.181-.411.581-.5,1.033-.263q1.428.749,2.858,1.493c.835.435,1.672.865,2.506,1.3a.64.64,0,0,1,.375.853.681.681,0,0,1-.275.318c-1.006.539-2.02,1.064-3.032,1.591-.646.336-1.292.672-1.944,1a.433.433,0,0,0-.273.455c.017.632.013,1.265.006,1.9,0,.163.056.221.215.243a10.151,10.151,0,0,1,2.005.444,8.8,8.8,0,0,1,3.891,2.7,8.435,8.435,0,0,1,1.829,3.783,10.226,10.226,0,0,1,.05,3.61,16.782,16.782,0,0,1-1.059,3.741,27.246,27.246,0,0,1-2.728,5.017,42.339,42.339,0,0,1-4.018,5,4,4,0,0,1-.412.387.63.63,0,0,1-.9-.029c-.26-.255-.5-.53-.74-.806a45.555,45.555,0,0,1-4.315-5.8,26.253,26.253,0,0,1-2.339-4.687,14.686,14.686,0,0,1-.931-4.346,8.341,8.341,0,0,1,.47-3.061,8.578,8.578,0,0,1,3.236-4.36A8.35,8.35,0,0,1,77.247,9.34c.132-.018.263-.055.4-.065.152-.011.2-.072.2-.229-.006-1.381,0-2.761,0-4.142Zm5.007,13.464A4.331,4.331,0,1,0,78.491,22.7a4.32,4.32,0,0,0,4.357-4.329" transform="translate(-59.509 0)" fill="#fff"/>
          <path id="Path_883074" data-name="Path 883074" d="M0,131.542q0-2.38,0-4.76a1.554,1.554,0,0,1,.032-.307.6.6,0,0,1,.9-.466c.364.165.715.36,1.071.545q2.456,1.276,4.912,2.553a.7.7,0,0,1,.414.519.613.613,0,0,1-.341.667c-.644.341-1.292.673-1.938,1.009q-1.817.945-3.631,1.894a.206.206,0,0,0-.071.158c0,1.009,0,2.018,0,3.027a.787.787,0,0,1-.342.688.6.6,0,0,1-.927-.288A1.678,1.678,0,0,1,0,136.265c-.006-1.574,0-3.149,0-4.723H0" transform="translate(0 -107.495)" fill="#fff"/>
          <path id="Path_883075" data-name="Path 883075" d="M251.883,133.277v1.616c0,.541.006,1.082,0,1.623a.656.656,0,1,1-1.311.077c0-.042,0-.085,0-.128q0-4.879,0-9.757a1.057,1.057,0,0,1,.041-.3.624.624,0,0,1,.892-.36c.46.218.908.464,1.36.7,1.529.8,3.055,1.6,4.591,2.381a.671.671,0,0,1,.341.95.961.961,0,0,1-.348.3c-.9.478-1.807.944-2.712,1.415l-2.852,1.486" transform="translate(-213.884 -107.529)" fill="#fff"/>
          <path id="Path_883076" data-name="Path 883076" d="M193.274,162.521a2.572,2.572,0,0,1,.385.141c.525.292,1.045.592,1.565.894a1.333,1.333,0,0,1,.289.218.567.567,0,0,1,.082.76.591.591,0,0,1-.741.258,6.683,6.683,0,0,1-.729-.368q-.606-.333-1.2-.681a.7.7,0,0,1-.255-.775.667.667,0,0,1,.606-.447" transform="translate(-164.435 -138.727)" fill="#fff"/>
          <path id="Path_883077" data-name="Path 883077" d="M222.776,179.727a.632.632,0,0,1-.914.581c-.584-.357-1.194-.671-1.789-1.011a.7.7,0,0,1-.349-.672.671.671,0,0,1,.545-.542.635.635,0,0,1,.365.055c.587.316,1.166.648,1.747.975a.652.652,0,0,1,.4.613" transform="translate(-187.548 -152.007)" fill="#fff"/>
          <path id="Path_883078" data-name="Path 883078" d="M167.678,238.709a.686.686,0,0,1,.632.395.563.563,0,0,1-.14.681,1.549,1.549,0,0,1-.289.218c-.531.305-1.067.6-1.6.906a.652.652,0,0,1-.919-.228.605.605,0,0,1,.22-.855c.577-.347,1.167-.673,1.756-1a1.868,1.868,0,0,1,.34-.118" transform="translate(-141.071 -203.761)" fill="#fff"/>
          <path id="Path_883079" data-name="Path 883079" d="M49.128,225a.615.615,0,0,1-.364.588.559.559,0,0,1-.6-.021c-.511-.294-1.028-.574-1.539-.868a1.989,1.989,0,0,1-.394-.288.566.566,0,0,1-.063-.763.621.621,0,0,1,.767-.241c.4.2.781.42,1.168.636.244.136.487.275.724.422a.55.55,0,0,1,.305.536" transform="translate(-39.305 -190.652)" fill="#fff"/>
          <path id="Path_883080" data-name="Path 883080" d="M22.026,178.716a.6.6,0,0,1-.3.548c-.619.346-1.233.7-1.856,1.041a.61.61,0,0,1-.794-.231.6.6,0,0,1,.15-.856c.248-.172.519-.314.782-.464.353-.2.708-.4,1.062-.6a.633.633,0,0,1,.953.561" transform="translate(-16.19 -151.998)" fill="#fff"/>
          <path id="Path_883081" data-name="Path 883081" d="M222.757,208.668a.539.539,0,0,1-.283.465c-.609.339-1.212.691-1.824,1.024a.625.625,0,0,1-.872-.26.588.588,0,0,1,.237-.844c.513-.31,1.041-.6,1.563-.893.063-.036.13-.066.19-.107a.554.554,0,0,1,.616-.05.675.675,0,0,1,.373.666" transform="translate(-187.523 -177.489)" fill="#fff"/>
          <path id="Path_883082" data-name="Path 883082" d="M74.19,238.791a2.211,2.211,0,0,1,.361.137c.562.311,1.125.622,1.673.956a.6.6,0,0,1,.16.974.639.639,0,0,1-.794.148c-.562-.312-1.122-.627-1.677-.95a.691.691,0,0,1-.422-.647.639.639,0,0,1,.7-.617" transform="translate(-62.731 -203.831)" fill="#fff"/>
          <path id="Path_883083" data-name="Path 883083" d="M140.4,253.963a.676.676,0,0,1,.6.442.6.6,0,0,1-.175.693,4.834,4.834,0,0,1-.553.348c-.4.234-.81.463-1.215.695a.744.744,0,0,1-.866-.033.629.629,0,0,1,.145-1.061c.446-.258.9-.5,1.349-.754.079-.044.149-.107.232-.143.158-.069.321-.125.483-.187" transform="translate(-117.767 -216.781)" fill="#fff"/>
          <path id="Path_883084" data-name="Path 883084" d="M49.172,163.375a.574.574,0,0,1-.289.53c-.546.315-1.087.64-1.643.936a1.232,1.232,0,0,1-.584.141.579.579,0,0,1-.537-.473.553.553,0,0,1,.233-.624,6.7,6.7,0,0,1,.62-.377q.614-.354,1.233-.7a.64.64,0,0,1,.967.569" transform="translate(-39.347 -138.895)" fill="#fff"/>
          <path id="Path_883085" data-name="Path 883085" d="M22.035,209.666a.646.646,0,0,1-.914.579c-.591-.347-1.2-.669-1.792-1.011a.637.637,0,0,1-.344-.67.686.686,0,0,1,.544-.548.562.562,0,0,1,.33.051c.633.347,1.259.707,1.887,1.064a.6.6,0,0,1,.288.536" transform="translate(-16.199 -177.556)" fill="#fff"/>
          <path id="Path_883086" data-name="Path 883086" d="M192.711,225.018a.541.541,0,0,1,.281-.522c.611-.349,1.225-.695,1.843-1.03a.588.588,0,0,1,.774.184.557.557,0,0,1-.026.8,1.271,1.271,0,0,1-.3.233c-.532.3-1.081.582-1.6.908a.639.639,0,0,1-.973-.575" transform="translate(-164.495 -190.685)" fill="#fff"/>
          <path id="Path_883087" data-name="Path 883087" d="M101.445,254a3.106,3.106,0,0,1,.436.161c.5.27.986.549,1.474.831a1.366,1.366,0,0,1,.33.251.565.565,0,0,1,.069.749.593.593,0,0,1-.688.282.944.944,0,0,1-.255-.091q-.842-.47-1.679-.95a.656.656,0,0,1-.295-.771.614.614,0,0,1,.606-.463" transform="translate(-86.051 -216.81)" fill="#fff"/>
        </g>
      </g>
    </g>
  </g>
</svg>
