<svg xmlns="http://www.w3.org/2000/svg" xmlns:xlink="http://www.w3.org/1999/xlink" width="190" height="134" viewBox="0 0 190 134">
  <defs>
    <clipPath id="clip-path">
      <rect id="Rectangle_402355" data-name="Rectangle 402355" width="87" height="87" transform="translate(342 951)" fill="#fff" stroke="#707070" stroke-width="1"/>
    </clipPath>
    <clipPath id="clip-path-2">
      <rect id="Rectangle_402354" data-name="Rectangle 402354" width="81.504" height="81.298" fill="#7d3a1b"/>
    </clipPath>
  </defs>
  <g id="Group_1100685" data-name="Group 1100685" transform="translate(-330 -7019)">
    <rect id="Rectangle_402215" data-name="Rectangle 402215" width="190" height="134" transform="translate(330 7019)" fill="none"/>
    <g id="Group_1100287" data-name="Group 1100287" transform="translate(16 -507)">
      <g id="Grupo_156312" data-name="Grupo 156312" transform="translate(344 7528)">
        <path id="Elipse_5845" data-name="Elipse 5845" d="M65.5,0A65.5,65.5,0,1,1,0,65.5,65.5,65.5,0,0,1,65.5,0Z" transform="translate(0 0)" fill="#ffce73"/>
      </g>
      <g id="Mask_Group_1098715" data-name="Mask Group 1098715" transform="translate(24 6599)" clip-path="url(#clip-path)">
        <g id="Group_1100677" data-name="Group 1100677" transform="translate(345 954)">
          <g id="Group_1100676" data-name="Group 1100676" clip-path="url(#clip-path-2)">
            <path id="Path_880269" data-name="Path 880269" d="M35.67,44.52a4.751,4.751,0,0,1-7.6-1.317c-.025.007-.06.007-.078.024-.57.57-1.145,1.135-1.7,1.717a.485.485,0,0,0-.111.381A6.367,6.367,0,0,1,23.5,52.011,6.2,6.2,0,0,1,19.556,53.1a6.322,6.322,0,0,1-4.07-1.876Q8.751,44.515,2.029,37.8A6.036,6.036,0,0,1,.124,33.254a6.2,6.2,0,0,1,3.485-5.589,6.435,6.435,0,0,1,4.313-.522.428.428,0,0,0,.329-.08c1.107-1.091,2.2-2.193,3.3-3.291Q16.6,18.74,21.649,13.71c1.767-1.764,3.519-3.544,5.3-5.292a.964.964,0,0,0,.321-.974,6.018,6.018,0,0,1,2.6-6.264,6.141,6.141,0,0,1,7.819.478c1.349,1.23,2.607,2.558,3.9,3.848q4.883,4.866,9.763,9.736A6.4,6.4,0,0,1,53.3,19.122,5.993,5.993,0,0,1,51.539,24.2a6.281,6.281,0,0,1-6.03,1.82.405.405,0,0,0-.315.067c-.605.587-1.2,1.188-1.811,1.8a4.692,4.692,0,0,1,2.635,3.422,4.632,4.632,0,0,1-1.245,4.153c.4.349.818.717,1.239,1.083L56.9,46.016,69.83,57.267q4.133,3.6,8.266,7.195a9.887,9.887,0,0,1,3.236,5.166A9.452,9.452,0,0,1,76.915,79.9a9.149,9.149,0,0,1-7.406,1.041,9.662,9.662,0,0,1-4.769-3.045q-4.859-5.584-9.732-11.155-6.275-7.19-12.551-14.38-3.324-3.809-6.644-7.622a1.907,1.907,0,0,1-.142-.216M11.007,28.792,24.436,42.208,42.4,24.282,28.956,10.888l-17.948,17.9M37.861,42.349l17.2,19.713a1.431,1.431,0,0,0,.127-.1l6.7-6.7c.414-.414.416-.412-.02-.791L49.053,43.319l-6.508-5.661-4.683,4.691M69.486,61.1l-8.159,8.124a1.242,1.242,0,0,0,.073.1c1.934,2.217,3.857,4.445,5.807,6.649a6.374,6.374,0,0,0,7.052,1.741,6.308,6.308,0,0,0,4.095-6.941A6.194,6.194,0,0,0,76.2,66.949q-2.442-2.144-4.9-4.274c-.607-.529-1.215-1.056-1.818-1.579m-66.2-27.63a2.952,2.952,0,0,0,.968,2.149c.34.346.7.67,1.047,1.014q6.144,6.141,12.284,12.286a3.241,3.241,0,0,0,4.65.121,3.047,3.047,0,0,0,.95-2.416,3.369,3.369,0,0,0-1.067-2.262q-5.442-5.4-10.861-10.823c-.9-.9-1.79-1.812-2.725-2.674a3.021,3.021,0,0,0-3.115-.591,3.148,3.148,0,0,0-2.13,3.195M33.459,3.182a4.918,4.918,0,0,0-.724.065,3.19,3.19,0,0,0-1.762,5.095,7.647,7.647,0,0,0,.532.579q4.693,4.684,9.39,9.365c1.273,1.269,2.533,2.552,3.826,3.8a3.062,3.062,0,0,0,2.972.85,3.171,3.171,0,0,0,1.609-5.31c-.277-.3-.588-.566-.876-.854Q42.138,10.486,35.853,4.2a3.044,3.044,0,0,0-2.394-1.016m-2.7,37.872A1.588,1.588,0,0,0,32.6,42.73a2.168,2.168,0,0,0,1.28-.794Q37.356,38.47,40.83,35c.577-.577,1.164-1.145,1.722-1.74a1.672,1.672,0,0,0-.032-2.177,1.709,1.709,0,0,0-2.306-.053C39.2,32.1,38.143,33.109,37.1,34.145q-2.921,2.911-5.844,5.819a1.478,1.478,0,0,0-.5,1.09M67.053,59.043a2.864,2.864,0,0,0-.222-.247c-.613-.538-1.23-1.073-1.845-1.61-.32-.28-.319-.283-.63.026q-3.541,3.528-7.085,7.053c-.131.13-.091.209,0,.314q.9,1.032,1.8,2.066c.141.163.255.158.407.007q3.71-3.71,7.426-7.414a1.913,1.913,0,0,0,.149-.2" transform="translate(-0.093 0)" fill="#7d3a1b"/>
            <path id="Path_880270" data-name="Path 880270" d="M4.332,275.179a4.726,4.726,0,0,1-1.019-2.243,5.536,5.536,0,0,1,3.9-6.334,7.418,7.418,0,0,1,2.155-.294c8.746.006,17.493-.014,26.24.015a5.568,5.568,0,0,1,5.462,3.845,5.171,5.171,0,0,1-.773,4.969c-.005.007,0,.018-.006.055.237.156.488.317.733.485a7.977,7.977,0,0,1,3.321,4.785,9.85,9.85,0,0,1,.247,3.233,1.662,1.662,0,0,1-1.765,1.715c-.106.009-.214,0-.321,0H2.081a3.783,3.783,0,0,1-.437-.012,1.681,1.681,0,0,1-1.637-1.829,11.117,11.117,0,0,1,.375-3.657,8.141,8.141,0,0,1,3.706-4.581c.08-.048.159-.1.245-.154m37.047,7.036a9.914,9.914,0,0,0-.142-1.25,4.691,4.691,0,0,0-4.471-3.475q-14.492.012-28.983.017a4.278,4.278,0,0,0-1.67.328,4.623,4.623,0,0,0-2.929,4.137c-.015.2.045.261.237.257.593-.01,1.187-.013,1.78-.013H41.38m-19.033-7.947v.008q6.551,0,13.1-.005a4.261,4.261,0,0,0,1.239-.128,2.365,2.365,0,0,0,1.5-2.712,2.3,2.3,0,0,0-2.247-1.865q-13.614.022-27.227.008c-.088,0-.175,0-.262,0a2.354,2.354,0,0,0,.271,4.7c4.543-.013,9.086,0,13.628,0" transform="translate(0 -204.12)" fill="#7d3a1b"/>
            <path id="Path_880271" data-name="Path 880271" d="M97.949,70.24a1.784,1.784,0,0,1-.551,1.212c-1.139,1.127-2.27,2.262-3.405,3.392q-1.61,1.6-3.223,3.2a1.537,1.537,0,0,1-1.721.345,1.439,1.439,0,0,1-.958-1.311,1.536,1.536,0,0,1,.5-1.256q2.231-2.218,4.456-4.442c.743-.74,1.481-1.485,2.23-2.22a1.6,1.6,0,0,1,2.332.076,1.666,1.666,0,0,1,.342,1" transform="translate(-67.515 -52.653)" fill="#7d3a1b"/>
            <path id="Path_880272" data-name="Path 880272" d="M72.032,118.212a1.583,1.583,0,0,1-1.6,1.51,1.506,1.506,0,0,1-1.516-1.547,1.572,1.572,0,0,1,1.57-1.574,1.633,1.633,0,0,1,1.55,1.611" transform="translate(-52.821 -89.373)" fill="#7d3a1b"/>
          </g>
        </g>
      </g>
    </g>
  </g>
</svg>
