<svg xmlns="http://www.w3.org/2000/svg" xmlns:xlink="http://www.w3.org/1999/xlink" width="139" height="139" viewBox="0 0 139 139">
  <defs>
    <clipPath id="clip-path">
      <rect id="Rectangle_400938" data-name="Rectangle 400938" width="139" height="139" transform="translate(-0.043 -0.043)" fill="none"/>
    </clipPath>
    <clipPath id="clip-path-2">
      <rect id="Rectangle_401073" data-name="Rectangle 401073" width="105.872" height="47.68" fill="#7d3a1b"/>
    </clipPath>
    <clipPath id="clip-path-3">
      <rect id="Rectangle_402307" data-name="Rectangle 402307" width="75" height="75" transform="translate(1174.5 7463.5)" fill="#6a4d23" stroke="#707070" stroke-width="1"/>
    </clipPath>
    <clipPath id="clip-path-4">
      <rect id="Rectangle_402518" data-name="Rectangle 402518" width="71.346" height="71.351" fill="#6a4d23"/>
    </clipPath>
  </defs>
  <g id="Group_1101577" data-name="Group 1101577" transform="translate(-1150 -10856.881)">
    <g id="Group_1100945" data-name="Group 1100945" transform="translate(0 3427)">
      <g id="Group_1099530" data-name="Group 1099530" transform="translate(885.043 2145.924)">
        <g id="Group_1099379" data-name="Group 1099379" transform="translate(265 5284)">
          <rect id="Rectangle_401103" data-name="Rectangle 401103" width="139" height="139" transform="translate(-0.043 -0.043)" fill="none"/>
          <g id="Group_1099348" data-name="Group 1099348" transform="translate(0)">
            <g id="Group_1099282" data-name="Group 1099282">
              <g id="Group_1099281" data-name="Group 1099281" clip-path="url(#clip-path-2)">
                <path id="Path_873375" data-name="Path 873375" d="M85.879,10.449c-4.752,0-7.21-2.33-9.379-4.386C74.371,4.047,72.538,2.3,68.7,2.3s-5.668,1.742-7.8,3.758c-2.17,2.056-4.624,4.386-9.379,4.386s-7.21-2.33-9.379-4.386C40.018,4.047,38.184,2.3,34.349,2.3s-5.668,1.742-7.794,3.758c-2.17,2.056-4.627,4.386-9.379,4.386S9.963,8.119,7.794,6.063C5.668,4.047,3.835,2.3,0,2.3V0C4.752,0,7.21,2.334,9.379,4.386c2.129,2.02,3.963,3.758,7.8,3.758s5.668-1.738,7.794-3.755C27.136,2.334,29.6,0,34.349,0s7.213,2.334,9.379,4.386c2.129,2.02,3.963,3.758,7.8,3.758s5.668-1.738,7.8-3.758C61.489,2.334,63.951,0,68.7,0s7.213,2.334,9.379,4.386c2.129,2.02,3.963,3.758,7.8,3.758s5.668-1.738,7.8-3.758C95.843,2.334,98.3,0,103.056,0V2.3c-3.835,0-5.668,1.742-7.8,3.758-2.169,2.056-4.627,4.386-9.379,4.386" transform="translate(2.816 37.231)" fill="#7d3a1b"/>
                <path id="Path_873376" data-name="Path 873376" d="M85.879,10.449c-4.752,0-7.213-2.33-9.379-4.39C74.371,4.043,72.538,2.3,68.7,2.3s-5.668,1.738-7.8,3.755c-2.166,2.06-4.624,4.39-9.379,4.39s-7.213-2.33-9.379-4.39C40.018,4.043,38.184,2.3,34.349,2.3s-5.668,1.742-7.794,3.755c-2.17,2.06-4.627,4.39-9.379,4.39s-7.213-2.33-9.383-4.39C5.668,4.043,3.835,2.3,0,2.3V0C4.752,0,7.213,2.33,9.379,4.386c2.129,2.02,3.963,3.758,7.8,3.758s5.668-1.738,7.794-3.758C27.136,2.33,29.6,0,34.349,0s7.213,2.33,9.383,4.386c2.126,2.02,3.959,3.758,7.794,3.758s5.668-1.738,7.8-3.758C61.489,2.33,63.951,0,68.7,0s7.213,2.33,9.379,4.386c2.129,2.02,3.963,3.758,7.8,3.758s5.668-1.738,7.8-3.758C95.846,2.33,98.3,0,103.059,0V2.3c-3.835,0-5.672,1.742-7.8,3.755-2.169,2.06-4.628,4.39-9.379,4.39" transform="translate(1.877 24.821)" fill="#7d3a1b"/>
                <path id="Path_873377" data-name="Path 873377" d="M85.879,10.449c-4.752,0-7.213-2.33-9.379-4.39C74.371,4.043,72.538,2.3,68.7,2.3s-5.668,1.738-7.8,3.755c-2.166,2.06-4.627,4.39-9.379,4.39s-7.213-2.33-9.379-4.39C40.018,4.043,38.184,2.3,34.349,2.3s-5.668,1.742-7.794,3.755c-2.169,2.06-4.627,4.39-9.379,4.39s-7.213-2.33-9.383-4.39C5.668,4.043,3.835,2.3,0,2.3V0C4.752,0,7.213,2.33,9.379,4.386c2.126,2.02,3.963,3.758,7.8,3.758s5.668-1.738,7.794-3.758C27.136,2.33,29.6,0,34.349,0s7.213,2.33,9.383,4.386c2.126,2.02,3.959,3.758,7.794,3.758s5.668-1.738,7.8-3.758C61.489,2.33,63.951,0,68.7,0s7.213,2.33,9.379,4.386c2.129,2.02,3.963,3.758,7.8,3.758s5.668-1.738,7.8-3.758C95.846,2.33,98.3,0,103.059,0V2.3c-3.835,0-5.672,1.742-7.8,3.755-2.169,2.06-4.627,4.39-9.379,4.39" transform="translate(0.939 12.41)" fill="#7d3a1b"/>
                <path id="Path_873378" data-name="Path 873378" d="M85.879,10.445c-4.752,0-7.21-2.33-9.379-4.386C74.371,4.043,72.538,2.3,68.7,2.3s-5.668,1.738-7.794,3.755c-2.169,2.056-4.627,4.386-9.383,4.386s-7.21-2.33-9.379-4.386C40.018,4.043,38.184,2.3,34.349,2.3s-5.668,1.738-7.794,3.751c-2.166,2.06-4.627,4.39-9.379,4.39S9.963,8.115,7.794,6.059C5.668,4.043,3.835,2.3,0,2.3V0C4.752,0,7.213,2.33,9.379,4.386c2.129,2.016,3.963,3.755,7.8,3.755S22.845,6.4,24.971,4.386C27.14,2.33,29.6,0,34.349,0s7.21,2.33,9.383,4.386c2.126,2.016,3.959,3.755,7.794,3.755s5.668-1.738,7.8-3.755C61.493,2.33,63.951,0,68.7,0s7.21,2.33,9.379,4.386c2.129,2.016,3.963,3.755,7.8,3.755s5.668-1.738,7.8-3.755C95.846,2.33,98.3,0,103.059,0V2.3c-3.839,0-5.672,1.738-7.8,3.755-2.169,2.056-4.627,4.386-9.379,4.386" transform="translate(0 0.004)" fill="#7d3a1b"/>
              </g>
            </g>
          </g>
          <path id="Path_873425" data-name="Path 873425" d="M57.977,0A57.977,57.977,0,1,1,0,57.977,57.977,57.977,0,0,1,57.977,0Z" transform="translate(17.221 20.665)" fill="#ffb937"/>
          <circle id="Ellipse_11503" data-name="Ellipse 11503" cx="60.5" cy="60.5" r="60.5" transform="translate(8.957 8.957)" fill="#fff"/>
        </g>
      </g>
      <g id="Group_1098714" data-name="Group 1098714" transform="translate(9.5 -0.5)" clip-path="url(#clip-path-3)">
        <g id="Group_1100946" data-name="Group 1100946" transform="translate(1176.5 7465.5)">
          <g id="Group_1100946-2" data-name="Group 1100946" clip-path="url(#clip-path-4)">
            <path id="Path_880881" data-name="Path 880881" d="M65.163,67.8c-.679.43-1.354.857-2.028,1.285a12.606,12.606,0,0,1-5.1,1.967,28.908,28.908,0,0,1-3.714.283c-6.524.027-13.049.015-19.573.011a4.85,4.85,0,0,1-3.932-1.779,4.7,4.7,0,0,1-.518-5.15l.266-.5A4.7,4.7,0,0,1,27.551,60.7a4.542,4.542,0,0,1,.932-4.253l-1.266-1.237a.332.332,0,0,1-.079-.1c-.178-.433-.527-.469-.944-.482a24.772,24.772,0,0,1-4.3-.513,27.7,27.7,0,0,1-8.056-3.028A27.2,27.2,0,0,1,2.4,38.481,28.435,28.435,0,0,1,.69,33.364a26.635,26.635,0,0,1-.684-6.585,25.78,25.78,0,0,1,.682-5.487,27.618,27.618,0,0,1,4.044-9.275A27.213,27.213,0,0,1,15.447,2.756,26.958,26.958,0,0,1,23.074.336,26.547,26.547,0,0,1,29.847.124a28.072,28.072,0,0,1,5.542,1.111A27.433,27.433,0,0,1,50.783,13.325a26.681,26.681,0,0,1,2.75,6.267A27.9,27.9,0,0,1,54.6,25.631a28.228,28.228,0,0,1-.233,5.757c-.137.989-.41,1.96-.627,2.938-.061.273-.163.539-.2.815a.446.446,0,0,0,.158.311q.965.894,1.948,1.769a28.817,28.817,0,0,1,3.775,4.116,8.8,8.8,0,0,0,4.777,3.23c.466.13.458.121.741-.256a3.342,3.342,0,0,1,3.36-1.44,3.4,3.4,0,0,1,2.938,2.781,4.5,4.5,0,0,1,.108.987q.009,9.276,0,18.553a3.638,3.638,0,0,1-1.364,2.981,3.5,3.5,0,0,1-4.567-.152c-.076-.067-.151-.135-.248-.222M42.812,40.447c-.062-.131-.093-.215-.138-.291-.443-.765-.9-1.521-1.331-2.295A17,17,0,0,1,39.3,31.6c-.117-1-.042-2.023-.064-3.036a4.535,4.535,0,0,1,.45-1.974A4.687,4.687,0,0,1,46.86,24.8c.19.148.374.305.561.458a19.1,19.1,0,0,0-2.113-7.248,19.853,19.853,0,0,0-9.171-8.889A20.234,20.234,0,0,0,10.863,39.085a20,20,0,0,0,11.214,7.8,20.339,20.339,0,0,0,7.141.581,4.118,4.118,0,0,1-.643-2.254,4.687,4.687,0,0,1,4.482-4.744c3.014-.049,6.029-.018,9.044-.022h.71m21.377,6.608a.3.3,0,0,0-.054-.038c-.258-.085-.516-.172-.776-.254a11.633,11.633,0,0,1-5.377-3.518c-.5-.57-.914-1.211-1.416-1.776a37.178,37.178,0,0,0-5.841-5.4,10.7,10.7,0,0,1-3.655-4.749,12.987,12.987,0,0,1-.717-3.149A2.386,2.386,0,0,0,42.1,27.017a2.481,2.481,0,0,0-.5,1.5,18.983,18.983,0,0,0,.116,3.236A11.32,11.32,0,0,0,42.37,34.5,21.542,21.542,0,0,0,44.576,38.8a6.746,6.746,0,0,1,.479.955,1.61,1.61,0,0,1,.089,1.026,2.389,2.389,0,0,1-2.439,1.972c-3.083-.009-6.166.01-9.249.026a3.075,3.075,0,0,0-.83.109,2.368,2.368,0,0,0-1.686,2.765,2.537,2.537,0,0,0,2.5,1.9,20.468,20.468,0,0,1,2.374.03,1.136,1.136,0,0,1,.987.884,1.061,1.061,0,0,1-.369,1.147,1.427,1.427,0,0,1-1.022.324q-1.866-.006-3.731-.007c-.3,0-.6-.02-.893,0a2.264,2.264,0,0,0-2.2,1.918,2.3,2.3,0,0,0,1.64,2.737,4.106,4.106,0,0,0,1.035.11c1.354.007,2.708-.007,4.063-.009a2.61,2.61,0,0,1,.507.044,1.221,1.221,0,0,1,1.008,1.021,1.162,1.162,0,0,1-.693,1.174,2.142,2.142,0,0,1-.793.126c-1.175.018-2.351-.021-3.524.034A2.116,2.116,0,0,0,29.9,58.535a2.3,2.3,0,0,0,.477,2.578,2.339,2.339,0,0,0,1.836.742c1.065-.013,2.129-.01,3.194-.01a2.932,2.932,0,0,1,.533.041,1.169,1.169,0,0,1-.343,2.3,10.706,10.706,0,0,0-1.479.027,2.4,2.4,0,0,0-1.945,3.044,2.363,2.363,0,0,0,2.384,1.7c4.089,0,8.177,0,12.266-.01,3.134-.009,6.268-.007,9.4-.072a9.951,9.951,0,0,0,4.767-1.248c.916-.521,1.785-1.126,2.705-1.639a.85.85,0,0,0,.5-.881c-.019-5.911-.012-11.823-.012-17.735ZM26.861,49.9c-.117-.007-.19-.01-.264-.016-1.025-.09-2.062-.112-3.073-.285a22.741,22.741,0,0,1-10.533-4.866A22.507,22.507,0,0,1,5.373,32.462a23.5,23.5,0,0,1-.608-4.75A20.868,20.868,0,0,1,5.5,21.654a22.215,22.215,0,0,1,2.972-6.681A22.48,22.48,0,0,1,21.161,5.617,17.253,17.253,0,0,1,24.911,4.9c.857-.056,1.715-.207,2.568-.181a31.308,31.308,0,0,1,3.53.32,19.535,19.535,0,0,1,4.344,1.188A22.475,22.475,0,0,1,48.213,18.716a21.339,21.339,0,0,1,1.566,6.053,20.218,20.218,0,0,1-.1,5.726,1.908,1.908,0,0,0,.38,1.641c.377.459.767.907,1.167,1.347.209.23.252.206.346-.1a20.484,20.484,0,0,0,.627-3.536A24.735,24.735,0,0,0,50.286,17.4,24.832,24.832,0,0,0,41.555,6.764,24.044,24.044,0,0,0,36.43,4.046,23.617,23.617,0,0,0,32.2,2.828a25.111,25.111,0,0,0-4.078-.456,26.274,26.274,0,0,0-5.738.463A24.993,24.993,0,0,0,4.106,18.143,24.448,24.448,0,0,0,2.42,25.654a24.823,24.823,0,0,0,.417,6.531,25.2,25.2,0,0,0,2.012,6A25.039,25.039,0,0,0,20.458,51.347a30.69,30.69,0,0,0,4.737.869c.316.04.636.042.944.061a6.8,6.8,0,0,1,.721-2.381m39.762,5.964q0,4.586,0,9.171c0,.179.009.357.019.536a1.125,1.125,0,0,0,1.116,1.056,1.176,1.176,0,0,0,1.192-1.013c.03-.312,0-.629,0-.943q0-9.12.006-18.24a1.186,1.186,0,0,0-.406-.973,1.215,1.215,0,0,0-1.3-.166.937.937,0,0,0-.614.891c-.01.187-.019.374-.019.561q0,4.56,0,9.12" transform="translate(0 0)" fill="#6a4d23"/>
            <path id="Path_880882" data-name="Path 880882" d="M76.83,104.339c1.684-1.673,3.355-3.324,5.017-4.985q5.938-5.931,11.87-11.868a2.186,2.186,0,0,1,.353-.293,1.073,1.073,0,0,1,1.492.192,1.044,1.044,0,0,1,.031,1.478c-.5.566-1.049,1.093-1.585,1.629q-8.073,8.078-16.146,16.154a1.251,1.251,0,0,1-1.437.424,1.414,1.414,0,0,1-.463-.3q-2.878-2.866-5.745-5.744a2.416,2.416,0,0,1-.171-.19,1.091,1.091,0,0,1,.071-1.6,1.141,1.141,0,0,1,1.595.012c.6.564,1.175,1.161,1.759,1.745l3.267,3.272a.87.87,0,0,0,.091.072" transform="translate(-55.442 -69.15)" fill="#6a4d23"/>
          </g>
        </g>
      </g>
    </g>
  </g>
</svg>
