<svg xmlns="http://www.w3.org/2000/svg" xmlns:xlink="http://www.w3.org/1999/xlink" width="145" height="145" viewBox="0 0 145 145">
  <defs>
    <clipPath id="clip-path">
      <rect id="Rectangle_400938" data-name="Rectangle 400938" width="145" height="145" transform="translate(0 -0.281)" fill="none"/>
    </clipPath>
    <clipPath id="clip-path-2">
      <rect id="Rectangle_401073" data-name="Rectangle 401073" width="110.228" height="49.642" fill="#7d3a1b"/>
    </clipPath>
    <clipPath id="clip-path-3">
      <rect id="Rectangle_402454" data-name="Rectangle 402454" width="79" height="81" fill="#6a4d23"/>
    </clipPath>
  </defs>
  <g id="Group_1101576" data-name="Group 1101576" transform="translate(-728 -8455.836)">
    <g id="Group_1100891" data-name="Group 1100891" transform="translate(553 -1084.883)">
      <g id="Group_1099404" data-name="Group 1099404" transform="translate(175 9541)">
        <g id="Group_1099379" data-name="Group 1099379" transform="translate(0 0)">
          <rect id="Rectangle_401103" data-name="Rectangle 401103" width="145" height="145" transform="translate(0 -0.281)" fill="none"/>
          <g id="Group_1099348" data-name="Group 1099348" transform="translate(0.045 0.045)">
            <g id="Group_1099282" data-name="Group 1099282">
              <g id="Group_1099281" data-name="Group 1099281" clip-path="url(#clip-path-2)">
                <path id="Path_873375" data-name="Path 873375" d="M89.413,10.879c-4.947,0-7.506-2.426-9.765-4.567C77.431,4.213,75.522,2.4,71.529,2.4s-5.9,1.814-8.118,3.913c-2.259,2.141-4.814,4.567-9.765,4.567S46.14,8.453,43.881,6.312C41.664,4.213,39.755,2.4,35.763,2.4s-5.9,1.814-8.114,3.913c-2.259,2.141-4.818,4.567-9.765,4.567s-7.51-2.426-9.769-4.567C5.9,4.213,3.993,2.4,0,2.4V0C4.947,0,7.506,2.43,9.765,4.567c2.217,2.1,4.126,3.913,8.118,3.913S23.785,6.67,26,4.571C28.253,2.43,30.816,0,35.763,0s7.51,2.43,9.765,4.567c2.217,2.1,4.126,3.913,8.118,3.913s5.9-1.81,8.118-3.913C64.019,2.43,66.582,0,71.529,0s7.51,2.43,9.765,4.567c2.217,2.1,4.126,3.913,8.118,3.913s5.9-1.81,8.118-3.913C99.786,2.43,102.345,0,107.3,0V2.4c-3.993,0-5.9,1.814-8.118,3.913-2.259,2.141-4.818,4.567-9.765,4.567" transform="translate(2.932 38.763)" fill="#7d3a1b"/>
                <path id="Path_873376" data-name="Path 873376" d="M89.413,10.879c-4.947,0-7.51-2.426-9.765-4.571C77.431,4.209,75.522,2.4,71.529,2.4s-5.9,1.81-8.118,3.909c-2.255,2.145-4.814,4.571-9.765,4.571s-7.51-2.426-9.765-4.571C41.664,4.209,39.755,2.4,35.763,2.4s-5.9,1.814-8.115,3.909c-2.259,2.145-4.818,4.571-9.765,4.571s-7.51-2.426-9.769-4.571C5.9,4.209,3.993,2.4,0,2.4V0C4.947,0,7.51,2.426,9.765,4.567c2.217,2.1,4.126,3.913,8.118,3.913S23.785,6.67,26,4.567C28.253,2.426,30.816,0,35.763,0s7.51,2.426,9.769,4.567c2.213,2.1,4.122,3.913,8.115,3.913s5.9-1.81,8.118-3.913C64.019,2.426,66.582,0,71.529,0s7.51,2.426,9.765,4.567c2.217,2.1,4.126,3.913,8.118,3.913s5.9-1.81,8.118-3.913C99.79,2.426,102.349,0,107.3,0V2.4c-3.993,0-5.905,1.814-8.122,3.909-2.259,2.145-4.818,4.571-9.765,4.571" transform="translate(1.955 25.842)" fill="#7d3a1b"/>
                <path id="Path_873377" data-name="Path 873377" d="M89.412,10.879c-4.947,0-7.51-2.426-9.765-4.571C77.431,4.209,75.522,2.4,71.529,2.4s-5.9,1.81-8.118,3.909c-2.255,2.145-4.818,4.571-9.765,4.571s-7.51-2.426-9.765-4.571C41.664,4.209,39.755,2.4,35.763,2.4s-5.9,1.814-8.115,3.909c-2.259,2.145-4.818,4.571-9.765,4.571s-7.51-2.426-9.769-4.571C5.9,4.209,3.993,2.4,0,2.4V0C4.947,0,7.51,2.426,9.765,4.567c2.213,2.1,4.126,3.913,8.118,3.913S23.785,6.67,26,4.567C28.253,2.426,30.816,0,35.763,0s7.51,2.426,9.769,4.567c2.213,2.1,4.122,3.913,8.115,3.913s5.9-1.81,8.118-3.913C64.019,2.426,66.582,0,71.529,0s7.51,2.426,9.765,4.567c2.217,2.1,4.126,3.913,8.118,3.913s5.9-1.81,8.118-3.913C99.79,2.426,102.345,0,107.3,0V2.4c-3.993,0-5.905,1.814-8.122,3.909-2.259,2.145-4.818,4.571-9.765,4.571" transform="translate(0.977 12.921)" fill="#7d3a1b"/>
                <path id="Path_873378" data-name="Path 873378" d="M89.413,10.875c-4.947,0-7.506-2.426-9.765-4.567C77.431,4.209,75.522,2.4,71.529,2.4s-5.9,1.81-8.115,3.909c-2.259,2.141-4.818,4.567-9.769,4.567S46.14,8.449,43.881,6.308C41.664,4.209,39.755,2.4,35.763,2.4s-5.9,1.81-8.115,3.905c-2.255,2.145-4.818,4.571-9.765,4.571s-7.51-2.426-9.769-4.567C5.9,4.209,3.993,2.4,0,2.4V0C4.947,0,7.51,2.426,9.765,4.567c2.217,2.1,4.126,3.909,8.118,3.909s5.9-1.81,8.115-3.909C28.257,2.426,30.816,0,35.763,0s7.506,2.426,9.769,4.567c2.213,2.1,4.122,3.909,8.115,3.909s5.9-1.81,8.118-3.909C64.023,2.426,66.582,0,71.529,0s7.506,2.426,9.765,4.567c2.217,2.1,4.126,3.909,8.118,3.909s5.9-1.81,8.118-3.909C99.79,2.426,102.349,0,107.3,0V2.4c-4,0-5.905,1.81-8.122,3.909-2.259,2.141-4.818,4.567-9.765,4.567" transform="translate(0 0.004)" fill="#7d3a1b"/>
              </g>
            </g>
          </g>
          <path id="Path_873425" data-name="Path 873425" d="M60.362,0A60.362,60.362,0,1,1,0,60.362,60.362,60.362,0,0,1,60.362,0Z" transform="translate(17.974 21.56)" fill="#efb499"/>
          <circle id="Ellipse_11503" data-name="Ellipse 11503" cx="63" cy="63" r="63" transform="translate(9 9.719)" fill="#fef7eb"/>
        </g>
      </g>
      <g id="Group_1099405" data-name="Group 1099405" transform="translate(206.234 9571.193)">
        <g id="Group_1099389" data-name="Group 1099389" transform="translate(0 0.164)">
          <rect id="Rectangle_401104" data-name="Rectangle 401104" width="81" height="83" transform="translate(-0.234 -0.475)" fill="none"/>
        </g>
        <g id="Group_1100896" data-name="Group 1100896" transform="translate(0.765 0.689)">
          <g id="Group_1100895" data-name="Group 1100895" clip-path="url(#clip-path-3)">
            <path id="Path_880632" data-name="Path 880632" d="M14.813,216.912c-.055-.4-.127-.762-.149-1.123a12.1,12.1,0,0,1,.174-3.836,6.306,6.306,0,0,1,2.908-3.874,9.088,9.088,0,0,1,2.164-.824l.244-.077c-.226-.437-.449-.847-.652-1.267a22.069,22.069,0,0,1-1.9-5.828,4.741,4.741,0,0,1,3.977-5.532,4.661,4.661,0,0,1,4.909,3.2c.265.974.483,1.968.829,2.912a12.844,12.844,0,0,0,5.174,6.478c.29.189.584.37.937.593a7.2,7.2,0,0,1-.159-.953c-.027-.995-.081-1.994-.022-2.985a6.245,6.245,0,0,1,2.119-4.371,6.05,6.05,0,0,1,3.929-1.647,6.111,6.111,0,0,1,4.536,1.837,6.277,6.277,0,0,1,1.926,4.93,12.067,12.067,0,0,1-.166,2.972.545.545,0,0,0,.023.166c.259-.165.5-.314.73-.465a13.146,13.146,0,0,0,5.607-7.457c.2-.67.3-1.379.529-2.038a4.508,4.508,0,0,1,3.8-3.167,4.627,4.627,0,0,1,5.044,3.742,6.588,6.588,0,0,1-.188,2.838,24.037,24.037,0,0,1-2,5.4c-.1.2-.223.4-.355.632.127.037.221.071.317.093a6.528,6.528,0,0,1,4.255,2.872,5.792,5.792,0,0,1,.941,2.757,13.939,13.939,0,0,1-.1,3.812,1.489,1.489,0,0,0,0,.232c.258-.152.489-.273.705-.417a13.473,13.473,0,0,0,5.222-6.6,4.445,4.445,0,0,1,2-2.319,4.6,4.6,0,0,1,6.789,3.244,4.676,4.676,0,0,1-.29,2.692,22.711,22.711,0,0,1-8.123,10.5c-.518.368-1.063.7-1.609,1.023-.173.1-.166.231-.166.387,0,1.044.027,2.089,0,3.132a1.581,1.581,0,0,1-1.659,1.663c-.094,0-.189,0-.283,0q-27.269,0-54.537,0a3.817,3.817,0,0,1-.7-.059,1.474,1.474,0,0,1-1.266-1.453c-.036-1.033-.035-2.068-.017-3.1a.626.626,0,0,0-.344-.676,21.8,21.8,0,0,1-5.23-4.305,24.041,24.041,0,0,1-4.33-7.118,4.8,4.8,0,0,1,2.207-6.037,4.573,4.573,0,0,1,6.348,2.521,13.141,13.141,0,0,0,5.609,6.756c.079.048.166.081.3.144M47.3,227.042v-.533q0-5.816,0-11.632a1.527,1.527,0,0,1,.7-1.338,4.874,4.874,0,0,1,.485-.3,18.849,18.849,0,0,0,4.347-3.21,19.309,19.309,0,0,0,4.483-6.824,19.075,19.075,0,0,0,1.059-3.807,1.611,1.611,0,0,0-1.126-1.7,1.533,1.533,0,0,0-1.944,1.169c-.163.574-.253,1.17-.425,1.74a16.537,16.537,0,0,1-4.924,7.736,15.834,15.834,0,0,1-4.1,2.64,16.478,16.478,0,0,1-4.176,1.2,14.926,14.926,0,0,1-6.249-.388,16.211,16.211,0,0,1-11.023-10.23c-.329-.932-.541-1.906-.82-2.857a1.53,1.53,0,0,0-2.384-.752,1.59,1.59,0,0,0-.591,1.671,20.156,20.156,0,0,0,1.893,5.492,19.355,19.355,0,0,0,5.044,6.185,24.778,24.778,0,0,0,3.305,2.173A1.617,1.617,0,0,1,31.682,215q-.009,5.845,0,11.69v.357Zm3.065-5.278c-.01.079-.018.116-.018.154q0,2.247,0,4.495c0,.657,0,.653.639.652q7.02,0,14.04,0h.6a.49.49,0,0,0,.029-.092c0-.8-.005-1.6.006-2.407a3.34,3.34,0,0,1,.085-.716,1.894,1.894,0,0,1,1.123-1.185,19.235,19.235,0,0,0,8.254-8.71,12.451,12.451,0,0,0,.74-1.812,1.557,1.557,0,0,0-1.169-2,1.5,1.5,0,0,0-1.737.915,17.727,17.727,0,0,1-1.749,3.4,16.025,16.025,0,0,1-13.55,7.313c-2.056.034-4.114,0-6.171,0H50.366M13.33,227.037H28.57v-.253c0-1.557-.007-3.113.007-4.67,0-.282-.078-.352-.347-.351q-3.567.014-7.135,0a15.453,15.453,0,0,1-6.158-1.308,16.32,16.32,0,0,1-6.306-4.828,17.838,17.838,0,0,1-2.6-4.59,1.533,1.533,0,0,0-2.335-.634,1.656,1.656,0,0,0-.482,2.054,19.312,19.312,0,0,0,6.464,8.617c.865.647,1.808,1.185,2.731,1.748a1.811,1.811,0,0,1,.927,1.7c-.012.83,0,1.661,0,2.518m29.518-21.916-.084-.015c0-.193.01-.387,0-.58a4.026,4.026,0,0,0-.688-2.287,3.229,3.229,0,0,0-5.592.831,7.847,7.847,0,0,0-.186,3.241,3,3,0,0,0,.547,1.5,3.126,3.126,0,0,0,2.8,1.376,3.061,3.061,0,0,0,2.858-2.146,17.4,17.4,0,0,0,.344-1.922m12.165,9.307h.029a9.591,9.591,0,0,0,.012,1.5,3.177,3.177,0,0,0,3.018,2.575A3.141,3.141,0,0,0,61.224,216a11.634,11.634,0,0,0,.1-2.54,3.169,3.169,0,0,0-3.711-3.061,3.1,3.1,0,0,0-2.6,3.128v.9m-31.037-.02h-.028a7.2,7.2,0,0,0-.017-1.5,3.021,3.021,0,0,0-2.215-2.424,3.132,3.132,0,0,0-3.983,2.481,11.693,11.693,0,0,0-.046,2.6,3.15,3.15,0,0,0,6.292-.287c-.023-.288,0-.58,0-.87m28.864,4.2a7.113,7.113,0,0,1-.9-3.828c-.529.32-1.008.6-1.477.9a.329.329,0,0,0-.117.241q0,1.261.02,2.522c0,.055.09.155.14.156.753.01,1.507.007,2.337.007m-25.808-3.837a7.1,7.1,0,0,1-.852,3.826h2.33c.03-.051.048-.067.048-.083.013-.868.028-1.735.028-2.6a.357.357,0,0,0-.14-.254c-.434-.285-.879-.553-1.415-.885" transform="translate(0 -149.243)" fill="#6a4d23"/>
            <path id="Path_880633" data-name="Path 880633" d="M96.961,42.163c-.416-1.21-.807-2.356-1.2-3.5-.2-.591-.41-1.181-.636-1.764a.38.38,0,0,0-.276-.209A3.054,3.054,0,0,1,92.4,35.5c-.523-.623-1.084-1.213-1.591-1.849A5.162,5.162,0,0,1,90,28.32c.171-.46.33-.925.527-1.374A5.2,5.2,0,0,1,95.089,23.7a7.974,7.974,0,0,1,3.52.379,5.777,5.777,0,0,1,2.8,2.076.508.508,0,0,0,.341.2c.537.022,1.075-.007,1.612.018a6.559,6.559,0,0,1,1.2.144,2.812,2.812,0,0,1,2.155,2.528c.055.624.041,1.255.04,1.883,0,1.034,0,2.069-.025,3.1a2.694,2.694,0,0,1-.905,1.964,2.447,2.447,0,0,0-.748,1.3c-.3,1.256-.67,2.492-1.011,3.736-.03.109-.05.22-.08.353a.5.5,0,0,0,.157.008,19.6,19.6,0,0,0,8.133-5.284c.212-.233.411-.481.635-.7.179-.176.133-.328.024-.51q-1.293-2.162-2.577-4.33a4.9,4.9,0,0,1-.346-.663,2.306,2.306,0,0,1,.252-2.178c.192-.31.4-.613.574-.931a.478.478,0,0,0,.051-.344c-.233-.652-.491-1.295-.729-1.945a.293.293,0,0,0-.347-.209,8.263,8.263,0,0,1-2.416-.206,5.919,5.919,0,0,1-4.216-6.409,6.3,6.3,0,0,1,2.156-3.892,9.338,9.338,0,0,1,6.334-2.463c.723-.01,1.447,0,2.226,0A18.861,18.861,0,0,0,93.113,3.9c.325.373.643.765.989,1.128.528.553,1.093,1.069,1.611,1.631A5.893,5.893,0,0,1,97.368,10.9a5.528,5.528,0,0,1-1.04,3.107c-1.055,1.485-2.153,2.937-3.233,4.4-.614.833-1.209,1.682-1.85,2.492A7.58,7.58,0,0,1,90.1,22.055a3.105,3.105,0,0,1-1.934.632.737.737,0,0,0-.762.812c-.009.386-.026.772-.042,1.157A3.53,3.53,0,0,1,84.38,27.8a3.336,3.336,0,0,1-2.276-.49c-.512-.307-.98-.689-1.488-1a10.744,10.744,0,0,0-1.036-.5l-.07.058c.093.418.174.84.281,1.254.164.634.341,1.264.521,1.893a1.605,1.605,0,0,1-.9,1.927,1.44,1.44,0,0,1-1.919-.837,16.328,16.328,0,0,1-.932-3.629,22.007,22.007,0,0,1-.32-4.791,24.381,24.381,0,0,1,.766-4.822A22.538,22.538,0,0,1,86.436,3.637,21.129,21.129,0,0,1,90.25,1.632,21.909,21.909,0,0,1,95.172.261a20.447,20.447,0,0,1,7.6.2A21.959,21.959,0,0,1,113.1,5.8a22.671,22.671,0,0,1,5.227,7.109,22.92,22.92,0,0,1,1.837,5.789,22.683,22.683,0,0,1,.056,7.67,21.866,21.866,0,0,1-1.118,4.3,22.578,22.578,0,0,1-9.978,11.848,21.271,21.271,0,0,1-4.356,1.9,23.659,23.659,0,0,1-4.628.909,19.482,19.482,0,0,1-5.714-.3A22.5,22.5,0,0,1,86.8,42.024a1.73,1.73,0,0,1-1-1.587,1.524,1.524,0,0,1,2.329-1.244c1.029.583,2.062,1.171,3.138,1.651a15.17,15.17,0,0,0,4.331,1.166c.438.054.877.1,1.37.153M79.355,21.733c0,.067-.007.135-.011.2-.037.607-.033.592.539.728a7.828,7.828,0,0,1,2.694,1.229c.335.234.661.483,1.005.7.4.255.759.056.773-.418.008-.261,0-.522.009-.783a3.787,3.787,0,0,1,1.312-2.873,3.345,3.345,0,0,1,2.177-.919.88.88,0,0,0,.8-.314c1.63-2.225,3.281-4.435,4.911-6.661a3.541,3.541,0,0,0,.566-1.054,2.778,2.778,0,0,0-.755-2.938C92.255,7.525,91.147,6.4,90.026,5.3a.294.294,0,0,0-.278-.042c-.87.539-1.766,1.042-2.59,1.649a19.194,19.194,0,0,0-6.59,8.758,17.834,17.834,0,0,0-1.213,6.069M115,32.3c.109-.183.205-.324.282-.475a20.728,20.728,0,0,0,1.466-3.754,18.446,18.446,0,0,0,.673-4.511A21.32,21.32,0,0,0,117.2,19.4a21.194,21.194,0,0,0-1.423-4.775.272.272,0,0,0-.2-.138c-1.358,0-2.717.017-4.075.026a6.027,6.027,0,0,0-4.328,1.759,3.089,3.089,0,0,0-.985,2.361,2.7,2.7,0,0,0,2.473,2.5c.791-.039,1.585-.025,2.377,0a1.479,1.479,0,0,1,1.441.94c.541,1.377,1.033,2.774,1.553,4.16a1.642,1.642,0,0,1-.178,1.491c-.232.387-.465.773-.709,1.151a.324.324,0,0,0-.015.394c.541.894,1.073,1.795,1.611,2.691.067.111.152.21.251.345M103.7,29.5c-.73,0-1.445-.011-2.16,0a2.784,2.784,0,0,1-1.278-.31,3.851,3.851,0,0,1-1.324-1.237,2.5,2.5,0,0,0-2.085-1.033c-.566,0-1.132.009-1.7,0A1.825,1.825,0,0,0,93.342,28.1c-.2.437-.325.906-.516,1.346a2.083,2.083,0,0,0,.383,2.311c.378.457.8.876,1.156,1.351a1.246,1.246,0,0,0,1.031.5,2.711,2.711,0,0,1,2.423,1.775c.558,1.389,1,2.828,1.489,4.245.261.754.517,1.511.792,2.259.042.115.177.2.268.291.1-.1.208-.2.3-.315a.443.443,0,0,0,.052-.163c.126-.465.251-.929.378-1.394.389-1.42.8-2.834,1.159-4.263a3.737,3.737,0,0,1,1.244-2.05.572.572,0,0,0,.219-.5c-.008-1.237,0-2.475,0-3.713,0-.085-.008-.17-.014-.282" transform="translate(-58.902 0)" fill="#6a4d23"/>
            <path id="Path_880634" data-name="Path 880634" d="M98.784,148.288a1.543,1.543,0,1,1-3.085-.028,1.62,1.62,0,0,1,1.527-1.579,1.678,1.678,0,0,1,1.558,1.606" transform="translate(-73.963 -112.545)" fill="#6a4d23"/>
          </g>
        </g>
      </g>
    </g>
  </g>
</svg>
