<svg xmlns="http://www.w3.org/2000/svg" xmlns:xlink="http://www.w3.org/1999/xlink" width="129" height="128" viewBox="0 0 129 128">
  <defs>
    <clipPath id="clip-path">
      <rect id="Rectangle_400938" data-name="Rectangle 400938" width="120" height="120" fill="none"/>
    </clipPath>
    <clipPath id="clip-path-2">
      <rect id="Rectangle_400938-2" data-name="Rectangle 400938" width="113" height="113" transform="translate(0.211 0.211)" fill="none"/>
    </clipPath>
    <clipPath id="clip-path-3">
      <rect id="Rectangle_401073" data-name="Rectangle 401073" width="86.443" height="38.93" fill="#7d3a1b"/>
    </clipPath>
    <clipPath id="clip-path-4">
      <rect id="Rectangle_402259" data-name="Rectangle 402259" width="52.31" height="63" fill="none"/>
    </clipPath>
  </defs>
  <g id="Group_1101307" data-name="Group 1101307" transform="translate(-390 -4901)">
    <g id="Grupo_108927" data-name="Grupo 108927" transform="translate(0 434)">
      <path id="Rectángulo_36179" data-name="Rectángulo 36179" d="M0,0H129V128H0Z" transform="translate(390 4467)" fill="#feebcf"/>
    </g>
    <g id="Group_1100412" data-name="Group 1100412" transform="translate(132.789 -375.211)">
      <g id="Group_1099379" data-name="Group 1099379" transform="translate(265 5284)">
        <rect id="Rectangle_401103" data-name="Rectangle 401103" width="113" height="113" transform="translate(0.211 0.211)" fill="none"/>
        <g id="Group_1099348" data-name="Group 1099348">
          <g id="Group_1099282" data-name="Group 1099282">
            <g id="Group_1099281" data-name="Group 1099281" clip-path="url(#clip-path-3)">
              <path id="Path_873375" data-name="Path 873375" d="M70.12,8.532c-3.88,0-5.887-1.9-7.658-3.581C60.723,3.3,59.226,1.882,56.1,1.882S51.467,3.3,49.728,4.95c-1.771,1.679-3.775,3.581-7.658,3.581s-5.886-1.9-7.658-3.581C32.674,3.3,31.177,1.882,28.046,1.882S23.418,3.3,21.682,4.95C19.911,6.629,17.9,8.532,14.024,8.532S8.135,6.629,6.364,4.95C4.628,3.3,3.131,1.882,0,1.882V0C3.88,0,5.887,1.906,7.658,3.581,9.4,5.23,10.893,6.65,14.024,6.65s4.628-1.419,6.364-3.066C22.157,1.906,24.166,0,28.046,0s5.89,1.906,7.658,3.581C37.442,5.23,38.939,6.65,42.07,6.65S46.7,5.23,48.437,3.581C50.205,1.906,52.215,0,56.1,0s5.89,1.906,7.658,3.581C65.491,5.23,66.988,6.65,70.12,6.65s4.628-1.419,6.367-3.069C78.255,1.906,80.261,0,84.144,0V1.882c-3.131,0-4.628,1.422-6.367,3.069C76.006,6.629,74,8.532,70.12,8.532" transform="translate(2.299 30.399)" fill="#7d3a1b"/>
              <path id="Path_873376" data-name="Path 873376" d="M70.12,8.532c-3.88,0-5.889-1.9-7.658-3.584C60.723,3.3,59.226,1.882,56.1,1.882S51.467,3.3,49.728,4.947c-1.768,1.682-3.775,3.584-7.658,3.584s-5.889-1.9-7.658-3.584C32.674,3.3,31.177,1.882,28.046,1.882S23.418,3.3,21.682,4.947C19.911,6.629,17.9,8.532,14.025,8.532s-5.889-1.9-7.661-3.584C4.628,3.3,3.131,1.882,0,1.882V0C3.88,0,5.889,1.9,7.658,3.581,9.4,5.23,10.893,6.65,14.025,6.65s4.628-1.419,6.364-3.069C22.157,1.9,24.166,0,28.046,0s5.889,1.9,7.661,3.581C37.442,5.23,38.939,6.65,42.071,6.65S46.7,5.23,48.437,3.581C50.206,1.9,52.215,0,56.1,0s5.89,1.9,7.658,3.581C65.491,5.23,66.988,6.65,70.12,6.65s4.628-1.419,6.367-3.069C78.257,1.9,80.264,0,84.147,0V1.882c-3.131,0-4.631,1.422-6.37,3.066C76.006,6.629,74,8.532,70.12,8.532" transform="translate(1.533 20.266)" fill="#7d3a1b"/>
              <path id="Path_873377" data-name="Path 873377" d="M70.119,8.532c-3.88,0-5.889-1.9-7.658-3.584C60.723,3.3,59.226,1.882,56.1,1.882S51.467,3.3,49.728,4.947C47.96,6.629,45.95,8.532,42.071,8.532s-5.89-1.9-7.658-3.584C32.674,3.3,31.177,1.882,28.046,1.882S23.418,3.3,21.682,4.947C19.911,6.629,17.9,8.532,14.025,8.532s-5.89-1.9-7.661-3.584C4.628,3.3,3.131,1.882,0,1.882V0C3.88,0,5.889,1.9,7.658,3.581,9.393,5.23,10.893,6.65,14.025,6.65s4.628-1.419,6.364-3.069C22.156,1.9,24.166,0,28.046,0s5.89,1.9,7.661,3.581C37.442,5.23,38.939,6.65,42.071,6.65S46.7,5.23,48.437,3.581C50.205,1.9,52.215,0,56.1,0s5.889,1.9,7.658,3.581C65.491,5.23,66.988,6.65,70.119,6.65s4.628-1.419,6.367-3.069C78.257,1.9,80.261,0,84.147,0V1.882c-3.131,0-4.631,1.422-6.37,3.066C76.006,6.629,74,8.532,70.119,8.532" transform="translate(0.766 10.133)" fill="#7d3a1b"/>
              <path id="Path_873378" data-name="Path 873378" d="M70.12,8.529c-3.88,0-5.887-1.9-7.658-3.581C60.723,3.3,59.226,1.882,56.095,1.882S51.467,3.3,49.731,4.947C47.96,6.626,45.953,8.529,42.07,8.529s-5.887-1.9-7.658-3.581C32.674,3.3,31.177,1.882,28.046,1.882S23.418,3.3,21.682,4.944C19.914,6.626,17.9,8.529,14.024,8.529s-5.89-1.9-7.661-3.581C4.628,3.3,3.131,1.882,0,1.882V0C3.88,0,5.89,1.9,7.658,3.581,9.4,5.228,10.893,6.647,14.024,6.647s4.628-1.419,6.364-3.066C22.159,1.9,24.166,0,28.046,0s5.887,1.9,7.661,3.581c1.736,1.646,3.233,3.066,6.364,3.066S46.7,5.228,48.437,3.581C50.208,1.9,52.215,0,56.095,0s5.887,1.9,7.658,3.581c1.739,1.646,3.236,3.066,6.367,3.066s4.628-1.419,6.367-3.066C78.257,1.9,80.264,0,84.147,0V1.882c-3.134,0-4.631,1.419-6.37,3.066C76.006,6.626,74,8.529,70.12,8.529" transform="translate(0 0.003)" fill="#7d3a1b"/>
            </g>
          </g>
        </g>
        <path id="Path_873425" data-name="Path 873425" d="M47.337,0A47.337,47.337,0,1,1,0,47.337,47.337,47.337,0,0,1,47.337,0Z" transform="translate(14.061 16.873)" fill="#7d3a1b"/>
        <circle id="Ellipse_11503" data-name="Ellipse 11503" cx="49.5" cy="49.5" r="49.5" transform="translate(7.211 7.211)" fill="#fff"/>
      </g>
      <g id="Group_1099380" data-name="Group 1099380" transform="translate(289.372 5307.434)">
        <rect id="Rectangle_401104" data-name="Rectangle 401104" width="64" height="65" transform="translate(-0.161 -0.223)" fill="none"/>
        <g id="Group_1100432" data-name="Group 1100432" transform="translate(9.839 0.777)">
          <g id="Group_1100431" data-name="Group 1100431" clip-path="url(#clip-path-4)">
            <path id="Path_880019" data-name="Path 880019" d="M42.408,63H4.31A4.31,4.31,0,0,1,0,58.69V4.31A4.31,4.31,0,0,1,4.31,0h38.1a4.31,4.31,0,0,1,4.31,4.31V58.69A4.31,4.31,0,0,1,42.408,63" fill="#ffe2b7"/>
            <path id="Path_880020" data-name="Path 880020" d="M187.435,217.4c.286-.488.575-.975.859-1.465.317-.547.628-1.1.944-1.643q.575-.992,1.154-1.982a2.13,2.13,0,0,1,.444.254c.945.549,1.886,1.106,2.835,1.649a7.263,7.263,0,0,0,1.1.582c-.155.36-.383.68-.571,1.021-.386.7-.822,1.37-1.176,2.087a.548.548,0,0,0-.134.2c-.419.73-.834,1.462-1.256,2.19-.948,1.637-1.9,3.27-2.85,4.908-.972,1.683-1.937,3.371-2.907,5.055-.714,1.239-1.439,2.472-2.145,3.715a5.45,5.45,0,0,1-2.341,2.262c-.327.163-.691.234-1,.425-.2.084-.4.164-.6.252a.9.9,0,0,1-.895.023,6.669,6.669,0,0,1-.229-1.642c-.03-.176-.025-.357-.048-.534a5.535,5.535,0,0,1,.9-3.61c1.213-2.052,2.386-4.127,3.577-6.191.323-.56.651-1.118.976-1.677.318-.637.685-1.248,1.039-1.865a2.491,2.491,0,0,0,.366-.584c.27-.445.53-.9.79-1.349a1.035,1.035,0,0,0,.065-.187c.059-.024.069-.079.082-.131.067-.106.138-.209.2-.318.274-.481.546-.964.819-1.447" transform="translate(-146.513 -174.181)" fill="#6a4d23"/>
            <path id="Path_880021" data-name="Path 880021" d="M256.021,175.728c-.023-.208.139-.335.225-.494.187-.344.389-.68.585-1.019.315-.49.583-1.007.854-1.522a1.465,1.465,0,0,1,.417-.533.712.712,0,0,1,.779-.018c1.026.57,2.041,1.157,3.058,1.744a.722.722,0,0,1,.312,1.029c-.31.585-.647,1.156-.973,1.733q-.346.612-.693,1.223a.705.705,0,0,1-.249.308c-1.034-.6-2.065-1.2-3.1-1.795a9.137,9.137,0,0,0-1.21-.657" transform="translate(-210.042 -141.141)" fill="#6a4d23"/>
            <path id="Path_880022" data-name="Path 880022" d="M246.431,192.6a9.14,9.14,0,0,1,1.21.657c1.037.593,2.069,1.2,3.1,1.795a.8.8,0,0,1-.16.386c-.384.653-.759,1.311-1.134,1.969a10.194,10.194,0,0,1-.736,1.218,7.253,7.253,0,0,1-1.1-.582c-.949-.543-1.89-1.1-2.835-1.649a2.125,2.125,0,0,0-.444-.254.551.551,0,0,1,.17-.377,10.6,10.6,0,0,0,.769-1.331c.322-.562.641-1.125.988-1.671.043-.067.075-.15.173-.16" transform="translate(-200.452 -158.013)" fill="#ffb937"/>
            <path id="Path_880023" data-name="Path 880023" d="M27.077,151.421c0-.738,0-1.476,0-2.214q0-3.277,0-6.554a1.876,1.876,0,0,1,.259-1,1.9,1.9,0,0,1,1.717-.887c2.3-.006,4.59,0,6.886,0,.7,0,1.4,0,2.1.007a2.309,2.309,0,0,1,.091.681c0,.529-.093,1.049-.125,1.573a7.687,7.687,0,0,1-.488,1.934,7.793,7.793,0,0,1-.557,1.282,9.179,9.179,0,0,1-.969,1.454c-.3.37-.639.719-.981,1.06a9.481,9.481,0,0,1-3.226,2.059,9.159,9.159,0,0,1-3.321.654c-.462.006-.92-.064-1.381-.048" transform="translate(-22.21 -115.484)" fill="#ffb937"/>
            <path id="Path_880024" data-name="Path 880024" d="M26.852,58.184c.091-2.945.014-5.89.04-8.835a1.8,1.8,0,0,1,.82-1.545,1.7,1.7,0,0,1,.994-.275q4.273,0,8.545,0c.2,0,.4.007.6.01a4.95,4.95,0,0,1,.04,1.639,8.046,8.046,0,0,1-.115.947,10.778,10.778,0,0,1-.618,1.994,10.026,10.026,0,0,1-.492,1.046A10.612,10.612,0,0,1,34.2,56.04a8.653,8.653,0,0,1-1.73,1.115,9.065,9.065,0,0,1-2.65.882,11.955,11.955,0,0,1-1.654.2c-.44,0-.875-.077-1.314-.049" transform="translate(-22.03 -38.992)" fill="#ffb937"/>
            <path id="Path_880025" data-name="Path 880025" d="M27,244.923a7.663,7.663,0,0,1,0-1.061q-.008-3.836,0-7.672a1.852,1.852,0,0,1,.585-1.447,1.6,1.6,0,0,1,1.03-.474q4.672-.011,9.344,0a3.645,3.645,0,0,1,.091.7c0,.344-.067.68-.083,1.018a7.972,7.972,0,0,1-.463,2.277,10.759,10.759,0,0,1-.605,1.4,10.063,10.063,0,0,1-1.563,2.158,8.943,8.943,0,0,1-2.691,2.023,10.96,10.96,0,0,1-1.92.754,9.518,9.518,0,0,1-2.633.365,10,10,0,0,0-1.09-.046" transform="translate(-22.13 -192.196)" fill="#ffb937"/>
            <path id="Path_880026" data-name="Path 880026" d="M26.8,58.231c.439-.028.875.053,1.314.049a11.956,11.956,0,0,0,1.654-.2,9.064,9.064,0,0,0,2.65-.882,8.653,8.653,0,0,0,1.73-1.115,10.613,10.613,0,0,0,2.469-2.876,10.026,10.026,0,0,0,.492-1.046,10.778,10.778,0,0,0,.618-1.994,8.046,8.046,0,0,0,.115-.947,4.95,4.95,0,0,0-.04-1.639,1.73,1.73,0,0,1,1.733,1.762c.1,2.631.039,5.265.037,7.9a6.79,6.79,0,0,1-.027,1.424,1.938,1.938,0,0,1-1.394,1.585,1.543,1.543,0,0,1-.475.042c-2.87,0-5.741-.007-8.611.006a2.389,2.389,0,0,1-1.547-.453,1.719,1.719,0,0,1-.672-1.223c-.015-.132-.087-.257-.047-.394" transform="translate(-21.976 -39.04)" fill="#d28e10"/>
            <path id="Path_880027" data-name="Path 880027" d="M27.061,244.929a10,10,0,0,1,1.09.046,9.517,9.517,0,0,0,2.633-.365,10.961,10.961,0,0,0,1.92-.754,8.943,8.943,0,0,0,2.691-2.023,10.062,10.062,0,0,0,1.563-2.158,10.761,10.761,0,0,0,.605-1.4A7.973,7.973,0,0,0,38.027,236c.016-.338.087-.675.083-1.018a3.645,3.645,0,0,0-.091-.7,1.749,1.749,0,0,1,1.514.968,2.829,2.829,0,0,1,.24,1.076c.062,2.855.009,5.711.025,8.566a2.205,2.205,0,0,1-.492,1.45,1.681,1.681,0,0,1-1.269.65c-.611.013-1.222.01-1.833.01q-3.622,0-7.244-.009a1.852,1.852,0,0,1-1.9-2.056" transform="translate(-22.194 -192.202)" fill="#d28e10"/>
            <path id="Path_880028" data-name="Path 880028" d="M27.049,151.459c.461-.016.919.054,1.381.048a9.159,9.159,0,0,0,3.321-.654,9.481,9.481,0,0,0,3.226-2.059c.342-.341.677-.69.981-1.06a9.178,9.178,0,0,0,.969-1.454A7.793,7.793,0,0,0,37.485,145a7.687,7.687,0,0,0,.488-1.934c.031-.524.125-1.044.125-1.573a2.309,2.309,0,0,0-.091-.681,1.732,1.732,0,0,1,1.694,1.462,5.086,5.086,0,0,1,.077,1.31q.028,3.959,0,7.918a1.957,1.957,0,0,1-1.442,1.993,1.472,1.472,0,0,1-.31.024c-3.048,0-6.1.007-9.143,0a1.787,1.787,0,0,1-1.8-1.523,1.625,1.625,0,0,1-.041-.532" transform="translate(-22.183 -115.522)" fill="#d28e10"/>
            <path id="Path_880029" data-name="Path 880029" d="M140.132,77.884q-6.663,0-13.327.007a4.4,4.4,0,0,1-1.138-.075,1.076,1.076,0,0,1-.645-.945,1,1,0,0,1,.756-.876,4.643,4.643,0,0,1,.845-.045q6.864,0,13.728,0a1.632,1.632,0,0,1,1.012.237.937.937,0,0,1-.482,1.689c-.171.01-.343.006-.514.009h-.236" transform="translate(-102.569 -62.31)" fill="#6a4d23"/>
            <path id="Path_880030" data-name="Path 880030" d="M133.33,169.635q3.714,0,7.427,0a.9.9,0,0,1,.9.632.985.985,0,0,1-.939,1.25c-.223.01-.447,0-.671,0H126.689a6.827,6.827,0,0,1-.848-.038.97.97,0,0,1-.818-1.229.944.944,0,0,1,.9-.627c2.468.013,4.937.006,7.4.006Z" transform="translate(-102.521 -139.166)" fill="#6a4d23"/>
            <path id="Path_880031" data-name="Path 880031" d="M141.1,262.938c-.354.617-.721,1.227-1.039,1.865q-7.023,0-14.045.006a1.1,1.1,0,0,1-1.043-.723.944.944,0,0,1,.471-1.043,1.749,1.749,0,0,1,.695-.12c1.29,0,2.579,0,3.869,0l10.735,0c.119,0,.238.011.357.016" transform="translate(-102.503 -215.706)" fill="#6a4d23"/>
            <path id="Path_880032" data-name="Path 880032" d="M182.374,148.67q-1.924,0-3.847,0a8.061,8.061,0,0,1-.825-.04.892.892,0,0,1-.806-1.072.955.955,0,0,1,.958-.808q4.418,0,8.835,0a.988.988,0,0,1,.9.491.912.912,0,0,1-.657,1.391,3.949,3.949,0,0,1-.489.036h-4.071" transform="translate(-145.116 -120.394)" fill="#6a4d23"/>
            <path id="Path_880033" data-name="Path 880033" d="M182.244,55.394c-1.52,0-3.04,0-4.56,0a.992.992,0,0,1-.808-.574,1.121,1.121,0,0,1,.206-1.037,1.172,1.172,0,0,1,.787-.253c.775-.007,1.55,0,2.325,0q3.152,0,6.3,0a1.735,1.735,0,0,1,.671.14.8.8,0,0,1,.488.9.835.835,0,0,1-.515.74,1.2,1.2,0,0,1-.494.094q-2.2,0-4.4,0v-.007" transform="translate(-145.074 -43.912)" fill="#6a4d23"/>
            <path id="Path_880034" data-name="Path 880034" d="M185.992,240.37c-.273.482-.544.965-.819,1.447-.062.109-.133.212-.2.318-.039,0-.076,0-.1.042-1.318.064-2.637.035-3.956.04-.939,0-1.878,0-2.817,0a1.268,1.268,0,0,1-1.012-.319.912.912,0,0,1-.209-.97.829.829,0,0,1,.733-.6,7.522,7.522,0,0,1,1,0l7.088,0a.565.565,0,0,1,.284.04" transform="translate(-145.07 -197.153)" fill="#6a4d23"/>
            <path id="Path_880035" data-name="Path 880035" d="M160.425,285.369c.8,0,1.6,0,2.393,0a1.03,1.03,0,0,1,.922.7.937.937,0,0,1-.364,1.067.917.917,0,0,1-.55.158c-1.558,0-3.116.008-4.675,0a1.114,1.114,0,0,1-.886-.288.937.937,0,0,1,.456-1.583,1.822,1.822,0,0,1,.465-.047h2.237" transform="translate(-128.796 -234.121)" fill="#7a4f00"/>
            <path id="Path_880036" data-name="Path 880036" d="M160.209,98.873c.775,0,1.55-.005,2.324,0a1.588,1.588,0,0,1,.75.148.922.922,0,0,1,.4,1.009.964.964,0,0,1-.905.722c-.439.007-.879,0-1.319,0-1.065,0-2.131-.008-3.2,0a1.387,1.387,0,0,1-.955-.218.983.983,0,0,1-.363-1.069.861.861,0,0,1,.87-.6c.8-.01,1.594,0,2.391,0Z" transform="translate(-128.727 -81.116)" fill="#7a4f00"/>
            <path id="Path_880037" data-name="Path 880037" d="M160.288,194.011h-2.482a.934.934,0,0,1-.856-.535.851.851,0,0,1,.1-.965,1.065,1.065,0,0,1,.933-.371c1.461-.006,2.922,0,4.383,0a2.157,2.157,0,0,1,.465.04c.5.11.768.316.814.737a.95.95,0,0,1-.678,1.076,1.156,1.156,0,0,1-.353.024q-1.163,0-2.326,0v0" transform="translate(-128.676 -157.633)" fill="#7a4f00"/>
            <path id="Path_880038" data-name="Path 880038" d="M128.424,146.727c.775,0,1.55-.016,2.324.005a.977.977,0,0,1,.981,1.24,1.085,1.085,0,0,1-1.1.673c-1.3.005-2.593,0-3.889,0a5.726,5.726,0,0,1-.822-.036.957.957,0,0,1-.815-.758.853.853,0,0,1,.269-.807.985.985,0,0,1,.771-.322c.76,0,1.52,0,2.28,0" transform="translate(-102.617 -120.373)" fill="#6a4d23"/>
            <path id="Path_880039" data-name="Path 880039" d="M128.447,242.218c-.862-.025-1.7.023-2.531-.035a1.045,1.045,0,0,1-.91-.926.975.975,0,0,1,.98-.955c.5,0,1,.02,1.5.021,1.1,0,2.207,0,3.311,0a.906.906,0,0,1,.918.828.96.96,0,0,1-.857,1.023c-.811.082-1.624.007-2.408.04" transform="translate(-102.555 -197.149)" fill="#6a4d23"/>
            <path id="Path_880040" data-name="Path 880040" d="M128.29,55.392c-.805,0-1.61.008-2.415,0a.923.923,0,0,1-.812-.592.806.806,0,0,1,.072-.861,1,1,0,0,1,.853-.406q2.3-.02,4.606,0a1.022,1.022,0,0,1,1.045.652.928.928,0,0,1-.956,1.213c-.8.015-1.6,0-2.393,0v0" transform="translate(-102.527 -43.909)" fill="#6a4d23"/>
            <path id="Path_880041" data-name="Path 880041" d="M126.822,287.225a4.205,4.205,0,0,1-1.053-.045.934.934,0,0,1-.443-1.533.859.859,0,0,1,.548-.3,4.986,4.986,0,0,1,1.551.011,1,1,0,0,1,.8.783.984.984,0,0,1-.822,1.083c-.193.009-.387,0-.58,0" transform="translate(-102.617 -234.058)" fill="#7a4f00"/>
            <path id="Path_880042" data-name="Path 880042" d="M126.71,100.7a4.845,4.845,0,0,1-.909-.047,1.071,1.071,0,0,1-.615-1.253.773.773,0,0,1,.753-.569,7.8,7.8,0,0,1,1.67.029.8.8,0,0,1,.63.648.891.891,0,0,1-.3.952,1,1,0,0,1-.724.241c-.149-.007-.3,0-.5,0" transform="translate(-102.672 -81.061)" fill="#6a4d23"/>
            <path id="Path_880043" data-name="Path 880043" d="M126.648,193.968a2.721,2.721,0,0,1-.936-.091.921.921,0,0,1-.5-1.154.9.9,0,0,1,.86-.619,6.223,6.223,0,0,1,1.4.031,1,1,0,0,1,.826.9.954.954,0,0,1-.931.928c-.223.006-.447,0-.722,0" transform="translate(-102.682 -157.585)" fill="#6a4d23"/>
            <path id="Path_880044" data-name="Path 880044" d="M209.167,86.719h.236q-.118.166-.236,0" transform="translate(-171.604 -71.146)" fill="#b2e59e"/>
            <path id="Path_880045" data-name="Path 880045" d="M221.665,250.52c.02-.041.057-.043.1-.042-.013.053-.024.107-.082.132l-.014-.089" transform="translate(-181.858 -205.497)" fill="#b2e59e"/>
            <path id="Path_880046" data-name="Path 880046" d="M42.987,72.185l-3.263-3.624,1.015-1.127L43,69.949l4.977-5.356,1,1.144Z" transform="translate(-32.59 -52.993)" fill="#f7f6f7"/>
            <path id="Path_880047" data-name="Path 880047" d="M42.987,162.851l-3.263-3.624,1.015-1.127L43,160.616l4.977-5.356,1,1.144Z" transform="translate(-32.59 -127.378)" fill="#f7f6f7"/>
            <path id="Path_880048" data-name="Path 880048" d="M42.987,255.3l-3.263-3.624,1.015-1.127L43,253.06,47.98,247.7l1,1.144Z" transform="translate(-32.59 -203.221)" fill="#f7f6f7"/>
          </g>
        </g>
      </g>
    </g>
  </g>
</svg>
