<svg xmlns="http://www.w3.org/2000/svg" xmlns:xlink="http://www.w3.org/1999/xlink" width="139" height="139" viewBox="0 0 139 139">
  <defs>
    <clipPath id="clip-path">
      <rect id="Rectangle_400938" data-name="Rectangle 400938" width="139" height="139" transform="translate(-0.043 -0.043)" fill="none"/>
    </clipPath>
    <clipPath id="clip-path-2">
      <rect id="Rectangle_401073" data-name="Rectangle 401073" width="105.872" height="47.68" fill="#7d3a1b"/>
    </clipPath>
    <clipPath id="clip-path-3">
      <rect id="Rectangle_402312" data-name="Rectangle 402312" width="71.888" height="76.25" fill="#6a4d23"/>
    </clipPath>
    <clipPath id="clip-path-4">
      <rect id="Rectangle_402520" data-name="Rectangle 402520" width="68.333" height="68.328" fill="#6a4d23"/>
    </clipPath>
  </defs>
  <g id="Group_1101575" data-name="Group 1101575" transform="translate(-318 -10856.881)">
    <g id="Group_1100943" data-name="Group 1100943" transform="translate(0 3427)">
      <g id="Group_1099526" data-name="Group 1099526" transform="translate(53.043 2145.924)">
        <g id="Group_1099379" data-name="Group 1099379" transform="translate(265 5284)">
          <rect id="Rectangle_401103" data-name="Rectangle 401103" width="139" height="139" transform="translate(-0.043 -0.043)" fill="none"/>
          <g id="Group_1099348" data-name="Group 1099348" transform="translate(0)">
            <g id="Group_1099282" data-name="Group 1099282">
              <g id="Group_1099281" data-name="Group 1099281" clip-path="url(#clip-path-2)">
                <path id="Path_873375" data-name="Path 873375" d="M85.879,10.449c-4.752,0-7.21-2.33-9.379-4.386C74.371,4.047,72.538,2.3,68.7,2.3s-5.668,1.742-7.8,3.758c-2.17,2.056-4.624,4.386-9.379,4.386s-7.21-2.33-9.379-4.386C40.018,4.047,38.184,2.3,34.349,2.3s-5.668,1.742-7.794,3.758c-2.17,2.056-4.627,4.386-9.379,4.386S9.963,8.119,7.794,6.063C5.668,4.047,3.835,2.3,0,2.3V0C4.752,0,7.21,2.334,9.379,4.386c2.129,2.02,3.963,3.758,7.8,3.758s5.668-1.738,7.794-3.755C27.136,2.334,29.6,0,34.349,0s7.213,2.334,9.379,4.386c2.129,2.02,3.963,3.758,7.8,3.758s5.668-1.738,7.8-3.758C61.489,2.334,63.951,0,68.7,0s7.213,2.334,9.379,4.386c2.129,2.02,3.963,3.758,7.8,3.758s5.668-1.738,7.8-3.758C95.843,2.334,98.3,0,103.056,0V2.3c-3.835,0-5.668,1.742-7.8,3.758-2.169,2.056-4.627,4.386-9.379,4.386" transform="translate(2.816 37.231)" fill="#7d3a1b"/>
                <path id="Path_873376" data-name="Path 873376" d="M85.879,10.449c-4.752,0-7.213-2.33-9.379-4.39C74.371,4.043,72.538,2.3,68.7,2.3s-5.668,1.738-7.8,3.755c-2.166,2.06-4.624,4.39-9.379,4.39s-7.213-2.33-9.379-4.39C40.018,4.043,38.184,2.3,34.349,2.3s-5.668,1.742-7.794,3.755c-2.17,2.06-4.627,4.39-9.379,4.39s-7.213-2.33-9.383-4.39C5.668,4.043,3.835,2.3,0,2.3V0C4.752,0,7.213,2.33,9.379,4.386c2.129,2.02,3.963,3.758,7.8,3.758s5.668-1.738,7.794-3.758C27.136,2.33,29.6,0,34.349,0s7.213,2.33,9.383,4.386c2.126,2.02,3.959,3.758,7.794,3.758s5.668-1.738,7.8-3.758C61.489,2.33,63.951,0,68.7,0s7.213,2.33,9.379,4.386c2.129,2.02,3.963,3.758,7.8,3.758s5.668-1.738,7.8-3.758C95.846,2.33,98.3,0,103.059,0V2.3c-3.835,0-5.672,1.742-7.8,3.755-2.169,2.06-4.628,4.39-9.379,4.39" transform="translate(1.877 24.821)" fill="#7d3a1b"/>
                <path id="Path_873377" data-name="Path 873377" d="M85.879,10.449c-4.752,0-7.213-2.33-9.379-4.39C74.371,4.043,72.538,2.3,68.7,2.3s-5.668,1.738-7.8,3.755c-2.166,2.06-4.627,4.39-9.379,4.39s-7.213-2.33-9.379-4.39C40.018,4.043,38.184,2.3,34.349,2.3s-5.668,1.742-7.794,3.755c-2.169,2.06-4.627,4.39-9.379,4.39s-7.213-2.33-9.383-4.39C5.668,4.043,3.835,2.3,0,2.3V0C4.752,0,7.213,2.33,9.379,4.386c2.126,2.02,3.963,3.758,7.8,3.758s5.668-1.738,7.794-3.758C27.136,2.33,29.6,0,34.349,0s7.213,2.33,9.383,4.386c2.126,2.02,3.959,3.758,7.794,3.758s5.668-1.738,7.8-3.758C61.489,2.33,63.951,0,68.7,0s7.213,2.33,9.379,4.386c2.129,2.02,3.963,3.758,7.8,3.758s5.668-1.738,7.8-3.758C95.846,2.33,98.3,0,103.059,0V2.3c-3.835,0-5.672,1.742-7.8,3.755-2.169,2.06-4.627,4.39-9.379,4.39" transform="translate(0.939 12.41)" fill="#7d3a1b"/>
                <path id="Path_873378" data-name="Path 873378" d="M85.879,10.445c-4.752,0-7.21-2.33-9.379-4.386C74.371,4.043,72.538,2.3,68.7,2.3s-5.668,1.738-7.794,3.755c-2.169,2.056-4.627,4.386-9.383,4.386s-7.21-2.33-9.379-4.386C40.018,4.043,38.184,2.3,34.349,2.3s-5.668,1.738-7.794,3.751c-2.166,2.06-4.627,4.39-9.379,4.39S9.963,8.115,7.794,6.059C5.668,4.043,3.835,2.3,0,2.3V0C4.752,0,7.213,2.33,9.379,4.386c2.129,2.016,3.963,3.755,7.8,3.755S22.845,6.4,24.971,4.386C27.14,2.33,29.6,0,34.349,0s7.21,2.33,9.383,4.386c2.126,2.016,3.959,3.755,7.794,3.755s5.668-1.738,7.8-3.755C61.493,2.33,63.951,0,68.7,0s7.21,2.33,9.379,4.386c2.129,2.016,3.963,3.755,7.8,3.755s5.668-1.738,7.8-3.755C95.846,2.33,98.3,0,103.059,0V2.3c-3.839,0-5.672,1.738-7.8,3.755-2.169,2.056-4.627,4.386-9.379,4.386" transform="translate(0 0.004)" fill="#7d3a1b"/>
              </g>
            </g>
          </g>
          <path id="Path_873425" data-name="Path 873425" d="M57.977,0A57.977,57.977,0,1,1,0,57.977,57.977,57.977,0,0,1,57.977,0Z" transform="translate(17.221 20.665)" fill="#ffe2b7"/>
          <circle id="Ellipse_11503" data-name="Ellipse 11503" cx="60.5" cy="60.5" r="60.5" transform="translate(8.957 8.957)" fill="#fff"/>
        </g>
      </g>
      <g id="Group_1099527" data-name="Group 1099527" transform="translate(0 1035.881)">
        <g id="Group_1099389" data-name="Group 1099389" transform="translate(347.893 6422.863)">
          <rect id="Rectangle_401104" data-name="Rectangle 401104" width="78" height="79" transform="translate(0.107 0.256)" fill="none"/>
        </g>
        <g id="Group_1100505" data-name="Group 1100505" transform="translate(351 6424.119)">
          <g id="Group_1100504" data-name="Group 1100504" clip-path="url(#clip-path-3)">
            <g id="Group_1100949" data-name="Group 1100949" transform="translate(2 4.339)">
              <g id="Group_1100948" data-name="Group 1100948" clip-path="url(#clip-path-4)">
                <path id="Path_880886" data-name="Path 880886" d="M54.324,78.385a3.455,3.455,0,0,1-5.285-.7,4.563,4.563,0,0,1-.343.442q-2.464,2.485-4.939,4.96a2.175,2.175,0,0,1-.937.724,1.1,1.1,0,0,1-1.147-.306,3.944,3.944,0,0,1-1.059-2.441,7.516,7.516,0,0,1,.646-3.4,13.123,13.123,0,0,1,1.56-2.845c-.168-.012-.293-.028-.418-.028q-3.579,0-7.158.009a1.45,1.45,0,0,1-1.094-.329,1.1,1.1,0,0,1-.355-.785,3.705,3.705,0,0,1,1.134-2.718,7.8,7.8,0,0,1,2.722-1.8,13.308,13.308,0,0,1,3.6-1.012,20.277,20.277,0,0,1,6.4.145c.033.006.067.006.141.013-.066-.556-.108-1.1-.2-1.635a13.174,13.174,0,0,1-.027-4.182,18.868,18.868,0,0,1,.622-3.087,9.014,9.014,0,0,1,2.311-4,3.825,3.825,0,0,1,2.413-1.117A1.251,1.251,0,0,1,54.3,55.6c.01.331,0,.662,0,.993q0,3.631,0,7.261v.234l.082.073a.485.485,0,0,1,.06-.161,16.125,16.125,0,0,1,6.6-4.666,9.406,9.406,0,0,1,2.283-.507,3.87,3.87,0,0,1,2.987.991,1.915,1.915,0,0,1,.286.337.876.876,0,0,1,.032,1.091,4.03,4.03,0,0,1-.424.526q-3.079,3.09-6.166,6.172c-.029.029-.054.062-.109.124a5.5,5.5,0,0,0,.561,0,17.341,17.341,0,0,1,4.764.125,12.057,12.057,0,0,1,5.228,2.033,5.112,5.112,0,0,1,1.574,1.753,2.935,2.935,0,0,1,.374,1.908,1.07,1.07,0,0,1-.981.9,3.868,3.868,0,0,1-.391.02H60.091c.079.224.134.424.217.611a35.458,35.458,0,0,1,2.1,6.429,32.536,32.536,0,0,1,.759,4.734c.113,1.376.121,2.761.181,4.142a.23.23,0,0,0,.1.173,15.189,15.189,0,0,1,4.564,3.115,19.186,19.186,0,0,1,4.248,6.267,2.074,2.074,0,0,1,.163.906,1,1,0,0,1-.935.929,3.729,3.729,0,0,1-.469.029l-9.144-.009c-.127,0-.255.013-.466.024.151.132.244.214.338.294a4.384,4.384,0,0,1,1.528,2.344,3.56,3.56,0,0,1-.859,3.2,7.494,7.494,0,0,1-3,2.076,15.792,15.792,0,0,1-6.136,1.165,1.129,1.129,0,0,1-1.181-.686,1.17,1.17,0,0,1,1.165-1.617c.791-.03,1.584-.064,2.37-.147a10.569,10.569,0,0,0,2.741-.706,6.341,6.341,0,0,0,1.953-1.131,3.126,3.126,0,0,0,.472-.52,1.374,1.374,0,0,0-.03-1.8,4.064,4.064,0,0,0-1.366-1.112,11.235,11.235,0,0,0-3.4-1.121,16.1,16.1,0,0,0-2.9-.255q-23.46,0-46.92,0c-.253,0-.505,0-.758,0-.144,0-.2-.051-.2-.2q.009-.927,0-1.854c0-.177.079-.229.237-.227.322,0,.644,0,.967,0H31.8c.313,0,.628-.005.94.019a.7.7,0,0,0,.7-.316,13.565,13.565,0,0,1,2.884-2.783,18.653,18.653,0,0,1,5.714-2.788,21.655,21.655,0,0,1,6.219-.94.45.45,0,0,0,.256-.09,16.476,16.476,0,0,1,3.876-2.285,15.443,15.443,0,0,1,4.032-1.01c.148-.018.239-.026.231-.22a34.942,34.942,0,0,0-1.01-7.117c-.321-1.259-.8-2.476-1.211-3.712a2.2,2.2,0,0,0-.11-.232M69.605,99.837A16.689,16.689,0,0,0,66.8,95.93a13.464,13.464,0,0,0-4.926-3.287,11.726,11.726,0,0,0-4.806-.756,11.97,11.97,0,0,0-5.278,1.55A14.927,14.927,0,0,0,46.745,98.2c-.347.513-.65,1.057-1.007,1.641ZM54.795,72.5H69.656l.062-.1a1.567,1.567,0,0,1-.224-.134A7.821,7.821,0,0,0,66.557,70.8a12.155,12.155,0,0,0-2.9-.492,22.491,22.491,0,0,0-4.092.116,11.32,11.32,0,0,0-2.777.782,7.059,7.059,0,0,0-1.845,1.113,1.486,1.486,0,0,0-.152.187m-18.256,0H51.462a1.476,1.476,0,0,0-.177-.2,9.882,9.882,0,0,0-.961-.671,11.255,11.255,0,0,0-5.3-1.346,16.518,16.518,0,0,0-5.175.469,8.418,8.418,0,0,0-3.064,1.508c-.075.062-.138.138-.243.244M61.084,90.046c.008-.072.02-.13.02-.188a34.679,34.679,0,0,0-.472-5.347c-.179-1.19-.483-2.363-.773-3.534-.2-.808-.467-1.6-.711-2.4a1.974,1.974,0,0,0-.166-.317,3.449,3.449,0,0,1-1.634.969c-.225.064-.259.136-.193.359.292.98.588,1.962.831,2.955a31.229,31.229,0,0,1,.868,5.739c.025.449.044.9.064,1.328l2.165.433M53.175,70.914a1.385,1.385,0,0,0,.15-.1,7.8,7.8,0,0,1,1.956-1.378,1.4,1.4,0,0,0,.331-.249q3.94-3.928,7.879-7.858a.907.907,0,0,1,.255-.126l-.095-.106a3.359,3.359,0,0,0-.459,0,8.34,8.34,0,0,0-2.9.986A15.932,15.932,0,0,0,55.02,66.83a10.957,10.957,0,0,0-1.784,3.688c-.027.106-.034.218-.061.4M52,57.08l-.065-.021c-.185.24-.383.472-.552.723a9.377,9.377,0,0,0-1.43,3.9,15.826,15.826,0,0,0-.149,4.571,12.623,12.623,0,0,0,.527,2.7.493.493,0,0,0,.171.245c.213.129.443.231.675.348.025-.05.043-.079.055-.109.214-.558.434-1.115.638-1.677a1.732,1.732,0,0,0,.127-.569q.011-4.933.005-9.865ZM45.937,95.524l-.027-.075a18.942,18.942,0,0,0-6.664,2.12,12.043,12.043,0,0,0-3.015,2.265,2.366,2.366,0,0,0,.506.038q3.159,0,6.319.01a.289.289,0,0,0,.3-.178c.541-.971,1.083-1.942,1.657-2.894.272-.451.616-.859.927-1.286M48.7,74.815c-.092-.005-.237-.019-.382-.02-.688,0-1.378.032-2.063-.014a.982.982,0,0,0-.956.433,11.615,11.615,0,0,0-2.308,4.342c-.094.388-.137.788-.21,1.216L48.7,74.815m3.324,2.254a1.093,1.093,0,0,0,1.114-1.122,1.157,1.157,0,0,0-2.314-.042,1.168,1.168,0,0,0,1.2,1.164m5.62-1.143a1.017,1.017,0,0,0-1.04-1.135,1.205,1.205,0,0,0-1.233,1.149,1.191,1.191,0,0,0,1.216,1.13,1.011,1.011,0,0,0,1.057-1.143" transform="translate(-4.136 -42.911)" fill="#6a4d23"/>
                <path id="Path_880887" data-name="Path 880887" d="M71.191,38.293a5.675,5.675,0,1,1-5.559-5.754,5.721,5.721,0,0,1,5.559,5.754m-5.732,3.3a3.371,3.371,0,0,0,3.5-3.213,3.515,3.515,0,0,0-3.28-3.592,3.424,3.424,0,0,0-3.548,3.176c0,2.2,1.247,3.6,3.327,3.63" transform="translate(-47.301 -25.718)" fill="#6a4d23"/>
                <path id="Path_880888" data-name="Path 880888" d="M36.274,317.318q-3.853,0-7.706,0a1.235,1.235,0,0,1-1.237-.607,1,1,0,0,1,.289-1.362,1.813,1.813,0,0,1,.913-.317q7.771-.029,15.543-.012a1.2,1.2,0,0,1,1.3,1.275,1.018,1.018,0,0,1-.674.908,2.537,2.537,0,0,1-.717.111c-2.569.008-5.138,0-7.706,0" transform="translate(-21.485 -248.994)" fill="#6a4d23"/>
                <path id="Path_880889" data-name="Path 880889" d="M16.635,196.479a3.546,3.546,0,0,1,1.685-.839,3.135,3.135,0,0,1,2.682.7,3.181,3.181,0,0,1,1.288,2.566,1.1,1.1,0,0,1-1.052,1.2,1.146,1.146,0,0,1-1.175-1.06,1.178,1.178,0,0,0-.708-1.117,1.14,1.14,0,0,0-1.595.956,1.147,1.147,0,0,1-.923,1.191,1.09,1.09,0,0,1-1.276-.769,2.123,2.123,0,0,1-.054-.361,1.149,1.149,0,0,0-1.85-.882.856.856,0,0,0-.4.665,2.4,2.4,0,0,1-.143.682,1.072,1.072,0,0,1-1.221.669,1.042,1.042,0,0,1-.925-1.088,3.232,3.232,0,0,1,1.193-2.586,3.35,3.35,0,0,1,1.965-.822,3.4,3.4,0,0,1,2.33.752c.055.04.108.084.181.142" transform="translate(-8.667 -154.578)" fill="#6a4d23"/>
                <path id="Path_880890" data-name="Path 880890" d="M60.091,163.862a3.3,3.3,0,0,1,2.722-.856,3.437,3.437,0,0,1,2.744,2.315,5.78,5.78,0,0,1,.179.866,1.126,1.126,0,0,1-.846,1.263,1.088,1.088,0,0,1-1.331-.794,2.319,2.319,0,0,1-.082-.355c-.1-.681-.473-1.058-1.064-1.068a1.165,1.165,0,0,0-1.239,1.053c-.013.077-.027.154-.04.231a1.03,1.03,0,0,1-1.064.966,1.164,1.164,0,0,1-1.138-.931,2.839,2.839,0,0,1-.051-.309,1.043,1.043,0,0,0-1.086-1.022,1.154,1.154,0,0,0-1.164,1.018c-.012.086-.02.173-.032.259a1.076,1.076,0,0,1-1.142.982,1.1,1.1,0,0,1-1.068-1.129,3.316,3.316,0,0,1,1.795-2.949,3.217,3.217,0,0,1,3.711.324c.062.046.128.087.2.135" transform="translate(-42.988 -128.804)" fill="#6a4d23"/>
                <path id="Path_880891" data-name="Path 880891" d="M83.028,295.625H77.545a1.184,1.184,0,0,1-1.169-.524,1.12,1.12,0,0,1,.747-1.694,2.823,2.823,0,0,1,.545-.047q5.405,0,10.81,0a1.264,1.264,0,0,1,1.255.673,1.075,1.075,0,0,1-.856,1.569c-.4.034-.8.015-1.2.016q-2.324,0-4.648,0v.012" transform="translate(-60.237 -231.873)" fill="#6a4d23"/>
                <path id="Path_880892" data-name="Path 880892" d="M5.653,295.629q-2.129,0-4.257,0a2.587,2.587,0,0,1-.57-.044,1.084,1.084,0,0,1-.825-1.1,1.132,1.132,0,0,1,.9-1.073,2.659,2.659,0,0,1,.466-.044q4.309,0,8.619,0a1.345,1.345,0,0,1,1.008.337,1.069,1.069,0,0,1,.3,1.191,1,1,0,0,1-.989.718c-1.219.013-2.437.007-3.656.009H5.653v.009" transform="translate(0 -231.88)" fill="#6a4d23"/>
                <path id="Path_880893" data-name="Path 880893" d="M168.816,295.633h-4.335a1.3,1.3,0,0,1-1-.291,1.055,1.055,0,0,1-.312-1.142,1.133,1.133,0,0,1,.9-.78,2.555,2.555,0,0,1,.493-.043q4.322,0,8.645,0a1.137,1.137,0,0,1,1.231.969,1.049,1.049,0,0,1-.955,1.269c-.442.031-.887.014-1.331.014q-1.672,0-3.343,0Z" transform="translate(-128.928 -231.886)" fill="#6a4d23"/>
                <path id="Path_880894" data-name="Path 880894" d="M139.377,317.311c-.7,0-1.392.006-2.087,0a1.211,1.211,0,0,1-1.168-.59,1.055,1.055,0,0,1,.259-1.377,1.441,1.441,0,0,1,.914-.329c1.374,0,2.748-.009,4.123,0a1.3,1.3,0,0,1,1.173.611c.484.8-.065,1.66-1.075,1.682-.713.015-1.426,0-2.139,0" transform="translate(-107.476 -248.988)" fill="#6a4d23"/>
                <path id="Path_880895" data-name="Path 880895" d="M83.928,100.013c0,.348,0,.7,0,1.043a1.218,1.218,0,0,1-.715,1.141,1.124,1.124,0,0,1-1.517-.846c-.021-.869-.036-1.739-.005-2.607a1.09,1.09,0,0,1,1.06-1,1.2,1.2,0,0,1,1.148.988c.037.423.008.851.008,1.277h.022" transform="translate(-64.555 -77.261)" fill="#6a4d23"/>
                <path id="Path_880896" data-name="Path 880896" d="M81.656,2.228c0-.4-.023-.8.005-1.2A1.047,1.047,0,0,1,82.756,0,1.112,1.112,0,0,1,83.878,1.02c.03.833.023,1.668-.014,2.5a1.159,1.159,0,0,1-1.1,1A1.112,1.112,0,0,1,81.669,3.5c-.03-.424-.006-.851-.006-1.277h-.007" transform="translate(-64.535 0)" fill="#6a4d23"/>
                <path id="Path_880897" data-name="Path 880897" d="M116.083,87.594a1.169,1.169,0,0,1-.672,1.108,1,1,0,0,1-1.171-.146q-.883-.852-1.737-1.733a.973.973,0,0,1-.256-1.08,1.191,1.191,0,0,1,.973-.776.949.949,0,0,1,.812.286c.606.587,1.2,1.183,1.777,1.8a1.863,1.863,0,0,1,.273.541" transform="translate(-88.667 -67.151)" fill="#6a4d23"/>
                <path id="Path_880898" data-name="Path 880898" d="M44.27,88.918a1.108,1.108,0,0,1-1.013-.679,1.044,1.044,0,0,1,.2-1.229c.54-.542,1.071-1.092,1.618-1.626a1.1,1.1,0,0,1,1.91.559.991.991,0,0,1-.289.934c-.582.609-1.178,1.206-1.8,1.777a2.021,2.021,0,0,1-.629.263" transform="translate(-34.101 -67.2)" fill="#6a4d23"/>
                <path id="Path_880899" data-name="Path 880899" d="M43.286,16.93a1.054,1.054,0,0,1,.66-1.039.928.928,0,0,1,1.112.167c.586.557,1.167,1.119,1.722,1.707a1.111,1.111,0,0,1-.827,1.889,1.271,1.271,0,0,1-.692-.306c-.583-.534-1.129-1.107-1.687-1.668a.949.949,0,0,1-.288-.748" transform="translate(-34.212 -12.47)" fill="#6a4d23"/>
                <path id="Path_880900" data-name="Path 880900" d="M127.252,56.436c-.365,0-.73.009-1.095,0a1.1,1.1,0,0,1-1.1-1.059,1.132,1.132,0,0,1,1.025-1.149c.841-.038,1.686-.035,2.527-.008a1.068,1.068,0,0,1,.944,1.1,1,1,0,0,1-.919,1.1c-.457.038-.919.008-1.379.008v.013" transform="translate(-98.843 -42.838)" fill="#6a4d23"/>
                <path id="Path_880901" data-name="Path 880901" d="M29.364,56.435c-.374,0-.748.012-1.121,0a1.115,1.115,0,0,1-1.1-1.038,1.148,1.148,0,0,1,.989-1.16c.867-.045,1.738-.039,2.605-.008a1.151,1.151,0,0,1,.937,1.1,1.094,1.094,0,0,1-.9,1.085,5.62,5.62,0,0,1-.7.02c-.235,0-.469,0-.7,0" transform="translate(-21.451 -42.841)" fill="#6a4d23"/>
                <path id="Path_880902" data-name="Path 880902" d="M115,15.826a1.208,1.208,0,0,1,1.147.7.855.855,0,0,1-.1,1.025c-.605.645-1.229,1.276-1.876,1.879a.922.922,0,0,1-1.163.093,1.055,1.055,0,0,1-.346-1.633c.591-.624,1.2-1.234,1.825-1.822a1.591,1.591,0,0,1,.513-.246" transform="translate(-88.85 -12.509)" fill="#6a4d23"/>
              </g>
            </g>
          </g>
        </g>
      </g>
    </g>
  </g>
</svg>
