<svg xmlns="http://www.w3.org/2000/svg" xmlns:xlink="http://www.w3.org/1999/xlink" width="129" height="128" viewBox="0 0 129 128">
  <defs>
    <clipPath id="clip-path">
      <rect id="Rectangle_400938" data-name="Rectangle 400938" width="120" height="120" fill="none"/>
    </clipPath>
    <clipPath id="clip-path-2">
      <rect id="Rectangle_400938-2" data-name="Rectangle 400938" width="113" height="113" transform="translate(0.211 0.211)" fill="none"/>
    </clipPath>
    <clipPath id="clip-path-3">
      <rect id="Rectangle_401073" data-name="Rectangle 401073" width="86.443" height="38.93" fill="#7d3a1b"/>
    </clipPath>
    <clipPath id="clip-path-4">
      <rect id="Rectangle_402258" data-name="Rectangle 402258" width="60.2" height="62.03" fill="none"/>
    </clipPath>
  </defs>
  <g id="Group_1101306" data-name="Group 1101306" transform="translate(-390 -4726)">
    <g id="Grupo_108927" data-name="Grupo 108927" transform="translate(0 259)">
      <path id="Rectángulo_36179" data-name="Rectángulo 36179" d="M0,0H129V128H0Z" transform="translate(390 4467)" fill="#feebcf"/>
    </g>
    <g id="Group_1100411" data-name="Group 1100411" transform="translate(132.789 -550.211)">
      <g id="Group_1099379" data-name="Group 1099379" transform="translate(265 5284)">
        <rect id="Rectangle_401103" data-name="Rectangle 401103" width="113" height="113" transform="translate(0.211 0.211)" fill="none"/>
        <g id="Group_1099348" data-name="Group 1099348">
          <g id="Group_1099282" data-name="Group 1099282">
            <g id="Group_1099281" data-name="Group 1099281" clip-path="url(#clip-path-3)">
              <path id="Path_873375" data-name="Path 873375" d="M70.12,8.532c-3.88,0-5.887-1.9-7.658-3.581C60.723,3.3,59.226,1.882,56.1,1.882S51.467,3.3,49.728,4.95c-1.771,1.679-3.775,3.581-7.658,3.581s-5.886-1.9-7.658-3.581C32.674,3.3,31.177,1.882,28.046,1.882S23.418,3.3,21.682,4.95C19.911,6.629,17.9,8.532,14.024,8.532S8.135,6.629,6.364,4.95C4.628,3.3,3.131,1.882,0,1.882V0C3.88,0,5.887,1.906,7.658,3.581,9.4,5.23,10.893,6.65,14.024,6.65s4.628-1.419,6.364-3.066C22.157,1.906,24.166,0,28.046,0s5.89,1.906,7.658,3.581C37.442,5.23,38.939,6.65,42.07,6.65S46.7,5.23,48.437,3.581C50.205,1.906,52.215,0,56.1,0s5.89,1.906,7.658,3.581C65.491,5.23,66.988,6.65,70.12,6.65s4.628-1.419,6.367-3.069C78.255,1.906,80.261,0,84.144,0V1.882c-3.131,0-4.628,1.422-6.367,3.069C76.006,6.629,74,8.532,70.12,8.532" transform="translate(2.299 30.399)" fill="#7d3a1b"/>
              <path id="Path_873376" data-name="Path 873376" d="M70.12,8.532c-3.88,0-5.889-1.9-7.658-3.584C60.723,3.3,59.226,1.882,56.1,1.882S51.467,3.3,49.728,4.947c-1.768,1.682-3.775,3.584-7.658,3.584s-5.889-1.9-7.658-3.584C32.674,3.3,31.177,1.882,28.046,1.882S23.418,3.3,21.682,4.947C19.911,6.629,17.9,8.532,14.025,8.532s-5.889-1.9-7.661-3.584C4.628,3.3,3.131,1.882,0,1.882V0C3.88,0,5.889,1.9,7.658,3.581,9.4,5.23,10.893,6.65,14.025,6.65s4.628-1.419,6.364-3.069C22.157,1.9,24.166,0,28.046,0s5.889,1.9,7.661,3.581C37.442,5.23,38.939,6.65,42.071,6.65S46.7,5.23,48.437,3.581C50.206,1.9,52.215,0,56.1,0s5.89,1.9,7.658,3.581C65.491,5.23,66.988,6.65,70.12,6.65s4.628-1.419,6.367-3.069C78.257,1.9,80.264,0,84.147,0V1.882c-3.131,0-4.631,1.422-6.37,3.066C76.006,6.629,74,8.532,70.12,8.532" transform="translate(1.533 20.266)" fill="#7d3a1b"/>
              <path id="Path_873377" data-name="Path 873377" d="M70.119,8.532c-3.88,0-5.889-1.9-7.658-3.584C60.723,3.3,59.226,1.882,56.1,1.882S51.467,3.3,49.728,4.947C47.96,6.629,45.95,8.532,42.071,8.532s-5.89-1.9-7.658-3.584C32.674,3.3,31.177,1.882,28.046,1.882S23.418,3.3,21.682,4.947C19.911,6.629,17.9,8.532,14.025,8.532s-5.89-1.9-7.661-3.584C4.628,3.3,3.131,1.882,0,1.882V0C3.88,0,5.889,1.9,7.658,3.581,9.393,5.23,10.893,6.65,14.025,6.65s4.628-1.419,6.364-3.069C22.156,1.9,24.166,0,28.046,0s5.89,1.9,7.661,3.581C37.442,5.23,38.939,6.65,42.071,6.65S46.7,5.23,48.437,3.581C50.205,1.9,52.215,0,56.1,0s5.889,1.9,7.658,3.581C65.491,5.23,66.988,6.65,70.119,6.65s4.628-1.419,6.367-3.069C78.257,1.9,80.261,0,84.147,0V1.882c-3.131,0-4.631,1.422-6.37,3.066C76.006,6.629,74,8.532,70.119,8.532" transform="translate(0.766 10.133)" fill="#7d3a1b"/>
              <path id="Path_873378" data-name="Path 873378" d="M70.12,8.529c-3.88,0-5.887-1.9-7.658-3.581C60.723,3.3,59.226,1.882,56.095,1.882S51.467,3.3,49.731,4.947C47.96,6.626,45.953,8.529,42.07,8.529s-5.887-1.9-7.658-3.581C32.674,3.3,31.177,1.882,28.046,1.882S23.418,3.3,21.682,4.944C19.914,6.626,17.9,8.529,14.024,8.529s-5.89-1.9-7.661-3.581C4.628,3.3,3.131,1.882,0,1.882V0C3.88,0,5.89,1.9,7.658,3.581,9.4,5.228,10.893,6.647,14.024,6.647s4.628-1.419,6.364-3.066C22.159,1.9,24.166,0,28.046,0s5.887,1.9,7.661,3.581c1.736,1.646,3.233,3.066,6.364,3.066S46.7,5.228,48.437,3.581C50.208,1.9,52.215,0,56.095,0s5.887,1.9,7.658,3.581c1.739,1.646,3.236,3.066,6.367,3.066s4.628-1.419,6.367-3.066C78.257,1.9,80.264,0,84.147,0V1.882c-3.134,0-4.631,1.419-6.37,3.066C76.006,6.626,74,8.529,70.12,8.529" transform="translate(0 0.003)" fill="#7d3a1b"/>
            </g>
          </g>
        </g>
        <path id="Path_873425" data-name="Path 873425" d="M47.337,0A47.337,47.337,0,1,1,0,47.337,47.337,47.337,0,0,1,47.337,0Z" transform="translate(14.061 16.873)" fill="#7d3a1b"/>
        <circle id="Ellipse_11503" data-name="Ellipse 11503" cx="49.5" cy="49.5" r="49.5" transform="translate(7.211 7.211)" fill="#fff"/>
      </g>
      <g id="Group_1099380" data-name="Group 1099380" transform="translate(289.372 5307.434)">
        <rect id="Rectangle_401104" data-name="Rectangle 401104" width="64" height="65" transform="translate(-0.161 -0.223)" fill="none"/>
        <g id="Group_1100430" data-name="Group 1100430" transform="translate(1.839 0.777)">
          <g id="Group_1100429" data-name="Group 1100429" clip-path="url(#clip-path-4)">
            <path id="Path_880003" data-name="Path 880003" d="M188.366,182.624c.187,1.15.367,2.263.549,3.377a.333.333,0,0,0,.024.086c.24.512,2.921,1.267,3.4.929.752-.537,1.5-1.084,2.21-1.676a.692.692,0,0,1,1.092.034,21.459,21.459,0,0,0,1.745,1.718c.583.469.542.844.111,1.367-.626.759-1.191,1.569-1.809,2.335a.469.469,0,0,0-.071.623,4.847,4.847,0,0,1,.618,1.469c.174,1.172,1,1.279,1.9,1.3a19.969,19.969,0,0,1,2.3.333c.428.06.471.257.467.595a17.3,17.3,0,0,0,.019,2.449c.127.968-.457,1.178-1.143,1.161a9.834,9.834,0,0,0-2.743.377c-.163.042-.415-.049-.453.186-.145.9-.728,1.65-.9,2.517-.119.583.557.937.8,1.442a4.168,4.168,0,0,0,.889,1.229c.734.671.551,1.181-.143,1.7a5.132,5.132,0,0,0-.516.511c-1.508,1.508-1.567,1.576-3.149.2a2.766,2.766,0,0,0-3.593-.522,2.023,2.023,0,0,0-1.23,1.74c-.046.325-.11.653-.144.969-.063.6.034,1.357-.344,1.71-.433.4-1.213.133-1.841.139-2,.018-2.22.018-2.32-2.023a2.787,2.787,0,0,0-2.176-2.894c-.655-.225-1.114-.354-1.691.139-.678.579-1.485,1-2.165,1.582-.4.342-.6.224-.887-.08-.607-.633-1.216-1.268-1.869-1.852a.685.685,0,0,1-.081-1.076c.558-.74,1.109-1.486,1.679-2.217a.969.969,0,0,0,.1-1.288,3.933,3.933,0,0,1-.513-1.121c-.168-.563-.356-1.1-1.249-1.046-.771.044-1.562-.311-2.378-.338a.8.8,0,0,1-.863-.986,13.79,13.79,0,0,0,0-2.358c-.066-.752.327-.955.939-.974.754-.023,1.472-.261,2.211-.35a1.333,1.333,0,0,0,1.3-1.074,1.031,1.031,0,0,1,.131-.422c1.057-1.21.3-2.116-.457-3.069-1.341-1.68-1.323-1.695.145-3.213,1.281-1.325,1.272-1.313,2.82-.183.433.316.881.61,1.31.934a.922.922,0,0,0,1.237.063,2.638,2.638,0,0,1,1.292-.574c.941-.07,1.026-.76,1.044-1.374.027-.882.352-1.7.395-2.566.021-.418.251-.5.592-.5.969,0,1.937,0,2.906,0,.42,0,.738.067.51.566m-2.018,8.307a5.483,5.483,0,0,0-5.726,5.636,5.76,5.76,0,1,0,11.519-.139,5.442,5.442,0,0,0-5.793-5.5" transform="translate(-140.729 -148.976)" fill="#7a4f00"/>
            <path id="Path_880004" data-name="Path 880004" d="M36.71,60.635c-1.027.015-2.054.024-3.081.046-.361.008-.557-.1-.574-.508-.14-3.368-1.521-6.306-3.135-9.182a8.892,8.892,0,0,1-.546-7.477,10.172,10.172,0,0,1,7.686-7.052,10,10,0,0,1,3.293-.19,9.11,9.11,0,0,1,5.5,2.243,11.409,11.409,0,0,1,3.466,5.306c.981,3.336.184,6.186-1.5,8.974a15.68,15.68,0,0,0-2.2,7.235c-.031.5-.166.708-.685.685-1-.043-1.994-.044-2.99-.063q.007-4.76.015-9.521c0-1.154,0-1.154,1.191-1.159,2.379-.01,3.552-1.188,3.533-3.548A2.859,2.859,0,0,0,44.457,43.7a3.284,3.284,0,0,0-3.378.954,4,4,0,0,0-.761,2.815c.016.279.147.722-.207.8a3.524,3.524,0,0,1-1.521.015c-.458-.107-.233-.611-.261-.943-.168-2-.747-3.113-2.515-3.6a2.538,2.538,0,0,0-2.565.392c-.83.8-1.663,1.672-1.342,3.036a3.423,3.423,0,0,0,3.576,2.812c1.211.005,1.21.005,1.212,1.231q.007,4.715.016,9.43" transform="translate(-23.569 -29.637)" fill="#ffe177"/>
            <path id="Path_880005" data-name="Path 880005" d="M191.816,78.492a12.976,12.976,0,0,0-2.173-4.4,9.9,9.9,0,0,0-6.138-3.539,21.927,21.927,0,0,0-4.355-.538c-.544.006-.759.14-.732.71.041.871.011,1.746.011,2.633-.5.061-.751-.328-1.075-.565q-3.683-2.7-7.362-5.4c-.917-.677-.916-.7-.013-1.456q3.931-3.3,7.874-6.59c.11-.092.2-.253.378-.184.222.087.159.3.161.47.009.7.027,1.393,0,2.088-.02.482.184.6.637.634a22.4,22.4,0,0,1,7.242,1.478c3.6,1.573,6.056,4.17,6.734,8.061a9.007,9.007,0,0,1-1.184,6.6" transform="translate(-138.537 -48.395)" fill="#fe646f"/>
            <path id="Path_880006" data-name="Path 880006" d="M37.048,241.971c.593.514.651,1.249.931,1.851a9.218,9.218,0,0,0,5.381,4.941,23.021,23.021,0,0,0,5.456,1c.655.075.948-.187.911-.873-.04-.753-.009-1.509-.009-2.22a.307.307,0,0,1,.451.007c2.556,1.874,5.1,3.765,7.677,5.608.472.337.465.516.065.853-1.236,1.043-2.451,2.111-3.692,3.147-1.446,1.206-2.912,2.389-4.438,3.637a8.137,8.137,0,0,1-.09-2.342c.011-.568-.174-.7-.723-.711a16,16,0,0,1-7.9-2.019,9.906,9.906,0,0,1-5.169-9.818,7.979,7.979,0,0,1,1.148-3.055" transform="translate(-29.32 -198.002)" fill="#6cf5c2"/>
            <path id="Path_880007" data-name="Path 880007" d="M50.366,93.7q-.008-4.715-.016-9.43c0-1.225,0-1.225-1.212-1.231a3.423,3.423,0,0,1-3.576-2.812c-.321-1.363.512-2.234,1.342-3.035A2.537,2.537,0,0,1,49.47,76.8c1.768.489,2.348,1.6,2.516,3.6.028.331-.2.835.261.943a3.524,3.524,0,0,0,1.521-.015c.354-.079.223-.521.207-.8a4,4,0,0,1,.761-2.815,3.284,3.284,0,0,1,3.378-.954,2.859,2.859,0,0,1,2.222,2.731c.019,2.36-1.154,3.539-3.532,3.548-1.19,0-1.19,0-1.191,1.159q-.007,4.76-.015,9.521L54,93.707c0-3.261-.039-6.522.006-9.783.012-.845-.358-.9-1.027-.908-.686-.006-1.027.09-1.016.917.043,3.26.009,6.522,0,9.782l-1.6-.02M55.611,80.4c-.191.784.181,1.154,1.113,1.006.236-.038.485.013.723-.018a1.676,1.676,0,0,0,1.427-1.709,1.4,1.4,0,0,0-1.556-1.367c-1.292-.009-1.7.462-1.707,2.088m-5.261,0c0-1.553-.45-2.082-1.645-2.086a1.473,1.473,0,0,0-1.613,1.443c-.011,1,.836,1.585,2.152,1.666.941.058,1.292-.251,1.106-1.023" transform="translate(-37.226 -62.698)" fill="#ffb937"/>
            <path id="Path_880008" data-name="Path 880008" d="M81.087,122.515c.005-3.261.039-6.522,0-9.783-.011-.827.33-.923,1.016-.917.669.006,1.039.064,1.027.908-.045,3.26-.011,6.522-.006,9.783l-2.033.009" transform="translate(-66.349 -91.497)" fill="#ffe177"/>
            <path id="Path_880009" data-name="Path 880009" d="M124.094,12.954c.736-.016,1.092.457.781,1.238a7.431,7.431,0,0,1-1.324,2.233c-.279.312-.615.5-1.021.2-.382-.287-.71-.678-.472-1.146.392-.771.884-1.492,1.352-2.223a.679.679,0,0,1,.684-.3" transform="translate(-99.813 -10.594)" fill="#ffe177"/>
            <path id="Path_880010" data-name="Path 880010" d="M35.149,13.9c-.018-.594.141-.929.543-1.013.369-.076.8-.156,1.058.27.418.7.853,1.384,1.217,2.108a.877.877,0,0,1-.426,1.219.718.718,0,0,1-1.127-.316A10.688,10.688,0,0,1,35.149,13.9" transform="translate(-28.761 -10.497)" fill="#ffe177"/>
            <path id="Path_880011" data-name="Path 880011" d="M2.757,49.724a12.679,12.679,0,0,1-2.62-1.551c-.218-.166-.154-.572.037-.842.239-.337.557-.639.985-.493A8.55,8.55,0,0,1,3.65,48.283a.8.8,0,0,1,.129,1.011c-.16.323-.441.49-1.022.431" transform="translate(0 -38.297)" fill="#ffe177"/>
            <path id="Path_880012" data-name="Path 880012" d="M83.849,2.037a9.959,9.959,0,0,1-.007,1.086.87.87,0,0,1-1.015.883c-.673-.021-.805-.389-.8-.941.008-.694.006-1.388,0-2.083,0-.56.214-.962.815-.982a.938.938,0,0,1,1,.95,8.858,8.858,0,0,1,.008,1.086h0" transform="translate(-67.122 -0.001)" fill="#ffe177"/>
            <path id="Path_880013" data-name="Path 880013" d="M153,49.7a.8.8,0,0,1-.864-.458.843.843,0,0,1,.171-1,9.528,9.528,0,0,1,2.39-1.425.789.789,0,0,1,.964.311.711.711,0,0,1,.1.919A7.115,7.115,0,0,1,153,49.7" transform="translate(-124.42 -38.259)" fill="#ffe177"/>
            <path id="Path_880014" data-name="Path 880014" d="M100.958,88.025c0-1.626.415-2.1,1.707-2.088a1.4,1.4,0,0,1,1.556,1.367,1.676,1.676,0,0,1-1.428,1.709c-.238.031-.487-.02-.722.018-.931.149-1.3-.222-1.113-1.005" transform="translate(-82.573 -70.321)" fill="#ffe177"/>
            <path id="Path_880015" data-name="Path 880015" d="M57.552,88.023c.186.772-.166,1.081-1.106,1.023-1.316-.081-2.163-.664-2.152-1.666a1.473,1.473,0,0,1,1.613-1.443c1.195,0,1.642.533,1.645,2.086" transform="translate(-44.428 -70.321)" fill="#ffe177"/>
            <path id="Path_880016" data-name="Path 880016" d="M59.97,174.616H48.987a1.723,1.723,0,1,1,0-3.446H59.97a1.723,1.723,0,0,1,0,3.446" transform="translate(-38.676 -140.066)" fill="#dee4f0"/>
            <path id="Path_880017" data-name="Path 880017" d="M66.383,192.394H59.061a1.723,1.723,0,1,1,0-3.446h7.322a1.723,1.723,0,0,1,0,3.446" transform="translate(-46.919 -154.614)" fill="#dee4f0"/>
            <path id="Path_880018" data-name="Path 880018" d="M73.281,210.764H69.728a1.723,1.723,0,0,1,0-3.446h3.554a1.723,1.723,0,0,1,0,3.446" transform="translate(-55.648 -169.646)" fill="#b0c0d2"/>
          </g>
        </g>
      </g>
    </g>
  </g>
</svg>
