<svg xmlns="http://www.w3.org/2000/svg" xmlns:xlink="http://www.w3.org/1999/xlink" width="129" height="128" viewBox="0 0 129 128">
  <defs>
    <clipPath id="clip-path">
      <rect id="Rectangle_400938" data-name="Rectangle 400938" width="120" height="120" fill="none"/>
    </clipPath>
    <clipPath id="clip-path-2">
      <rect id="Rectangle_400938-2" data-name="Rectangle 400938" width="113" height="113" transform="translate(0.211 0.211)" fill="none"/>
    </clipPath>
    <clipPath id="clip-path-3">
      <rect id="Rectangle_401073" data-name="Rectangle 401073" width="86.443" height="38.93" fill="#7d3a1b"/>
    </clipPath>
    <clipPath id="clip-path-4">
      <rect id="Rectangle_402256" data-name="Rectangle 402256" width="61.931" height="62.935" fill="none"/>
    </clipPath>
  </defs>
  <g id="Group_1101304" data-name="Group 1101304" transform="translate(-390 -4376)">
    <g id="Grupo_108927" data-name="Grupo 108927" transform="translate(0 -91)">
      <path id="Rectángulo_36179" data-name="Rectángulo 36179" d="M0,0H129V128H0Z" transform="translate(390 4467)" fill="#feebcf"/>
    </g>
    <g id="Group_1100407" data-name="Group 1100407" transform="translate(132.789 -900.211)">
      <g id="Group_1099379" data-name="Group 1099379" transform="translate(265 5284)">
        <rect id="Rectangle_401103" data-name="Rectangle 401103" width="113" height="113" transform="translate(0.211 0.211)" fill="none"/>
        <g id="Group_1099348" data-name="Group 1099348">
          <g id="Group_1099282" data-name="Group 1099282">
            <g id="Group_1099281" data-name="Group 1099281" clip-path="url(#clip-path-3)">
              <path id="Path_873375" data-name="Path 873375" d="M70.12,8.532c-3.88,0-5.887-1.9-7.658-3.581C60.723,3.3,59.226,1.882,56.1,1.882S51.467,3.3,49.728,4.95c-1.771,1.679-3.775,3.581-7.658,3.581s-5.886-1.9-7.658-3.581C32.674,3.3,31.177,1.882,28.046,1.882S23.418,3.3,21.682,4.95C19.911,6.629,17.9,8.532,14.024,8.532S8.135,6.629,6.364,4.95C4.628,3.3,3.131,1.882,0,1.882V0C3.88,0,5.887,1.906,7.658,3.581,9.4,5.23,10.893,6.65,14.024,6.65s4.628-1.419,6.364-3.066C22.157,1.906,24.166,0,28.046,0s5.89,1.906,7.658,3.581C37.442,5.23,38.939,6.65,42.07,6.65S46.7,5.23,48.437,3.581C50.205,1.906,52.215,0,56.1,0s5.89,1.906,7.658,3.581C65.491,5.23,66.988,6.65,70.12,6.65s4.628-1.419,6.367-3.069C78.255,1.906,80.261,0,84.144,0V1.882c-3.131,0-4.628,1.422-6.367,3.069C76.006,6.629,74,8.532,70.12,8.532" transform="translate(2.299 30.399)" fill="#7d3a1b"/>
              <path id="Path_873376" data-name="Path 873376" d="M70.12,8.532c-3.88,0-5.889-1.9-7.658-3.584C60.723,3.3,59.226,1.882,56.1,1.882S51.467,3.3,49.728,4.947c-1.768,1.682-3.775,3.584-7.658,3.584s-5.889-1.9-7.658-3.584C32.674,3.3,31.177,1.882,28.046,1.882S23.418,3.3,21.682,4.947C19.911,6.629,17.9,8.532,14.025,8.532s-5.889-1.9-7.661-3.584C4.628,3.3,3.131,1.882,0,1.882V0C3.88,0,5.889,1.9,7.658,3.581,9.4,5.23,10.893,6.65,14.025,6.65s4.628-1.419,6.364-3.069C22.157,1.9,24.166,0,28.046,0s5.889,1.9,7.661,3.581C37.442,5.23,38.939,6.65,42.071,6.65S46.7,5.23,48.437,3.581C50.206,1.9,52.215,0,56.1,0s5.89,1.9,7.658,3.581C65.491,5.23,66.988,6.65,70.12,6.65s4.628-1.419,6.367-3.069C78.257,1.9,80.264,0,84.147,0V1.882c-3.131,0-4.631,1.422-6.37,3.066C76.006,6.629,74,8.532,70.12,8.532" transform="translate(1.533 20.266)" fill="#7d3a1b"/>
              <path id="Path_873377" data-name="Path 873377" d="M70.119,8.532c-3.88,0-5.889-1.9-7.658-3.584C60.723,3.3,59.226,1.882,56.1,1.882S51.467,3.3,49.728,4.947C47.96,6.629,45.95,8.532,42.071,8.532s-5.89-1.9-7.658-3.584C32.674,3.3,31.177,1.882,28.046,1.882S23.418,3.3,21.682,4.947C19.911,6.629,17.9,8.532,14.025,8.532s-5.89-1.9-7.661-3.584C4.628,3.3,3.131,1.882,0,1.882V0C3.88,0,5.889,1.9,7.658,3.581,9.393,5.23,10.893,6.65,14.025,6.65s4.628-1.419,6.364-3.069C22.156,1.9,24.166,0,28.046,0s5.89,1.9,7.661,3.581C37.442,5.23,38.939,6.65,42.071,6.65S46.7,5.23,48.437,3.581C50.205,1.9,52.215,0,56.1,0s5.889,1.9,7.658,3.581C65.491,5.23,66.988,6.65,70.119,6.65s4.628-1.419,6.367-3.069C78.257,1.9,80.261,0,84.147,0V1.882c-3.131,0-4.631,1.422-6.37,3.066C76.006,6.629,74,8.532,70.119,8.532" transform="translate(0.766 10.133)" fill="#7d3a1b"/>
              <path id="Path_873378" data-name="Path 873378" d="M70.12,8.529c-3.88,0-5.887-1.9-7.658-3.581C60.723,3.3,59.226,1.882,56.095,1.882S51.467,3.3,49.731,4.947C47.96,6.626,45.953,8.529,42.07,8.529s-5.887-1.9-7.658-3.581C32.674,3.3,31.177,1.882,28.046,1.882S23.418,3.3,21.682,4.944C19.914,6.626,17.9,8.529,14.024,8.529s-5.89-1.9-7.661-3.581C4.628,3.3,3.131,1.882,0,1.882V0C3.88,0,5.89,1.9,7.658,3.581,9.4,5.228,10.893,6.647,14.024,6.647s4.628-1.419,6.364-3.066C22.159,1.9,24.166,0,28.046,0s5.887,1.9,7.661,3.581c1.736,1.646,3.233,3.066,6.364,3.066S46.7,5.228,48.437,3.581C50.208,1.9,52.215,0,56.095,0s5.887,1.9,7.658,3.581c1.739,1.646,3.236,3.066,6.367,3.066s4.628-1.419,6.367-3.066C78.257,1.9,80.264,0,84.147,0V1.882c-3.134,0-4.631,1.419-6.37,3.066C76.006,6.626,74,8.529,70.12,8.529" transform="translate(0 0.003)" fill="#7d3a1b"/>
            </g>
          </g>
        </g>
        <path id="Path_873425" data-name="Path 873425" d="M47.337,0A47.337,47.337,0,1,1,0,47.337,47.337,47.337,0,0,1,47.337,0Z" transform="translate(14.061 16.873)" fill="#7d3a1b"/>
        <circle id="Ellipse_11503" data-name="Ellipse 11503" cx="49.5" cy="49.5" r="49.5" transform="translate(7.211 7.211)" fill="#fff"/>
      </g>
      <g id="Group_1099380" data-name="Group 1099380" transform="translate(289.372 5307.434)">
        <rect id="Rectangle_401104" data-name="Rectangle 401104" width="64" height="65" transform="translate(-0.161 -0.223)" fill="none"/>
        <g id="Group_1100426" data-name="Group 1100426" transform="translate(0.839 0.277)">
          <g id="Group_1100425" data-name="Group 1100425" clip-path="url(#clip-path-4)">
            <path id="Path_879948" data-name="Path 879948" d="M36.418,149.974a4.426,4.426,0,0,1-4.505-4.755,7.916,7.916,0,0,0-.165-3.448c.366-.311.188-.731.189-1.1.012-7.475.07-14.952-.026-22.426a4.511,4.511,0,0,1,4.613-4.629c1.332.029,2.665,0,4-.008.006,1.849.064,3.7,0,5.545-.033.915.45.892,1.08.88.6-.011,1.14.092,1.106-.856-.067-1.846-.01-3.7,0-5.545H46.81c.006,1.849.063,3.7,0,5.545-.034.95.508.843,1.107.855.633.013,1.111.029,1.078-.883-.066-1.846-.008-3.7,0-5.545,1.366.005,2.736-.051,4.1.032,1.729.105,3.26.682,3.952,2.448a7.732,7.732,0,0,1,.524,2.813q.009,7.025.03,14.05c-1.254,2.634-2.548,5.25-3.747,7.909-.721,1.6-.481,2.262,1.034,3.151.848.5,1.782.851,2.677,1.27a8.074,8.074,0,0,1-.631,2.474,4.129,4.129,0,0,1-4.029,2.219,2.961,2.961,0,0,0-1.6.15c-.114-.22-.325-.176-.509-.175q-4.848.011-9.7.03l-3.074-.008h-1.6m9.375-15.629c0-3.746-.032-7.492.023-11.238.013-.892-.4-.911-1.054-.9-.632.008-1.085-.036-1.072.884.055,3.973.024,7.948.024,11.922,0,3.616,0,7.232.007,10.847,0,.3-.161.672.21.883a1.228,1.228,0,0,0,1.861-1.06q0-5.668,0-11.336m4.372.157c0,3.747.008,7.495-.008,11.242,0,.644-.019,1.108.89,1.072.776-.031,1.064-.185,1.06-1.029q-.048-11.291,0-22.582c0-.734-.148-1.037-.961-1.016-.736.02-1.006.169-1,.973.045,3.78.02,7.56.02,11.34m-12.744,0c0,3.775-.005,7.551.01,11.326,0,.318-.2.736.283.93.951.383,1.631-.076,1.631-1.116,0-7.486-.01-14.971.017-22.457,0-.756-.184-1.005-.969-1-.759.008-1,.205-.99.988.04,3.775.018,7.55.018,11.326" transform="translate(-25.521 -91.317)" fill="#7d3a1b"/>
            <path id="Path_879949" data-name="Path 879949" d="M146.529,161.3c-.895-.418-1.828-.772-2.677-1.27-1.514-.889-1.755-1.552-1.034-3.151,1.2-2.659,2.493-5.275,3.747-7.909,1.309-2.686,2.611-5.375,3.929-8.057,1.212-2.467,2.3-5,3.654-7.392a2.351,2.351,0,0,0,1.563,2.527c3.661,1.75,7.309,3.524,10.967,5.28,2.6,1.248,5.208,2.482,7.813,3.722-.148.357-.28.723-.448,1.071-1.919,3.991-3.868,7.969-5.752,11.977a12.791,12.791,0,0,0-1.426,3.376l.009-.011-.206.214c-1.132,2.265-2.3,4.512-3.372,6.806-.289.62-.588.55-1.02.344q-1.358-.646-2.7-1.328a2.173,2.173,0,0,0-.949-.178c0-.5-.456-.5-.742-.643q-2.871-1.418-5.767-2.786c-1.858-.878-3.728-1.729-5.593-2.592m12.849.507c0-.423-.28-.5-.505-.6q-4.177-2-8.36-4c-.192-.091-.434-.323-.622-.116a2.872,2.872,0,0,0-.766,1.548c-.057.48.5.541.827.7q3.78,1.822,7.578,3.607c.333.156.747.6,1.031.31a5.951,5.951,0,0,0,.818-1.451M152.983,149.7a6.135,6.135,0,0,0,1.867,4.53c.138.154.29.412.557.26.194-.11.113-.349.124-.535a16.229,16.229,0,0,1,.183-3.383c.386-1.446.356-1.454-1.1-2.029-1.639-.649-1.639-.649-1.635,1.156m6.354,6.3a6.21,6.21,0,0,0,4.482-1.772c.8-.718.762-.859-.155-1.32a7.386,7.386,0,0,1-.959-.481c-.722-.507-1.225-.33-1.69.378a8.761,8.761,0,0,1-1.973,2.008c-.353.278-.972.566-.854.958.145.482.807.122,1.148.228m1.234-12.3c.019-.319-.152-.386-.363-.406a6.548,6.548,0,0,0-5.629,2.039c-.316.33-.3.646.115.867.6.319,1.218.608,1.828.912a.554.554,0,0,0,.764-.21,13.8,13.8,0,0,1,2.959-2.922c.123-.1.238-.2.327-.28m5.128,6.159a6.735,6.735,0,0,0-1.65-4.575c-.2-.223-.388-.638-.746-.5-.312.122-.141.521-.15.795-.028.842,0,1.687-.047,2.528-.038.662-.687,1.413-.33,1.9.368.506,1.241.621,1.849.982.657.39.872-.011,1.031-.5a2.094,2.094,0,0,0,.043-.632m-4.693-2.608c-.1-.213.226-.7-.142-.857-.35-.154-.607.276-.85.521a8.348,8.348,0,0,0-.765.87c-.128.17-.3.448-.043.594a2.68,2.68,0,0,0,1.32.511c.454-.036.412-.642.476-1.043a4.431,4.431,0,0,0,0-.6m-2.79,3.079c-.529.124-.417.636-.477.949-.1.545-.362,1.371.112,1.615.441.226.84-.555,1.191-.942.228-.251.723-.606.437-.947a3.881,3.881,0,0,0-1.263-.674" transform="translate(-114.494 -107.334)" fill="#ededed"/>
            <path id="Path_879950" data-name="Path 879950" d="M135.845,80.571c-1.359,2.394-2.442,4.925-3.654,7.392-1.318,2.681-2.62,5.371-3.929,8.057q-.016-7.025-.03-14.05a7.729,7.729,0,0,0-.524-2.813c-.692-1.766-2.223-2.343-3.952-2.448-1.361-.083-2.731-.026-4.1-.032q0-3.241,0-6.481a4.043,4.043,0,0,0,5.147-.762,6.013,6.013,0,0,1,4.973-1.731,6.881,6.881,0,0,1,4.229,2.061c1.072,1.121,1.673,1.055,2.958.207a3.623,3.623,0,0,1,1.543-.772,2.681,2.681,0,0,1,2.448,1.106,21.517,21.517,0,0,0,11.586,7.032c1.384.294,2.8.771,4.258.317a35.805,35.805,0,0,1,1.307,9.9.836.836,0,0,1-.169.637,5.306,5.306,0,0,1-.548-.2q-6.328-3.054-12.653-6.114c-1.786-.863-3.563-1.748-5.367-2.573-1.759-.8-2.981-.34-3.53,1.266" transform="translate(-96.191 -54.384)" fill="#9ac4fb"/>
            <path id="Path_879951" data-name="Path 879951" d="M154.923,27.559c-1.459.454-2.874-.023-4.258-.317a21.517,21.517,0,0,1-11.587-7.032,2.681,2.681,0,0,0-2.448-1.106,3.623,3.623,0,0,0-1.543.772c-1.285.847-1.886.913-2.958-.207a6.88,6.88,0,0,0-4.229-2.061,6.013,6.013,0,0,0-4.973,1.731,4.043,4.043,0,0,1-5.147.762c-.008-3.675-.03-7.351-.013-11.026a6.391,6.391,0,0,0-.45-2.663,17.851,17.851,0,0,1,3.618-.772,27.6,27.6,0,0,1,6.574-.21,18.961,18.961,0,0,1,5.673.982A18.611,18.611,0,0,0,131.2,7.878c-.593.6-.389.94.182,1.215,2.16,1.042,4.062,2.506,6.136,3.689,1.468.837,2.834,1.874,4.285,2.7,1.716.979,3.41,1.994,5.069,3.058,1.189.763,2.281,1.571,3.751.756a.657.657,0,0,1,.557.022,32.82,32.82,0,0,1,3.744,8.239" transform="translate(-94.309 -4.289)" fill="#359c03"/>
            <path id="Path_879952" data-name="Path 879952" d="M15,48.218c-1.333,0-2.666.037-4,.008a4.511,4.511,0,0,0-4.613,4.629c.1,7.474.038,14.951.026,22.426,0,.364.178.784-.188,1.1A30.842,30.842,0,0,1,1.1,65.886,30.083,30.083,0,0,1,.181,54.543a30.642,30.642,0,0,1,6.9-16.312,29.152,29.152,0,0,1,5.959-5.56,8.311,8.311,0,0,1,.759-.425c.416.36.907.649,1.1,1.213.038.379.109.757.11,1.136q.006,6.811-.007,13.622" transform="translate(-0.001 -25.923)" fill="#9ac4fb"/>
            <path id="Path_879953" data-name="Path 879953" d="M206.613,20.02a.658.658,0,0,0-.557-.022c-1.47.815-2.562.007-3.751-.756-1.658-1.064-3.353-2.079-5.069-3.058-1.451-.828-2.817-1.865-4.285-2.7-2.074-1.183-3.976-2.647-6.136-3.689-.571-.275-.775-.618-.182-1.215a18.624,18.624,0,0,1,1.983-1.467c2-.323,3.612.609,5.175,1.627a1.442,1.442,0,0,0,1.627.061c1.594-.818,3.219-1.577,4.8-2.426.646-.348,1-.114,1.421.334.469.505.075.822-.192,1.17q-1.035,1.352-2.087,2.691c-.416.531-.44.858.251,1.282,1.657,1.018,3.248,2.148,4.835,3.277a1.084,1.084,0,0,0,1.478.014c.594-.452,1.247-.826,1.851-1.266a.761.761,0,0,1,1.169.134c1.856,1.942,1.794,1.334.045,3.144-.634.656-1.283,1.3-1.936,1.935a1.085,1.085,0,0,0-.437.93" transform="translate(-149.742 -4.99)" fill="#ededed"/>
            <path id="Path_879954" data-name="Path 879954" d="M75.792,22.3q.006-6.811.007-13.622c0-.379-.071-.757-.11-1.136a4.388,4.388,0,0,0,0-2.233A4.6,4.6,0,0,1,77.46.79a4.425,4.425,0,0,1,5.923.829c.133.177.2.4.42.5a6.392,6.392,0,0,1,.449,2.663c-.017,3.676.005,7.351.013,11.027q0,3.24,0,6.481c-.006,1.849-.065,3.7,0,5.546.033.912-.445.9-1.078.883-.6-.012-1.141.095-1.107-.855.067-1.846.01-3.7,0-5.545q-.011-4.248-.021-8.5.017-4.9.033-9.8a1.267,1.267,0,0,0-.771-1.314,1.853,1.853,0,0,0-2.156-.422,1.731,1.731,0,0,0-1.22,1.99q.011,2.8.022,5.593,0,6.225,0,12.451c-.005,1.849-.062,3.7,0,5.545.035.948-.5.845-1.106.856-.631.012-1.113.035-1.08-.88.067-1.846.009-3.7,0-5.545" transform="translate(-60.793 0)" fill="#6e6e6e"/>
            <path id="Path_879955" data-name="Path 879955" d="M202.12,126.75c.549-1.605,1.771-2.07,3.53-1.266,1.8.825,3.58,1.71,5.367,2.573q6.327,3.056,12.653,6.114a5.292,5.292,0,0,0,.548.2q-.008.3-.015.6c-.792.993-.946,2.321-1.739,3.314-2.6-1.24-5.212-2.474-7.813-3.722-3.658-1.756-7.306-3.53-10.967-5.28a2.35,2.35,0,0,1-1.563-2.527" transform="translate(-162.466 -100.563)" fill="#636363"/>
            <path id="Path_879956" data-name="Path 879956" d="M144.239,275.159c1.865.863,3.735,1.714,5.593,2.592q2.9,1.368,5.766,2.786c.286.141.744.146.742.643a35.839,35.839,0,0,1-7.66,2.378,26.765,26.765,0,0,1-8.748.341c.461-.608,1.271-.882,1.06-2.031a2.777,2.777,0,0,0-1.414-2.016,4.13,4.13,0,0,0,4.029-2.219,8.074,8.074,0,0,0,.631-2.474" transform="translate(-112.204 -221.193)" fill="#9ac4fb"/>
            <path id="Path_879957" data-name="Path 879957" d="M274.66,178.727c.793-.993.948-2.321,1.739-3.314a37.224,37.224,0,0,1-1.694,7.779,28.914,28.914,0,0,1-6.942,11.326c-.222.231-.485.423-.728.633a12.792,12.792,0,0,1,1.426-3.376c1.884-4.008,3.832-7.985,5.752-11.977.167-.348.3-.714.447-1.071" transform="translate(-214.662 -141.01)" fill="#9ac4fb"/>
            <path id="Path_879958" data-name="Path 879958" d="M79.407,298.973q4.848-.016,9.7-.03c.185,0,.4-.045.509.176a2.1,2.1,0,0,0-.859.713c-.638.982-.255,1.876.115,2.79a29.481,29.481,0,0,1-8.92-3.25,4.477,4.477,0,0,1-.54-.4" transform="translate(-63.833 -240.309)" fill="#9ac4fb"/>
            <path id="Path_879959" data-name="Path 879959" d="M125.771,302.593c-.37-.915-.753-1.808-.115-2.79a2.1,2.1,0,0,1,.859-.713,2.959,2.959,0,0,1,1.6-.15,2.778,2.778,0,0,1,1.414,2.017c.211,1.149-.6,1.423-1.06,2.031-.992.514-1.836.007-2.7-.393" transform="translate(-100.737 -240.28)" fill="#6e6e6e"/>
            <path id="Path_879960" data-name="Path 879960" d="M49.93,299.071h1.6c1.222.867,1.469,1.523,1.222,2.611a2.054,2.054,0,0,1-1.983,1.637c-.994.116-1.558-.65-2-1.416-.49-.842-.039-1.546.456-2.2a4.84,4.84,0,0,1,.705-.633" transform="translate(-39.034 -240.415)" fill="#6e6e6e"/>
            <path id="Path_879961" data-name="Path 879961" d="M71.467,27.046a4.388,4.388,0,0,1,0,2.233c-.188-.564-.68-.854-1.1-1.213.2-.519.91-.488,1.1-1.02" transform="translate(-56.567 -21.742)" fill="#359c03"/>
            <path id="Path_879962" data-name="Path 879962" d="M266.031,276.208l.206-.214-.206.214" transform="translate(-213.855 -221.864)" fill="#ffa488"/>
            <path id="Path_879963" data-name="Path 879963" d="M94.727,169.625q0,5.668,0,11.336a1.228,1.228,0,0,1-1.861,1.06c-.37-.21-.209-.584-.21-.883-.012-3.616-.007-7.232-.007-10.847,0-3.974.031-7.949-.024-11.922-.013-.92.441-.876,1.072-.884.656-.009,1.067.01,1.054.9-.055,3.745-.023,7.492-.023,11.238" transform="translate(-74.456 -126.598)" fill="#ffe7ba"/>
            <path id="Path_879964" data-name="Path 879964" d="M125.566,169.718c0-3.78.025-7.56-.02-11.34-.009-.8.26-.953,1-.973.813-.022.964.281.961,1.015q-.034,11.291,0,22.582c0,.844-.284,1-1.06,1.029-.91.036-.893-.428-.89-1.072.015-3.747.008-7.495.008-11.242" transform="translate(-100.923 -126.533)" fill="#ffe7ba"/>
            <path id="Path_879965" data-name="Path 879965" d="M60.548,169.721c0-3.775.022-7.551-.018-11.326-.008-.782.231-.979.99-.988.785-.009.971.24.969,1-.027,7.486-.015,14.971-.017,22.457,0,1.04-.679,1.5-1.631,1.116-.48-.193-.282-.612-.283-.93-.015-3.775-.01-7.55-.01-11.326" transform="translate(-48.649 -126.536)" fill="#ffe7ba"/>
            <path id="Path_879966" data-name="Path 879966" d="M87.579,62.772q0-6.225,0-12.45c1.623,1.05,2.607,2.761,4.091,3.955q.01,4.248.021,8.5H87.579" transform="translate(-70.402 -40.453)" fill="#9ac4fb"/>
            <path id="Path_879967" data-name="Path 879967" d="M186.805,258.075a5.942,5.942,0,0,1-.818,1.451c-.284.291-.7-.154-1.031-.31q-3.8-1.785-7.578-3.607c-.33-.159-.883-.221-.827-.7a2.875,2.875,0,0,1,.766-1.548c.188-.207.43.024.622.116q4.184,1.989,8.36,4c.226.108.507.18.505.6" transform="translate(-141.922 -203.603)" fill="#636363"/>
            <path id="Path_879968" data-name="Path 879968" d="M196.2,209.654c0-1.806,0-1.806,1.637-1.157,1.452.575,1.482.583,1.1,2.029a16.252,16.252,0,0,0-.183,3.383c-.011.186.07.424-.124.535-.267.152-.419-.106-.557-.26a6.142,6.142,0,0,1-1.869-4.529" transform="translate(-157.714 -167.287)" fill="#636363"/>
            <path id="Path_879969" data-name="Path 879969" d="M223.879,232.287c-.341-.107-1,.254-1.148-.229-.118-.391.5-.679.854-.958a8.757,8.757,0,0,0,1.973-2.008c.465-.708.968-.885,1.69-.378a7.4,7.4,0,0,0,.958.481c.917.461.951.6.155,1.32a6.21,6.21,0,0,1-4.482,1.772" transform="translate(-179.035 -183.625)" fill="#636363"/>
            <path id="Path_879970" data-name="Path 879970" d="M209.475,183.594c-.089.077-.2.184-.327.28a13.789,13.789,0,0,0-2.959,2.922.554.554,0,0,1-.764.21c-.609-.3-1.226-.593-1.828-.912-.417-.221-.431-.537-.115-.867a6.547,6.547,0,0,1,5.629-2.039c.211.02.382.087.363.406" transform="translate(-163.398 -147.229)" fill="#636363"/>
            <path id="Path_879971" data-name="Path 879971" d="M248.661,195.9a2.092,2.092,0,0,1-.043.632c-.159.491-.374.892-1.031.5-.608-.361-1.482-.476-1.849-.982-.357-.491.292-1.242.331-1.9.049-.841.019-1.685.047-2.528.009-.274-.162-.673.15-.794.358-.14.546.276.746.5a6.733,6.733,0,0,1,1.651,4.575" transform="translate(-197.456 -153.379)" fill="#636363"/>
            <path id="Path_879972" data-name="Path 879972" d="M229.222,199.869a4.437,4.437,0,0,1,0,.6c-.064.4-.022,1.007-.476,1.043a2.681,2.681,0,0,1-1.32-.511c-.26-.146-.084-.424.044-.594a8.354,8.354,0,0,1,.765-.87c.243-.244.5-.674.85-.52.368.162.038.645.142.858" transform="translate(-182.71 -159.954)" fill="#636363"/>
            <path id="Path_879973" data-name="Path 879973" d="M220.3,219.217a3.88,3.88,0,0,1,1.263.674c.286.342-.209.7-.437.947-.352.387-.751,1.168-1.191.942-.474-.243-.217-1.069-.112-1.614.06-.312-.052-.824.477-.949" transform="translate(-176.577 -176.223)" fill="#636363"/>
            <path id="Path_879974" data-name="Path 879974" d="M91.58,24.924c-1.484-1.194-2.468-2.9-4.091-3.955q-.011-2.8-.022-5.593c1.039-.707,2.3-.939,3.375-1.569a1.267,1.267,0,0,1,.771,1.314q-.014,4.9-.033,9.8" transform="translate(-70.312 -11.1)" fill="#359c03"/>
          </g>
        </g>
      </g>
    </g>
  </g>
</svg>
