<svg xmlns="http://www.w3.org/2000/svg" xmlns:xlink="http://www.w3.org/1999/xlink" width="121" height="121" viewBox="0 0 121 121">
  <defs>
    <clipPath id="clip-path">
      <rect id="Rectangle_400938" data-name="Rectangle 400938" width="121" height="121" transform="translate(0 0)" fill="none"/>
    </clipPath>
    <clipPath id="clip-path-2">
      <rect id="Rectangle_401073" data-name="Rectangle 401073" width="92.219" height="41.532" fill="#efb499"/>
    </clipPath>
    <clipPath id="clip-path-3">
      <rect id="Rectangle_402268" data-name="Rectangle 402268" width="64.667" height="56.893" fill="none"/>
    </clipPath>
  </defs>
  <g id="Group_1101309" data-name="Group 1101309" transform="translate(-387.996 -5846)">
    <g id="Group_1100439" data-name="Group 1100439" transform="translate(0.328 -167)">
      <rect id="Rectangle_401103" data-name="Rectangle 401103" width="121" height="121" transform="translate(387.668 6013)" fill="none"/>
      <g id="Group_1099348" data-name="Group 1099348" transform="translate(387.668 6013)">
        <g id="Group_1099282" data-name="Group 1099282">
          <g id="Group_1099281" data-name="Group 1099281" clip-path="url(#clip-path-2)">
            <path id="Path_873375" data-name="Path 873375" d="M74.8,9.1c-4.139,0-6.28-2.03-8.17-3.821-1.855-1.756-3.452-3.274-6.792-3.274s-4.937,1.517-6.792,3.274C51.161,7.072,49.023,9.1,44.881,9.1s-6.28-2.03-8.169-3.821C34.857,3.525,33.26,2.007,29.92,2.007s-4.937,1.517-6.789,3.274C21.241,7.072,19.1,9.1,14.962,9.1S8.679,7.072,6.789,5.281C4.937,3.525,3.34,2.007,0,2.007V0C4.139,0,6.28,2.033,8.17,3.821c1.855,1.759,3.452,3.274,6.792,3.274S19.9,5.58,21.75,3.824C23.637,2.033,25.781,0,29.92,0s6.283,2.033,8.17,3.821c1.855,1.759,3.452,3.274,6.792,3.274s4.937-1.514,6.792-3.274C53.56,2.033,55.7,0,59.843,0s6.283,2.033,8.17,3.821C69.867,5.58,71.464,7.094,74.8,7.094S79.742,5.58,81.6,3.821C83.483,2.033,85.624,0,89.766,0V2.007c-3.34,0-4.937,1.517-6.792,3.274C81.084,7.072,78.943,9.1,74.8,9.1" transform="translate(2.453 32.43)" fill="#efb499"/>
            <path id="Path_873376" data-name="Path 873376" d="M74.8,9.1c-4.139,0-6.283-2.03-8.17-3.824-1.855-1.756-3.452-3.27-6.792-3.27s-4.937,1.514-6.792,3.27C51.164,7.072,49.023,9.1,44.881,9.1s-6.283-2.03-8.17-3.824c-1.855-1.756-3.452-3.27-6.792-3.27s-4.937,1.517-6.789,3.27C21.241,7.072,19.1,9.1,14.962,9.1S8.679,7.072,6.789,5.278C4.937,3.522,3.34,2.007,0,2.007V0C4.139,0,6.283,2.03,8.17,3.821c1.855,1.759,3.452,3.274,6.792,3.274S19.9,5.58,21.75,3.821C23.637,2.03,25.781,0,29.92,0S36.2,2.03,38.093,3.821c1.852,1.759,3.449,3.274,6.789,3.274s4.937-1.514,6.792-3.274C53.56,2.03,55.7,0,59.843,0s6.283,2.03,8.17,3.821C69.867,5.58,71.464,7.094,74.8,7.094S79.742,5.58,81.6,3.821C83.486,2.03,85.627,0,89.769,0V2.007c-3.34,0-4.94,1.517-6.8,3.27C81.084,7.072,78.943,9.1,74.8,9.1" transform="translate(1.635 21.62)" fill="#efb499"/>
            <path id="Path_873377" data-name="Path 873377" d="M74.8,9.1c-4.139,0-6.283-2.03-8.169-3.824-1.855-1.756-3.452-3.27-6.792-3.27s-4.937,1.514-6.792,3.27C51.164,7.072,49.02,9.1,44.881,9.1s-6.283-2.03-8.17-3.824c-1.855-1.756-3.452-3.27-6.792-3.27s-4.937,1.517-6.789,3.27C21.241,7.072,19.1,9.1,14.962,9.1S8.678,7.072,6.789,5.278C4.937,3.522,3.34,2.007,0,2.007V0C4.139,0,6.283,2.03,8.169,3.821c1.851,1.759,3.452,3.274,6.792,3.274S19.9,5.58,21.75,3.821C23.637,2.03,25.781,0,29.92,0S36.2,2.03,38.093,3.821c1.852,1.759,3.449,3.274,6.789,3.274s4.937-1.514,6.792-3.274C53.56,2.03,55.7,0,59.843,0s6.283,2.03,8.17,3.821C69.867,5.58,71.464,7.094,74.8,7.094S79.742,5.58,81.6,3.821C83.486,2.03,85.624,0,89.769,0V2.007c-3.34,0-4.941,1.517-6.8,3.27C81.084,7.072,78.943,9.1,74.8,9.1" transform="translate(0.818 10.81)" fill="#efb499"/>
            <path id="Path_873378" data-name="Path 873378" d="M74.8,9.1c-4.139,0-6.28-2.03-8.17-3.821-1.855-1.756-3.452-3.27-6.792-3.27s-4.937,1.514-6.789,3.27C51.164,7.069,49.023,9.1,44.881,9.1s-6.28-2.03-8.169-3.821c-1.855-1.756-3.452-3.27-6.792-3.27s-4.937,1.514-6.789,3.267C21.245,7.069,19.1,9.1,14.962,9.1S8.678,7.069,6.789,5.278C4.937,3.522,3.34,2.007,0,2.007V0C4.139,0,6.283,2.03,8.17,3.821c1.855,1.756,3.452,3.27,6.792,3.27S19.9,5.577,21.75,3.821C23.64,2.03,25.781,0,29.92,0s6.28,2.03,8.173,3.821c1.852,1.756,3.449,3.27,6.789,3.27s4.937-1.514,6.792-3.27C53.563,2.03,55.7,0,59.843,0s6.28,2.03,8.17,3.821c1.855,1.756,3.452,3.27,6.792,3.27s4.937-1.514,6.792-3.27C83.486,2.03,85.627,0,89.769,0V2.007c-3.344,0-4.941,1.514-6.8,3.27C81.084,7.069,78.943,9.1,74.8,9.1" transform="translate(0 0.003)" fill="#efb499"/>
          </g>
        </g>
      </g>
      <circle id="Ellipse_11504" data-name="Ellipse 11504" cx="50.5" cy="50.5" r="50.5" transform="translate(402.668 6031)" fill="#ffce73"/>
      <circle id="Ellipse_11503" data-name="Ellipse 11503" cx="52.5" cy="52.5" r="52.5" transform="translate(395.668 6021)" fill="#f3f9ff"/>
    </g>
    <g id="Group_1100442" data-name="Group 1100442" transform="translate(413.938 5871.804)">
      <rect id="Rectangle_401104" data-name="Rectangle 401104" width="68" height="69" transform="translate(0.062 -0.804)" fill="none"/>
      <g id="Group_1100467" data-name="Group 1100467" transform="translate(2.062 5.196)">
        <g id="Group_1100466" data-name="Group 1100466" clip-path="url(#clip-path-3)">
          <path id="Path_880085" data-name="Path 880085" d="M74.932,0V44.709a3.818,3.818,0,0,1-3.555,3.877h-38.1V0Z" transform="translate(-29.962)" fill="#472b12"/>
          <path id="Path_880086" data-name="Path 880086" d="M347.155,179.98l4.827,9.461.63-.235-4.707-9.227h-.751Z" transform="translate(-312.618 -162.073)" fill="#ffc514"/>
          <path id="Path_880087" data-name="Path 880087" d="M169.322,189.206l-.63.235-4.827-9.462h.751Z" transform="translate(-147.562 -162.073)" fill="#ffc514"/>
          <rect id="Rectangle_402261" data-name="Rectangle 402261" width="9.48" height="9.18" transform="translate(49.855 9.21) rotate(-9.719)" fill="#b54f26"/>
          <path id="Path_880088" data-name="Path 880088" d="M594.253,57.717a2.2,2.2,0,0,0-1.8,2.539l1.33,7.762a2.2,2.2,0,1,0,4.334-.743l-1.33-7.762a2.2,2.2,0,0,0-2.538-1.8" transform="translate(-533.486 -51.947)" fill="#472b12"/>
          <path id="Path_880089" data-name="Path 880089" d="M463.561,80.109a2.2,2.2,0,0,0-1.8,2.539l1.33,7.763a2.2,2.2,0,1,0,4.334-.743L466.1,81.905a2.2,2.2,0,0,0-2.538-1.8" transform="translate(-415.796 -72.111)" fill="#472b12"/>
          <path id="Path_880090" data-name="Path 880090" d="M572.194,215.757l-1.282.22L575.8,243.8l1.282-.22Z" transform="translate(-514.113 -194.292)" fill="#623613"/>
          <path id="Path_880091" data-name="Path 880091" d="M559.322,217.964l-1.28.22L562.925,246l1.281-.219Z" transform="translate(-502.523 -196.279)" fill="#472b12"/>
          <path id="Path_880092" data-name="Path 880092" d="M621.114,495.5l-1.109.19.516,3.008,1.109-.19a1.527,1.527,0,0,0,1.243-1.765,1.519,1.519,0,0,0-1.758-1.243" transform="translate(-558.322 -446.187)" fill="#623613"/>
          <path id="Path_880093" data-name="Path 880093" d="M598.521,497.615l-1.1.189a1.527,1.527,0,0,0-1.251,1.759,1.488,1.488,0,0,0,.627.986,1.525,1.525,0,0,0,1.138.263l1.1-.189Z" transform="translate(-536.838 -448.109)" fill="#472b12"/>
          <path id="Path_880094" data-name="Path 880094" d="M565.589,172.166l-1.946.333.723,4.223,1.282-.22Z" transform="translate(-507.568 -155.037)" fill="#623613"/>
          <path id="Path_880095" data-name="Path 880095" d="M546.036,175.516l-1.945.333,1.388,4.109,1.28-.22Z" transform="translate(-489.96 -158.054)" fill="#472b12"/>
          <rect id="Rectangle_402262" data-name="Rectangle 402262" width="8.795" height="1.607" transform="translate(50.967 13.676) rotate(-9.719)" fill="#f5841f"/>
          <path id="Path_880096" data-name="Path 880096" d="M74.932,449.4v6.228a3.864,3.864,0,0,1-3.868,3.865H33.272v-6.217h38.1a3.818,3.818,0,0,0,3.555-3.877" transform="translate(-29.962 -404.689)" fill="#ccebf8"/>
          <path id="Path_880097" data-name="Path 880097" d="M71.075,506.923H33.284V509.9h38.1a3.815,3.815,0,0,0,3.554-3.876v-2.97a3.864,3.864,0,0,1-3.867,3.868" transform="translate(-29.973 -453.007)" fill="#ca5827"/>
          <rect id="Rectangle_402263" data-name="Rectangle 402263" width="7.781" height="48.586" transform="translate(0 0)" fill="#df2f26"/>
          <rect id="Rectangle_402264" data-name="Rectangle 402264" width="3.311" height="8.307" transform="translate(0 48.586)" fill="#82381b"/>
          <path id="Path_880098" data-name="Path 880098" d="M156.193,175.425a.869.869,0,0,1-.8.541.826.826,0,0,1-.771-.538l-.582,0a1.384,1.384,0,0,0,2.543.423l2.416.009,5.511.7,0-1.132Z" transform="translate(-138.714 -157.972)" fill="#f6901e"/>
          <path id="Path_880099" data-name="Path 880099" d="M122.012,179.98l-4.827,9.461-.63-.235,4.707-9.227h.751Z" transform="translate(-104.959 -162.073)" fill="#fde156"/>
          <path id="Path_880100" data-name="Path 880100" d="M119.488,280a5.545,5.545,0,0,0,9.58,0Z" transform="translate(-107.6 -252.143)" fill="#f5841f"/>
          <rect id="Rectangle_402265" data-name="Rectangle 402265" width="10.165" height="1.313" transform="translate(11.595 27.133)" fill="#f5841f"/>
          <path id="Path_880101" data-name="Path 880101" d="M267.574,175.425a.869.869,0,0,0,.8.541.826.826,0,0,0,.771-.538l.582,0a1.384,1.384,0,0,1-2.543.423l-2.416.009-5.511.7,0-1.132Z" transform="translate(-233.462 -157.972)" fill="#f6901e"/>
          <path id="Path_880102" data-name="Path 880102" d="M299.847,189.206l.63.235,4.827-9.462h-.75Z" transform="translate(-270.016 -162.073)" fill="#fde156"/>
          <path id="Path_880103" data-name="Path 880103" d="M310.01,272.729H299.845v1.313h.67a5.585,5.585,0,0,0,8.825,0h.67Z" transform="translate(-270.014 -245.596)" fill="#f5841f"/>
          <rect id="Rectangle_402266" data-name="Rectangle 402266" width="4.377" height="1.096" transform="translate(23.604 32.299)" fill="#d47828"/>
          <rect id="Rectangle_402267" data-name="Rectangle 402267" width="10.473" height="1.515" transform="translate(20.556 33.395)" fill="#f6901e"/>
          <path id="Path_880104" data-name="Path 880104" d="M248.772,138.77a1.3,1.3,0,1,0-1.7,1.239l-.9,16.082h2.6l-.9-16.082a1.3,1.3,0,0,0,.9-1.239" transform="translate(-221.677 -123.792)" fill="#f5841f"/>
        </g>
      </g>
    </g>
  </g>
</svg>
