<svg xmlns="http://www.w3.org/2000/svg" xmlns:xlink="http://www.w3.org/1999/xlink" width="145" height="145" viewBox="0 0 145 145">
  <defs>
    <clipPath id="clip-path">
      <rect id="Rectangle_400938" data-name="Rectangle 400938" width="145" height="145" transform="translate(0 -0.281)" fill="none"/>
    </clipPath>
    <clipPath id="clip-path-2">
      <rect id="Rectangle_401073" data-name="Rectangle 401073" width="110.228" height="49.642" fill="#7d3a1b"/>
    </clipPath>
    <clipPath id="clip-path-3">
      <rect id="Rectangle_402455" data-name="Rectangle 402455" width="81" height="80.487" fill="#6a4d23"/>
    </clipPath>
  </defs>
  <g id="Group_1101577" data-name="Group 1101577" transform="translate(-1148 -8455.836)">
    <g id="Group_1100892" data-name="Group 1100892" transform="translate(973 -1084.883)">
      <g id="Group_1099404" data-name="Group 1099404" transform="translate(175 9541)">
        <g id="Group_1099379" data-name="Group 1099379" transform="translate(0 0)">
          <rect id="Rectangle_401103" data-name="Rectangle 401103" width="145" height="145" transform="translate(0 -0.281)" fill="none"/>
          <g id="Group_1099348" data-name="Group 1099348" transform="translate(0.045 0.045)">
            <g id="Group_1099282" data-name="Group 1099282">
              <g id="Group_1099281" data-name="Group 1099281" clip-path="url(#clip-path-2)">
                <path id="Path_873375" data-name="Path 873375" d="M89.413,10.879c-4.947,0-7.506-2.426-9.765-4.567C77.431,4.213,75.522,2.4,71.529,2.4s-5.9,1.814-8.118,3.913c-2.259,2.141-4.814,4.567-9.765,4.567S46.14,8.453,43.881,6.312C41.664,4.213,39.755,2.4,35.763,2.4s-5.9,1.814-8.114,3.913c-2.259,2.141-4.818,4.567-9.765,4.567s-7.51-2.426-9.769-4.567C5.9,4.213,3.993,2.4,0,2.4V0C4.947,0,7.506,2.43,9.765,4.567c2.217,2.1,4.126,3.913,8.118,3.913S23.785,6.67,26,4.571C28.253,2.43,30.816,0,35.763,0s7.51,2.43,9.765,4.567c2.217,2.1,4.126,3.913,8.118,3.913s5.9-1.81,8.118-3.913C64.019,2.43,66.582,0,71.529,0s7.51,2.43,9.765,4.567c2.217,2.1,4.126,3.913,8.118,3.913s5.9-1.81,8.118-3.913C99.786,2.43,102.345,0,107.3,0V2.4c-3.993,0-5.9,1.814-8.118,3.913-2.259,2.141-4.818,4.567-9.765,4.567" transform="translate(2.932 38.763)" fill="#7d3a1b"/>
                <path id="Path_873376" data-name="Path 873376" d="M89.413,10.879c-4.947,0-7.51-2.426-9.765-4.571C77.431,4.209,75.522,2.4,71.529,2.4s-5.9,1.81-8.118,3.909c-2.255,2.145-4.814,4.571-9.765,4.571s-7.51-2.426-9.765-4.571C41.664,4.209,39.755,2.4,35.763,2.4s-5.9,1.814-8.115,3.909c-2.259,2.145-4.818,4.571-9.765,4.571s-7.51-2.426-9.769-4.571C5.9,4.209,3.993,2.4,0,2.4V0C4.947,0,7.51,2.426,9.765,4.567c2.217,2.1,4.126,3.913,8.118,3.913S23.785,6.67,26,4.567C28.253,2.426,30.816,0,35.763,0s7.51,2.426,9.769,4.567c2.213,2.1,4.122,3.913,8.115,3.913s5.9-1.81,8.118-3.913C64.019,2.426,66.582,0,71.529,0s7.51,2.426,9.765,4.567c2.217,2.1,4.126,3.913,8.118,3.913s5.9-1.81,8.118-3.913C99.79,2.426,102.349,0,107.3,0V2.4c-3.993,0-5.905,1.814-8.122,3.909-2.259,2.145-4.818,4.571-9.765,4.571" transform="translate(1.955 25.842)" fill="#7d3a1b"/>
                <path id="Path_873377" data-name="Path 873377" d="M89.412,10.879c-4.947,0-7.51-2.426-9.765-4.571C77.431,4.209,75.522,2.4,71.529,2.4s-5.9,1.81-8.118,3.909c-2.255,2.145-4.818,4.571-9.765,4.571s-7.51-2.426-9.765-4.571C41.664,4.209,39.755,2.4,35.763,2.4s-5.9,1.814-8.115,3.909c-2.259,2.145-4.818,4.571-9.765,4.571s-7.51-2.426-9.769-4.571C5.9,4.209,3.993,2.4,0,2.4V0C4.947,0,7.51,2.426,9.765,4.567c2.213,2.1,4.126,3.913,8.118,3.913S23.785,6.67,26,4.567C28.253,2.426,30.816,0,35.763,0s7.51,2.426,9.769,4.567c2.213,2.1,4.122,3.913,8.115,3.913s5.9-1.81,8.118-3.913C64.019,2.426,66.582,0,71.529,0s7.51,2.426,9.765,4.567c2.217,2.1,4.126,3.913,8.118,3.913s5.9-1.81,8.118-3.913C99.79,2.426,102.345,0,107.3,0V2.4c-3.993,0-5.905,1.814-8.122,3.909-2.259,2.145-4.818,4.571-9.765,4.571" transform="translate(0.977 12.921)" fill="#7d3a1b"/>
                <path id="Path_873378" data-name="Path 873378" d="M89.413,10.875c-4.947,0-7.506-2.426-9.765-4.567C77.431,4.209,75.522,2.4,71.529,2.4s-5.9,1.81-8.115,3.909c-2.259,2.141-4.818,4.567-9.769,4.567S46.14,8.449,43.881,6.308C41.664,4.209,39.755,2.4,35.763,2.4s-5.9,1.81-8.115,3.905c-2.255,2.145-4.818,4.571-9.765,4.571s-7.51-2.426-9.769-4.567C5.9,4.209,3.993,2.4,0,2.4V0C4.947,0,7.51,2.426,9.765,4.567c2.217,2.1,4.126,3.909,8.118,3.909s5.9-1.81,8.115-3.909C28.257,2.426,30.816,0,35.763,0s7.506,2.426,9.769,4.567c2.213,2.1,4.122,3.909,8.115,3.909s5.9-1.81,8.118-3.909C64.023,2.426,66.582,0,71.529,0s7.506,2.426,9.765,4.567c2.217,2.1,4.126,3.909,8.118,3.909s5.9-1.81,8.118-3.909C99.79,2.426,102.349,0,107.3,0V2.4c-4,0-5.905,1.81-8.122,3.909-2.259,2.141-4.818,4.567-9.765,4.567" transform="translate(0 0.004)" fill="#7d3a1b"/>
              </g>
            </g>
          </g>
          <path id="Path_873425" data-name="Path 873425" d="M60.362,0A60.362,60.362,0,1,1,0,60.362,60.362,60.362,0,0,1,60.362,0Z" transform="translate(17.974 21.56)" fill="#efb499"/>
          <circle id="Ellipse_11503" data-name="Ellipse 11503" cx="63" cy="63" r="63" transform="translate(9 9.719)" fill="#fef7eb"/>
        </g>
      </g>
      <g id="Group_1099405" data-name="Group 1099405" transform="translate(206.234 9571.193)">
        <g id="Group_1099389" data-name="Group 1099389" transform="translate(0 0.165)">
          <rect id="Rectangle_401104" data-name="Rectangle 401104" width="81" height="83" transform="translate(-0.234 -0.475)" fill="none"/>
        </g>
        <g id="Group_1100898" data-name="Group 1100898" transform="translate(-0.234 0.69)">
          <g id="Group_1100897" data-name="Group 1100897" clip-path="url(#clip-path-3)">
            <path id="Path_880635" data-name="Path 880635" d="M121.241,80.482V47.024H107.722V80.457h-2.643V79.8c0-13.66-.016-27.321.022-40.981a7.827,7.827,0,0,0-1.233-4.37c-1.831-2.914-3.569-5.886-5.33-8.843a4.493,4.493,0,0,1,2.519-6.627,3.751,3.751,0,0,1,2.517-.042,1.179,1.179,0,0,0,.2.027v-.369q0-4.538,0-9.076a4.032,4.032,0,0,1,4.76-4.087l.619.1c0-.523,0-1.012,0-1.5A3.892,3.892,0,0,1,111.117.556a3.965,3.965,0,0,1,5.322,1.207,3.675,3.675,0,0,1,.688,2.191,2.078,2.078,0,0,0,.028.268c.229-.062.431-.127.638-.17a4.1,4.1,0,0,1,3.975,1.666,3.938,3.938,0,0,1,.707,2.311c.006.522,0,1.043,0,1.587.335-.074.639-.169.951-.206a4,4,0,0,1,4.333,3.135,6.834,6.834,0,0,1,.126,1.282c.008,4.964,0,9.928.009,14.892a7.2,7.2,0,0,1-1.529,4.571c-.566.728-1.1,1.479-1.664,2.212a3.839,3.839,0,0,0-.822,2.426c0,.513,0,1.026,0,1.538q0,20.354,0,40.707c0,.244-.062.319-.307.314-.766-.014-1.533,0-2.335,0m-.017-41.615a.724.724,0,0,0,.018-.092c0-.174.011-.349,0-.523a6.535,6.535,0,0,1,1.481-4.478c.562-.732,1.106-1.477,1.661-2.213a3.985,3.985,0,0,0,.8-2.493q-.018-7.784-.006-15.568c0-.1,0-.206,0-.308a1.124,1.124,0,0,0-.469-.892,1.4,1.4,0,0,0-2.14.68,2.342,2.342,0,0,0-.09.726q-.009,3.661,0,7.322v.352h-2.635v-.635q0-5.722,0-11.445c0-.472-.023-.943-.022-1.415a1.317,1.317,0,0,0-2.087-.989,1.443,1.443,0,0,0-.605,1.27q.019,5.415.025,10.829c0,.287-.009.574-.005.861,0,.2-.073.265-.276.261-.687-.013-1.374-.018-2.061,0-.256.006-.333-.069-.332-.327q.013-7.368.011-14.737c0-.42.007-.841-.014-1.261a1.066,1.066,0,0,0-.655-.971c-.993-.395-2.051,0-2.044,1.282.022,4.389.02,8.778.028,13.168,0,.4-.006.8,0,1.2,0,.176-.035.262-.237.259q-1.092-.017-2.184,0c-.218,0-.255-.093-.251-.278.012-.646.014-1.292.016-1.938q.009-3.461.015-6.922a1.49,1.49,0,0,0-.843-1.453,1.31,1.31,0,0,0-1.854,1.243c.021,3.784,0,7.568.008,11.352a.732.732,0,0,0,.21.447c.6.622,1.21,1.226,1.816,1.838,1.8,1.823,2.1,4.079,1.869,6.489h-2.664c0-.719-.016-1.416,0-2.112a3.168,3.168,0,0,0-.889-2.323c-1.01-1.076-2.041-2.137-3.121-3.142a1.835,1.835,0,0,0-3.1.89,2.332,2.332,0,0,0,.3,1.652q2.725,4.512,5.436,9.031a8.011,8.011,0,0,1,1.2,2.607,17.077,17.077,0,0,1,.168,1.986c.017.252,0,.506,0,.771Zm.008,2.745h-13.5v2.666h13.5Z" transform="translate(-73.72 0)" fill="#6a4d23"/>
            <path id="Path_880636" data-name="Path 880636" d="M235.3,80.3c.345-.057.652-.127.963-.156a3.922,3.922,0,0,1,3.65,1.6,4.074,4.074,0,0,1,.783,2.6q.012,7.661,0,15.323a6.725,6.725,0,0,1-1.345,4.1q-.924,1.249-1.859,2.488a3.437,3.437,0,0,0-.75,2.195c.006.318-.01.636-.01.954q0,11.261,0,22.523v1.8h-2.678V120.366H222v13.365h-2.711v-.341q0-12.354,0-24.708a4.837,4.837,0,0,0-.695-2.543c-1.9-3.171-3.8-6.345-5.718-9.507a4.543,4.543,0,0,1,2.852-7.059c.269-.059.542-.1.851-.164v-.342q0-4.385,0-8.769a4.054,4.054,0,0,1,3.032-4.1,4.228,4.228,0,0,1,2.041-.018c.1.02.2.037.339.063,0-.636-.014-1.24,0-1.842a3.914,3.914,0,0,1,2.755-3.5,4,4,0,0,1,5.146,3.039,8.14,8.14,0,0,1,.11,1,3.924,3.924,0,0,1,4.206,1.041c1.243,1.19,1.129,2.754,1.088,4.315m-2.651,11.831V91.01q0-3.415,0-6.83c0-1.856.007-3.712-.009-5.568a1.263,1.263,0,0,0-1.693-1.165c-.792.293-.984.677-.98,1.569.014,3.5.007,6.994.009,10.491,0,.328,0,.657.016.984.012.239-.041.351-.319.343-.666-.018-1.333-.014-2,.008-.3.01-.378-.083-.377-.38q.012-7.507,0-15.014c0-.307.012-.616-.008-.922a1.34,1.34,0,0,0-2.651.015c-.015.225-.014.451-.014.677q0,6.969-.006,13.937c0,.089-.015.177-.022.265h-2.609c0-.137,0-.25,0-.362q-.007-4.23-.016-8.46a4.029,4.029,0,0,0-.041-.673,1.4,1.4,0,0,0-1.578-1.177,1.236,1.236,0,0,0-1.065,1.378q0,4.969.008,9.937a.8.8,0,0,0,.2.508c.636.654,1.3,1.278,1.946,1.925a12.171,12.171,0,0,1,2.042,2.409,9.289,9.289,0,0,1,1.16,5.113c-.007.21-.094.258-.282.256-.718-.009-1.435-.006-2.153-.009-.068,0-.136-.011-.227-.02,0-.4.006-.774,0-1.151a5.244,5.244,0,0,0-1.276-3.567c-.917-1.007-1.894-1.962-2.879-2.9a1.873,1.873,0,0,0-2.85,2.384c1.939,3.233,3.886,6.46,5.814,9.7a15.39,15.39,0,0,1,.755,1.574c.1.231.1.572.268.693s.489.035.744.033q5.706-.043,11.412-.081a.372.372,0,0,0,.411-.294,7.859,7.859,0,0,1,1.14-2.1c.56-.72,1.092-1.462,1.646-2.186A4.016,4.016,0,0,0,238,99.8c-.014-5.169-.006-10.337-.009-15.506a4.241,4.241,0,0,0-.047-.58,1.007,1.007,0,0,0-.8-.87,1.333,1.333,0,0,0-1.819,1.188,5.957,5.957,0,0,0-.023.706q0,3.553,0,7.106c0,.1-.015.195-.022.284ZM222,117.7h12.041v-8.017H222v2.655h.4c2.41,0,4.819,0,7.229-.006.272,0,.356.076.351.345-.013.677-.007,1.354.005,2.03,0,.239-.075.318-.32.318-2.471,0-4.942,0-7.414.005-.078,0-.157.013-.256.022Z" transform="translate(-159.705 -53.27)" fill="#6a4d23"/>
            <path id="Path_880637" data-name="Path 880637" d="M4.452,122.01c.007-.131.021-.261.021-.392q-.007-4.168-.019-8.336a4.556,4.556,0,0,1,1.058-3.253,3.834,3.834,0,0,1,4.213-1.254,1.128,1.128,0,0,0,.141.022c0-.465-.018-.916,0-1.364a4.244,4.244,0,0,1,1.8-3.5,3.971,3.971,0,0,1,6.131,2.408c.079.358.145.72.222,1.1a4.753,4.753,0,0,1,2-.1,4.013,4.013,0,0,1,3.255,3.607c.041.6.006,1.2.006,1.838.346-.053.624-.1.9-.137a4.02,4.02,0,0,1,4.458,3.84c0,.995.025,1.989.026,2.984,0,4.061-.028,8.122.016,12.183a7.79,7.79,0,0,1-1.768,5.172c-.541.669-1.043,1.37-1.549,2.066a3.881,3.881,0,0,0-.731,2.335q-.006,8.291,0,16.583v.382h-2.7v-12.02H9.871v12.024H7.159v-.387c0-5.6-.008-11.2.007-16.8a4.646,4.646,0,0,0-.7-2.5C4.49,135.254,2.483,132,.59,128.684a4.446,4.446,0,0,1,3.264-6.594l.6-.079m17.474,21.433c0-.667-.028-1.312.006-1.953a7.4,7.4,0,0,1,1.314-4.124c.637-.867,1.292-1.721,1.93-2.588a4.236,4.236,0,0,0,.84-2.609c-.018-4.677-.009-9.353-.011-14.029,0-.574,0-1.149-.019-1.722a1.27,1.27,0,0,0-.912-1.08,1.339,1.339,0,0,0-1.761,1.349c.036,1.948.01,3.9.01,5.845q0,.954,0,1.908c0,.149.008.3-.207.3H20.7a.876.876,0,0,1-.044-.175q0-.969,0-1.938.012-5.6.026-11.2a1.334,1.334,0,0,0-1.358-1.453c-.905,0-1.33.45-1.33,1.414q0,5.753,0,11.507v.374H15.281V107.619c0-.113,0-.226,0-.338a1.4,1.4,0,0,0-1.127-1.382,1.312,1.312,0,0,0-1.576,1.424q0,7.169,0,14.337v.354H9.866v-.39q0-4.476,0-8.953a1.312,1.312,0,0,0-1.774-1.354,1.456,1.456,0,0,0-.931,1.326q0,4.969.006,9.938a.668.668,0,0,0,.176.426c.817.821,1.651,1.625,2.476,2.438a9.525,9.525,0,0,1,1.888,2.485,9.46,9.46,0,0,1,.872,4.539c0,.216-.1.26-.279.259-.738,0-1.477,0-2.215.005-.184,0-.226-.078-.223-.241.007-.369,0-.738,0-1.108a4.862,4.862,0,0,0-1.343-3.5c-.893-.947-1.848-1.835-2.751-2.772a2.109,2.109,0,0,0-2.426-.038,2.044,2.044,0,0,0-.355,2.578q2.95,4.913,5.9,9.827a6.167,6.167,0,0,1,.945,3.016c.025.871.023,1.743.032,2.614,0,.108,0,.216,0,.331Z" transform="translate(0 -77.74)" fill="#6a4d23"/>
          </g>
        </g>
      </g>
    </g>
  </g>
</svg>
