<svg xmlns="http://www.w3.org/2000/svg" xmlns:xlink="http://www.w3.org/1999/xlink" width="121" height="121" viewBox="0 0 121 121">
  <defs>
    <clipPath id="clip-path">
      <rect id="Rectangle_400938" data-name="Rectangle 400938" width="121" height="121" transform="translate(0 0)" fill="none"/>
    </clipPath>
    <clipPath id="clip-path-2">
      <rect id="Rectangle_401073" data-name="Rectangle 401073" width="92.219" height="41.532" fill="#efb499"/>
    </clipPath>
    <clipPath id="clip-path-3">
      <rect id="Rectangle_402299" data-name="Rectangle 402299" width="60.148" height="68" fill="none"/>
    </clipPath>
  </defs>
  <g id="Group_1101311" data-name="Group 1101311" transform="translate(-790.996 5854)">
    <g id="Group_1100450" data-name="Group 1100450" transform="translate(403.328 -11867)">
      <rect id="Rectangle_401103" data-name="Rectangle 401103" width="121" height="121" transform="translate(387.668 6013)" fill="none"/>
      <g id="Group_1099348" data-name="Group 1099348" transform="translate(387.668 6013)">
        <g id="Group_1099282" data-name="Group 1099282">
          <g id="Group_1099281" data-name="Group 1099281" clip-path="url(#clip-path-2)">
            <path id="Path_873375" data-name="Path 873375" d="M74.8,9.1c-4.139,0-6.28-2.03-8.17-3.821-1.855-1.756-3.452-3.274-6.792-3.274s-4.937,1.517-6.792,3.274C51.161,7.072,49.023,9.1,44.881,9.1s-6.28-2.03-8.169-3.821C34.857,3.525,33.26,2.007,29.92,2.007s-4.937,1.517-6.789,3.274C21.241,7.072,19.1,9.1,14.962,9.1S8.679,7.072,6.789,5.281C4.937,3.525,3.34,2.007,0,2.007V0C4.139,0,6.28,2.033,8.17,3.821c1.855,1.759,3.452,3.274,6.792,3.274S19.9,5.58,21.75,3.824C23.637,2.033,25.781,0,29.92,0s6.283,2.033,8.17,3.821c1.855,1.759,3.452,3.274,6.792,3.274s4.937-1.514,6.792-3.274C53.56,2.033,55.7,0,59.843,0s6.283,2.033,8.17,3.821C69.867,5.58,71.464,7.094,74.8,7.094S79.742,5.58,81.6,3.821C83.483,2.033,85.624,0,89.766,0V2.007c-3.34,0-4.937,1.517-6.792,3.274C81.084,7.072,78.943,9.1,74.8,9.1" transform="translate(2.453 32.43)" fill="#efb499"/>
            <path id="Path_873376" data-name="Path 873376" d="M74.8,9.1c-4.139,0-6.283-2.03-8.17-3.824-1.855-1.756-3.452-3.27-6.792-3.27s-4.937,1.514-6.792,3.27C51.164,7.072,49.023,9.1,44.881,9.1s-6.283-2.03-8.17-3.824c-1.855-1.756-3.452-3.27-6.792-3.27s-4.937,1.517-6.789,3.27C21.241,7.072,19.1,9.1,14.962,9.1S8.679,7.072,6.789,5.278C4.937,3.522,3.34,2.007,0,2.007V0C4.139,0,6.283,2.03,8.17,3.821c1.855,1.759,3.452,3.274,6.792,3.274S19.9,5.58,21.75,3.821C23.637,2.03,25.781,0,29.92,0S36.2,2.03,38.093,3.821c1.852,1.759,3.449,3.274,6.789,3.274s4.937-1.514,6.792-3.274C53.56,2.03,55.7,0,59.843,0s6.283,2.03,8.17,3.821C69.867,5.58,71.464,7.094,74.8,7.094S79.742,5.58,81.6,3.821C83.486,2.03,85.627,0,89.769,0V2.007c-3.34,0-4.94,1.517-6.8,3.27C81.084,7.072,78.943,9.1,74.8,9.1" transform="translate(1.635 21.62)" fill="#efb499"/>
            <path id="Path_873377" data-name="Path 873377" d="M74.8,9.1c-4.139,0-6.283-2.03-8.169-3.824-1.855-1.756-3.452-3.27-6.792-3.27s-4.937,1.514-6.792,3.27C51.164,7.072,49.02,9.1,44.881,9.1s-6.283-2.03-8.17-3.824c-1.855-1.756-3.452-3.27-6.792-3.27s-4.937,1.517-6.789,3.27C21.241,7.072,19.1,9.1,14.962,9.1S8.678,7.072,6.789,5.278C4.937,3.522,3.34,2.007,0,2.007V0C4.139,0,6.283,2.03,8.169,3.821c1.851,1.759,3.452,3.274,6.792,3.274S19.9,5.58,21.75,3.821C23.637,2.03,25.781,0,29.92,0S36.2,2.03,38.093,3.821c1.852,1.759,3.449,3.274,6.789,3.274s4.937-1.514,6.792-3.274C53.56,2.03,55.7,0,59.843,0s6.283,2.03,8.17,3.821C69.867,5.58,71.464,7.094,74.8,7.094S79.742,5.58,81.6,3.821C83.486,2.03,85.624,0,89.769,0V2.007c-3.34,0-4.941,1.517-6.8,3.27C81.084,7.072,78.943,9.1,74.8,9.1" transform="translate(0.818 10.81)" fill="#efb499"/>
            <path id="Path_873378" data-name="Path 873378" d="M74.8,9.1c-4.139,0-6.28-2.03-8.17-3.821-1.855-1.756-3.452-3.27-6.792-3.27s-4.937,1.514-6.789,3.27C51.164,7.069,49.023,9.1,44.881,9.1s-6.28-2.03-8.169-3.821c-1.855-1.756-3.452-3.27-6.792-3.27s-4.937,1.514-6.789,3.267C21.245,7.069,19.1,9.1,14.962,9.1S8.678,7.069,6.789,5.278C4.937,3.522,3.34,2.007,0,2.007V0C4.139,0,6.283,2.03,8.17,3.821c1.855,1.756,3.452,3.27,6.792,3.27S19.9,5.577,21.75,3.821C23.64,2.03,25.781,0,29.92,0s6.28,2.03,8.173,3.821c1.852,1.756,3.449,3.27,6.789,3.27s4.937-1.514,6.792-3.27C53.563,2.03,55.7,0,59.843,0s6.28,2.03,8.17,3.821c1.855,1.756,3.452,3.27,6.792,3.27s4.937-1.514,6.792-3.27C83.486,2.03,85.627,0,89.769,0V2.007c-3.344,0-4.941,1.514-6.8,3.27C81.084,7.069,78.943,9.1,74.8,9.1" transform="translate(0 0.003)" fill="#efb499"/>
          </g>
        </g>
      </g>
      <circle id="Ellipse_11504" data-name="Ellipse 11504" cx="50.5" cy="50.5" r="50.5" transform="translate(402.668 6031)" fill="#ffce73"/>
      <circle id="Ellipse_11503" data-name="Ellipse 11503" cx="52.5" cy="52.5" r="52.5" transform="translate(395.668 6021)" fill="#f3f9ff"/>
    </g>
    <g id="Group_1100453" data-name="Group 1100453" transform="translate(816.938 -5828.196)">
      <rect id="Rectangle_401104" data-name="Rectangle 401104" width="68" height="69" transform="translate(0.062 -0.804)" fill="none"/>
      <g id="Group_1100488" data-name="Group 1100488" transform="translate(4.063 0.196)">
        <g id="Group_1100487" data-name="Group 1100487" clip-path="url(#clip-path-3)">
          <path id="Path_880134" data-name="Path 880134" d="M42.908,22.617a7.076,7.076,0,0,1,.859-.213c.307-.046.612-.126.922-.178.6-.1,1.2-.207,1.814-.272a17.2,17.2,0,0,1,2.117-.16c.917.016,1.833.1,2.749.158a.208.208,0,0,0-.14.113,6.554,6.554,0,0,0-.335.789,1.256,1.256,0,0,0-.218.4c-.141.438-.421.808-.59,1.237a13.764,13.764,0,0,1-.747,1.475c-.242.446-.413.923-.632,1.379a.762.762,0,0,0-.139.35,1.473,1.473,0,0,0,.665,1.3q.691.47,1.409.9A1.552,1.552,0,0,1,51.3,31.2a17.627,17.627,0,0,1,.1,1.865c0,.145.021.29.03.434a1.538,1.538,0,0,1-.27,1.274,2.305,2.305,0,0,1-.692.515c-.72.34-1.413.734-2.128,1.082a5.889,5.889,0,0,1-.875.482,7.457,7.457,0,0,0-1.234.6c-.644.324-1.28.669-1.924,1a1.479,1.479,0,0,1-1.176.079q-1.036-.349-2.079-.678a16.937,16.937,0,0,0-1.995-.638,1.351,1.351,0,0,0-1.466.5,9.94,9.94,0,0,0-.557.923c-.282.48-.573.956-.841,1.444-.358.654-.8,1.258-1.121,1.934a1.24,1.24,0,0,0-.029,1.057c.352.854.686,1.715,1.029,2.572.153.383.3.767.467,1.146a2.106,2.106,0,0,0,.832.956c.757.486,1.5.994,2.248,1.495a1.641,1.641,0,0,0,.888.359,1.475,1.475,0,0,0,1.091-.486c.353-.379.719-.748,1.1-1.1a1.4,1.4,0,0,1,1.353-.426c.344.092.691.175,1.03.285a8.638,8.638,0,0,0,1.4.4,1.191,1.191,0,0,0,1.1-.307,7.494,7.494,0,0,0,.832-1.169c.649-1.01,1.293-2.023,1.947-3.029a1.637,1.637,0,0,1,.5-.615,2.387,2.387,0,0,1,1.077-.3c.316,0,.634.012.949,0a1.9,1.9,0,0,1,1.13.31c.079.05.2.038.241.14a4.388,4.388,0,0,0,.382.618c.516.863,1.017,1.736,1.566,2.578a1.581,1.581,0,0,1,.088,1.717c-.518,1.01-1.038,2.02-1.544,3.036a1.719,1.719,0,0,1-1.13,1.028c-.545.126-1.079.29-1.623.418-1.214.285-2.42.6-3.625.917a1.356,1.356,0,0,0-.791.6c-.25.368-.325.813-.559,1.187-.052.082-.17.182-.168.206.034.34-.215.606-.226.928a1.494,1.494,0,0,0,.4,1.009,4.634,4.634,0,0,0,.9.65q1.31.921,2.619,1.843.746.524,1.5,1.045a1.419,1.419,0,0,0,1.515.126c1.04-.488,2.092-.951,3.128-1.448a2.835,2.835,0,0,0,1.3-.888c.447-.685.9-1.366,1.332-2.062a1.377,1.377,0,0,1,1.647-.724,15.151,15.151,0,0,1,2.127.678c.338.115.677.216,1.021.309a.907.907,0,0,0,.294.166c.46.183.945.286,1.41.461.645.243,1.31.433,1.967.646a8.3,8.3,0,0,1-.764,1.075c-.088.123-.168.252-.252.379-.243.195-.4.468-.621.683-.367.353-.692.749-1.053,1.109s-.727.693-1.1,1.03a19.371,19.371,0,0,1-2.407,1.874c-.317.208-.665.362-.978.571a15.342,15.342,0,0,1-2,1.079,8.173,8.173,0,0,1-1.252.525.3.3,0,0,0-.207.156,13.377,13.377,0,0,1-4.032-.6c-1-.3-1.973-.655-2.965-.969C48.76,64.814,47.4,64.3,46,63.879a4.972,4.972,0,0,0-2.353-.16,10.955,10.955,0,0,0-1.761.467,2.057,2.057,0,0,1-1.053.238c-.183.227-.48.174-.714.284a7.4,7.4,0,0,1-.884.256c-.508.163-1.012.34-1.518.511A24.185,24.185,0,0,1,32.431,61.6a2.569,2.569,0,0,1-.39-.431,8.9,8.9,0,0,0,2.246-1.834c.4-.429.791-.86,1.225-1.251a2.865,2.865,0,0,1,1.183-.693,3,3,0,0,1,1.56-.047,1.594,1.594,0,0,0,.46.018A.581.581,0,0,0,39.244,57a.881.881,0,0,0-.053-.795c-.1-.212-.2-.427-.311-.633a8.52,8.52,0,0,0-.995-1.489A.928.928,0,0,1,37.8,54a8.177,8.177,0,0,0-3.323-2.453,10.766,10.766,0,0,0-1.85-.573,7.683,7.683,0,0,0-5.44.5c-.216.11-.42.242-.63.364-.27-.857-.453-1.734-.637-2.614a22.621,22.621,0,0,1-.367-5.275,21.467,21.467,0,0,1,.621-4.3,21.712,21.712,0,0,1,.984-3.1,29.712,29.712,0,0,1,1.794-3.613c.441-.779.988-1.48,1.494-2.212a10.144,10.144,0,0,0,1.1.487,7.582,7.582,0,0,0,2.289.483,8.943,8.943,0,0,0,3.169-.311,7.913,7.913,0,0,0,1.824-.652,7,7,0,0,0,2.359-1.835,7.861,7.861,0,0,0,1.151-2.016,10.314,10.314,0,0,0,.535-2.255,11.492,11.492,0,0,0,.031-2.018" transform="translate(-20.546 -17.533)" fill="#63b9fc"/>
          <path id="Path_880135" data-name="Path 880135" d="M34.744,237.737c.506-.171,1.01-.348,1.518-.511a7.435,7.435,0,0,0,.884-.256c.234-.109.531-.057.714-.284a2.057,2.057,0,0,0,1.053-.237,10.941,10.941,0,0,1,1.762-.467,4.977,4.977,0,0,1,2.353.16c1.395.421,2.758.935,4.147,1.374.991.314,1.969.666,2.965.969a13.383,13.383,0,0,0,4.032.6,4.174,4.174,0,0,0,.8.05c.711.011,1.421-.021,2.133-.011,1.55.024,3.1.017,4.651,0a2.983,2.983,0,0,1,1.442.346,3.544,3.544,0,0,1,1.865,2.252,2.5,2.5,0,0,1-.67,2.651,2.588,2.588,0,0,1-1.881.7q-4.968,0-9.936,0a5.7,5.7,0,0,0-.846.053c-.892.135-1.787.264-2.671.444a1.169,1.169,0,0,0-1.031.8,1,1,0,0,0,.922,1.274,3.788,3.788,0,0,0,.861-.113,13.874,13.874,0,0,1,3.357-.407c2.271-.023,4.542-.041,6.813.039.038,0,.083-.008.107.042a4.372,4.372,0,0,1-.9.5c-.46.254-.925.5-1.387.746a5.9,5.9,0,0,1-3.194.51c-.878-.04-1.753-.138-2.631-.182-.508-.025-1.015-.055-1.523-.1-.948-.079-1.9-.152-2.844-.236-.787-.07-1.583-.085-2.374-.1-.6-.012-1.188-.114-1.78-.175-.124-.013-.235.033-.355.009a12.427,12.427,0,0,0-2.022-.172c-.728-.022-1.456-.077-2.186-.065a1.662,1.662,0,0,1-.167-.025,7.1,7.1,0,0,0-1.355-.061.956.956,0,0,0-.546.171c-.449.382-.94.71-1.4,1.077-.8.638-1.649,1.223-2.452,1.862-1.162.924-2.377,1.779-3.537,2.706-.294.235-.639.41-.92.65s-.6.436-.855.706a1,1,0,0,1-.471.325,1.89,1.89,0,0,1-.394-.32q-.959-.965-1.922-1.925c-.807-.808-1.611-1.619-2.423-2.422a1.994,1.994,0,0,1-.6-1.344c-.009-.137.1-.176.131-.27a2,2,0,0,1,.921-.928c.684-.442,1.375-.873,2.05-1.33.708-.48,1.438-.926,2.159-1.386a15.772,15.772,0,0,0,3.463-2.7c.231-.26.441-.545.651-.825.3-.4.589-.819.866-1.24.18-.274.307-.583.475-.866a5.981,5.981,0,0,1,.715-.884,3.884,3.884,0,0,1,1.263-.961.376.376,0,0,0,.209-.226" transform="translate(-17.572 -189.796)" fill="#ffcdc0"/>
          <path id="Path_880136" data-name="Path 880136" d="M49.185,239.512a1,1,0,0,0,.471-.325c.26-.269.574-.467.855-.706s.626-.415.92-.65c1.16-.926,2.375-1.781,3.537-2.706.8-.638,1.649-1.224,2.452-1.862.461-.367.952-.695,1.4-1.077a.956.956,0,0,1,.546-.172,7.116,7.116,0,0,1,1.355.061c.056,0,.112.025.167.025.729-.013,1.458.042,2.186.065a12.407,12.407,0,0,1,2.022.172c.12.023.231-.022.355-.009.593.061,1.18.163,1.78.175.791.016,1.587.031,2.374.1.948.084,1.9.157,2.844.236.507.042,1.014.072,1.523.1.878.044,1.753.142,2.631.182a5.9,5.9,0,0,0,3.194-.51c.461-.25.927-.492,1.387-.746a4.371,4.371,0,0,0,.9-.5c-.024-.05-.069-.041-.107-.042-2.271-.081-4.542-.062-6.813-.039a13.876,13.876,0,0,0-3.356.407,3.791,3.791,0,0,1-.861.113,1,1,0,0,1-.922-1.274,1.169,1.169,0,0,1,1.031-.8c.884-.18,1.778-.308,2.671-.444a5.713,5.713,0,0,1,.846-.053q4.968-.005,9.936,0a2.588,2.588,0,0,0,1.881-.7,2.5,2.5,0,0,0,.67-2.651,3.544,3.544,0,0,0-1.865-2.252,2.983,2.983,0,0,0-1.442-.346c-1.55.014-3.1.021-4.651,0-.711-.011-1.422.022-2.133.011a4.171,4.171,0,0,1-.8-.05.3.3,0,0,1,.206-.156,8.148,8.148,0,0,0,1.252-.525,15.341,15.341,0,0,0,2-1.079c.313-.209.66-.363.978-.571a19.387,19.387,0,0,0,2.407-1.874c.371-.338.744-.676,1.1-1.03s.686-.756,1.053-1.109c.223-.215.378-.488.621-.683a2.546,2.546,0,0,1,2.172,1.1,2.961,2.961,0,0,1,.335,2.451.492.492,0,0,0,.295-.209,2.26,2.26,0,0,1,1.8-.789,2.581,2.581,0,0,1,2.3,1.329,2.633,2.633,0,0,1-.357,3.077c-.342.344-.678.694-1.017,1.042a2.631,2.631,0,0,1-.636.436c-.486.2-.962.424-1.446.627-.166.07-.224.16-.155.333a4.506,4.506,0,0,1,.143,1.61c0,.076-.088.167.005.224s.186-.032.261-.08q.6-.375,1.217-.705c.8-.426,1.587-.868,2.385-1.294.777-.415,1.54-.858,2.316-1.277a5.3,5.3,0,0,0,1.607-1.108c.229-.266.346-.6.584-.86a2.423,2.423,0,0,1,1.3.65,2.632,2.632,0,0,1-.328,4.076c-.647.42-1.344.751-2.017,1.126-1.452.808-2.91,1.6-4.367,2.4q-1.621.889-3.244,1.773c-1.18.646-2.353,1.306-3.542,1.937-1.253.664-2.46,1.418-3.754,2a5.207,5.207,0,0,1-2.612.383c-.548-.045-1.1-.1-1.647-.112-1.222-.022-2.438-.128-3.654-.239-.83-.076-1.663-.109-2.495-.16s-1.647-.106-2.472-.145c-.9-.042-1.8-.157-2.7-.229-.411-.033-.825-.05-1.237-.059-.809-.017-1.614-.129-2.426-.11-.281.006-.567-.044-.854-.055a.864.864,0,0,0-.58.175q-1.184.89-2.362,1.786-1.4,1.068-2.8,2.143c-.893.686-1.783,1.375-2.679,2.057a1.441,1.441,0,0,1-1.485.341,1.7,1.7,0,0,1-.567-.369c-.6-.594-1.194-1.194-1.791-1.792a.322.322,0,0,1-.114-.182" transform="translate(-39.571 -173.946)" fill="#fdafa0"/>
          <path id="Path_880137" data-name="Path 880137" d="M155.26,23.508a6.543,6.543,0,0,1,.335-.789.207.207,0,0,1,.14-.113c.449.067.9.155,1.344.224a23.889,23.889,0,0,1,2.741.636c.317.088.62.23.94.3a7.34,7.34,0,0,1,1.043.406,22.708,22.708,0,0,1,5.74,3.344,23.364,23.364,0,0,1,2.208,2,24.651,24.651,0,0,1,2.769,3.45c.6.9,1.065,1.871,1.615,2.8a.586.586,0,0,1,.038.182c-.013.088.026.171-.088.249a4.175,4.175,0,0,0-.78.76c-.283.331-.526.695-.794,1.035a5.363,5.363,0,0,0-.749,1.316A7.459,7.459,0,0,0,171.208,41c-.081.549-.241,1.084-.307,1.64a7.387,7.387,0,0,0,.457,3.5,6.082,6.082,0,0,0,1.132,1.907,9.192,9.192,0,0,0,1.569,1.439,13.272,13.272,0,0,0,1.773.989,4.211,4.211,0,0,1-.115.746c-.263.778-.43,1.584-.728,2.352A24.949,24.949,0,0,1,173,57.715c-.216.348-.417.705-.634,1.053a1.518,1.518,0,0,1-.216.227c-.657-.213-1.321-.4-1.967-.645-.464-.175-.95-.279-1.41-.461a.9.9,0,0,1-.294-.166.817.817,0,0,1,.118-.367,21.7,21.7,0,0,0,1.684-3.569c.228-.619.435-1.246.607-1.887a.974.974,0,0,0-.314-1.076,5.522,5.522,0,0,1-1.293-2.079,6.7,6.7,0,0,1-.466-2.914,8.567,8.567,0,0,1,.212-1.626c.147-.544.255-1.1.454-1.63a9.177,9.177,0,0,1,1.194-2.23.826.826,0,0,0,.234-.666,5.29,5.29,0,0,0-.165-.658c-.218-.626-.421-1.256-.661-1.875a19.586,19.586,0,0,0-.971-2.14,25.414,25.414,0,0,0-1.686-2.75,22.739,22.739,0,0,0-4.059-4.388,21.96,21.96,0,0,0-2.537-1.861,24.6,24.6,0,0,0-3.582-1.825,18.227,18.227,0,0,0-1.987-.674" transform="translate(-124.912 -18.187)" fill="#8dc637"/>
          <path id="Path_880138" data-name="Path 880138" d="M240.014,99.942a13.307,13.307,0,0,1-1.774-.989,9.2,9.2,0,0,1-1.569-1.439,6.08,6.08,0,0,1-1.133-1.907,7.386,7.386,0,0,1-.457-3.5c.066-.556.226-1.09.307-1.64a7.457,7.457,0,0,1,.555-1.689,5.363,5.363,0,0,1,.749-1.316c.268-.34.511-.7.794-1.035a4.175,4.175,0,0,1,.78-.76c.114-.079.075-.162.088-.25a.362.362,0,0,0,.329-.108,8.448,8.448,0,0,1,1.948-1.129.911.911,0,0,1,.707-.024.663.663,0,0,1,.364.792,5.623,5.623,0,0,0-.089,1.133,2.459,2.459,0,0,0,.769,1.772c.551.569,1.134,1.107,1.7,1.665a6.894,6.894,0,0,1,1.632,2.386,4.336,4.336,0,0,1,.236,1.3,6.46,6.46,0,0,1-.2,2.239,12.2,12.2,0,0,1-.53,1.528c-.329.746-.705,1.467-1.1,2.178a2.5,2.5,0,0,0-.3.488c-.1-.125-.2-.257-.307-.372a11.18,11.18,0,0,1-1.706-2.435,13.425,13.425,0,0,1-1.089-2.749,12.957,12.957,0,0,1-.456-3.033,2.2,2.2,0,0,0-.18-.775c-.127-.293-.641-.638-.9-.568-.646.175-1,.414-1.017,1.131-.009.512.107,1.011.144,1.517a9.856,9.856,0,0,0,.271,1.719,16.275,16.275,0,0,0,1.333,3.556,15.915,15.915,0,0,0,1.464,2.282.625.625,0,0,1,.2.455,2.288,2.288,0,0,1-.79-.2,2.622,2.622,0,0,0-.768-.227" transform="translate(-189.093 -67.662)" fill="#99d43a"/>
          <path id="Path_880139" data-name="Path 880139" d="M17.339,185.869a8.52,8.52,0,0,1,.995,1.489c.114.205.21.42.311.633a.881.881,0,0,1,.053.795.58.58,0,0,1-.531.363,1.587,1.587,0,0,1-.46-.018,3,3,0,0,0-1.56.047,2.866,2.866,0,0,0-1.183.693c-.434.391-.829.821-1.225,1.251a8.9,8.9,0,0,1-2.246,1.834.325.325,0,0,0-.229.062,4.6,4.6,0,0,1-1.568.373,7.957,7.957,0,0,1-3.956-.809,18.844,18.844,0,0,1-2.366-1.228.172.172,0,0,0-.251.045q-.6.651-1.2,1.306a1.694,1.694,0,0,1-.719.511,1.064,1.064,0,0,1-1.2-.852,1.2,1.2,0,0,1,.324-.962,23.707,23.707,0,0,1,1.637-1.776c.12-.1.234-.215.354-.319a.239.239,0,0,0,.1-.207.511.511,0,0,0,.3-.1,13.764,13.764,0,0,1,1.762-1.231c.462-.245.915-.508,1.392-.725a12.266,12.266,0,0,1,2.267-.838c.236-.055.469-.116.7-.188a9,9,0,0,1,1.69-.285c.44-.049.881-.093,1.322-.136a1.153,1.153,0,0,1,1.048.4,1,1,0,0,1-.565,1.608,5.858,5.858,0,0,1-.959.123,14.223,14.223,0,0,0-2.74.451,14.855,14.855,0,0,0-2.082.791c-.624.3-1.191.689-1.78,1.043-.048.029-.114.046-.107.117a.161.161,0,0,0,.128.132,7.843,7.843,0,0,0,1.36.344c.441.045.653.321.514.737-.052.156-.033.247.165.245.609-.006,1.218,0,1.827,0,.123,0,.189-.016.122-.164a1.222,1.222,0,0,1-.034-.6.228.228,0,0,1,.195-.214,4.208,4.208,0,0,0,1.038-.38,10.28,10.28,0,0,0,2.418-2.05,5.637,5.637,0,0,1,1.9-1.568,1.93,1.93,0,0,1,1.006-.225,4.077,4.077,0,0,0,1.011.158.952.952,0,0,0,.618-.2c.157-.141.182-.389.4-.469" transform="translate(0 -149.316)" fill="#8dc637"/>
          <path id="Path_880140" data-name="Path 880140" d="M60.005,5.084A11.492,11.492,0,0,1,59.974,7.1a10.313,10.313,0,0,1-.535,2.255,7.861,7.861,0,0,1-1.151,2.016,7,7,0,0,1-2.359,1.835,7.913,7.913,0,0,1-1.824.652,8.943,8.943,0,0,1-3.169.311,7.582,7.582,0,0,1-2.289-.483,10.144,10.144,0,0,1-1.1-.487c-.252-.15-.562-.2-.754-.451.1-.048.18-.136.311-.108a6.794,6.794,0,0,0,1.181.084,8.534,8.534,0,0,0,2.513-.261,11.662,11.662,0,0,0,2.055-.706,7.415,7.415,0,0,0,2.308-1.788c.056-.062.181-.125.113-.213-.085-.111-.191-.01-.276.043a7.125,7.125,0,0,1-.618.425c-.311.153-.6.341-.914.5a12.2,12.2,0,0,1-1.378.653.96.96,0,0,1-1.117-.513,1.026,1.026,0,0,1,.516-1.41c.436-.211.871-.422,1.3-.656a13.924,13.924,0,0,0,1.757-1.186,12.221,12.221,0,0,0,1.98-1.957c.128-.155.323-.3.324-.5a9.6,9.6,0,0,0-.063-1.987,6.332,6.332,0,0,0-.265-.656,9.9,9.9,0,0,1,1.421.166c.4.05.443.04.564-.335.167-.516.389-1.012.52-1.542a.977.977,0,0,1,.813-.781A.988.988,0,0,1,60.9.494a1.106,1.106,0,0,1,.064.919,13.787,13.787,0,0,1-.989,2.558.843.843,0,0,0-.073.741c.045.121.072.248.107.372" transform="translate(-37.643 0)" fill="#8dc637"/>
          <path id="Path_880141" data-name="Path 880141" d="M49.1,12.726a6.286,6.286,0,0,1,.265.656,9.6,9.6,0,0,1,.063,1.987c0,.2-.2.346-.324.5a12.231,12.231,0,0,1-1.98,1.957,13.935,13.935,0,0,1-1.757,1.186c-.426.233-.86.445-1.3.656a1.026,1.026,0,0,0-.516,1.41.96.96,0,0,0,1.117.513,12.235,12.235,0,0,0,1.378-.653c.309-.158.6-.345.914-.5a7.094,7.094,0,0,0,.618-.425c.084-.053.191-.154.276-.043.068.089-.057.151-.113.213a7.416,7.416,0,0,1-2.309,1.788,11.661,11.661,0,0,1-2.055.706,8.533,8.533,0,0,1-2.513.261,6.792,6.792,0,0,1-1.181-.084c-.131-.028-.212.059-.311.108A7.161,7.161,0,0,1,37.788,21.7a.7.7,0,0,1,.411-1.194,3,3,0,0,0,2.571-2.087c.283-.7.536-1.41.831-2.1a5.636,5.636,0,0,1,1.71-2.358,5.857,5.857,0,0,1,2.617-1.1,14.736,14.736,0,0,1,3.176-.132" transform="translate(-30.234 -10.217)" fill="#99d43a"/>
          <path id="Path_880142" data-name="Path 880142" d="M27.3,173.09c-.22.081-.245.328-.4.47a.952.952,0,0,1-.618.2,4.077,4.077,0,0,1-1.011-.158,1.93,1.93,0,0,0-1.006.225,5.637,5.637,0,0,0-1.9,1.568,10.279,10.279,0,0,1-2.418,2.05,4.208,4.208,0,0,1-1.038.38.228.228,0,0,0-.195.214,1.222,1.222,0,0,0,.034.6c.068.148,0,.164-.122.164-.609,0-1.218,0-1.827,0-.2,0-.217-.089-.165-.245.139-.416-.073-.692-.514-.737a7.84,7.84,0,0,1-1.36-.344.161.161,0,0,1-.128-.132c-.007-.071.059-.088.107-.116.589-.354,1.155-.745,1.779-1.043a14.857,14.857,0,0,1,2.082-.791,14.225,14.225,0,0,1,2.74-.451,5.856,5.856,0,0,0,.959-.123,1,1,0,0,0,.565-1.608,1.153,1.153,0,0,0-1.048-.4c-.441.043-.882.087-1.322.136a9,9,0,0,0-1.69.285c-.231.072-.464.133-.7.188a12.266,12.266,0,0,0-2.267.838c-.478.217-.93.48-1.392.725a13.766,13.766,0,0,0-1.762,1.231.511.511,0,0,1-.3.1,1.961,1.961,0,0,0,.143-.5,10.561,10.561,0,0,1,1.764-3.406,8.711,8.711,0,0,1,1.684-1.568c.21-.122.414-.254.63-.363a7.682,7.682,0,0,1,5.44-.5,10.8,10.8,0,0,1,1.85.573A8.177,8.177,0,0,1,27.212,173a.9.9,0,0,0,.086.085" transform="translate(-9.958 -136.537)" fill="#99d43a"/>
          <path id="Path_880143" data-name="Path 880143" d="M254.441,123.435a.625.625,0,0,0-.2-.455,15.914,15.914,0,0,1-1.464-2.282,16.266,16.266,0,0,1-1.332-3.556,9.82,9.82,0,0,1-.271-1.719c-.037-.506-.154-1.005-.144-1.517.013-.716.371-.956,1.017-1.131.259-.07.772.275.9.568a2.2,2.2,0,0,1,.18.775,12.96,12.96,0,0,0,.456,3.033,13.431,13.431,0,0,0,1.089,2.749,11.188,11.188,0,0,0,1.706,2.435c.112.115.205.247.307.372.5.477.992.953,1.532,1.382a.983.983,0,0,1,.413,1.128,1.145,1.145,0,0,1-.887.72.9.9,0,0,1-.722-.22,16.127,16.127,0,0,1-2-1.826,1.633,1.633,0,0,0-.582-.457" transform="translate(-201.962 -90.725)" fill="#8dc637"/>
          <path id="Path_880144" data-name="Path 880144" d="M261.7,246.194c-.239.256-.355.594-.585.86a5.3,5.3,0,0,1-1.607,1.108c-.776.418-1.539.862-2.316,1.277-.8.426-1.587.869-2.385,1.294q-.622.332-1.217.706c-.076.047-.16.142-.261.079s0-.148-.005-.224a4.508,4.508,0,0,0-.143-1.61c-.07-.172-.012-.263.155-.332.485-.2.961-.426,1.446-.627a2.629,2.629,0,0,0,.636-.436c.016.144.09.146.2.094.5-.229,1-.457,1.5-.678.83-.364,1.663-.721,2.493-1.084a3.1,3.1,0,0,1,1.06-.4,2.364,2.364,0,0,1,1.024-.026" transform="translate(-203.668 -198.027)" fill="#ffcdc0"/>
          <path id="Path_880145" data-name="Path 880145" d="M89.6,27.22a18.228,18.228,0,0,1,1.987.674,24.6,24.6,0,0,1,3.582,1.825A21.961,21.961,0,0,1,97.7,31.58a22.739,22.739,0,0,1,4.059,4.388,25.413,25.413,0,0,1,1.686,2.75,19.583,19.583,0,0,1,.971,2.14c.24.619.442,1.25.661,1.875a5.3,5.3,0,0,1,.165.658.826.826,0,0,1-.234.666,9.179,9.179,0,0,0-1.194,2.23c-.2.535-.307,1.086-.454,1.63a8.564,8.564,0,0,0-.212,1.626,6.7,6.7,0,0,0,.466,2.914,5.522,5.522,0,0,0,1.293,2.079.974.974,0,0,1,.314,1.076c-.172.641-.38,1.268-.607,1.887a21.7,21.7,0,0,1-1.684,3.569.817.817,0,0,0-.118.367c-.343-.093-.683-.194-1.021-.309a15.126,15.126,0,0,0-2.127-.678,1.378,1.378,0,0,0-1.647.724c-.429.7-.884,1.377-1.332,2.062a2.838,2.838,0,0,1-1.3.888c-1.036.5-2.088.96-3.128,1.448a1.419,1.419,0,0,1-1.515-.126Q90,64.923,89.25,64.4l-2.619-1.843a4.642,4.642,0,0,1-.9-.65,1.5,1.5,0,0,1-.4-1.009c.011-.322.26-.588.226-.928,0-.025.116-.124.168-.206.234-.374.309-.819.559-1.186a1.356,1.356,0,0,1,.791-.6c1.205-.319,2.412-.632,3.625-.917.543-.127,1.078-.291,1.623-.418a1.719,1.719,0,0,0,1.13-1.028c.507-1.016,1.027-2.025,1.544-3.036a1.581,1.581,0,0,0-.088-1.717c-.549-.842-1.05-1.715-1.566-2.577a4.406,4.406,0,0,1-.382-.618c-.04-.1-.161-.09-.241-.14a1.9,1.9,0,0,0-1.13-.311c-.316.016-.633,0-.949,0a2.387,2.387,0,0,0-1.077.3,1.637,1.637,0,0,0-.5.615c-.655,1.006-1.3,2.019-1.947,3.029a7.485,7.485,0,0,1-.831,1.169,1.191,1.191,0,0,1-1.1.308,8.615,8.615,0,0,1-1.4-.4c-.339-.11-.687-.193-1.03-.285a1.4,1.4,0,0,0-1.353.426c-.379.353-.745.722-1.1,1.1a1.475,1.475,0,0,1-1.091.486,1.641,1.641,0,0,1-.888-.359c-.748-.5-1.491-1.008-2.247-1.495a2.106,2.106,0,0,1-.832-.956c-.163-.379-.314-.763-.467-1.146-.343-.857-.677-1.718-1.029-2.572a1.239,1.239,0,0,1,.029-1.057c.32-.676.763-1.28,1.121-1.934.268-.489.559-.964.841-1.444a9.986,9.986,0,0,1,.557-.923,1.352,1.352,0,0,1,1.467-.495,16.913,16.913,0,0,1,1.995.637q1.043.329,2.079.678a1.478,1.478,0,0,0,1.176-.079c.643-.329,1.28-.674,1.924-1a7.442,7.442,0,0,1,1.234-.6,5.9,5.9,0,0,0,.875-.482c.715-.349,1.408-.742,2.128-1.083a2.305,2.305,0,0,0,.692-.515,1.538,1.538,0,0,0,.27-1.274c-.009-.143-.029-.289-.03-.433a17.676,17.676,0,0,0-.1-1.865,1.552,1.552,0,0,0-.657-1.307c-.477-.287-.948-.587-1.409-.9a1.473,1.473,0,0,1-.665-1.3.763.763,0,0,1,.139-.35c.219-.456.391-.933.632-1.379a13.8,13.8,0,0,0,.747-1.475c.169-.429.449-.8.59-1.237a1.254,1.254,0,0,1,.218-.4" transform="translate(-59.248 -21.899)" fill="#99d43a"/>
        </g>
      </g>
    </g>
  </g>
</svg>
