<svg xmlns="http://www.w3.org/2000/svg" xmlns:xlink="http://www.w3.org/1999/xlink" width="121" height="121" viewBox="0 0 121 121">
  <defs>
    <clipPath id="clip-path">
      <rect id="Rectangle_400938" data-name="Rectangle 400938" width="121" height="121" transform="translate(0 0)" fill="none"/>
    </clipPath>
    <clipPath id="clip-path-2">
      <rect id="Rectangle_401073" data-name="Rectangle 401073" width="92.219" height="41.532" fill="#efb499"/>
    </clipPath>
    <clipPath id="clip-path-3">
      <rect id="Rectangle_402270" data-name="Rectangle 402270" width="65.333" height="49.5" fill="none"/>
    </clipPath>
  </defs>
  <g id="Group_1101309" data-name="Group 1101309" transform="translate(-739.996 -5846)">
    <g id="Group_1100441" data-name="Group 1100441" transform="translate(352.328 -167)">
      <rect id="Rectangle_401103" data-name="Rectangle 401103" width="121" height="121" transform="translate(387.668 6013)" fill="none"/>
      <g id="Group_1099348" data-name="Group 1099348" transform="translate(387.668 6013)">
        <g id="Group_1099282" data-name="Group 1099282">
          <g id="Group_1099281" data-name="Group 1099281" clip-path="url(#clip-path-2)">
            <path id="Path_873375" data-name="Path 873375" d="M74.8,9.1c-4.139,0-6.28-2.03-8.17-3.821-1.855-1.756-3.452-3.274-6.792-3.274s-4.937,1.517-6.792,3.274C51.161,7.072,49.023,9.1,44.881,9.1s-6.28-2.03-8.169-3.821C34.857,3.525,33.26,2.007,29.92,2.007s-4.937,1.517-6.789,3.274C21.241,7.072,19.1,9.1,14.962,9.1S8.679,7.072,6.789,5.281C4.937,3.525,3.34,2.007,0,2.007V0C4.139,0,6.28,2.033,8.17,3.821c1.855,1.759,3.452,3.274,6.792,3.274S19.9,5.58,21.75,3.824C23.637,2.033,25.781,0,29.92,0s6.283,2.033,8.17,3.821c1.855,1.759,3.452,3.274,6.792,3.274s4.937-1.514,6.792-3.274C53.56,2.033,55.7,0,59.843,0s6.283,2.033,8.17,3.821C69.867,5.58,71.464,7.094,74.8,7.094S79.742,5.58,81.6,3.821C83.483,2.033,85.624,0,89.766,0V2.007c-3.34,0-4.937,1.517-6.792,3.274C81.084,7.072,78.943,9.1,74.8,9.1" transform="translate(2.453 32.43)" fill="#efb499"/>
            <path id="Path_873376" data-name="Path 873376" d="M74.8,9.1c-4.139,0-6.283-2.03-8.17-3.824-1.855-1.756-3.452-3.27-6.792-3.27s-4.937,1.514-6.792,3.27C51.164,7.072,49.023,9.1,44.881,9.1s-6.283-2.03-8.17-3.824c-1.855-1.756-3.452-3.27-6.792-3.27s-4.937,1.517-6.789,3.27C21.241,7.072,19.1,9.1,14.962,9.1S8.679,7.072,6.789,5.278C4.937,3.522,3.34,2.007,0,2.007V0C4.139,0,6.283,2.03,8.17,3.821c1.855,1.759,3.452,3.274,6.792,3.274S19.9,5.58,21.75,3.821C23.637,2.03,25.781,0,29.92,0S36.2,2.03,38.093,3.821c1.852,1.759,3.449,3.274,6.789,3.274s4.937-1.514,6.792-3.274C53.56,2.03,55.7,0,59.843,0s6.283,2.03,8.17,3.821C69.867,5.58,71.464,7.094,74.8,7.094S79.742,5.58,81.6,3.821C83.486,2.03,85.627,0,89.769,0V2.007c-3.34,0-4.94,1.517-6.8,3.27C81.084,7.072,78.943,9.1,74.8,9.1" transform="translate(1.635 21.62)" fill="#efb499"/>
            <path id="Path_873377" data-name="Path 873377" d="M74.8,9.1c-4.139,0-6.283-2.03-8.169-3.824-1.855-1.756-3.452-3.27-6.792-3.27s-4.937,1.514-6.792,3.27C51.164,7.072,49.02,9.1,44.881,9.1s-6.283-2.03-8.17-3.824c-1.855-1.756-3.452-3.27-6.792-3.27s-4.937,1.517-6.789,3.27C21.241,7.072,19.1,9.1,14.962,9.1S8.678,7.072,6.789,5.278C4.937,3.522,3.34,2.007,0,2.007V0C4.139,0,6.283,2.03,8.169,3.821c1.851,1.759,3.452,3.274,6.792,3.274S19.9,5.58,21.75,3.821C23.637,2.03,25.781,0,29.92,0S36.2,2.03,38.093,3.821c1.852,1.759,3.449,3.274,6.789,3.274s4.937-1.514,6.792-3.274C53.56,2.03,55.7,0,59.843,0s6.283,2.03,8.17,3.821C69.867,5.58,71.464,7.094,74.8,7.094S79.742,5.58,81.6,3.821C83.486,2.03,85.624,0,89.769,0V2.007c-3.34,0-4.941,1.517-6.8,3.27C81.084,7.072,78.943,9.1,74.8,9.1" transform="translate(0.818 10.81)" fill="#efb499"/>
            <path id="Path_873378" data-name="Path 873378" d="M74.8,9.1c-4.139,0-6.28-2.03-8.17-3.821-1.855-1.756-3.452-3.27-6.792-3.27s-4.937,1.514-6.789,3.27C51.164,7.069,49.023,9.1,44.881,9.1s-6.28-2.03-8.169-3.821c-1.855-1.756-3.452-3.27-6.792-3.27s-4.937,1.514-6.789,3.267C21.245,7.069,19.1,9.1,14.962,9.1S8.678,7.069,6.789,5.278C4.937,3.522,3.34,2.007,0,2.007V0C4.139,0,6.283,2.03,8.17,3.821c1.855,1.756,3.452,3.27,6.792,3.27S19.9,5.577,21.75,3.821C23.64,2.03,25.781,0,29.92,0s6.28,2.03,8.173,3.821c1.852,1.756,3.449,3.27,6.789,3.27s4.937-1.514,6.792-3.27C53.563,2.03,55.7,0,59.843,0s6.28,2.03,8.17,3.821c1.855,1.756,3.452,3.27,6.792,3.27s4.937-1.514,6.792-3.27C83.486,2.03,85.627,0,89.769,0V2.007c-3.344,0-4.941,1.514-6.8,3.27C81.084,7.069,78.943,9.1,74.8,9.1" transform="translate(0 0.003)" fill="#efb499"/>
          </g>
        </g>
      </g>
      <circle id="Ellipse_11504" data-name="Ellipse 11504" cx="50.5" cy="50.5" r="50.5" transform="translate(402.668 6031)" fill="#ffce73"/>
      <circle id="Ellipse_11503" data-name="Ellipse 11503" cx="52.5" cy="52.5" r="52.5" transform="translate(395.668 6021)" fill="#f3f9ff"/>
    </g>
    <g id="Group_1100444" data-name="Group 1100444" transform="translate(765.938 5871.804)">
      <rect id="Rectangle_401104" data-name="Rectangle 401104" width="68" height="69" transform="translate(0.062 -0.804)" fill="none"/>
      <g id="Group_1100470" data-name="Group 1100470" transform="translate(2.729 9.196)">
        <path id="Path_880105" data-name="Path 880105" d="M75.436,88.278,77.7,93.042l8.925-5.3-3.718,8.349,9.818,2.844-5.25,5.259,2.729,7.235L80.114,109l.129,10.38-5.861-10.532L67.5,119.065l.639-10.36-10.2,1.93,7.15-7.526-9.053-5.078,10.313-1.17-3.672-9.71,8.387,3.677Z" transform="translate(-50.174 -78.034)" fill="#f5841f"/>
        <g id="Group_1100469" data-name="Group 1100469">
          <g id="Group_1100468" data-name="Group 1100468" clip-path="url(#clip-path-3)">
            <path id="Path_880106" data-name="Path 880106" d="M114.461,340.912v-.881a1.915,1.915,0,0,0-1.875-1.952H87.076a1.916,1.916,0,0,0-1.877,1.952v.881Z" transform="translate(-76.635 -302.711)" fill="#9e4a23"/>
            <path id="Path_880107" data-name="Path 880107" d="M80.739,370.774v-2.825a2.733,2.733,0,0,0-2.677-2.787H45.667a2.733,2.733,0,0,0-2.676,2.787v2.825Z" transform="translate(-38.67 -326.96)" fill="#753617"/>
            <path id="Path_880108" data-name="Path 880108" d="M43.908,424.488H2.482c-3.274,0-3.345-5.686,0-5.686H43.908c3.334,0,3.283,5.686,0,5.686" transform="translate(0 -374.989)" fill="#9e4a23"/>
            <path id="Path_880109" data-name="Path 880109" d="M402.973,181.535l-.652,1.46,24.731,11.945c2.015-4.52-15.082-11.868-22.69-12.735l-1.389-.671" transform="translate(-361.883 -162.544)" fill="#9e4a23"/>
            <path id="Path_880110" data-name="Path 880110" d="M396.491,195.493l-.651,1.461,1.39.671c5.189,5.134,21.938,14.422,23.991,9.815,0,0-24.727-11.946-24.73-11.947" transform="translate(-356.053 -175.041)" fill="#753617"/>
            <path id="Path_880111" data-name="Path 880111" d="M348.066,162.218l-4.79-2.313,1.3-2.922,4.789,2.314Z" transform="translate(-308.772 -140.56)" fill="#753617"/>
            <path id="Path_880112" data-name="Path 880112" d="M377.823,161.536l-1.877,4.209c-.717,1.609-3.511.3-2.778-1.342l1.877-4.209c.731-1.639,3.5-.272,2.778,1.342" transform="translate(-335.551 -142.772)" fill="#9e4a23"/>
            <path id="Path_880113" data-name="Path 880113" d="M221.661,90.922l-13.345-6.446,3.387-7.6,13.345,6.445Z" transform="translate(-187.378 -68.838)" fill="#fcee3b"/>
            <path id="Path_880120" data-name="Path 880120" d="M0,0,8.316-.125,8.258,3.638l-8.316.125Z" transform="translate(22.552 16.418) rotate(-65.112)" fill="#fdf4a2"/>
            <path id="Path_880114" data-name="Path 880114" d="M261.052,5.894,248.989.068a.7.7,0,0,0-.939.358l-3.1,6.955,13.345,6.446,3.1-6.955a.749.749,0,0,0-.344-.977" transform="translate(-220.329 0)" fill="#753617"/>
            <path id="Path_880115" data-name="Path 880115" d="M242.347,61.45l-15.182-7.334c-1.319-.637-.38-2.67.912-2.046L243.26,59.4c1.294.626.4,2.682-.914,2.046" transform="translate(-203.758 -46.518)" fill="#9e4a23"/>
            <path id="Path_880116" data-name="Path 880116" d="M259.724,24.007,244.54,16.673c-1.319-.637-.38-2.67.912-2.046l15.183,7.333c1.3.626.406,2.682-.911,2.046" transform="translate(-219.387 -12.992)" fill="#9e4a23"/>
            <path id="Path_880117" data-name="Path 880117" d="M174.288,163.74l12.062,5.825a.7.7,0,0,0,.939-.358l3.1-6.955-13.343-6.446-3.1,6.955a.75.75,0,0,0,.344.977" transform="translate(-156.402 -139.507)" fill="#753617"/>
            <path id="Path_880118" data-name="Path 880118" d="M185.355,144.209l15.184,7.333c1.318.637.38,2.671-.913,2.046l-15.183-7.334c-1.3-.626-.4-2.682.912-2.046" transform="translate(-165.335 -129.015)" fill="#9e4a23"/>
            <path id="Path_880119" data-name="Path 880119" d="M167.973,181.651l15.183,7.333c1.319.637.381,2.67-.912,2.046L167.06,183.7c-1.294-.625-.4-2.682.913-2.046" transform="translate(-149.7 -162.54)" fill="#9e4a23"/>
          </g>
        </g>
      </g>
    </g>
  </g>
</svg>
