<svg xmlns="http://www.w3.org/2000/svg" xmlns:xlink="http://www.w3.org/1999/xlink" width="121" height="121" viewBox="0 0 121 121">
  <defs>
    <clipPath id="clip-path">
      <rect id="Rectangle_400938" data-name="Rectangle 400938" width="121" height="121" transform="translate(0 0)" fill="none"/>
    </clipPath>
    <clipPath id="clip-path-2">
      <rect id="Rectangle_401073" data-name="Rectangle 401073" width="92.219" height="41.532" fill="#efb499"/>
    </clipPath>
    <clipPath id="clip-path-3">
      <rect id="Rectangle_402304" data-name="Rectangle 402304" width="65.504" height="55.313" fill="none"/>
    </clipPath>
  </defs>
  <g id="Group_1101312" data-name="Group 1101312" transform="translate(-1493.996 5433)">
    <g id="Group_1100457" data-name="Group 1100457" transform="translate(1106.328 -11446)">
      <rect id="Rectangle_401103" data-name="Rectangle 401103" width="121" height="121" transform="translate(387.668 6013)" fill="none"/>
      <g id="Group_1099348" data-name="Group 1099348" transform="translate(387.668 6013)">
        <g id="Group_1099282" data-name="Group 1099282">
          <g id="Group_1099281" data-name="Group 1099281" clip-path="url(#clip-path-2)">
            <path id="Path_873375" data-name="Path 873375" d="M74.8,9.1c-4.139,0-6.28-2.03-8.17-3.821-1.855-1.756-3.452-3.274-6.792-3.274s-4.937,1.517-6.792,3.274C51.161,7.072,49.023,9.1,44.881,9.1s-6.28-2.03-8.169-3.821C34.857,3.525,33.26,2.007,29.92,2.007s-4.937,1.517-6.789,3.274C21.241,7.072,19.1,9.1,14.962,9.1S8.679,7.072,6.789,5.281C4.937,3.525,3.34,2.007,0,2.007V0C4.139,0,6.28,2.033,8.17,3.821c1.855,1.759,3.452,3.274,6.792,3.274S19.9,5.58,21.75,3.824C23.637,2.033,25.781,0,29.92,0s6.283,2.033,8.17,3.821c1.855,1.759,3.452,3.274,6.792,3.274s4.937-1.514,6.792-3.274C53.56,2.033,55.7,0,59.843,0s6.283,2.033,8.17,3.821C69.867,5.58,71.464,7.094,74.8,7.094S79.742,5.58,81.6,3.821C83.483,2.033,85.624,0,89.766,0V2.007c-3.34,0-4.937,1.517-6.792,3.274C81.084,7.072,78.943,9.1,74.8,9.1" transform="translate(2.453 32.43)" fill="#efb499"/>
            <path id="Path_873376" data-name="Path 873376" d="M74.8,9.1c-4.139,0-6.283-2.03-8.17-3.824-1.855-1.756-3.452-3.27-6.792-3.27s-4.937,1.514-6.792,3.27C51.164,7.072,49.023,9.1,44.881,9.1s-6.283-2.03-8.17-3.824c-1.855-1.756-3.452-3.27-6.792-3.27s-4.937,1.517-6.789,3.27C21.241,7.072,19.1,9.1,14.962,9.1S8.679,7.072,6.789,5.278C4.937,3.522,3.34,2.007,0,2.007V0C4.139,0,6.283,2.03,8.17,3.821c1.855,1.759,3.452,3.274,6.792,3.274S19.9,5.58,21.75,3.821C23.637,2.03,25.781,0,29.92,0S36.2,2.03,38.093,3.821c1.852,1.759,3.449,3.274,6.789,3.274s4.937-1.514,6.792-3.274C53.56,2.03,55.7,0,59.843,0s6.283,2.03,8.17,3.821C69.867,5.58,71.464,7.094,74.8,7.094S79.742,5.58,81.6,3.821C83.486,2.03,85.627,0,89.769,0V2.007c-3.34,0-4.94,1.517-6.8,3.27C81.084,7.072,78.943,9.1,74.8,9.1" transform="translate(1.635 21.62)" fill="#efb499"/>
            <path id="Path_873377" data-name="Path 873377" d="M74.8,9.1c-4.139,0-6.283-2.03-8.169-3.824-1.855-1.756-3.452-3.27-6.792-3.27s-4.937,1.514-6.792,3.27C51.164,7.072,49.02,9.1,44.881,9.1s-6.283-2.03-8.17-3.824c-1.855-1.756-3.452-3.27-6.792-3.27s-4.937,1.517-6.789,3.27C21.241,7.072,19.1,9.1,14.962,9.1S8.678,7.072,6.789,5.278C4.937,3.522,3.34,2.007,0,2.007V0C4.139,0,6.283,2.03,8.169,3.821c1.851,1.759,3.452,3.274,6.792,3.274S19.9,5.58,21.75,3.821C23.637,2.03,25.781,0,29.92,0S36.2,2.03,38.093,3.821c1.852,1.759,3.449,3.274,6.789,3.274s4.937-1.514,6.792-3.274C53.56,2.03,55.7,0,59.843,0s6.283,2.03,8.17,3.821C69.867,5.58,71.464,7.094,74.8,7.094S79.742,5.58,81.6,3.821C83.486,2.03,85.624,0,89.769,0V2.007c-3.34,0-4.941,1.517-6.8,3.27C81.084,7.072,78.943,9.1,74.8,9.1" transform="translate(0.818 10.81)" fill="#efb499"/>
            <path id="Path_873378" data-name="Path 873378" d="M74.8,9.1c-4.139,0-6.28-2.03-8.17-3.821-1.855-1.756-3.452-3.27-6.792-3.27s-4.937,1.514-6.789,3.27C51.164,7.069,49.023,9.1,44.881,9.1s-6.28-2.03-8.169-3.821c-1.855-1.756-3.452-3.27-6.792-3.27s-4.937,1.514-6.789,3.267C21.245,7.069,19.1,9.1,14.962,9.1S8.678,7.069,6.789,5.278C4.937,3.522,3.34,2.007,0,2.007V0C4.139,0,6.283,2.03,8.17,3.821c1.855,1.756,3.452,3.27,6.792,3.27S19.9,5.577,21.75,3.821C23.64,2.03,25.781,0,29.92,0s6.28,2.03,8.173,3.821c1.852,1.756,3.449,3.27,6.789,3.27s4.937-1.514,6.792-3.27C53.563,2.03,55.7,0,59.843,0s6.28,2.03,8.17,3.821c1.855,1.756,3.452,3.27,6.792,3.27s4.937-1.514,6.792-3.27C83.486,2.03,85.627,0,89.769,0V2.007c-3.344,0-4.941,1.514-6.8,3.27C81.084,7.069,78.943,9.1,74.8,9.1" transform="translate(0 0.003)" fill="#efb499"/>
          </g>
        </g>
      </g>
      <circle id="Ellipse_11504" data-name="Ellipse 11504" cx="50.5" cy="50.5" r="50.5" transform="translate(402.668 6031)" fill="#ffce73"/>
      <circle id="Ellipse_11503" data-name="Ellipse 11503" cx="52.5" cy="52.5" r="52.5" transform="translate(395.668 6021)" fill="#f3f9ff"/>
    </g>
    <g id="Group_1100461" data-name="Group 1100461" transform="translate(1519.938 -5407.196)">
      <rect id="Rectangle_401104" data-name="Rectangle 401104" width="68" height="69" transform="translate(0.062 -0.804)" fill="none"/>
      <g id="Group_1100497" data-name="Group 1100497" transform="translate(1.063 6.196)">
        <g id="Group_1100496" data-name="Group 1100496" clip-path="url(#clip-path-3)">
          <path id="Path_880218" data-name="Path 880218" d="M189.511,114.992c-1.641,0-3.283.013-4.924.013q-5.335,0-10.67-.006c-.085,0-.17-.014-.255-.022,0-.482-.007-.964-.007-1.446q0-17.9,0-35.807a1.905,1.905,0,0,0-.076-.833.141.141,0,0,1,.013-.134.973.973,0,0,0,.112-.537c.046.264.072.535.144.792.159.566.25,1.146.445,1.707a12.108,12.108,0,0,0,.637,1.593,13.584,13.584,0,0,0,1.418,2.217,15.829,15.829,0,0,0,1.919,1.968,9.574,9.574,0,0,0,1.538,1.1,12.649,12.649,0,0,0,2,.949,19.372,19.372,0,0,0,2.132.591,8.169,8.169,0,0,0,2.25.189,15.833,15.833,0,0,0,2.658-.1c.122.016.223-.058.336-.08a28.5,28.5,0,0,0,2.806-.615c.623-.187,1.221-.441,1.833-.659a15.518,15.518,0,0,0,2.519-1.227,20.191,20.191,0,0,0,2.922-2.052,20.192,20.192,0,0,0,5.016-6.353,16.71,16.71,0,0,0,1.108-2.693c.281,0,.563,0,.844-.005.129,0,.193.028.172.167a.782.782,0,0,0,0,.117v40.8c0,.388,0,.383-.381.383l-11.654,0q-2.4,0-4.806-.009c-.016-.021-.032-.021-.048,0" transform="translate(-140.902 -59.701)" fill="#984f3c"/>
          <path id="Path_880219" data-name="Path 880219" d="M104.037,76.233a.973.973,0,0,1-.112.537.141.141,0,0,0-.014.134,1.9,1.9,0,0,1,.076.833q0,17.9,0,35.807c0,.482,0,.964.007,1.446a1.123,1.123,0,0,1-.4.026q-7.8,0-15.595,0c-.085,0-.171-.011-.256-.016a3.131,3.131,0,0,0,.053-.814c0-.25,0-.5,0-.75q0-19.412,0-38.823a5.068,5.068,0,0,0-.046-1.049l6.379-.006h3.8l6.046,0c.024.89-.039,1.782.052,2.67" transform="translate(-71.237 -59.715)" fill="#c47059"/>
          <path id="Path_880220" data-name="Path 880220" d="M12.771,114.967a7.71,7.71,0,0,1-.983.021Q6.008,114.994.228,115C0,115,0,114.9,0,114.737q0-8.746,0-17.493Q.005,85.531,0,73.819c0-.232.049-.3.29-.295q6.18.013,12.36.007c.039,0,.078,0,.117.005a3.569,3.569,0,0,0,0,1q-.009,9.179,0,18.358,0,10.515,0,21.031a3.364,3.364,0,0,0,.008,1.044" transform="translate(0 -59.687)" fill="#c47059"/>
          <path id="Path_880221" data-name="Path 880221" d="M241.988,13.843a20.02,20.02,0,0,1,.865-2.232,9.8,9.8,0,0,1,.547-1.05c.219-.4.447-.793.672-1.188a7.251,7.251,0,0,1,.451-.677q.465-.637.966-1.251a21.05,21.05,0,0,1,1.585-1.73,11.07,11.07,0,0,1,1.276-1.143c.245-.176.45-.4.7-.572a26.455,26.455,0,0,1,2.43-1.548,16.132,16.132,0,0,1,1.686-.808,7.325,7.325,0,0,1,1.431-.525,6.228,6.228,0,0,0,.735-.264c.356-.106.721-.183,1.08-.283A19.627,19.627,0,0,1,259,.133a10.038,10.038,0,0,1,1.885-.126c.094,0,.2,0,.2.14-.047-.018-.1-.075-.136.007a3.091,3.091,0,0,1-.421.617c-.329.474-.642.961-.993,1.419-.627.817-1.218,1.661-1.825,2.493q-.931,1.276-1.857,2.557-1.086,1.5-2.173,2.992c-.465.637-.956,1.255-1.4,1.907a13.06,13.06,0,0,0-1.19,1.761L251,13.89q-.673-.5-1.346-1c-.216-.161-.251-.15-.4.073q-.312.479-.645.945-.526.738-1.082,1.455c-.44.565-.821,1.174-1.243,1.754-.9,1.242-1.816,2.476-2.72,3.716-.808,1.108-1.609,2.221-2.415,3.332-.044.061-.077.142-.176.132q-.016-1.123-.031-2.247a11.528,11.528,0,0,0-.019-1.28c0-.023,0-.046,0-.069l.01-.062c.042-1.065.078-2.129.193-3.191.094-.862.328-1.69.48-2.537a6.974,6.974,0,0,1,.372-1.071" transform="translate(-195.589 0)" fill="#d6f368"/>
          <path id="Path_880222" data-name="Path 880222" d="M262.324,14.379a13.075,13.075,0,0,1,1.19-1.761c.441-.652.932-1.27,1.4-1.907q1.09-1.494,2.173-2.992.928-1.278,1.857-2.557c.607-.832,1.2-1.675,1.825-2.493.351-.458.664-.944.993-1.419a3.088,3.088,0,0,0,.421-.617c.032-.082.09-.025.136-.006,0,.385.009.77.009,1.154q0,2.811,0,5.622a22.209,22.209,0,0,1-.289,3.852,13.823,13.823,0,0,1-.726,2.886.408.408,0,0,0,0,.183,16.706,16.706,0,0,1-1.108,2.693,19.739,19.739,0,0,1-2.2,3.443,19.94,19.94,0,0,1-2.819,2.91,20.175,20.175,0,0,1-2.922,2.052,15.5,15.5,0,0,1-2.518,1.226c-.612.218-1.21.472-1.833.659a28.445,28.445,0,0,1-2.805.615c-.113.022-.214.1-.336.08a1.055,1.055,0,0,1,.218-.407q1.087-1.5,2.176-2.993,1.7-2.34,3.392-4.683,1.526-2.1,3.059-4.2a.232.232,0,0,0-.063-.387c-.311-.219-.618-.444-.926-.667a.956.956,0,0,1-.3-.286" transform="translate(-206.825 -0.48)" fill="#91e100"/>
          <path id="Path_880223" data-name="Path 880223" d="M67.646,114.866a3.364,3.364,0,0,1-.008-1.044q0-10.515,0-21.031,0-9.179,0-18.358a3.568,3.568,0,0,1,0-1c.14-.08.282,0,.423,0,1.11,0,2.22,0,3.329,0a5.08,5.08,0,0,1,.046,1.049q0,19.412,0,38.823c0,.25,0,.5,0,.75a3.131,3.131,0,0,1-.053.814c-.983.039-1.966.012-2.949.017-.265,0-.53-.014-.794-.023" transform="translate(-54.874 -59.586)" fill="#984f3c"/>
          <path id="Path_880224" data-name="Path 880224" d="M144.886,27.5a6.973,6.973,0,0,0-.372,1.071c-.152.847-.387,1.675-.48,2.537-.115,1.063-.152,2.126-.193,3.191l-.01.062c0,.023,0,.046,0,.069q-.007.371-.014.741c-.052-.04-.033-.1-.042-.151a9.731,9.731,0,0,0-.225-1.283c-.188-.592-.321-1.2-.558-1.78a14.354,14.354,0,0,0-1.123-2.2,13.61,13.61,0,0,0-2.21-2.613c-.187-.179-.412-.3-.6-.477a7.361,7.361,0,0,0-.813-.6c-.3-.213-.627-.4-.942-.591l-.015-.109c-.01-.171-.028-.342-.029-.514-.007-1.273-.017-2.545-.008-3.818,0-.236-.055-.3-.294-.3q-5.752.01-11.5,0c-.077,0-.154.012-.231.019l-.018,0,.012.013c0,.07.01.14.01.21q0,2.4-.005,4.8c0,.57.011,1.14-.032,1.709h-3.805c0-.384.005-.768.005-1.152q0-3.975,0-7.95a6.128,6.128,0,0,0-.066-1.368.153.153,0,0,1,.148-.171,1.539,1.539,0,0,1,.211-.007q4.715,0,9.429.007,4.307,0,8.614,0c.43,0,.86-.018,1.291-.031.084,0,.157.009.109.109a.693.693,0,0,0-.029.321q0,4.972,0,9.943c0,.3,0,.307.311.3,1.108-.014,2.216.032,3.323-.023a.791.791,0,0,1,.159.024" transform="translate(-98.487 -13.657)" fill="#984f3c"/>
          <path id="Path_880225" data-name="Path 880225" d="M258.3,293.732c.016-.021.032-.021.048,0H258.3" transform="translate(-209.687 -238.441)" fill="#c47059"/>
          <path id="Path_880226" data-name="Path 880226" d="M180.287,56.294c.315.2.64.378.942.591a7.375,7.375,0,0,1,.813.6c.187.174.412.3.6.477a13.622,13.622,0,0,1,2.21,2.613,14.341,14.341,0,0,1,1.123,2.2c.237.582.369,1.188.557,1.78a9.694,9.694,0,0,1,.225,1.283c.009.052-.01.111.042.151a2.326,2.326,0,0,0,.032.539l.031,2.246c-.032.905-.014,1.811-.009,2.717a1.662,1.662,0,0,0,.034.255c.01.061.014.135.083.154s.084-.056.114-.1q1.158-1.573,2.312-3.15,1.386-1.9,2.765-3.8Q193.2,63.422,194.243,62q.983-1.353,1.961-2.71c.224-.309.454-.614.68-.921l.085.009a.955.955,0,0,0,.3.286c.308.224.615.449.926.668a.232.232,0,0,1,.063.387q-1.535,2.1-3.059,4.2-1.7,2.34-3.392,4.683-1.086,1.5-2.176,2.993a1.057,1.057,0,0,0-.218.408,15.853,15.853,0,0,1-2.658.1,2.739,2.739,0,0,0-.158-.258c-.353-.46-.7-.924-1.04-1.395-.321-.45-.639-.9-.967-1.347-.284-.387-.555-.783-.844-1.166-.233-.309-.432-.64-.679-.941-.265-.322-.487-.68-.732-1.019-.281-.388-.569-.771-.851-1.158-.25-.343-.492-.692-.742-1.034-.266-.364-.566-.707-.816-1.077q-.672-.994-1.407-1.939a4.771,4.771,0,0,1-.387-.5c-.255-.443-.573-.839-.862-1.254-.779-1.121-1.59-2.221-2.406-3.317a2.867,2.867,0,0,0-.588-.751l-.013-.08c.043-.1.133-.064.2-.06.232.012.463.044.7.048a10.185,10.185,0,0,1,1.334.139c.3.044.572.174.871.222a8.987,8.987,0,0,1,2,.687c.3.126.593.268.889.4l.013.006Z" transform="translate(-141.471 -44.475)" fill="#01c100"/>
          <path id="Path_880227" data-name="Path 880227" d="M174.075,55.585a2.871,2.871,0,0,1,.588.751c.816,1.1,1.627,2.2,2.406,3.317.288.415.607.811.862,1.254a4.774,4.774,0,0,0,.387.5q.738.945,1.407,1.939c.25.37.55.713.816,1.077.251.343.493.691.742,1.034.282.387.57.77.851,1.158.246.339.467.7.733,1.019.247.3.446.632.679.941.289.383.56.779.844,1.166.327.446.646.9.967,1.347.336.471.687.935,1.04,1.395a2.731,2.731,0,0,1,.158.258,8.17,8.17,0,0,1-2.25-.189,19.394,19.394,0,0,1-2.132-.591,12.638,12.638,0,0,1-2-.949,9.552,9.552,0,0,1-1.538-1.1,15.842,15.842,0,0,1-1.919-1.967,13.6,13.6,0,0,1-1.418-2.217,12.1,12.1,0,0,1-.637-1.594c-.2-.56-.286-1.141-.445-1.707-.072-.257-.1-.528-.144-.792-.091-.889-.029-1.78-.052-2.67l.011-.052a.1.1,0,0,0,0-.141q0-.281,0-.562a1.321,1.321,0,0,0,.023-.507c-.012-.488.035-.977-.017-1.465q0-.162,0-.323c0-.005.014-.012.013-.016a.218.218,0,0,0-.015-.037c0-.029,0-.057,0-.086.049-.059.016-.134.04-.2" transform="translate(-141.267 -45.124)" fill="#91e100"/>
          <path id="Path_880228" data-name="Path 880228" d="M251.137,69.046c-.227.307-.456.612-.681.921q-.982,1.354-1.961,2.71-1.038,1.43-2.081,2.855-1.383,1.9-2.765,3.8-1.151,1.578-2.312,3.15c-.03.04-.045.116-.114.1s-.073-.094-.083-.154a1.688,1.688,0,0,1-.034-.255c-.005-.906-.023-1.811.009-2.717.1.01.132-.071.176-.132.805-1.11,1.606-2.223,2.414-3.332.9-1.241,1.818-2.474,2.721-3.716.421-.58.8-1.189,1.243-1.754q.557-.716,1.082-1.455.332-.466.645-.945c.145-.222.181-.233.4-.072q.672.5,1.346,1" transform="translate(-195.724 -55.155)" fill="#91e100"/>
          <path id="Path_880229" data-name="Path 880229" d="M240.89,111.667a2.327,2.327,0,0,1-.032-.539l.014-.741a11.523,11.523,0,0,1,.019,1.28" transform="translate(-195.53 -89.613)" fill="#c47059"/>
          <path id="Path_880230" data-name="Path 880230" d="M240.946,109.752l.01-.062-.01.062" transform="translate(-195.602 -89.047)" fill="#c47059"/>
          <path id="Path_880231" data-name="Path 880231" d="M206.118,62.334c0-.037.007-.073.011-.109l.015.109-.013.006Z" transform="translate(-167.328 -50.515)" fill="#c47059"/>
          <path id="Path_880232" data-name="Path 880232" d="M141.986,37.752l-.005.017-.012-.013Z" transform="translate(-115.252 -30.647)" fill="#c47059"/>
          <path id="Path_880233" data-name="Path 880233" d="M174.028,55.436a.294.294,0,0,1,.027-.277l.013.08c-.024.064.009.139-.04.2" transform="translate(-141.26 -44.779)" fill="#d6f368"/>
          <path id="Path_880234" data-name="Path 880234" d="M174.007,61.064a19.418,19.418,0,0,1,.005-1.972c.052.488,0,.977.017,1.465a1.32,1.32,0,0,1-.023.507" transform="translate(-141.242 -47.971)" fill="#d6f368"/>
          <path id="Path_880235" data-name="Path 880235" d="M174.074,72.7q0-.071,0-.141a.1.1,0,0,1,0,.141" transform="translate(-141.315 -58.902)" fill="#d6f368"/>
          <path id="Path_880236" data-name="Path 880236" d="M174.114,57.142c0-.018,0-.036,0-.054a.22.22,0,0,1,.015.037s-.008.011-.013.016" transform="translate(-141.346 -46.345)" fill="#d6f368"/>
        </g>
      </g>
    </g>
  </g>
</svg>
