<svg xmlns="http://www.w3.org/2000/svg" xmlns:xlink="http://www.w3.org/1999/xlink" width="121" height="121" viewBox="0 0 121 121">
  <defs>
    <clipPath id="clip-path">
      <rect id="Rectangle_400938" data-name="Rectangle 400938" width="121" height="121" transform="translate(0 0)" fill="none"/>
    </clipPath>
    <clipPath id="clip-path-2">
      <rect id="Rectangle_401073" data-name="Rectangle 401073" width="92.219" height="41.532" fill="#efb499"/>
    </clipPath>
    <clipPath id="clip-path-3">
      <rect id="Rectangle_402303" data-name="Rectangle 402303" width="65.671" height="65.655" fill="none"/>
    </clipPath>
  </defs>
  <g id="Group_1101311" data-name="Group 1101311" transform="translate(-1142.996 5433)">
    <g id="Group_1100458" data-name="Group 1100458" transform="translate(755.328 -11446)">
      <rect id="Rectangle_401103" data-name="Rectangle 401103" width="121" height="121" transform="translate(387.668 6013)" fill="none"/>
      <g id="Group_1099348" data-name="Group 1099348" transform="translate(387.668 6013)">
        <g id="Group_1099282" data-name="Group 1099282">
          <g id="Group_1099281" data-name="Group 1099281" clip-path="url(#clip-path-2)">
            <path id="Path_873375" data-name="Path 873375" d="M74.8,9.1c-4.139,0-6.28-2.03-8.17-3.821-1.855-1.756-3.452-3.274-6.792-3.274s-4.937,1.517-6.792,3.274C51.161,7.072,49.023,9.1,44.881,9.1s-6.28-2.03-8.169-3.821C34.857,3.525,33.26,2.007,29.92,2.007s-4.937,1.517-6.789,3.274C21.241,7.072,19.1,9.1,14.962,9.1S8.679,7.072,6.789,5.281C4.937,3.525,3.34,2.007,0,2.007V0C4.139,0,6.28,2.033,8.17,3.821c1.855,1.759,3.452,3.274,6.792,3.274S19.9,5.58,21.75,3.824C23.637,2.033,25.781,0,29.92,0s6.283,2.033,8.17,3.821c1.855,1.759,3.452,3.274,6.792,3.274s4.937-1.514,6.792-3.274C53.56,2.033,55.7,0,59.843,0s6.283,2.033,8.17,3.821C69.867,5.58,71.464,7.094,74.8,7.094S79.742,5.58,81.6,3.821C83.483,2.033,85.624,0,89.766,0V2.007c-3.34,0-4.937,1.517-6.792,3.274C81.084,7.072,78.943,9.1,74.8,9.1" transform="translate(2.453 32.43)" fill="#efb499"/>
            <path id="Path_873376" data-name="Path 873376" d="M74.8,9.1c-4.139,0-6.283-2.03-8.17-3.824-1.855-1.756-3.452-3.27-6.792-3.27s-4.937,1.514-6.792,3.27C51.164,7.072,49.023,9.1,44.881,9.1s-6.283-2.03-8.17-3.824c-1.855-1.756-3.452-3.27-6.792-3.27s-4.937,1.517-6.789,3.27C21.241,7.072,19.1,9.1,14.962,9.1S8.679,7.072,6.789,5.278C4.937,3.522,3.34,2.007,0,2.007V0C4.139,0,6.283,2.03,8.17,3.821c1.855,1.759,3.452,3.274,6.792,3.274S19.9,5.58,21.75,3.821C23.637,2.03,25.781,0,29.92,0S36.2,2.03,38.093,3.821c1.852,1.759,3.449,3.274,6.789,3.274s4.937-1.514,6.792-3.274C53.56,2.03,55.7,0,59.843,0s6.283,2.03,8.17,3.821C69.867,5.58,71.464,7.094,74.8,7.094S79.742,5.58,81.6,3.821C83.486,2.03,85.627,0,89.769,0V2.007c-3.34,0-4.94,1.517-6.8,3.27C81.084,7.072,78.943,9.1,74.8,9.1" transform="translate(1.635 21.62)" fill="#efb499"/>
            <path id="Path_873377" data-name="Path 873377" d="M74.8,9.1c-4.139,0-6.283-2.03-8.169-3.824-1.855-1.756-3.452-3.27-6.792-3.27s-4.937,1.514-6.792,3.27C51.164,7.072,49.02,9.1,44.881,9.1s-6.283-2.03-8.17-3.824c-1.855-1.756-3.452-3.27-6.792-3.27s-4.937,1.517-6.789,3.27C21.241,7.072,19.1,9.1,14.962,9.1S8.678,7.072,6.789,5.278C4.937,3.522,3.34,2.007,0,2.007V0C4.139,0,6.283,2.03,8.169,3.821c1.851,1.759,3.452,3.274,6.792,3.274S19.9,5.58,21.75,3.821C23.637,2.03,25.781,0,29.92,0S36.2,2.03,38.093,3.821c1.852,1.759,3.449,3.274,6.789,3.274s4.937-1.514,6.792-3.274C53.56,2.03,55.7,0,59.843,0s6.283,2.03,8.17,3.821C69.867,5.58,71.464,7.094,74.8,7.094S79.742,5.58,81.6,3.821C83.486,2.03,85.624,0,89.769,0V2.007c-3.34,0-4.941,1.517-6.8,3.27C81.084,7.072,78.943,9.1,74.8,9.1" transform="translate(0.818 10.81)" fill="#efb499"/>
            <path id="Path_873378" data-name="Path 873378" d="M74.8,9.1c-4.139,0-6.28-2.03-8.17-3.821-1.855-1.756-3.452-3.27-6.792-3.27s-4.937,1.514-6.789,3.27C51.164,7.069,49.023,9.1,44.881,9.1s-6.28-2.03-8.169-3.821c-1.855-1.756-3.452-3.27-6.792-3.27s-4.937,1.514-6.789,3.267C21.245,7.069,19.1,9.1,14.962,9.1S8.678,7.069,6.789,5.278C4.937,3.522,3.34,2.007,0,2.007V0C4.139,0,6.283,2.03,8.17,3.821c1.855,1.756,3.452,3.27,6.792,3.27S19.9,5.577,21.75,3.821C23.64,2.03,25.781,0,29.92,0s6.28,2.03,8.173,3.821c1.852,1.756,3.449,3.27,6.789,3.27s4.937-1.514,6.792-3.27C53.563,2.03,55.7,0,59.843,0s6.28,2.03,8.17,3.821c1.855,1.756,3.452,3.27,6.792,3.27s4.937-1.514,6.792-3.27C83.486,2.03,85.627,0,89.769,0V2.007c-3.344,0-4.941,1.514-6.8,3.27C81.084,7.069,78.943,9.1,74.8,9.1" transform="translate(0 0.003)" fill="#efb499"/>
          </g>
        </g>
      </g>
      <circle id="Ellipse_11504" data-name="Ellipse 11504" cx="50.5" cy="50.5" r="50.5" transform="translate(402.668 6031)" fill="#ffce73"/>
      <circle id="Ellipse_11503" data-name="Ellipse 11503" cx="52.5" cy="52.5" r="52.5" transform="translate(395.668 6021)" fill="#f3f9ff"/>
    </g>
    <g id="Group_1100462" data-name="Group 1100462" transform="translate(1168.938 -5407.196)">
      <rect id="Rectangle_401104" data-name="Rectangle 401104" width="68" height="69" transform="translate(0.062 -0.804)" fill="none"/>
      <g id="Group_1100495" data-name="Group 1100495" transform="translate(1.062 1.196)">
        <g id="Group_1100494" data-name="Group 1100494" clip-path="url(#clip-path-3)">
          <path id="Path_880209" data-name="Path 880209" d="M200.149,18.641c.4-.072.817-.081,1.221-.167a9.729,9.729,0,0,0,2.455-.851,15.014,15.014,0,0,0,1.43-.819,9.848,9.848,0,0,0,1.25-1.081c.3-.278.591-.561.868-.856a17.721,17.721,0,0,0,1.278-1.589c.277-.374.592-.735.846-1.123.6-.919,1.215-1.829,1.772-2.777.611-1.04,1.239-2.07,1.858-3.105.484-.809.975-1.615,1.531-2.375a17.747,17.747,0,0,1,1.563-1.884,7.428,7.428,0,0,1,2.447-1.57A6.029,6.029,0,0,1,220.58.028a6.478,6.478,0,0,1,3.408.61,6.866,6.866,0,0,1,3.078,2.755,13.677,13.677,0,0,1,.708,1.5,5.167,5.167,0,0,1,.183.968,5.277,5.277,0,0,1,.05,1.7,6.435,6.435,0,0,1-.51,2.091A8.408,8.408,0,0,1,226,11.875a15.183,15.183,0,0,1-2.657,2.062c-.785.512-1.586,1-2.385,1.489-.866.53-1.739,1.047-2.605,1.576-1.042.636-2.074,1.287-3.061,2.007a22.689,22.689,0,0,0-2.97,2.541,12.609,12.609,0,0,0-1.732,2.249,6.326,6.326,0,0,0-.939,2.576c-.057.516-.159,1.028-.241,1.541a.549.549,0,0,1-.29-.188q-.652-.657-1.3-1.313a6.512,6.512,0,0,1-.538-.55,5.3,5.3,0,0,0-.646-.639,7.962,7.962,0,0,1-.786-.759c-.471-.566-1.027-1.043-1.533-1.569-.412-.428-.873-.817-1.292-1.237-.3-.3-.594-.628-.9-.933q-.839-.836-1.676-1.673a1.284,1.284,0,0,1-.3-.413" transform="translate(-162.382 0)" fill="#7d3a1b"/>
          <path id="Path_880210" data-name="Path 880210" d="M140.3,60.7a1.284,1.284,0,0,0,.3.413q.836.838,1.676,1.673c.307.305.6.63.9.933.419.419.88.809,1.292,1.237.506.527,1.061,1,1.533,1.569a7.961,7.961,0,0,0,.786.759,5.3,5.3,0,0,1,.646.639,6.512,6.512,0,0,0,.538.55q.653.657,1.3,1.313a.549.549,0,0,0,.29.188c.029.178.181.275.289.387.628.649,1.27,1.284,1.911,1.921.675.671,1.358,1.335,2.031,2.008.551.55,1.09,1.112,1.64,1.663.467.467.96.909,1.407,1.394a6.389,6.389,0,0,1,.919,1.073,4.094,4.094,0,0,1,.564,1.32,3.768,3.768,0,0,1-1.049,3.537c-.148.15-.29.306-.433.461-.054.059-.105.118-.2.1-.132-.132-.287-.081-.441-.06a1.781,1.781,0,0,1-1.388-.273,11.742,11.742,0,0,1-1.077-.974q-2.823-2.809-5.635-5.629c-.088-.088-.185-.168-.271-.258-1.477-1.534-3.016-3.007-4.5-4.535-.493-.508-1-1.006-1.513-1.5-.907-.876-1.788-1.778-2.679-2.67q-2.673-2.673-5.344-5.347c-2.236-2.251-4.514-4.461-6.71-6.752a2.073,2.073,0,0,1-.65-1.188,3.628,3.628,0,0,1,.048-1c.017-.111,0-.144-.107-.14a5.908,5.908,0,0,1,1.563-1.286,3.729,3.729,0,0,1,1.871-.386,4.224,4.224,0,0,1,1.11.138,3.33,3.33,0,0,1,.8.418,6.384,6.384,0,0,1,1.132.975c.994.985,1.963,1.995,2.973,2.963.409.392.785.822,1.192,1.214.543.523,1.05,1.082,1.609,1.589q.458.416.877.877a2.931,2.931,0,0,0,.791.683" transform="translate(-102.537 -42.062)" fill="#5e6b75"/>
          <path id="Path_880211" data-name="Path 880211" d="M42.293,204.851a10,10,0,0,1,.191-1.118,1.354,1.354,0,0,0,.059-.435,2.637,2.637,0,0,0,.512-.052,1.034,1.034,0,0,0,.667-.922,1.424,1.424,0,0,0-.629-1.023c-.728-.615-1.431-1.257-2.125-1.908a23.027,23.027,0,0,1-1.727-1.822,5.943,5.943,0,0,1-.673-.9c-.08-.139-.072-.2.1-.271a7.7,7.7,0,0,1,1.383-.324,24.031,24.031,0,0,1,2.794-.4c.964-.074,1.93-.123,2.894-.2a.951.951,0,0,0,.773-.462,8.6,8.6,0,0,0,.528-1.319c.222-.54.436-1.084.667-1.62.281-.652.59-1.292.9-1.93a8.894,8.894,0,0,1,.964-1.628c.2-.253.275-.251.458.022a17.793,17.793,0,0,1,1.2,2.113c.374.766.716,1.546,1.042,2.331.227.546.429,1.1.621,1.665a1.1,1.1,0,0,0,.927.827c.6.07,1.213.1,1.819.133a25.412,25.412,0,0,1,2.883.3,13.116,13.116,0,0,1,2.354.5c.214.08.232.172.128.343a6.2,6.2,0,0,1-.8,1.036q-.681.725-1.381,1.431-.643.649-1.333,1.248c-.446.389-.893.776-1.324,1.18a.921.921,0,0,0-.3.823c.112.912.4,1.789.516,2.7.087.709.291,1.4.374,2.111a19.169,19.169,0,0,1,.087,2.318c0,.143-.073.2-.208.183a1.086,1.086,0,0,1-.227-.056,19.243,19.243,0,0,1-2.746-1.315c-.987-.552-1.946-1.152-2.9-1.769-.288-.187-.533-.474-.952-.447a1.436,1.436,0,0,0-.712.25c-.663.424-1.321.856-1.994,1.263-.6.364-1.212.707-1.826,1.047a17.009,17.009,0,0,1-2.149.989c-.3.115-.408.028-.407-.281a13.231,13.231,0,0,1,.154-2.23,10.915,10.915,0,0,0,.157-1.156,1.067,1.067,0,0,0-.525-1.036c-.087-.046-.2-.067-.216-.193" transform="translate(-31.249 -152.799)" fill="#ffce73"/>
          <path id="Path_880212" data-name="Path 880212" d="M33.267,195.735c.016.126.129.147.216.193a1.067,1.067,0,0,1,.525,1.036,10.913,10.913,0,0,1-.157,1.156,13.231,13.231,0,0,0-.154,2.23c0,.309.108.4.407.281a17.009,17.009,0,0,0,2.149-.989c.614-.34,1.226-.683,1.826-1.047.673-.408,1.331-.839,1.994-1.263a1.436,1.436,0,0,1,.712-.25c.419-.027.664.26.952.447.95.616,1.909,1.217,2.9,1.769a19.242,19.242,0,0,0,2.746,1.315,1.088,1.088,0,0,0,.227.056c.135.018.207-.041.208-.183a19.17,19.17,0,0,0-.087-2.318c-.082-.711-.287-1.4-.374-2.111-.112-.913-.4-1.789-.516-2.7a.921.921,0,0,1,.3-.823c.431-.4.878-.792,1.324-1.18s.9-.816,1.333-1.248q.7-.706,1.381-1.431a6.2,6.2,0,0,0,.8-1.036c.1-.171.086-.263-.128-.343a13.115,13.115,0,0,0-2.354-.5,25.411,25.411,0,0,0-2.883-.3c-.606-.036-1.215-.063-1.819-.133a1.1,1.1,0,0,1-.927-.827c-.192-.561-.394-1.119-.621-1.665-.326-.786-.668-1.566-1.042-2.331a17.793,17.793,0,0,0-1.2-2.113c-.183-.273-.258-.275-.458-.022a8.9,8.9,0,0,0-.964,1.628c-.312.638-.622,1.278-.9,1.93-.231.536-.446,1.08-.667,1.62a8.6,8.6,0,0,1-.528,1.319.951.951,0,0,1-.773.462c-.964.073-1.93.122-2.894.2a24.044,24.044,0,0,0-2.794.4,7.7,7.7,0,0,0-1.383.324c-.17.067-.178.132-.1.271a5.943,5.943,0,0,0,.673.9,23.032,23.032,0,0,0,1.727,1.822c.694.652,1.4,1.293,2.125,1.908a1.425,1.425,0,0,1,.629,1.023,1.034,1.034,0,0,1-.667.922,2.637,2.637,0,0,1-.512.052,10.888,10.888,0,0,1-1.312-1.043,17.345,17.345,0,0,1-1.529-1.373c-.593-.608-1.213-1.193-1.76-1.848a10.209,10.209,0,0,1-1.229-1.693,1.934,1.934,0,0,1-.268-1.28,1.611,1.611,0,0,1,.843-1.14,7.54,7.54,0,0,1,1.241-.495,28.982,28.982,0,0,1,3.007-.549,13.553,13.553,0,0,1,2.283-.185c.362-.01.722-.088,1.084-.132a.176.176,0,0,0,.172-.136,7.6,7.6,0,0,1,.426-1.062,11.216,11.216,0,0,1,.829-1.92,18.1,18.1,0,0,1,.981-1.933c.219-.329.372-.7.617-1.014a3.127,3.127,0,0,1,1.274-1.16,1.607,1.607,0,0,1,1.767.4,7.24,7.24,0,0,1,1.366,1.89c.342.612.635,1.25.936,1.883.267.562.474,1.15.751,1.7.191.38.284.79.451,1.176a.38.38,0,0,0,.385.266q.68.008,1.358.038a19.886,19.886,0,0,1,2.28.26,4.163,4.163,0,0,0,.711.05,2.614,2.614,0,0,1,.579.128,9.1,9.1,0,0,1,2.37.736,1.891,1.891,0,0,1,.864.885,1.6,1.6,0,0,1-.029,1.309,6.909,6.909,0,0,1-1.21,1.824,25.473,25.473,0,0,1-2.213,2.3c-.491.467-1.011.9-1.524,1.347a.336.336,0,0,0-.115.353c.141.709.295,1.415.42,2.127.1.552.13,1.117.242,1.666a13.2,13.2,0,0,1,.21,2.723,3.641,3.641,0,0,1-.248,1.322,1.857,1.857,0,0,1-.955.992,1.415,1.415,0,0,1-.821.084,6.235,6.235,0,0,1-1.432-.414c-.432-.171-.846-.385-1.267-.583-.881-.415-1.7-.942-2.547-1.419-.512-.289-1-.618-1.488-.939a.379.379,0,0,0-.483,0c-.308.211-.61.434-.93.626-.609.364-1.228.709-1.844,1.061-.4.228-.791.474-1.2.66a13.045,13.045,0,0,1-2.687.984,1.734,1.734,0,0,1-1.927-1.226,4.843,4.843,0,0,1-.174-1.36A10.763,10.763,0,0,1,32,197.407c.069-.275.024-.568.1-.846a.913.913,0,0,1,.787-.719,1.146,1.146,0,0,0,.376-.107" transform="translate(-22.223 -143.683)" fill="#ebb044"/>
          <path id="Path_880213" data-name="Path 880213" d="M145.669,111.872a.22.22,0,0,1-.083.206c-.424.418-.839.846-1.272,1.255a1.847,1.847,0,0,1-2.773-.12q-2.233-2.222-4.457-4.454-2.385-2.385-4.768-4.773c-1-1.01-2-2.024-3.016-3.025-2.334-2.308-4.639-4.646-6.973-6.954-.931-.92-1.848-1.853-2.775-2.777a2.046,2.046,0,0,1-.607-1.359,1.97,1.97,0,0,1,.589-1.407,10.314,10.314,0,0,1,1.4-1.321,2.053,2.053,0,0,1,.221.173c.839.866,1.682,1.727,2.54,2.575,1.213,1.2,2.406,2.417,3.611,3.623.821.822,1.65,1.636,2.473,2.456q1.969,1.964,3.933,3.933c.377.378.757.752,1.126,1.138.493.516,1.01,1.01,1.507,1.522.35.36.708.726,1.076,1.075.983.93,1.918,1.91,2.875,2.867.652.651,1.312,1.295,1.965,1.945q1.532,1.523,3.058,3.05c.121.121.28.205.352.372" transform="translate(-96.499 -70.7)" fill="#ffb937"/>
          <path id="Path_880214" data-name="Path 880214" d="M18.379,213.779a18.711,18.711,0,0,1-5.047-.773,18.462,18.462,0,0,1-8.511-5.358,17.964,17.964,0,0,1-2.674-3.822,19.219,19.219,0,0,1-1.51-3.859,21.926,21.926,0,0,1-.6-3.818,16.972,16.972,0,0,1,.126-3.115,12.963,12.963,0,0,1,.219-1.54c.148-.68.342-1.346.536-2.014a16.434,16.434,0,0,1,.634-1.664,13.422,13.422,0,0,1,1.367-2.526c.228-.33.406-.694.621-1.034.088-.14.237-.233.342-.367.262-.337.53-.671.819-.984a.949.949,0,0,1,1.467,1.2c-.289.4-.622.76-.916,1.153a16.815,16.815,0,0,0-1.927,3.3,19.452,19.452,0,0,0-1.138,3.6,17.018,17.018,0,0,0-.211,1.917,12.031,12.031,0,0,0-.037,2.019c.039.653.144,1.3.242,1.952a15.041,15.041,0,0,0,1.349,4.283,16.659,16.659,0,0,0,11.338,9.083c.75.175,1.516.226,2.275.329a14.876,14.876,0,0,0,4.928-.284,15.6,15.6,0,0,0,5.09-2,18.552,18.552,0,0,0,2.538-1.892,19.365,19.365,0,0,0,2.1-2.3.94.94,0,0,1,1.58.087.922.922,0,0,1,0,.932,11.315,11.315,0,0,1-1.47,1.727c-.484.452-.932.944-1.431,1.377a17.288,17.288,0,0,1-3.257,2.216,18.448,18.448,0,0,1-2.509,1.106,17.879,17.879,0,0,1-3.11.795c-.656.105-1.321.163-1.984.211a9.4,9.4,0,0,1-1.239.062" transform="translate(0 -148.132)" fill="#ffb937"/>
          <path id="Path_880215" data-name="Path 880215" d="M145.664,90.42c-.072-.167-.231-.252-.352-.372q-1.527-1.527-3.058-3.05c-.653-.65-1.313-1.294-1.965-1.945-.958-.957-1.893-1.937-2.876-2.867-.368-.349-.726-.715-1.076-1.075-.5-.512-1.014-1.006-1.507-1.522-.369-.386-.749-.76-1.126-1.138q-1.966-1.967-3.933-3.933c-.822-.821-1.651-1.634-2.473-2.456-1.2-1.206-2.4-2.425-3.611-3.623-.858-.847-1.7-1.709-2.54-2.575a2.056,2.056,0,0,0-.221-.173c-.058-.157-.211-.222-.317-.332a12.539,12.539,0,0,1-1.227-1.289,2.128,2.128,0,0,1-.446-1.208,1.826,1.826,0,0,1,.459-1.222c.286-.337.628-.627.946-.938.1,0,.124.029.107.14a3.629,3.629,0,0,0-.048,1,2.072,2.072,0,0,0,.65,1.188c2.2,2.291,4.473,4.5,6.71,6.752q2.664,2.681,5.344,5.347c.892.892,1.772,1.795,2.679,2.67.511.493,1.02.991,1.513,1.5,1.483,1.528,3.023,3,4.5,4.535.087.09.183.17.271.258q2.817,2.815,5.635,5.629a11.735,11.735,0,0,0,1.077.974,1.78,1.78,0,0,0,1.388.273c.154-.021.309-.072.441.06,0,.03.013.073,0,.087a5.709,5.709,0,0,1-1.266,1.105,1.718,1.718,0,0,1-1.872-.112,8.362,8.362,0,0,1-1.406-1.331,1.653,1.653,0,0,0-.4-.361" transform="translate(-96.494 -49.248)" fill="#3e494a"/>
          <path id="Path_880216" data-name="Path 880216" d="M94.66,151.383a21.182,21.182,0,0,1,2.8.264c.41.044.8.229,1.212.31a13.964,13.964,0,0,1,2.85.973,17.979,17.979,0,0,1,2.513,1.337c.577.369,1.118.78,1.658,1.2a20.766,20.766,0,0,1,2.365,2.262c.353.373.655.787.982,1.18a11.6,11.6,0,0,1,.867,1.313c.339.542.613,1.121.919,1.681a20.14,20.14,0,0,1,.978,2.456c.156.4.2.828.324,1.233a16.47,16.47,0,0,1,.434,2.6,5.1,5.1,0,0,1,.1.855,14.5,14.5,0,0,1-.041,1.748c-.045.3-.014.607-.056.911a21.365,21.365,0,0,1-.428,2.549c-.158.594-.318,1.185-.518,1.765a10.877,10.877,0,0,1-.754,1.787.927.927,0,0,1-.977.441.983.983,0,0,1-.713-.748,1.636,1.636,0,0,1,.2-1.031,1.9,1.9,0,0,0,.272-.708.241.241,0,0,1,.027-.089,13.055,13.055,0,0,0,.712-2.306,2.714,2.714,0,0,0,.048-.584,3.159,3.159,0,0,1,.115-.593c.089-.324.063-.657.132-.982a6.436,6.436,0,0,0,.081-1.443,8.657,8.657,0,0,0-.167-1.791c-.084-.366-.07-.752-.131-1.125a15.025,15.025,0,0,0-.673-2.487,16.056,16.056,0,0,0-2.05-3.973,18.736,18.736,0,0,0-1.195-1.5,15.9,15.9,0,0,0-2.42-2.231,11.575,11.575,0,0,0-1.631-1.085,16.513,16.513,0,0,0-2.462-1.186c-.579-.189-1.157-.38-1.751-.533s-1.187-.216-1.777-.339c-.412-.086-.844-.07-1.256-.155-.44-.091-.882,0-1.325-.08a1.057,1.057,0,0,1-.759-1.028,1,1,0,0,1,.865-.863c.21-.016.423,0,.634,0" transform="translate(-75.58 -122.814)" fill="#ffb937"/>
          <path id="Path_880217" data-name="Path 880217" d="M39.8,165.763a1.151,1.151,0,0,1-.87-.563,1.025,1.025,0,0,1,.333-1.189,19.8,19.8,0,0,1,1.712-1.094,1.128,1.128,0,0,1,.94-.206.939.939,0,0,1,.709.808.918.918,0,0,1-.478.941c-.431.269-.873.519-1.294.8-.185.124-.375.24-.559.364a.744.744,0,0,1-.492.137" transform="translate(-31.54 -131.977)" fill="#ffb937"/>
        </g>
      </g>
    </g>
  </g>
</svg>
