<svg xmlns="http://www.w3.org/2000/svg" xmlns:xlink="http://www.w3.org/1999/xlink" width="121" height="121" viewBox="0 0 121 121">
  <defs>
    <clipPath id="clip-path">
      <rect id="Rectangle_400938" data-name="Rectangle 400938" width="121" height="121" transform="translate(0 0)" fill="none"/>
    </clipPath>
    <clipPath id="clip-path-2">
      <rect id="Rectangle_401073" data-name="Rectangle 401073" width="92.219" height="41.532" fill="#efb499"/>
    </clipPath>
    <clipPath id="clip-path-3">
      <rect id="Rectangle_402301" data-name="Rectangle 402301" width="68" height="57.331" fill="none"/>
    </clipPath>
  </defs>
  <g id="Group_1101313" data-name="Group 1101313" transform="translate(-1493.996 5854)">
    <g id="Group_1100448" data-name="Group 1100448" transform="translate(1106.328 -11867)">
      <rect id="Rectangle_401103" data-name="Rectangle 401103" width="121" height="121" transform="translate(387.668 6013)" fill="none"/>
      <g id="Group_1099348" data-name="Group 1099348" transform="translate(387.668 6013)">
        <g id="Group_1099282" data-name="Group 1099282">
          <g id="Group_1099281" data-name="Group 1099281" clip-path="url(#clip-path-2)">
            <path id="Path_873375" data-name="Path 873375" d="M74.8,9.1c-4.139,0-6.28-2.03-8.17-3.821-1.855-1.756-3.452-3.274-6.792-3.274s-4.937,1.517-6.792,3.274C51.161,7.072,49.023,9.1,44.881,9.1s-6.28-2.03-8.169-3.821C34.857,3.525,33.26,2.007,29.92,2.007s-4.937,1.517-6.789,3.274C21.241,7.072,19.1,9.1,14.962,9.1S8.679,7.072,6.789,5.281C4.937,3.525,3.34,2.007,0,2.007V0C4.139,0,6.28,2.033,8.17,3.821c1.855,1.759,3.452,3.274,6.792,3.274S19.9,5.58,21.75,3.824C23.637,2.033,25.781,0,29.92,0s6.283,2.033,8.17,3.821c1.855,1.759,3.452,3.274,6.792,3.274s4.937-1.514,6.792-3.274C53.56,2.033,55.7,0,59.843,0s6.283,2.033,8.17,3.821C69.867,5.58,71.464,7.094,74.8,7.094S79.742,5.58,81.6,3.821C83.483,2.033,85.624,0,89.766,0V2.007c-3.34,0-4.937,1.517-6.792,3.274C81.084,7.072,78.943,9.1,74.8,9.1" transform="translate(2.453 32.43)" fill="#efb499"/>
            <path id="Path_873376" data-name="Path 873376" d="M74.8,9.1c-4.139,0-6.283-2.03-8.17-3.824-1.855-1.756-3.452-3.27-6.792-3.27s-4.937,1.514-6.792,3.27C51.164,7.072,49.023,9.1,44.881,9.1s-6.283-2.03-8.17-3.824c-1.855-1.756-3.452-3.27-6.792-3.27s-4.937,1.517-6.789,3.27C21.241,7.072,19.1,9.1,14.962,9.1S8.679,7.072,6.789,5.278C4.937,3.522,3.34,2.007,0,2.007V0C4.139,0,6.283,2.03,8.17,3.821c1.855,1.759,3.452,3.274,6.792,3.274S19.9,5.58,21.75,3.821C23.637,2.03,25.781,0,29.92,0S36.2,2.03,38.093,3.821c1.852,1.759,3.449,3.274,6.789,3.274s4.937-1.514,6.792-3.274C53.56,2.03,55.7,0,59.843,0s6.283,2.03,8.17,3.821C69.867,5.58,71.464,7.094,74.8,7.094S79.742,5.58,81.6,3.821C83.486,2.03,85.627,0,89.769,0V2.007c-3.34,0-4.94,1.517-6.8,3.27C81.084,7.072,78.943,9.1,74.8,9.1" transform="translate(1.635 21.62)" fill="#efb499"/>
            <path id="Path_873377" data-name="Path 873377" d="M74.8,9.1c-4.139,0-6.283-2.03-8.169-3.824-1.855-1.756-3.452-3.27-6.792-3.27s-4.937,1.514-6.792,3.27C51.164,7.072,49.02,9.1,44.881,9.1s-6.283-2.03-8.17-3.824c-1.855-1.756-3.452-3.27-6.792-3.27s-4.937,1.517-6.789,3.27C21.241,7.072,19.1,9.1,14.962,9.1S8.678,7.072,6.789,5.278C4.937,3.522,3.34,2.007,0,2.007V0C4.139,0,6.283,2.03,8.169,3.821c1.851,1.759,3.452,3.274,6.792,3.274S19.9,5.58,21.75,3.821C23.637,2.03,25.781,0,29.92,0S36.2,2.03,38.093,3.821c1.852,1.759,3.449,3.274,6.789,3.274s4.937-1.514,6.792-3.274C53.56,2.03,55.7,0,59.843,0s6.283,2.03,8.17,3.821C69.867,5.58,71.464,7.094,74.8,7.094S79.742,5.58,81.6,3.821C83.486,2.03,85.624,0,89.769,0V2.007c-3.34,0-4.941,1.517-6.8,3.27C81.084,7.072,78.943,9.1,74.8,9.1" transform="translate(0.818 10.81)" fill="#efb499"/>
            <path id="Path_873378" data-name="Path 873378" d="M74.8,9.1c-4.139,0-6.28-2.03-8.17-3.821-1.855-1.756-3.452-3.27-6.792-3.27s-4.937,1.514-6.789,3.27C51.164,7.069,49.023,9.1,44.881,9.1s-6.28-2.03-8.169-3.821c-1.855-1.756-3.452-3.27-6.792-3.27s-4.937,1.514-6.789,3.267C21.245,7.069,19.1,9.1,14.962,9.1S8.678,7.069,6.789,5.278C4.937,3.522,3.34,2.007,0,2.007V0C4.139,0,6.283,2.03,8.17,3.821c1.855,1.756,3.452,3.27,6.792,3.27S19.9,5.577,21.75,3.821C23.64,2.03,25.781,0,29.92,0s6.28,2.03,8.173,3.821c1.852,1.756,3.449,3.27,6.789,3.27s4.937-1.514,6.792-3.27C53.563,2.03,55.7,0,59.843,0s6.28,2.03,8.17,3.821c1.855,1.756,3.452,3.27,6.792,3.27s4.937-1.514,6.792-3.27C83.486,2.03,85.627,0,89.769,0V2.007c-3.344,0-4.941,1.514-6.8,3.27C81.084,7.069,78.943,9.1,74.8,9.1" transform="translate(0 0.003)" fill="#efb499"/>
          </g>
        </g>
      </g>
      <circle id="Ellipse_11504" data-name="Ellipse 11504" cx="50.5" cy="50.5" r="50.5" transform="translate(402.668 6031)" fill="#ffce73"/>
      <circle id="Ellipse_11503" data-name="Ellipse 11503" cx="52.5" cy="52.5" r="52.5" transform="translate(395.668 6021)" fill="#f3f9ff"/>
    </g>
    <g id="Group_1100451" data-name="Group 1100451" transform="translate(1519.938 -5828.196)">
      <rect id="Rectangle_401104" data-name="Rectangle 401104" width="68" height="69" transform="translate(0.062 -0.804)" fill="none"/>
      <g id="Group_1100491" data-name="Group 1100491" transform="translate(0.063 5.196)">
        <g id="Group_1100490" data-name="Group 1100490" clip-path="url(#clip-path-3)">
          <path id="Path_880175" data-name="Path 880175" d="M57.261.072a3.2,3.2,0,0,1,.727,0Q66.224.07,74.46.07A14.693,14.693,0,0,0,76.013.056c.28-.03.661.343.711.617a6.2,6.2,0,0,1,.048,1.113c0,3.881,0,7.763.008,11.644,0,.191-.079.4.045.583-.1.1-.054.233-.054.35q0,20.292,0,40.585c0,.065,0,.13,0,.195.015.171-.064.234-.23.224-.323-.019-.647-.042-.971-.042q-6.067,0-12.134,0c-1.69,0-3.381-.008-5.071,0-.461,0-.923.055-1.385.03-.019-.271-.054-.542-.054-.813q0-26.644,0-53.288a1.162,1.162,0,0,1,.3-1.023c.048-.039.034-.105.036-.162m.2,26.775V48.54c0,.122-.009.245,0,.366.041.439.212.763.721.712.185-.019.374,0,.56,0,.587,0,.723-.129.759-.722,0-.057,0-.114,0-.171q0-17.36,0-34.721c0-2.023,0-4.046,0-6.069,0-1.1.029-2.207-.042-3.31-.021-.333-.111-.48-.422-.52a4.683,4.683,0,0,0-1.094,0,.491.491,0,0,0-.473.524c-.013.161-.012.322-.012.484q0,10.871,0,21.741m4.482,0v22.01c0,.081,0,.163,0,.244a.421.421,0,0,0,.354.466,4.26,4.26,0,0,0,1.116.038c.4-.021.529-.187.533-.6,0-.032,0-.065,0-.1V15.027q0-5.18,0-10.359a.534.534,0,0,0-.579-.585c-.244,0-.488,0-.731,0-.551,0-.7.143-.7.682q0,11.042,0,22.083m6.486.007V4.822a2.4,2.4,0,0,0,0-.243A.477.477,0,0,0,68,4.126,4.7,4.7,0,0,0,66.88,4.09c-.335.01-.379.089-.462.416a2.794,2.794,0,0,0,.016.722q-.009,21.839-.006,43.677c0,.089,0,.179,0,.268a.394.394,0,0,0,.367.4,3.64,3.64,0,0,0,.873.035.934.934,0,0,0,.561-.122.654.654,0,0,0,.2-.573q0-11.029,0-22.058m4.44,0V4.916c0-.073,0-.146,0-.219-.029-.4-.147-.559-.526-.6A6.792,6.792,0,0,0,71.269,4.1a.452.452,0,0,0-.409.388,2.01,2.01,0,0,0,.013.574q-.008,21.888-.005,43.775c0,.073,0,.147,0,.219.027.352.17.526.508.553a4.949,4.949,0,0,0,.876,0c.479-.046.607-.208.614-.695,0-.073,0-.146,0-.219V26.853" transform="translate(-45.789 -0.039)" fill="#ffb937"/>
          <path id="Path_880176" data-name="Path 880176" d="M11.188,112.792c.463.026.924-.026,1.385-.03,1.691-.012,3.381,0,5.072,0q6.067,0,12.134,0c.324,0,.648.023.971.042.167.01.245-.053.23-.224-.006-.065,0-.13,0-.195q0-20.292,0-40.585c0-.117-.042-.246.054-.35l4.488.02c.048,0,.1,0,.145.007a.658.658,0,0,1-.165.319,11.061,11.061,0,0,0-1.336,3.254,7.031,7.031,0,0,0-.2,1.636,9.645,9.645,0,0,0,.342,3.66c.131.361.141.765.289,1.125a10.637,10.637,0,0,0,.957,1.925c.083.123.027.18-.1.19-.161.013-.324.009-.486.021-.327.024-.476.138-.478.4q-.011,1.608,0,3.216a.373.373,0,0,0,.334.384,6.519,6.519,0,0,0,1.311.044c.383,0,.494-.117.5-.5.006-.593,0-1.186,0-1.778a.628.628,0,0,1,.038-.354c.192.12.263.322.4.467a11.217,11.217,0,0,0,2.317,1.867,11.347,11.347,0,0,0,1.951.98,10.951,10.951,0,0,0,3.162.718,11.83,11.83,0,0,0,5.276-.825,10.3,10.3,0,0,1,1.175-.5c.009.446.026.893.026,1.339q0,11.321,0,22.642c0,.284.008.569-.01.853-.012.189.041.248.238.246,1.284-.01,2.568-.007,3.852-.008.845,0,1.69.007,2.535,0a3.8,3.8,0,0,1,.74.115c.15.028.21.226.267.346a.984.984,0,0,1-.773,1.494,7.557,7.557,0,0,1-1.2.042q-14.286,0-28.572,0-12.958,0-25.915,0a5.978,5.978,0,0,1-1.161-.035,1.073,1.073,0,0,1-.9-.611.959.959,0,0,1,.155-1.005.984.984,0,0,1,.85-.338c.8-.007,1.609,0,2.413-.005l4.242-.008h3.449M38.2,109.879h0q0,1.353,0,2.706c0,.125,0,.216.174.215q2.511-.008,5.023,0c.141,0,.205-.048.2-.2-.005-1.812,0-3.624-.009-5.436a.716.716,0,0,0-.535-.729,1.515,1.515,0,0,0-.45-.1c-1.146-.009-2.292-.023-3.438,0a.929.929,0,0,0-.976,1.03c.032.835.008,1.674.008,2.51m6.624-16.822h-.011c0,.252,0,.5,0,.756s0,.5.007.755c.007.35.077.432.428.5a5.374,5.374,0,0,0,1.07.028c.5-.007.634-.138.637-.645.006-.869,0-1.738,0-2.607a2.368,2.368,0,0,0-.024-.461.332.332,0,0,0-.273-.3,3.951,3.951,0,0,0-1.616.034c-.178.04-.223.189-.222.36,0,.528,0,1.056,0,1.584M36.64,100.5h0c0-.5,0-.991,0-1.486,0-.387-.14-.526-.53-.536-.325-.009-.65-.005-.975,0-.484,0-.72.22-.678.685.06.664.012,1.328.03,1.991a4.992,4.992,0,0,1-.009.73c-.042.35.048.524.388.592a5.265,5.265,0,0,0,1.383.027c.273-.017.386-.173.39-.465.006-.511,0-1.023,0-1.535m8.189-.014h0c0,.528,0,1.056,0,1.583a.4.4,0,0,0,.452.447q.536.008,1.072,0c.509,0,.606-.1.61-.62q.007-1.169,0-2.339c0-.235-.016-.47-.026-.7a.333.333,0,0,0-.314-.341,5.516,5.516,0,0,0-1.407-.016c-.318.029-.385.142-.388.477,0,.5,0,1.007,0,1.51m-10.34-7.352q0,.718,0,1.436c0,.291.066.371.364.457a3.942,3.942,0,0,0,1.354.054c.325-.02.43-.169.432-.5q.006-1.533,0-3.067c0-.3-.125-.445-.419-.455a8.016,8.016,0,0,0-1.264.013c-.391.05-.465.111-.468.505,0,.519,0,1.038,0,1.558m7.33,7.359h0c0-.478,0-.957,0-1.435,0-.411-.165-.573-.578-.582-.349-.008-.7-.006-1.046,0a.476.476,0,0,0-.525.511q-.015,1.508,0,3.016c0,.358.174.5.543.511.349.007.7.007,1.046,0,.4,0,.558-.163.56-.564,0-.487,0-.973,0-1.46m0-7.445h0c0-.511.007-1.023,0-1.534a.4.4,0,0,0-.449-.459c-.373-.012-.747,0-1.12,0-.409,0-.58.165-.582.573q-.005,1.425,0,2.85a.533.533,0,0,0,.59.616c.34.014.682.013,1.023,0a.5.5,0,0,0,.536-.558c0-.5,0-.991,0-1.486" transform="translate(0 -57.475)" fill="#d19445"/>
          <path id="Path_880177" data-name="Path 880177" d="M190.564,65.442a10.243,10.243,0,0,0-1.175.5,11.832,11.832,0,0,1-5.276.825,10.951,10.951,0,0,1-3.162-.718,11.355,11.355,0,0,1-1.951-.98,11.22,11.22,0,0,1-2.316-1.867c-.135-.145-.206-.347-.4-.467a.628.628,0,0,0-.038.354c0,.593,0,1.186,0,1.778,0,.38-.116.5-.5.5a6.507,6.507,0,0,1-1.311-.044.373.373,0,0,1-.334-.384q-.012-1.608,0-3.216c0-.265.151-.379.478-.4.162-.012.324-.008.486-.021.123-.01.179-.067.1-.19a10.625,10.625,0,0,1-.957-1.925c-.147-.36-.157-.764-.289-1.125a9.646,9.646,0,0,1-.342-3.661,7.022,7.022,0,0,1,.2-1.636,11.056,11.056,0,0,1,1.336-3.254.658.658,0,0,0,.165-.319,14.749,14.749,0,0,1,1.263-1.655c.393-.433.836-.807,1.25-1.213a8.622,8.622,0,0,1,1.883-1.224,10.393,10.393,0,0,1,2.567-1.013c.4-.1.8-.183,1.2-.28a3.191,3.191,0,0,1,.561-.032,15.906,15.906,0,0,1,2.272.024c.578.054,1.116.238,1.677.33a6.9,6.9,0,0,1,1.461.467,11.351,11.351,0,0,1,3.268,2.026,12.145,12.145,0,0,1,1.754,1.937,12.682,12.682,0,0,1,1.467,2.731,16.2,16.2,0,0,1,.521,1.828,7.843,7.843,0,0,1,.17,2.088,13.788,13.788,0,0,1-.073,1.72,15.634,15.634,0,0,1-1.1,3.388,16.07,16.07,0,0,1-1.251,2.055,11.148,11.148,0,0,1-1.223,1.339c-.261.2-.5.429-.753.645l-1.632,1.093M177.4,54.961a6.808,6.808,0,0,0,.392,2.823,7.563,7.563,0,0,0,1.64,2.706,8.039,8.039,0,0,0,2.312,1.716,7.888,7.888,0,0,0,2.212.68,7.46,7.46,0,0,0,3.525-.307,7.339,7.339,0,0,0,2.825-1.653,7.509,7.509,0,0,0,2.064-3.149,7.737,7.737,0,0,0,.359-3.425,7.926,7.926,0,0,0-.481-1.95,7.438,7.438,0,0,0-2.211-3.053,7.7,7.7,0,0,0-5.955-1.729,5.8,5.8,0,0,0-1.121.266c-.309.092-.627.172-.925.294a7.461,7.461,0,0,0-1.759,1.047,7.251,7.251,0,0,0-1.955,2.317,7,7,0,0,0-.914,3.214h0l-.01.2-.008,0Z" transform="translate(-139.607 -35.188)" fill="#7d3a1b"/>
          <path id="Path_880178" data-name="Path 880178" d="M43.022,55.318H39.573a.505.505,0,0,0,.024-.24q0-26.929,0-53.858c0-.146,0-.293,0-.439A.65.65,0,0,1,40.216.06a25.816,25.816,0,0,1,3.09-.027c0,.056.012.123-.036.162a1.162,1.162,0,0,0-.3,1.023q-.006,26.644,0,53.288c0,.271.035.542.054.813" transform="translate(-31.834 0)" fill="#ffb937"/>
          <path id="Path_880179" data-name="Path 880179" d="M283.682,151.793c.128-.112.258-.221.383-.337a.663.663,0,0,1,1.017-.019c.465.43.911.88,1.359,1.327q2.708,2.7,5.409,5.41c.525.529,1.066,1.043,1.564,1.6.145.162.323.3.477.467a.754.754,0,0,1,.1,1.028,7.14,7.14,0,0,1-.829.912c-.557.577-1.151,1.118-1.722,1.682a1.733,1.733,0,0,1-.519.349.635.635,0,0,1-.592-.107,5.2,5.2,0,0,1-1.044-.931c-.638-.64-1.273-1.283-1.91-1.923q-1-1.005-2.008-2.008c-.825-.825-1.654-1.647-2.474-2.477-.5-.505-1.008-1-1.465-1.545-.4-.482-.4-.661.013-1.135l.221-.257c.447-.447.856-.931,1.337-1.346a4.515,4.515,0,0,0,.683-.689" transform="translate(-226.148 -121.636)" fill="#7d3a1b"/>
          <path id="Path_880180" data-name="Path 880180" d="M273.841,141.943a4.514,4.514,0,0,1-.683.689c-.481.415-.89.9-1.337,1.346l-2.606-2.61a1.08,1.08,0,0,1-.319-.42c.25-.216.492-.443.753-.645a11.143,11.143,0,0,0,1.223-1.339.888.888,0,0,1,.341.228q1.245,1.253,2.495,2.5a.526.526,0,0,1,.134.25" transform="translate(-216.307 -111.786)" fill="#e17569"/>
          <path id="Path_880181" data-name="Path 880181" d="M59.659,43.382q0-10.871,0-21.741c0-.161,0-.323.012-.484a.491.491,0,0,1,.473-.524,4.683,4.683,0,0,1,1.094,0c.312.04.4.187.422.52.07,1.1.039,2.207.041,3.31,0,2.023,0,4.046,0,6.069q0,17.361,0,34.721c0,.057,0,.114,0,.171-.037.593-.172.722-.759.721-.187,0-.375-.015-.561,0-.509.051-.681-.273-.721-.712-.011-.121,0-.243,0-.365q0-10.846,0-21.693" transform="translate(-47.989 -16.573)" fill="#7a4f00"/>
          <path id="Path_880182" data-name="Path 880182" d="M82.578,43.442V21.359c0-.539.144-.681.7-.682.244,0,.488,0,.731,0a.534.534,0,0,1,.579.584q-.012,5.18,0,10.359V65.5c0,.032,0,.065,0,.1,0,.415-.131.581-.533.6a4.268,4.268,0,0,1-1.116-.038.421.421,0,0,1-.354-.466c0-.081,0-.163,0-.244q0-11.005,0-22.01" transform="translate(-66.426 -16.633)" fill="#7a4f00"/>
          <path id="Path_880183" data-name="Path 880183" d="M107.391,43.415q0,11.029,0,22.058a.653.653,0,0,1-.2.573.933.933,0,0,1-.56.123,3.639,3.639,0,0,1-.873-.035.394.394,0,0,1-.367-.4c0-.089,0-.179,0-.268q0-21.839.006-43.677a2.8,2.8,0,0,1-.016-.722c.083-.327.127-.406.462-.416a4.711,4.711,0,0,1,1.116.036.476.476,0,0,1,.429.453,2.352,2.352,0,0,1,0,.244q0,11.017,0,22.033" transform="translate(-84.752 -16.599)" fill="#7a4f00"/>
          <path id="Path_880184" data-name="Path 880184" d="M130.116,43.422V65.261c0,.073,0,.146,0,.219-.006.487-.135.649-.614.695a4.95,4.95,0,0,1-.876,0c-.337-.028-.48-.2-.507-.553-.006-.073,0-.146,0-.219q0-21.887.005-43.775a2,2,0,0,1-.013-.574.452.452,0,0,1,.409-.388,6.79,6.79,0,0,1,1.07.006c.379.037.5.2.526.6.005.073,0,.146,0,.219V43.422" transform="translate(-103.037 -16.609)" fill="#7a4f00"/>
          <path id="Path_880185" data-name="Path 880185" d="M195.309,253.337c0-.837.024-1.675-.008-2.51a.929.929,0,0,1,.976-1.03c1.145-.024,2.292-.01,3.438,0a1.506,1.506,0,0,1,.45.1.716.716,0,0,1,.535.729c0,1.812,0,3.624.009,5.436,0,.151-.064.2-.2.2q-2.511,0-5.023,0c-.172,0-.174-.09-.174-.215q0-1.353,0-2.706Z" transform="translate(-157.104 -200.933)" fill="#7d3a1b"/>
          <path id="Path_880186" data-name="Path 880186" d="M229.171,173.526c0-.528,0-1.056,0-1.584,0-.171.044-.321.222-.36a3.951,3.951,0,0,1,1.616-.034.332.332,0,0,1,.273.3,2.367,2.367,0,0,1,.024.461c0,.869,0,1.738,0,2.607,0,.508-.134.639-.637.645a5.359,5.359,0,0,1-1.07-.028c-.351-.066-.421-.149-.428-.5-.005-.252-.006-.5-.007-.755s0-.5,0-.755h.011" transform="translate(-184.343 -137.943)" fill="#7d3a1b"/>
          <path id="Path_880187" data-name="Path 880187" d="M178.345,211.658c0,.512,0,1.023,0,1.535,0,.292-.117.447-.39.465a5.272,5.272,0,0,1-1.383-.027c-.34-.068-.43-.241-.388-.592a4.963,4.963,0,0,0,.009-.73c-.019-.663.03-1.327-.03-1.991-.042-.465.194-.681.678-.685.325,0,.65-.007.975,0,.39.011.526.149.53.536,0,.5,0,.991,0,1.486Z" transform="translate(-141.705 -168.632)" fill="#7d3a1b"/>
          <path id="Path_880188" data-name="Path 880188" d="M229.2,211.6c0-.5,0-1.007,0-1.51,0-.335.069-.448.388-.477a5.517,5.517,0,0,1,1.407.016.332.332,0,0,1,.314.341c.011.235.026.47.027.7q0,1.169,0,2.338c0,.519-.1.615-.61.62q-.536,0-1.072,0a.4.4,0,0,1-.452-.447c-.006-.528,0-1.056,0-1.583Z" transform="translate(-184.373 -168.588)" fill="#7d3a1b"/>
          <path id="Path_880189" data-name="Path 880189" d="M176.338,173.719c0-.519,0-1.039,0-1.558,0-.394.077-.455.468-.505a8.043,8.043,0,0,1,1.264-.013c.294.01.418.153.419.455q0,1.533,0,3.067c0,.332-.106.481-.432.5a3.944,3.944,0,0,1-1.354-.054c-.3-.085-.365-.166-.364-.457q0-.718,0-1.436" transform="translate(-141.85 -138.059)" fill="#7d3a1b"/>
          <path id="Path_880190" data-name="Path 880190" d="M204.949,211.646c0,.487,0,.973,0,1.46,0,.4-.16.559-.56.564-.349,0-.7,0-1.046,0-.368-.008-.538-.152-.543-.511q-.018-1.508,0-3.016a.476.476,0,0,1,.524-.511c.349-.005.7-.007,1.046,0,.412.009.573.171.578.582.005.478,0,.957,0,1.435Z" transform="translate(-163.131 -168.627)" fill="#7d3a1b"/>
          <path id="Path_880191" data-name="Path 880191" d="M204.948,173.673c0,.5,0,.991,0,1.486a.5.5,0,0,1-.536.558c-.34.013-.682.015-1.023,0a.533.533,0,0,1-.59-.616q-.008-1.425,0-2.85c0-.408.173-.571.582-.573.374,0,.747-.01,1.12,0a.4.4,0,0,1,.449.459c.009.511,0,1.023,0,1.534h0" transform="translate(-163.133 -138.099)" fill="#7d3a1b"/>
          <path id="Path_880192" data-name="Path 880192" d="M193.254,100.069h0Z" transform="translate(-155.45 -80.498)" fill="#d19445"/>
          <path id="Path_880193" data-name="Path 880193" d="M193.219,101.076v.005l-.009,0Z" transform="translate(-155.425 -81.309)" fill="#d19445"/>
        </g>
      </g>
    </g>
  </g>
</svg>
