<svg xmlns="http://www.w3.org/2000/svg" xmlns:xlink="http://www.w3.org/1999/xlink" width="121" height="121" viewBox="0 0 121 121">
  <defs>
    <clipPath id="clip-path">
      <rect id="Rectangle_400938" data-name="Rectangle 400938" width="121" height="121" transform="translate(0 0)" fill="none"/>
    </clipPath>
    <clipPath id="clip-path-2">
      <rect id="Rectangle_401073" data-name="Rectangle 401073" width="92.219" height="41.532" fill="#efb499"/>
    </clipPath>
    <clipPath id="clip-path-3">
      <rect id="Rectangle_402305" data-name="Rectangle 402305" width="65.5" height="61.127" fill="none"/>
    </clipPath>
  </defs>
  <g id="Group_1101313" data-name="Group 1101313" transform="translate(-1844.996 5433)">
    <g id="Group_1100464" data-name="Group 1100464" transform="translate(1457.328 -11446)">
      <rect id="Rectangle_401103" data-name="Rectangle 401103" width="121" height="121" transform="translate(387.668 6013)" fill="none"/>
      <g id="Group_1099348" data-name="Group 1099348" transform="translate(387.668 6013)">
        <g id="Group_1099282" data-name="Group 1099282">
          <g id="Group_1099281" data-name="Group 1099281" clip-path="url(#clip-path-2)">
            <path id="Path_873375" data-name="Path 873375" d="M74.8,9.1c-4.139,0-6.28-2.03-8.17-3.821-1.855-1.756-3.452-3.274-6.792-3.274s-4.937,1.517-6.792,3.274C51.161,7.072,49.023,9.1,44.881,9.1s-6.28-2.03-8.169-3.821C34.857,3.525,33.26,2.007,29.92,2.007s-4.937,1.517-6.789,3.274C21.241,7.072,19.1,9.1,14.962,9.1S8.679,7.072,6.789,5.281C4.937,3.525,3.34,2.007,0,2.007V0C4.139,0,6.28,2.033,8.17,3.821c1.855,1.759,3.452,3.274,6.792,3.274S19.9,5.58,21.75,3.824C23.637,2.033,25.781,0,29.92,0s6.283,2.033,8.17,3.821c1.855,1.759,3.452,3.274,6.792,3.274s4.937-1.514,6.792-3.274C53.56,2.033,55.7,0,59.843,0s6.283,2.033,8.17,3.821C69.867,5.58,71.464,7.094,74.8,7.094S79.742,5.58,81.6,3.821C83.483,2.033,85.624,0,89.766,0V2.007c-3.34,0-4.937,1.517-6.792,3.274C81.084,7.072,78.943,9.1,74.8,9.1" transform="translate(2.453 32.43)" fill="#efb499"/>
            <path id="Path_873376" data-name="Path 873376" d="M74.8,9.1c-4.139,0-6.283-2.03-8.17-3.824-1.855-1.756-3.452-3.27-6.792-3.27s-4.937,1.514-6.792,3.27C51.164,7.072,49.023,9.1,44.881,9.1s-6.283-2.03-8.17-3.824c-1.855-1.756-3.452-3.27-6.792-3.27s-4.937,1.517-6.789,3.27C21.241,7.072,19.1,9.1,14.962,9.1S8.679,7.072,6.789,5.278C4.937,3.522,3.34,2.007,0,2.007V0C4.139,0,6.283,2.03,8.17,3.821c1.855,1.759,3.452,3.274,6.792,3.274S19.9,5.58,21.75,3.821C23.637,2.03,25.781,0,29.92,0S36.2,2.03,38.093,3.821c1.852,1.759,3.449,3.274,6.789,3.274s4.937-1.514,6.792-3.274C53.56,2.03,55.7,0,59.843,0s6.283,2.03,8.17,3.821C69.867,5.58,71.464,7.094,74.8,7.094S79.742,5.58,81.6,3.821C83.486,2.03,85.627,0,89.769,0V2.007c-3.34,0-4.94,1.517-6.8,3.27C81.084,7.072,78.943,9.1,74.8,9.1" transform="translate(1.635 21.62)" fill="#efb499"/>
            <path id="Path_873377" data-name="Path 873377" d="M74.8,9.1c-4.139,0-6.283-2.03-8.169-3.824-1.855-1.756-3.452-3.27-6.792-3.27s-4.937,1.514-6.792,3.27C51.164,7.072,49.02,9.1,44.881,9.1s-6.283-2.03-8.17-3.824c-1.855-1.756-3.452-3.27-6.792-3.27s-4.937,1.517-6.789,3.27C21.241,7.072,19.1,9.1,14.962,9.1S8.678,7.072,6.789,5.278C4.937,3.522,3.34,2.007,0,2.007V0C4.139,0,6.283,2.03,8.169,3.821c1.851,1.759,3.452,3.274,6.792,3.274S19.9,5.58,21.75,3.821C23.637,2.03,25.781,0,29.92,0S36.2,2.03,38.093,3.821c1.852,1.759,3.449,3.274,6.789,3.274s4.937-1.514,6.792-3.274C53.56,2.03,55.7,0,59.843,0s6.283,2.03,8.17,3.821C69.867,5.58,71.464,7.094,74.8,7.094S79.742,5.58,81.6,3.821C83.486,2.03,85.624,0,89.769,0V2.007c-3.34,0-4.941,1.517-6.8,3.27C81.084,7.072,78.943,9.1,74.8,9.1" transform="translate(0.818 10.81)" fill="#efb499"/>
            <path id="Path_873378" data-name="Path 873378" d="M74.8,9.1c-4.139,0-6.28-2.03-8.17-3.821-1.855-1.756-3.452-3.27-6.792-3.27s-4.937,1.514-6.789,3.27C51.164,7.069,49.023,9.1,44.881,9.1s-6.28-2.03-8.169-3.821c-1.855-1.756-3.452-3.27-6.792-3.27s-4.937,1.514-6.789,3.267C21.245,7.069,19.1,9.1,14.962,9.1S8.678,7.069,6.789,5.278C4.937,3.522,3.34,2.007,0,2.007V0C4.139,0,6.283,2.03,8.17,3.821c1.855,1.756,3.452,3.27,6.792,3.27S19.9,5.577,21.75,3.821C23.64,2.03,25.781,0,29.92,0s6.28,2.03,8.173,3.821c1.852,1.756,3.449,3.27,6.789,3.27s4.937-1.514,6.792-3.27C53.563,2.03,55.7,0,59.843,0s6.28,2.03,8.17,3.821c1.855,1.756,3.452,3.27,6.792,3.27s4.937-1.514,6.792-3.27C83.486,2.03,85.627,0,89.769,0V2.007c-3.344,0-4.941,1.514-6.8,3.27C81.084,7.069,78.943,9.1,74.8,9.1" transform="translate(0 0.003)" fill="#efb499"/>
          </g>
        </g>
      </g>
      <circle id="Ellipse_11504" data-name="Ellipse 11504" cx="50.5" cy="50.5" r="50.5" transform="translate(402.668 6031)" fill="#ffce73"/>
      <circle id="Ellipse_11503" data-name="Ellipse 11503" cx="52.5" cy="52.5" r="52.5" transform="translate(395.668 6021)" fill="#f3f9ff"/>
    </g>
    <g id="Group_1100465" data-name="Group 1100465" transform="translate(1870.938 -5407.196)">
      <rect id="Rectangle_401104" data-name="Rectangle 401104" width="68" height="69" transform="translate(0.062 -0.804)" fill="none"/>
      <g id="Group_1100499" data-name="Group 1100499" transform="translate(1.062 3.196)">
        <g id="Group_1100498" data-name="Group 1100498" clip-path="url(#clip-path-3)">
          <path id="Path_880237" data-name="Path 880237" d="M145.535,9.643A9.984,9.984,0,0,1,154.194.308a5.181,5.181,0,0,0,.674.3,9.924,9.924,0,0,1,4.954,16.031,4.974,4.974,0,0,0-1.349,3.8,35.049,35.049,0,0,1-1.83,12.775,22.735,22.735,0,0,1-5.376,9.1,19.95,19.95,0,0,1-6.821,4.341.623.623,0,0,0-.81-.547c-.612.1-.689.614-.766,1.107-1.57.11-3.077.721-4.679.586-1.817.467-3.593-.161-5.391-.2-.487-.44-1.284.106-1.708-.536,1.311-.719,2.835-.565,4.233-1.2a29.341,29.341,0,0,0,8.337-5.45,20.883,20.883,0,0,0,5.376-9.829,22.262,22.262,0,0,0,.487-8.585,44.124,44.124,0,0,0-1.791-7.447c-.513-1.753-1.632-3.2-2.2-4.9M160.344,7.3c-.018-.789-.553-1.188-1.558-1.164a1.117,1.117,0,0,0-1.2,1.212c.017.612.691,1.352,1.2,1.316.959-.068,1.572-.606,1.555-1.364" transform="translate(-106.465 -0.25)" fill="#ffe7ba"/>
          <path id="Path_880238" data-name="Path 880238" d="M59.017,88.171q2.876-3.574,5.753-7.147,3.175-3.928,6.366-7.844c2.092-2.558,4.21-5.093,6.3-7.652,1.795-2.2,3.516-4.46,5.364-6.612a50.217,50.217,0,0,1,3.429-4.02c.089.3.158.6.271.894a27.592,27.592,0,0,1,1.836,14.8,20.8,20.8,0,0,1-9.494,14.678c-5.918,3.822-12.456,4.561-19.293,3.3-.263-.049-.5-.063-.532-.394" transform="translate(-47.929 -44.582)" fill="#ffb937"/>
          <path id="Path_880239" data-name="Path 880239" d="M24.629,249.148c.424.642,1.22.1,1.708.536a11.575,11.575,0,0,1-1.907,2.687,34.824,34.824,0,0,1-5.336,5.038,27.982,27.982,0,0,1-6.214,3.624,26.892,26.892,0,0,1-8.071,2.22c-1.3.112-2.6.16-3.9.21-.35.014-.741.027-.856-.383a.962.962,0,0,1,.328-1.086q3.384-2.794,6.74-5.621,2.757-2.331,5.47-4.715a19.733,19.733,0,0,0,2.828-2.505c.554.054,1.107.135,1.662.158a61.135,61.135,0,0,0,7.552-.162" transform="translate(0 -202.34)" fill="#7d3a1b"/>
          <path id="Path_880240" data-name="Path 880240" d="M67.655,87.41a61.14,61.14,0,0,1-7.552.162c-.555-.023-1.108-.1-1.662-.158a32.42,32.42,0,0,1-4.828-1.033c-.656-.163-.816-.666-.419-1.207a2.807,2.807,0,0,1,.919-.984c.032.33.269.345.532.394,6.837,1.262,13.375.523,19.293-3.3a20.8,20.8,0,0,0,9.494-14.678,27.593,27.593,0,0,0-1.836-14.8c-.112-.289-.181-.6-.271-.894.1-.441.452-.665.771-.921.568,1.706,1.688,3.15,2.2,4.9a44.144,44.144,0,0,1,1.791,7.447,22.26,22.26,0,0,1-.487,8.584,20.883,20.883,0,0,1-5.376,9.829,29.341,29.341,0,0,1-8.337,5.45c-1.4.637-2.922.483-4.233,1.2" transform="translate(-43.026 -40.602)" fill="#de991b"/>
          <path id="Path_880241" data-name="Path 880241" d="M202,46.4a19.953,19.953,0,0,0,6.821-4.341,22.731,22.731,0,0,0,5.376-9.1,35.046,35.046,0,0,0,1.83-12.775,4.974,4.974,0,0,1,1.349-3.8A9.924,9.924,0,0,0,212.418.355a5.143,5.143,0,0,1-.674-.3A10.256,10.256,0,0,1,220.131,2.8a28.458,28.458,0,0,1,2.305,3.024c-.183.3.015.552.108.816a9.968,9.968,0,0,1,.623,4.043,21.129,21.129,0,0,0-.362,2.343c-.557,1.136-.886,2.483-1.888,3.266-1.392,1.087-1.325,2.413-1.366,3.957a43.783,43.783,0,0,1-1.507,11.179,24.426,24.426,0,0,1-4.8,9.491,13.629,13.629,0,0,1-4.481,3.715,3.631,3.631,0,0,0-.764.655,3.887,3.887,0,0,0-1.536.754c-.943.3-1.894.583-2.828.911a3.943,3.943,0,0,1-1.462.215c-.332-.194-.183-.5-.175-.768" transform="translate(-164.015 0)" fill="#f3d59c"/>
          <path id="Path_880242" data-name="Path 880242" d="M180.926,244.553c-.008.271-.157.574.175.768q-.031,2.949-.061,5.9c0,.268.057.412.394.5a13.271,13.271,0,0,0,1.995.672c1.972.147,2.532,1.749,3.344,3.078a.859.859,0,0,1-.209,1.293c-.606.379-.808-.052-1.041-.471a6.276,6.276,0,0,1-.4-.622c-.552-1.354-1.722-1.763-3.042-2.034-.06.432.279.681.392,1.011.148.437.289.893-.214,1.133a.843.843,0,0,1-1.129-.388c-.255-.42-.5-.848-.72-1.286-.472-.926-.449-.911-1.265-.194-.531.467-1.129.858-1.679,1.306-.409.333-.847.638-1.252.1-.419-.559-.153-.987.384-1.379.869-.635,1.667-1.367,2.529-2.013a.676.676,0,0,0,.318-.612q-.031-2.807-.064-5.614-.017-.291-.035-.582c.077-.493.155-1.006.766-1.107a.623.623,0,0,1,.81.547" transform="translate(-142.944 -198.152)" fill="#ffb937"/>
          <path id="Path_880243" data-name="Path 880243" d="M211.19,241.815a3.884,3.884,0,0,1,1.536-.754c.01,1.251.049,2.5.017,3.752a.839.839,0,0,0,.7.926c.933.285,1.883.524,2.793.869,1.45.551,1.822,2,2.455,3.195.157.3-.026.669-.451.9-.442.235-.588-.07-.754-.274a6.774,6.774,0,0,1-1-1.442c-.53-1.188-1.624-1.093-2.768-1.441.261.477.42.761.572,1.049a.691.691,0,0,1-.331,1.024.665.665,0,0,1-1.009-.287c-.286-.581-.658-1.119-.974-1.685-.218-.391-.416-.461-.782-.126a21.761,21.761,0,0,1-1.861,1.523c-.4.293-.929.66-1.35.137-.444-.551-.1-1.057.386-1.431.682-.526,1.383-1.027,2.069-1.548a1.651,1.651,0,0,0,.786-1.568c-.083-.931-.029-1.875-.034-2.813" transform="translate(-168.743 -195.773)" fill="#ffb937"/>
          <path id="Path_880244" data-name="Path 880244" d="M311.01,38.2a21.132,21.132,0,0,1,.362-2.343,9.967,9.967,0,0,0-.623-4.043c-.092-.264-.291-.515-.108-.816,2.16,1.257,4.315,2.522,6.485,3.762.282.161.614.309.593.625-.02.3-.336.549-.613.65-2.026.74-4.063,1.448-6.1,2.166" transform="translate(-252.22 -25.17)" fill="#7d3a1b"/>
          <path id="Path_880245" data-name="Path 880245" d="M173.558,249.967q.017.291.035.582a21.95,21.95,0,0,1-3.853.2c-.294,0-.626.094-.86-.2,1.6.135,3.108-.476,4.678-.586" transform="translate(-137.152 -203.006)" fill="#e8d37c"/>
          <path id="Path_880246" data-name="Path 880246" d="M274.868,32.48c.017.758-.6,1.3-1.555,1.364-.509.036-1.184-.7-1.2-1.316a1.117,1.117,0,0,1,1.2-1.212c1-.024,1.54.375,1.558,1.164" transform="translate(-220.99 -25.432)" fill="#7d3a1b"/>
        </g>
      </g>
    </g>
  </g>
</svg>
