<svg xmlns="http://www.w3.org/2000/svg" xmlns:xlink="http://www.w3.org/1999/xlink" width="121" height="121" viewBox="0 0 121 121">
  <defs>
    <clipPath id="clip-path">
      <rect id="Rectangle_400938" data-name="Rectangle 400938" width="121" height="121" transform="translate(0 0)" fill="none"/>
    </clipPath>
    <clipPath id="clip-path-2">
      <rect id="Rectangle_401073" data-name="Rectangle 401073" width="92.219" height="41.532" fill="#efb499"/>
    </clipPath>
    <clipPath id="clip-path-3">
      <rect id="Rectangle_402300" data-name="Rectangle 402300" width="51.114" height="69" fill="none"/>
    </clipPath>
  </defs>
  <g id="Group_1101312" data-name="Group 1101312" transform="translate(-1142.996 5854)">
    <g id="Group_1100449" data-name="Group 1100449" transform="translate(755.328 -11867)">
      <rect id="Rectangle_401103" data-name="Rectangle 401103" width="121" height="121" transform="translate(387.668 6013)" fill="none"/>
      <g id="Group_1099348" data-name="Group 1099348" transform="translate(387.668 6013)">
        <g id="Group_1099282" data-name="Group 1099282">
          <g id="Group_1099281" data-name="Group 1099281" clip-path="url(#clip-path-2)">
            <path id="Path_873375" data-name="Path 873375" d="M74.8,9.1c-4.139,0-6.28-2.03-8.17-3.821-1.855-1.756-3.452-3.274-6.792-3.274s-4.937,1.517-6.792,3.274C51.161,7.072,49.023,9.1,44.881,9.1s-6.28-2.03-8.169-3.821C34.857,3.525,33.26,2.007,29.92,2.007s-4.937,1.517-6.789,3.274C21.241,7.072,19.1,9.1,14.962,9.1S8.679,7.072,6.789,5.281C4.937,3.525,3.34,2.007,0,2.007V0C4.139,0,6.28,2.033,8.17,3.821c1.855,1.759,3.452,3.274,6.792,3.274S19.9,5.58,21.75,3.824C23.637,2.033,25.781,0,29.92,0s6.283,2.033,8.17,3.821c1.855,1.759,3.452,3.274,6.792,3.274s4.937-1.514,6.792-3.274C53.56,2.033,55.7,0,59.843,0s6.283,2.033,8.17,3.821C69.867,5.58,71.464,7.094,74.8,7.094S79.742,5.58,81.6,3.821C83.483,2.033,85.624,0,89.766,0V2.007c-3.34,0-4.937,1.517-6.792,3.274C81.084,7.072,78.943,9.1,74.8,9.1" transform="translate(2.453 32.43)" fill="#efb499"/>
            <path id="Path_873376" data-name="Path 873376" d="M74.8,9.1c-4.139,0-6.283-2.03-8.17-3.824-1.855-1.756-3.452-3.27-6.792-3.27s-4.937,1.514-6.792,3.27C51.164,7.072,49.023,9.1,44.881,9.1s-6.283-2.03-8.17-3.824c-1.855-1.756-3.452-3.27-6.792-3.27s-4.937,1.517-6.789,3.27C21.241,7.072,19.1,9.1,14.962,9.1S8.679,7.072,6.789,5.278C4.937,3.522,3.34,2.007,0,2.007V0C4.139,0,6.283,2.03,8.17,3.821c1.855,1.759,3.452,3.274,6.792,3.274S19.9,5.58,21.75,3.821C23.637,2.03,25.781,0,29.92,0S36.2,2.03,38.093,3.821c1.852,1.759,3.449,3.274,6.789,3.274s4.937-1.514,6.792-3.274C53.56,2.03,55.7,0,59.843,0s6.283,2.03,8.17,3.821C69.867,5.58,71.464,7.094,74.8,7.094S79.742,5.58,81.6,3.821C83.486,2.03,85.627,0,89.769,0V2.007c-3.34,0-4.94,1.517-6.8,3.27C81.084,7.072,78.943,9.1,74.8,9.1" transform="translate(1.635 21.62)" fill="#efb499"/>
            <path id="Path_873377" data-name="Path 873377" d="M74.8,9.1c-4.139,0-6.283-2.03-8.169-3.824-1.855-1.756-3.452-3.27-6.792-3.27s-4.937,1.514-6.792,3.27C51.164,7.072,49.02,9.1,44.881,9.1s-6.283-2.03-8.17-3.824c-1.855-1.756-3.452-3.27-6.792-3.27s-4.937,1.517-6.789,3.27C21.241,7.072,19.1,9.1,14.962,9.1S8.678,7.072,6.789,5.278C4.937,3.522,3.34,2.007,0,2.007V0C4.139,0,6.283,2.03,8.169,3.821c1.851,1.759,3.452,3.274,6.792,3.274S19.9,5.58,21.75,3.821C23.637,2.03,25.781,0,29.92,0S36.2,2.03,38.093,3.821c1.852,1.759,3.449,3.274,6.789,3.274s4.937-1.514,6.792-3.274C53.56,2.03,55.7,0,59.843,0s6.283,2.03,8.17,3.821C69.867,5.58,71.464,7.094,74.8,7.094S79.742,5.58,81.6,3.821C83.486,2.03,85.624,0,89.769,0V2.007c-3.34,0-4.941,1.517-6.8,3.27C81.084,7.072,78.943,9.1,74.8,9.1" transform="translate(0.818 10.81)" fill="#efb499"/>
            <path id="Path_873378" data-name="Path 873378" d="M74.8,9.1c-4.139,0-6.28-2.03-8.17-3.821-1.855-1.756-3.452-3.27-6.792-3.27s-4.937,1.514-6.789,3.27C51.164,7.069,49.023,9.1,44.881,9.1s-6.28-2.03-8.169-3.821c-1.855-1.756-3.452-3.27-6.792-3.27s-4.937,1.514-6.789,3.267C21.245,7.069,19.1,9.1,14.962,9.1S8.678,7.069,6.789,5.278C4.937,3.522,3.34,2.007,0,2.007V0C4.139,0,6.283,2.03,8.17,3.821c1.855,1.756,3.452,3.27,6.792,3.27S19.9,5.577,21.75,3.821C23.64,2.03,25.781,0,29.92,0s6.28,2.03,8.173,3.821c1.852,1.756,3.449,3.27,6.789,3.27s4.937-1.514,6.792-3.27C53.563,2.03,55.7,0,59.843,0s6.28,2.03,8.17,3.821c1.855,1.756,3.452,3.27,6.792,3.27s4.937-1.514,6.792-3.27C83.486,2.03,85.627,0,89.769,0V2.007c-3.344,0-4.941,1.514-6.8,3.27C81.084,7.069,78.943,9.1,74.8,9.1" transform="translate(0 0.003)" fill="#efb499"/>
          </g>
        </g>
      </g>
      <circle id="Ellipse_11504" data-name="Ellipse 11504" cx="50.5" cy="50.5" r="50.5" transform="translate(402.668 6031)" fill="#ffce73"/>
      <circle id="Ellipse_11503" data-name="Ellipse 11503" cx="52.5" cy="52.5" r="52.5" transform="translate(395.668 6021)" fill="#f3f9ff"/>
    </g>
    <g id="Group_1100452" data-name="Group 1100452" transform="translate(1168.938 -5828.196)">
      <rect id="Rectangle_401104" data-name="Rectangle 401104" width="68" height="69" transform="translate(0.062 -0.804)" fill="none"/>
      <g id="Group_1100489" data-name="Group 1100489" transform="translate(8.063 -0.804)">
        <g id="Group_1100489-2" data-name="Group 1100489" clip-path="url(#clip-path-3)">
          <path id="Path_880146" data-name="Path 880146" d="M106.654,222.991c-.539.006-1.078.016-1.618.016q-3.691,0-7.383,0l-.052-.011a1.764,1.764,0,0,1-.046-.591.9.9,0,0,0-.153-.544.343.343,0,0,0-.005-.1,4.331,4.331,0,0,0-1.474-2.066,4.476,4.476,0,0,0-2.847-.884c-1.291.017-2.583-.029-3.873.042a2.58,2.58,0,0,0-.911-1.741,2.794,2.794,0,0,0-1.825-.608c-.524.005-1.049-.009-1.573-.007-.219,0-.31-.07-.329-.312a12.6,12.6,0,0,0-.332-1.709c-.3-1.334-.55-2.676-.843-4.011-.088-.4-.121-.813-.232-1.2-.287-1.007-.362-2.058-.672-3.061-.126-.409-.125-.856-.227-1.274-.321-1.317-.547-2.654-.838-3.977-.148-.674-.292-1.347-.426-2.024-.026-.131,0-.2.135-.232,1.031-.256,2.058-.532,3.095-.764.708-.158,1.39-.418,2.111-.516a1.182,1.182,0,0,1,.1.522,4.811,4.811,0,0,0,.957,2.483,5.245,5.245,0,0,0,2.172,1.705,6.5,6.5,0,0,0,1.792.45,12.309,12.309,0,0,0,2.713-.038,4.879,4.879,0,0,0,2.4-1.047,5.054,5.054,0,0,0,1.282-1.395,6.309,6.309,0,0,0,.788-2.661,6.607,6.607,0,0,1,1.244.268c.921.225,1.843.451,2.755.7a13.868,13.868,0,0,1,2.276.637,1.877,1.877,0,0,0,.541.1c.724.093,1.4.373,2.116.5.124.023.264-.015.362.1-.089.127.008.2.087.265a7.438,7.438,0,0,1,1.33,1.463,10.347,10.347,0,0,1,1.231,2.927,2.269,2.269,0,0,1,.06.336c.08.58.175,1.157.235,1.741.053.51.147,1.018.15,1.532.037,4.992-.06,9.985.052,14.978l-.053.014a.039.039,0,0,0-.043,0l-2.167-.012q0-5.658,0-11.315c0-.1,0-.2,0-.295a1.028,1.028,0,0,0-1.339-.933.963.963,0,0,0-.725,1.032q0,5.756,0,11.512" transform="translate(-64.995 -158.434)" fill="#7d3a1b"/>
          <path id="Path_880147" data-name="Path 880147" d="M56.2,21.049c-.047-1.681-.009-3.363-.018-5.045-.007-1.395,0-2.789,0-4.184a.017.017,0,0,0,0-.027,9.634,9.634,0,0,1,.109-1.539c.127-.573.2-1.163.372-1.721a12.442,12.442,0,0,1,1.629-3.4,13.9,13.9,0,0,1,1.753-2.041,11.639,11.639,0,0,1,1.545-1.167,9.521,9.521,0,0,1,1.666-.905A10.81,10.81,0,0,1,66.01.2a52.042,52.042,0,0,1,6.68-.185q2.692-.042,5.385.006a7.968,7.968,0,0,1,1.5.248A11.881,11.881,0,0,1,82,1.078,12.355,12.355,0,0,1,84.337,2.5a11.589,11.589,0,0,1,1.706,1.614,12.757,12.757,0,0,1,1.051,1.431,11.67,11.67,0,0,1,1.114,2.235,16.137,16.137,0,0,1,.711,3.085,6.3,6.3,0,0,1,.029,1.035q0,4.468.006,8.935c0,.1-.01.2-.016.294-.118-.014-.177-.105-.249-.183a2.328,2.328,0,0,0-1.826-.848c-.6.017-1.2-.008-1.793.009-.236.006-.3-.057-.3-.3.013-1.041,0-2.082,0-3.122,0-.39-.063-.456-.442-.556-.309-.082-.629-.088-.941-.146-.6-.111-1.209-.126-1.811-.21a8.294,8.294,0,0,1-2.258-.865,4.861,4.861,0,0,1-1.249-1.129,6.767,6.767,0,0,1-.614-1.048c-.157-.291-.259-.308-.514-.106-.353.28-.686.588-1.055.844a15.263,15.263,0,0,1-6.559,2.814c-.859.122-1.716.267-2.581.31-1.379.069-2.76-.04-4.142.048a2.2,2.2,0,0,0-1.916,1.2,3.648,3.648,0,0,0-.4,1.674,2.154,2.154,0,0,1-.05.585c-.622,0-1.245.026-1.866,0a2.415,2.415,0,0,0-1.87.756.618.618,0,0,1-.3.2" transform="translate(-45.083 0)" fill="#365e7d"/>
          <path id="Path_880148" data-name="Path 880148" d="M76.735,70.892a2.138,2.138,0,0,0,.05-.585,3.645,3.645,0,0,1,.4-1.674,2.2,2.2,0,0,1,1.916-1.2c1.382-.088,2.763.022,4.142-.047.865-.043,1.723-.188,2.581-.31a15.263,15.263,0,0,0,6.559-2.814c.369-.256.7-.564,1.055-.844.255-.2.357-.185.514.106a6.769,6.769,0,0,0,.614,1.048A4.861,4.861,0,0,0,95.819,65.7a8.3,8.3,0,0,0,2.258.865c.1.151-.008.3-.006.452.017,1.269.008,2.539.046,3.809.037,1.213,0,2.428.013,3.641a9.61,9.61,0,0,1-.336,2.638A11.77,11.77,0,0,1,96.2,80.562a16.7,16.7,0,0,1-2.691,3.163,15.614,15.614,0,0,1-2.563,1.917,11.583,11.583,0,0,1-3.132,1.34,7.745,7.745,0,0,1-2.013.255c-.057,0-.13-.015-.168.014-.219.162-.42.04-.593-.058A16.869,16.869,0,0,1,83.2,86.121a.831.831,0,0,0-.228-.082,5.033,5.033,0,0,0-.986-.835A16.494,16.494,0,0,1,79.8,83a11.541,11.541,0,0,1-1.113-1.543,11.035,11.035,0,0,1-1.067-2.029c-.107-.305-.228-.605-.343-.908a.35.35,0,0,0-.009-.1,8.011,8.011,0,0,1-.481-2.929c0-.869.018-1.738-.01-2.606-.016-.482-.033-.964-.04-1.446,0-.184.117-.368,0-.551m5.585,1.925-.015.018.011.021c0,.27.024.541.012.81a.985.985,0,0,0,.919,1.014,1.052,1.052,0,0,0,1.1-.843,4.45,4.45,0,0,0,.027-.98,1.106,1.106,0,0,0-1.026-.975,1.07,1.07,0,0,0-1.029.936m6.713,8.66a1.4,1.4,0,0,1,.776.307c.242.146.336.466.719.467a1.1,1.1,0,0,0,1-.417.974.974,0,0,0-.015-1.188,3.41,3.41,0,0,0-2.1-1.236,1.112,1.112,0,0,0-.459-.049,3.923,3.923,0,0,0-1.609.593,2.336,2.336,0,0,0-.883.89,1.036,1.036,0,0,0,.39,1.283,1.053,1.053,0,0,0,1.293-.2,1.11,1.11,0,0,1,.888-.451m6.726-8.031a2.557,2.557,0,0,0-.042-.6,1.055,1.055,0,0,0-.9-.967,1.04,1.04,0,0,0-1.106.9,7.779,7.779,0,0,0,0,.983c.028.454.327.75.868.9a.956.956,0,0,0,.96-.4,1.087,1.087,0,0,0,.22-.816" transform="translate(-61.583 -50.79)" fill="#fed1a4"/>
          <path id="Path_880149" data-name="Path 880149" d="M108.13,99.381a.826.826,0,0,1,.228.082,16.889,16.889,0,0,0,1.843,1.072c.173.1.375.22.593.058.038-.029.111-.015.168-.014a7.745,7.745,0,0,0,2.013-.255,11.586,11.586,0,0,0,3.132-1.34,15.62,15.62,0,0,0,2.563-1.917,16.7,16.7,0,0,0,2.691-3.163,11.773,11.773,0,0,0,1.593-3.454,9.618,9.618,0,0,0,.336-2.638c-.018-1.214.023-2.429-.013-3.641-.038-1.27-.029-2.539-.046-3.808,0-.151.105-.3.006-.452.6.085,1.212.1,1.811.21.312.057.632.064.941.146.379.1.44.165.442.556.005,1.041.014,2.082,0,3.122,0,.241.062.305.3.3.6-.016,1.2.008,1.793-.009a2.328,2.328,0,0,1,1.826.848c.072.078.131.17.249.183.041.4.293.747.331,1.152a9.036,9.036,0,0,1,0,1.639,5,5,0,0,1-.125.821,3.731,3.731,0,0,1-2.271,2.48,5.845,5.845,0,0,1-2.357.5c-.176,0-.217.109-.267.233-.138.341-.266.687-.419,1.022a15.622,15.622,0,0,1-2.819,4.132,18.984,18.984,0,0,1-2.161,1.923.583.583,0,0,0-.217.514q0,1.722,0,3.444a6.307,6.307,0,0,1-.788,2.661,5.054,5.054,0,0,1-1.282,1.395,4.879,4.879,0,0,1-2.4,1.047,12.31,12.31,0,0,1-2.713.038,6.511,6.511,0,0,1-1.792-.45,5.251,5.251,0,0,1-2.172-1.705,4.811,4.811,0,0,1-.957-2.483,1.179,1.179,0,0,0-.1-.522,3.467,3.467,0,0,0,.009-1.252.083.083,0,0,0,0-.146c.016-.745-.028-1.49.022-2.235a.955.955,0,0,1,.016-.1" transform="translate(-86.743 -64.132)" fill="#ffbc85"/>
          <path id="Path_880150" data-name="Path 880150" d="M219.978,232.491c-.112-4.992-.015-9.985-.052-14.978,0-.514-.1-1.021-.15-1.532-.06-.584-.155-1.161-.235-1.741a2.273,2.273,0,0,0-.061-.336,10.343,10.343,0,0,0-1.231-2.927,7.44,7.44,0,0,0-1.33-1.463c-.079-.068-.176-.138-.087-.265a17.543,17.543,0,0,1,1.7.443,11.159,11.159,0,0,1,3.1,1.443,7.15,7.15,0,0,1,2.976,4.55c.112.543.246,1.087.307,1.647.043.4.057.792.076,1.189.207,4.363.047,8.728.1,13.092.008.705-.219.928-.92.928q-1.941,0-3.882,0a2.1,2.1,0,0,1-.312-.047" transform="translate(-173.991 -167.934)" fill="#682708"/>
          <path id="Path_880151" data-name="Path 880151" d="M22.837,235.186c-1.072,0-2.144.006-3.216.015-.167,0-.178-.084-.178-.215,0-2.213.016-4.425,0-6.638a15.707,15.707,0,0,1,.544-3.9,6.909,6.909,0,0,1,1.24-2.556,5.319,5.319,0,0,1,1.163-1.168c.014.13.1.234.1.375-.006,1.062.057,2.123.087,3.184.034,1.243,0,2.487.058,3.73.019.424.013.848.037,1.273.049.863.077,1.729.1,2.593.034,1.1-.017,2.209.058,3.312" transform="translate(-15.604 -177.139)" fill="#7d3a1b"/>
          <path id="Path_880152" data-name="Path 880152" d="M122.575,305.824c1.291-.071,2.582-.025,3.873-.042a4.478,4.478,0,0,1,2.847.884,4.332,4.332,0,0,1,1.474,2.066.342.342,0,0,1,0,.1.183.183,0,0,0-.216.143,3.575,3.575,0,0,1-.96,1.344,4.465,4.465,0,0,1-3.174,1.175c-1.088-.01-2.176,0-3.265,0a1.978,1.978,0,0,0-.582.054q0-1.755-.008-3.51c0-.736,0-1.473.006-2.209" transform="translate(-98.368 -245.406)" fill="#fed1a4"/>
          <path id="Path_880153" data-name="Path 880153" d="M34.818,229.341c-.075-1.1-.024-2.209-.058-3.312-.026-.865-.055-1.73-.1-2.593-.024-.425-.017-.849-.037-1.273-.057-1.243-.023-2.487-.058-3.73-.029-1.061-.093-2.122-.087-3.184,0-.14-.09-.244-.1-.375a7.709,7.709,0,0,1,2.461-1.438l.1,0,.013.116a.262.262,0,0,0,.006.185c.026,1.36.057,2.719.071,4.079,0,.255,0,.51,0,.765.009.833.023,1.668.071,2.5.061,1.052.081,2.1.112,3.154,0,0-.014.01-.013.014a.19.19,0,0,0,.013.034q0,.3.006.592c-.005,0-.015.011-.014.015a.215.215,0,0,0,.015.035q.055,2.148.11,4.3c-.027.018-.051.038-.04.076-.043.066-.111.058-.175.058l-2.1-.008c-.016-.023-.033-.023-.049,0l-.146,0" transform="translate(-27.585 -171.294)" fill="#682708"/>
          <path id="Path_880154" data-name="Path 880154" d="M58.727,101.778c.116.184,0,.367,0,.551.007.482.024.964.04,1.446.028.868.006,1.738.01,2.606a8.007,8.007,0,0,0,.481,2.929.349.349,0,0,1,.009.1l-.1,0c-.018-.023-.034-.021-.05,0a5.39,5.39,0,0,1-2.873-.732,3.326,3.326,0,0,1-1.519-1.44,2.47,2.47,0,0,1-.393-1.4c.011-.075.036-.153-.038-.213.026-.581-.024-1.163.03-1.744a3.106,3.106,0,0,1,.3-.917.985.985,0,0,0,.061-.232.617.617,0,0,0,.3-.2,2.415,2.415,0,0,1,1.87-.756c.621.03,1.244,0,1.866,0" transform="translate(-43.576 -81.677)" fill="#ffbc85"/>
          <path id="Path_880155" data-name="Path 880155" d="M210.988,275.769q0-5.756,0-11.512a.963.963,0,0,1,.725-1.032,1.028,1.028,0,0,1,1.339.933c0,.1,0,.2,0,.3q0,5.658,0,11.315a2.772,2.772,0,0,1-.822.048c-.269.009-.538,0-.807,0l-.04,0-.4-.046" transform="translate(-169.329 -211.212)" fill="#682708"/>
          <path id="Path_880156" data-name="Path 880156" d="M122.464,323.922a1.969,1.969,0,0,1,.582-.054c1.088,0,2.176-.007,3.265,0a4.466,4.466,0,0,0,3.174-1.175,3.576,3.576,0,0,0,.96-1.344.183.183,0,0,1,.216-.143.9.9,0,0,1,.154.544,1.759,1.759,0,0,0,.046.591.18.18,0,0,1,0,.036c-.146.255-.068.545-.132.815a4.331,4.331,0,0,1-1.446,2.365,4.416,4.416,0,0,1-2.163.96,2.029,2.029,0,0,1-.343.007c-1.376,0-2.753,0-4.129,0-.193,0-.229-.036-.218-.249.036-.638.021-1.278.026-1.918,0-.147,0-.295.008-.442" transform="translate(-98.255 -257.786)" fill="#ffbc85"/>
          <path id="Path_880157" data-name="Path 880157" d="M54.094,121.256c.074.06.048.138.038.213-.1-.055-.113-.126-.038-.213" transform="translate(-43.373 -97.315)" fill="#fed1a4"/>
          <path id="Path_880158" data-name="Path 880158" d="M107.917,190.33a.083.083,0,0,1,0,.146c-.07-.049-.07-.1,0-.146" transform="translate(-86.568 -152.75)" fill="#fed1a4"/>
          <path id="Path_880159" data-name="Path 880159" d="M47.35,214.22a.262.262,0,0,1-.006-.185.157.157,0,0,1,.006.185" transform="translate(-37.985 -171.775)" fill="#fed1a4"/>
          <path id="Path_880160" data-name="Path 880160" d="M49.114,293.446c-.011-.038.014-.058.04-.076.023.044.022.077-.04.076" transform="translate(-39.415 -235.445)" fill="#ffbc85"/>
          <path id="Path_880161" data-name="Path 880161" d="M56.049,59.715a.017.017,0,0,1,0,.027c-.014,0-.04,0-.04-.006,0-.036.023-.022.041-.022" transform="translate(-44.949 -47.922)" fill="#fed1a4"/>
          <path id="Path_880162" data-name="Path 880162" d="M46.934,213.311l-.1,0c.034-.04.066-.044.1,0" transform="translate(-37.588 -171.168)" fill="#fed1a4"/>
          <path id="Path_880163" data-name="Path 880163" d="M78.721,140.367c.015-.023.032-.026.05,0l-.05,0" transform="translate(-63.178 -112.637)" fill="#fed1a4"/>
          <path id="Path_880164" data-name="Path 880164" d="M48.681,268.172a.2.2,0,0,1-.013-.034s.009-.009.013-.014v.048" transform="translate(-39.059 -215.184)" fill="#eb5368"/>
          <path id="Path_880165" data-name="Path 880165" d="M48.709,271.412a.21.21,0,0,1-.015-.035s.009-.009.014-.014c0,.016,0,.033,0,.049" transform="translate(-39.079 -217.784)" fill="#eb5368"/>
          <path id="Path_880166" data-name="Path 880166" d="M37.373,293.936c.017-.022.033-.022.049,0h-.049" transform="translate(-29.994 -235.886)" fill="#eb5368"/>
          <path id="Path_880167" data-name="Path 880167" d="M165.133,327.006a.2.2,0,0,0,0-.036l.052.011-.053.024" transform="translate(-132.528 -262.411)" fill="#fed1a4"/>
          <path id="Path_880168" data-name="Path 880168" d="M212.995,327.2l.04,0-.021,0Z" transform="translate(-170.94 -262.594)" fill="#fed1a4"/>
          <path id="Path_880169" data-name="Path 880169" d="M232.424,327a.039.039,0,0,1,.043,0h-.043" transform="translate(-186.533 -262.432)" fill="#fed1a4"/>
          <path id="Path_880170" data-name="Path 880170" d="M128.22,146.781a1.111,1.111,0,0,0-.889.451,1.053,1.053,0,0,1-1.293.2,1.036,1.036,0,0,1-.39-1.283,2.337,2.337,0,0,1,.883-.89,3.925,3.925,0,0,1,1.609-.593,1.112,1.112,0,0,1,.459.049,3.41,3.41,0,0,1,2.1,1.236.974.974,0,0,1,.015,1.188,1.1,1.1,0,0,1-1,.417c-.382,0-.477-.321-.719-.467a1.394,1.394,0,0,0-.776-.308" transform="translate(-100.771 -116.095)" fill="#ffbc85"/>
          <path id="Path_880171" data-name="Path 880171" d="M164.692,108.375a1.087,1.087,0,0,1-.22.816.956.956,0,0,1-.96.4c-.541-.15-.84-.445-.868-.9a7.778,7.778,0,0,1,0-.983,1.04,1.04,0,0,1,1.106-.9,1.055,1.055,0,0,1,.9.967,2.556,2.556,0,0,1,.042.6" transform="translate(-130.517 -85.719)" fill="#365e7d"/>
          <path id="Path_880172" data-name="Path 880172" d="M105.007,107.748a1.07,1.07,0,0,1,1.029-.936,1.106,1.106,0,0,1,1.026.976,4.451,4.451,0,0,1-.027.98,1.052,1.052,0,0,1-1.1.842.985.985,0,0,1-.919-1.013c.012-.269-.007-.54-.012-.81a.031.031,0,0,0,0-.038" transform="translate(-84.271 -85.721)" fill="#365e7d"/>
          <path id="Path_880173" data-name="Path 880173" d="M104.962,111.557a.031.031,0,0,1,0,.038l-.011-.021Z" transform="translate(-84.226 -89.531)" fill="#ffbc85"/>
          <path id="Path_880174" data-name="Path 880174" d="M16.134,203.892,19.9,221.7s4.179-.919,4.309,2.357l-.032,8.079-20.9.5s-7.835-5.8.746-10.938l5.723-.138-.394-15.781Z" transform="translate(0 -163.634)" fill="#d9e2e8"/>
        </g>
      </g>
    </g>
  </g>
</svg>
